<svg xmlns="http://www.w3.org/2000/svg" xmlns:xlink="http://www.w3.org/1999/xlink" width="322.719" height="265.528" viewBox="0 0 322.719 265.528">
  <defs>
    <linearGradient id="linear-gradient" x1="-0.208" y1="-0.025" x2="1.267" y2="1.07" gradientUnits="objectBoundingBox">
      <stop offset="0" stop-color="#e6e6e6"/>
      <stop offset="0.574" stop-color="#f7f7f7"/>
      <stop offset="1" stop-color="#fff"/>
    </linearGradient>
    <clipPath id="clip-path">
      <path id="SVGID" d="M205.075,167.369h0v42.17h19.452V180.471h0V125.753H205.075Zm-4.147,13.1h0v29.068H181.476V110.116h19.452Zm-43.048-74.958h19.452v74.958h0v29.068H157.881v-85.43h0Zm-23.6-13.527h19.452v88.485h0v29.068H134.282V132.492h0Zm-23.6,8.089h19.454v80.4h0v29.066H110.681V117.819h0Zm-23.6-15.06h19.452v95.456h0v29.068H87.085V175.231h0Zm-23.6-18.54H82.938v114h0v29.068H63.486V130.4h0Z" transform="translate(-63.486 -66.474)" fill="none"/>
    </clipPath>
    <clipPath id="clip-path-2">
      <path id="SVGID-2" data-name="SVGID" d="M190.687,173.013c.159-.211.316-.422.464-.634l.019-.027q.454-.655.839-1.324l.021-.038c.111-.194.217-.389.318-.584.04-.077.081-.155.121-.234.094-.188.186-.374.274-.563.029-.061.054-.123.082-.186.148-.333.287-.667.414-1,.044-.117.09-.234.13-.353.057-.157.109-.314.161-.471.046-.14.09-.282.132-.422s.086-.284.125-.425c.073-.261.138-.521.2-.782.027-.117.052-.236.077-.353.038-.182.075-.362.109-.542.021-.119.042-.238.061-.355.036-.213.067-.424.1-.636.01-.077.023-.155.033-.232.034-.284.065-.567.088-.851.008-.086.013-.172.019-.259.017-.217.031-.433.04-.648,0-.086.008-.172.011-.261.01-.287.017-.573.017-.859,0-9.744-11.136-26.64-20.926-37.423h.125c-.163-.169-.324-.33-.485-.5h0c-.408-.42-.814-.841-1.215-1.246H172c-.529-.554-1.05-1.081-1.564-1.591h0c-.153-.151-.309-.307-.462-.454h0a11.632,11.632,0,0,0,.782-1.288h0c2.334-3.877,9.091-15.181,9.091-15.181.376-1.311-1.037-2.48-2.648-2.221-3.342.535-8.913,1.506-10.975,1.3l0,.006c-.094-.008-.192-.015-.276-.029-.652-.1-.755-.349-1.834-.617a6.042,6.042,0,0,0-3.051-.264A5.541,5.541,0,0,0,158.8,102.9c-2.039,1.87-3.6,2.158-4.611,2.11-3.208-.148-9.29-3.894-12.54-4.063a3.329,3.329,0,0,0-.493.013h0a2.633,2.633,0,0,0-.31.054h0a1.953,1.953,0,0,0-.466.163,2.355,2.355,0,0,0-.937,2.69l7.951,15.783a2.588,2.588,0,0,0,.121.314c-.084.082-.171.167-.257.249h0q-.79.762-1.6,1.591h-.036q-.865.851-1.748,1.742h.115c-9.976,10.655-21.409,27.225-21.409,37.423,0,10.39,6.366,22.718,35.98,22.718,18.065,0,27.47-4.651,32.067-10.6Z" transform="translate(-122.578 -100.945)" fill="none"/>
    </clipPath>
    <clipPath id="clip-path-3">
      <path id="SVGID-3" data-name="SVGID" d="M172.429,133.195a19.215,19.215,0,0,1-13.178,0c-1-.527-1.211-1.1-1.211-1.493,0-.437,0-.435,0,0v6.707h0v2.238h0v4.473h0v2.236h0v4.473h0v2.234c0,1.748,3.925,2.662,7.8,2.662s7.8-.914,7.8-2.662v-2.234h0v-4.473h0v-2.236h0v-4.473h0v-2.238h0v-6.688C173.635,132.114,173.416,132.678,172.429,133.195Z" transform="translate(-158.038 -131.376)" fill="none"/>
    </clipPath>
    <clipPath id="clip-path-4">
      <path id="SVGID-4" data-name="SVGID" d="M147.549,138.172a19.215,19.215,0,0,0,13.178,0c1-.527,1.211-1.1,1.211-1.493,0-.437,0-.435,0,0v11.193c0,1.748-3.925,2.662-7.8,2.662s-7.8-.914-7.8-2.662V136.7C146.344,137.091,146.562,137.655,147.549,138.172Z" transform="translate(-146.336 -136.352)" fill="none"/>
    </clipPath>
    <clipPath id="clip-path-5">
      <path id="SVGID-5" data-name="SVGID" d="M144.23,142.885a19.25,19.25,0,0,0,13.18,0c1-.527,1.209-1.1,1.209-1.493,0-.437,0-.437,0,0v4.446c0,1.748-3.925,2.662-7.8,2.662s-7.8-.914-7.8-2.662v-4.427C143.025,141.8,143.243,142.366,144.23,142.885Z" transform="translate(-143.017 -141.065)" fill="none"/>
    </clipPath>
    <clipPath id="clip-path-6">
      <path id="SVGID-6" data-name="SVGID" d="M152.957,141.451a19.249,19.249,0,0,0,13.18,0c1-.527,1.209-1.1,1.209-1.493,0-.437,0-.437,0,0V148.9c0,1.746-3.925,2.662-7.8,2.662s-7.8-.916-7.8-2.662v-8.924C151.752,140.371,151.97,140.932,152.957,141.451Z" transform="translate(-151.744 -139.631)" fill="none"/>
    </clipPath>
    <clipPath id="clip-path-7">
      <path id="SVGID-7" data-name="SVGID" d="M159.137,133a6.944,6.944,0,1,0,6.943,6.945A6.953,6.953,0,0,0,159.137,133Z" transform="translate(-152.192 -133.005)" fill="none"/>
    </clipPath>
  </defs>
  <g id="Grupo_19987" data-name="Grupo 19987" transform="translate(-8.608 -8.528)">
    <circle id="Elipse_1132" data-name="Elipse 1132" cx="78.517" cy="78.517" r="78.517" transform="translate(8.608 119.568) rotate(-45)" fill="url(#linear-gradient)" style="mix-blend-mode: multiply;isolation: isolate"/>
    <g id="Grupo_19931" data-name="Grupo 19931" transform="translate(87.095 82.324)">
      <g id="Grupo_19930" data-name="Grupo 19930" transform="translate(26.676 37.245)">
        <g id="Grupo_19929" data-name="Grupo 19929" clip-path="url(#clip-path)">
          <g id="Grupo_19928" data-name="Grupo 19928" transform="translate(-16.202 -0.43)">
            <g id="Grupo_19927" data-name="Grupo 19927">
              <rect id="Rectángulo_4956" data-name="Rectángulo 4956" width="203.795" height="0.857" fill="#2e495a"/>
              <rect id="Rectángulo_4957" data-name="Rectángulo 4957" width="203.795" height="0.857" transform="translate(0 3.125)" fill="#2e495a"/>
              <rect id="Rectángulo_4958" data-name="Rectángulo 4958" width="203.795" height="0.857" transform="translate(0 6.25)" fill="#2e495a"/>
              <rect id="Rectángulo_4959" data-name="Rectángulo 4959" width="203.795" height="0.857" transform="translate(0 9.375)" fill="#2e495a"/>
              <rect id="Rectángulo_4960" data-name="Rectángulo 4960" width="203.795" height="0.857" transform="translate(0 12.501)" fill="#2e495a"/>
              <rect id="Rectángulo_4961" data-name="Rectángulo 4961" width="203.795" height="0.857" transform="translate(0 15.626)" fill="#2e495a"/>
              <rect id="Rectángulo_4962" data-name="Rectángulo 4962" width="203.795" height="0.857" transform="translate(0 18.751)" fill="#2e495a"/>
              <rect id="Rectángulo_4963" data-name="Rectángulo 4963" width="203.795" height="0.857" transform="translate(0 21.876)" fill="#2e495a"/>
              <rect id="Rectángulo_4964" data-name="Rectángulo 4964" width="203.795" height="0.857" transform="translate(0 25.001)" fill="#2e495a"/>
              <rect id="Rectángulo_4965" data-name="Rectángulo 4965" width="203.795" height="0.857" transform="translate(0 28.127)" fill="#2e495a"/>
              <rect id="Rectángulo_4966" data-name="Rectángulo 4966" width="203.795" height="0.857" transform="translate(0 31.252)" fill="#2e495a"/>
              <rect id="Rectángulo_4967" data-name="Rectángulo 4967" width="203.795" height="0.857" transform="translate(0 34.377)" fill="#2e495a"/>
              <rect id="Rectángulo_4968" data-name="Rectángulo 4968" width="203.795" height="0.857" transform="translate(0 37.502)" fill="#2e495a"/>
              <rect id="Rectángulo_4969" data-name="Rectángulo 4969" width="203.795" height="0.857" transform="translate(0 40.627)" fill="#2e495a"/>
              <rect id="Rectángulo_4970" data-name="Rectángulo 4970" width="203.795" height="0.857" transform="translate(0 43.752)" fill="#2e495a"/>
              <rect id="Rectángulo_4971" data-name="Rectángulo 4971" width="203.795" height="0.857" transform="translate(0 46.878)" fill="#2e495a"/>
              <rect id="Rectángulo_4972" data-name="Rectángulo 4972" width="203.795" height="0.857" transform="translate(0 50.003)" fill="#2e495a"/>
              <rect id="Rectángulo_4973" data-name="Rectángulo 4973" width="203.795" height="0.857" transform="translate(0 53.128)" fill="#2e495a"/>
              <rect id="Rectángulo_4974" data-name="Rectángulo 4974" width="203.795" height="0.857" transform="translate(0 56.253)" fill="#2e495a"/>
              <rect id="Rectángulo_4975" data-name="Rectángulo 4975" width="203.795" height="0.857" transform="translate(0 59.378)" fill="#2e495a"/>
              <rect id="Rectángulo_4976" data-name="Rectángulo 4976" width="203.795" height="0.857" transform="translate(0 62.503)" fill="#2e495a"/>
              <rect id="Rectángulo_4977" data-name="Rectángulo 4977" width="203.795" height="0.857" transform="translate(0 65.629)" fill="#2e495a"/>
              <rect id="Rectángulo_4978" data-name="Rectángulo 4978" width="203.795" height="0.857" transform="translate(0 68.754)" fill="#2e495a"/>
              <rect id="Rectángulo_4979" data-name="Rectángulo 4979" width="203.795" height="0.857" transform="translate(0 71.879)" fill="#2e495a"/>
              <rect id="Rectángulo_4980" data-name="Rectángulo 4980" width="203.795" height="0.857" transform="translate(0 75.004)" fill="#2e495a"/>
              <rect id="Rectángulo_4981" data-name="Rectángulo 4981" width="203.795" height="0.857" transform="translate(0 78.129)" fill="#2e495a"/>
              <rect id="Rectángulo_4982" data-name="Rectángulo 4982" width="203.795" height="0.857" transform="translate(0 81.255)" fill="#2e495a"/>
              <rect id="Rectángulo_4983" data-name="Rectángulo 4983" width="203.795" height="0.857" transform="translate(0 84.38)" fill="#2e495a"/>
              <rect id="Rectángulo_4984" data-name="Rectángulo 4984" width="203.795" height="0.857" transform="translate(0 87.505)" fill="#2e495a"/>
              <rect id="Rectángulo_4985" data-name="Rectángulo 4985" width="203.795" height="0.857" transform="translate(0 90.63)" fill="#2e495a"/>
              <rect id="Rectángulo_4986" data-name="Rectángulo 4986" width="203.795" height="0.857" transform="translate(0 93.755)" fill="#2e495a"/>
              <rect id="Rectángulo_4987" data-name="Rectángulo 4987" width="203.795" height="0.857" transform="translate(0 96.88)" fill="#2e495a"/>
              <rect id="Rectángulo_4988" data-name="Rectángulo 4988" width="203.795" height="0.857" transform="translate(0 100.006)" fill="#2e495a"/>
              <rect id="Rectángulo_4989" data-name="Rectángulo 4989" width="203.795" height="0.857" transform="translate(0 103.131)" fill="#2e495a"/>
              <rect id="Rectángulo_4990" data-name="Rectángulo 4990" width="203.795" height="0.857" transform="translate(0 106.256)" fill="#2e495a"/>
              <rect id="Rectángulo_4991" data-name="Rectángulo 4991" width="203.795" height="0.857" transform="translate(0 109.381)" fill="#2e495a"/>
              <rect id="Rectángulo_4992" data-name="Rectángulo 4992" width="203.795" height="0.857" transform="translate(0 112.506)" fill="#2e495a"/>
              <rect id="Rectángulo_4993" data-name="Rectángulo 4993" width="203.795" height="0.857" transform="translate(0 115.631)" fill="#2e495a"/>
              <rect id="Rectángulo_4994" data-name="Rectángulo 4994" width="203.795" height="0.857" transform="translate(0 118.756)" fill="#2e495a"/>
              <rect id="Rectángulo_4995" data-name="Rectángulo 4995" width="203.795" height="0.857" transform="translate(0 121.882)" fill="#2e495a"/>
              <rect id="Rectángulo_4996" data-name="Rectángulo 4996" width="203.795" height="0.857" transform="translate(0 125.007)" fill="#2e495a"/>
              <rect id="Rectángulo_4997" data-name="Rectángulo 4997" width="203.795" height="0.857" transform="translate(0 128.132)" fill="#2e495a"/>
              <rect id="Rectángulo_4998" data-name="Rectángulo 4998" width="203.795" height="0.857" transform="translate(0 131.257)" fill="#2e495a"/>
              <rect id="Rectángulo_4999" data-name="Rectángulo 4999" width="203.795" height="0.857" transform="translate(0 134.382)" fill="#2e495a"/>
              <rect id="Rectángulo_5000" data-name="Rectángulo 5000" width="203.795" height="0.857" transform="translate(0 137.508)" fill="#2e495a"/>
              <rect id="Rectángulo_5001" data-name="Rectángulo 5001" width="203.795" height="0.857" transform="translate(0 140.633)" fill="#2e495a"/>
              <rect id="Rectángulo_5002" data-name="Rectángulo 5002" width="203.795" height="0.857" transform="translate(0 143.758)" fill="#2e495a"/>
            </g>
          </g>
        </g>
      </g>
      <path id="Trazado_51032" data-name="Trazado 51032" d="M237.936,135.827V129.46h8.939L175.623,91.33l-21.305,12.7L49.566,52.756l2.8-5.718L154.02,96.791l21.433-12.772,74.979,40.125-4.04-7.5,5.606-3.02,11.961,22.2Z" transform="translate(-49.566 -47.038)" fill="#2e495a"/>
    </g>
    <g id="Grupo_19986" data-name="Grupo 19986" transform="translate(199.224 185.625)">
      <ellipse id="Elipse_1133" data-name="Elipse 1133" cx="66.051" cy="7.372" rx="66.051" ry="7.372" transform="translate(0 73.687)" fill="#e6e6e6" style="mix-blend-mode: multiply;isolation: isolate"/>
      <g id="Grupo_19985" data-name="Grupo 19985" transform="translate(20.761)">
        <g id="Grupo_19938" data-name="Grupo 19938" transform="translate(7.023)">
          <path id="Trazado_51033" data-name="Trazado 51033" d="M169.978,119.762c.18-.249,9.875-16.469,9.875-16.469.376-1.311-1.037-2.48-2.648-2.221-3.493.558-9.091,1.61-11.252,1.278-.652-.1-.755-.349-1.834-.617a6.042,6.042,0,0,0-3.051-.264A5.541,5.541,0,0,0,158.8,102.9c-2.037,1.87-3.6,2.158-4.611,2.11-3.208-.148-9.29-3.894-12.54-4.063a2.489,2.489,0,0,0-1.269.23,2.355,2.355,0,0,0-.937,2.69l7.951,15.783a2.588,2.588,0,0,0,.121.314c-10.576,10.141-24.935,29.576-24.935,41,0,10.39,6.366,22.718,35.98,22.718s35.982-12.49,35.982-22.718C194.541,149.991,180.4,129.92,169.978,119.762Z" transform="translate(-122.578 -100.944)" fill="#2e495a"/>
          <g id="Grupo_19932" data-name="Grupo 19932" transform="translate(17.956 0.018)">
            <path id="Trazado_51034" data-name="Trazado 51034" d="M132.569,100.954a2.247,2.247,0,0,0-.621.153A5.13,5.13,0,0,0,132.569,100.954Z" transform="translate(-131.948 -100.954)" fill="#383d49"/>
            <path id="Trazado_51035" data-name="Trazado 51035" d="M151.872,119.718c.18-.249,9.875-16.469,9.875-16.469.376-1.311-1.037-2.48-2.648-2.221-3.342.535-8.913,1.506-10.975,1.3-1.939,5.122-5.642,14.876-5.787,15.079,11.486,11.2,27.077,33.324,27.077,45.43a21.013,21.013,0,0,1-9.806,18.381c13.41-4.13,16.827-12.812,16.827-20.292C176.436,149.947,162.293,129.876,151.872,119.718Z" transform="translate(-122.429 -100.919)" fill="#ccc" style="mix-blend-mode: multiply;isolation: isolate"/>
          </g>
          <g id="Grupo_19937" data-name="Grupo 19937" transform="translate(21.294 17.529)">
            <g id="Grupo_19936" data-name="Grupo 19936">
              <g id="Grupo_19935" data-name="Grupo 19935">
                <g id="Grupo_19933" data-name="Grupo 19933" transform="translate(2.947)">
                  <path id="Trazado_51036" data-name="Trazado 51036" d="M158.848,111.834c-.153-.151-.309-.307-.462-.454a10.774,10.774,0,0,0,.784-1.288l-23.942.04.573,1.138a2.6,2.6,0,0,0,.121.314c-.084.082-.171.167-.257.249Z" transform="translate(-135.228 -110.092)" fill="#fadd75"/>
                </g>
                <g id="Grupo_19934" data-name="Grupo 19934" transform="translate(0 3.332)">
                  <path id="Trazado_51037" data-name="Trazado 51037" d="M163.557,113.573c-.573-.594-1.14-1.177-1.7-1.742h-26.42q-.865.851-1.748,1.742Z" transform="translate(-133.69 -111.831)" fill="#fadd75"/>
                </g>
              </g>
            </g>
            <path id="Trazado_51038" data-name="Trazado 51038" d="M135.617,110.741c.029.084.061.167.1.249-.084.082-.171.167-.257.249h23.183c-.153-.151-.309-.307-.462-.454l.021-.044Z" transform="translate(-132.072 -109.497)" fill="#fcab1e"/>
            <path id="Trazado_51039" data-name="Trazado 51039" d="M163.073,112.481H134.188c-.167.167-.332.328-.5.5h29.867C163.394,112.809,163.234,112.648,163.073,112.481Z" transform="translate(-133.69 -107.903)" fill="#fcab1e"/>
          </g>
          <path id="Trazado_51040" data-name="Trazado 51040" d="M147.78,134.274a.127.127,0,0,1-.044-.046q-.379-.23-1.029-.676c-2.669-1.759-4-3.221-4-4.392a2.188,2.188,0,0,1,.7-1.7,2.646,2.646,0,0,1,1.868-.642,2.845,2.845,0,0,1,2.353.922,4.572,4.572,0,0,1,.749,2.913v.514h5.521v-.56q0-4.234-2.058-6.331a6.872,6.872,0,0,0-3.593-1.857V118.8h-5.414v3.618a7.889,7.889,0,0,0-3.649,1.64,6.806,6.806,0,0,0-2.227,5.494,7.84,7.84,0,0,0,1.316,4.6c.874,1.282,2.959,3,6.224,5.141.171.119.4.263.676.452,2.11,1.353,3.156,2.562,3.156,3.616a2.527,2.527,0,0,1-.757,1.932,2.865,2.865,0,0,1-2.049.713,2.712,2.712,0,0,1-2.39-.993,6.743,6.743,0,0,1-.694-3.608v-.469h-5.63c0,.127-.008.3-.027.533s-.017.406-.017.514q0,4.467,2.11,6.567a7.3,7.3,0,0,0,3.925,1.87v3.56h5.412v-3.576a8.107,8.107,0,0,0,3.8-1.711,6.917,6.917,0,0,0,2.3-5.565Q154.321,138.627,147.78,134.274Z" transform="translate(-109.568 -84.58)" fill="#fff"/>
        </g>
        <g id="Grupo_19940" data-name="Grupo 19940" transform="translate(7.023 0.001)">
          <g id="Grupo_19939" data-name="Grupo 19939" clip-path="url(#clip-path-2)">
            <path id="Trazado_51041" data-name="Trazado 51041" d="M186.008,132.839v-.019c0-1.748-3.925-2.662-7.8-2.662a18.1,18.1,0,0,0-5.852.843s-3.25,1.456-3.25,3.252v1.269l-1.041.368a6.911,6.911,0,0,0-8.378,4.139,21.989,21.989,0,0,0-3.9-.333c-3.877,0-7.8.914-7.8,2.66v6.414c-3.35.2-6.358,1.089-6.358,2.618v4.471c0,.027.012.052.013.08a1.218,1.218,0,0,0,.046.249,1.559,1.559,0,0,0,.1.226l.04.067a2.485,2.485,0,0,0,1.014.868c1.4.73,43.174-.42,43.174-2.167v-2.234h0v-4.473h0v-2.236h0v-4.473h0v-2.238h0v-6.688Z" transform="translate(-105.129 -74.177)" fill="#ccc" style="mix-blend-mode: multiply;isolation: isolate"/>
            <path id="Trazado_51042" data-name="Trazado 51042" d="M145.423,125.27h-24.2a2.272,2.272,0,0,0-2.305,2.225V159.89a2.526,2.526,0,0,0,2.562,2.474h23.691a2.525,2.525,0,0,0,2.56-2.474V127.495A2.271,2.271,0,0,0,145.423,125.27Z" transform="translate(-125.936 -78.656)" fill="#ccc" style="mix-blend-mode: multiply;isolation: isolate"/>
          </g>
        </g>
        <g id="calc" transform="translate(0 46.776)">
          <path id="body" d="M118.913,154.145a2.409,2.409,0,0,0,2.4,2.4h22.225a2.409,2.409,0,0,0,2.4-2.4v-23.5H118.913Z" transform="translate(-118.913 -120.507)" fill="#2e495a"/>
          <path id="head" d="M143.781,125.354H121.075a2.169,2.169,0,0,0-2.162,2.164v7.974h27.029v-7.974A2.168,2.168,0,0,0,143.781,125.354Z" transform="translate(-118.913 -125.354)" fill="#3d5965"/>
          <rect id="screen" width="21.67" height="5.631" rx="1.443" transform="translate(2.68 2.253)" fill="#fff"/>
          <g id="button" transform="translate(2.68 12.418)">
            <rect id="Rectángulo_5003" data-name="Rectángulo 5003" width="4.76" height="4.431" rx="1.136" fill="#5e7681"/>
            <rect id="Rectángulo_5004" data-name="Rectángulo 5004" width="4.76" height="4.431" rx="1.136" transform="translate(0 5.637)" fill="#5e7681"/>
            <rect id="Rectángulo_5005" data-name="Rectángulo 5005" width="4.76" height="4.431" rx="1.136" transform="translate(0 11.273)" fill="#5e7681"/>
            <rect id="Rectángulo_5006" data-name="Rectángulo 5006" width="4.76" height="4.431" rx="1.136" transform="translate(5.637)" fill="#5e7681"/>
            <rect id="Rectángulo_5007" data-name="Rectángulo 5007" width="4.76" height="4.431" rx="1.136" transform="translate(5.637 5.637)" fill="#5e7681"/>
            <rect id="Rectángulo_5008" data-name="Rectángulo 5008" width="4.76" height="4.431" rx="1.136" transform="translate(5.637 11.273)" fill="#5e7681"/>
            <rect id="Rectángulo_5009" data-name="Rectángulo 5009" width="4.76" height="4.431" rx="1.136" transform="translate(11.274)" fill="#5e7681"/>
            <rect id="Rectángulo_5010" data-name="Rectángulo 5010" width="4.76" height="4.431" rx="1.136" transform="translate(11.274 5.637)" fill="#5e7681"/>
            <rect id="Rectángulo_5011" data-name="Rectángulo 5011" width="4.76" height="4.431" rx="1.136" transform="translate(11.274 11.273)" fill="#5e7681"/>
            <rect id="Rectángulo_5012" data-name="Rectángulo 5012" width="4.76" height="4.431" rx="1.136" transform="translate(0 16.91)" fill="#5e7681"/>
            <rect id="Rectángulo_5013" data-name="Rectángulo 5013" width="4.76" height="4.431" rx="1.136" transform="translate(5.637 16.91)" fill="#5e7681"/>
            <rect id="Rectángulo_5014" data-name="Rectángulo 5014" width="4.76" height="4.431" rx="1.136" transform="translate(11.274 16.91)" fill="#5e7681"/>
            <rect id="Rectángulo_5015" data-name="Rectángulo 5015" width="4.76" height="4.431" rx="1.136" transform="translate(16.91 5.637)" fill="#5e7681"/>
            <rect id="Rectángulo_5016" data-name="Rectángulo 5016" width="4.76" height="4.431" rx="1.136" transform="translate(16.91 11.274)" fill="#5e7681"/>
            <rect id="Rectángulo_5017" data-name="Rectángulo 5017" width="4.76" height="4.431" rx="1.136" transform="translate(16.91 16.91)" fill="#5e7681"/>
            <rect id="Rectángulo_5018" data-name="Rectángulo 5018" width="4.76" height="4.431" rx="1.136" transform="translate(16.91)" fill="#be1e2d"/>
          </g>
          <g id="number" transform="translate(4.237 13.297)">
            <g id="Grupo_19941" data-name="Grupo 19941" transform="translate(0.303 11.394)">
              <path id="Trazado_51043" data-name="Trazado 51043" d="M121.732,138.519h-.008l-.385.209-.057-.23.485-.259h.255v2.217h-.289Z" transform="translate(-121.282 -138.239)" fill="#f1f1f2"/>
            </g>
            <g id="Grupo_19942" data-name="Grupo 19942" transform="translate(5.739 11.356)">
              <path id="Trazado_51044" data-name="Trazado 51044" d="M124.119,140.474v-.184l.236-.228c.565-.54.822-.826.824-1.159a.4.4,0,0,0-.439-.435.761.761,0,0,0-.471.188l-.1-.211a.97.97,0,0,1,.629-.226.624.624,0,0,1,.678.646c0,.41-.3.74-.765,1.19l-.176.165v.006h1v.249Z" transform="translate(-124.119 -138.219)" fill="#f1f1f2"/>
            </g>
            <g id="Grupo_19943" data-name="Grupo 19943" transform="translate(11.366 11.356)">
              <path id="Trazado_51045" data-name="Trazado 51045" d="M127.135,140.13a1,1,0,0,0,.492.14c.385,0,.5-.245.5-.429,0-.31-.282-.443-.573-.443h-.167v-.226h.167c.218,0,.494-.113.494-.376,0-.176-.111-.333-.387-.333a.826.826,0,0,0-.445.146l-.079-.218a1.065,1.065,0,0,1,.581-.171c.437,0,.634.261.634.529a.551.551,0,0,1-.41.523v.006a.579.579,0,0,1,.5.571c0,.355-.278.665-.809.665a1.116,1.116,0,0,1-.577-.151Z" transform="translate(-127.055 -138.219)" fill="#f1f1f2"/>
            </g>
            <g id="Grupo_19944" data-name="Grupo 19944" transform="translate(0 5.757)">
              <path id="Trazado_51046" data-name="Trazado 51046" d="M122.153,137.514v-.6h-1.029v-.2l.989-1.414h.324v1.378h.31v.236h-.31v.6Zm0-.839v-.74c0-.117,0-.234.012-.349h-.012c-.067.13-.123.226-.184.328l-.542.753v.008Z" transform="translate(-121.124 -135.297)" fill="#f1f1f2"/>
            </g>
            <g id="Grupo_19945" data-name="Grupo 19945" transform="translate(5.728 5.757)">
              <path id="Trazado_51047" data-name="Trazado 51047" d="M125.447,135.55H124.6l-.084.569a1.065,1.065,0,0,1,.18-.013.929.929,0,0,1,.477.119.632.632,0,0,1,.318.569.771.771,0,0,1-.826.759,1.088,1.088,0,0,1-.554-.138l.077-.228a1,1,0,0,0,.473.123.489.489,0,0,0,.525-.481c0-.286-.194-.491-.638-.491a2.453,2.453,0,0,0-.307.023l.144-1.064h1.06Z" transform="translate(-124.113 -135.297)" fill="#f1f1f2"/>
            </g>
            <g id="Grupo_19946" data-name="Grupo 19946" transform="translate(11.339 5.722)">
              <path id="Trazado_51048" data-name="Trazado 51048" d="M128.342,135.524a1.056,1.056,0,0,0-.224.013.9.9,0,0,0-.77.789h.01a.676.676,0,0,1,1.205.46.743.743,0,0,1-.738.782c-.475,0-.784-.37-.784-.947a1.4,1.4,0,0,1,.374-1,1.205,1.205,0,0,1,.711-.328,1.462,1.462,0,0,1,.217-.017Zm-.084,1.28a.451.451,0,0,0-.458-.51.494.494,0,0,0-.429.274.25.25,0,0,0-.034.132c.008.366.174.634.489.634C128.083,137.335,128.258,137.121,128.258,136.8Z" transform="translate(-127.041 -135.279)" fill="#f1f1f2"/>
            </g>
            <g id="Grupo_19947" data-name="Grupo 19947" transform="translate(0.142 0.121)">
              <path id="Trazado_51049" data-name="Trazado 51049" d="M122.6,132.356v.2l-.964,2.02h-.312l.962-1.962v-.006H121.2v-.249Z" transform="translate(-121.198 -132.356)" fill="#f1f1f2"/>
            </g>
            <g id="Grupo_19948" data-name="Grupo 19948" transform="translate(5.712 0.082)">
              <path id="Trazado_51050" data-name="Trazado 51050" d="M124.1,134.028a.635.635,0,0,1,.439-.594l0-.01a.55.55,0,0,1-.351-.5.622.622,0,0,1,.686-.59.574.574,0,0,1,.646.546.563.563,0,0,1-.366.517v.011a.614.614,0,0,1,.447.573.683.683,0,0,1-.753.644C124.383,134.628,124.1,134.352,124.1,134.028Zm1.194-.013c0-.27-.188-.4-.489-.485a.481.481,0,0,0-.4.458.409.409,0,0,0,.443.422A.4.4,0,0,0,125.3,134.015Zm-.826-1.11c0,.222.167.341.424.41a.438.438,0,0,0,.337-.4.345.345,0,0,0-.376-.362A.353.353,0,0,0,124.473,132.905Z" transform="translate(-124.105 -132.336)" fill="#f1f1f2"/>
            </g>
            <g id="Grupo_19949" data-name="Grupo 19949" transform="translate(11.362 0.082)">
              <path id="Trazado_51051" data-name="Trazado 51051" d="M127.241,134.379a1.217,1.217,0,0,0,.241-.01.84.84,0,0,0,.464-.215.974.974,0,0,0,.3-.59h-.011a.654.654,0,0,1-.521.24.644.644,0,0,1-.655-.68.759.759,0,0,1,.757-.788c.454,0,.734.368.734.935a1.412,1.412,0,0,1-.381,1.041,1.127,1.127,0,0,1-.646.3,1.486,1.486,0,0,1-.276.015Zm.109-1.274a.425.425,0,0,0,.425.469.492.492,0,0,0,.437-.232.2.2,0,0,0,.029-.109c0-.379-.14-.669-.454-.669C127.53,132.564,127.35,132.79,127.35,133.1Z" transform="translate(-127.053 -132.336)" fill="#f1f1f2"/>
            </g>
            <g id="Grupo_19950" data-name="Grupo 19950" transform="translate(6.285 19.056)">
              <path id="Trazado_51052" data-name="Trazado 51052" d="M124.4,142.452a.2.2,0,0,1,.2-.215.215.215,0,0,1,0,.429A.2.2,0,0,1,124.4,142.452Z" transform="translate(-124.404 -142.237)" fill="#f1f1f2"/>
            </g>
            <g id="Grupo_19951" data-name="Grupo 19951" transform="translate(0.071 17.193)">
              <path id="Trazado_51053" data-name="Trazado 51053" d="M122.665,142.388c0,.753-.28,1.169-.77,1.169-.433,0-.726-.406-.734-1.138s.32-1.154.77-1.154C122.4,141.265,122.665,141.681,122.665,142.388Zm-1.2.033c0,.577.176.9.45.9.307,0,.452-.358.452-.924,0-.546-.14-.9-.45-.9C121.652,141.5,121.462,141.817,121.462,142.421Z" transform="translate(-121.161 -141.265)" fill="#f1f1f2"/>
            </g>
            <g id="Grupo_19952" data-name="Grupo 19952" transform="translate(11.218 17.894)">
              <path id="Trazado_51054" data-name="Trazado 51054" d="M126.978,141.834v-.2h1.761v.2Zm0,.669V142.3h1.761v.205Z" transform="translate(-126.978 -141.631)" fill="#f1f1f2"/>
            </g>
            <g id="Grupo_19953" data-name="Grupo 19953" transform="translate(16.854 17.433)">
              <path id="Trazado_51055" data-name="Trazado 51055" d="M130.908,141.39v.8h.772v.2h-.772v.809h-.217V142.4h-.772v-.2h.772v-.8Z" transform="translate(-129.919 -141.39)" fill="#f1f1f2"/>
            </g>
            <g id="Grupo_19954" data-name="Grupo 19954" transform="translate(17.312 12.579)">
              <path id="Trazado_51056" data-name="Trazado 51056" d="M131,138.857v.22h-.843v-.22Z" transform="translate(-130.158 -138.857)" fill="#f1f1f2"/>
            </g>
            <g id="Grupo_19955" data-name="Grupo 19955" transform="translate(16.971 6.322)">
              <path id="Trazado_51057" data-name="Trazado 51057" d="M130.342,135.592l.236.355c.061.094.111.178.167.27h.01c.056-.1.109-.184.165-.272l.232-.353h.324l-.563.8.581.853h-.341l-.243-.372c-.063-.1-.119-.188-.176-.287h-.008c-.054.1-.113.188-.174.287l-.238.372h-.332l.586-.843-.558-.809Z" transform="translate(-129.98 -135.592)" fill="#f1f1f2"/>
            </g>
            <g id="Grupo_19956" data-name="Grupo 19956" transform="translate(16.668)">
              <path id="Trazado_51058" data-name="Trazado 51058" d="M131.564,134.554a1.445,1.445,0,0,1-.607.109,1.073,1.073,0,0,1-1.134-1.163,1.144,1.144,0,0,1,1.2-1.207,1.205,1.205,0,0,1,.544.1l-.071.241a1.1,1.1,0,0,0-.464-.1.854.854,0,0,0-.9.949.835.835,0,0,0,.883.924,1.191,1.191,0,0,0,.483-.094Z" transform="translate(-129.822 -132.293)" fill="#f1f1f2"/>
            </g>
          </g>
        </g>
        <g id="Grupo_19984" data-name="Grupo 19984" transform="translate(46.19 55.982)">
          <g id="Grupo_19963" data-name="Grupo 19963" transform="translate(28.785)">
            <g id="Grupo_19960" data-name="Grupo 19960">
              <path id="Trazado_51059" data-name="Trazado 51059" d="M165.64,130.42c-4.074,0-7.382,1-7.382,2.24v22.361c0,1.236,3.307,2.24,7.382,2.24s7.38-1,7.38-2.24V132.66C173.019,131.424,169.712,130.42,165.64,130.42Z" transform="translate(-157.836 -129.918)" fill="#fadd75"/>
              <g id="Grupo_19959" data-name="Grupo 19959">
                <g id="Grupo_19958" data-name="Grupo 19958">
                  <path id="Trazado_51060" data-name="Trazado 51060" d="M165.841,138.776c-3.879,0-7.8-.914-7.8-2.662V133.88h.843c0,.218.278.491.761.743a18.5,18.5,0,0,0,12.4,0c.483-.253.761-.525.761-.743h.843v2.234C173.642,137.862,169.718,138.776,165.841,138.776Zm-6.96-3.624v.962c0,.742,2.712,1.819,6.96,1.819s6.958-1.077,6.958-1.819v-.962c-.113.075-.236.148-.37.218a19.215,19.215,0,0,1-13.178,0C159.117,135.3,158.994,135.227,158.881,135.152Z" transform="translate(-158.038 -126.748)" fill="#fcab1e"/>
                  <path id="Trazado_51061" data-name="Trazado 51061" d="M165.841,139.943c-3.879,0-7.8-.914-7.8-2.66v-2.236h.843c0,.22.278.491.761.744a18.467,18.467,0,0,0,12.4,0c.483-.253.761-.523.761-.744h.843v2.236C173.642,139.029,169.718,139.943,165.841,139.943Zm-6.96-3.622v.962c0,.74,2.712,1.817,6.96,1.817s6.958-1.077,6.958-1.817v-.962a3.928,3.928,0,0,1-.37.217,19.185,19.185,0,0,1-13.178,0A3.93,3.93,0,0,1,158.881,136.321Z" transform="translate(-158.038 -125.678)" fill="#fcab1e"/>
                  <path id="Trazado_51062" data-name="Trazado 51062" d="M165.841,137.605a15.6,15.6,0,0,1-6.59-1.165c-.8-.422-1.213-.924-1.213-1.491v-2.236h.843c0,.22.278.491.761.745a18.483,18.483,0,0,0,12.4,0c.483-.253.761-.523.761-.744h.843v2.236c0,.567-.408,1.069-1.213,1.491A15.593,15.593,0,0,1,165.841,137.605Zm-6.96-3.618v.962c0,.218.278.491.761.743a18.5,18.5,0,0,0,12.4,0c.483-.253.761-.525.761-.743v-.962a3.918,3.918,0,0,1-.37.217,19.2,19.2,0,0,1-13.178,0C159.117,134.135,158.994,134.062,158.881,133.987Z" transform="translate(-158.038 -127.817)" fill="#fcab1e"/>
                  <path id="Trazado_51063" data-name="Trazado 51063" d="M165.841,142.277c-3.879,0-7.8-.914-7.8-2.66v-2.236h.843c0,.22.278.491.761.744a18.5,18.5,0,0,0,12.4,0c.483-.253.761-.523.761-.744h.843v2.236C173.642,141.363,169.718,142.277,165.841,142.277Zm-6.96-3.622v.962c0,.74,2.712,1.817,6.96,1.817s6.958-1.077,6.958-1.817v-.962a3.912,3.912,0,0,1-.37.217,19.215,19.215,0,0,1-13.178,0A3.914,3.914,0,0,1,158.881,138.655Z" transform="translate(-158.038 -123.54)" fill="#fcab1e"/>
                  <path id="Trazado_51064" data-name="Trazado 51064" d="M165.841,143.445c-3.879,0-7.8-.914-7.8-2.662v-2.234h.843c0,.218.278.491.761.744a18.5,18.5,0,0,0,12.4,0c.483-.253.761-.525.761-.744h.843v2.234C173.642,142.531,169.718,143.445,165.841,143.445Zm-6.96-3.624v.962c0,.742,2.712,1.819,6.96,1.819s6.958-1.077,6.958-1.819v-.962c-.113.075-.236.148-.37.218a19.215,19.215,0,0,1-13.178,0C159.117,139.969,158.994,139.9,158.881,139.821Z" transform="translate(-158.038 -122.469)" fill="#fcab1e"/>
                  <path id="Trazado_51065" data-name="Trazado 51065" d="M165.841,141.105a15.6,15.6,0,0,1-6.59-1.165c-.8-.42-1.213-.922-1.213-1.491v-2.234h.843c0,.218.278.491.761.743a18.5,18.5,0,0,0,12.4,0c.483-.253.761-.525.761-.743h.843v2.234c0,.569-.408,1.071-1.213,1.491A15.587,15.587,0,0,1,165.841,141.105Zm-6.96-3.618v.962c0,.22.278.491.761.744a18.5,18.5,0,0,0,12.4,0c.483-.253.761-.523.761-.744v-.962c-.113.075-.236.148-.37.218a19.215,19.215,0,0,1-13.178,0C159.117,137.635,158.994,137.562,158.881,137.487Z" transform="translate(-158.038 -124.608)" fill="#fcab1e"/>
                  <path id="Trazado_51066" data-name="Trazado 51066" d="M165.841,145.78c-3.879,0-7.8-.914-7.8-2.662v-2.236h.843c0,.22.278.493.761.745a18.5,18.5,0,0,0,12.4,0c.483-.253.761-.525.761-.745h.843v2.236C173.642,144.866,169.718,145.78,165.841,145.78Zm-6.96-3.624v.962c0,.742,2.712,1.817,6.96,1.817s6.958-1.075,6.958-1.817v-.962c-.113.075-.236.148-.37.218a19.215,19.215,0,0,1-13.178,0C159.117,142.3,158.994,142.231,158.881,142.156Z" transform="translate(-158.038 -120.332)" fill="#fcab1e"/>
                  <path id="Trazado_51067" data-name="Trazado 51067" d="M165.841,146.946c-3.879,0-7.8-.914-7.8-2.662V142.05h.843c0,.22.278.491.761.744a18.5,18.5,0,0,0,12.4,0c.483-.253.761-.523.761-.744h.843v2.234C173.642,146.032,169.718,146.946,165.841,146.946Zm-6.96-3.622v.96c0,.742,2.712,1.819,6.96,1.819s6.958-1.077,6.958-1.819v-.96c-.113.075-.236.146-.37.217a19.215,19.215,0,0,1-13.178,0C159.117,143.47,158.994,143.4,158.881,143.324Z" transform="translate(-158.038 -119.261)" fill="#fcab1e"/>
                  <path id="Trazado_51068" data-name="Trazado 51068" d="M165.841,144.608a15.6,15.6,0,0,1-6.59-1.165c-.8-.422-1.213-.924-1.213-1.493v-2.234h.843c0,.22.278.491.761.744a18.469,18.469,0,0,0,12.4,0c.483-.253.761-.523.761-.744h.843v2.234c0,.569-.408,1.071-1.213,1.493A15.587,15.587,0,0,1,165.841,144.608Zm-6.96-3.618v.96c0,.22.278.492.761.745a18.5,18.5,0,0,0,12.4,0c.483-.253.761-.525.761-.745v-.96a3.922,3.922,0,0,1-.37.217,19.186,19.186,0,0,1-13.178,0A3.924,3.924,0,0,1,158.881,140.99Z" transform="translate(-158.038 -121.4)" fill="#fcab1e"/>
                  <path id="Trazado_51069" data-name="Trazado 51069" d="M165.841,136.439a15.627,15.627,0,0,1-6.59-1.165c-.8-.422-1.213-.924-1.213-1.493v-2.234h.843c0,.217.286.494.761.743a18.5,18.5,0,0,0,12.4,0c.475-.249.761-.527.761-.743h.843v2.234c0,.569-.408,1.071-1.213,1.491A15.584,15.584,0,0,1,165.841,136.439Zm-6.96-3.62v.962c0,.22.278.491.761.745a18.484,18.484,0,0,0,12.4,0c.483-.253.761-.523.761-.743v-.962a3.778,3.778,0,0,1-.37.218,19.215,19.215,0,0,1-13.178,0A3.778,3.778,0,0,1,158.881,132.819Z" transform="translate(-158.038 -128.885)" fill="#fcab1e"/>
                  <path id="Trazado_51070" data-name="Trazado 51070" d="M165.841,135.476a15.6,15.6,0,0,1-6.59-1.165c-1-.525-1.213-1.1-1.213-1.491,0-1.748,3.925-2.662,7.8-2.662s7.8.914,7.8,2.662c0,.391-.211.966-1.213,1.491A15.593,15.593,0,0,1,165.841,135.476Zm0-4.475c-4.248,0-6.96,1.077-6.96,1.819,0,.217.286.494.761.744a18.5,18.5,0,0,0,12.4,0c.475-.249.761-.527.761-.744C172.8,132.078,170.088,131,165.841,131Z" transform="translate(-158.038 -130.158)" fill="#fcab1e"/>
                  <g id="Grupo_19957" data-name="Grupo 19957" transform="translate(5.688 1.311)">
                    <path id="Trazado_51071" data-name="Trazado 51071" d="M163.658,132.028l-.01,0c-.061-.012-.144-.029-.249-.052q-.963-.2-.962-.337c0-.054.056-.1.169-.128a2.189,2.189,0,0,1,1.018.021.234.234,0,0,1,.18.222v.04h1.332v-.042c0-.217-.167-.379-.5-.487a3.707,3.707,0,0,0-.866-.142v-.278h-1.3v.278a4.618,4.618,0,0,0-.88.126c-.358.1-.537.236-.537.42,0,.138.105.255.318.353a9.054,9.054,0,0,0,1.5.395l.163.034c.508.1.761.2.761.278,0,.061-.061.111-.184.148a1.777,1.777,0,0,1-.492.054,1.553,1.553,0,0,1-.577-.075.28.28,0,0,1-.167-.278v-.035h-1.357l-.006.04-.006.038c0,.23.171.4.51.5a4.027,4.027,0,0,0,.945.144v.272h1.3v-.274a4.712,4.712,0,0,0,.916-.13c.368-.1.554-.243.554-.427Q165.235,132.362,163.658,132.028Z" transform="translate(-161.006 -130.842)" fill="#fff"/>
                  </g>
                </g>
              </g>
            </g>
            <g id="Grupo_19962" data-name="Grupo 19962" transform="translate(0 2.333)">
              <g id="Grupo_19961" data-name="Grupo 19961" clip-path="url(#clip-path-3)">
                <rect id="Rectángulo_5019" data-name="Rectángulo 5019" width="8.207" height="27.435" transform="translate(-1.301 -1.489)" fill="#f8cf44" opacity="0.4" style="mix-blend-mode: multiply;isolation: isolate"/>
              </g>
            </g>
          </g>
          <g id="Grupo_19968" data-name="Grupo 19968" transform="translate(6.36 9.537)">
            <path id="Trazado_51072" data-name="Trazado 51072" d="M153.936,135.355c-4.074,0-7.38,1-7.38,2.238v11.182c0,.408.358.788.987,1.117a18.854,18.854,0,0,0,12.787,0c.629-.33.987-.709.987-1.117V137.593C161.317,136.359,158.01,135.355,153.936,135.355Z" transform="translate(-146.134 -134.933)" fill="#fadd75"/>
            <g id="Grupo_19965" data-name="Grupo 19965">
              <g id="Grupo_19964" data-name="Grupo 19964">
                <path id="Trazado_51073" data-name="Trazado 51073" d="M154.137,140.453a15.587,15.587,0,0,1-6.588-1.165c-1-.525-1.213-1.1-1.213-1.493,0-1.746,3.925-2.66,7.8-2.66s7.8.914,7.8,2.66c0,.391-.211.968-1.213,1.493A15.6,15.6,0,0,1,154.137,140.453Zm0-4.475c-4.247,0-6.958,1.077-6.958,1.817,0,.218.286.5.761.745a18.5,18.5,0,0,0,12.4,0c.475-.251.761-.527.761-.745C161.1,137.055,158.386,135.978,154.137,135.978Z" transform="translate(-146.336 -135.135)" fill="#fcab1e"/>
                <path id="Trazado_51074" data-name="Trazado 51074" d="M154.137,143.752c-3.877,0-7.8-.914-7.8-2.66v-2.236h.843c0,.22.278.491.761.745a18.5,18.5,0,0,0,12.4,0c.483-.255.761-.525.761-.745h.843v2.236C161.94,142.838,158.016,143.752,154.137,143.752Zm-6.958-3.622v.962c0,.74,2.712,1.817,6.958,1.817s6.96-1.077,6.96-1.817v-.962c-.113.075-.236.148-.37.218a19.215,19.215,0,0,1-13.178,0C147.415,140.278,147.292,140.205,147.179,140.13Z" transform="translate(-146.336 -131.725)" fill="#fcab1e"/>
                <path id="Trazado_51075" data-name="Trazado 51075" d="M154.137,144.92c-3.877,0-7.8-.914-7.8-2.662v-2.234h.843c0,.218.278.491.761.744a18.5,18.5,0,0,0,12.4,0c.483-.253.761-.525.761-.744h.843v2.234C161.94,144.006,158.016,144.92,154.137,144.92Zm-6.958-3.622v.96c0,.742,2.712,1.819,6.958,1.819s6.96-1.077,6.96-1.819V141.3c-.113.075-.236.148-.37.218a19.215,19.215,0,0,1-13.178,0C147.415,141.444,147.292,141.373,147.179,141.3Z" transform="translate(-146.336 -130.655)" fill="#fcab1e"/>
                <path id="Trazado_51076" data-name="Trazado 51076" d="M154.137,142.582a15.617,15.617,0,0,1-6.588-1.165c-.8-.422-1.213-.924-1.213-1.493V137.69h.843c0,.22.278.491.761.743a18.5,18.5,0,0,0,12.4,0c.483-.253.761-.523.761-.743h.843v2.234c0,.569-.408,1.071-1.213,1.493A15.627,15.627,0,0,1,154.137,142.582Zm-6.958-3.618v.96c0,.22.278.491.761.745a18.5,18.5,0,0,0,12.4,0c.483-.255.761-.525.761-.745v-.962a3.917,3.917,0,0,1-.37.218,19.215,19.215,0,0,1-13.178,0A3.925,3.925,0,0,1,147.179,138.964Z" transform="translate(-146.336 -132.794)" fill="#fcab1e"/>
                <path id="Trazado_51077" data-name="Trazado 51077" d="M154.137,146.083a15.594,15.594,0,0,1-6.588-1.165c-.8-.422-1.213-.924-1.213-1.491v-2.236h.843c0,.22.278.492.761.744a18.468,18.468,0,0,0,12.4,0c.483-.251.761-.523.761-.744h.843v2.236c0,.567-.408,1.069-1.213,1.491A15.6,15.6,0,0,1,154.137,146.083Zm-6.958-3.618v.962c0,.219.278.491.761.744a18.5,18.5,0,0,0,12.4,0c.483-.253.761-.525.761-.744v-.962a3.92,3.92,0,0,1-.37.217,19.185,19.185,0,0,1-13.178,0A3.935,3.935,0,0,1,147.179,142.465Z" transform="translate(-146.336 -129.586)" fill="#fcab1e"/>
                <path id="Trazado_51078" data-name="Trazado 51078" d="M154.137,141.415a15.587,15.587,0,0,1-6.588-1.165c-.8-.422-1.213-.922-1.213-1.491v-2.236h.843c0,.218.286.5.761.745a18.5,18.5,0,0,0,12.4,0c.475-.251.761-.527.761-.745h.843v2.236c0,.569-.408,1.069-1.213,1.491A15.6,15.6,0,0,1,154.137,141.415Zm-6.958-3.618v.962c0,.22.278.491.761.744a18.5,18.5,0,0,0,12.4,0c.483-.253.761-.523.761-.744V137.8a4.2,4.2,0,0,1-.37.218,19.215,19.215,0,0,1-13.178,0A4.206,4.206,0,0,1,147.179,137.8Z" transform="translate(-146.336 -133.863)" fill="#fcab1e"/>
              </g>
            </g>
            <path id="Trazado_51079" data-name="Trazado 51079" d="M151.956,137.005l-.01,0c-.061-.012-.144-.029-.249-.052-.644-.136-.962-.247-.962-.337,0-.054.056-.1.169-.13a1.662,1.662,0,0,1,.45-.048,1.7,1.7,0,0,1,.567.069.236.236,0,0,1,.18.224v.04h1.33v-.044c0-.217-.165-.378-.494-.485a3.627,3.627,0,0,0-.866-.142v-.278h-1.3v.278a4.488,4.488,0,0,0-.88.125c-.358.1-.537.238-.537.422,0,.138.1.255.318.353a9.078,9.078,0,0,0,1.5.395l.163.034c.51.1.763.2.763.276,0,.063-.061.111-.184.148a1.707,1.707,0,0,1-.492.056,1.5,1.5,0,0,1-.577-.077.276.276,0,0,1-.167-.276v-.036h-1.357l-.008.042,0,.038c0,.228.171.4.51.5a4.136,4.136,0,0,0,.945.144v.272h1.3v-.274a4.65,4.65,0,0,0,.914-.132c.37-.1.556-.241.556-.425Q153.533,137.339,151.956,137.005Z" transform="translate(-143.616 -134.508)" fill="#fff"/>
            <g id="Grupo_19967" data-name="Grupo 19967" transform="translate(0 2.333)">
              <g id="Grupo_19966" data-name="Grupo 19966" clip-path="url(#clip-path-4)">
                <path id="Trazado_51080" data-name="Trazado 51080" d="M159.417,152.158l-8.542.218V136.016l8.542-.217Z" transform="translate(-142.177 -136.86)" fill="#f8cf44" opacity="0.4" style="mix-blend-mode: multiply;isolation: isolate"/>
              </g>
            </g>
          </g>
          <g id="Grupo_19973" data-name="Grupo 19973" transform="translate(0 18.567)">
            <path id="Trazado_51081" data-name="Trazado 51081" d="M150.619,140.068c-4.074,0-7.382,1-7.382,2.238v4.432c0,.41.358.79.987,1.117a18.824,18.824,0,0,0,12.787,0c.629-.328.987-.707.987-1.117v-4.432C158,141.07,154.693,140.068,150.619,140.068Z" transform="translate(-142.815 -139.644)" fill="#fadd75"/>
            <g id="Grupo_19970" data-name="Grupo 19970">
              <g id="Grupo_19969" data-name="Grupo 19969">
                <path id="Trazado_51082" data-name="Trazado 51082" d="M150.82,145.167A15.593,15.593,0,0,1,144.23,144c-1-.525-1.213-1.1-1.213-1.491,0-1.746,3.925-2.662,7.8-2.662s7.8.916,7.8,2.662c0,.391-.211.966-1.213,1.491A15.583,15.583,0,0,1,150.82,145.167Zm0-4.475c-4.248,0-6.96,1.077-6.96,1.817,0,.217.286.494.761.744a18.468,18.468,0,0,0,12.4,0c.477-.249.761-.527.761-.744C157.778,141.769,155.067,140.692,150.82,140.692Z" transform="translate(-143.017 -139.847)" fill="#fcab1e"/>
                <path id="Trazado_51083" data-name="Trazado 51083" d="M150.82,147.3a15.594,15.594,0,0,1-6.59-1.167c-.8-.422-1.213-.924-1.213-1.491V142.4h.843c0,.218.278.491.761.744a18.5,18.5,0,0,0,12.4,0c.483-.253.761-.525.761-.744h.843v2.234c0,.567-.408,1.069-1.213,1.491A15.583,15.583,0,0,1,150.82,147.3Zm-6.96-3.62v.962c0,.22.278.491.761.744a18.5,18.5,0,0,0,12.4,0c.483-.253.761-.523.761-.744v-.962c-.113.075-.236.148-.37.218a19.215,19.215,0,0,1-13.178,0C144.1,143.823,143.973,143.75,143.86,143.675Z" transform="translate(-143.017 -137.505)" fill="#fcab1e"/>
                <path id="Trazado_51084" data-name="Trazado 51084" d="M150.82,146.128a15.6,15.6,0,0,1-6.59-1.165c-.8-.422-1.213-.924-1.213-1.491v-2.236h.843c0,.217.286.494.761.743a18.467,18.467,0,0,0,12.4,0c.477-.249.761-.527.761-.743h.843v2.236c0,.567-.408,1.069-1.213,1.491A15.587,15.587,0,0,1,150.82,146.128Zm-6.96-3.62v.964c0,.218.278.491.761.744a18.5,18.5,0,0,0,12.4,0c.483-.253.761-.525.761-.744v-.964a3.43,3.43,0,0,1-.37.218,19.186,19.186,0,0,1-13.178,0A3.428,3.428,0,0,1,143.86,142.508Z" transform="translate(-143.017 -138.574)" fill="#fcab1e"/>
              </g>
            </g>
            <path id="Trazado_51085" data-name="Trazado 51085" d="M148.637,141.716l-.01,0c-.061-.012-.144-.029-.249-.052q-.963-.2-.962-.335c0-.054.056-.1.169-.13a1.65,1.65,0,0,1,.45-.05,1.689,1.689,0,0,1,.567.071.236.236,0,0,1,.18.224v.038h1.332v-.042c0-.217-.165-.378-.5-.485a3.7,3.7,0,0,0-.866-.144v-.276h-1.305v.276a4.623,4.623,0,0,0-.88.127c-.358.1-.537.238-.537.422,0,.136.105.255.318.353a9.126,9.126,0,0,0,1.5.393l.163.035c.508.1.761.2.761.278,0,.061-.061.111-.184.148a1.768,1.768,0,0,1-.492.056,1.544,1.544,0,0,1-.577-.077.279.279,0,0,1-.167-.276v-.036H146l-.006.04-.006.04c0,.228.171.395.51.5a4.03,4.03,0,0,0,.945.144v.274h1.305v-.274a4.7,4.7,0,0,0,.916-.132c.368-.1.554-.241.554-.427C150.214,142.165,149.691,141.939,148.637,141.716Z" transform="translate(-140.297 -139.219)" fill="#fff"/>
            <g id="Grupo_19972" data-name="Grupo 19972" transform="translate(0 2.334)">
              <g id="Grupo_19971" data-name="Grupo 19971" clip-path="url(#clip-path-5)">
                <path id="Trazado_51086" data-name="Trazado 51086" d="M156.1,150.123l-8.542.218v-9.612l8.542-.218Z" transform="translate(-138.858 -141.572)" fill="#f8cf44" opacity="0.4" style="mix-blend-mode: multiply;isolation: isolate"/>
              </g>
            </g>
          </g>
          <g id="Grupo_19983" data-name="Grupo 19983" transform="translate(16.724 5.456)">
            <g id="Grupo_19978" data-name="Grupo 19978" transform="translate(0 10.365)">
              <path id="Trazado_51087" data-name="Trazado 51087" d="M159.346,138.634c-4.074,0-7.382,1-7.382,2.238v8.93c0,.408.358.788.987,1.117a18.854,18.854,0,0,0,12.787,0c.629-.33.987-.709.987-1.117v-8.93C166.725,139.636,163.42,138.634,159.346,138.634Z" transform="translate(-151.542 -138.212)" fill="#fadd75"/>
              <g id="Grupo_19975" data-name="Grupo 19975">
                <g id="Grupo_19974" data-name="Grupo 19974">
                  <path id="Trazado_51088" data-name="Trazado 51088" d="M159.547,143.732a15.593,15.593,0,0,1-6.59-1.167c-1-.525-1.213-1.1-1.213-1.491,0-1.748,3.926-2.66,7.8-2.66s7.8.912,7.8,2.66c0,.391-.211.966-1.213,1.491A15.583,15.583,0,0,1,159.547,143.732Zm0-4.475c-4.248,0-6.96,1.075-6.96,1.817,0,.217.286.494.761.744a18.5,18.5,0,0,0,12.4,0c.477-.249.761-.527.761-.744C166.505,140.332,163.794,139.257,159.547,139.257Z" transform="translate(-151.744 -138.414)" fill="#fcab1e"/>
                  <path id="Trazado_51089" data-name="Trazado 51089" d="M159.547,147.031c-3.877,0-7.8-.914-7.8-2.662v-2.234h.843c0,.22.278.491.761.744a18.5,18.5,0,0,0,12.4,0c.483-.253.761-.523.761-.744h.843v2.234C167.348,146.117,163.424,147.031,159.547,147.031Zm-6.96-3.622v.96c0,.742,2.712,1.819,6.96,1.819s6.958-1.077,6.958-1.819v-.96a3.926,3.926,0,0,1-.37.217,19.185,19.185,0,0,1-13.178,0A3.923,3.923,0,0,1,152.587,143.409Z" transform="translate(-151.744 -135.004)" fill="#fcab1e"/>
                  <path id="Trazado_51090" data-name="Trazado 51090" d="M159.547,148.2c-3.877,0-7.8-.916-7.8-2.662V143.3h.843c0,.22.278.493.761.745a18.5,18.5,0,0,0,12.4,0c.483-.253.761-.525.761-.745h.843v2.236C167.348,147.284,163.424,148.2,159.547,148.2Zm-6.96-3.624v.962c0,.742,2.712,1.817,6.96,1.817s6.958-1.075,6.958-1.817v-.962c-.113.075-.236.148-.37.218a19.215,19.215,0,0,1-13.178,0C152.823,144.724,152.7,144.651,152.587,144.576Z" transform="translate(-151.744 -133.935)" fill="#fcab1e"/>
                  <path id="Trazado_51091" data-name="Trazado 51091" d="M159.547,145.861a15.593,15.593,0,0,1-6.59-1.167c-.8-.422-1.213-.924-1.213-1.491v-2.234h.843c0,.218.278.491.761.744a18.5,18.5,0,0,0,12.4,0c.483-.253.761-.525.761-.744h.843V143.2c0,.567-.408,1.069-1.213,1.491A15.583,15.583,0,0,1,159.547,145.861Zm-6.96-3.62v.962c0,.22.278.491.761.744a18.5,18.5,0,0,0,12.4,0c.483-.253.761-.523.761-.744v-.962c-.113.075-.236.148-.37.218a19.215,19.215,0,0,1-13.178,0C152.823,142.389,152.7,142.316,152.587,142.241Z" transform="translate(-151.744 -136.073)" fill="#fcab1e"/>
                  <path id="Trazado_51092" data-name="Trazado 51092" d="M159.547,144.694a15.6,15.6,0,0,1-6.59-1.165c-.8-.422-1.213-.924-1.213-1.491V139.8h.843c0,.217.286.494.761.744a18.5,18.5,0,0,0,12.4,0c.477-.249.761-.527.761-.744h.843v2.236c0,.567-.408,1.069-1.213,1.491A15.587,15.587,0,0,1,159.547,144.694Zm-6.96-3.62v.964c0,.218.278.491.761.744a18.5,18.5,0,0,0,12.4,0c.483-.253.761-.525.761-.744v-.964a3.427,3.427,0,0,1-.37.218,19.185,19.185,0,0,1-13.178,0A3.62,3.62,0,0,1,152.587,141.074Z" transform="translate(-151.744 -137.142)" fill="#fcab1e"/>
                </g>
              </g>
              <g id="Grupo_19977" data-name="Grupo 19977" transform="translate(0 2.332)">
                <g id="Grupo_19976" data-name="Grupo 19976" clip-path="url(#clip-path-6)">
                  <path id="Trazado_51093" data-name="Trazado 51093" d="M164.825,153.186l-8.542.218V139.3l8.542-.218Z" transform="translate(-147.584 -140.138)" fill="#f8cf44" opacity="0.4" style="mix-blend-mode: multiply;isolation: isolate"/>
                </g>
              </g>
            </g>
            <g id="Grupo_19982" data-name="Grupo 19982" transform="translate(0.858)">
              <g id="Grupo_19979" data-name="Grupo 19979">
                <path id="Trazado_51094" data-name="Trazado 51094" d="M165.456,139.747a6.522,6.522,0,1,1-6.521-6.521A6.521,6.521,0,0,1,165.456,139.747Z" transform="translate(-151.99 -132.802)" fill="#fadd75"/>
                <path id="Trazado_51095" data-name="Trazado 51095" d="M159.137,146.892a6.944,6.944,0,1,1,6.943-6.943A6.952,6.952,0,0,1,159.137,146.892Zm0-13.042a6.1,6.1,0,1,0,6.1,6.1A6.108,6.108,0,0,0,159.137,133.85Z" transform="translate(-152.192 -133.005)" fill="#fcab1e"/>
                <path id="Trazado_51096" data-name="Trazado 51096" d="M157.365,137.867l-.012-.008c-.061-.031-.144-.075-.247-.134-.644-.347-.964-.634-.964-.864a.4.4,0,0,1,.169-.333.73.73,0,0,1,.45-.126.769.769,0,0,1,.567.18.781.781,0,0,1,.182.575v.1h1.33v-.109a1.523,1.523,0,0,0-.5-1.246,1.8,1.8,0,0,0-.866-.366v-.713h-1.305v.713a2.11,2.11,0,0,0-.878.322,1.232,1.232,0,0,0-.538,1.083,1.348,1.348,0,0,0,.318.9,5.679,5.679,0,0,0,1.5,1.012c.04.023.1.052.163.09q.762.4.761.711a.454.454,0,0,1-.182.379.781.781,0,0,1-.494.142.731.731,0,0,1-.577-.2,1.142,1.142,0,0,1-.167-.711v-.092h-1.357c0,.025,0,.059-.006.105s0,.079,0,.1a1.57,1.57,0,0,0,.508,1.294,1.935,1.935,0,0,0,.945.368v.7h1.3v-.705a2.161,2.161,0,0,0,.916-.335,1.257,1.257,0,0,0,.554-1.1C158.94,139.021,158.417,138.44,157.365,137.867Z" transform="translate(-149.882 -131.34)" fill="#fff"/>
              </g>
              <g id="Grupo_19981" data-name="Grupo 19981">
                <g id="Grupo_19980" data-name="Grupo 19980" clip-path="url(#clip-path-7)">
                  <path id="Trazado_51097" data-name="Trazado 51097" d="M163.148,149.369l-8.3-2.013,3.937-14.51,8.3,2.013Z" transform="translate(-149.762 -133.151)" fill="#f8cf44" opacity="0.4" style="mix-blend-mode: multiply;isolation: isolate"/>
                </g>
              </g>
            </g>
          </g>
        </g>
      </g>
    </g>
  </g>
</svg>
