<svg xmlns="http://www.w3.org/2000/svg" width="106" height="106" viewBox="0 0 106 106">
  <g id="Grupo_18981" data-name="Grupo 18981" transform="translate(-468 -6086)">
    <circle id="Elipse_1080" data-name="Elipse 1080" cx="53" cy="53" r="53" transform="translate(468 6086)" fill="#f4d8a2"/>
    <g id="Grupo_18972" data-name="Grupo 18972" transform="translate(-4919.321 4561.639)">
      <g id="Grupo_18970" data-name="Grupo 18970" transform="translate(5404.321 1537.99)">
        <rect id="Rectángulo_4616" data-name="Rectángulo 4616" width="13.249" height="12.75" transform="translate(3.194 58.074)" fill="#fdc345"/>
        <rect id="Rectángulo_4617" data-name="Rectángulo 4617" width="13.249" height="12.75" transform="translate(48.314 57.951)" fill="#7eb9c7"/>
        <rect id="Rectángulo_4618" data-name="Rectángulo 4618" width="13.249" height="12.75" transform="translate(25.588 57.914)" fill="#f04f4c"/>
        <g id="Grupo_18966" data-name="Grupo 18966" transform="translate(14.452 0)">
          <g id="Grupo_18965" data-name="Grupo 18965">
            <path id="Trazado_48866" data-name="Trazado 48866" d="M5528.8,1637.515v29.88h25.886v-29.88Z" transform="translate(-5523.387 -1621.635)" fill="#c7ddeb"/>
            <path id="Trazado_48867" data-name="Trazado 48867" d="M5578.476,1579.433v36.431H5609.1v-36.431Z" transform="translate(-5565.14 -1572.821)" fill="#c7ddeb"/>
            <path id="Trazado_48868" data-name="Trazado 48868" d="M5527.248,1644.991H5494.9v-39.06h7.657v2.237h-5.42v34.586h27.876v-4.732h2.237Z" transform="translate(-5494.898 -1595.09)" fill="#3d4451"/>
            <path id="Trazado_48869" data-name="Trazado 48869" d="M5581.685,1579.8h-32.865V1537.99h32.865Zm-30.629-2.237h28.392v-37.339h-28.392Z" transform="translate(-5540.216 -1537.99)" fill="#3d4451"/>
          </g>
          <rect id="Rectángulo_4619" data-name="Rectángulo 4619" width="14.185" height="2.237" rx="1.118" transform="translate(14.712 6.576)" fill="#3d4451"/>
          <path id="Trazado_48870" data-name="Trazado 48870" d="M5600.555,1615.871h-13.006c-.428,0-.776-.5-.776-1.118h0c0-.618.348-1.119.776-1.119h13.006c.428,0,.775.5.775,1.119h0C5601.33,1615.37,5600.983,1615.871,5600.555,1615.871Z" transform="translate(-5572.113 -1601.564)" fill="#3d4451"/>
          <path id="Trazado_48871" data-name="Trazado 48871" d="M5599.807,1648.07H5586.8c-.429,0-.776-.5-.776-1.119h0c0-.618.347-1.118.776-1.118h13.006c.428,0,.775.5.775,1.118h0C5600.582,1647.569,5600.235,1648.07,5599.807,1648.07Z" transform="translate(-5571.485 -1628.626)" fill="#3d4451"/>
        </g>
        <g id="Grupo_18969" data-name="Grupo 18969" transform="translate(0 27.273)">
          <g id="Grupo_18967" data-name="Grupo 18967" transform="translate(0 26.432)">
            <path id="Trazado_48872" data-name="Trazado 48872" d="M5698.066,1890.635h-16.06v-16.059h16.06Zm-14.462-1.6h12.863v-12.864H5683.6Z" transform="translate(-5637.7 -1874.576)" fill="#3d4451"/>
            <path id="Trazado_48873" data-name="Trazado 48873" d="M5559.223,1890.635h-16.059v-16.059h16.059Zm-14.461-1.6h12.864v-12.864h-12.864Z" transform="translate(-5521.011 -1874.576)" fill="#3d4451"/>
            <path id="Trazado_48874" data-name="Trazado 48874" d="M5420.38,1890.635h-16.059v-16.059h16.059Zm-14.461-1.6h12.863v-12.864h-12.863Z" transform="translate(-5404.321 -1874.576)" fill="#3d4451"/>
            <rect id="Rectángulo_4620" data-name="Rectángulo 4620" width="13.384" height="2.769" transform="translate(34.952 6.799)" fill="#3d4451"/>
            <rect id="Rectángulo_4621" data-name="Rectángulo 4621" width="14.769" height="2.769" transform="translate(10.953 6.645)" fill="#3d4451"/>
          </g>
          <g id="Grupo_18968" data-name="Grupo 18968" transform="translate(5.763 14.798)">
            <path id="Trazado_48875" data-name="Trazado 48875" d="M5446.909,1818.632v-10.5h7.743" transform="translate(-5445.876 -1807.103)" fill="#f5fafc"/>
            <path id="Trazado_48876" data-name="Trazado 48876" d="M5442.5,1813.194h-2.065v-11.529h8.776v2.065H5442.5Z" transform="translate(-5440.438 -1801.665)" fill="#3d4451"/>
          </g>
          <path id="Trazado_48877" data-name="Trazado 48877" d="M5759.49,1744.367h-6.195V1742.3h4.13v-31.317h-9.636v-2.065h11.7Z" transform="translate(-5692.986 -1708.92)" fill="#3d4451"/>
        </g>
      </g>
      <g id="Grupo_18971" data-name="Grupo 18971" transform="translate(5433.529 1559.893)">
        <path id="Trazado_48878" data-name="Trazado 48878" d="M5598.428,1693.472a1.688,1.688,0,0,1-1.146-.505l-5.631-5.557a1.247,1.247,0,0,1,.124-1.913,1.693,1.693,0,0,1,2.168.1l4.408,4.326,9.162-10.243a1.686,1.686,0,0,1,2.157-.231,1.236,1.236,0,0,1,.261,1.888l-10.294,11.562a1.622,1.622,0,0,1-1.161.571Z" transform="translate(-5590.642 -1678.542)" fill="#4ece46"/>
        <path id="Trazado_48879" data-name="Trazado 48879" d="M5595.214,1690.813h-.048a2.3,2.3,0,0,1-1.581-.682l-5.632-5.558a1.882,1.882,0,0,1-.571-1.445,1.924,1.924,0,0,1,.749-1.4,2.3,2.3,0,0,1,2.983.147l3.946,3.872,8.729-9.759a2.293,2.293,0,0,1,2.968-.329,1.941,1.941,0,0,1,.845,1.356,1.833,1.833,0,0,1-.472,1.455l-10.294,11.561A2.242,2.242,0,0,1,5595.214,1690.813Zm-5.672-8.32a1.058,1.058,0,0,0-.648.214.676.676,0,0,0-.274.49.634.634,0,0,0,.2.492l5.632,5.558a1.068,1.068,0,0,0,.712.326h.048a1.02,1.02,0,0,0,.7-.364l10.294-11.562a.6.6,0,0,0,.166-.483.69.69,0,0,0-.316-.483,1.064,1.064,0,0,0-1.342.134l-9.6,10.726-4.872-4.78A1.006,1.006,0,0,0,5589.542,1682.493Z" transform="translate(-5587.379 -1675.263)" fill="#3d4451"/>
      </g>
    </g>
  </g>
</svg>
