<svg xmlns="http://www.w3.org/2000/svg" width="106" height="106" viewBox="0 0 106 106">
  <g id="Grupo_18976" data-name="Grupo 18976" transform="translate(-1022 -5290)">
    <circle id="Elipse_1075" data-name="Elipse 1075" cx="53" cy="53" r="53" transform="translate(1022 5290)" fill="#f4d8a2"/>
    <g id="Grupo_18892" data-name="Grupo 18892" transform="translate(-2844.618 3765.235)">
      <g id="Grupo_18889" data-name="Grupo 18889" transform="translate(3881.618 1534.715)">
        <path id="Trazado_48731" data-name="Trazado 48731" d="M4024.99,1741.358c10.055,0,18.206-5.919,18.206-13.221s-8.151-13.22-18.206-13.22-18.206,5.919-18.206,13.22c0,4.582,3.21,8.619,8.086,10.991a8.941,8.941,0,0,1-4.041,8.151s8.99-1.79,10.039-5.784Z" transform="translate(-3983.955 -1682.049)" fill="#c7ddeb"/>
        <path id="Trazado_48732" data-name="Trazado 48732" d="M3900.171,1650.646a1.517,1.517,0,0,1-1.505-1.345,36.159,36.159,0,0,1-.231-4.082,35.618,35.618,0,0,1,20.636-32.319,1.517,1.517,0,1,1,1.277,2.752,32.582,32.582,0,0,0-18.879,29.566,33.044,33.044,0,0,0,.212,3.738,1.518,1.518,0,0,1-1.335,1.68A1.547,1.547,0,0,1,3900.171,1650.646Z" transform="translate(-3895.367 -1598.525)" fill="#7eb9c7"/>
        <path id="Trazado_48733" data-name="Trazado 48733" d="M4007.613,1950.235a35.552,35.552,0,0,1-18.471-5.159,1.517,1.517,0,1,1,1.576-2.593,32.613,32.613,0,0,0,33.779.006,1.517,1.517,0,1,1,1.575,2.594A35.552,35.552,0,0,1,4007.613,1950.235Z" transform="translate(-3968.934 -1867.928)" fill="#f04f4c"/>
        <path id="Trazado_48734" data-name="Trazado 48734" d="M4189.234,1648.659a1.517,1.517,0,0,1-1.517-1.517,32.577,32.577,0,0,0-18.028-29.157,1.517,1.517,0,1,1,1.357-2.714,35.614,35.614,0,0,1,19.706,31.871A1.518,1.518,0,0,1,4189.234,1648.659Z" transform="translate(-4116.46 -1600.447)" fill="#fdc345"/>
        <g id="Grupo_18876" data-name="Grupo 18876" transform="translate(0 53.1)">
          <g id="Grupo_18873" data-name="Grupo 18873" transform="translate(4.809 2.227)">
            <g id="Grupo_18872" data-name="Grupo 18872">
              <g id="Grupo_18871" data-name="Grupo 18871">
                <path id="Trazado_48735" data-name="Trazado 48735" d="M3920.468,1845.252a3.619,3.619,0,1,0-3.1-3.409A3.448,3.448,0,0,0,3920.468,1845.252Z" transform="translate(-3915.655 -1838.05)" fill="#7eb9c7"/>
                <path id="Trazado_48736" data-name="Trazado 48736" d="M3918.974,1899.61a1.332,1.332,0,0,0,1.127-1.653c-.606-3.632-3.083-6.881-6.048-6.881s-5.442,3.249-6.048,6.881a1.332,1.332,0,0,0,1.127,1.653Z" transform="translate(-3907.982 -1881.404)" fill="#7eb9c7"/>
              </g>
            </g>
          </g>
          <g id="Grupo_18875" data-name="Grupo 18875">
            <g id="Grupo_18874" data-name="Grupo 18874">
              <path id="Trazado_48737" data-name="Trazado 48737" d="M3904.816,1836.969q-.14,0-.279-.007h0a5.57,5.57,0,1,1,.279.007Zm0-9.458a3.895,3.895,0,0,0-3.886,4.1,3.924,3.924,0,0,0,3.687,3.683h0a3.894,3.894,0,0,0,4.091-4.093,3.924,3.924,0,0,0-3.685-3.685C3904.957,1827.513,3904.888,1827.511,3904.82,1827.511Z" transform="translate(-3896.041 -1825.841)" fill="#3d4451"/>
              <path id="Trazado_48738" data-name="Trazado 48738" d="M3897.312,1892h-13.3a2.392,2.392,0,0,1-2.343-2.865c.961-4.814,4.829-8.444,8.994-8.444s8.034,3.63,9,8.444a2.392,2.392,0,0,1-2.343,2.865Zm-6.652-9.639c-3.717,0-6.659,3.611-7.356,7.1a.728.728,0,0,0,.15.606.707.707,0,0,0,.555.262h13.3a.706.706,0,0,0,.554-.262.726.726,0,0,0,.15-.606C3897.319,1885.967,3894.376,1882.356,3890.659,1882.356Z" transform="translate(-3881.618 -1870.683)" fill="#3d4451"/>
            </g>
          </g>
        </g>
        <g id="Grupo_18882" data-name="Grupo 18882" transform="translate(58.41 53.1)">
          <g id="Grupo_18879" data-name="Grupo 18879" transform="translate(4.809 2.227)">
            <g id="Grupo_18878" data-name="Grupo 18878">
              <g id="Grupo_18877" data-name="Grupo 18877">
                <path id="Trazado_48739" data-name="Trazado 48739" d="M4240.707,1845.252a3.619,3.619,0,1,0-3.1-3.409A3.448,3.448,0,0,0,4240.707,1845.252Z" transform="translate(-4235.894 -1838.05)" fill="#7eb9c7"/>
                <path id="Trazado_48740" data-name="Trazado 48740" d="M4239.214,1899.61a1.332,1.332,0,0,0,1.127-1.653c-.606-3.632-3.083-6.881-6.049-6.881s-5.441,3.249-6.047,6.881a1.331,1.331,0,0,0,1.127,1.653Z" transform="translate(-4228.223 -1881.404)" fill="#7eb9c7"/>
              </g>
            </g>
          </g>
          <g id="Grupo_18881" data-name="Grupo 18881">
            <g id="Grupo_18880" data-name="Grupo 18880">
              <path id="Trazado_48741" data-name="Trazado 48741" d="M4225.056,1836.969c-.093,0-.186,0-.279-.007h0a5.571,5.571,0,1,1,.279.007Zm0-9.458a3.894,3.894,0,0,0-3.886,4.1,3.924,3.924,0,0,0,3.687,3.683h0a3.9,3.9,0,0,0,4.091-4.093,3.924,3.924,0,0,0-3.686-3.685C4225.2,1827.513,4225.127,1827.511,4225.059,1827.511Z" transform="translate(-4216.28 -1825.841)" fill="#3d4451"/>
              <path id="Trazado_48742" data-name="Trazado 48742" d="M4217.55,1892h-13.3a2.393,2.393,0,0,1-2.343-2.865c.961-4.814,4.828-8.444,8.994-8.444s8.034,3.63,9,8.444a2.392,2.392,0,0,1-2.343,2.865Zm-6.652-9.639c-3.717,0-6.659,3.611-7.356,7.1a.725.725,0,0,0,.15.606.707.707,0,0,0,.555.262h13.3a.707.707,0,0,0,.555-.262.728.728,0,0,0,.15-.606C4217.558,1885.967,4214.616,1882.356,4210.9,1882.356Z" transform="translate(-4201.857 -1870.683)" fill="#3d4451"/>
            </g>
          </g>
        </g>
        <g id="Grupo_18888" data-name="Grupo 18888" transform="translate(29.584 0)">
          <g id="Grupo_18885" data-name="Grupo 18885" transform="translate(4.809 2.227)">
            <g id="Grupo_18884" data-name="Grupo 18884">
              <g id="Grupo_18883" data-name="Grupo 18883">
                <path id="Trazado_48743" data-name="Trazado 48743" d="M4082.667,1554.124a3.619,3.619,0,1,0-3.1-3.409A3.448,3.448,0,0,0,4082.667,1554.124Z" transform="translate(-4077.854 -1546.923)" fill="#7eb9c7"/>
                <path id="Trazado_48744" data-name="Trazado 48744" d="M4081.173,1608.483a1.331,1.331,0,0,0,1.127-1.653c-.606-3.632-3.083-6.881-6.048-6.881s-5.442,3.249-6.048,6.881a1.332,1.332,0,0,0,1.127,1.653Z" transform="translate(-4070.181 -1590.277)" fill="#7eb9c7"/>
              </g>
            </g>
          </g>
          <g id="Grupo_18887" data-name="Grupo 18887">
            <g id="Grupo_18886" data-name="Grupo 18886">
              <path id="Trazado_48745" data-name="Trazado 48745" d="M4067.016,1545.843c-.093,0-.186,0-.28-.007h0a5.57,5.57,0,1,1,.28.007Zm0-9.458a3.894,3.894,0,0,0-3.886,4.1,3.924,3.924,0,0,0,3.687,3.683h0a3.894,3.894,0,0,0,4.091-4.093,3.923,3.923,0,0,0-3.685-3.685C4067.156,1536.387,4067.088,1536.385,4067.019,1536.385Z" transform="translate(-4058.24 -1534.715)" fill="#3d4451"/>
              <path id="Trazado_48746" data-name="Trazado 48746" d="M4059.51,1600.868h-13.3a2.393,2.393,0,0,1-2.343-2.865c.961-4.814,4.828-8.444,8.994-8.444s8.034,3.63,9,8.444a2.393,2.393,0,0,1-2.343,2.865Zm-6.652-9.639c-3.717,0-6.659,3.611-7.356,7.1a.728.728,0,0,0,.15.606.707.707,0,0,0,.555.262h13.3a.707.707,0,0,0,.555-.262.728.728,0,0,0,.15-.606C4059.518,1594.84,4056.576,1591.229,4052.858,1591.229Z" transform="translate(-4043.817 -1579.556)" fill="#3d4451"/>
            </g>
          </g>
        </g>
        <path id="Trazado_48747" data-name="Trazado 48747" d="M3991.7,1725.756a.932.932,0,0,1-.561-1.677,8.914,8.914,0,0,0,3.889-7.535c-5.333-2.865-8.5-7.513-8.5-12.525,0-8.437,8.975-15.3,20.007-15.3s20.008,6.864,20.008,15.3-8.967,15.294-19.991,15.3l-3.662.127c-1.838,4.279-10.03,6.089-11,6.29A.935.935,0,0,1,3991.7,1725.756Zm14.836-35.174c-10,0-18.144,6.028-18.144,13.437,0,4.444,2.976,8.6,7.961,11.114a.934.934,0,0,1,.51.763,10.605,10.605,0,0,1-2,7.062c2.757-.97,5.922-2.561,6.451-4.648a.931.931,0,0,1,.871-.7l4.317-.15h.032c10,0,18.144-6.028,18.144-13.437S4016.538,1690.582,4006.533,1690.582Z" transform="translate(-3967.391 -1660.629)" fill="#3d4451"/>
      </g>
      <g id="Grupo_18891" data-name="Grupo 18891" transform="translate(3908.756 1567.786)">
        <path id="Trazado_48748" data-name="Trazado 48748" d="M4087.9,1725.937l-3.827,0,0-3.634s0-1.531,0-1.832a.635.635,0,0,0-.27-.481l-2.192,0c-.361,0-.451.18-.451.18s-1.987,4.532-2.859,6a3.134,3.134,0,0,1-2.644,1.408l-.009,7.808,2.583,0,1.68,1.443,7.117.008a1.866,1.866,0,0,0,1.2-.435l.855-.715a1.866,1.866,0,0,0,.669-1.43l.008-6.451a1.867,1.867,0,0,0-.9-1.6h0A1.867,1.867,0,0,0,4087.9,1725.937Z" transform="translate(-4067.402 -1719.263)" fill="#f5fafc"/>
        <path id="Trazado_48749" data-name="Trazado 48749" d="M4087.187,1743.959l-3.6,0,0-2.842s0-1.2,0-1.433a.5.5,0,0,0-.255-.376l-2.064,0c-.34,0-.424.141-.424.141s-1.871,3.545-2.692,4.695a3.216,3.216,0,0,1-2.491,1.1l-.007,6.108,2.433,0,1.583,1.129,6.7.008a1.984,1.984,0,0,0,1.129-.34l.806-.559a1.376,1.376,0,0,0,.63-1.118l.006-5.047a1.431,1.431,0,0,0-.85-1.252h0A2.039,2.039,0,0,0,4087.187,1743.959Z" transform="translate(-4067.401 -1735.057)" fill="#fdc345"/>
        <path id="Trazado_48750" data-name="Trazado 48750" d="M4083.8,1734.326h0l-7.383-.008-1.68-1.443-3.037,0,.01-9.275.745.026a2.384,2.384,0,0,0,2-1.056c.84-1.416,2.8-5.879,2.819-5.924l.015-.033a1.172,1.172,0,0,1,1.094-.578h0l2.41,0,.181.121a1.341,1.341,0,0,1,.591,1.081l-.005,4.744,3.106,0a2.588,2.588,0,0,1,2.584,2.59l-.007,6.452a2.582,2.582,0,0,1-.927,1.982l-.855.715A2.593,2.593,0,0,1,4083.8,1734.326Zm-6.852-1.449,6.85.008h0a1.149,1.149,0,0,0,.735-.267l.855-.715a1.143,1.143,0,0,0,.411-.878l.008-6.451a1.147,1.147,0,0,0-1.145-1.147l-4.547,0,.007-5.946-1.643,0c-.436.985-2.014,4.523-2.789,5.829a3.641,3.641,0,0,1-2.544,1.693l-.007,6.435,2.129,0Zm1.4-15.4Z" transform="translate(-4064.167 -1716.032)" fill="#3d4451"/>
        <g id="Grupo_18890" data-name="Grupo 18890" transform="translate(0 6.467)">
          <rect id="Rect치ngulo_4571" data-name="Rect치ngulo 4571" width="10.27" height="8.585" transform="translate(0.649 10.919) rotate(-89.935)" fill="#7eb9c7"/>
          <path id="Trazado_48751" data-name="Trazado 48751" d="M4040.287,1763.068l-9.882-.011.013-11.567,9.882.011Zm-8.583-1.307,7.287.008.01-8.973-7.287-.008Z" transform="translate(-4030.405 -1751.49)" fill="#3d4451"/>
        </g>
        <rect id="Rect치ngulo_4572" data-name="Rect치ngulo 4572" width="7.207" height="2.018" transform="translate(1.365 7.762) rotate(0.065)" fill="#f5fafc"/>
      </g>
    </g>
  </g>
</svg>
