<svg xmlns="http://www.w3.org/2000/svg" xmlns:xlink="http://www.w3.org/1999/xlink" width="128.001" height="128" viewBox="0 0 128.001 128">
  <defs>
    <clipPath id="clip-path">
      <path id="Trazado_45942" data-name="Trazado 45942" d="M174,110a64,64,0,1,1-64-64A64,64,0,0,1,174,110Z" fill="none"/>
    </clipPath>
  </defs>
  <g id="Grupo_17588" data-name="Grupo 17588" transform="translate(-46 -46)">
    <circle id="Elipse_954" data-name="Elipse 954" cx="64" cy="64" r="64" transform="translate(46 46)" fill="#f77b55"/>
    <g id="Grupo_17587" data-name="Grupo 17587">
      <g id="Grupo_17579" data-name="Grupo 17579">
        <g id="Grupo_17578" data-name="Grupo 17578" clip-path="url(#clip-path)">
          <g id="Grupo_17577" data-name="Grupo 17577">
            <path id="Trazado_45937" data-name="Trazado 45937" d="M150,98a38,38,0,1,1-38-38A38,38,0,0,1,150,98Z" fill="#fff"/>
            <rect id="Rectángulo_4420" data-name="Rectángulo 4420" width="20" height="30" transform="translate(74.001 98)" fill="#fff"/>
            <path id="Trazado_45938" data-name="Trazado 45938" d="M78,128H64l10-26Z" fill="#fff"/>
            <path id="Trazado_45939" data-name="Trazado 45939" d="M125,150H76l-2-22,56-4Z" fill="#fff"/>
            <path id="Trazado_45940" data-name="Trazado 45940" d="M143,172,95,184V147l41-17Z" fill="#fff"/>
            <path id="Trazado_45941" data-name="Trazado 45941" d="M122,143.039,137,137l11-27-26,4Z" fill="#fff"/>
          </g>
        </g>
      </g>
      <g id="Grupo_17582" data-name="Grupo 17582">
        <g id="Grupo_17580" data-name="Grupo 17580">
          <path id="Trazado_45943" data-name="Trazado 45943" d="M118,139a38.788,38.788,0,0,0,22,35,38.788,38.788,0,0,0,22-35Z" fill="#474f59"/>
          <path id="Trazado_45944" data-name="Trazado 45944" d="M155,120a30.125,30.125,0,0,1-30,0l-7,3v16h44V123Z" fill="#474f59"/>
        </g>
        <g id="Grupo_17581" data-name="Grupo 17581">
          <path id="Trazado_45945" data-name="Trazado 45945" d="M127,134a4,4,0,0,0,8,0" fill="none" stroke="#fff" stroke-miterlimit="10" stroke-width="4"/>
          <path id="Trazado_45946" data-name="Trazado 45946" d="M145,134a4,4,0,0,0,8,0" fill="none" stroke="#fff" stroke-miterlimit="10" stroke-width="4"/>
        </g>
        <path id="Trazado_45947" data-name="Trazado 45947" d="M132,158a8,8,0,0,1,16,0Z" fill="none" stroke="#fff" stroke-linejoin="round" stroke-width="4"/>
      </g>
      <g id="Grupo_17585" data-name="Grupo 17585">
        <g id="Grupo_17583" data-name="Grupo 17583">
          <path id="Trazado_45948" data-name="Trazado 45948" d="M88,107a38.788,38.788,0,0,0,22,35,38.788,38.788,0,0,0,22-35Z" fill="#fdca5c"/>
          <path id="Trazado_45949" data-name="Trazado 45949" d="M125,88a30.125,30.125,0,0,1-30,0l-7,3v16h44V91Z" fill="#fdca5c"/>
        </g>
        <g id="Grupo_17584" data-name="Grupo 17584">
          <path id="Trazado_45950" data-name="Trazado 45950" d="M97,107a4,4,0,0,1,8,0" fill="none" stroke="#474f59" stroke-miterlimit="10" stroke-width="4"/>
          <path id="Trazado_45951" data-name="Trazado 45951" d="M115,107a4,4,0,0,1,8,0" fill="none" stroke="#474f59" stroke-miterlimit="10" stroke-width="4"/>
        </g>
        <path id="Trazado_45952" data-name="Trazado 45952" d="M102,118a8,8,0,0,0,16,0Z" fill="none" stroke="#474f59" stroke-linejoin="round" stroke-width="4"/>
      </g>
      <g id="Grupo_17586" data-name="Grupo 17586">
        <circle id="Elipse_955" data-name="Elipse 955" cx="5" cy="5" r="5" transform="translate(141.001 76)" fill="#474f59"/>
        <circle id="Elipse_956" data-name="Elipse 956" cx="3" cy="3" r="3" transform="translate(151.001 110)" fill="#fff"/>
        <circle id="Elipse_957" data-name="Elipse 957" cx="1" cy="1" r="1" transform="translate(140.001 96)" fill="#474f59"/>
        <circle id="Elipse_958" data-name="Elipse 958" cx="2" cy="2" r="2" transform="translate(128.001 73)" fill="#fdca5c"/>
        <circle id="Elipse_959" data-name="Elipse 959" cx="2" cy="2" r="2" transform="translate(101.001 142)" fill="#474f59"/>
        <circle id="Elipse_960" data-name="Elipse 960" cx="3" cy="3" r="3" transform="translate(107.001 148)" fill="#fdca5c"/>
      </g>
    </g>
  </g>
</svg>
