<svg xmlns="http://www.w3.org/2000/svg" width="106" height="106" viewBox="0 0 106 106">
  <g id="Grupo_18978" data-name="Grupo 18978" transform="translate(-1022 -5560)">
    <circle id="Elipse_1077" data-name="Elipse 1077" cx="53" cy="53" r="53" transform="translate(1022 5560)" fill="#f4d8a2"/>
    <g id="Grupo_18910" data-name="Grupo 18910" transform="translate(-3759.403 4027.137)">
      <path id="Trazado_48752" data-name="Trazado 48752" d="M4922.754,1709.21v15.039H4943.4V1709.21Z" transform="translate(-113.511 -130.107)" fill="#c7ddeb"/>
      <path id="Trazado_48753" data-name="Trazado 48753" d="M5013.57,1741.484v-4.833l-5.74-4.848-2.567,2.73Z" transform="translate(-184.505 -149.546)" fill="#6b968b"/>
      <path id="Trazado_48754" data-name="Trazado 48754" d="M4947.05,1741.945l-11.368-10.142-7.579,6.52V1742" transform="translate(-118.114 -149.546)" fill="#6b968b"/>
      <path id="Trazado_48755" data-name="Trazado 48755" d="M5133.152,1600.526v17.332h16.326v-17.332Z" transform="translate(-294.546 -36.591)" fill="#c7ddeb"/>
      <path id="Trazado_48756" data-name="Trazado 48756" d="M5086.473,1824.4v16.425h20.613V1824.4Z" transform="translate(-254.381 -229.218)" fill="#c7ddeb"/>
      <g id="Grupo_18896" data-name="Grupo 18896" transform="translate(4806.552 1560.63)">
        <g id="Grupo_18894" data-name="Grupo 18894" transform="translate(29.143 0)">
          <g id="Grupo_18893" data-name="Grupo 18893">
            <path id="Trazado_48757" data-name="Trazado 48757" d="M5128.172,1630.438H5112.29v-18.225h3.922v1.265h-2.657v15.7h13.353v-2.089h1.265Z" transform="translate(-5112.29 -1607.277)" fill="#3d4451"/>
            <path id="Trazado_48758" data-name="Trazado 48758" d="M5158.306,1596.209h-16.091v-19.364h16.091Zm-14.827-1.265h13.562v-16.835h-13.562Z" transform="translate(-5138.039 -1576.845)" fill="#3d4451"/>
          </g>
          <rect id="Rectángulo_4573" data-name="Rectángulo 4573" width="10.128" height="1.013" transform="translate(7.158 6.654)" fill="#3d4451"/>
          <rect id="Rectángulo_4574" data-name="Rectángulo 4574" width="10.128" height="1.013" transform="translate(7.158 8.806)" fill="#3d4451"/>
          <rect id="Rectángulo_4575" data-name="Rectángulo 4575" width="10.128" height="1.013" transform="translate(7.158 11.211)" fill="#3d4451"/>
        </g>
        <path id="Trazado_48759" data-name="Trazado 48759" d="M4929.607,1697.685h-26.133V1671.68h26.133Zm-24.6-1.537h23.059v-22.931h-23.059Z" transform="translate(-4903.475 -1658.445)" fill="#3d4451"/>
        <path id="Trazado_48760" data-name="Trazado 48760" d="M5066.459,1792.634H5038.4v-13.323h1.666v11.657h24.724v-22.162h-19.6v-1.665h21.265Z" transform="translate(-5019.573 -1740.583)" fill="#3d4451"/>
        <path id="Trazado_48761" data-name="Trazado 48761" d="M4945.487,1708.4H4925.5v-16.525h19.984Zm-18.959-1.025h17.935V1692.9h-17.935Z" transform="translate(-4922.429 -1675.82)" fill="#3d4451"/>
        <path id="Trazado_48762" data-name="Trazado 48762" d="M4944.144,1737.471a.618.618,0,0,1-.413-.158l-10.961-9.779-7.166,6.165a.622.622,0,0,1-.811-.943l7.992-6.875,11.774,10.5a.622.622,0,0,1-.415,1.086Z" transform="translate(-4921.632 -1705.081)" fill="#3d4451"/>
        <path id="Trazado_48763" data-name="Trazado 48763" d="M5010.708,1732.35l-5.336-4.507-2.206,2.346-.812-.764,2.93-3.115,6.143,5.189Z" transform="translate(-4988.555 -1705.45)" fill="#3d4451"/>
        <g id="Grupo_18895" data-name="Grupo 18895" transform="translate(29.29 33.586)">
          <path id="Trazado_48764" data-name="Trazado 48764" d="M5117.343,1829.27v-4.826l4.163,2.413,4.171,2.413-4.167,2.413-4.167,2.413Z" transform="translate(-5116.784 -1823.474)" fill="#f04f4c"/>
          <path id="Trazado_48765" data-name="Trazado 48765" d="M5113.34,1829.088V1817.5l10.008,5.8Zm1.117-9.651v7.713l6.66-3.857Z" transform="translate(-5113.34 -1817.497)" fill="#3d4451"/>
        </g>
        <rect id="Rectángulo_4576" data-name="Rectángulo 4576" width="2.306" height="1.922" transform="translate(27.542 29.377)" fill="#3d4451"/>
        <rect id="Rectángulo_4577" data-name="Rectángulo 4577" width="2.178" height="1.922" transform="translate(32.026 29.377)" fill="#3d4451"/>
        <rect id="Rectángulo_4578" data-name="Rectángulo 4578" width="2.178" height="1.922" transform="translate(36.253 29.377)" fill="#3d4451"/>
        <rect id="Rectángulo_4579" data-name="Rectángulo 4579" width="2.306" height="1.922" transform="translate(40.481 29.377)" fill="#3d4451"/>
        <rect id="Rectángulo_4580" data-name="Rectángulo 4580" width="2.306" height="1.922" transform="translate(23.187 47.567)" fill="#3d4451"/>
        <rect id="Rectángulo_4581" data-name="Rectángulo 4581" width="2.306" height="1.922" transform="translate(27.542 47.567)" fill="#3d4451"/>
        <rect id="Rectángulo_4582" data-name="Rectángulo 4582" width="2.178" height="1.922" transform="translate(32.026 47.567)" fill="#3d4451"/>
        <rect id="Rectángulo_4583" data-name="Rectángulo 4583" width="2.178" height="1.922" transform="translate(36.253 47.567)" fill="#3d4451"/>
        <rect id="Rectángulo_4584" data-name="Rectángulo 4584" width="2.306" height="1.922" transform="translate(40.481 47.567)" fill="#3d4451"/>
      </g>
      <g id="Grupo_18897" data-name="Grupo 18897" transform="translate(4842.044 1561.056)">
        <rect id="Rectángulo_4585" data-name="Rectángulo 4585" width="3.954" height="4.408" transform="translate(0.454 0.454)" fill="#fdc345"/>
        <path id="Trazado_48766" data-name="Trazado 48766" d="M5162.642,1585.212h-4.861V1579.9h4.861Zm-3.954-.908h3.046v-3.5h-3.046Z" transform="translate(-5157.781 -1579.896)" fill="#3d4451"/>
      </g>
      <path id="Trazado_48767" data-name="Trazado 48767" d="M5295.985,1671.33c4.868,0,8.814-2.865,8.814-6.4s-3.946-6.4-8.814-6.4-8.813,2.865-8.813,6.4c0,2.218,1.554,4.173,3.915,5.321a4.329,4.329,0,0,1-1.956,3.946s4.352-.867,4.859-2.8Z" transform="translate(-427.07 -86.5)" fill="#c7ddeb"/>
      <path id="Trazado_48768" data-name="Trazado 48768" d="M5278.613,1660.985a.449.449,0,0,1-.27-.807,4.625,4.625,0,0,0,2.018-3.929c-2.749-1.471-4.381-3.861-4.381-6.438,0-4.332,4.612-7.857,10.283-7.857s10.283,3.524,10.283,7.857-4.609,7.853-10.275,7.857l-1.909.066a5.3,5.3,0,0,1-3.079,2.437,16,16,0,0,1-2.579.806A.467.467,0,0,1,5278.613,1660.985Zm7.649-18.134c-5.176,0-9.386,3.122-9.386,6.959,0,2.3,1.54,4.456,4.121,5.758a.45.45,0,0,1,.246.367,5.435,5.435,0,0,1-1.085,3.7c1.45-.5,3.161-1.339,3.443-2.452a.448.448,0,0,1,.419-.338l2.226-.077h.016c5.175,0,9.385-3.122,9.385-6.959S5291.438,1642.85,5286.263,1642.85Z" transform="translate(-417.44 -72.236)" fill="#3d4451"/>
      <g id="Grupo_18898" data-name="Grupo 18898" transform="translate(4864.603 1574.338)">
        <path id="Trazado_48769" data-name="Trazado 48769" d="M5330.811,1680.914c0-.05,0-.1-.011-.151a2.14,2.14,0,0,0-1.943-1.959,2.183,2.183,0,0,1-3.753,0,2.143,2.143,0,0,0-1.936,2,2.354,2.354,0,0,0,.069.817,1,1,0,0,0,.226.418l3.5,3.828,3.4-3.719A1.728,1.728,0,0,0,5330.811,1680.914Z" transform="translate(-5322.637 -1678.279)" fill="#f04f4c"/>
        <path id="Trazado_48770" data-name="Trazado 48770" d="M5323.75,1683.423l-3.887-4.249a1.522,1.522,0,0,1-.345-.637,2.875,2.875,0,0,1-.084-1,2.665,2.665,0,0,1,2.425-2.474,2.841,2.841,0,0,0,3.812,0,2.666,2.666,0,0,1,2.434,2.426c.006.061.011.122.014.183h0a2.257,2.257,0,0,1-.586,1.606Zm-1.748-7.316-.083,0a1.619,1.619,0,0,0-1.447,1.523,1.861,1.861,0,0,0,.054.638.476.476,0,0,0,.106.2l3.117,3.407,3.012-3.3a1.209,1.209,0,0,0,.313-.859h0c0-.039,0-.078-.008-.118a1.617,1.617,0,0,0-1.452-1.493,1.511,1.511,0,0,0-1.388.8l-.455.808-.454-.808A1.521,1.521,0,0,0,5322,1676.106Z" transform="translate(-5319.422 -1675.063)" fill="#3d4451"/>
      </g>
      <g id="Grupo_18900" data-name="Grupo 18900" transform="translate(4790.831 1558)">
        <path id="Trazado_48771" data-name="Trazado 48771" d="M4881.824,1570.665l-4.933,0,0-4.683s0-1.974,0-2.361a.82.82,0,0,0-.35-.619h-2.825c-.465,0-.581.233-.581.233s-2.551,5.846-3.672,7.743a4.04,4.04,0,0,1-3.406,1.821l.005,10.064,3.33,0,2.168,1.856,9.173-.005a2.4,2.4,0,0,0,1.545-.563l1.1-.924a2.406,2.406,0,0,0,.859-1.844l0-8.315a2.4,2.4,0,0,0-1.167-2.061h0A2.4,2.4,0,0,0,4881.824,1570.665Z" transform="translate(-4855.556 -1562.306)" fill="#f5fafc"/>
        <path id="Trazado_48772" data-name="Trazado 48772" d="M4880.917,1601.543l-4.646,0,0-3.664s0-1.544,0-1.847a.641.641,0,0,0-.33-.484h-2.661c-.437,0-.546.182-.546.182s-2.4,4.573-3.46,6.057a4.145,4.145,0,0,1-3.208,1.425l0,7.873,3.135,0,2.042,1.452,8.64,0a2.561,2.561,0,0,0,1.456-.44l1.037-.722a1.774,1.774,0,0,0,.81-1.443l0-6.5a1.843,1.843,0,0,0-1.1-1.612h0A2.625,2.625,0,0,0,4880.917,1601.543Z" transform="translate(-4855.564 -1590.31)" fill="#fdc345"/>
        <path id="Trazado_48773" data-name="Trazado 48773" d="M4866.993,1581.113l-2.168-1.856-3.77,0-.006-11.485.722.024a3.3,3.3,0,0,0,2.78-1.478c1.087-1.838,3.609-7.609,3.634-7.667l.016-.032a1.284,1.284,0,0,1,1.2-.619l3.037,0,.176.117a1.5,1.5,0,0,1,.662,1.2l0,6.346,4.234,0h0a3.1,3.1,0,0,1,3.1,3.1l0,8.315a3.1,3.1,0,0,1-1.108,2.38l-1.1.924a3.106,3.106,0,0,1-1.993.726Zm-1.653-3.253,2.168,1.856,8.915-.005a1.709,1.709,0,0,0,1.1-.4l1.1-.923a1.706,1.706,0,0,0,.61-1.309l-.005-8.315a1.707,1.707,0,0,0-1.707-1.707h0l-5.631,0,0-7.663h-2.5c-.454,1.033-2.6,5.891-3.63,7.632a4.51,4.51,0,0,1-3.307,2.111l0,8.72Z" transform="translate(-4851.249 -1558)" fill="#3d4451"/>
        <g id="Grupo_18899" data-name="Grupo 18899" transform="translate(0 8.268)">
          <rect id="Rectángulo_4586" data-name="Rectángulo 4586" width="11.065" height="13.237" transform="translate(0.702 0.702)" fill="#7eb9c7"/>
          <path id="Trazado_48774" data-name="Trazado 48774" d="M4790.839,1631.885l-.008-14.634,12.461-.007.008,14.633Zm1.389-13.238.007,11.84,9.668-.005-.007-11.84Z" transform="translate(-4790.831 -1617.245)" fill="#3d4451"/>
        </g>
        <rect id="Rectángulo_4587" data-name="Rectángulo 4587" width="9.289" height="2.601" transform="translate(1.608 9.8)" fill="#f5fafc"/>
      </g>
      <g id="Grupo_18903" data-name="Grupo 18903" transform="translate(4856.856 1592.953)">
        <g id="Grupo_18902" data-name="Grupo 18902" transform="translate(0 0)">
          <g id="Grupo_18901" data-name="Grupo 18901">
            <path id="Trazado_48775" data-name="Trazado 48775" d="M5289.734,1818.173a4.887,4.887,0,1,0-4.179-4.608A4.657,4.657,0,0,0,5289.734,1818.173Z" transform="translate(-5282.53 -1808.449)" fill="#7eb9c7"/>
            <path id="Trazado_48776" data-name="Trazado 48776" d="M5277.791,1892.121a1.567,1.567,0,0,0,1.426-1.919c-.762-4.222-3.886-8-7.629-8.005s-6.876,3.769-7.646,7.99a1.566,1.566,0,0,0,1.422,1.922Z" transform="translate(-5263.913 -1871.904)" fill="#7eb9c7"/>
          </g>
        </g>
      </g>
      <g id="Grupo_18905" data-name="Grupo 18905" transform="translate(4856.37 1590.7)">
        <g id="Grupo_18904" data-name="Grupo 18904" transform="translate(0 0)">
          <path id="Trazado_48777" data-name="Trazado 48777" d="M5290.342,1803.513c-.1,0-.191,0-.287-.008h0a5.613,5.613,0,1,1,.287.008Zm-.222-1.287a4.326,4.326,0,1,0-4.091-4.1,4.339,4.339,0,0,0,4.091,4.1Z" transform="translate(-5281.349 -1792.3)" fill="#3d4451"/>
          <path id="Trazado_48778" data-name="Trazado 48778" d="M5276.672,1878.981h0l-13.971-.015a2.276,2.276,0,0,1-2.225-2.729c.992-4.943,4.953-8.668,9.214-8.668h.008c4.265,0,8.222,3.739,9.2,8.687a2.275,2.275,0,0,1-2.229,2.724Zm-6.984-10.13a7.312,7.312,0,0,0-5.093,2.274,10.539,10.539,0,0,0-2.866,5.365,1,1,0,0,0,.206.832.986.986,0,0,0,.765.363l13.97.014h0a.986.986,0,0,0,.764-.361,1,1,0,0,0,.208-.832,10.542,10.542,0,0,0-2.855-5.371,7.312,7.312,0,0,0-5.095-2.285Z" transform="translate(-5260.428 -1857.065)" fill="#3d4451"/>
        </g>
      </g>
      <g id="Grupo_18908" data-name="Grupo 18908" transform="translate(4856.475 1590.805)">
        <g id="Grupo_18907" data-name="Grupo 18907" transform="translate(0 0)">
          <g id="Grupo_18906" data-name="Grupo 18906">
            <path id="Trazado_48779" data-name="Trazado 48779" d="M5290.993,1804.059c-.094,0-.188,0-.282-.007h0a5.512,5.512,0,1,1,.282.007Zm-.227-1.076a4.431,4.431,0,1,0-4.192-4.2,4.449,4.449,0,0,0,4.192,4.2Z" transform="translate(-5282.105 -1793.057)" fill="#3d4451"/>
            <path id="Trazado_48780" data-name="Trazado 48780" d="M5277.322,1879.526h0l-13.971-.015a2.17,2.17,0,0,1-2.122-2.6c.982-4.895,4.9-8.584,9.111-8.584h.007c4.216,0,8.128,3.7,9.1,8.6a2.171,2.171,0,0,1-2.126,2.6Zm-6.983-10.13a7.416,7.416,0,0,0-5.167,2.305,10.645,10.645,0,0,0-2.9,5.419,1.1,1.1,0,0,0,.228.92,1.091,1.091,0,0,0,.847.4l13.97.015h0a1.091,1.091,0,0,0,.846-.4,1.105,1.105,0,0,0,.23-.92,10.645,10.645,0,0,0-2.884-5.425,7.415,7.415,0,0,0-5.169-2.316Z" transform="translate(-5261.184 -1857.821)" fill="#3d4451"/>
          </g>
        </g>
      </g>
      <g id="Grupo_18909" data-name="Grupo 18909" transform="translate(4799.966 1593.742)">
        <path id="Trazado_48781" data-name="Trazado 48781" d="M4871.832,1824.159l1.834,3.747,4.126.614-3,2.9.691,4.114-3.686-1.954-3.7,1.929.719-4.11-2.978-2.922,4.131-.586Z" transform="translate(-4864.509 -1822.755)" fill="#f04f4c"/>
        <path id="Trazado_48782" data-name="Trazado 48782" d="M4868.086,1828.021l-4.509-2.391-4.526,2.36.879-5.028-3.643-3.575,5.054-.717,2.275-4.569,2.243,4.585,5.049.751-3.667,3.55Zm-4.5-3.794,2.862,1.517-.537-3.195,2.328-2.254-3.2-.477-1.424-2.91-1.443,2.9-3.208.455,2.312,2.269-.559,3.191Z" transform="translate(-4856.287 -1814.101)" fill="#3d4451"/>
      </g>
    </g>
  </g>
</svg>
