<svg xmlns="http://www.w3.org/2000/svg" width="106" height="106" viewBox="0 0 106 106">
  <g id="Grupo_18980" data-name="Grupo 18980" transform="translate(-1023 -5814)">
    <circle id="Elipse_1079" data-name="Elipse 1079" cx="53" cy="53" r="53" transform="translate(1023 5814)" fill="#f4d8a2"/>
    <g id="Grupo_18964" data-name="Grupo 18964" transform="translate(-2455.539 4259.507)">
      <rect id="Rectángulo_4611" data-name="Rectángulo 4611" width="3.163" height="23.946" transform="translate(3510.689 1604.129)" fill="#c7ddeb"/>
      <rect id="Rectángulo_4612" data-name="Rectángulo 4612" width="3.163" height="31.175" transform="translate(3520.177 1591.252)" fill="#c7ddeb"/>
      <rect id="Rectángulo_4613" data-name="Rectángulo 4613" width="3.163" height="35.467" transform="translate(3532.828 1592.608)" fill="#c7ddeb"/>
      <rect id="Rectángulo_4614" data-name="Rectángulo 4614" width="3.163" height="21.687" transform="translate(3544.575 1595.544)" fill="#c7ddeb"/>
      <rect id="Rectángulo_4615" data-name="Rectángulo 4615" width="3.163" height="29.368" transform="translate(3553.385 1585.605)" fill="#c7ddeb"/>
      <g id="Grupo_18960" data-name="Grupo 18960" transform="translate(3500.144 1581.378)">
        <g id="Grupo_18959" data-name="Grupo 18959" transform="translate(0 0)">
          <path id="Trazado_48858" data-name="Trazado 48858" d="M3562.76,1635.738h0l-62.614-.082V1582.6a1.225,1.225,0,0,1,2.45,0v50.607l60.168.078a1.225,1.225,0,0,1,0,2.449Z" transform="translate(-3500.144 -1581.378)" fill="#3d4451"/>
          <path id="Trazado_48859" data-name="Trazado 48859" d="M3562.438,1699.544l-1.248-1.227,19.149-19.472,7.289,9.053,21.472-22.109,1.256,1.22-22.85,23.528-7.3-9.063Z" transform="translate(-3552.285 -1653.476)" fill="#3d4451"/>
          <path id="Trazado_48860" data-name="Trazado 48860" d="M3855.957,1636.639l10.6-1.505-1.355,9.854Z" transform="translate(-3804.057 -1627.293)" fill="#3d4451"/>
        </g>
      </g>
      <circle id="Elipse_1068" data-name="Elipse 1068" cx="2.297" cy="2.297" r="2.297" transform="translate(3525.642 1605.492)" fill="#3d4451"/>
      <circle id="Elipse_1069" data-name="Elipse 1069" cx="2.437" cy="2.437" r="2.437" transform="translate(3532.27 1617.053) rotate(-45)" fill="#3d4451"/>
      <circle id="Elipse_1070" data-name="Elipse 1070" cx="2.378" cy="2.378" r="2.378" transform="translate(3543.833 1603.613)" fill="#3d4451"/>
      <g id="Grupo_18961" data-name="Grupo 18961" transform="translate(3507.559 1620.518)">
        <circle id="Elipse_1071" data-name="Elipse 1071" cx="3.542" cy="3.542" r="3.542" transform="matrix(0.23, -0.973, 0.973, 0.23, 0.034, 6.928)" fill="#fdc345"/>
        <path id="Trazado_48861" data-name="Trazado 48861" d="M3555.273,1858.3a4.295,4.295,0,1,1,4.295-4.3A4.3,4.3,0,0,1,3555.273,1858.3Zm0-7.083a2.788,2.788,0,1,0,2.788,2.788A2.791,2.791,0,0,0,3555.273,1851.22Z" transform="translate(-3550.979 -1849.714)" fill="#3d4451"/>
      </g>
      <g id="Grupo_18962" data-name="Grupo 18962" transform="translate(3512.377 1586.556)">
        <path id="Trazado_48862" data-name="Trazado 48862" d="M3600.392,1621.6h-7.975a3.692,3.692,0,0,0-3.681,3.681v3.067a3.692,3.692,0,0,0,3.681,3.681h4.255l3.338,4.228s.147-2.652.123-4.228h.259a3.691,3.691,0,0,0,3.68-3.681v-3.067A3.691,3.691,0,0,0,3600.392,1621.6Z" transform="translate(-3588.047 -1620.913)" fill="#7eb9c7"/>
        <path id="Trazado_48863" data-name="Trazado 48863" d="M3596.563,1634.08l-4.259-5.394h-3.921a4.375,4.375,0,0,1-4.37-4.369v-3.067a4.375,4.375,0,0,1,4.37-4.37h7.975a4.374,4.374,0,0,1,4.369,4.37v3.067a4.375,4.375,0,0,1-3.938,4.348c-.012,1.549-.12,3.5-.125,3.6Zm-8.18-15.823a3,3,0,0,0-2.992,2.992v3.067a3,3,0,0,0,2.992,2.992h4.589l2.4,3.037c.028-.781.05-1.664.04-2.338l-.011-.7h.959a3,3,0,0,0,2.992-2.992v-3.067a3,3,0,0,0-2.992-2.992Z" transform="translate(-3584.013 -1616.879)" fill="#3d4451"/>
      </g>
      <g id="Grupo_18963" data-name="Grupo 18963" transform="translate(3545.087 1611.887)">
        <path id="Trazado_48864" data-name="Trazado 48864" d="M3816.66,1817.914h7.975a3.692,3.692,0,0,0,3.681-3.681v-3.067a3.692,3.692,0,0,0-3.681-3.681h-4.256l-3.338-4.228s-.147,2.652-.122,4.228h-.259a3.691,3.691,0,0,0-3.681,3.681v3.067A3.691,3.691,0,0,0,3816.66,1817.914Z" transform="translate(-3812.29 -1801.403)" fill="#f04f4c"/>
        <path id="Trazado_48865" data-name="Trazado 48865" d="M3820.6,1807.739h-7.975a4.374,4.374,0,0,1-4.369-4.369V1800.3a4.375,4.375,0,0,1,3.938-4.348c.012-1.549.12-3.5.125-3.6l.1-1.817,4.258,5.394h3.922a4.374,4.374,0,0,1,4.369,4.369v3.067A4.374,4.374,0,0,1,3820.6,1807.739Zm-7.975-10.428a3,3,0,0,0-2.992,2.992v3.067a3,3,0,0,0,2.992,2.992h7.975a3,3,0,0,0,2.992-2.992V1800.3a3,3,0,0,0-2.992-2.992h-4.59l-2.4-3.038c-.028.781-.05,1.664-.039,2.338l.011.7Z" transform="translate(-3808.257 -1790.539)" fill="#3d4451"/>
      </g>
    </g>
  </g>
</svg>
