<svg xmlns="http://www.w3.org/2000/svg" width="153" height="153" viewBox="0 0 153 153">
  <g id="Grupo_21284" data-name="Grupo 21284" transform="translate(-477 -2745)">
    <g id="Elipse_1117" data-name="Elipse 1117" transform="translate(477 2745)" fill="#fff" stroke="#fec558" stroke-width="1">
      <circle cx="76.5" cy="76.5" r="76.5" stroke="none"/>
      <circle cx="76.5" cy="76.5" r="76" fill="none"/>
    </g>
    <g id="Grupo_19891" data-name="Grupo 19891" transform="translate(-4901.32 1229.69)">
      <g id="Grupo_19889" data-name="Grupo 19889" transform="translate(5404.321 1537.99)">
        <rect id="Rectángulo_4934" data-name="Rectángulo 4934" width="18.229" height="17.543" transform="translate(4.395 79.901)" fill="#fdc345"/>
        <rect id="Rectángulo_4935" data-name="Rectángulo 4935" width="18.229" height="17.543" transform="translate(66.472 79.732)" fill="#7eb9c7"/>
        <rect id="Rectángulo_4936" data-name="Rectángulo 4936" width="18.229" height="17.543" transform="translate(35.205 79.681)" fill="#f04f4c"/>
        <g id="Grupo_19885" data-name="Grupo 19885" transform="translate(19.884)">
          <g id="Grupo_19884" data-name="Grupo 19884">
            <path id="Trazado_50968" data-name="Trazado 50968" d="M5528.8,1637.515v41.11h35.613v-41.11Z" transform="translate(-5521.354 -1615.667)" fill="#c7ddeb"/>
            <path id="Trazado_50969" data-name="Trazado 50969" d="M5578.476,1579.433v50.123h42.141v-50.123Z" transform="translate(-5560.128 -1570.335)" fill="#c7ddeb"/>
            <path id="Trazado_50970" data-name="Trazado 50970" d="M5539.406,1659.672H5494.9v-53.741h10.535v3.078h-7.458v47.586h38.352v-6.511h3.078Z" transform="translate(-5494.898 -1591.016)" fill="#3d4451"/>
            <path id="Trazado_50971" data-name="Trazado 50971" d="M5594.037,1595.519h-45.219V1537.99h45.219Zm-42.141-3.078h39.063v-51.373H5551.9Z" transform="translate(-5536.981 -1537.99)" fill="#3d4451"/>
          </g>
          <rect id="Rectángulo_4937" data-name="Rectángulo 4937" width="19.516" height="3.078" rx="1.539" transform="translate(20.242 9.047)" fill="#3d4451"/>
          <path id="Trazado_50972" data-name="Trazado 50972" d="M5605.734,1616.712H5587.84c-.589,0-1.067-.689-1.067-1.539h0c0-.85.478-1.539,1.067-1.539h17.895c.589,0,1.067.689,1.067,1.539h0C5606.8,1616.023,5606.323,1616.712,5605.734,1616.712Z" transform="translate(-5566.604 -1597.028)" fill="#3d4451"/>
          <path id="Trazado_50973" data-name="Trazado 50973" d="M5604.986,1648.911h-17.894c-.589,0-1.067-.689-1.067-1.539h0c0-.85.478-1.539,1.067-1.539h17.894c.589,0,1.067.689,1.067,1.539h0C5606.053,1648.222,5605.575,1648.911,5604.986,1648.911Z" transform="translate(-5566.02 -1622.158)" fill="#3d4451"/>
        </g>
        <g id="Grupo_19888" data-name="Grupo 19888" transform="translate(0 37.524)">
          <g id="Grupo_19886" data-name="Grupo 19886" transform="translate(0 36.366)">
            <path id="Trazado_50974" data-name="Trazado 50974" d="M5704.1,1896.671h-22.095v-22.095H5704.1Zm-19.9-2.2h17.7v-17.7h-17.7Z" transform="translate(-5621.047 -1874.576)" fill="#3d4451"/>
            <path id="Trazado_50975" data-name="Trazado 50975" d="M5565.259,1896.671h-22.095v-22.095h22.095Zm-19.9-2.2h17.7v-17.7h-17.7Z" transform="translate(-5512.684 -1874.576)" fill="#3d4451"/>
            <path id="Trazado_50976" data-name="Trazado 50976" d="M5426.416,1896.671h-22.1v-22.095h22.1Zm-19.9-2.2h17.7v-17.7h-17.7Z" transform="translate(-5404.32 -1874.576)" fill="#3d4451"/>
            <rect id="Rectángulo_4938" data-name="Rectángulo 4938" width="18.415" height="3.81" transform="translate(48.089 9.354)" fill="#3d4451"/>
            <rect id="Rectángulo_4939" data-name="Rectángulo 4939" width="20.32" height="3.81" transform="translate(15.069 9.142)" fill="#3d4451"/>
          </g>
          <g id="Grupo_19887" data-name="Grupo 19887" transform="translate(7.929 20.36)">
            <path id="Trazado_50977" data-name="Trazado 50977" d="M5446.909,1822.577v-14.441h10.653" transform="translate(-5445.488 -1806.715)" fill="#f5fafc"/>
            <path id="Trazado_50978" data-name="Trazado 50978" d="M5443.279,1817.527h-2.841v-15.862h12.074v2.841h-9.233Z" transform="translate(-5440.438 -1801.665)" fill="#3d4451"/>
          </g>
          <path id="Trazado_50979" data-name="Trazado 50979" d="M5763.888,1757.689h-8.523v-2.841h5.682v-43.087h-13.258v-2.841h16.1Z" transform="translate(-5672.388 -1708.92)" fill="#3d4451"/>
        </g>
      </g>
      <g id="Grupo_19890" data-name="Grupo 19890" transform="translate(5444.507 1568.125)">
        <path id="Trazado_50980" data-name="Trazado 50980" d="M5601.122,1698.849a2.326,2.326,0,0,1-1.577-.7l-7.747-7.645a1.715,1.715,0,0,1,.171-2.632,2.328,2.328,0,0,1,2.982.14l6.066,5.952,12.605-14.092a2.32,2.32,0,0,1,2.967-.318,1.7,1.7,0,0,1,.359,2.6l-14.164,15.908a2.229,2.229,0,0,1-1.6.786Z" transform="translate(-5590.41 -1678.309)" fill="#4ece46"/>
        <path id="Trazado_50981" data-name="Trazado 50981" d="M5598.158,1696.656h-.066a3.162,3.162,0,0,1-2.174-.939l-7.749-7.647a2.591,2.591,0,0,1-.786-1.988,2.643,2.643,0,0,1,1.031-1.923,3.168,3.168,0,0,1,4.1.2l5.43,5.327,12.01-13.427a3.157,3.157,0,0,1,4.084-.452,2.672,2.672,0,0,1,1.162,1.866,2.519,2.519,0,0,1-.649,2l-14.164,15.907A3.081,3.081,0,0,1,5598.158,1696.656Zm-7.8-11.447a1.456,1.456,0,0,0-.892.294.927.927,0,0,0-.377.675.877.877,0,0,0,.279.677l7.749,7.647a1.469,1.469,0,0,0,.979.449h.066a1.4,1.4,0,0,0,.96-.5l14.164-15.907a.83.83,0,0,0,.229-.664.954.954,0,0,0-.435-.664,1.465,1.465,0,0,0-1.847.184l-13.2,14.758-6.7-6.577A1.386,1.386,0,0,0,5590.354,1685.21Z" transform="translate(-5587.379 -1675.263)" fill="#3d4451"/>
      </g>
    </g>
  </g>
</svg>
