<svg xmlns="http://www.w3.org/2000/svg" width="153" height="153" viewBox="0 0 153 153">
  <g id="Grupo_21281" data-name="Grupo 21281" transform="translate(-477 -1959)">
    <g id="Elipse_1114" data-name="Elipse 1114" transform="translate(477 1959)" fill="#fff" stroke="#fec558" stroke-width="1">
      <circle cx="76.5" cy="76.5" r="76.5" stroke="none"/>
      <circle cx="76.5" cy="76.5" r="76" fill="none"/>
    </g>
    <g id="Grupo_19883" data-name="Grupo 19883" transform="translate(-1850.346 512.666)">
      <ellipse id="Elipse_1118" data-name="Elipse 1118" cx="33.964" cy="2.543" rx="33.964" ry="2.543" transform="translate(2362.378 1563.068)" fill="#7eb9c7"/>
      <g id="Grupo_19875" data-name="Grupo 19875" transform="translate(2354.346 1486.768)">
        <path id="Trazado_50957" data-name="Trazado 50957" d="M2475.528,1607.951a4.705,4.705,0,0,1-4.831,4.568h-74.865a4.705,4.705,0,0,1-4.832-4.568v-43.384a4.705,4.705,0,0,1,4.832-4.568H2470.7a4.705,4.705,0,0,1,4.831,4.568Z" transform="translate(-2382.968 -1552.406)" fill="#c7ddeb"/>
        <path id="Trazado_50958" data-name="Trazado 50958" d="M2437.471,1580.406h-83.125v-55.06h83.125Zm-80.647-2.478h78.169v-50.1h-78.169Z" transform="translate(-2354.346 -1525.346)" fill="#3d4451"/>
      </g>
      <g id="Grupo_19879" data-name="Grupo 19879" transform="translate(2399.363 1475.942)">
        <g id="Grupo_19876" data-name="Grupo 19876" transform="translate(0 0)">
          <circle id="Elipse_1119" data-name="Elipse 1119" cx="29.241" cy="29.241" r="29.241" transform="translate(0.494 2.117) rotate(-1.59)" fill="#f5fafc"/>
          <ellipse id="Elipse_1120" data-name="Elipse 1120" cx="26.113" cy="25.612" rx="26.113" ry="25.612" transform="translate(6.182 5.779)" fill="#7eb9c7"/>
          <path id="Trazado_50959" data-name="Trazado 50959" d="M2590.32,1537.013a30.536,30.536,0,1,1,30.536-30.535A30.57,30.57,0,0,1,2590.32,1537.013Zm0-58.482a27.947,27.947,0,1,0,27.947,27.947A27.978,27.978,0,0,0,2590.32,1478.531Z" transform="translate(-2559.785 -1475.942)" fill="#3d4451"/>
        </g>
        <g id="Grupo_19877" data-name="Grupo 19877" transform="translate(28.319 1.056)">
          <path id="Trazado_50960" data-name="Trazado 50960" d="M2704.743,1486.98,2696,1515.032l29.363-2.41S2723.566,1492.673,2704.743,1486.98Z" transform="translate(-2694.471 -1485.617)" fill="#f04f4c"/>
          <path id="Trazado_50961" data-name="Trazado 50961" d="M2689.021,1511.4l9.55-30.641,1.04.314a29.262,29.262,0,0,1,18.035,15.521,34.613,34.613,0,0,1,3.359,11.072l.1,1.1Zm10.99-27.9-7.931,25.446,26.587-2.182a34.418,34.418,0,0,0-3.022-9.275A26.653,26.653,0,0,0,2700.01,1483.5Z" transform="translate(-2689.021 -1480.759)" fill="#3d4451"/>
        </g>
        <g id="Grupo_19878" data-name="Grupo 19878" transform="translate(28.092 27.382)">
          <path id="Trazado_50962" data-name="Trazado 50962" d="M2694.5,1608.78l27.791,11.283a24.672,24.672,0,0,0,2.466-13.73" transform="translate(-2693.073 -1605.143)" fill="#fdc345"/>
          <path id="Trazado_50963" data-name="Trazado 50963" d="M2717.67,1617.193l-29.684-12.051.824-2.03,27.865,11.313a24.845,24.845,0,0,0,1.9-12.234l-.1-1.091,2.182-.2.1,1.091a25.608,25.608,0,0,1-2.612,14.383Z" transform="translate(-2687.986 -1600.901)" fill="#3d4451"/>
        </g>
      </g>
      <g id="Grupo_19882" data-name="Grupo 19882" transform="translate(2359.8 1499.555)">
        <g id="Grupo_19881" data-name="Grupo 19881" transform="translate(10.656 0)">
          <g id="Grupo_19880" data-name="Grupo 19880">
            <path id="Trazado_50964" data-name="Trazado 50964" d="M2437.14,1603.241a9.775,9.775,0,1,0-9.258-9.249A9.776,9.776,0,0,0,2437.14,1603.241Z" transform="translate(-2427.869 -1583.704)" fill="#3d4451"/>
          </g>
        </g>
        <path id="Trazado_50965" data-name="Trazado 50965" d="M2391.113,1679.15l-4.149,10.234a4.013,4.013,0,0,1-5.079,2.239,4.23,4.23,0,0,1-2.44-2.347c-.493-1.19,0-2.533.365-3.706l4-12.722c1.127-3.589,2.316-7.707,5.06-10.439a13.946,13.946,0,0,1,9.627-4.385c1.553,0,7.821-.021,11.345.2,0,0,18.489-4.727,19.58-4.908a4.66,4.66,0,0,1,3.2.5,2.867,2.867,0,0,1,1.307,1.764,3.853,3.853,0,0,1-.953,3.428c-1.643,1.81-4.342,2.518-6.555,3.34l-7.874,2.923c-1.589.59-3.177.943-4.306,2.281a9.623,9.623,0,0,0-1.834,3.752,26.645,26.645,0,0,0-.667,5.383c-.313,5.658-.78,11.334-.777,16.995,0,2.693.086,5.385.087,8.079a4.128,4.128,0,0,1-3.464,4.108,4.085,4.085,0,0,1-4.687-4.03v-14.1h-3.745v13.57a4.132,4.132,0,0,1-3.452,4.116,4.086,4.086,0,0,1-4.7-4.028V1679.15" transform="translate(-2379.237 -1637.998)" fill="#3d4451"/>
        <path id="Trazado_50966" data-name="Trazado 50966" d="M2464.664,1686.259h5.309l-1.911,3.186,1.487,9.132-2.336,3.61-2.549-3.61,1.7-9.132Z" transform="translate(-2445.945 -1663.786)" fill="#f04f4c"/>
      </g>
      <path id="Trazado_50967" data-name="Trazado 50967" d="M2609.411,1609.976l23.876-17.3a1.166,1.166,0,0,0,.27-1.614h0a1.166,1.166,0,0,0-1.553-.329l-25.143,15.085" transform="translate(-197.183 -89.506)" fill="#3d4451"/>
    </g>
  </g>
</svg>
