<svg xmlns="http://www.w3.org/2000/svg" width="153" height="153" viewBox="0 0 153 153">
  <g id="Grupo_21280" data-name="Grupo 21280" transform="translate(-477 -1762)">
    <g id="Elipse_1113" data-name="Elipse 1113" transform="translate(477 1762)" fill="#fff" stroke="#fec558" stroke-width="1">
      <circle cx="76.5" cy="76.5" r="76.5" stroke="none"/>
      <circle cx="76.5" cy="76.5" r="76" fill="none"/>
    </g>
    <g id="Grupo_19870" data-name="Grupo 19870" transform="translate(-1678.563 253.971)">
      <path id="Trazado_50932" data-name="Trazado 50932" d="M2361.185,1560.27H2397.3a5.333,5.333,0,0,1,5.445,5.18v13.294a5.333,5.333,0,0,1-5.445,5.18h-4.265l.279,7.919-8.187-7.919h-23.944a5.333,5.333,0,0,1-5.445-5.18V1565.45A5.333,5.333,0,0,1,2361.185,1560.27Z" transform="translate(-135.658 -19.436)" fill="#7eb9c7"/>
      <path id="Trazado_50933" data-name="Trazado 50933" d="M2294.271,1556.32h-37.024a5.417,5.417,0,0,0-5.581,5.2v13.352a5.417,5.417,0,0,0,5.581,5.2h4.372l-1,10.2,9.107-10.2h24.546a5.418,5.418,0,0,0,5.582-5.2v-13.352A5.418,5.418,0,0,0,2294.271,1556.32Z" transform="translate(-55.52 -16.394)" fill="#fdc345"/>
      <path id="Trazado_50934" data-name="Trazado 50934" d="M2364.434,1556.32h-21.643v14.541c0,4.365,2.438,7.937,5.418,7.937h18.5a5.033,5.033,0,0,0,2.965-4.525v-12.92A5.155,5.155,0,0,0,2364.434,1556.32Z" transform="translate(-125.687 -16.394)" fill="#f04f4c"/>
      <g id="Grupo_19847" data-name="Grupo 19847" transform="translate(2185.564 1589.88)">
        <g id="Grupo_19846" data-name="Grupo 19846" transform="translate(0)">
          <g id="Grupo_19845" data-name="Grupo 19845">
            <path id="Trazado_50935" data-name="Trazado 50935" d="M2244.966,1793.558a10.025,10.025,0,1,0-9.492-9.495A10.03,10.03,0,0,0,2244.966,1793.558Z" transform="translate(-2228.607 -1773.522)" fill="#c7ddeb"/>
            <path id="Trazado_50936" data-name="Trazado 50936" d="M2237.173,1886.172a3.3,3.3,0,0,0,3.237-3.954c-1.729-8.7-8.825-16.486-17.328-16.495s-15.613,7.764-17.361,16.459a3.3,3.3,0,0,0,3.229,3.96Z" transform="translate(-2205.656 -1844.518)" fill="#c7ddeb"/>
          </g>
        </g>
      </g>
      <g id="Grupo_19849" data-name="Grupo 19849" transform="translate(2179.67 1585.938)">
        <g id="Grupo_19848" data-name="Grupo 19848" transform="translate(0)">
          <path id="Trazado_50937" data-name="Trazado 50937" d="M2222.219,1779.626q-.3,0-.6-.015a11.66,11.66,0,1,1,.6.015Zm.028-20.586a8.965,8.965,0,0,0-.488,17.918h0a8.966,8.966,0,0,0,.951-17.906Q2222.478,1759.04,2222.247,1759.04Z" transform="translate(-2203.578 -1756.385)" fill="#3d4451"/>
          <path id="Trazado_50938" data-name="Trazado 50938" d="M2213.7,1874.707h0l-28.956-.03a4.717,4.717,0,0,1-4.613-5.656,24.527,24.527,0,0,1,6.675-12.483,17.788,17.788,0,0,1,12.425-5.483h.016a17.783,17.783,0,0,1,12.43,5.509,24.524,24.524,0,0,1,6.649,12.5,4.718,4.718,0,0,1-4.62,5.646Zm-14.475-21a15.156,15.156,0,0,0-10.555,4.714,21.841,21.841,0,0,0-5.94,11.12,2.071,2.071,0,0,0,.427,1.725,2.045,2.045,0,0,0,1.585.752l28.956.03h0a2.044,2.044,0,0,0,1.585-.749,2.071,2.071,0,0,0,.431-1.724,21.844,21.844,0,0,0-5.918-11.132,15.154,15.154,0,0,0-10.56-4.736Z" transform="translate(-2180.03 -1829.282)" fill="#3d4451"/>
        </g>
      </g>
      <g id="Grupo_19852" data-name="Grupo 19852" transform="translate(2179.563 1585.831)">
        <g id="Grupo_19851" data-name="Grupo 19851">
          <g id="Grupo_19850" data-name="Grupo 19850">
            <path id="Trazado_50939" data-name="Trazado 50939" d="M2221.86,1779.375c-.2,0-.4,0-.6-.015a11.762,11.762,0,1,1,.6.015Zm.028-20.586a8.858,8.858,0,0,0-.482,17.7h0a8.859,8.859,0,0,0,.94-17.692Q2222.116,1758.789,2221.888,1758.789Z" transform="translate(-2203.112 -1755.92)" fill="#3d4451"/>
            <path id="Trazado_50940" data-name="Trazado 50940" d="M2213.338,1874.456h-.005l-28.956-.03a4.825,4.825,0,0,1-4.719-5.784,24.636,24.636,0,0,1,6.7-12.538,17.893,17.893,0,0,1,12.5-5.514h.016a17.89,17.89,0,0,1,12.506,5.541,24.631,24.631,0,0,1,6.678,12.552,4.824,4.824,0,0,1-4.725,5.774Zm-14.474-21a15.049,15.049,0,0,0-10.48,4.683,21.732,21.732,0,0,0-5.911,11.064,1.964,1.964,0,0,0,.405,1.636,1.936,1.936,0,0,0,1.5.713l28.956.031h0a1.937,1.937,0,0,0,1.5-.71,1.965,1.965,0,0,0,.409-1.636,21.736,21.736,0,0,0-5.888-11.077,15.049,15.049,0,0,0-10.484-4.7Z" transform="translate(-2179.563 -1828.816)" fill="#3d4451"/>
          </g>
        </g>
      </g>
      <g id="Grupo_19855" data-name="Grupo 19855" transform="translate(2220.143 1579.633)">
        <g id="Grupo_19854" data-name="Grupo 19854" transform="translate(0)">
          <g id="Grupo_19853" data-name="Grupo 19853">
            <path id="Trazado_50941" data-name="Trazado 50941" d="M2381.945,1741.3a6.184,6.184,0,1,0-6.261-5.842A6.4,6.4,0,0,0,2381.945,1741.3Z" transform="translate(-2371.152 -1728.969)" fill="#c7ddeb"/>
            <path id="Trazado_50942" data-name="Trazado 50942" d="M2376.794,1812.7a2.273,2.273,0,0,0,2.135-2.761c-1.14-6.075-5.82-11.513-11.428-11.519s-10.3,5.423-11.451,11.5a2.273,2.273,0,0,0,2.129,2.765Z" transform="translate(-2356.006 -1782.444)" fill="#c7ddeb"/>
          </g>
        </g>
      </g>
      <g id="Grupo_19857" data-name="Grupo 19857" transform="translate(2215.161 1573.274)">
        <g id="Grupo_19856" data-name="Grupo 19856" transform="translate(0)">
          <path id="Trazado_50943" data-name="Trazado 50943" d="M2369.992,1720.955q-.251,0-.5-.013h0a9.839,9.839,0,1,1,.5.013Zm-.388-2.254a7.575,7.575,0,1,0-7.165-7.173,7.611,7.611,0,0,0,7.165,7.173Z" transform="translate(-2354.242 -1701.319)" fill="#3d4451"/>
          <path id="Trazado_50944" data-name="Trazado 50944" d="M2362.792,1801.288h0l-24.465-.026a3.986,3.986,0,0,1-3.9-4.778c1.739-8.657,8.674-15.18,16.137-15.18h.013c7.469.008,14.4,6.548,16.119,15.213a3.986,3.986,0,0,1-3.9,4.77Zm0-2.244h0a1.727,1.727,0,0,0,1.339-.632,1.752,1.752,0,0,0,.364-1.457,18.456,18.456,0,0,0-5-9.405,12.8,12.8,0,0,0-8.922-4h-.011a12.805,12.805,0,0,0-8.918,3.982,18.459,18.459,0,0,0-5.019,9.4,1.749,1.749,0,0,0,.361,1.458,1.727,1.727,0,0,0,1.339.635Z" transform="translate(-2334.347 -1762.909)" fill="#3d4451"/>
        </g>
      </g>
      <g id="Grupo_19860" data-name="Grupo 19860" transform="translate(2214.903 1573.016)">
        <g id="Grupo_19859" data-name="Grupo 19859" transform="translate(0 0)">
          <g id="Grupo_19858" data-name="Grupo 19858">
            <path id="Trazado_50945" data-name="Trazado 50945" d="M2369.127,1720.349c-.172,0-.344,0-.517-.013a10.118,10.118,0,1,1,.517.013Zm-.375-2.769a7.318,7.318,0,0,0,7.694-7.683,7.372,7.372,0,0,0-6.917-6.931,7.318,7.318,0,0,0-7.7,7.685,7.373,7.373,0,0,0,6.92,6.928Z" transform="translate(-2353.12 -1700.196)" fill="#3d4451"/>
            <path id="Trazado_50946" data-name="Trazado 50946" d="M2361.928,1800.682h0l-24.465-.026a4.244,4.244,0,0,1-4.15-5.087c1.762-8.774,8.807-15.387,16.389-15.387h.014c7.59.008,14.628,6.638,16.373,15.421a4.244,4.244,0,0,1-4.157,5.079Zm0-2.76h0a1.452,1.452,0,0,0,1.139-.538,1.491,1.491,0,0,0,.311-1.243,18.192,18.192,0,0,0-4.928-9.273,12.549,12.549,0,0,0-8.74-3.926h-.011a12.549,12.549,0,0,0-8.736,3.908,18.2,18.2,0,0,0-4.948,9.262,1.492,1.492,0,0,0,.308,1.243,1.454,1.454,0,0,0,1.139.541Z" transform="translate(-2333.224 -1761.787)" fill="#3d4451"/>
          </g>
        </g>
      </g>
      <g id="Grupo_19863" data-name="Grupo 19863" transform="translate(2250.408 1590.752)">
        <g id="Grupo_19862" data-name="Grupo 19862" transform="translate(0)">
          <g id="Grupo_19861" data-name="Grupo 19861">
            <path id="Trazado_50947" data-name="Trazado 50947" d="M2525.315,1797.49a10.106,10.106,0,1,0-9.1-9.561A9.868,9.868,0,0,0,2525.315,1797.49Z" transform="translate(-2509.622 -1777.313)" fill="#c7ddeb"/>
            <path id="Trazado_50948" data-name="Trazado 50948" d="M2517.833,1890.756a3.285,3.285,0,0,0,3.105-3.981c-1.658-8.76-8.465-16.6-16.621-16.61s-14.977,7.819-16.653,16.576a3.284,3.284,0,0,0,3.1,3.988Z" transform="translate(-2487.601 -1848.809)" fill="#c7ddeb"/>
          </g>
        </g>
      </g>
      <g id="Grupo_19865" data-name="Grupo 19865" transform="translate(2244.515 1586.81)">
        <g id="Grupo_19864" data-name="Grupo 19864" transform="translate(0 0)">
          <path id="Trazado_50949" data-name="Trazado 50949" d="M2504.165,1783.415q-.3,0-.6-.015h0a11.648,11.648,0,1,1,.6.015Zm.028-20.586a8.965,8.965,0,0,0-.488,17.918h0a8.966,8.966,0,0,0,.951-17.907Q2504.423,1762.828,2504.192,1762.829Z" transform="translate(-2485.524 -1760.173)" fill="#3d4451"/>
          <path id="Trazado_50950" data-name="Trazado 50950" d="M2495.643,1878.5h0l-28.956-.031a4.717,4.717,0,0,1-4.613-5.656,24.526,24.526,0,0,1,6.675-12.483,17.786,17.786,0,0,1,12.425-5.484h.016a17.784,17.784,0,0,1,12.431,5.509,24.521,24.521,0,0,1,6.648,12.5,4.718,4.718,0,0,1-4.62,5.646Zm-14.475-21a15.155,15.155,0,0,0-10.555,4.714,21.84,21.84,0,0,0-5.94,11.12,2.067,2.067,0,0,0,.427,1.725,2.041,2.041,0,0,0,1.585.752l28.956.03h0a2.044,2.044,0,0,0,1.585-.749,2.07,2.07,0,0,0,.431-1.724,21.841,21.841,0,0,0-5.917-11.132,15.155,15.155,0,0,0-10.56-4.736Z" transform="translate(-2461.975 -1833.072)" fill="#3d4451"/>
        </g>
      </g>
      <g id="Grupo_19868" data-name="Grupo 19868" transform="translate(2244.407 1586.703)">
        <g id="Grupo_19867" data-name="Grupo 19867" transform="translate(0 0)">
          <g id="Grupo_19866" data-name="Grupo 19866">
            <path id="Trazado_50951" data-name="Trazado 50951" d="M2503.8,1783.164q-.3,0-.6-.015a11.773,11.773,0,1,1,.6.015Zm.028-20.586a8.858,8.858,0,0,0-.482,17.7h0a8.859,8.859,0,0,0,.94-17.692C2504.138,1762.582,2503.985,1762.578,2503.833,1762.578Z" transform="translate(-2485.057 -1759.708)" fill="#3d4451"/>
            <path id="Trazado_50952" data-name="Trazado 50952" d="M2495.284,1878.246h-.005l-28.956-.03a4.825,4.825,0,0,1-4.718-5.784,24.636,24.636,0,0,1,6.7-12.538,17.893,17.893,0,0,1,12.5-5.514h.016a17.89,17.89,0,0,1,12.506,5.54,24.632,24.632,0,0,1,6.678,12.552,4.824,4.824,0,0,1-4.725,5.774Zm-14.475-21a15.049,15.049,0,0,0-10.48,4.683,21.732,21.732,0,0,0-5.911,11.065,1.962,1.962,0,0,0,.405,1.636,1.936,1.936,0,0,0,1.5.712l28.956.031h0a1.936,1.936,0,0,0,1.5-.71,1.963,1.963,0,0,0,.409-1.635,21.736,21.736,0,0,0-5.887-11.077,15.051,15.051,0,0,0-10.485-4.7Z" transform="translate(-2461.509 -1832.606)" fill="#3d4451"/>
          </g>
        </g>
      </g>
      <g id="Grupo_19869" data-name="Grupo 19869" transform="translate(2221.444 1540.078)">
        <path id="Trazado_50953" data-name="Trazado 50953" d="M2380.286,1569.705a6.949,6.949,0,0,0-.065-1.852l1.772-1.123-1.2-2.636-1.992.54a7.152,7.152,0,0,0-1.386-1.354l.414-2.018-2.67-1.063-.956,1.758a6.734,6.734,0,0,0-1.963.01l-1.1-1.715-2.575,1.133.566,1.93a6.547,6.547,0,0,0-1.344,1.44l-1.938-.463-.971,2.665,1.757,1.011a6.956,6.956,0,0,0,.1,1.981l-1.683,1.066,1.2,2.636,1.97-.534a7.165,7.165,0,0,0,1.414,1.321l-.42,2.045,2.67,1.063,1.009-1.855a6.718,6.718,0,0,0,1.83-.038l1.177,1.84,2.575-1.133-.618-2.1a6.555,6.555,0,0,0,1.22-1.307l2.113.5.972-2.665Zm-6.859,2.592a3.639,3.639,0,0,1-3.425-3.689,3.377,3.377,0,0,1,3.551-3.348,3.639,3.639,0,0,1,3.425,3.689A3.376,3.376,0,0,1,2373.427,1572.3Z" transform="translate(-2364.141 -1559.46)" fill="#fdc345"/>
        <path id="Trazado_50954" data-name="Trazado 50954" d="M2369.411,1575.811a.742.742,0,0,1-.273-.053l-2.67-1.063a.739.739,0,0,1-.451-.837l.326-1.587a7.855,7.855,0,0,1-.849-.793l-1.522.413a.74.74,0,0,1-.867-.408l-1.2-2.636a.74.74,0,0,1,.277-.932l1.271-.8a7.765,7.765,0,0,1-.059-1.2l-1.359-.782a.74.74,0,0,1-.326-.9l.972-2.665a.739.739,0,0,1,.867-.466l1.462.349a7.29,7.29,0,0,1,.8-.859l-.431-1.469a.74.74,0,0,1,.412-.886l2.575-1.133a.74.74,0,0,1,.922.279l.846,1.324a7.5,7.5,0,0,1,1.176-.008l.719-1.324a.742.742,0,0,1,.924-.334l2.67,1.063a.74.74,0,0,1,.451.837l-.323,1.571a7.878,7.878,0,0,1,.835.813l1.533-.416a.739.739,0,0,1,.867.408l1.2,2.636a.74.74,0,0,1-.277.932l-1.371.869a7.674,7.674,0,0,1,.036,1.07l1.483.853a.74.74,0,0,1,.326.9l-.972,2.665a.738.738,0,0,1-.867.466l-1.644-.392a7.29,7.29,0,0,1-.674.721l.485,1.65a.74.74,0,0,1-.412.886l-2.575,1.133a.74.74,0,0,1-.922-.279l-.925-1.447a7.4,7.4,0,0,1-1.038.023l-.778,1.432A.741.741,0,0,1,2369.411,1575.811Zm-1.82-2.261,1.484.59.695-1.278a.743.743,0,0,1,.735-.382,5.984,5.984,0,0,0,1.629-.034.74.74,0,0,1,.74.332l.835,1.306,1.4-.616-.435-1.481a.74.74,0,0,1,.243-.783,5.806,5.806,0,0,0,1.083-1.159.739.739,0,0,1,.777-.293l1.472.351.533-1.461-1.344-.773a.739.739,0,0,1-.368-.715,6.218,6.218,0,0,0-.058-1.655.74.74,0,0,1,.333-.749l1.227-.778-.673-1.477-1.385.376a.741.741,0,0,1-.778-.26,6.414,6.414,0,0,0-1.242-1.214.74.74,0,0,1-.285-.744l.29-1.411-1.483-.591-.643,1.181a.739.739,0,0,1-.753.379,6.025,6.025,0,0,0-1.748.009.74.74,0,0,1-.735-.333l-.755-1.181-1.4.616.383,1.306a.739.739,0,0,1-.251.789,5.817,5.817,0,0,0-1.192,1.278.741.741,0,0,1-.783.3l-1.3-.309-.532,1.461,1.217.7a.74.74,0,0,1,.368.709,6.217,6.217,0,0,0,.091,1.771.741.741,0,0,1-.33.767l-1.138.721.673,1.477,1.364-.369a.741.741,0,0,1,.767.247,6.411,6.411,0,0,0,1.267,1.184.741.741,0,0,1,.3.753Zm3.53-2.985c-.069,0-.139,0-.209,0a4.389,4.389,0,0,1-4.129-4.441,4.135,4.135,0,0,1,1.31-2.974,4.079,4.079,0,0,1,3.016-1.1,4.389,4.389,0,0,1,4.129,4.441,4.135,4.135,0,0,1-1.31,2.974A4.077,4.077,0,0,1,2371.121,1570.564Zm-.22-7.044a2.609,2.609,0,0,0-1.8.705,2.667,2.667,0,0,0-.841,1.919,2.9,2.9,0,0,0,2.722,2.936,2.627,2.627,0,0,0,1.933-.7,2.665,2.665,0,0,0,.841-1.919,2.9,2.9,0,0,0-2.721-2.936C2370.992,1563.521,2370.946,1563.52,2370.9,1563.52Z" transform="translate(-2361.662 -1556.983)" fill="#3d4451"/>
      </g>
      <path id="Trazado_50955" data-name="Trazado 50955" d="M2238.436,1578.6l.867-14.248h-3.6a7.087,7.087,0,0,1-7.132-7.025v-15.268a7.087,7.087,0,0,1,7.132-7.025h40.171a7.087,7.087,0,0,1,7.132,7.025v15.268a7.087,7.087,0,0,1-7.132,7.025H2249.76Zm-2.734-41.413a4.932,4.932,0,0,0-4.979,4.872v15.268a4.933,4.933,0,0,0,4.979,4.873h5.887l-.591,9.717,7.723-9.717h27.151a4.933,4.933,0,0,0,4.98-4.873v-15.268a4.933,4.933,0,0,0-4.98-4.872Z" transform="translate(-37.736 -0.004)" fill="#3d4451"/>
      <path id="Trazado_50956" data-name="Trazado 50956" d="M2383.792,1575.272l-12.3-11.309h-26.977a7.217,7.217,0,0,1-7.407-6.993v-14.948a7.217,7.217,0,0,1,7.407-6.993h41.378a7.218,7.218,0,0,1,7.408,6.993v14.948a7.218,7.218,0,0,1-7.408,6.993h-3.557Zm-39.277-37.9a4.88,4.88,0,0,0-5.068,4.655v14.948a4.88,4.88,0,0,0,5.068,4.654H2372.4l8.25,7.585-.976-7.585h6.216a4.881,4.881,0,0,0,5.069-4.654v-14.948a4.881,4.881,0,0,0-5.069-4.655Z" transform="translate(-121.311)" fill="#3d4451"/>
    </g>
  </g>
</svg>
