<svg xmlns="http://www.w3.org/2000/svg" width="153" height="153" viewBox="0 0 153 153">
  <g id="Grupo_21283" data-name="Grupo 21283" transform="translate(-477 -2482)">
    <g id="Elipse_1116" data-name="Elipse 1116" transform="translate(477 2482)" fill="#fff" stroke="#fec558" stroke-width="1">
      <circle cx="76.5" cy="76.5" r="76.5" stroke="none"/>
      <circle cx="76.5" cy="76.5" r="76" fill="none"/>
    </g>
    <g id="Grupo_19926" data-name="Grupo 19926" transform="translate(-116.939 1008.789)">
      <g id="Grupo_19905" data-name="Grupo 19905" transform="translate(632.206 1507.375)">
        <g id="Grupo_19903" data-name="Grupo 19903" transform="translate(0 0)">
          <rect id="Rectángulo_4944" data-name="Rectángulo 4944" width="2.48" height="36.195" transform="translate(0 26.218)" fill="#3d4451"/>
          <rect id="Rectángulo_4945" data-name="Rectángulo 4945" width="2.48" height="32.384" transform="translate(4.978 70.383) rotate(-59.174)" fill="#3d4451"/>
          <rect id="Rectángulo_4946" data-name="Rectángulo 4946" width="33.701" height="2.48" transform="matrix(0.864, -0.504, 0.504, 0.864, 42.068, 85.263)" fill="#3d4451"/>
          <rect id="Rectángulo_4947" data-name="Rectángulo 4947" width="2.48" height="34.879" transform="translate(75.181 27.623)" fill="#3d4451"/>
          <rect id="Rectángulo_4948" data-name="Rectángulo 4948" width="2.48" height="34.48" transform="matrix(0.514, -0.858, 0.858, 0.514, 42.913, 2.496)" fill="#3d4451"/>
          <rect id="Rectángulo_4949" data-name="Rectángulo 4949" width="34.083" height="2.48" transform="matrix(0.863, -0.505, 0.505, 0.863, 4.585, 17.223)" fill="#3d4451"/>
        </g>
        <g id="Grupo_19904" data-name="Grupo 19904" transform="translate(14.713 17.928)">
          <ellipse id="Elipse_1124" data-name="Elipse 1124" cx="22.241" cy="23.121" rx="22.241" ry="23.121" transform="translate(6.242 5.31)" fill="#c7ddeb"/>
          <path id="Trazado_50997" data-name="Trazado 50997" d="M766.248,1667.138c-13.361,0-24.231-11.275-24.231-25.134s10.87-25.135,24.231-25.135,24.231,11.275,24.231,25.135S779.609,1667.138,766.248,1667.138Zm0-47.513c-11.842,0-21.476,10.039-21.476,22.379s9.634,22.379,21.476,22.379,21.476-10.039,21.476-22.379S778.09,1619.625,766.248,1619.625Z" transform="translate(-742.017 -1616.869)" fill="#3d4451"/>
        </g>
        <rect id="Rectángulo_4950" data-name="Rectángulo 4950" width="14.417" height="1.929" transform="translate(60.096 30.548) rotate(-32.97)" fill="#3d4451"/>
        <rect id="Rectángulo_4951" data-name="Rectángulo 4951" width="14.429" height="1.929" transform="translate(5.997 64.041) rotate(-32.421)" fill="#3d4451"/>
        <rect id="Rectángulo_4952" data-name="Rectángulo 4952" width="1.929" height="17.043" transform="matrix(0.579, -0.816, 0.816, 0.579, 58.259, 56.051)" fill="#3d4451"/>
        <rect id="Rectángulo_4953" data-name="Rectángulo 4953" width="1.929" height="13.254" transform="matrix(0.527, -0.85, 0.85, 0.527, 6.006, 23.787)" fill="#3d4451"/>
      </g>
      <g id="Grupo_19907" data-name="Grupo 19907" transform="translate(650.641 1536.087)">
        <g id="Grupo_19906" data-name="Grupo 19906" transform="translate(0 0)">
          <path id="Trazado_50998" data-name="Trazado 50998" d="M777.044,1669.571h-.025l-1.563.773-.315-1.494,2.169-1.049H778.9v8.519h-1.853Z" transform="translate(-771.755 -1667.658)" fill="#3d4451"/>
          <path id="Trazado_50999" data-name="Trazado 50999" d="M810.813,1671.494c0,2.634-1.021,4.443-3.114,4.443-2.118,0-3.051-1.979-3.064-4.391,0-2.464,1.009-4.417,3.127-4.417C809.956,1667.13,810.813,1669.161,810.813,1671.494Zm-4.249.052c-.013,1.953.441,2.883,1.185,2.883s1.147-.97,1.147-2.91c0-1.887-.391-2.883-1.16-2.883C807.03,1668.637,806.551,1669.568,806.564,1671.547Z" transform="translate(-794.921 -1667.13)" fill="#3d4451"/>
          <path id="Trazado_51000" data-name="Trazado 51000" d="M842.262,1669.571h-.025l-1.563.773-.315-1.494,2.169-1.049h1.589v8.519h-1.854Z" transform="translate(-822.979 -1667.658)" fill="#3d4451"/>
          <path id="Trazado_51001" data-name="Trazado 51001" d="M874.872,1669.571h-.025l-1.563.773-.315-1.494,2.169-1.049h1.589v8.519h-1.853Z" transform="translate(-848.593 -1667.658)" fill="#3d4451"/>
          <path id="Trazado_51002" data-name="Trazado 51002" d="M908.641,1671.494c0,2.634-1.021,4.443-3.114,4.443-2.118,0-3.051-1.979-3.064-4.391,0-2.464,1.009-4.417,3.127-4.417C907.784,1667.13,908.641,1669.161,908.641,1671.494Zm-4.249.052c-.013,1.953.441,2.883,1.185,2.883s1.147-.97,1.147-2.91c0-1.887-.391-2.883-1.16-2.883C904.858,1668.637,904.379,1669.568,904.392,1671.547Z" transform="translate(-871.759 -1667.13)" fill="#3d4451"/>
          <path id="Trazado_51003" data-name="Trazado 51003" d="M765.542,1722.042c0,2.634-1.021,4.443-3.114,4.443-2.118,0-3.051-1.979-3.064-4.391,0-2.464,1.008-4.417,3.127-4.417C764.685,1717.677,765.542,1719.708,765.542,1722.042Zm-4.249.052c-.013,1.953.441,2.884,1.185,2.884s1.147-.97,1.147-2.91c0-1.887-.391-2.883-1.16-2.883C761.759,1719.184,761.28,1720.115,761.293,1722.094Z" transform="translate(-759.364 -1706.831)" fill="#3d4451"/>
          <path id="Trazado_51004" data-name="Trazado 51004" d="M796.991,1720.118h-.025l-1.563.774-.315-1.494,2.169-1.049h1.589v8.519h-1.854Z" transform="translate(-787.422 -1707.359)" fill="#3d4451"/>
          <path id="Trazado_51005" data-name="Trazado 51005" d="M830.76,1722.042c0,2.634-1.021,4.443-3.114,4.443-2.118,0-3.051-1.979-3.064-4.391,0-2.464,1.009-4.417,3.127-4.417C829.9,1717.677,830.76,1719.708,830.76,1722.042Zm-4.249.052c-.013,1.953.441,2.884,1.185,2.884s1.147-.97,1.147-2.91c0-1.887-.391-2.883-1.16-2.883C826.978,1719.184,826.5,1720.115,826.511,1722.094Z" transform="translate(-810.588 -1706.831)" fill="#3d4451"/>
          <path id="Trazado_51006" data-name="Trazado 51006" d="M862.21,1720.118h-.025l-1.563.774-.315-1.494,2.169-1.049h1.589v8.519H862.21Z" transform="translate(-838.647 -1707.359)" fill="#3d4451"/>
          <path id="Trazado_51007" data-name="Trazado 51007" d="M894.819,1720.118h-.025l-1.563.774-.315-1.494,2.169-1.049h1.589v8.519h-1.853Z" transform="translate(-864.26 -1707.359)" fill="#3d4451"/>
          <path id="Trazado_51008" data-name="Trazado 51008" d="M928.589,1722.042c0,2.634-1.021,4.443-3.114,4.443-2.118,0-3.051-1.979-3.064-4.391,0-2.464,1.008-4.417,3.127-4.417C927.732,1717.677,928.589,1719.708,928.589,1722.042Zm-4.249.052c-.013,1.953.441,2.884,1.185,2.884s1.147-.97,1.147-2.91c0-1.887-.391-2.883-1.16-2.883C924.806,1719.184,924.327,1720.115,924.34,1722.094Z" transform="translate(-887.427 -1706.831)" fill="#3d4451"/>
          <path id="Trazado_51009" data-name="Trazado 51009" d="M793.64,1772.589c0,2.634-1.021,4.443-3.114,4.443-2.118,0-3.051-1.979-3.064-4.391,0-2.464,1.009-4.417,3.127-4.417C792.783,1768.225,793.64,1770.256,793.64,1772.589Zm-4.249.052c-.013,1.953.441,2.883,1.185,2.883s1.147-.97,1.147-2.91c0-1.887-.391-2.884-1.16-2.884C789.858,1769.732,789.378,1770.663,789.391,1772.642Z" transform="translate(-781.433 -1746.534)" fill="#3d4451"/>
          <path id="Trazado_51010" data-name="Trazado 51010" d="M825.09,1770.666h-.025l-1.563.773-.315-1.494,2.169-1.048h1.589v8.519H825.09Z" transform="translate(-809.492 -1747.061)" fill="#3d4451"/>
          <path id="Trazado_51011" data-name="Trazado 51011" d="M858.859,1772.589c0,2.634-1.021,4.443-3.114,4.443-2.118,0-3.051-1.979-3.064-4.391,0-2.464,1.009-4.417,3.127-4.417C858,1768.225,858.859,1770.256,858.859,1772.589Zm-4.249.052c-.013,1.953.441,2.883,1.185,2.883s1.147-.97,1.147-2.91c0-1.887-.391-2.884-1.16-2.884C855.077,1769.732,854.6,1770.663,854.61,1772.642Z" transform="translate(-832.658 -1746.534)" fill="#3d4451"/>
          <path id="Trazado_51012" data-name="Trazado 51012" d="M891.468,1772.589c0,2.634-1.021,4.443-3.114,4.443-2.118,0-3.051-1.979-3.064-4.391,0-2.464,1.009-4.417,3.127-4.417C890.611,1768.225,891.468,1770.256,891.468,1772.589Zm-4.249.052c-.013,1.953.441,2.883,1.185,2.883s1.147-.97,1.147-2.91c0-1.887-.391-2.884-1.16-2.884C887.686,1769.732,887.206,1770.663,887.219,1772.642Z" transform="translate(-858.271 -1746.534)" fill="#3d4451"/>
        </g>
      </g>
      <g id="Grupo_19910" data-name="Grupo 19910" transform="translate(699.408 1568.075)">
        <g id="Grupo_19908" data-name="Grupo 19908" transform="translate(0 4.091)">
          <path id="Trazado_51013" data-name="Trazado 51013" d="M989.748,1835.28v4.551c0,1.771,4.525,3.207,10.107,3.207s10.108-1.436,10.108-3.207v-4.551" transform="translate(-989.083 -1835.28)" fill="#7eb9c7"/>
          <path id="Trazado_51014" data-name="Trazado 51014" d="M997.421,1843.7c-5.353,0-10.772-1.33-10.772-3.872v-4.551h1.33v4.551c0,1.036,3.679,2.542,9.443,2.542s9.443-1.506,9.443-2.542v-4.551h1.33v4.551C1008.194,1842.372,1002.774,1843.7,997.421,1843.7Z" transform="translate(-986.649 -1835.279)" fill="#3d4451"/>
        </g>
        <g id="Grupo_19909" data-name="Grupo 19909" transform="translate(0 0)">
          <ellipse id="Elipse_1125" data-name="Elipse 1125" cx="10.107" cy="3.207" rx="10.107" ry="3.207" transform="translate(0.665 0.665)" fill="#7eb9c7"/>
          <path id="Trazado_51015" data-name="Trazado 51015" d="M997.421,1823.955c-5.353,0-10.772-1.33-10.772-3.872s5.419-3.872,10.772-3.872,10.772,1.33,10.772,3.872S1002.774,1823.955,997.421,1823.955Zm0-6.415c-5.764,0-9.443,1.506-9.443,2.543s3.679,2.542,9.443,2.542,9.443-1.506,9.443-2.542S1003.186,1817.541,997.421,1817.541Z" transform="translate(-986.649 -1816.211)" fill="#3d4451"/>
        </g>
      </g>
      <g id="Grupo_19913" data-name="Grupo 19913" transform="translate(699.408 1523.822)">
        <g id="Grupo_19911" data-name="Grupo 19911" transform="translate(0 3.605)">
          <path id="Trazado_51016" data-name="Trazado 51016" d="M989.748,1626.771v4.551c0,1.771,4.525,3.207,10.107,3.207s10.108-1.436,10.108-3.207v-4.551" transform="translate(-989.083 -1626.771)" fill="#fdc345"/>
          <path id="Trazado_51017" data-name="Trazado 51017" d="M997.421,1635.194c-5.353,0-10.772-1.33-10.772-3.872v-4.551h1.33v4.551c0,1.037,3.679,2.542,9.443,2.542s9.443-1.506,9.443-2.542v-4.551h1.33v4.551C1008.194,1633.864,1002.774,1635.194,997.421,1635.194Z" transform="translate(-986.649 -1626.771)" fill="#3d4451"/>
        </g>
        <g id="Grupo_19912" data-name="Grupo 19912" transform="translate(0 0)">
          <ellipse id="Elipse_1126" data-name="Elipse 1126" cx="10.107" cy="2.964" rx="10.107" ry="2.964" transform="translate(0.665 0.665)" fill="#fdc345"/>
          <path id="Trazado_51018" data-name="Trazado 51018" d="M997.421,1617.227c-5.353,0-10.772-1.247-10.772-3.629s5.419-3.629,10.772-3.629,10.772,1.246,10.772,3.629S1002.774,1617.227,997.421,1617.227Zm0-5.928c-6.11,0-9.443,1.519-9.443,2.3s3.333,2.3,9.443,2.3,9.443-1.519,9.443-2.3S1003.531,1611.3,997.421,1611.3Z" transform="translate(-986.649 -1609.969)" fill="#3d4451"/>
        </g>
      </g>
      <g id="Grupo_19916" data-name="Grupo 19916" transform="translate(620.94 1567.623)">
        <g id="Grupo_19914" data-name="Grupo 19914" transform="translate(0 4.092)">
          <path id="Trazado_51019" data-name="Trazado 51019" d="M624.039,1833.173v4.551c0,1.771,4.525,3.207,10.107,3.207s10.107-1.436,10.107-3.207v-4.551" transform="translate(-623.374 -1833.173)" fill="#7eb9c7"/>
          <path id="Trazado_51020" data-name="Trazado 51020" d="M631.712,1841.6c-5.353,0-10.772-1.33-10.772-3.872v-4.55h1.33v4.55c0,1.037,3.678,2.542,9.443,2.542s9.442-1.506,9.442-2.542v-4.55h1.33v4.55C642.485,1840.266,637.065,1841.6,631.712,1841.6Z" transform="translate(-620.94 -1833.174)" fill="#3d4451"/>
        </g>
        <g id="Grupo_19915" data-name="Grupo 19915" transform="translate(0 0)">
          <ellipse id="Elipse_1127" data-name="Elipse 1127" cx="10.107" cy="3.207" rx="10.107" ry="3.207" transform="translate(0.665 0.665)" fill="#7eb9c7"/>
          <path id="Trazado_51021" data-name="Trazado 51021" d="M631.712,1821.849c-5.353,0-10.772-1.33-10.772-3.872s5.419-3.872,10.772-3.872,10.772,1.33,10.772,3.872S637.065,1821.849,631.712,1821.849Zm0-6.415c-5.764,0-9.443,1.506-9.443,2.542s3.678,2.543,9.443,2.543,9.442-1.506,9.442-2.543S637.477,1815.434,631.712,1815.434Z" transform="translate(-620.94 -1814.104)" fill="#3d4451"/>
        </g>
      </g>
      <g id="Grupo_19919" data-name="Grupo 19919" transform="translate(620.94 1523.37)">
        <g id="Grupo_19917" data-name="Grupo 19917" transform="translate(0 3.605)">
          <path id="Trazado_51022" data-name="Trazado 51022" d="M624.039,1624.665v4.551c0,1.771,4.525,3.207,10.107,3.207s10.107-1.436,10.107-3.207v-4.551" transform="translate(-623.374 -1624.665)" fill="#fdc345"/>
          <path id="Trazado_51023" data-name="Trazado 51023" d="M631.712,1633.088c-5.353,0-10.772-1.33-10.772-3.872v-4.551h1.33v4.551c0,1.037,3.678,2.542,9.443,2.542s9.442-1.506,9.442-2.542v-4.551h1.33v4.551C642.485,1631.758,637.065,1633.088,631.712,1633.088Z" transform="translate(-620.94 -1624.665)" fill="#3d4451"/>
        </g>
        <g id="Grupo_19918" data-name="Grupo 19918" transform="translate(0 0)">
          <ellipse id="Elipse_1128" data-name="Elipse 1128" cx="10.107" cy="2.964" rx="10.107" ry="2.964" transform="translate(0.665 0.665)" fill="#fdc345"/>
          <path id="Trazado_51024" data-name="Trazado 51024" d="M631.712,1615.12c-5.353,0-10.772-1.246-10.772-3.629s5.419-3.629,10.772-3.629,10.772,1.247,10.772,3.629S637.065,1615.12,631.712,1615.12Zm0-5.928c-6.11,0-9.443,1.519-9.443,2.3s3.333,2.3,9.443,2.3,9.442-1.519,9.442-2.3S637.822,1609.192,631.712,1609.192Z" transform="translate(-620.94 -1607.862)" fill="#3d4451"/>
        </g>
      </g>
      <g id="Grupo_19922" data-name="Grupo 19922" transform="translate(660.718 1500.289)">
        <g id="Grupo_19920" data-name="Grupo 19920" transform="translate(0 4.091)">
          <path id="Trazado_51025" data-name="Trazado 51025" d="M809.426,1519.357v4.551c0,1.771,4.525,3.207,10.107,3.207s10.107-1.436,10.107-3.207v-4.551" transform="translate(-808.761 -1519.357)" fill="#f04f4c"/>
          <path id="Trazado_51026" data-name="Trazado 51026" d="M817.1,1527.78c-5.353,0-10.772-1.33-10.772-3.872v-4.55h1.33v4.55c0,1.037,3.678,2.543,9.443,2.543s9.443-1.506,9.443-2.543v-4.55h1.33v4.55C827.872,1526.45,822.453,1527.78,817.1,1527.78Z" transform="translate(-806.328 -1519.357)" fill="#3d4451"/>
        </g>
        <g id="Grupo_19921" data-name="Grupo 19921">
          <ellipse id="Elipse_1129" data-name="Elipse 1129" cx="10.107" cy="3.207" rx="10.107" ry="3.207" transform="translate(0.665 0.665)" fill="#f04f4c"/>
          <path id="Trazado_51027" data-name="Trazado 51027" d="M817.1,1508.033c-5.353,0-10.772-1.33-10.772-3.872s5.419-3.872,10.772-3.872,10.772,1.33,10.772,3.872S822.453,1508.033,817.1,1508.033Zm0-6.415c-5.764,0-9.443,1.506-9.443,2.542s3.678,2.543,9.443,2.543,9.443-1.506,9.443-2.543S822.864,1501.619,817.1,1501.619Z" transform="translate(-806.328 -1500.289)" fill="#3d4451"/>
        </g>
      </g>
      <g id="Grupo_19925" data-name="Grupo 19925" transform="translate(660.718 1587.507)">
        <g id="Grupo_19923" data-name="Grupo 19923" transform="translate(0 4.092)">
          <path id="Trazado_51028" data-name="Trazado 51028" d="M809.426,1925.844v4.551c0,1.771,4.525,3.207,10.107,3.207s10.107-1.436,10.107-3.207v-4.551" transform="translate(-808.761 -1925.844)" fill="#f04f4c"/>
          <path id="Trazado_51029" data-name="Trazado 51029" d="M817.1,1934.267c-5.353,0-10.772-1.33-10.772-3.872v-4.551h1.33v4.551c0,1.037,3.678,2.542,9.443,2.542s9.443-1.506,9.443-2.542v-4.551h1.33v4.551C827.872,1932.937,822.453,1934.267,817.1,1934.267Z" transform="translate(-806.328 -1925.844)" fill="#3d4451"/>
        </g>
        <g id="Grupo_19924" data-name="Grupo 19924" transform="translate(0 0)">
          <ellipse id="Elipse_1130" data-name="Elipse 1130" cx="10.107" cy="3.207" rx="10.107" ry="3.207" transform="translate(0.665 0.665)" fill="#f04f4c"/>
          <path id="Trazado_51030" data-name="Trazado 51030" d="M817.1,1914.519c-5.353,0-10.772-1.33-10.772-3.872s5.419-3.872,10.772-3.872,10.772,1.33,10.772,3.872S822.453,1914.519,817.1,1914.519Zm0-6.414c-5.764,0-9.443,1.506-9.443,2.542s3.678,2.542,9.443,2.542,9.443-1.506,9.443-2.542S822.864,1908.1,817.1,1908.1Z" transform="translate(-806.328 -1906.775)" fill="#3d4451"/>
        </g>
      </g>
    </g>
  </g>
</svg>
