<svg xmlns="http://www.w3.org/2000/svg" width="153" height="153" viewBox="0 0 153 153">
  <g id="Grupo_21282" data-name="Grupo 21282" transform="translate(-477 -2200)">
    <g id="Elipse_1115" data-name="Elipse 1115" transform="translate(477 2200)" fill="#fff" stroke="#fec558" stroke-width="1">
      <circle cx="76.5" cy="76.5" r="76.5" stroke="none"/>
      <circle cx="76.5" cy="76.5" r="76" fill="none"/>
    </g>
    <g id="Grupo_19902" data-name="Grupo 19902" transform="translate(-2083.656 702.29)">
      <path id="Trazado_50982" data-name="Trazado 50982" d="M2629.412,1657.79l-2.167-1.2,10.731-19.316,5.464,5.712,9.552-16.841,5.645,7.854,11.207-21.916,5.605,8.662,6.881-10.106,2.049,1.395-8.982,13.193-5.3-8.192-11.1,21.708-5.757-8.009-9.286,16.373-5.442-5.69Z" transform="translate(-32.6 -70.807)" fill="#3d4451"/>
      <g id="Grupo_19899" data-name="Grupo 19899" transform="translate(2585.656 1520.306)">
        <ellipse id="Elipse_1121" data-name="Elipse 1121" cx="33.788" cy="3.949" rx="33.788" ry="3.949" transform="translate(0 87.144)" fill="#7eb9c7"/>
        <g id="Grupo_19897" data-name="Grupo 19897" transform="translate(6.729 36.739)">
          <g id="Grupo_19896" data-name="Grupo 19896">
            <g id="Grupo_19892" data-name="Grupo 19892" transform="translate(42.912)">
              <rect id="Rectángulo_4940" data-name="Rectángulo 4940" width="11.649" height="50.811" transform="translate(1.081 1.081)" fill="#fdc345"/>
              <path id="Trazado_50983" data-name="Trazado 50983" d="M2829.14,1743.258h-13.811v-52.973h13.811Zm-11.65-2.161h9.488v-48.65h-9.488Z" transform="translate(-2815.329 -1690.285)" fill="#3d4451"/>
            </g>
            <g id="Grupo_19893" data-name="Grupo 19893" transform="translate(27.412 12.889)">
              <rect id="Rectángulo_4941" data-name="Rectángulo 4941" width="10.485" height="37.923" transform="translate(1.081 1.081)" fill="#f04f4c"/>
              <path id="Trazado_50984" data-name="Trazado 50984" d="M2756.265,1790h-12.647v-40.084h12.647Zm-10.485-2.161h8.324v-35.761h-8.324Z" transform="translate(-2743.618 -1749.917)" fill="#3d4451"/>
            </g>
            <g id="Grupo_19894" data-name="Grupo 19894" transform="translate(0 35.412)">
              <rect id="Rectángulo_4942" data-name="Rectángulo 4942" width="8.518" height="15.615" transform="translate(0.864 0.865)" fill="#c7ddeb"/>
              <path id="Trazado_50985" data-name="Trazado 50985" d="M2627.037,1871.471H2616.79v-17.344h10.247Zm-8.518-1.729h6.789v-13.886h-6.789Z" transform="translate(-2616.79 -1854.127)" fill="#3d4451"/>
            </g>
            <g id="Grupo_19895" data-name="Grupo 19895" transform="translate(13.51 23.506)">
              <rect id="Rectángulo_4943" data-name="Rectángulo 4943" width="9.553" height="27.522" transform="translate(0.865 0.865)" fill="#7eb9c7"/>
              <path id="Trazado_50986" data-name="Trazado 50986" d="M2690.579,1828.29H2679.3v-29.251h11.282Zm-9.553-1.729h7.824v-25.793h-7.824Z" transform="translate(-2679.297 -1799.039)" fill="#3d4451"/>
            </g>
          </g>
        </g>
        <g id="Grupo_19898" data-name="Grupo 19898" transform="translate(8.761 0)">
          <path id="Trazado_50987" data-name="Trazado 50987" d="M2698.2,1536.758a37.307,37.307,0,1,0,0,52.76A37.307,37.307,0,0,0,2698.2,1536.758Zm-4.327,48.433a31.187,31.187,0,1,1,0-44.106A31.188,31.188,0,0,1,2693.873,1585.191Z" transform="translate(-2632.714 -1524.636)" fill="#c7ddeb"/>
          <path id="Trazado_50988" data-name="Trazado 50988" d="M2982.854,1880.2a3.6,3.6,0,0,1,.369,5l-3.389,3.39a3.6,3.6,0,0,1-5-.37l-12.893-12.893a3.5,3.5,0,0,1-.3-4.929l3.39-3.389a3.5,3.5,0,0,1,4.929.3Z" transform="translate(-2888.451 -1791.383)" fill="#c7ddeb"/>
          <path id="Trazado_50989" data-name="Trazado 50989" d="M2664.709,1597.326a38.488,38.488,0,1,1,27.237-11.264A38.4,38.4,0,0,1,2664.709,1597.326Zm0-74.6a36.1,36.1,0,1,0,25.523,10.572A35.859,35.859,0,0,0,2664.709,1522.73Z" transform="translate(-2626.19 -1520.306)" fill="#3d4451"/>
          <path id="Trazado_50990" data-name="Trazado 50990" d="M2687.83,1614.09a32.143,32.143,0,1,1,22.74-9.4A32.058,32.058,0,0,1,2687.83,1614.09Zm0-62.458a30.315,30.315,0,1,0,21.446,8.869A30.231,30.231,0,0,0,2687.83,1551.631Z" transform="translate(-2649.311 -1543.427)" fill="#3d4451"/>
          <path id="Trazado_50991" data-name="Trazado 50991" d="M2926.565,1815.5l-10.46-10.459,6.708-6.708,10.46,10.459Zm-8.381-10.459,8.381,8.381,4.629-4.629-8.381-8.381Z" transform="translate(-2853.444 -1738.241)" fill="#3d4451"/>
          <path id="Trazado_50992" data-name="Trazado 50992" d="M2977.467,1868.286c-.065,0-.129,0-.195,0a4.557,4.557,0,0,1-3.03-1.341l-12.893-12.892a4.4,4.4,0,0,1-1.307-3.008,4.031,4.031,0,0,1,1.175-2.986l3.639-3.639a4.042,4.042,0,0,1,2.986-1.176,4.4,4.4,0,0,1,3.007,1.307l12.893,12.892a4.559,4.559,0,0,1,1.34,3.031,3.979,3.979,0,0,1-1.141,3.031l-3.639,3.639A3.958,3.958,0,0,1,2977.467,1868.286Zm-9.735-23.783a2.773,2.773,0,0,0-1.982.807l-3.639,3.639a2.777,2.777,0,0,0-.806,2.059,3.144,3.144,0,0,0,.938,2.146l12.892,12.893a3.343,3.343,0,0,0,2.192.971,2.74,2.74,0,0,0,2.083-.772l3.639-3.639a2.73,2.73,0,0,0,.772-2.082,3.344,3.344,0,0,0-.971-2.192l-12.893-12.892a3.144,3.144,0,0,0-2.146-.937Z" transform="translate(-2887.883 -1773.443)" fill="#3d4451"/>
          <path id="Trazado_50993" data-name="Trazado 50993" d="M2975.582,1866.921c-.072,0-.145,0-.218,0a5.076,5.076,0,0,1-3.375-1.492l-12.893-12.893a4.921,4.921,0,0,1-1.459-3.362,4.544,4.544,0,0,1,1.328-3.366l3.639-3.639a4.564,4.564,0,0,1,3.366-1.328,4.921,4.921,0,0,1,3.362,1.459l12.893,12.893a5.077,5.077,0,0,1,1.492,3.376,4.5,4.5,0,0,1-1.293,3.421l-3.639,3.639A4.471,4.471,0,0,1,2975.582,1866.921Zm-9.735-23.783a2.256,2.256,0,0,0-1.614.655l-3.64,3.639a2.261,2.261,0,0,0-.654,1.678,2.629,2.629,0,0,0,.785,1.792l12.893,12.893a2.815,2.815,0,0,0,1.846.82,2.223,2.223,0,0,0,1.692-.62l3.639-3.639a2.218,2.218,0,0,0,.621-1.693,2.818,2.818,0,0,0-.82-1.847l-12.893-12.893a2.625,2.625,0,0,0-1.792-.785Z" transform="translate(-2885.998 -1771.558)" fill="#3d4451"/>
          <path id="Trazado_50994" data-name="Trazado 50994" d="M2991.358,1892.109a.63.63,0,0,1-.447-.185l-12.093-12.093a.632.632,0,0,1,.894-.894l12.093,12.093a.632.632,0,0,1-.447,1.078Z" transform="translate(-2902.458 -1801.28)" fill="#3d4451"/>
        </g>
      </g>
      <g id="Grupo_19900" data-name="Grupo 19900" transform="translate(2645.906 1538.654)">
        <circle id="Elipse_1122" data-name="Elipse 1122" cx="2.726" cy="2.726" r="2.726" transform="translate(0 3.856) rotate(-45)" fill="#f04f4c"/>
        <path id="Trazado_50995" data-name="Trazado 50995" d="M2868.322,1612.947a3.842,3.842,0,1,1,3.842-3.842A3.846,3.846,0,0,1,2868.322,1612.947Zm0-5.453a1.611,1.611,0,1,0,1.611,1.611A1.613,1.613,0,0,0,2868.322,1607.494Z" transform="translate(-2864.466 -1605.249)" fill="#3d4451"/>
      </g>
      <g id="Grupo_19901" data-name="Grupo 19901" transform="translate(2592.506 1582.416)">
        <circle id="Elipse_1123" data-name="Elipse 1123" cx="2.726" cy="2.726" r="2.726" transform="translate(1.115 1.115)" fill="#f04f4c"/>
        <path id="Trazado_50996" data-name="Trazado 50996" d="M2621.191,1815.353a3.842,3.842,0,1,1,3.842-3.842A3.846,3.846,0,0,1,2621.191,1815.353Zm0-5.453a1.611,1.611,0,1,0,1.611,1.611A1.613,1.613,0,0,0,2621.191,1809.9Z" transform="translate(-2617.349 -1807.669)" fill="#3d4451"/>
      </g>
    </g>
  </g>
</svg>
