<svg xmlns="http://www.w3.org/2000/svg" width="132.473" height="132.473" viewBox="0 0 132.473 132.473">
  <g id="Grupo_20378" data-name="Grupo 20378" transform="translate(-341.001 -27.116)">
    <rect id="Rectángulo_5353" data-name="Rectángulo 5353" width="132.473" height="132.473" rx="10.008" transform="translate(341.001 27.117)" fill="#6dcce2"/>
    <g id="Grupo_20376" data-name="Grupo 20376">
      <path id="Trazado_51879" data-name="Trazado 51879" d="M365.221,106.733a17.652,17.652,0,0,0,.24,2.151l8.864.681s12.819,11.721,34.976,14.468c14.355,1.779,27.248-3.439,38.037-10.817a33.34,33.34,0,0,0,.882-18.773,6.739,6.739,0,0,0,5.752-3.531,6.818,6.818,0,0,0,5.847-2.726,1.494,1.494,0,1,0-2.35-1.847,3.86,3.86,0,0,1-2.577,1.565,9.083,9.083,0,0,0-.251-3.18c-.571-2.172-1.895-3.659-3.54-3.982a3.146,3.146,0,0,0-3.146,1.194c-.967,1.293-.95,3.133.049,5.064a7.323,7.323,0,0,0,2.981,3.033,4.489,4.489,0,0,1-4.123,1.307C436,70.245,408.014,69.775,392.014,76.036c-4.4-.654-13.275-1.078-20.823,2.315-1.154.519-.87,1.52-.283,2.642a16.446,16.446,0,0,0,7.368,7.433c-2.265,3-3.512,4.677-4.477,8.92a7.957,7.957,0,0,1-2.393,4.38,6.383,6.383,0,0,1-3.6,1.744C365.46,104.012,365.14,104.98,365.221,106.733Zm85.437-21.108c-.563-1.082-.449-1.714-.309-1.9.022-.035.057-.079.182-.056.291.058.877.5,1.216,1.8a6.106,6.106,0,0,1,.21,1.632A4.235,4.235,0,0,1,450.658,85.625Z" fill="#e94e70"/>
      <path id="Trazado_51880" data-name="Trazado 51880" d="M369.489,117.788a7.419,7.419,0,0,0,2.851,1.864,23.362,23.362,0,0,0,5.291.941,26.481,26.481,0,0,0,9.543,9.088,58.606,58.606,0,0,1-.341,8.969h10.4a2.828,2.828,0,0,0,2.578-1.336,25.112,25.112,0,0,0,2.256-4.563,68.292,68.292,0,0,0,16.573-.188,46.56,46.56,0,0,1-.625,6.087h10.367a3.791,3.791,0,0,0,3.235-1.735c5.548-6.758,12.482-14.247,15.717-23.7-10.789,7.378-23.682,12.6-38.037,10.817-22.157-2.747-34.976-14.468-34.976-14.468l-8.864-.681a21.446,21.446,0,0,0,1.768,5.567A12.4,12.4,0,0,0,369.489,117.788Z" fill="#db4a6a"/>
      <path id="Trazado_51881" data-name="Trazado 51881" d="M379.294,102.774a2.307,2.307,0,1,1,2.181-2.424A2.306,2.306,0,0,1,379.294,102.774Z" fill="#a2194b"/>
      <path id="Trazado_51882" data-name="Trazado 51882" d="M426.05,82.835a38.027,38.027,0,0,0-30.833.383L393.8,80.172a41.39,41.39,0,0,1,33.616-.41Z" fill="#a2194b"/>
    </g>
    <g id="Grupo_20377" data-name="Grupo 20377">
      <path id="Trazado_51883" data-name="Trazado 51883" d="M427.211,61.818A16.1,16.1,0,1,1,411,45.84,16.1,16.1,0,0,1,427.211,61.818Z" fill="#ffb733"/>
      <path id="Trazado_51884" data-name="Trazado 51884" d="M423.984,61.841a12.874,12.874,0,1,1-12.963-12.774A12.863,12.863,0,0,1,423.984,61.841Z" fill="#ffd55c"/>
      <path id="Trazado_51885" data-name="Trazado 51885" d="M410.174,60.629a6.031,6.031,0,0,1-1.284-.566,2.123,2.123,0,0,1-.7-.668,1.574,1.574,0,0,1-.236-.814,1.6,1.6,0,0,1,.3-1.011,2.168,2.168,0,0,1,.9-.692,3.8,3.8,0,0,1,1.384-.29,7.753,7.753,0,0,1,1.43.069,10.75,10.75,0,0,1,1.383.283l1.177.329a.237.237,0,0,0,.18-.016.343.343,0,0,0,.121-.152l.528-1.692a.2.2,0,0,0,0-.18.334.334,0,0,0-.168-.123l-1.286-.366c-.36-.1-.723-.181-1.087-.251s-.748-.117-1.133-.148l-.076-1.975a.256.256,0,0,0-.067-.178.27.27,0,0,0-.184-.055l-1.978.075a.222.222,0,0,0-.231.254l.076,2a5.633,5.633,0,0,0-2.082.787,3.678,3.678,0,0,0-1.309,1.425,4.015,4.015,0,0,0-.406,2.007,4.288,4.288,0,0,0,.425,1.822,3.514,3.514,0,0,0,1.217,1.317,8.89,8.89,0,0,0,2.193,1l2.5.827a6.667,6.667,0,0,1,1.131.486,2.679,2.679,0,0,1,.8.645,1.438,1.438,0,0,1,.322.851,1.878,1.878,0,0,1-.2.968,1.926,1.926,0,0,1-.62.682,3.11,3.11,0,0,1-.939.409,5.187,5.187,0,0,1-1.148.168,10.412,10.412,0,0,1-1.192-.019q-.573-.045-1.13-.146c-.375-.071-.759-.161-1.154-.273l-1.22-.349a.2.2,0,0,0-.179,0,.312.312,0,0,0-.125.143l-.5,1.714a.182.182,0,0,0,0,.18.328.328,0,0,0,.164.124l1.159.329c.564.163,1.09.3,1.6.394a9.756,9.756,0,0,0,1.508.187l.074,1.957a.219.219,0,0,0,.072.175.242.242,0,0,0,.178.056l2-.077a.259.259,0,0,0,.177-.07A.279.279,0,0,0,412.6,72l-.078-2a5.965,5.965,0,0,0,2.224-.818,3.869,3.869,0,0,0,1.38-1.512,4.328,4.328,0,0,0,.423-2.14,4.374,4.374,0,0,0-.278-1.445,3.121,3.121,0,0,0-.727-1.1,4.847,4.847,0,0,0-1.193-.854,11.977,11.977,0,0,0-1.7-.7Z" fill="#dd7e0b"/>
    </g>
  </g>
</svg>
