<svg xmlns="http://www.w3.org/2000/svg" width="217.581" height="141.722" viewBox="0 0 217.581 141.722">
  <g id="Grupo_21253" data-name="Grupo 21253" transform="translate(-3439.433 -1568)">
    <g id="Grupo_21252" data-name="Grupo 21252" transform="translate(3490.961 1574.028)">
      <ellipse id="Elipse_1180" data-name="Elipse 1180" cx="66.382" cy="9.137" rx="66.382" ry="9.137" transform="translate(0 117.421)" fill="#c7ddeb"/>
      <g id="Grupo_21251" data-name="Grupo 21251" transform="translate(0)">
        <path id="Trazado_52370" data-name="Trazado 52370" d="M3876.795,1664.251l4.347-14.966a2.624,2.624,0,0,0-2.58-3.318h-14.524a2.622,2.622,0,0,0-2.571,3.345l1.031,3.413" transform="translate(-3760.584 -1623.852)" fill="#fdc345"/>
        <path id="Trazado_52371" data-name="Trazado 52371" d="M3843.108,1784.427h-5.22c-16.337,0-28.731-13.057-25.949-27.337l2.61-13.4c2.182-11.2,13.135-19.381,25.949-19.381h0c12.813,0,23.767,8.181,25.949,19.381l2.61,13.4C3871.839,1771.37,3859.445,1784.427,3843.108,1784.427Z" transform="translate(-3728.755 -1673.917)" fill="#fdc345"/>
        <path id="Trazado_52372" data-name="Trazado 52372" d="M3823.372,1772.083h-5.654a31.131,31.131,0,0,1-24.192-10.994,25.519,25.519,0,0,1-5.648-21.349l2.827-14.824c2.528-13.256,15.079-22.878,29.84-22.878s27.312,9.622,29.84,22.878l2.827,14.824a25.517,25.517,0,0,1-5.648,21.349A31.13,31.13,0,0,1,3823.372,1772.083Zm-2.827-66.521c-13.073,0-24.167,8.417-26.38,20.015l-2.827,14.824a22.056,22.056,0,0,0,4.9,18.443,27.622,27.622,0,0,0,21.478,9.716h5.654a27.619,27.619,0,0,0,21.478-9.716,22.055,22.055,0,0,0,4.9-18.443l-2.827-14.824C3844.713,1713.979,3833.619,1705.562,3820.546,1705.562Z" transform="translate(-3713.335 -1659.684)" fill="#3d4451"/>
        <g id="Grupo_21246" data-name="Grupo 21246" transform="translate(98.2 61.118)">
          <path id="Trazado_52373" data-name="Trazado 52373" d="M3865.293,1781.756v3.733h-2.931v-3.631a18.618,18.618,0,0,1-7.589-1.583v-4.766a12.51,12.51,0,0,0,3.473,1.5,18.3,18.3,0,0,0,4.116.792v-6.264q-4.7-1.5-6.415-3.243a5.992,5.992,0,0,1,.512-8.861,10.161,10.161,0,0,1,5.9-2.211v-3.2h2.931v3.132a16.986,16.986,0,0,1,6.325,1.17v4.646a16.976,16.976,0,0,0-6.325-1.789v6.521a16.863,16.863,0,0,1,6.3,3.106,5.52,5.52,0,0,1,1.908,4.223,5.662,5.662,0,0,1-2.128,4.6A11.1,11.1,0,0,1,3865.293,1781.756Zm-2.931-15.056v-5.454q-2.791.43-2.791,2.495Q3859.572,1765.513,3862.362,1766.7Zm2.931,5.816v5.213q2.872-.378,2.872-2.46Q3868.165,1773.582,3865.293,1772.516Z" transform="translate(-3854.231 -1754.019)" fill="#3d4451"/>
        </g>
        <path id="Trazado_52374" data-name="Trazado 52374" d="M3862.122,1653.941l-2.93-.851,5.178-17.826h-19.332l1.615,5.342-2.92.883-2.8-9.276h27.5Z" transform="translate(-3747.53 -1615.063)" fill="#3d4451"/>
        <g id="Grupo_21247" data-name="Grupo 21247" transform="translate(95.747 39.134)">
          <rect id="Rectángulo_5504" data-name="Rectángulo 5504" width="19.441" height="5.523" rx="2.762" transform="translate(1.252 1.253)" fill="#f04f4c"/>
          <path id="Trazado_52375" data-name="Trazado 52375" d="M3865.82,1701.144H3851a3.566,3.566,0,0,1-3.562-3.562v-.9a3.566,3.566,0,0,1,3.562-3.562h14.822a3.566,3.566,0,0,1,3.562,3.562v.9A3.565,3.565,0,0,1,3865.82,1701.144ZM3851,1695.621a1.058,1.058,0,0,0-1.057,1.057v.9a1.058,1.058,0,0,0,1.057,1.057h14.822a1.058,1.058,0,0,0,1.057-1.057v-.9a1.058,1.058,0,0,0-1.057-1.057Z" transform="translate(-3847.436 -1693.116)" fill="#3d4451"/>
        </g>
        <g id="Grupo_21250" data-name="Grupo 21250">
          <g id="Grupo_21249" data-name="Grupo 21249" transform="translate(24.15)">
            <g id="Grupo_21248" data-name="Grupo 21248">
              <path id="Trazado_52376" data-name="Trazado 52376" d="M3664.871,1617.961a16.642,16.642,0,1,0-15.761-15.746A16.643,16.643,0,0,0,3664.871,1617.961Z" transform="translate(-3649.087 -1584.7)" fill="#3d4451"/>
            </g>
          </g>
          <path id="Trazado_52377" data-name="Trazado 52377" d="M3605.773,1711.874l-8.242,20.327c-1.4,3.984-6.218,5.824-10.089,4.448a8.4,8.4,0,0,1-4.846-4.663c-.98-2.364-.006-5.031.725-7.361l7.936-25.271c2.239-7.13,4.6-15.309,10.052-20.735,5.077-5.053,11.824-8.71,19.121-8.71,3.085,0,15.535-.041,22.536.4,0,0,36.726-9.39,38.891-9.748a9.258,9.258,0,0,1,6.366,1,5.694,5.694,0,0,1,2.6,3.5,7.653,7.653,0,0,1-1.892,6.809c-3.263,3.6-8.625,5-13.02,6.634l-15.641,5.806c-3.156,1.172-6.31,1.874-8.552,4.531a19.1,19.1,0,0,0-3.644,7.453,52.983,52.983,0,0,0-1.325,10.693c-.623,11.239-1.55,22.513-1.544,33.757,0,5.349.17,10.7.172,16.047a8.2,8.2,0,0,1-6.88,8.161,8.115,8.115,0,0,1-9.31-8.005v-28h-7.439v26.954a8.21,8.21,0,0,1-6.856,8.177,8.116,8.116,0,0,1-9.334-8v-44.194" transform="translate(-3582.183 -1633.072)" fill="#3d4451"/>
          <path id="Trazado_52378" data-name="Trazado 52378" d="M3692.32,1703.787l2.874-7.467h-8.941l2.874,7.467-3.513,18.471,5.109,8.253,5.109-8.253Z" transform="translate(-3648.279 -1656.029)" fill="#f04f4c"/>
        </g>
      </g>
    </g>
    <path id="Trazado_52379" data-name="Trazado 52379" d="M3451.733,1787.181l-2.747,3.863,9.163.935.583.414.236-.331,10.945,1.117-8.885-19.066-3.75,5.271c-8.987-8.533-10.805-22.271-3.727-32.224a23.734,23.734,0,0,1,14.535-9.444l4.738-1-2.421-9.43-4.738,1a32.981,32.981,0,0,0-20.2,13.124C3435.348,1755.633,3438.307,1775.421,3451.733,1787.181Z" transform="translate(0 -101.792)" fill="#f04f4c"/>
    <path id="Trazado_52380" data-name="Trazado 52380" d="M3946.405,1581.8l1.3.683c9.44,4.973,14.523,15.089,12.649,25.173a22.712,22.712,0,0,1-7.558,13.122l-3.53,3.06,6.492,6.871,3.53-3.06a31.567,31.567,0,0,0,10.509-18.238c2.6-14.01-4.461-28.066-17.58-34.977l-4.043-2.13.8-4.305-19.244,6.65,15.569,13.12Z" transform="translate(-313.313)" fill="#7eb9c7"/>
  </g>
</svg>
