<svg xmlns="http://www.w3.org/2000/svg" width="324.438" height="322.352" viewBox="0 0 324.438 322.352">
  <g id="Grupo_21268" data-name="Grupo 21268" transform="translate(-288.159 -283.562)">
    <path id="Trazado_52395" data-name="Trazado 52395" d="M710.7,469.811c17.418,34.2,19.63,69.745,9,111.191-9.917,38.676-84.274,152.441-222.028,99.986-106.161-40.425-85.492-165.241-55.038-177.372,16.115-6.42-31.032,49.3,43.186,88.074s150.18.669,154.708-45.919-69.344-80.114-107.4-74.454-50.827-73.7,54.655-73.7C640.216,397.616,691.917,432.935,710.7,469.811Z" transform="translate(-113.545 -99.676)" fill="#dfeef2"/>
    <path id="Trazado_52396" data-name="Trazado 52396" d="M584.509,763.223l9.385-11.7-57.619-11.79,17.576,61.715,8.438-10.521q2.652,3.6,6.014,7.583c39.146,46.247-13.426,146.644-105.23,158.962S308.969,936.438,288.159,847.9c0,0,20.284,124.086,133.334,127.808C532.195,979.355,641.787,899.82,584.509,763.223Z" transform="translate(0 -398.662)" fill="#f8d24a"/>
    <path id="Trazado_52397" data-name="Trazado 52397" d="M1500,2098.751l-6.224-48.653-86.79.638v44.849Z" transform="translate(-977.774 -1543.832)" fill="#3c79a6"/>
    <path id="Trazado_52398" data-name="Trazado 52398" d="M1082.178,944.033c-3.581,2.057-8.16,3.769-11.662,1.581a8.178,8.178,0,0,1-3.47-6.077,19.018,19.018,0,0,1,.872-7.142c5.053-18.31,38.327-58.061,52.668-72.511,6.311-6.359,14.313,33.657,12.65,38.723C1131.551,903.738,1098.791,934.492,1082.178,944.033Z" transform="translate(-680.627 -503.071)" fill="#2d6c9c"/>
    <path id="Trazado_52399" data-name="Trazado 52399" d="M885.023,902.729c-1.709-2.29-3.89-4.818-6.745-4.691-2.409.107-4.355,2.226-5.025,4.543-.2.7,1.553,8.851,3.894,17.751l14.641-5.845A109.088,109.088,0,0,0,885.023,902.729Z" transform="translate(-511.318 -537.006)" fill="#d5e5fd"/>
    <path id="Trazado_52400" data-name="Trazado 52400" d="M899.366,1028.543l-17.458,5.2c5.372,20.425,18.137,52.634,25.238,58.485,5.131,4.228,10.778,2.424,14.79-1.975C926.292,1085.477,909.79,1048.526,899.366,1028.543Z" transform="translate(-518.896 -651.063)" fill="#2d6c9c"/>
    <path id="Trazado_52401" data-name="Trazado 52401" d="M1353.8,824.968c-1.055-7.245-2.592-16.174,1.643-22.439,3.8-5.622,20.206-27.747,42.119-27.747,31.238,0,46.993,21.835,54.7,31.242,3.141,19.028-3.824,41.51-9.5,59.708-5.68,18.226-2.642,65.614,3.577,84.058h-91.093C1355.487,932.911,1355.875,839.221,1353.8,824.968Z" transform="translate(-930.28 -429.293)" fill="#3c79a6"/>
    <path id="Trazado_52402" data-name="Trazado 52402" d="M1914.826,930.814c-2.981-.889-23.974.447-18.371,15.374,6.954,18.53,20.853,33.622,32.453,49.657,3.564,4.927,7.183,9.912,11.881,13.773s10.676,6.535,16.737,6.037c3.173-.261,7.854-1.754,9.411-4.867,1.252-2.5-.3-6.625-.873-9.119C1964.046,992.819,1931.385,935.756,1914.826,930.814Z" transform="translate(-1404.713 -565.469)" fill="#3c79a6"/>
    <path id="Trazado_52403" data-name="Trazado 52403" d="M2268.408,1370.527a1.511,1.511,0,0,1,.047.37C2268.442,1370.774,2268.421,1370.651,2268.408,1370.527Z" transform="translate(-1730.602 -949.934)" fill="#18898d" fill-rule="evenodd"/>
    <path id="Trazado_52404" data-name="Trazado 52404" d="M1913.526,1827.279c-.291,3.083,5.84,5.87,8.86,6.555.874.2,5.357-4.276,11.647-8.637l-9.6-9.817C1919.955,1820.979,1913.585,1826.649,1913.526,1827.279Z" transform="translate(-1420.45 -1338.704)" fill="#d5e5fd"/>
    <path id="Trazado_52405" data-name="Trazado 52405" d="M1516.746,896.049c3.96-20.994,8.009-41.928,12.747-60.937,4.48-17.977,15.262-30.644,28.851-42.449-11.224-8.762-30.8-9.593-40.418,1.855-11.872,14.125-8.1,39.742-7.566,56.677C1510.783,864.634,1514.672,896.072,1516.746,896.049Z" transform="translate(-1067.258 -439.103)" fill="#acccfd"/>
    <path id="Trazado_52406" data-name="Trazado 52406" d="M1537.463,828.936c1.567-2.261,3.651-4.652,3.175-7.361a4.43,4.43,0,0,0-3.64-3.523c-6.63-.94-3.588,6.269-2.64,9.442-6.367,9.547-14.023,29.581-16.56,53.489.683,14.264,4.327,43.021,6.311,43,2.7-14.3,5.444-28.566,8.414-42.226C1533.089,865.98,1534.531,833.165,1537.463,828.936Z" transform="translate(-1074.62 -467.035)" fill="#cc346f"/>
    <path id="Trazado_52407" data-name="Trazado 52407" d="M2034.879,1477.07c-.795-2.848-3.71-4.525-6.489-5.536-4.667-1.7-10.53-2.849-15.481-1.851-3.415.688-4.47,3.792-6.421,6.294-4.883,6.262-23.977,28.97-33.54,40.923l10.463,13.156c15.457-10.719,43.535-37.852,48.233-43.993C2033.655,1483.434,2035.768,1480.258,2034.879,1477.07Z" transform="translate(-1472.39 -1036.265)" fill="#3c79a6"/>
    <path id="Trazado_52408" data-name="Trazado 52408" d="M1664.1,302.659c2.411-2.421,19.066-8.762,24.427,3.257a29.955,29.955,0,0,1,1.585,15.8c-1.3,5.938-6.992,25.25-2.953,28.022a13.785,13.785,0,0,1-16.981-13.619c.072-4.725,2.55-9.471,1.208-14-.81-2.736-2.891-4.879-4.9-6.9-1.617-1.63-4.337-3.427-4.754-5.75A8.273,8.273,0,0,1,1664.1,302.659Z" transform="translate(-1200.332 -13.33)" fill="#222b56" fill-rule="evenodd"/>
    <path id="Trazado_52409" data-name="Trazado 52409" d="M1557.388,341.627a8.787,8.787,0,0,1,2.414-5.42c2.4-2.171,6.207-1.826,9.128-.44,1.575.747,3.189,2.034,3.2,3.777.008,1.459-1.116,2.651-2.209,3.618-2.523,2.232-6.144,5.542-9.472,6.431C1556.34,350.69,1557.06,343.987,1557.388,341.627Z" transform="translate(-1108.987 -44.65)" fill="#222b56" fill-rule="evenodd"/>
    <path id="Trazado_52410" data-name="Trazado 52410" d="M1633.378,530.274c2.14-9.444,9.285-11.656,13.44-9.39,2.662,17.677,5.376,25.534,12.305,35.177-8.614,5.523-23.322,4.5-26.5,0C1632.5,554.644,1632.271,535.157,1633.378,530.274Z" transform="translate(-1174.874 -206.687)" fill="#f4a086"/>
    <path id="Trazado_52411" data-name="Trazado 52411" d="M1563.771,363.867c-4.005-9.595-17.138-11.921-24.538-3.675-6.776,7.551-7.578,27.45-5.062,32.375,4.4,8.613,20.168,4.827,23.53.314C1562.624,386.272,1567.139,371.936,1563.771,363.867Z" transform="translate(-1087.782 -62.565)" fill="#f7b690"/>
    <path id="Trazado_52412" data-name="Trazado 52412" d="M1529.8,299.529c-.816,2.853-2.915,11.6-4.623,11.7,2.282-3.611-.24-8.33-.792-11.863a13.706,13.706,0,0,1,16.548-15.484,9.132,9.132,0,0,1,5.973,3.931,5.52,5.52,0,0,1-.72,6.748,6.541,6.541,0,0,1-5.694,1.1c-1.6-.37-2.092-1.467-3.407-2.194C1532.967,291.2,1530.726,296.288,1529.8,299.529Z" transform="translate(-1080.24)" fill="#222b56" fill-rule="evenodd"/>
    <path id="Trazado_52413" data-name="Trazado 52413" d="M1760.024,527.067a9.3,9.3,0,0,1-3.812,5.835c-5.614,3.868-7.757-4.2-5.551-8.2C1753.291,519.945,1761.247,520.7,1760.024,527.067Z" transform="translate(-1277.379 -208.057)" fill="#f7b690"/>
    <path id="Trazado_52414" data-name="Trazado 52414" d="M1669.978,342.3c.043,1.816,4.875,4.766,6.2,6s2.838,2.371,3.667,3.987c1.07,2.084.817,4.6.22,6.864s-1.512,4.47-1.7,6.8.53,4.939,2.506,6.2c-.859-2.166.064-4.658,1.451-6.531s3.22-3.388,4.546-5.3a12.847,12.847,0,0,0,.923-12.754c-1.415-2.851-5.3-7.48-8.272-8.594C1677.064,338.045,1669.882,338.185,1669.978,342.3Z" transform="translate(-1207.615 -48.015)" fill="#222b56" fill-rule="evenodd"/>
    <path id="Trazado_52415" data-name="Trazado 52415" d="M1599.27,757.085l4.164-3.05a3.723,3.723,0,0,1,6.177.648l4.113,4.622a4.547,4.547,0,0,0,2.321,1.685c1.235.242,2.411-.559,3.4-1.333a118.891,118.891,0,0,0,12.477-11.228,1.463,1.463,0,0,0,.153-2.41l-5.169-6.287c-3.832,1.869-7.764,3.706-11.985,4.305a15.9,15.9,0,0,1-9.663-1.453c-.487-.261-1.406-1.165-1.964-.862-.541.294-.673,2.057-.815,2.623l-1.5,5.966Z" transform="translate(-1145.821 -398.662)" fill="#d5e5fd"/>
    <path id="Trazado_52416" data-name="Trazado 52416" d="M1562.445,1803.123c.007-.319.752-32.163,1.122-51.907l-.663-.013c-.369,19.743-1.114,51.585-1.122,51.9Z" transform="translate(-1113.059 -1282.618)" fill="#255880"/>
    <path id="Trazado_52417" data-name="Trazado 52417" d="M1602.109,954.693a173.536,173.536,0,0,1,39.635-50.317l.314-.275-10.659-7.662,9.876-3.269.043-.179c3.317-13.748,4.336-25.733-1.477-39.538l-.611.258c5.718,13.578,4.74,25.4,1.487,38.946l-10.76,3.563,11.036,7.934a174.193,174.193,0,0,0-39.473,50.234Z" transform="translate(-1147.788 -498.045)" fill="#255880"/>
    <path id="Trazado_52418" data-name="Trazado 52418" d="M1431.819,975.018l.588-.307a142.8,142.8,0,0,1-15.576-53.832l7.081-2.747-1.593-.063c-2.448-.1-4.359-2.329-4.981-4.484a15.064,15.064,0,0,1,.227-7.329,63.475,63.475,0,0,1,15.442-29.6l-.487-.45a64.145,64.145,0,0,0-15.6,29.912,15.632,15.632,0,0,0-.217,7.654,6.976,6.976,0,0,0,4.36,4.759l-4.929,1.913.02.246A143.44,143.44,0,0,0,1431.819,975.018Z" transform="translate(-985.769 -517.928)" fill="#255880"/>
    <path id="Trazado_52419" data-name="Trazado 52419" d="M1876.626,1913.666c-.544,2.787-.457,5.88,1.175,8.2a9.286,9.286,0,0,0,6.385,3.55,22.583,22.583,0,0,0,7.462-.516,8.915,8.915,0,0,0,4.817-2.075c1.239-1.273,1.521-3.629.118-4.718-1.661-1.289-4.386-.071-6.029-1.382s-.9-3.9-.986-6.005c-.126-3.188-3.439-7.019-6.884-6.467C1878.877,1904.865,1877.244,1910.5,1876.626,1913.666Z" transform="translate(-1387.948 -1416.329)" fill="#f7b690"/>
    <path id="Trazado_52420" data-name="Trazado 52420" d="M830,671.62a12.734,12.734,0,0,1,13.749-7.4c.333-6.018-4.084-21.294,1-18.055,2.254,1.437,6.109,21.147,4.118,31.841-.658,3.535-1.809,7.207-4.524,9.565C835.283,695.439,826.9,679.111,830,671.62Z" transform="translate(-472.955 -316.503)" fill="#f7b690"/>
    <g id="Grupo_21254" data-name="Grupo 21254" transform="translate(361.692 351.125)">
      <path id="Trazado_52421" data-name="Trazado 52421" d="M876.443,840.006a.331.331,0,0,0,.115-.642,2.685,2.685,0,0,1-1.39-2.775,10,10,0,0,1,.524-2.267c.134-.427.272-.87.377-1.316a9.807,9.807,0,0,0-2.188-8.651c-.144-.162-.294-.32-.444-.477a6.93,6.93,0,0,1-1-1.219,1.891,1.891,0,0,1-.151-1.841c.528-.87,1.9-.763,2.92-.406a11.477,11.477,0,0,1,7.17,7.884.332.332,0,1,0,.644-.159,12.156,12.156,0,0,0-7.593-8.35c-1.251-.439-2.972-.522-3.707.688a2.514,2.514,0,0,0,.147,2.522,7.525,7.525,0,0,0,1.091,1.34c.145.152.29.3.429.46a9.14,9.14,0,0,1,2.038,8.058c-.1.424-.235.855-.365,1.272a10.65,10.65,0,0,0-.553,2.418,3.338,3.338,0,0,0,1.822,3.443A.323.323,0,0,0,876.443,840.006Z" transform="translate(-871.44 -819.489)" fill="#f4a086"/>
    </g>
    <path id="Trazado_52422" data-name="Trazado 52422" d="M1657.453,1766.035a3.5,3.5,0,1,1,3.5,3.5A3.5,3.5,0,0,1,1657.453,1766.035Zm.663,0a2.834,2.834,0,1,0,2.834-2.834A2.837,2.837,0,0,0,1658.116,1766.035Z" transform="translate(-1196.669 -1292.524)" fill="#255880"/>
    <path id="Trazado_52423" data-name="Trazado 52423" d="M1648.41,1942.187a3.5,3.5,0,1,1,3.5,3.5A3.5,3.5,0,0,1,1648.41,1942.187Zm.663,0a2.834,2.834,0,1,0,2.834-2.834A2.837,2.837,0,0,0,1649.073,1942.187Z" transform="translate(-1188.766 -1446.469)" fill="#255880"/>
    <path id="Trazado_52424" data-name="Trazado 52424" d="M1537.929,1911.291c1.315-10.25,4.649-22.08,4.155-32.379.537,12.193.745,24.3,3.892,35.812h-8.685C1537.538,1913.446,1537.807,1912.248,1537.929,1911.291Z" transform="translate(-1091.656 -1394.227)" fill="#255880"/>
    <rect id="Rectángulo_5508" data-name="Rectángulo 5508" width="75.273" height="131.395" transform="translate(511.209 457.786)" fill="#bddbe3"/>
    <path id="Trazado_52425" data-name="Trazado 52425" d="M2057.432,1785.539h4.788v-1.277h-4.788Zm0,3.561h4.788v-1.277h-4.788Zm0,16.24h2.065v-1.277h-2.065Zm0-12.571h4.788v-1.277h-4.788Zm0,7.23h4.788v-1.277h-4.788Zm0,3.561h4.788v-1.277h-4.788Zm0-7.23h4.788v-1.277h-4.788Zm0-28.92h4.788v-1.277h-4.788Zm0,3.669h4.788V1769.8h-4.788Zm0,10.791h4.788v-1.277h-4.788Zm0-7.23h4.788v-1.277h-4.788Zm0,3.669h4.788v-1.277h-4.788Zm2.065,22.193h-2.065v1.277h2.065Zm0-25.359h-2.065v1.277h2.065Zm0,3.669h-2.065v1.277h2.065Zm0-7.23h-2.065v1.277h2.065Zm0-3.669h-2.065v1.277h2.065Zm0-3.561h-2.065v1.277h2.065Zm0,21.69h-2.065v1.277h2.065Zm0,7.23h-2.065v1.277h2.065Zm0,3.561h-2.065v1.277h2.065Zm0-14.46h-2.065v1.277h2.065Zm-2.065-18.524h4.788v-1.277h-4.788Zm2.065,25.754h-2.065v1.277h2.065Zm-2.065-40.542h4.788v-1.277h-4.788Zm2.065-6.726h-2.065v1.277h2.065Zm0-21.69h-2.065v1.277h2.065Zm0,25.251h-2.065v1.277h2.065Zm0,3.669h-2.065v1.277h2.065Zm-2.065,10.287h4.788v-1.277h-4.788Zm2.065-28.416h-2.065v1.277h2.065Zm0-3.561h-2.065v1.277h2.065Zm0,10.791h-2.065v1.277h2.065Zm0-14.46h-2.065v1.277h2.065Zm0,32.589h-2.065v1.277h2.065Zm0-21.69h-2.065v1.277h2.065Zm0,18.021h-2.065v1.277h2.065Zm-2.065-11.294h4.788v-1.277h-4.788Zm0,3.561h4.788v-1.277h-4.788Zm2.065,14.963h-2.065v1.277h2.065Zm-2.065-4.065h4.788v-1.277h-4.788Zm0-3.669h4.788v-1.277h-4.788Zm0-18.021h4.788v-1.277h-4.788Zm0-7.23h4.788V1726.1h-4.788Zm0-3.669h4.788v-1.277h-4.788Zm0,14.46h4.788v-1.277h-4.788Zm0-7.23h4.788v-1.277h-4.788Zm0-10.791h4.788v-1.277h-4.788Zm2.065-14.284h-2.065v1.277h2.065Zm0-10.9h-2.065v1.277h2.065Zm0-3.561h-2.065v1.277h2.065Zm0-3.669h-2.065v1.277h2.065Zm0-3.561h-2.065v1.277h2.065Zm0-3.669h-2.065v1.277h2.065Zm0,21.69h-2.065v1.277h2.065Zm0-3.561h-2.065v1.277h2.065Zm0,10.791h-2.065v1.277h2.065Zm0,3.669h-2.065v1.277h2.065Zm0,3.561h-2.065v1.277h2.065Zm0-39.711h-2.065v1.277h2.065Zm-2.065,6.726h4.788v-1.277h-4.788Zm0,3.561h4.788v-1.277h-4.788Zm0,3.669h4.788v-1.277h-4.788Zm0-10.9h4.788v-1.277h-4.788Zm0-4.838v1.277h4.788v-1.277Zm0,19.3h4.788v-1.277h-4.788Zm0,14.46h4.788v-1.277h-4.788Zm0-10.791h4.788v-1.277h-4.788Zm0,14.46h4.788v-1.277h-4.788Zm0,3.561h4.788v-1.277h-4.788Zm0-14.46h4.788v-1.277h-4.788Zm0,3.669h4.788v-1.277h-4.788Z" transform="translate(-1546.223 -1216.16)" fill="#d6e6eb"/>
    <path id="Trazado_52426" data-name="Trazado 52426" d="M2621.318,1784.262h-4.788v1.277h4.788Zm0,3.561h-4.788v1.277h4.788Zm0,16.24h-2.064v1.277h2.064Zm0-12.571h-4.788v1.277h4.788Zm0,7.23h-4.788V1800h4.788Zm0,3.561h-4.788v1.277h4.788Zm0-7.23h-4.788v1.277h4.788Zm0-28.92h-4.788v1.277h4.788Zm0,3.669h-4.788v1.277h4.788Zm0,10.791h-4.788v1.277h4.788Zm0-7.23h-4.788v1.277h4.788Zm0,3.669h-4.788v1.277h4.788Zm-2.064,24.747h2.064V1800.5h-2.064Zm0-25.359h2.064v-1.277h-2.064Zm0,3.669h2.064v-1.277h-2.064Zm0-7.23h2.064v-1.277h-2.064Zm0-3.669h2.064v-1.277h-2.064Zm0-3.561h2.064v-1.277h-2.064Zm0,21.689h2.064v-1.277h-2.064Zm0,7.23h2.064v-1.277h-2.064Zm0,3.561h2.064v-1.277h-2.064Zm0-14.46h2.064v-1.277h-2.064Zm2.064-21.078h-4.788v1.277h4.788Zm-2.064,28.308h2.064V1789.6h-2.064Zm2.064-43.1h-4.788v1.277h4.788Zm-2.064-4.173h2.064v-1.277h-2.064Zm0-21.69h2.064v-1.277h-2.064Zm0,25.251h2.064V1745.9h-2.064Zm0,3.669h2.064v-1.277h-2.064Zm2.064,7.733h-4.788v1.277h4.788Zm-2.064-25.862h2.064v-1.277h-2.064Zm0-3.561h2.064v-1.277h-2.064Zm0,10.791h2.064v-1.277h-2.064Zm0-14.46h2.064v-1.277h-2.064Zm0,32.589h2.064V1756.8h-2.064Zm0-21.69h2.064v-1.277h-2.064Zm0,18.021h2.064v-1.277h-2.064Zm2.064-13.848h-4.788v1.277h4.788Zm0,3.561h-4.788v1.277h4.788Zm-2.064,17.517h2.064v-1.277h-2.064Zm2.064-6.618h-4.788v1.277h4.788Zm0-3.669h-4.788v1.277h4.788Zm0-18.021h-4.788v1.277h4.788Zm0-7.23h-4.788v1.277h4.788Zm0-3.669h-4.788v1.277h4.788Zm0,14.46h-4.788v1.277h4.788Zm0-7.23h-4.788v1.277h4.788Zm0-10.791h-4.788v1.277h4.788Zm-2.064-11.73h2.064v-1.277h-2.064Zm0-10.9h2.064v-1.277h-2.064Zm0-3.561h2.064V1691.4h-2.064Zm0-3.669h2.064v-1.277h-2.064Zm0-3.561h2.064v-1.277h-2.064Zm0-3.669h2.064V1680.5h-2.064Zm0,21.69h2.064v-1.277h-2.064Zm0-3.561h2.064v-1.277h-2.064Zm0,10.791h2.064v-1.277h-2.064Zm0,3.669h2.064v-1.277h-2.064Zm0,3.561h2.064v-1.277h-2.064Zm0-39.71h2.064v-1.277h-2.064Zm2.064,4.172h-4.788v1.277h4.788Zm0,3.561h-4.788v1.277h4.788Zm0,3.669h-4.788v1.277h4.788Zm0-10.9h-4.788V1680h4.788Zm-4.788-3.561v1.277h4.788v-1.277Zm4.788,18.021h-4.788v1.277h4.788Zm0,14.46h-4.788v1.277h4.788Zm0-10.791h-4.788v1.277h4.788Zm0,14.46h-4.788v1.277h4.788Zm0,3.561h-4.788v1.277h4.788Zm0-14.46h-4.788v1.277h4.788Zm0,3.669h-4.788v1.277h4.788Z" transform="translate(-2034.836 -1216.16)" fill="#d6e6eb"/>
    <rect id="Rectángulo_5509" data-name="Rectángulo 5509" width="81.378" height="22.636" transform="translate(508.156 566.545)" fill="#bddbe3"/>
    <path id="Trazado_52427" data-name="Trazado 52427" d="M2033.218,2513.854H2114.6l-3.053-2.075h-75.273Z" transform="translate(-1525.062 -1947.31)" fill="#d6e6eb"/>
    <rect id="Rectángulo_5510" data-name="Rectángulo 5510" width="87.241" height="2.464" transform="translate(505.225 523.483)" fill="#d6e6eb"/>
    <rect id="Rectángulo_5511" data-name="Rectángulo 5511" width="75.273" height="2.464" transform="translate(511.209 469.759)" fill="#d6e6eb"/>
    <path id="Trazado_52428" data-name="Trazado 52428" d="M2009.968,2206.208c5.052,0,3.093,8.042,5.984,8.042h75.273c2.891,0,.931-8.042,5.984-8.042Z" transform="translate(-1504.743 -1680.261)" fill="#bddbe3"/>
    <rect id="Rectángulo_5512" data-name="Rectángulo 5512" width="82.946" height="6.062" transform="translate(507.373 451.724)" fill="#d6e6eb"/>
    <rect id="Rectángulo_5513" data-name="Rectángulo 5513" width="75.273" height="2.75" transform="translate(511.209 457.786)" fill="#92b7c2" opacity="0.3" style="mix-blend-mode: multiply;isolation: isolate"/>
    <rect id="Rectángulo_5514" data-name="Rectángulo 5514" width="55.191" height="47.658" transform="translate(525.017 589.18) rotate(-90)" fill="#a0c8d1"/>
    <rect id="Rectángulo_5515" data-name="Rectángulo 5515" width="75.273" height="2.75" transform="translate(511.209 533.989)" fill="#92b7c2" opacity="0.3" style="mix-blend-mode: multiply;isolation: isolate"/>
    <g id="Grupo_21255" data-name="Grupo 21255" transform="translate(520.199 485.938)">
      <rect id="Rectángulo_5516" data-name="Rectángulo 5516" width="30.521" height="16.889" transform="translate(16.889 0) rotate(90)" fill="#dfeef2"/>
      <rect id="Rectángulo_5517" data-name="Rectángulo 5517" width="13.632" height="27.263" transform="translate(1.629 1.629)" fill="#88badb"/>
      <path id="Trazado_52429" data-name="Trazado 52429" d="M2149.3,1901.769l-7.639,17.486v9.777h.233l11.91-27.264Zm-1.646,27.264,7.639-17.487v-4.164l-9.458,21.651Zm7.232-27.264-11.909,27.264h1.819l10.5-24.03v-3.234Z" transform="translate(-2140.032 -1900.14)" fill="#fefefe" opacity="0.2"/>
      <rect id="Rectángulo_5518" data-name="Rectángulo 5518" width="13.632" height="1.16" transform="translate(1.629 15.261)" fill="#dfeef2"/>
    </g>
    <g id="Grupo_21256" data-name="Grupo 21256" transform="translate(540.401 485.938)">
      <rect id="Rectángulo_5519" data-name="Rectángulo 5519" width="30.521" height="16.889" transform="translate(16.889 0) rotate(90)" fill="#dfeef2"/>
      <rect id="Rectángulo_5520" data-name="Rectángulo 5520" width="13.632" height="27.263" transform="translate(1.629 1.629)" fill="#88badb"/>
      <path id="Trazado_52430" data-name="Trazado 52430" d="M2309.547,1901.769l-7.639,17.486v9.777h.233l11.909-27.264Zm-1.646,27.264,7.639-17.487v-4.164l-9.458,21.651Zm7.232-27.264-11.91,27.264h1.819l10.5-24.03v-3.234Z" transform="translate(-2300.279 -1900.14)" fill="#fefefe" opacity="0.2"/>
      <rect id="Rectángulo_5521" data-name="Rectángulo 5521" width="13.632" height="1.16" transform="translate(1.629 15.261)" fill="#dfeef2"/>
    </g>
    <g id="Grupo_21257" data-name="Grupo 21257" transform="translate(560.603 485.938)">
      <rect id="Rectángulo_5522" data-name="Rectángulo 5522" width="30.521" height="16.89" transform="translate(16.89 0) rotate(90)" fill="#dfeef2"/>
      <rect id="Rectángulo_5523" data-name="Rectángulo 5523" width="13.632" height="27.263" transform="translate(1.629 1.629)" fill="#88badb"/>
      <path id="Trazado_52431" data-name="Trazado 52431" d="M2469.793,1901.769l-7.638,17.486v9.777h.233l11.91-27.264Zm-1.646,27.264,7.639-17.487v-4.164l-9.458,21.651Zm7.233-27.264-11.91,27.264h1.819l10.5-24.03v-3.234Z" transform="translate(-2460.525 -1900.14)" fill="#fefefe" opacity="0.2"/>
      <rect id="Rectángulo_5524" data-name="Rectángulo 5524" width="13.632" height="1.16" transform="translate(1.629 15.261)" fill="#dfeef2"/>
    </g>
    <rect id="Rectángulo_5525" data-name="Rectángulo 5525" width="29.057" height="12.958" transform="translate(525.076 567.662) rotate(-90)" fill="#dfeef2"/>
    <rect id="Rectángulo_5526" data-name="Rectángulo 5526" width="25.54" height="9.44" transform="translate(526.835 565.903) rotate(-90)" fill="#88badb"/>
    <rect id="Rectángulo_5527" data-name="Rectángulo 5527" width="9.44" height="1.629" transform="translate(526.835 546.271)" fill="#dfeef2"/>
    <rect id="Rectángulo_5528" data-name="Rectángulo 5528" width="29.057" height="12.958" transform="translate(559.717 567.662) rotate(-90)" fill="#dfeef2"/>
    <rect id="Rectángulo_5529" data-name="Rectángulo 5529" width="25.54" height="9.44" transform="translate(561.475 565.903) rotate(-90)" fill="#88badb"/>
    <rect id="Rectángulo_5530" data-name="Rectángulo 5530" width="9.44" height="1.629" transform="translate(561.475 546.271)" fill="#dfeef2"/>
    <path id="Trazado_52432" data-name="Trazado 52432" d="M2139.534,1845.17h-16.89l-.879-6.3h18.648Z" transform="translate(-1602.446 -1359.232)" fill="#d6e6eb"/>
    <path id="Trazado_52433" data-name="Trazado 52433" d="M2181.012,1833.19h-4.422l-.23-8.029h4.883Z" transform="translate(-1650.158 -1347.253)" fill="#dfeef2"/>
    <path id="Trazado_52434" data-name="Trazado 52434" d="M2299.781,1845.17h-16.889l-.879-6.3h18.648Z" transform="translate(-1742.49 -1359.232)" fill="#d6e6eb"/>
    <path id="Trazado_52435" data-name="Trazado 52435" d="M2341.259,1833.19h-4.423l-.23-8.029h4.883Z" transform="translate(-1790.202 -1347.253)" fill="#dfeef2"/>
    <path id="Trazado_52436" data-name="Trazado 52436" d="M2460.028,1845.17h-16.89l-.879-6.3h18.648Z" transform="translate(-1882.535 -1359.232)" fill="#d6e6eb"/>
    <path id="Trazado_52437" data-name="Trazado 52437" d="M2501.505,1833.19h-4.422l-.23-8.029h4.883Z" transform="translate(-1930.247 -1347.253)" fill="#dfeef2"/>
    <rect id="Rectángulo_5531" data-name="Rectángulo 5531" width="13.632" height="26.354" transform="translate(542.03 540.234)" fill="#88badb"/>
    <rect id="Rectángulo_5532" data-name="Rectángulo 5532" width="44.632" height="16.889" transform="translate(557.29 538.605) rotate(90)" fill="#dfeef2"/>
    <rect id="Rectángulo_5533" data-name="Rectángulo 5533" width="13.632" height="26.287" transform="translate(542.03 540.234)" fill="#88badb"/>
    <rect id="Rectángulo_5534" data-name="Rectángulo 5534" width="13.632" height="15.02" transform="translate(542.03 566.588)" fill="#bddbe3"/>
    <rect id="Rectángulo_5535" data-name="Rectángulo 5535" width="13.632" height="1.629" transform="translate(542.03 565.773)" fill="#dfeef2"/>
    <rect id="Rectángulo_5536" data-name="Rectángulo 5536" width="13.632" height="1.629" transform="translate(542.03 546.142)" fill="#dfeef2"/>
    <rect id="Rectángulo_5537" data-name="Rectángulo 5537" width="18.862" height="1.629" transform="translate(548.031 566.588) rotate(-90)" fill="#dfeef2"/>
    <g id="Grupo_21258" data-name="Grupo 21258" transform="translate(553.015 569.982)">
      <rect id="Rectángulo_5538" data-name="Rectángulo 5538" width="1.673" height="4.247" rx="0.837" transform="translate(0)" fill="#dfeef2"/>
      <circle id="Elipse_1181" data-name="Elipse 1181" cx="0.672" cy="0.672" r="0.672" transform="translate(0.164 0.467)" fill="#bddbe3"/>
      <rect id="Rectángulo_5539" data-name="Rectángulo 5539" width="0.288" height="0.913" transform="translate(0.692 2.448)" fill="#bddbe3"/>
    </g>
    <rect id="Rectángulo_5540" data-name="Rectángulo 5540" width="22.691" height="2.972" transform="translate(537.5 583.237)" fill="#dfeef2"/>
    <rect id="Rectángulo_5541" data-name="Rectángulo 5541" width="25.949" height="2.972" transform="translate(535.871 586.209)" fill="#dfeef2"/>
    <rect id="Rectángulo_5542" data-name="Rectángulo 5542" width="25.953" height="0.478" transform="translate(535.869 588.703)" fill="#f7f6f0"/>
    <rect id="Rectángulo_5543" data-name="Rectángulo 5543" width="22.697" height="0.478" transform="translate(537.497 585.731)" fill="#f7f6f0"/>
    <g id="Grupo_21259" data-name="Grupo 21259" transform="translate(484.211 465.213)">
      <path id="Trazado_52438" data-name="Trazado 52438" d="M1862.256,1765.508H1844.4a1.119,1.119,0,0,0-1.119-1.119v-38.816a1.119,1.119,0,0,0,1.119-1.119h17.858a1.119,1.119,0,0,0,1.119,1.119v38.816A1.119,1.119,0,0,0,1862.256,1765.508Z" transform="translate(-1843.279 -1724.455)" fill="#bddbe3"/>
      <path id="Trazado_52439" data-name="Trazado 52439" d="M1870.647,1776.065a6.838,6.838,0,0,0-3.773-2.257v-32.98a6.838,6.838,0,0,0,3.773-2.257h6.6a6.837,6.837,0,0,0,3.773,2.257v32.98a6.836,6.836,0,0,0-3.773,2.257Z" transform="translate(-1863.899 -1736.791)" fill="#d6e6eb"/>
    </g>
    <g id="Grupo_21262" data-name="Grupo 21262" transform="translate(504.307 471.267)">
      <g id="Grupo_21260" data-name="Grupo 21260">
        <rect id="Rectángulo_5544" data-name="Rectángulo 5544" width="6.902" height="1.085" transform="translate(0 0.94)" fill="#a0c8d1"/>
        <path id="Trazado_52440" data-name="Trazado 52440" d="M2044.858,1775.44h0c-1,0-1.814-.486-1.814-1.085v-.8c0-.6.812-1.085,1.814-1.085h0Z" transform="translate(-2037.956 -1772.474)" fill="#a0c8d1"/>
      </g>
      <g id="Grupo_21261" data-name="Grupo 21261" transform="translate(0 25.98)">
        <rect id="Rectángulo_5545" data-name="Rectángulo 5545" width="6.902" height="1.085" transform="translate(0 0.94)" fill="#a0c8d1"/>
        <path id="Trazado_52441" data-name="Trazado 52441" d="M2044.858,1981.52h0c-1,0-1.814-.486-1.814-1.085v-.8c0-.6.812-1.085,1.814-1.085h0Z" transform="translate(-2037.956 -1978.554)" fill="#a0c8d1"/>
      </g>
    </g>
    <path id="Trazado_52442" data-name="Trazado 52442" d="M1887.3,1833.109a2.786,2.786,0,0,1,1.721.108c.043.689.108,1.463.215,2.26a4.571,4.571,0,0,0,1.27.28V1831.6l-.344-.151c-1.7-.689-3.077-1.7-3.077-3.551,0-2.238,1.85-3.421,3.787-3.723v-1.894a2.614,2.614,0,0,1,1.765,0v1.851a12.137,12.137,0,0,1,3.464.753,14.82,14.82,0,0,1-.387,3.271,2.552,2.552,0,0,1-1.657-.065,12.275,12.275,0,0,0-.215-1.786,9.932,9.932,0,0,0-1.2-.215v3.507l.9.366c1.4.559,2.819,1.614,2.819,3.486a4.416,4.416,0,0,1-3.981,4.282v1.872a3.065,3.065,0,0,1-1.872,0v-1.829a9.1,9.1,0,0,1-3.7-.947A16.256,16.256,0,0,1,1887.3,1833.109Zm3.572-4.282v-2.669a1.327,1.327,0,0,0-.6.172,1.414,1.414,0,0,0-.387,1.076A1.687,1.687,0,0,0,1890.874,1828.827Zm1.506,3.593v3.249a2.135,2.135,0,0,0,.71-.258,1.907,1.907,0,0,0,.452-1.4A1.966,1.966,0,0,0,1892.38,1832.421Z" transform="translate(-1397.108 -1344.605)" fill="#f8ad43"/>
    <rect id="Rectángulo_5546" data-name="Rectángulo 5546" width="106.503" height="66.983" rx="33.492" transform="translate(311.726 467.102)" fill="#88badb"/>
    <path id="Trazado_52443" data-name="Trazado 52443" d="M635.733,1739.443l-49.67,66.984h21.754l46.892-66.984Z" transform="translate(-260.347 -1272.34)" fill="#bddbe3"/>
    <path id="Trazado_52444" data-name="Trazado 52444" d="M565.824,1739.443l-50.677,66.286a8.377,8.377,0,0,0,3.355.7h2.1l49.681-66.984Z" transform="translate(-198.372 -1272.34)" fill="#bddbe3"/>
    <rect id="Rectángulo_5547" data-name="Rectángulo 5547" width="12.679" height="12.679" rx="6.34" transform="translate(321.583 484.527)" fill="#f8ad43"/>
    <path id="Trazado_52445" data-name="Trazado 52445" d="M560.82,1813.617H542.1a1.614,1.614,0,1,1,0-3.227H560.82a1.614,1.614,0,1,1,0,3.227Z" transform="translate(-220.518 -1334.344)" fill="#fff"/>
    <path id="Trazado_52446" data-name="Trazado 52446" d="M560.82,2155.247H542.1a1.614,1.614,0,1,1,0-3.227H560.82a1.614,1.614,0,1,1,0,3.227Z" transform="translate(-220.518 -1632.905)" fill="#fff"/>
    <path id="Trazado_52447" data-name="Trazado 52447" d="M1001.614,2083.711H982.895a.807.807,0,0,1,0-1.614h18.719a.807.807,0,0,1,0,1.614Z" transform="translate(-606.446 -1571.797)" fill="#fff"/>
    <g id="Grupo_21263" data-name="Grupo 21263" transform="translate(320.046 501.297)">
      <path id="Trazado_52448" data-name="Trazado 52448" d="M559.315,2013.911H542.709a1.614,1.614,0,1,1,0-3.227h16.607a1.614,1.614,0,1,1,0,3.227Z" transform="translate(-541.095 -2010.684)" fill="#fff"/>
    </g>
    <path id="Trazado_52449" data-name="Trazado 52449" d="M744.474,2013.911H727.867a1.614,1.614,0,0,1,0-3.227h16.607a1.614,1.614,0,0,1,0,3.227Z" transform="translate(-382.864 -1509.387)" fill="#fff"/>
    <path id="Trazado_52450" data-name="Trazado 52450" d="M929.633,2013.911H913.026a1.614,1.614,0,0,1,0-3.227h16.607a1.614,1.614,0,0,1,0,3.227Z" transform="translate(-544.68 -1509.387)" fill="#fff"/>
    <g id="Grupo_21264" data-name="Grupo 21264" transform="translate(390.074 501.297)">
      <path id="Trazado_52451" data-name="Trazado 52451" d="M1114.792,2013.911h-16.607a1.614,1.614,0,0,1,0-3.227h16.607a1.614,1.614,0,0,1,0,3.227Z" transform="translate(-1096.571 -2010.684)" fill="#fff"/>
    </g>
    <rect id="Rectángulo_5548" data-name="Rectángulo 5548" width="13.011" height="13.011" transform="translate(394.754 484.919) rotate(-45)" fill="#f8ad43"/>
    <rect id="Rectángulo_5549" data-name="Rectángulo 5549" width="13.011" height="13.011" transform="translate(383.785 484.919) rotate(-45)" fill="#cc346f"/>
    <rect id="Rectángulo_5550" data-name="Rectángulo 5550" width="91.869" height="73.462" rx="12.76" transform="translate(392.878 520.882)" fill="#5daaba"/>
    <path id="Trazado_52452" data-name="Trazado 52452" d="M1205.028,2165.874l-80.229-.055a5.82,5.82,0,0,0-.008,11.64l80.23.055a5.82,5.82,0,0,0,.008-11.64Z" transform="translate(-726.076 -1644.964)" fill="#71cee2"/>
    <path id="Trazado_52453" data-name="Trazado 52453" d="M1529.076,2448.832l-38.54-.026a7.394,7.394,0,0,1-7.39-7.4h0a7.394,7.394,0,0,1,7.4-7.39l38.54.026Z" transform="translate(-1044.337 -1879.351)" fill="#71cee2"/>
    <circle id="Elipse_1182" data-name="Elipse 1182" cx="3.482" cy="3.482" r="3.482" transform="translate(441.848 562.061) rotate(-45)" fill="#5daaba"/>
    <path id="Trazado_52454" data-name="Trazado 52454" d="M1201.414,1913.112l16.424-16.4-28.346-28.384-42.609,44.749Z" transform="translate(-750.466 -1384.975)" fill="#5daaba"/>
    <g id="Grupo_21265" data-name="Grupo 21265" transform="translate(410.796 480.835)">
      <path id="Trazado_52455" data-name="Trazado 52455" d="M1330.519,1873.756l-25.348-25.383-44.232,44.172,50.73.035Z" transform="translate(-1260.939 -1848.373)" fill="#d1decf"/>
      <path id="Trazado_52456" data-name="Trazado 52456" d="M1331.371,1878.357l-40.45,40.395,3.78,0,31.6-31.56a8.515,8.515,0,0,0,10.612.5l6.7,6.706a8.515,8.515,0,0,0,.483,10.613l-13.785,13.767,3.78,0,18.85-18.824Zm-21.02,28.94a9.637,9.637,0,0,0-1.628,11.466l16.872.012a9.636,9.636,0,0,0-15.244-11.478Z" transform="translate(-1287.142 -1874.577)" fill="#8dba86"/>
    </g>
    <g id="Grupo_21266" data-name="Grupo 21266" transform="translate(423.409 488.594)">
      <path id="Trazado_52457" data-name="Trazado 52457" d="M1411.717,1949.478l14.195-14.175-25.348-25.383-39.577,39.523Z" transform="translate(-1360.987 -1909.92)" fill="#d1decf"/>
      <path id="Trazado_52458" data-name="Trazado 52458" d="M1426.765,1939.9l-35.795,35.746,3.78,0,26.948-26.911a8.515,8.515,0,0,0,10.612.5l6.7,6.706a8.514,8.514,0,0,0,.484,10.613l-9.131,9.118,3.78,0,14.195-14.176Zm-21.02,28.94a9.585,9.585,0,0,0-2.817,6.814l19.255.013a9.628,9.628,0,0,0-16.438-6.827Z" transform="translate(-1387.19 -1936.123)" fill="#8dba86"/>
    </g>
    <g id="Grupo_21267" data-name="Grupo 21267" transform="translate(400.842 510.463)">
      <rect id="Rectángulo_5551" data-name="Rectángulo 5551" width="75.993" height="17.665" transform="translate(0)" fill="#d0e8cd"/>
      <path id="Trazado_52459" data-name="Trazado 52459" d="M1203.144,2104.4l-.01,14.992,2.673,0,0-4.468a8.514,8.514,0,0,0,7.163-7.846l50.987.035a8.514,8.514,0,0,0,7.152,7.856l0,4.468,2.673,0,.01-14.992Zm35.32,5.649a9.632,9.632,0,0,0-9.631,9.361l19.25.013A9.632,9.632,0,0,0,1238.464,2110.048Z" transform="translate(-1200.467 -2101.75)" fill="#9ed096"/>
    </g>
    <rect id="Rectángulo_5552" data-name="Rectángulo 5552" width="62.68" height="11.155" transform="translate(459.542 594.758)" fill="#f79a45"/>
    <rect id="Rectángulo_5553" data-name="Rectángulo 5553" width="36.581" height="11.155" transform="translate(481.362 594.758)" fill="#f8ad43"/>
    <rect id="Rectángulo_5554" data-name="Rectángulo 5554" width="5.86" height="11.155" transform="translate(505.669 594.758)" fill="#f8d24a"/>
    <rect id="Rectángulo_5555" data-name="Rectángulo 5555" width="62.68" height="1.664" transform="translate(459.542 604.249)" fill="#f79a45" opacity="0.5" style="mix-blend-mode: multiply;isolation: isolate"/>
    <rect id="Rectángulo_5556" data-name="Rectángulo 5556" width="62.68" height="11.155" transform="translate(454.994 583.603)" fill="#f79a45"/>
    <rect id="Rectángulo_5557" data-name="Rectángulo 5557" width="36.581" height="11.155" transform="translate(476.815 583.603)" fill="#f8ad43"/>
    <rect id="Rectángulo_5558" data-name="Rectángulo 5558" width="5.86" height="11.155" transform="translate(501.122 583.603)" fill="#f8d24a"/>
    <rect id="Rectángulo_5559" data-name="Rectángulo 5559" width="62.68" height="1.663" transform="translate(454.994 593.094)" fill="#f79a45" opacity="0.5" style="mix-blend-mode: multiply;isolation: isolate"/>
    <rect id="Rectángulo_5560" data-name="Rectángulo 5560" width="62.68" height="11.155" transform="translate(459.542 572.448)" fill="#f79a45"/>
    <rect id="Rectángulo_5561" data-name="Rectángulo 5561" width="36.581" height="11.155" transform="translate(481.362 572.448)" fill="#f8ad43"/>
    <rect id="Rectángulo_5562" data-name="Rectángulo 5562" width="5.86" height="11.155" transform="translate(505.669 572.448)" fill="#f8d24a"/>
    <rect id="Rectángulo_5563" data-name="Rectángulo 5563" width="62.68" height="1.663" transform="translate(459.542 581.939)" fill="#f79a45" opacity="0.5" style="mix-blend-mode: multiply;isolation: isolate"/>
    <rect id="Rectángulo_5564" data-name="Rectángulo 5564" width="62.68" height="11.155" transform="translate(450.447 561.293)" fill="#f79a45"/>
    <rect id="Rectángulo_5565" data-name="Rectángulo 5565" width="36.581" height="11.155" transform="translate(472.267 561.293)" fill="#f8ad43"/>
    <rect id="Rectángulo_5566" data-name="Rectángulo 5566" width="5.86" height="11.155" transform="translate(496.574 561.293)" fill="#f8d24a"/>
    <rect id="Rectángulo_5567" data-name="Rectángulo 5567" width="62.68" height="1.663" transform="translate(450.447 570.785)" fill="#f79a45" opacity="0.5" style="mix-blend-mode: multiply;isolation: isolate"/>
    <rect id="Rectángulo_5568" data-name="Rectángulo 5568" width="62.68" height="11.155" transform="translate(454.994 550.138)" fill="#f79a45"/>
    <rect id="Rectángulo_5569" data-name="Rectángulo 5569" width="36.581" height="11.155" transform="translate(476.815 550.138)" fill="#f8ad43"/>
    <rect id="Rectángulo_5570" data-name="Rectángulo 5570" width="5.86" height="11.155" transform="translate(501.122 550.138)" fill="#f8d24a"/>
    <rect id="Rectángulo_5571" data-name="Rectángulo 5571" width="62.68" height="1.663" transform="translate(454.994 559.63)" fill="#f79a45" opacity="0.5" style="mix-blend-mode: multiply;isolation: isolate"/>
    <rect id="Rectángulo_5572" data-name="Rectángulo 5572" width="62.68" height="11.155" transform="translate(459.542 538.983)" fill="#f79a45"/>
    <rect id="Rectángulo_5573" data-name="Rectángulo 5573" width="36.581" height="11.155" transform="translate(481.362 538.983)" fill="#f8ad43"/>
    <rect id="Rectángulo_5574" data-name="Rectángulo 5574" width="5.86" height="11.155" transform="translate(505.669 538.983)" fill="#f8d24a"/>
    <rect id="Rectángulo_5575" data-name="Rectángulo 5575" width="62.68" height="1.663" transform="translate(459.542 548.475)" fill="#f79a45" opacity="0.5" style="mix-blend-mode: multiply;isolation: isolate"/>
    <path id="Trazado_52460" data-name="Trazado 52460" d="M842.308,1649.146a3.75,3.75,0,0,1-2.373.6c-6.8,0-10.735-2.211-9.8-5.335.966-3.209,7.052-2.691,10.231-1.657a4.2,4.2,0,0,1,2.152,1.078C843.2,1644.764,843.926,1647.871,842.308,1649.146Z" transform="translate(-473.534 -1187.153)" fill="#255880"/>
    <path id="Trazado_52461" data-name="Trazado 52461" d="M745.635,1674.46a28.436,28.436,0,0,0-8.567,1.677,36.291,36.291,0,0,0-4.923,2.075,3.28,3.28,0,0,0-1.626,1.862c-.078.341-.233,2.675.606,2.675h15.5C747.77,1682.749,749.808,1674.424,745.635,1674.46Z" transform="translate(-386.536 -1215.55)" fill="#2d6c9c"/>
    <path id="Trazado_52462" data-name="Trazado 52462" d="M729.623,1857.842a5.213,5.213,0,0,1-2.375-.193l.476-2.825a.777.777,0,0,1,.117-.344.729.729,0,0,1,.478-.236c.666-.115,1.663-.151,1.594.666C729.83,1855.887,729.718,1856.865,729.623,1857.842Z" transform="translate(-383.734 -1372.615)" fill="#f4a086"/>
    <path id="Trazado_52463" data-name="Trazado 52463" d="M724.35,1706.476c.831-1.664,3.614-3.409,4.705-.347,1.757,4.93-.467,12.3-1.525,17.99h-2.736C724.653,1723.6,723.888,1707.4,724.35,1706.476Z" transform="translate(-381.073 -1241.758)" fill="#2d6c9c"/>
    <path id="Trazado_52464" data-name="Trazado 52464" d="M711.434,1866.722c-.289-.2-1.022-2.155-1.565-1.923-.307.131-.325.677-.516.918a2.2,2.2,0,0,1-.757.4l-.384-.577c-1.5.6-.426,2.359-1.93,2.981a4.921,4.921,0,0,0-1.072.481.856.856,0,0,0-.349,1.023.661.661,0,0,0,.321.286l4.845-2.043s.079-.955-.051-1.069c.157.073.612.713.784.725Z" transform="translate(-364.11 -1381.877)" fill="#0a3c5f" fill-rule="evenodd"/>
    <path id="Trazado_52465" data-name="Trazado 52465" d="M820.694,1526.4c-.318-.352-2.412-1.415-3.083,1.162,0,0-.948,12.171-.948,12.171.6,2.057,3.281,2.542,4.447-.359C821.684,1537.948,822.464,1528.36,820.694,1526.4Z" transform="translate(-461.876 -1085.707)" fill="#2d6c9c"/>
    <path id="Trazado_52466" data-name="Trazado 52466" d="M770.537,1658.489c-.18.473.665,1.18,1.111,1.42a22.809,22.809,0,0,0,2.213-.854l-1.085-1.966C771.825,1657.776,770.573,1658.392,770.537,1658.489Z" transform="translate(-421.543 -1200.369)" fill="#d5e5fd"/>
    <path id="Trazado_52467" data-name="Trazado 52467" d="M793.3,1618.246c.623-2.053-2.053-4.73-4.149-1.516-.505.774-3.639,3.866-3.639,3.866l.76,2.862C788.607,1622.62,792.869,1619.666,793.3,1618.246Z" transform="translate(-434.652 -1163.794)" fill="#2d6c9c"/>
    <path id="Trazado_52468" data-name="Trazado 52468" d="M753.732,1663.6a1.755,1.755,0,0,0-1.247-.531,1.519,1.519,0,0,0-1.038.593,3.691,3.691,0,0,0-.56,1.088,1.459,1.459,0,0,0-.118.85.541.541,0,0,0,.65.416c.321-.123.381-.608.7-.727s.622.2.924.371a1.126,1.126,0,0,0,1.488-.416C754.773,1664.662,754.123,1663.957,753.732,1663.6Z" transform="translate(-404.267 -1205.595)" fill="#f7b690"/>
    <path id="Trazado_52469" data-name="Trazado 52469" d="M825.315,1503.474c-.693,1.025-.337,3.445-.164,4.63.369,2.535-.223,15.3-.258,15.7a1.008,1.008,0,0,0,.542,1.025,1.879,1.879,0,0,0,.777.1c3.572-.023,9.227-.046,12.8-.069a1.311,1.311,0,0,0,.685-.129c.429-.267.281-.849.127-1.293-1.03-2.975-1.539-5.986-.6-8.986.928-2.977,1.919-6.542,1.329-9.641-.449-2.36-3.613-5.236-8.723-5.236C828.24,1499.583,825.937,1502.554,825.315,1503.474Z" transform="translate(-469.065 -1062.719)" fill="#3c79a6"/>
    <path id="Trazado_52470" data-name="Trazado 52470" d="M971.405,1597.03a.242.242,0,0,1,.008.061C971.411,1597.07,971.407,1597.05,971.405,1597.03Z" transform="translate(-597.11 -1147.881)" fill="#18898d" fill-rule="evenodd"/>
    <path id="Trazado_52471" data-name="Trazado 52471" d="M848.455,1519.419c.648-3.434,1.31-6.858,2.085-9.968a13.39,13.39,0,0,1,4.719-6.943c-1.836-1.433-5.037-1.569-6.611.3-1.942,2.31-1.325,6.5-1.238,9.271C847.48,1514.28,848.116,1519.422,848.455,1519.419Z" transform="translate(-488.606 -1064.324)" fill="#acccfd"/>
    <path id="Trazado_52472" data-name="Trazado 52472" d="M851.844,1508.441c.256-.37.6-.761.519-1.2a.725.725,0,0,0-.6-.576c-1.085-.154-.587,1.026-.432,1.545a21.261,21.261,0,0,0-2.709,8.749c.112,2.333.708,7.037,1.032,7.033.441-2.34.89-4.672,1.376-6.907C851.128,1514.5,851.364,1509.133,851.844,1508.441Z" transform="translate(-489.811 -1068.893)" fill="#cc346f"/>
    <path id="Trazado_52473" data-name="Trazado 52473" d="M849.794,1424.294c.159-.536,2.065-2.742,3.77-1.428a4.9,4.9,0,0,1,1.455,2.152c.274.956.954,4.178,1.75,4.264a2.255,2.255,0,0,1-3.5-.642c-.356-.686-.368-1.562-.913-2.109a2.855,2.855,0,0,0-1.241-.614c-.359-.109-.891-.157-1.131-.458A1.354,1.354,0,0,1,849.794,1424.294Z" transform="translate(-490.783 -995.315)" fill="#222b56" fill-rule="evenodd"/>
    <path id="Trazado_52474" data-name="Trazado 52474" d="M836.434,1443.167a1.438,1.438,0,0,1-.073-.968,1.381,1.381,0,0,1,1.28-.772.782.782,0,0,1,.754.3.856.856,0,0,1-.037.692,4.618,4.618,0,0,1-.864,1.661C836.987,1444.553,836.57,1443.532,836.434,1443.167Z" transform="translate(-479.042 -1011.893)" fill="#222b56" fill-rule="evenodd"/>
    <path id="Trazado_52475" data-name="Trazado 52475" d="M867.533,1459.589c.35-1.545,1.519-1.907,2.2-1.536.435,2.892.879,4.177,2.013,5.754-1.409.9-3.815.735-4.335,0A31.78,31.78,0,0,1,867.533,1459.589Z" transform="translate(-506.21 -1026.308)" fill="#f4a086"/>
    <path id="Trazado_52476" data-name="Trazado 52476" d="M844.573,1439.65a2.406,2.406,0,0,0-3.818,1.376c-.389,1.613,1.04,4.54,1.785,5.054,1.3.9,3.278-.871,3.412-1.781C846.147,1442.965,845.684,1440.55,844.573,1439.65Z" transform="translate(-482.873 -1009.896)" fill="#f7b690"/>
    <path id="Trazado_52477" data-name="Trazado 52477" d="M831.6,1435.344a10.945,10.945,0,0,1,.423,1.011,1.077,1.077,0,0,1-.18,1.032,1.33,1.33,0,0,0-.362-.907c-.213-.256-.471-.474-.673-.74a2.242,2.242,0,0,1,1.18-3.514,1.494,1.494,0,0,1,1.165.1.9.9,0,0,1,.42,1.027,1.07,1.07,0,0,1-.734.6c-.259.071-.415-.049-.661-.051C831.4,1433.9,831.4,1434.83,831.6,1435.344Z" transform="translate(-473.839 -1003.794)" fill="#222b56" fill-rule="evenodd"/>
    <path id="Trazado_52478" data-name="Trazado 52478" d="M879.387,1455.452a1.52,1.52,0,0,1-.1,1.136c-.508.993-1.443,0-1.436-.749C877.865,1454.949,879.069,1454.441,879.387,1455.452Z" transform="translate(-515.354 -1023.665)" fill="#f7b690"/>
    <path id="Trazado_52479" data-name="Trazado 52479" d="M851.161,1435.046c.147.258,1.072.308,1.359.383a2.58,2.58,0,0,1,.838.289,1.588,1.588,0,0,1,.565.971,6.538,6.538,0,0,0,.283,1.112,1.083,1.083,0,0,0,.842.7,1.15,1.15,0,0,1-.3-1.053c.054-.377.2-.738.243-1.117a2.1,2.1,0,0,0-.857-1.908,3.41,3.41,0,0,0-1.858-.6C851.851,1433.884,850.828,1434.461,851.161,1435.046Z" transform="translate(-491.967 -1005.244)" fill="#222b56" fill-rule="evenodd"/>
    <path id="Trazado_52480" data-name="Trazado 52480" d="M861.954,1496.688l.681-.5a.609.609,0,0,1,1.01.106l.673.756a.743.743,0,0,0,.38.276.736.736,0,0,0,.557-.218,19.464,19.464,0,0,0,2.041-1.837.239.239,0,0,0,.025-.394l-.846-1.028a6.71,6.71,0,0,1-1.96.7,2.6,2.6,0,0,1-1.581-.238c-.08-.043-.23-.191-.321-.141s-.11.337-.133.429l-.246.976Z" transform="translate(-501.457 -1057.709)" fill="#d5e5fd"/>
    <path id="Trazado_52481" data-name="Trazado 52481" d="M862.147,1528.654a.079.079,0,0,1-.037-.009.081.081,0,0,1-.034-.109,28.526,28.526,0,0,1,6.438-8.2l-1.692-1.216a.08.08,0,0,1,.022-.142l1.645-.544a9.479,9.479,0,0,0-.245-6.341.08.08,0,0,1,.148-.062,9.658,9.658,0,0,1,.243,6.484.081.081,0,0,1-.053.058l-1.538.509,1.646,1.184a.081.081,0,0,1,.034.062.082.082,0,0,1-.027.064,28.353,28.353,0,0,0-6.477,8.223A.08.08,0,0,1,862.147,1528.654Z" transform="translate(-501.556 -1073.553)" fill="#255880"/>
    <path id="Trazado_52482" data-name="Trazado 52482" d="M834.451,1532.092a.08.08,0,0,1-.071-.043,23.493,23.493,0,0,1-2.566-8.9.081.081,0,0,1,.051-.082l.7-.272a1.193,1.193,0,0,1-.662-.772,2.577,2.577,0,0,1,.035-1.265,10.52,10.52,0,0,1,2.558-4.9.082.082,0,0,1,.114,0,.08.08,0,0,1,0,.114,10.358,10.358,0,0,0-2.52,4.83,2.441,2.441,0,0,0-.038,1.186.949.949,0,0,0,.791.715.08.08,0,0,1,.026.155l-.9.348a23.33,23.33,0,0,0,2.543,8.776.08.08,0,0,1-.034.108A.077.077,0,0,1,834.451,1532.092Z" transform="translate(-475.117 -1076.918)" fill="#255880"/>
    <path id="Trazado_52483" data-name="Trazado 52483" d="M925.648,1525.817c-.366-.354-2.6-1.421-2.908,1.168,0,0,.739,12.229.739,12.229.884,2.067,3.617,2.554,4.376-.362C928.229,1537.415,927.679,1527.782,925.648,1525.817Z" transform="translate(-554.58 -1085.191)" fill="#4184b5"/>
    <path id="Trazado_52484" data-name="Trazado 52484" d="M884.244,1658.489c-.18.473.665,1.18,1.111,1.42a22.809,22.809,0,0,0,2.213-.854l-1.085-1.966C885.532,1657.776,884.281,1658.392,884.244,1658.489Z" transform="translate(-520.915 -1200.369)" fill="#d5e5fd"/>
    <path id="Trazado_52485" data-name="Trazado 52485" d="M907.008,1618.246c.623-2.053-2.053-4.73-4.149-1.516-.5.774-3.639,3.866-3.639,3.866l.76,2.862C902.314,1622.62,906.577,1619.666,907.008,1618.246Z" transform="translate(-534.025 -1163.794)" fill="#4184b5"/>
    <path id="Trazado_52486" data-name="Trazado 52486" d="M867.439,1663.6a1.755,1.755,0,0,0-1.247-.531,1.519,1.519,0,0,0-1.038.593,3.69,3.69,0,0,0-.56,1.088,1.458,1.458,0,0,0-.118.85.541.541,0,0,0,.65.416c.321-.123.381-.608.7-.727s.622.2.924.371a1.126,1.126,0,0,0,1.488-.416C868.48,1664.662,867.83,1663.957,867.439,1663.6Z" transform="translate(-503.639 -1205.595)" fill="#f7b690"/>
    <path id="Trazado_52487" data-name="Trazado 52487" d="M819.583,1687.641c-2.808,0-5.474.016-8.567.016a36.253,36.253,0,0,0-4.923,2.075,3.278,3.278,0,0,0-1.626,1.862c-.078.341-.233,2.675.606,2.675h15.5C821.717,1694.268,823.671,1687.641,819.583,1687.641Z" transform="translate(-451.161 -1227.069)" fill="#2d6c9c"/>
    <path id="Trazado_52488" data-name="Trazado 52488" d="M803.571,1857.842a5.213,5.213,0,0,1-2.375-.193l.476-2.825a.775.775,0,0,1,.117-.344.728.728,0,0,1,.478-.236c.666-.115,1.663-.151,1.594.666C803.778,1855.887,803.666,1856.865,803.571,1857.842Z" transform="translate(-448.359 -1372.615)" fill="#f4a086"/>
    <path id="Trazado_52489" data-name="Trazado 52489" d="M798.3,1706.476c.831-1.664,3.614-3.409,4.705-.347,1.757,4.93-.467,12.3-1.525,17.99h-2.736C798.6,1723.6,797.835,1707.4,798.3,1706.476Z" transform="translate(-445.698 -1241.758)" fill="#2d6c9c"/>
    <path id="Trazado_52490" data-name="Trazado 52490" d="M785.382,1866.722c-.289-.2-1.022-2.155-1.565-1.923-.307.131-.325.677-.516.918a2.2,2.2,0,0,1-.757.4l-.384-.577c-1.5.6-.426,2.359-1.93,2.981a4.926,4.926,0,0,0-1.073.481.856.856,0,0,0-.349,1.023.661.661,0,0,0,.32.286l4.846-2.043s.079-.955-.051-1.069c.157.073.612.713.784.725Z" transform="translate(-428.736 -1381.877)" fill="#0a3c5f" fill-rule="evenodd"/>
    <path id="Trazado_52491" data-name="Trazado 52491" d="M735.962,1608.1a.968.968,0,0,0,.979-1.14l-1.477-10.448a1.36,1.36,0,0,0-1.3-1.14H720.136a.968.968,0,0,0-.979,1.14l1.477,10.449a1.359,1.359,0,0,0,1.3,1.14Z" transform="translate(-376.652 -1146.433)" fill="#255880"/>
    <path id="Rectángulo_5576" data-name="Rectángulo 5576" d="M0,0H8.221a.767.767,0,0,1,.767.767v0a.767.767,0,0,1-.767.767H0a0,0,0,0,1,0,0V0A0,0,0,0,1,0,0Z" transform="translate(358.454 460.135)" fill="#255880"/>
    <path id="Trazado_52492" data-name="Trazado 52492" d="M729.176,1608.1a.968.968,0,0,0,.979-1.14l-1.477-10.448a1.36,1.36,0,0,0-1.3-1.14H713.35a.968.968,0,0,0-.979,1.14l1.477,10.449a1.36,1.36,0,0,0,1.3,1.14Z" transform="translate(-370.722 -1146.433)" fill="#a2d1eb"/>
    <circle id="Elipse_1183" data-name="Elipse 1183" cx="21.378" cy="21.378" r="21.378" transform="translate(341.373 518.9)" fill="#f79a45"/>
    <circle id="Elipse_1184" data-name="Elipse 1184" cx="17.593" cy="17.593" r="17.593" transform="translate(337.872 540.279) rotate(-45)" fill="#f8ad43"/>
    <path id="Trazado_52493" data-name="Trazado 52493" d="M761.574,2182.781l18.966,29.583a17.659,17.659,0,0,0,2.407-2.056l-18.5-28.86A17.517,17.517,0,0,0,761.574,2182.781Zm-7,7.481,16.243,25.336a17.49,17.49,0,0,0,7.753-2.018l-18.92-29.511A17.666,17.666,0,0,0,754.573,2190.262Zm11.891-9.4,17.859,27.857a17.57,17.57,0,0,0,1.835-2.949l-16.243-25.336A17.6,17.6,0,0,0,766.465,2180.863Z" transform="translate(-407.614 -1657.737)" fill="#f8d24a"/>
  </g>
</svg>
