<svg xmlns="http://www.w3.org/2000/svg" width="119.353" height="109.899" viewBox="0 0 119.353 109.899">
  <g id="Grupo_20184" data-name="Grupo 20184" transform="translate(-3257.656 -1447.306)">
    <path id="Trazado_51309" data-name="Trazado 51309" d="M3301.673,1590.489l-2.428-1.349,12.028-21.651,6.124,6.4,10.706-18.876,6.327,8.8,12.561-24.564,6.282,9.709,7.713-11.327,2.3,1.563-10.068,14.787-5.941-9.182-12.442,24.332-6.452-8.977-10.408,18.351-6.1-6.377Z" transform="translate(-31.514 -68.447)" fill="#3d4451"/>
    <g id="Grupo_20181" data-name="Grupo 20181" transform="translate(3257.656 1447.306)">
      <ellipse id="Elipse_1149" data-name="Elipse 1149" cx="37.871" cy="4.426" rx="37.871" ry="4.426" transform="translate(0 97.675)" fill="#7eb9c7"/>
      <g id="Grupo_20179" data-name="Grupo 20179" transform="translate(7.543 41.179)">
        <g id="Grupo_20178" data-name="Grupo 20178">
          <g id="Grupo_20174" data-name="Grupo 20174" transform="translate(48.098)">
            <rect id="Rectángulo_5261" data-name="Rectángulo 5261" width="13.057" height="56.952" transform="translate(1.211 1.211)" fill="#fdc345"/>
            <path id="Trazado_51310" data-name="Trazado 51310" d="M3502.809,1676.659h-15.48v-59.375h15.48Zm-13.058-2.423h10.635v-54.529h-10.635Z" transform="translate(-3487.329 -1617.285)" fill="#3d4451"/>
          </g>
          <g id="Grupo_20175" data-name="Grupo 20175" transform="translate(30.725 14.446)">
            <rect id="Rectángulo_5262" data-name="Rectángulo 5262" width="11.753" height="42.506" transform="translate(1.211 1.211)" fill="#f04f4c"/>
            <path id="Trazado_51311" data-name="Trazado 51311" d="M3429.793,1721.845h-14.175v-44.928h14.175Zm-11.753-2.423h9.33v-40.083h-9.33Z" transform="translate(-3415.618 -1676.917)" fill="#3d4451"/>
          </g>
          <g id="Grupo_20176" data-name="Grupo 20176" transform="translate(0 39.692)">
            <rect id="Rectángulo_5263" data-name="Rectángulo 5263" width="9.548" height="17.502" transform="translate(0.969 0.969)" fill="#c7ddeb"/>
            <path id="Trazado_51312" data-name="Trazado 51312" d="M3300.276,1800.567H3288.79v-19.441h11.486Zm-9.548-1.938h7.61v-15.564h-7.61Z" transform="translate(-3288.79 -1781.127)" fill="#3d4451"/>
          </g>
          <g id="Grupo_20177" data-name="Grupo 20177" transform="translate(15.143 26.346)">
            <rect id="Rectángulo_5264" data-name="Rectángulo 5264" width="10.707" height="30.848" transform="translate(0.969 0.969)" fill="#7eb9c7"/>
            <path id="Trazado_51313" data-name="Trazado 51313" d="M3363.942,1758.825H3351.3v-32.786h12.645Zm-10.707-1.938H3362v-28.91h-8.769Z" transform="translate(-3351.297 -1726.039)" fill="#3d4451"/>
          </g>
        </g>
      </g>
      <g id="Grupo_20180" data-name="Grupo 20180" transform="translate(9.82)">
        <path id="Trazado_51314" data-name="Trazado 51314" d="M3377.9,1465.078a41.816,41.816,0,1,0,0,59.137A41.815,41.815,0,0,0,3377.9,1465.078Zm-4.85,54.287a34.957,34.957,0,1,1,0-49.436A34.957,34.957,0,0,1,3373.047,1519.365Z" transform="translate(-3304.497 -1451.492)" fill="#c7ddeb"/>
        <path id="Trazado_51315" data-name="Trazado 51315" d="M3657.523,1808.9c1.619,1.619,1.846,4.169.414,5.6l-3.8,3.8c-1.432,1.432-3.982,1.2-5.6-.415l-14.451-14.451a3.928,3.928,0,0,1-.339-5.524l3.8-3.8a3.928,3.928,0,0,1,5.524.338Z" transform="translate(-3551.712 -1709.349)" fill="#c7ddeb"/>
        <path id="Trazado_51316" data-name="Trazado 51316" d="M3341.364,1533.634a43.139,43.139,0,1,1,30.529-12.625A43.041,43.041,0,0,1,3341.364,1533.634Zm0-83.611a40.457,40.457,0,1,0,28.607,11.85A40.191,40.191,0,0,0,3341.365,1450.023Z" transform="translate(-3298.19 -1447.306)" fill="#3d4451"/>
        <path id="Trazado_51317" data-name="Trazado 51317" d="M3363.714,1548.859a36.028,36.028,0,1,1,25.489-10.541A35.932,35.932,0,0,1,3363.714,1548.859Zm0-70.007a33.978,33.978,0,1,0,24.038,9.941A33.885,33.885,0,0,0,3363.715,1478.852Z" transform="translate(-3320.54 -1469.657)" fill="#3d4451"/>
        <path id="Trazado_51318" data-name="Trazado 51318" d="M3599.829,1744.575l-11.724-11.724,7.518-7.518,11.724,11.724Zm-9.393-11.724,9.393,9.394,5.189-5.188-9.394-9.394Z" transform="translate(-3517.871 -1657.979)" fill="#3d4451"/>
        <path id="Trazado_51319" data-name="Trazado 51319" d="M3651.573,1798.314c-.073,0-.145,0-.219,0a5.106,5.106,0,0,1-3.4-1.5l-14.451-14.45a4.937,4.937,0,0,1-1.465-3.371,4.518,4.518,0,0,1,1.317-3.346l4.079-4.079a4.543,4.543,0,0,1,3.347-1.318,4.933,4.933,0,0,1,3.37,1.465l14.452,14.45a5.109,5.109,0,0,1,1.5,3.4,4.457,4.457,0,0,1-1.279,3.4l-4.078,4.079A4.437,4.437,0,0,1,3651.573,1798.314Zm-10.911-26.657a3.108,3.108,0,0,0-2.221.9l-4.08,4.079a3.115,3.115,0,0,0-.9,2.308,3.525,3.525,0,0,0,1.051,2.406l14.45,14.451a3.747,3.747,0,0,0,2.457,1.089,3.069,3.069,0,0,0,2.334-.866l4.078-4.078a3.061,3.061,0,0,0,.865-2.334,3.745,3.745,0,0,0-1.089-2.457l-14.451-14.451a3.526,3.526,0,0,0-2.406-1.05Z" transform="translate(-3551.163 -1692.008)" fill="#3d4451"/>
        <path id="Trazado_51320" data-name="Trazado 51320" d="M3649.751,1797.074c-.082,0-.163,0-.245-.005a5.689,5.689,0,0,1-3.783-1.672l-14.451-14.451a5.515,5.515,0,0,1-1.636-3.768,5.094,5.094,0,0,1,1.488-3.773l4.08-4.079a5.117,5.117,0,0,1,3.773-1.488,5.517,5.517,0,0,1,3.768,1.635l14.452,14.451a5.693,5.693,0,0,1,1.672,3.784,5.039,5.039,0,0,1-1.45,3.835l-4.078,4.078A5.011,5.011,0,0,1,3649.751,1797.074Zm-10.912-26.657a2.531,2.531,0,0,0-1.81.734l-4.079,4.079a2.533,2.533,0,0,0-.732,1.881,2.945,2.945,0,0,0,.88,2.009l14.451,14.451a3.153,3.153,0,0,0,2.07.919,2.484,2.484,0,0,0,1.9-.7l4.079-4.079a2.487,2.487,0,0,0,.7-1.9,3.16,3.16,0,0,0-.918-2.07l-14.452-14.45a2.942,2.942,0,0,0-2.008-.88Z" transform="translate(-3549.341 -1690.185)" fill="#3d4451"/>
        <path id="Trazado_51321" data-name="Trazado 51321" d="M3664.9,1820.724a.706.706,0,0,1-.5-.207l-13.554-13.554a.708.708,0,0,1,1-1l13.554,13.554a.708.708,0,0,1-.5,1.209Z" transform="translate(-3565.251 -1718.917)" fill="#3d4451"/>
      </g>
    </g>
    <g id="Grupo_20182" data-name="Grupo 20182" transform="translate(3325.187 1467.872)">
      <circle id="Elipse_1150" data-name="Elipse 1150" cx="3.056" cy="3.056" r="3.056" transform="translate(0 4.322) rotate(-45)" fill="#f04f4c"/>
      <path id="Trazado_51322" data-name="Trazado 51322" d="M3540.786,1540.875a4.306,4.306,0,1,1,4.306-4.306A4.311,4.311,0,0,1,3540.786,1540.875Zm0-6.112a1.806,1.806,0,1,0,1.806,1.806A1.808,1.808,0,0,0,3540.786,1534.763Z" transform="translate(-3536.464 -1532.247)" fill="#3d4451"/>
    </g>
    <g id="Grupo_20183" data-name="Grupo 20183" transform="translate(3265.333 1516.922)">
      <circle id="Elipse_1151" data-name="Elipse 1151" cx="3.056" cy="3.056" r="3.056" transform="translate(1.25 1.25)" fill="#f04f4c"/>
      <path id="Trazado_51323" data-name="Trazado 51323" d="M3293.655,1743.281a4.306,4.306,0,1,1,4.306-4.306A4.311,4.311,0,0,1,3293.655,1743.281Zm0-6.112a1.806,1.806,0,1,0,1.805,1.806A1.808,1.808,0,0,0,3293.655,1737.169Z" transform="translate(-3289.349 -1734.669)" fill="#3d4451"/>
    </g>
  </g>
</svg>
