<svg xmlns="http://www.w3.org/2000/svg" width="122.354" height="112.908" viewBox="0 0 122.354 112.908">
  <g id="Grupo_20173" data-name="Grupo 20173" transform="translate(-691.214 -1507.344)">
    <g id="Grupo_20172" data-name="Grupo 20172" transform="translate(691.214 1507.344)">
      <ellipse id="Elipse_1147" data-name="Elipse 1147" cx="42.404" cy="42.374" rx="42.404" ry="42.374" transform="translate(14.429 21.261)" fill="#c7ddeb"/>
      <g id="Grupo_20169" data-name="Grupo 20169" transform="translate(43.97 46.675)">
        <circle id="Elipse_1148" data-name="Elipse 1148" cx="7.663" cy="7.663" r="7.663" transform="translate(0 10.837) rotate(-45)" fill="#f04f4c"/>
        <path id="Trazado_51300" data-name="Trazado 51300" d="M852.925,1687.11a9.031,9.031,0,1,1,9.031-9.031A9.042,9.042,0,0,1,852.925,1687.11Zm0-15.326a6.294,6.294,0,1,0,6.295,6.294A6.3,6.3,0,0,0,852.925,1671.784Z" transform="translate(-842.088 -1667.241)" fill="#3d4451"/>
      </g>
      <path id="Trazado_51301" data-name="Trazado 51301" d="M826.818,1672.6a20.631,20.631,0,1,1,20.631-20.631A20.654,20.654,0,0,1,826.818,1672.6Zm0-37.725a17.094,17.094,0,1,0,17.094,17.094A17.114,17.114,0,0,0,826.818,1634.878Z" transform="translate(-771.716 -1594.165)" fill="#3d4451"/>
      <path id="Trazado_51302" data-name="Trazado 51302" d="M790.337,1651.743a36.251,36.251,0,1,1,36.251-36.251A36.293,36.293,0,0,1,790.337,1651.743Zm0-66.608a30.357,30.357,0,1,0,30.357,30.357A30.391,30.391,0,0,0,790.337,1585.134Z" transform="translate(-735.235 -1557.685)" fill="#3d4451"/>
      <path id="Trazado_51303" data-name="Trazado 51303" d="M746.316,1626.571a55.1,55.1,0,1,1,55.1-55.1A55.164,55.164,0,0,1,746.316,1626.571Zm0-101.386a46.285,46.285,0,1,0,46.285,46.285A46.337,46.337,0,0,0,746.316,1525.184Z" transform="translate(-691.214 -1513.663)" fill="#3d4451"/>
      <path id="Trazado_51304" data-name="Trazado 51304" d="M869.2,1616.866a2.063,2.063,0,0,1-1.3-3.669l42.735-34.483a2.063,2.063,0,0,1,2.591,3.211l-42.736,34.483A2.055,2.055,0,0,1,869.2,1616.866Z" transform="translate(-814.391 -1556.996)" fill="#3d4451"/>
      <g id="Grupo_20170" data-name="Grupo 20170" transform="translate(81.559)">
        <path id="Trazado_51305" data-name="Trazado 51305" d="M972.29,1546.52l-2.566-14.664,15.761-12.918,1.833,16.759Z" transform="translate(-967.782 -1515.462)" fill="#f04f4c"/>
        <path id="Trazado_51306" data-name="Trazado 51306" d="M966.485,1541.522l-3.238-18.5,19.122-15.673,2.3,21.077Zm.646-17.062,1.894,10.824,11.867-8.547-1.361-12.441Z" transform="translate(-963.247 -1507.344)" fill="#3d4451"/>
      </g>
      <g id="Grupo_20171" data-name="Grupo 20171" transform="translate(83.289 19.241)">
        <path id="Trazado_51307" data-name="Trazado 51307" d="M980.906,1588.91l14.037,6.5,17.471-10.74-16.354-6.421Z" transform="translate(-977.342 -1576.23)" fill="#f04f4c"/>
        <path id="Trazado_51308" data-name="Trazado 51308" d="M986.738,1592.724l-17.721-8.2,18.477-13,20.589,8.084Zm-10.592-8.845,10.354,4.792,13.6-8.359-12.12-4.759Z" transform="translate(-969.017 -1571.52)" fill="#3d4451"/>
      </g>
    </g>
  </g>
</svg>
