<svg xmlns="http://www.w3.org/2000/svg" width="106" height="106" viewBox="0 0 106 106">
  <g id="Grupo_18977" data-name="Grupo 18977" transform="translate(-468 -5560)">
    <circle id="Elipse_1076" data-name="Elipse 1076" cx="53" cy="53" r="53" transform="translate(468 5560)" fill="#f4d8a2"/>
    <g id="Grupo_18945" data-name="Grupo 18945" transform="translate(-1845.307 4110.293)">
      <rect id="Rectángulo_4594" data-name="Rectángulo 4594" width="61.236" height="35.692" rx="17.846" transform="translate(2335.952 1480.967)" fill="#7eb9c7"/>
      <path id="Trazado_48825" data-name="Trazado 48825" d="M2495.865,1791.621l-1.089-6.077h-10.961l-.863,6.021a2.458,2.458,0,0,1-2.583,1.823h-4.143v3.7h26.419v-3.7h-4.207A2.48,2.48,0,0,1,2495.865,1791.621Z" transform="translate(-121.379 -258.212)" fill="#c7ddeb"/>
      <g id="Grupo_18941" data-name="Grupo 18941" transform="translate(2330.644 1475.843)">
        <path id="Trazado_48826" data-name="Trazado 48826" d="M2398.368,1527.128h-64.4a3.34,3.34,0,0,1-3.325-3.348v-44.589a3.34,3.34,0,0,1,3.325-3.348h64.4a3.341,3.341,0,0,1,3.325,3.348v44.589A3.341,3.341,0,0,1,2398.368,1527.128Zm-64.4-49.623a1.676,1.676,0,0,0-1.662,1.686v44.589a1.676,1.676,0,0,0,1.662,1.686h64.4a1.676,1.676,0,0,0,1.663-1.686v-44.589a1.676,1.676,0,0,0-1.663-1.686Z" transform="translate(-2330.644 -1475.843)" fill="#3d4451"/>
      </g>
      <path id="Trazado_48827" data-name="Trazado 48827" d="M2474.885,1788.57h-34.131v-5.686h5.922c1.326,0,2.254-.665,2.354-1.282l1.174-7.239h14.858l1.473,7.269c.157.773,1.341,1.252,2.349,1.252h6Zm-32.468-1.662h30.805v-2.361h-4.339c-2,0-3.674-1.087-3.978-2.585l-1.2-5.936h-12.084l-.947,5.842c-.251,1.552-1.932,2.678-4,2.678h-4.259Z" transform="translate(-91.805 -248.89)" fill="#3d4451"/>
      <g id="Grupo_18944" data-name="Grupo 18944" transform="translate(2350.435 1481.796)">
        <circle id="Elipse_1064" data-name="Elipse 1064" cx="4.886" cy="4.886" r="4.886" transform="translate(8.696 9.943) rotate(-45)" fill="#f04f4c"/>
        <g id="Grupo_18942" data-name="Grupo 18942" transform="translate(3.807 0)">
          <rect id="Rectángulo_4595" data-name="Rectángulo 4595" width="22.279" height="22.28" transform="translate(0.659 0.659)" fill="#f5fafc"/>
          <path id="Trazado_48828" data-name="Trazado 48828" d="M2496.183,1535.245h-23.6v-23.6h23.6Zm-22.279-1.318h20.961v-20.962H2473.9Z" transform="translate(-2472.587 -1511.648)" fill="#3d4451"/>
        </g>
        <path id="Trazado_48829" data-name="Trazado 48829" d="M2453.629,1568.709l10.771,11.112,3.509-2.418,3.5,1.9,11.823-10.693.489-.1-.391,18.761h-29.7Z" transform="translate(-2452.973 -1559.059)" fill="#fdc345"/>
        <path id="Trazado_48830" data-name="Trazado 48830" d="M2452.429,1626.7l-.891-1.292,14.894-10.265,15.684,10.183-.854,1.316-14.8-9.611Z" transform="translate(-2451.23 -1597.938)" fill="#3d4451"/>
        <path id="Trazado_48831" data-name="Trazado 48831" d="M2480.9,1583.663h-31.211V1563.4h3.864v1.506h-2.358v17.255h28.2V1564.9h-2.569V1563.4h4.075Z" transform="translate(-2449.686 -1554.792)" fill="#3d4451"/>
        <rect id="Rectángulo_4596" data-name="Rectángulo 4596" width="1.337" height="15.302" transform="matrix(0.7, -0.715, 0.715, 0.7, 0.188, 9.736)" fill="#3d4451"/>
        <rect id="Rectángulo_4597" data-name="Rectángulo 4597" width="15.733" height="1.337" transform="translate(17.984 19.473) rotate(-42.869)" fill="#3d4451"/>
        <g id="Grupo_18943" data-name="Grupo 18943" transform="translate(9.232 3.485)">
          <path id="Trazado_48832" data-name="Trazado 48832" d="M2514.218,1543.619a8.046,8.046,0,0,1-3.328.6c-3.019,0-5.674-1.984-5.674-5.253a6.438,6.438,0,0,1,6.8-6.354c3.2,0,5.492,2.018,5.492,4.82,0,2.435-1.491,3.969-3.455,3.969a1.388,1.388,0,0,1-1.564-1.284h-.036a2.717,2.717,0,0,1-2.346,1.284,1.975,1.975,0,0,1-2.037-2.168,3.987,3.987,0,0,1,4.255-3.886,5.5,5.5,0,0,1,2.165.417l-.546,3.085c-.182.984-.055,1.434.455,1.451.782.017,1.764-.9,1.764-2.819,0-2.168-1.528-3.853-4.346-3.853a5.065,5.065,0,0,0-5.219,5.187c0,2.785,1.946,4.37,4.656,4.37a6.366,6.366,0,0,0,2.637-.534Zm-1.619-6.888a2.419,2.419,0,0,0-.564-.067,2.271,2.271,0,0,0-2.146,2.368c0,.634.309,1.034.909,1.034.673,0,1.382-.784,1.546-1.751Z" transform="translate(-2505.216 -1532.612)" fill="#3d4451"/>
        </g>
      </g>
      <rect id="Rectángulo_4598" data-name="Rectángulo 4598" width="69.459" height="1.663" transform="translate(2330.703 1515.303)" fill="#3d4451"/>
    </g>
  </g>
</svg>
