<svg xmlns="http://www.w3.org/2000/svg" width="106" height="106" viewBox="0 0 106 106">
  <g id="Grupo_18973" data-name="Grupo 18973" transform="translate(-468 -5040)">
    <circle id="Elipse_1072" data-name="Elipse 1072" cx="53" cy="53" r="53" transform="translate(468 5040)" fill="#f4d8a2"/>
    <g id="Grupo_18930" data-name="Grupo 18930" transform="translate(-5936.702 3498.851)">
      <g id="Grupo_18917" data-name="Grupo 18917" transform="translate(6423.446 1577.413)">
        <ellipse id="Elipse_1060" data-name="Elipse 1060" cx="31.908" cy="7.015" rx="31.908" ry="7.015" transform="translate(0 42.81)" fill="#7eb9c7"/>
        <g id="Grupo_18916" data-name="Grupo 18916" transform="translate(1.423)">
          <g id="Grupo_18915" data-name="Grupo 18915">
            <g id="Grupo_18911" data-name="Grupo 18911" transform="translate(44.816)">
              <rect id="Rectángulo_4588" data-name="Rectángulo 4588" width="12.567" height="46.737" transform="translate(1.301 1.301)" fill="#fdc345"/>
              <path id="Trazado_48783" data-name="Trazado 48783" d="M6837.931,1748.48h-15.169v-49.339h15.169Zm-12.567-2.6h9.965v-44.134h-9.965Z" transform="translate(-6822.762 -1699.141)" fill="#3d4451"/>
            </g>
            <g id="Grupo_18912" data-name="Grupo 18912" transform="translate(29.018 16.428)">
              <rect id="Rectángulo_4589" data-name="Rectángulo 4589" width="10.948" height="30.289" transform="translate(1.32 1.32)" fill="#f04f4c"/>
              <path id="Trazado_48784" data-name="Trazado 48784" d="M6752.871,1818.884h-13.588v-32.93h13.588Zm-10.947-2.641h8.307v-27.649h-8.307Z" transform="translate(-6739.283 -1785.954)" fill="#3d4451"/>
            </g>
            <g id="Grupo_18913" data-name="Grupo 18913" transform="translate(0 33.937)">
              <rect id="Rectángulo_4590" data-name="Rectángulo 4590" width="10.026" height="13.661" transform="translate(0.955 0.955)" fill="#c7ddeb"/>
              <path id="Trazado_48785" data-name="Trazado 48785" d="M6597.876,1894.05H6585.94v-15.572h11.937Zm-10.026-1.911h8.115v-11.75h-8.115Z" transform="translate(-6585.94 -1878.478)" fill="#3d4451"/>
            </g>
            <g id="Grupo_18914" data-name="Grupo 18914" transform="translate(14.354 26.6)">
              <rect id="Rectángulo_4591" data-name="Rectángulo 4591" width="9.974" height="20.193" transform="translate(1.244 1.244)" fill="#7eb9c7"/>
              <path id="Trazado_48786" data-name="Trazado 48786" d="M6674.254,1862.388h-12.462v-22.681h12.462Zm-9.974-2.488h7.486V1842.2h-7.486Z" transform="translate(-6661.792 -1839.707)" fill="#3d4451"/>
            </g>
          </g>
        </g>
      </g>
      <g id="Grupo_18918" data-name="Grupo 18918" transform="translate(6414.641 1549)">
        <path id="Trazado_48787" data-name="Trazado 48787" d="M6604,1571.871l2.817-16-16.205-1.2,4.091,5.256-38.37,36.055-18.774,17.707,62.551-46.814Z" transform="translate(-6536.485 -1553.595)" fill="#50ce42"/>
        <path id="Trazado_48788" data-name="Trazado 48788" d="M6532.964,1610.164a1.073,1.073,0,0,1-.737-1.853L6551,1590.6l37.66-35.388-3.491-4.485a1.072,1.072,0,0,1,.925-1.728l16.206,1.2a1.072,1.072,0,0,1,.976,1.255l-2.817,16a1.072,1.072,0,0,1-1.9.473l-3.244-4.169-61.708,46.184A1.067,1.067,0,0,1,6532.964,1610.164Zm55.382-58.843,2.607,3.35a1.073,1.073,0,0,1-.112,1.44l-38.37,36.056-5.061,4.773,47.46-35.521a1.073,1.073,0,0,1,1.489.2l2.406,3.092,2.193-12.456Z" transform="translate(-6531.89 -1549)" fill="#3d4451"/>
      </g>
      <g id="Grupo_18929" data-name="Grupo 18929" transform="translate(6471.037 1558.004)">
        <path id="Trazado_48795" data-name="Trazado 48795" d="M6840.437,1615.6c.643.4.717-.718.713-1.252q-.037-3.987-.071-7.974a7.11,7.11,0,0,1,.723-3.907,2.088,2.088,0,0,1,2.386-.777A3.1,3.1,0,0,1,6846,1604.2v7.444a1.986,1.986,0,0,1,1.811-1.143h.708a1.956,1.956,0,0,1,1.983,1.928v.817a2.163,2.163,0,0,1,1.623-.726,2.426,2.426,0,0,1,2.191,1,4.168,4.168,0,0,1,.4,1.4c.146.479.2.453.773.453,2.558,0,2.43,3.39,2.438,5.129.01,2.147-.188,5.323-1.584,7.068a7.41,7.41,0,0,1-5.755,2.778h-5.375c-3.576,0-5.734-3.57-6.914-6.384-.527-1.257-.973-2.545-1.523-3.793a23.209,23.209,0,0,1-1.449-3.3c-.4-1.5-1.12-4.38,1.318-4.528a3.165,3.165,0,0,1,2.644,1.381c.392.5.479,1.288.952,1.724A1.237,1.237,0,0,0,6840.437,1615.6Z" transform="translate(-6833.968 -1600.636)" fill="#fff"/>
        <path id="Trazado_48796" data-name="Trazado 48796" d="M6846.535,1627.24h-5.375c-3.184,0-5.876-2.408-7.785-6.964-.237-.563-.458-1.135-.672-1.689-.267-.692-.545-1.407-.844-2.088-.158-.357-.335-.712-.508-1.055a12.337,12.337,0,0,1-.989-2.38c-.311-1.154-.888-3.3.1-4.669a2.619,2.619,0,0,1,2.078-1.049,4.078,4.078,0,0,1,3.447,1.742c.056.071.105.143.153.217l-.063-6.981a8.007,8.007,0,0,1,.877-4.435,3.032,3.032,0,0,1,3.466-1.159c.857.274,1.978,1.052,2.452,3.2l.021.1v5.586a2.974,2.974,0,0,1,.865-.128h.707a2.928,2.928,0,0,1,2.828,2.117,3.127,3.127,0,0,1,.78-.1,3.329,3.329,0,0,1,2.972,1.416,2.906,2.906,0,0,1,.453,1.286c.008.056.016.109.024.16a3.057,3.057,0,0,1,2.954,2.426,11.83,11.83,0,0,1,.348,3.384v.26c.017,3.629-.568,6.136-1.792,7.663A8.39,8.39,0,0,1,6846.535,1627.24Zm-13.785-18.009c-.033,0-.066,0-.1,0-.487.03-.611.2-.658.265-.458.637.018,2.407.2,3.073a10.754,10.754,0,0,0,.853,2.021c.183.365.373.741.548,1.142.318.721.6,1.457.877,2.169.21.541.426,1.1.652,1.64,1.11,2.648,3.059,5.8,6.041,5.8h5.375a6.484,6.484,0,0,0,5.017-2.422c.638-.8,1.395-2.569,1.377-6.473v-.268c0-3.278-.55-3.92-1.493-3.92h-.094a1.374,1.374,0,0,1-1.583-1.124,4.385,4.385,0,0,1-.135-.641,1.131,1.131,0,0,0-.145-.5c-.212-.307-.527-.592-1.41-.592a1.221,1.221,0,0,0-.916.407l-1.655,1.866v-3.311a1.011,1.011,0,0,0-1.038-.982h-.707a1.042,1.042,0,0,0-.952.592L6841,1611.9v-11.658c-.229-.964-.618-1.54-1.158-1.713a1.15,1.15,0,0,0-1.307.395,6.481,6.481,0,0,0-.568,3.38l.071,7.974c.01,1.123-.257,1.822-.816,2.137a1.29,1.29,0,0,1-1.342-.072h0a2.2,2.2,0,0,1-.328-.253,3.386,3.386,0,0,1-.785-1.283,2.662,2.662,0,0,0-.271-.555A2.336,2.336,0,0,0,6832.75,1609.232Z" transform="translate(-6829.909 -1596.578)" fill="#3d4451"/>
      </g>
    </g>
  </g>
</svg>
