<svg xmlns="http://www.w3.org/2000/svg" width="106" height="106" viewBox="0 0 106 106">
  <g id="Grupo_18979" data-name="Grupo 18979" transform="translate(-468 -5814)">
    <circle id="Elipse_1078" data-name="Elipse 1078" cx="53" cy="53" r="53" transform="translate(468 5814)" fill="#f4d8a2"/>
    <g id="Grupo_18958" data-name="Grupo 18958" transform="translate(-3451.203 4360.885)">
      <g id="Grupo_18950" data-name="Grupo 18950" transform="translate(3936.203 1480)">
        <g id="Grupo_18949" data-name="Grupo 18949" transform="translate(0 0)">
          <path id="Trazado_48833" data-name="Trazado 48833" d="M4005.673,1540.973h-47.534v-31.3h47.534Z" transform="translate(-3954.829 -1505.196)" fill="#c7ddeb"/>
          <rect id="Rectángulo_4599" data-name="Rectángulo 4599" width="43.213" height="8.353" transform="translate(7.218 43.247)" fill="#c7ddeb"/>
          <path id="Trazado_48834" data-name="Trazado 48834" d="M4011.431,1762.027h-44.42v-9.56h44.42Zm-43.213-1.207h42.005v-7.146h-42.005Z" transform="translate(-3962.362 -1711.353)" fill="#3d4451"/>
          <path id="Trazado_48835" data-name="Trazado 48835" d="M3989.92,1515.886H3936.2V1480h53.717Zm-52.208-1.509h50.7v-32.868h-50.7Z" transform="translate(-3936.203 -1480)" fill="#3d4451"/>
          <path id="Trazado_48836" data-name="Trazado 48836" d="M3989.92,1742.265H3936.2v-17.412h53.717Zm-52.208-1.509h50.7v-14.394h-50.7Z" transform="translate(-3936.203 -1687.905)" fill="#3d4451"/>
          <g id="Grupo_18946" data-name="Grupo 18946" transform="translate(4.08 4.687)">
            <path id="Trazado_48837" data-name="Trazado 48837" d="M3966.178,1514v24.661h43.547V1514Z" transform="translate(-3965.734 -1513.557)" fill="#7eb9c7"/>
            <path id="Trazado_48838" data-name="Trazado 48838" d="M4007.673,1536.61H3963.24v-25.548h44.434Zm-43.546-.887h42.66v-23.775h-42.66Z" transform="translate(-3963.24 -1511.062)" fill="#3d4451"/>
          </g>
          <rect id="Rectángulo_4600" data-name="Rectángulo 4600" width="39.046" height="1.207" transform="translate(5.092 45.131)" fill="#3d4451"/>
          <rect id="Rectángulo_4601" data-name="Rectángulo 4601" width="1.207" height="8.835" transform="translate(9.789 41.718)" fill="#3d4451"/>
          <rect id="Rectángulo_4602" data-name="Rectángulo 4602" width="1.207" height="8.835" transform="translate(15.251 41.718)" fill="#3d4451"/>
          <rect id="Rectángulo_4603" data-name="Rectángulo 4603" width="1.207" height="4.508" transform="translate(20.633 41.718)" fill="#3d4451"/>
          <rect id="Rectángulo_4604" data-name="Rectángulo 4604" width="1.207" height="4.508" transform="translate(26.095 41.718)" fill="#3d4451"/>
          <rect id="Rectángulo_4605" data-name="Rectángulo 4605" width="1.207" height="8.835" transform="translate(31.797 41.718)" fill="#3d4451"/>
          <rect id="Rectángulo_4606" data-name="Rectángulo 4606" width="1.207" height="8.835" transform="translate(37.259 41.718)" fill="#3d4451"/>
          <rect id="Rectángulo_4607" data-name="Rectángulo 4607" width="1.607" height="4.337" transform="translate(42.521 41.718)" fill="#3d4451"/>
          <rect id="Rectángulo_4608" data-name="Rectángulo 4608" width="5.462" height="1.285" transform="translate(43.003 31.276)" fill="#3d4451"/>
          <g id="Grupo_18948" data-name="Grupo 18948" transform="translate(56.929 6.781)">
            <rect id="Rectángulo_4609" data-name="Rectángulo 4609" width="17.631" height="36.229" rx="8.816" transform="translate(4.124 2.82)" fill="#c7ddeb"/>
            <path id="Trazado_48839" data-name="Trazado 48839" d="M4377.322,1539.369a.3.3,0,0,1-.291.314H4373a.3.3,0,0,1-.291-.314v-.036a.3.3,0,0,1,.291-.314h4.03a.3.3,0,0,1,.291.314Z" transform="translate(-4363.771 -1536.894)" fill="#3d4451"/>
            <g id="Grupo_18947" data-name="Grupo 18947" transform="translate(1.738 3.834)">
              <rect id="Rectángulo_4610" data-name="Rectángulo 4610" width="17.274" height="30.78" rx="8.084" transform="translate(0.244 0.244)" fill="#7eb9c7"/>
              <path id="Trazado_48840" data-name="Trazado 48840" d="M4341.291,1581.609h-14.833a1.465,1.465,0,0,1-1.464-1.464v-28.34a1.465,1.465,0,0,1,1.464-1.464h14.833a1.465,1.465,0,0,1,1.464,1.464v28.34A1.465,1.465,0,0,1,4341.291,1581.609Zm-14.833-30.78a.977.977,0,0,0-.976.976v28.34a.977.977,0,0,0,.976.976h14.833a.978.978,0,0,0,.977-.976v-28.34a.978.978,0,0,0-.977-.976Z" transform="translate(-4324.993 -1550.342)" fill="#3d4451"/>
            </g>
            <path id="Trazado_48841" data-name="Trazado 48841" d="M4362.3,1539.532a.334.334,0,1,1,.333.359A.347.347,0,0,1,4362.3,1539.532Z" transform="translate(-4354.932 -1537.024)" fill="#3d4451"/>
            <path id="Trazado_48842" data-name="Trazado 48842" d="M4331.176,1563.379h-14.208a3.5,3.5,0,0,1-3.495-3.495V1528.43a3.5,3.5,0,0,1,3.495-3.495h14.208a3.5,3.5,0,0,1,3.495,3.495v31.454A3.5,3.5,0,0,1,4331.176,1563.379Zm-14.208-37.368a2.422,2.422,0,0,0-2.419,2.419v31.454a2.422,2.422,0,0,0,2.419,2.419h14.208a2.422,2.422,0,0,0,2.419-2.419V1528.43a2.422,2.422,0,0,0-2.419-2.419Z" transform="translate(-4313.473 -1524.935)" fill="#3d4451"/>
          </g>
        </g>
        <path id="Trazado_48843" data-name="Trazado 48843" d="M4302.326,1782.138h-15.137v-1.1h14.034v-4.9h1.1Z" transform="translate(-4234.227 -1731.452)" fill="#3d4451"/>
      </g>
      <path id="Trazado_48844" data-name="Trazado 48844" d="M4303.4,1496.234h-1.1V1491.6h-14.1v-1.1H4303.4Z" transform="translate(-298.873 -8.916)" fill="#3d4451"/>
      <g id="Grupo_18951" data-name="Grupo 18951" transform="translate(3998.735 1513.228)">
        <path id="Trazado_48845" data-name="Trazado 48845" d="M4356.2,1709.55c.309.183.345-.328.342-.573q-.017-1.823-.034-3.646a3.117,3.117,0,0,1,.347-1.786,1.03,1.03,0,0,1,1.145-.355,1.423,1.423,0,0,1,.872,1.146v3.4a.959.959,0,0,1,.869-.522h.34a.918.918,0,0,1,.952.881v.373a1.063,1.063,0,0,1,.779-.332,1.189,1.189,0,0,1,1.052.459c.155.216.121.414.194.642s.1.207.37.207c1.229,0,1.167,1.55,1.171,2.345a5.383,5.383,0,0,1-.76,3.231,3.624,3.624,0,0,1-2.763,1.27h-2.58c-1.716,0-2.752-1.632-3.319-2.919-.253-.575-.467-1.164-.73-1.734a10.354,10.354,0,0,1-.7-1.508c-.193-.687-.537-2,.633-2.071a1.543,1.543,0,0,1,1.27.632c.188.229.229.589.457.788A.627.627,0,0,0,4356.2,1709.55Z" transform="translate(-4353.106 -1702.698)" fill="#fff"/>
        <path id="Trazado_48846" data-name="Trazado 48846" d="M4358.577,1714.243H4356c-1.52,0-2.808-1.1-3.725-3.183-.113-.257-.22-.519-.322-.772-.129-.316-.262-.644-.406-.955-.075-.162-.161-.324-.243-.481a5.5,5.5,0,0,1-.477-1.093,2.639,2.639,0,0,1,.03-2.131,1.252,1.252,0,0,1,1-.5,1.976,1.976,0,0,1,1.637.792,1.209,1.209,0,0,1,.1.141l-.03-3.218a3.527,3.527,0,0,1,.425-2.042,1.473,1.473,0,0,1,1.64-.528,1.789,1.789,0,0,1,1.175,1.47l.011.049v2.552a1.454,1.454,0,0,1,.426-.063h.339a1.389,1.389,0,0,1,1.346.972,1.542,1.542,0,0,1,.386-.049,1.608,1.608,0,0,1,1.411.644,1.294,1.294,0,0,1,.222.6l.011.067c1.584.021,1.586,1.874,1.586,2.668v.118a5.413,5.413,0,0,1-.864,3.519A4.088,4.088,0,0,1,4358.577,1714.243Zm-6.617-8.233h-.05c-.25.014-.312.1-.333.131-.206.289.018,1.079.1,1.376a4.777,4.777,0,0,0,.407.919c.088.167.179.339.264.523.153.331.29.668.422.994.1.247.2.5.312.748.533,1.211,1.471,2.654,2.914,2.654h2.58a3.191,3.191,0,0,0,2.423-1.112,4.556,4.556,0,0,0,.657-2.944v-.122c0-1.316-.191-1.782-.728-1.782h-.048a.651.651,0,0,1-.745-.515,1.858,1.858,0,0,1-.065-.3.466.466,0,0,0-.066-.221c-.1-.143-.257-.274-.691-.274a.621.621,0,0,0-.455.19l-.768.825v-1.5a.478.478,0,0,0-.509-.438h-.339a.514.514,0,0,0-.47.272l-.843,1.745v-5.289c-.108-.435-.3-.7-.558-.775a.59.59,0,0,0-.651.183,2.816,2.816,0,0,0-.269,1.531l.034,3.646c0,.511-.119.833-.378.982a.614.614,0,0,1-.633-.024h0a1.053,1.053,0,0,1-.155-.115,1.538,1.538,0,0,1-.379-.591,1.088,1.088,0,0,0-.979-.721Z" transform="translate(-4350.607 -1700.203)" fill="#3d4451"/>
      </g>
      <g id="Grupo_18953" data-name="Grupo 18953" transform="translate(3954.739 1486.622)">
        <ellipse id="Elipse_1065" data-name="Elipse 1065" cx="7.269" cy="7.378" rx="7.269" ry="7.378" transform="translate(0.674 0.466)" fill="#f5fafc"/>
        <circle id="Elipse_1066" data-name="Elipse 1066" cx="6.051" cy="6.051" r="6.051" transform="translate(0.549 13.062) rotate(-76.717)" fill="#c7ddeb"/>
        <g id="Grupo_18952" data-name="Grupo 18952" transform="translate(0 0)">
          <path id="Trazado_48847" data-name="Trazado 48847" d="M4066.871,1539.543a7.829,7.829,0,1,1,7.829-7.829A7.837,7.837,0,0,1,4066.871,1539.543Zm0-14.8a6.969,6.969,0,1,0,6.969,6.969A6.977,6.977,0,0,0,4066.871,1524.744Z" transform="translate(-4059.042 -1523.885)" fill="#3d4451"/>
          <path id="Trazado_48848" data-name="Trazado 48848" d="M4094.278,1539.742c-1.933,0-2.976-4.034-2.976-7.829s1.043-7.829,2.976-7.829,2.976,4.033,2.976,7.829S4096.21,1539.742,4094.278,1539.742Zm0-14.8c-.884,0-2.116,2.651-2.116,6.969s1.232,6.969,2.116,6.969,2.116-2.651,2.116-6.969S4095.162,1524.943,4094.278,1524.943Z" transform="translate(-4086.434 -1524.054)" fill="#3d4451"/>
          <path id="Trazado_48849" data-name="Trazado 48849" d="M4081.739,1592.661a.429.429,0,0,1-.273-.1,8.91,8.91,0,0,0-11.023,0,.43.43,0,0,1-.546-.663,9.77,9.77,0,0,1,12.116,0,.43.43,0,0,1-.274.761Z" transform="translate(-4068.125 -1579.849)" fill="#3d4451"/>
          <path id="Trazado_48850" data-name="Trazado 48850" d="M4075.954,1545.611a9.525,9.525,0,0,1-6.058-2.1.43.43,0,0,1,.546-.664,8.91,8.91,0,0,0,11.023,0,.43.43,0,0,1,.547.664A9.526,9.526,0,0,1,4075.954,1545.611Z" transform="translate(-4068.125 -1539.899)" fill="#3d4451"/>
          <path id="Trazado_48851" data-name="Trazado 48851" d="M4074.27,1573.878h-14.8a.43.43,0,1,1,0-.859h14.8a.43.43,0,1,1,0,.859Z" transform="translate(-4059.042 -1565.605)" fill="#3d4451"/>
        </g>
      </g>
      <g id="Grupo_18954" data-name="Grupo 18954" transform="translate(3954.958 1503.858)">
        <path id="Trazado_48852" data-name="Trazado 48852" d="M4061.628,1641.681l-1.131-3.574h.919l.67,2.343.616-2.343h.912l.6,2.343.683-2.343h.932l-1.147,3.574h-.909l-.616-2.3-.606,2.3Z" transform="translate(-4060.497 -1638.107)" fill="#3d4451"/>
        <path id="Trazado_48853" data-name="Trazado 48853" d="M4097.16,1641.681l-1.131-3.574h.919l.67,2.343.616-2.343h.912l.6,2.343.684-2.343h.932l-1.147,3.574h-.909l-.616-2.3-.606,2.3Z" transform="translate(-4090.667 -1638.107)" fill="#3d4451"/>
        <path id="Trazado_48854" data-name="Trazado 48854" d="M4132.691,1641.681l-1.131-3.574h.919l.669,2.343.616-2.343h.912l.6,2.343.684-2.343h.932l-1.148,3.574h-.909l-.615-2.3-.606,2.3Z" transform="translate(-4120.836 -1638.107)" fill="#3d4451"/>
      </g>
      <g id="Grupo_18957" data-name="Grupo 18957" transform="translate(3999.743 1497.276)">
        <g id="Grupo_18955" data-name="Grupo 18955" transform="translate(0 0)">
          <path id="Trazado_48855" data-name="Trazado 48855" d="M4367.792,1603.654a.171.171,0,0,1,.013-.02,3.84,3.84,0,0,0,.764-2.293,4.217,4.217,0,1,0-7.778,2.4l.01.016,3.38,5.932a.194.194,0,0,0,.34,0Z" transform="translate(-4359.708 -1596.912)" fill="#f04f4c"/>
          <path id="Trazado_48856" data-name="Trazado 48856" d="M4361.924,1607.795a.626.626,0,0,1-.544-.316l-3.373-5.919a4.633,4.633,0,1,1,8.566-2.646,4.259,4.259,0,0,1-.837,2.535l-3.262,6.018a.628.628,0,0,1-.544.328Zm0-12.447a3.731,3.731,0,0,0-3.217,5.714.5.5,0,0,1,.042.067l3.165,5.554,3.07-5.664a.649.649,0,0,1,.044-.069,3.4,3.4,0,0,0,.678-2.036A3.684,3.684,0,0,0,4361.928,1595.348Zm-3.912,6.223,0,.007Zm-.016-.025,0,.005Zm7.726-.083h0Z" transform="translate(-4357.282 -1594.486)" fill="#3d4451"/>
        </g>
        <g id="Grupo_18956" data-name="Grupo 18956" transform="translate(2.493 2.228)">
          <ellipse id="Elipse_1067" data-name="Elipse 1067" cx="1.834" cy="1.822" rx="1.834" ry="1.822" transform="translate(0.334 0.334)" fill="#fff"/>
          <path id="Trazado_48857" data-name="Trazado 48857" d="M4375.971,1613.564a2.156,2.156,0,1,1,2.168-2.156A2.164,2.164,0,0,1,4375.971,1613.564Zm0-3.643a1.488,1.488,0,1,0,1.5,1.488A1.5,1.5,0,0,0,4375.971,1609.921Z" transform="translate(-4373.803 -1609.253)" fill="#3d4451"/>
        </g>
      </g>
    </g>
  </g>
</svg>
