<svg xmlns="http://www.w3.org/2000/svg" width="106" height="106" viewBox="0 0 106 106">
  <g id="Grupo_18975" data-name="Grupo 18975" transform="translate(-467 -5290)">
    <circle id="Elipse_1074" data-name="Elipse 1074" cx="53" cy="53" r="53" transform="translate(467 5290)" fill="#f4d8a2"/>
    <g id="Grupo_18870" data-name="Grupo 18870" transform="translate(-1750.98 3740.951)">
      <g id="Grupo_18864" data-name="Grupo 18864" transform="translate(2230.981 1564)">
        <g id="Grupo_18863" data-name="Grupo 18863" transform="translate(0)">
          <path id="Trazado_48715" data-name="Trazado 48715" d="M2292.179,1590.119a28.6,28.6,0,1,0,0,40.441A28.6,28.6,0,0,0,2292.179,1590.119Zm-3.317,37.124a23.905,23.905,0,1,1,0-33.807A23.905,23.905,0,0,1,2288.862,1627.243Z" transform="translate(-2241.001 -1578.359)" fill="#c7ddeb"/>
          <path id="Trazado_48716" data-name="Trazado 48716" d="M2542.8,1880.262a2.919,2.919,0,0,1,.3,4.056l-2.751,2.751a2.919,2.919,0,0,1-4.056-.3l-10.465-10.465a2.844,2.844,0,0,1-.245-4l2.751-2.751a2.844,2.844,0,0,1,4,.245Z" transform="translate(-2468.811 -1810.694)" fill="#c7ddeb"/>
          <ellipse id="Elipse_1059" data-name="Elipse 1059" cx="16.477" cy="3.623" rx="16.477" ry="3.623" transform="translate(14.131 37.503)" fill="#7eb9c7"/>
          <path id="Trazado_48717" data-name="Trazado 48717" d="M2260.745,1623.529a29.764,29.764,0,1,1,21.047-8.718A29.57,29.57,0,0,1,2260.745,1623.529Zm0-57.192a27.427,27.427,0,0,0-19.394,46.821h0a27.427,27.427,0,1,0,19.394-46.821Z" transform="translate(-2230.981 -1564)" fill="#3d4451"/>
          <path id="Trazado_48718" data-name="Trazado 48718" d="M2282.494,1640.151a24.572,24.572,0,0,1-17.43-7.208h0a24.679,24.679,0,1,1,17.43,7.208Zm0-47.874a23.236,23.236,0,0,0-16.438,39.675h0a23.247,23.247,0,1,0,16.438-39.675Z" transform="translate(-2252.73 -1585.749)" fill="#3d4451"/>
          <path id="Trazado_48719" data-name="Trazado 48719" d="M2492.282,1820.42l-8.49-8.49,5.445-5.445,8.49,8.49Zm-6.8-8.49,6.8,6.8,3.757-3.757-6.8-6.8Z" transform="translate(-2435.57 -1760.232)" fill="#3d4451"/>
          <path id="Trazado_48720" data-name="Trazado 48720" d="M2538.347,1868.119c-.052,0-.1,0-.158,0a3.7,3.7,0,0,1-2.459-1.088l-10.465-10.465a3.574,3.574,0,0,1-1.061-2.441,3.27,3.27,0,0,1,.954-2.423l2.954-2.954a3.27,3.27,0,0,1,2.424-.954,3.574,3.574,0,0,1,2.441,1.06l10.466,10.465a3.7,3.7,0,0,1,1.088,2.46,3.231,3.231,0,0,1-.927,2.46l-2.954,2.954A3.213,3.213,0,0,1,2538.347,1868.119Zm-7.9-19.3a2.251,2.251,0,0,0-1.609.655l-2.954,2.954a2.256,2.256,0,0,0-.654,1.672,2.556,2.556,0,0,0,.761,1.742l10.465,10.465a2.714,2.714,0,0,0,1.779.788,2.215,2.215,0,0,0,1.69-.627l2.954-2.954a2.216,2.216,0,0,0,.627-1.69,2.714,2.714,0,0,0-.788-1.779l-10.466-10.465a2.552,2.552,0,0,0-1.742-.76Z" transform="translate(-2468.271 -1793.657)" fill="#3d4451"/>
          <path id="Trazado_48721" data-name="Trazado 48721" d="M2536.558,1866.751c-.059,0-.118,0-.177,0a4.121,4.121,0,0,1-2.74-1.211l-10.465-10.465a4,4,0,0,1-1.185-2.729,3.688,3.688,0,0,1,1.078-2.733l2.954-2.954a3.689,3.689,0,0,1,2.732-1.078,4,4,0,0,1,2.729,1.184l10.466,10.465a4.12,4.12,0,0,1,1.211,2.74,3.648,3.648,0,0,1-1.05,2.777l-2.954,2.954A3.63,3.63,0,0,1,2536.558,1866.751Zm-7.9-19.3a1.832,1.832,0,0,0-1.311.531l-2.954,2.954a1.837,1.837,0,0,0-.531,1.362,2.135,2.135,0,0,0,.637,1.455l10.465,10.465a2.287,2.287,0,0,0,1.5.665,1.787,1.787,0,0,0,1.374-.5l2.954-2.954a1.8,1.8,0,0,0,.5-1.374,2.288,2.288,0,0,0-.665-1.5l-10.466-10.465a2.132,2.132,0,0,0-1.455-.637Z" transform="translate(-2466.481 -1791.868)" fill="#3d4451"/>
          <path id="Trazado_48722" data-name="Trazado 48722" d="M2551.632,1891.295a.514.514,0,0,1-.363-.15l-9.816-9.816a.513.513,0,0,1,.725-.725l9.816,9.816a.513.513,0,0,1-.363.875Z" transform="translate(-2482.111 -1820.091)" fill="#3d4451"/>
          <g id="Grupo_18862" data-name="Grupo 18862" transform="translate(14.841 15.396)">
            <g id="Grupo_18861" data-name="Grupo 18861">
              <g id="Grupo_18857" data-name="Grupo 18857" transform="translate(15.73)">
                <rect id="Rectángulo_4567" data-name="Rectángulo 4567" width="6.49" height="24.135" transform="translate(0.672 0.672)" fill="#fdc345"/>
                <path id="Trazado_48723" data-name="Trazado 48723" d="M2399.085,1670.194h-7.833v-25.478h7.833Zm-6.49-1.344h5.146V1646.06H2392.6Z" transform="translate(-2391.252 -1644.716)" fill="#3d4451"/>
              </g>
              <g id="Grupo_18858" data-name="Grupo 18858" transform="translate(7.573 8.483)">
                <rect id="Rectángulo_4568" data-name="Rectángulo 4568" width="5.653" height="15.641" transform="translate(0.682 0.682)" fill="#f04f4c"/>
                <path id="Trazado_48724" data-name="Trazado 48724" d="M2355.5,1706.2h-7.017v-17h7.017Zm-5.653-1.364h4.29v-14.278h-4.29Z" transform="translate(-2348.485 -1689.191)" fill="#3d4451"/>
              </g>
              <g id="Grupo_18859" data-name="Grupo 18859" transform="translate(24.716 12.137)">
                <rect id="Rectángulo_4569" data-name="Rectángulo 4569" width="5.177" height="12.025" transform="translate(0.644 0.644)" fill="#c7ddeb"/>
                <path id="Trazado_48725" data-name="Trazado 48725" d="M2444.828,1721.66h-6.466v-13.314h6.466Zm-5.177-1.288h3.889v-10.737h-3.889Z" transform="translate(-2438.362 -1708.346)" fill="#3d4451"/>
              </g>
              <g id="Grupo_18860" data-name="Grupo 18860" transform="translate(0 13.736)">
                <rect id="Rectángulo_4570" data-name="Rectángulo 4570" width="5.15" height="10.428" transform="translate(0.643 0.643)" fill="#7eb9c7"/>
                <path id="Trazado_48726" data-name="Trazado 48726" d="M2315.22,1728.443h-6.435V1716.73h6.435Zm-5.15-1.285h3.866v-9.143h-3.866Z" transform="translate(-2308.785 -1716.73)" fill="#3d4451"/>
              </g>
            </g>
          </g>
        </g>
      </g>
      <g id="Grupo_18869" data-name="Grupo 18869" transform="translate(2248.675 1610.589)">
        <g id="Grupo_18868" data-name="Grupo 18868" transform="translate(0 0)">
          <g id="Grupo_18867" data-name="Grupo 18867">
            <g id="Grupo_18865" data-name="Grupo 18865" transform="translate(4.495)">
              <path id="Trazado_48727" data-name="Trazado 48727" d="M2358.041,1825.922a6.607,6.607,0,1,0-6.257-6.251A6.607,6.607,0,0,0,2358.041,1825.922Z" transform="translate(-2350.922 -1811.865)" fill="#7eb9c7"/>
              <path id="Trazado_48728" data-name="Trazado 48728" d="M2354.757,1823.168q-.187,0-.375-.01h0a7.469,7.469,0,1,1,.375.01Zm-.289-1.712a5.755,5.755,0,1,0-5.449-5.444,5.781,5.781,0,0,0,5.449,5.444Z" transform="translate(-2347.308 -1808.25)" fill="#3d4451"/>
            </g>
            <g id="Grupo_18866" data-name="Grupo 18866" transform="translate(0 13.975)">
              <path id="Trazado_48729" data-name="Trazado 48729" d="M2348.968,1899.45a2.176,2.176,0,0,0,2.129-2.608c-1.145-5.731-5.823-10.859-11.422-10.859s-10.276,5.128-11.421,10.859a2.176,2.176,0,0,0,2.129,2.608Z" transform="translate(-2327.358 -1885.131)" fill="#7eb9c7"/>
              <path id="Trazado_48730" data-name="Trazado 48730" d="M2345.352,1896.687h-18.585a3.028,3.028,0,0,1-2.965-3.627c1.314-6.582,6.584-11.544,12.257-11.544s10.944,4.963,12.258,11.544a3.028,3.028,0,0,1-2.965,3.627Zm-9.293-13.467a9.726,9.726,0,0,0-6.78,3.033,14.018,14.018,0,0,0-3.805,7.141,1.328,1.328,0,0,0,.275,1.107,1.312,1.312,0,0,0,1.018.481h18.585a1.311,1.311,0,0,0,1.018-.481,1.329,1.329,0,0,0,.276-1.107,14.022,14.022,0,0,0-3.805-7.141A9.728,9.728,0,0,0,2336.059,1883.22Z" transform="translate(-2323.743 -1881.516)" fill="#3d4451"/>
            </g>
          </g>
        </g>
      </g>
    </g>
  </g>
</svg>
