<svg xmlns="http://www.w3.org/2000/svg" width="291.556" height="306.129" viewBox="0 0 291.556 306.129">
  <g id="Grupo_20367" data-name="Grupo 20367" transform="translate(-206.739 -50.214)">
    <g id="Grupo_20364" data-name="Grupo 20364" transform="translate(206.739 50.213)">
      <rect id="Rectángulo_5321" data-name="Rectángulo 5321" width="202.266" height="276.994" transform="translate(0 26.083)" fill="#7b4d42"/>
      <rect id="Rectángulo_5322" data-name="Rectángulo 5322" width="202.266" height="276.994" transform="translate(0 26.083)" fill="#7b4d42" style="mix-blend-mode: multiply;isolation: isolate"/>
      <rect id="Rectángulo_5323" data-name="Rectángulo 5323" width="198.5" height="276.994" transform="translate(2.223 26.083)" fill="#7b4d42"/>
      <path id="Trazado_51740" data-name="Trazado 51740" d="M407.2,361.031l-186.115-.741v-253.9l159.727-1.482L407.2,130.548Z" transform="translate(-211.041 -66.61)" fill="#7b4d42" style="mix-blend-mode: multiply;isolation: isolate"/>
      <path id="Trazado_51741" data-name="Trazado 51741" d="M415.248,355.629l-191.3-.741-5.187-250.2H377.744l27.129,26.383Z" transform="translate(-210.342 -66.546)" fill="#fff"/>
      <g id="Grupo_20348" data-name="Grupo 20348" transform="translate(130.547 247.744)">
        <path id="Trazado_51742" data-name="Trazado 51742" d="M393.182,417.627a13.6,13.6,0,1,0,13.6-13.594A13.6,13.6,0,0,0,393.182,417.627Z" transform="translate(-393.182 -404.033)" fill="#fa7561"/>
      </g>
      <path id="Trazado_51743" data-name="Trazado 51743" d="M403.223,420.4a7.109,7.109,0,1,0,7.108-7.107A7.109,7.109,0,0,0,403.223,420.4Z" transform="translate(-265.645 -159.067)" fill="#fff"/>
      <path id="Trazado_51744" data-name="Trazado 51744" d="M401.629,141.52l-175.423-.565-.157-28.652,154.088-.09,21.492,18.865Z" transform="translate(-212.528 -68.801)" fill="#e8e8e8"/>
      <path id="Trazado_51745" data-name="Trazado 51745" d="M472.909,131.022l-24.015,5.953L446.3,104.69Z" transform="translate(-278.559 -66.546)" fill="#b4d0d3"/>
      <path id="Trazado_51746" data-name="Trazado 51746" d="M419.141,214.041a2.807,2.807,0,0,1-2.712,2.893l-123.778.337a2.8,2.8,0,0,1-2.722-2.879h0a2.81,2.81,0,0,1,2.714-2.892l123.776-.337a2.8,2.8,0,0,1,2.722,2.877Z" transform="translate(-231.679 -98.467)" fill="#e8e8e8"/>
      <path id="Trazado_51747" data-name="Trazado 51747" d="M422.01,235.722a2.805,2.805,0,0,1-2.711,2.893l-123.778.337a2.8,2.8,0,0,1-2.722-2.876h0a2.811,2.811,0,0,1,2.713-2.893l123.777-.336a2.8,2.8,0,0,1,2.721,2.876Z" transform="translate(-232.54 -104.967)" fill="#e8e8e8"/>
      <path id="Trazado_51748" data-name="Trazado 51748" d="M388.126,258.752c0,1.594-.9,2.888-2.015,2.89l-91.985.251c-1.115,0-2.022-1.286-2.024-2.879h0c0-1.592.9-2.887,2.014-2.891l91.987-.25c1.115,0,2.021,1.288,2.024,2.879Z" transform="translate(-232.331 -111.87)" fill="#e8e8e8"/>
      <path id="Trazado_51749" data-name="Trazado 51749" d="M378.119,190.482c0,2.144-1.4,3.883-3.131,3.885l-81.432.141c-1.732,0-3.137-1.733-3.14-3.876h0c0-2.143,1.4-3.883,3.131-3.886l81.431-.139c1.732,0,3.138,1.732,3.14,3.875Z" transform="translate(-231.825 -91.104)" fill="#bcbcbc"/>
      <path id="Trazado_51750" data-name="Trazado 51750" d="M422.846,309.809a2.807,2.807,0,0,1-2.712,2.892l-123.778.338a2.8,2.8,0,0,1-2.722-2.877h0a2.809,2.809,0,0,1,2.714-2.893l123.777-.337a2.8,2.8,0,0,1,2.721,2.877Z" transform="translate(-232.79 -127.178)" fill="#e8e8e8"/>
      <path id="Trazado_51751" data-name="Trazado 51751" d="M425.717,333.61A2.809,2.809,0,0,1,423,336.5l-123.777.336a2.8,2.8,0,0,1-2.722-2.876h0a2.81,2.81,0,0,1,2.713-2.893L423,330.73a2.8,2.8,0,0,1,2.722,2.88Z" transform="translate(-233.651 -134.313)" fill="#e8e8e8"/>
      <path id="Trazado_51752" data-name="Trazado 51752" d="M391.831,356.638c0,1.592-.9,2.888-2.017,2.888l-91.985.251c-1.115,0-2.021-1.285-2.024-2.879h0c0-1.59.9-2.885,2.015-2.892l91.985-.249c1.116,0,2.022,1.287,2.025,2.879Z" transform="translate(-233.441 -141.217)" fill="#e8e8e8"/>
      <path id="Trazado_51753" data-name="Trazado 51753" d="M381.825,286.25c0,2.143-1.4,3.883-3.131,3.887l-81.432.139c-1.732,0-3.138-1.734-3.14-3.876h0c0-2.143,1.4-3.882,3.131-3.885l81.431-.141c1.731,0,3.138,1.734,3.141,3.876Z" transform="translate(-232.936 -119.815)" fill="#bcbcbc"/>
      <path id="Trazado_51754" data-name="Trazado 51754" d="M472.815,131.074l-27.431.139.3-26.522Z" transform="translate(-278.285 -66.546)" fill="#f9ecd7"/>
      <path id="Trazado_51755" data-name="Trazado 51755" d="M309.906,436.9a.424.424,0,0,1-.424.424H242.8a.424.424,0,0,1-.425-.424h0a.424.424,0,0,1,.425-.424h66.684a.424.424,0,0,1,.424.424Z" transform="translate(-217.422 -166.016)" fill="#283042"/>
      <g id="Grupo_20349" data-name="Grupo 20349" transform="translate(133.383 244.865)">
        <path id="Trazado_51756" data-name="Trazado 51756" d="M423.072,423.331l-1.477-.7a14.644,14.644,0,0,0,1.407-6.3,14.78,14.78,0,0,0-24.678-10.977l-1.092-1.211a16.415,16.415,0,0,1,25.84,19.187Z" transform="translate(-397.232 -399.921)" fill="#283042"/>
      </g>
      <g id="Grupo_20350" data-name="Grupo 20350" transform="translate(127.962 254.899)">
        <path id="Trazado_51757" data-name="Trazado 51757" d="M405.9,437.042a16.423,16.423,0,0,1-15.128-22.791l1.5.634A14.789,14.789,0,0,0,405.9,435.408a14.866,14.866,0,0,0,3.7-.466l.408,1.58A16.515,16.515,0,0,1,405.9,437.042Z" transform="translate(-389.49 -414.251)" fill="#283042"/>
      </g>
      <g id="Grupo_20351" data-name="Grupo 20351" transform="translate(139.557 253.711)">
        <path id="Trazado_51758" data-name="Trazado 51758" d="M410.867,431.415a11.19,11.19,0,0,1-4.818-1.077l.7-1.476a9.664,9.664,0,0,0,11.295-15.214l1.212-1.093a11.295,11.295,0,0,1-8.386,18.86Z" transform="translate(-406.049 -412.555)" fill="#283042"/>
      </g>
      <g id="Grupo_20352" data-name="Grupo 20352" transform="translate(133.079 249.981)">
        <path id="Trazado_51759" data-name="Trazado 51759" d="M397.156,421.348a11.3,11.3,0,0,1,15.327-13.234l-.635,1.5a9.67,9.67,0,0,0-13.111,11.323Z" transform="translate(-396.798 -407.228)" fill="#283042"/>
      </g>
      <g id="Grupo_20353" data-name="Grupo 20353" transform="translate(22.148 94.584)">
        <path id="Trazado_51760" data-name="Trazado 51760" d="M238.37,208.518V185.295h23.223v23.223Zm19.963-3.26v-16.7h-16.7v16.7Z" transform="translate(-238.37 -185.295)" fill="#fa7561"/>
        <path id="Trazado_51761" data-name="Trazado 51761" d="M261.074,208H239.667V186.592h21.407Zm-19.963-1.445h18.517V188.036H241.111Z" transform="translate(-238.759 -185.684)" fill="#fa7561"/>
      </g>
      <g id="Grupo_20354" data-name="Grupo 20354" transform="translate(25.464 98.972)">
        <path id="Trazado_51762" data-name="Trazado 51762" d="M243.106,198.257l2.3-2.3,4.717,4.717,7.041-9.106,2.579,1.994-9.306,12.035Z" transform="translate(-243.106 -191.563)" fill="#fa7561"/>
        <path id="Trazado_51763" data-name="Trazado 51763" d="M250.9,204.766,244.94,198.8l1.021-1.021,4.8,4.8,7.116-9.2,1.142.883Z" transform="translate(-243.656 -192.108)" fill="#fa7561"/>
      </g>
      <g id="Grupo_20355" data-name="Grupo 20355" transform="translate(23.566 129.746)">
        <path id="Trazado_51764" data-name="Trazado 51764" d="M240.4,258.735V235.512h23.223v23.223Zm19.963-3.26v-16.7h-16.7v16.7Z" transform="translate(-240.395 -235.512)" fill="#fa7561"/>
        <path id="Trazado_51765" data-name="Trazado 51765" d="M263.1,258.216H241.692V236.809H263.1Zm-19.962-1.444h18.517v-18.52H243.137Z" transform="translate(-240.784 -235.901)" fill="#fa7561"/>
      </g>
      <g id="Grupo_20356" data-name="Grupo 20356" transform="translate(26.883 134.133)">
        <path id="Trazado_51766" data-name="Trazado 51766" d="M245.132,248.474l2.3-2.305,4.717,4.715,7.041-9.106,2.578,2-9.305,12.035Z" transform="translate(-245.132 -241.777)" fill="#fa7561"/>
        <path id="Trazado_51767" data-name="Trazado 51767" d="M252.928,254.982l-5.964-5.963L247.986,248l4.8,4.8,7.115-9.2,1.142.885Z" transform="translate(-245.681 -242.323)" fill="#fa7561"/>
      </g>
      <g id="Grupo_20357" data-name="Grupo 20357" transform="translate(25.127 163.516)">
        <path id="Trazado_51768" data-name="Trazado 51768" d="M242.624,306.962V283.741h23.223v23.221Zm19.963-3.259V287h-16.7v16.7Z" transform="translate(-242.624 -283.741)" fill="#fa7561"/>
        <path id="Trazado_51769" data-name="Trazado 51769" d="M265.328,306.444H243.92V285.037h21.408ZM245.365,305h18.517V286.482H245.365Z" transform="translate(-243.013 -284.13)" fill="#fa7561"/>
      </g>
      <g id="Grupo_20358" data-name="Grupo 20358" transform="translate(28.443 167.902)">
        <path id="Trazado_51770" data-name="Trazado 51770" d="M247.359,296.7l2.306-2.3,4.716,4.716,7.04-9.106L264,292l-9.306,12.035Z" transform="translate(-247.359 -290.006)" fill="#fa7561"/>
        <path id="Trazado_51771" data-name="Trazado 51771" d="M255.158,303.211l-5.965-5.966,1.022-1.018,4.8,4.8,7.116-9.2,1.142.884Z" transform="translate(-247.909 -290.552)" fill="#fa7561"/>
      </g>
      <g id="Grupo_20359" data-name="Grupo 20359" transform="translate(26.545 198.113)">
        <path id="Trazado_51772" data-name="Trazado 51772" d="M244.65,356.373V333.152h23.223v23.221Zm19.963-3.258v-16.7h-16.7v16.7Z" transform="translate(-244.65 -333.152)" fill="#fa7561"/>
        <path id="Trazado_51773" data-name="Trazado 51773" d="M267.354,355.856H245.946V334.449h21.408Zm-19.963-1.445h18.518V335.9H247.391Z" transform="translate(-245.039 -333.541)" fill="#fa7561"/>
      </g>
      <g id="Grupo_20360" data-name="Grupo 20360" transform="translate(29.862 202.501)">
        <path id="Trazado_51774" data-name="Trazado 51774" d="M249.387,346.116l2.3-2.309,4.717,4.716,7.04-9.1,2.58,1.993-9.306,12.037Z" transform="translate(-249.387 -339.419)" fill="#fa7561"/>
        <path id="Trazado_51775" data-name="Trazado 51775" d="M257.183,352.623l-5.964-5.963,1.021-1.023,4.8,4.8,7.115-9.2,1.143.883Z" transform="translate(-249.936 -339.964)" fill="#fa7561"/>
      </g>
      <g id="Grupo_20361" data-name="Grupo 20361" transform="translate(28.778 244.494)">
        <path id="Trazado_51776" data-name="Trazado 51776" d="M249.71,417.4c2.941-2.825,6.1.422,9.587-.536q-.688-.525-1.377-1.05c-.172,3.078.637,6.127,4.271,5.9,3.033-.193,7.1-3.014,9.872-.875a1.087,1.087,0,0,0,1.489-.39c.692-1.384,1.768-2.5,2.014-4.072q-.8.329-1.6.65c3.127,1.942,7.052,4.131,10.889,3.417a9.641,9.641,0,0,0,7.127-6.147c1.382-3.391,4.275-14.474-2.108-14.895-5.808-.382-6.214,9.615-5.424,13.419,1.761,8.514,12.122,7.881,18.634,7.077,1.375-.169,1.392-2.348,0-2.178-5.1.632-12.3,1.748-15.6-3.264-2.07-3.135-1.641-9.893,1.059-12.539,2.22-2.178,3.035,2.479,3.043,3.654a23,23,0,0,1-1.384,7.28,7.8,7.8,0,0,1-5.273,5.373c-3.358.954-7.153-1.393-9.864-3.074a1.093,1.093,0,0,0-1.6.649c-.214,1.366-1.192,2.346-1.8,3.549q.745-.193,1.489-.391c-2.128-1.643-4.889-1.005-7.271-.347a20.473,20.473,0,0,1-4.084.949c-2.027.13-1.788-2.353-1.711-3.743a1.1,1.1,0,0,0-1.377-1.05c-2.054.564-3.6-.6-5.574-.858a5.721,5.721,0,0,0-4.974,1.956c-1.013.976.528,2.512,1.54,1.54Z" transform="translate(-247.839 -399.391)" fill="#283042"/>
      </g>
      <path id="Trazado_51777" data-name="Trazado 51777" d="M389.311,98.737v10.885L265.4,108.14l-2.224-.741,2.224-8.662a14.955,14.955,0,0,1,14.954-14.956l91.781-2.222c8.26,0,17.179,8.918,17.179,17.178Z" transform="translate(-223.658 -59.611)" fill="#b4d0d3" style="mix-blend-mode: multiply;isolation: isolate"/>
      <path id="Trazado_51778" data-name="Trazado 51778" d="M372.133,72.211c-29.23,0-30.429-8.129-30.831-9.568A16.792,16.792,0,0,0,309,62.521c-.424,1.475-2.855,9.69-30.867,9.69h0a14.954,14.954,0,0,0-14.955,14.955V98.051H387.088V87.165A14.954,14.954,0,0,0,372.133,72.211Zm-47-17.866a6.56,6.56,0,1,1-6.561,6.56A6.559,6.559,0,0,1,325.132,54.344Z" transform="translate(-223.658 -50.263)" fill="#ffc55e"/>
      <path id="Trazado_51779" data-name="Trazado 51779" d="M399,72.162c-29.231,0-30.429-8.129-30.831-9.568A16.789,16.789,0,0,0,352.8,50.362c.045.213.08-.313.1-.095,6.632.609,10.028,5.519,11.615,9.591,1.927,4.941,3.414,9.819,11.284,11.856,5.205,1.348,10.289,2.393,25.483,4.546.81.116,6.339,1.386,6.339,7.147,0,11.243,1.905,14.594-5.188,14.594h11.522V87.116A14.954,14.954,0,0,0,399,72.162Z" transform="translate(-250.529 -50.213)" fill="#ffc55e" style="mix-blend-mode: multiply;isolation: isolate"/>
      <path id="Trazado_51780" data-name="Trazado 51780" d="M263.174,109.905V115.9H387.088v-5.992Z" transform="translate(-223.658 -68.109)" fill="#ffc55e" style="mix-blend-mode: multiply;isolation: isolate"/>
      <g id="Grupo_20362" data-name="Grupo 20362" transform="translate(94.913 4.082)">
        <path id="Trazado_51781" data-name="Trazado 51781" d="M348.851,69.163a6.56,6.56,0,1,0-6.561-6.56A6.56,6.56,0,0,0,348.851,69.163Z" transform="translate(-342.29 -56.043)" fill="none"/>
      </g>
      <g id="Grupo_20363" data-name="Grupo 20363" transform="translate(95.121 11.535)" style="mix-blend-mode: multiply;isolation: isolate">
        <path id="Trazado_51782" data-name="Trazado 51782" d="M347.536,67.273a4.678,4.678,0,0,1-4.949.134,6.545,6.545,0,0,0,9.328,4.229,16.7,16.7,0,0,0-1.515-2.458,8.371,8.371,0,0,0-1.746-2c-.311-.2-.291-.384-.236-.487A6.089,6.089,0,0,1,347.536,67.273Z" transform="translate(-342.587 -66.688)" fill="none"/>
      </g>
      <path id="Trazado_51783" data-name="Trazado 51783" d="M310.941,72.125c-11.78,6.3-29.933,5.556-29.933,5.556,1.627,0,21.018,1.726,31.161-2.949C320.388,70.944,320.2,63.3,317.81,63.3,316.184,63.3,316.737,69.026,310.941,72.125Z" transform="translate(-229.005 -54.135)" fill="#fff" opacity="0.3"/>
    </g>
    <g id="Grupo_20366" data-name="Grupo 20366" transform="translate(388.912 200.846)">
      <path id="Rectángulo_5324" data-name="Rectángulo 5324" d="M11.681,0H95.658a11.681,11.681,0,0,1,11.681,11.681V143.815A11.682,11.682,0,0,1,95.657,155.5H11.678A11.678,11.678,0,0,1,0,143.819V11.681A11.681,11.681,0,0,1,11.681,0Z"/>
      <path id="Rectángulo_5325" data-name="Rectángulo 5325" d="M11.681,0H95.66a11.679,11.679,0,0,1,11.679,11.679V143.815A11.682,11.682,0,0,1,95.657,155.5H11.679A11.679,11.679,0,0,1,0,143.818V11.681A11.681,11.681,0,0,1,11.681,0Z" transform="translate(2.045)" fill="#303e49"/>
      <path id="Rectángulo_5326" data-name="Rectángulo 5326" d="M11.679,0H81.462A11.679,11.679,0,0,1,93.141,11.679v2.767A11.679,11.679,0,0,1,81.462,26.124H11.68A11.68,11.68,0,0,1,0,14.444V11.679A11.679,11.679,0,0,1,11.679,0Z" transform="translate(9.144 10.905)" fill="#83ffff"/>
      <path id="Trazado_51784" data-name="Trazado 51784" d="M500.365,344.523a3.487,3.487,0,0,1-3.487,3.488H484.432a3.486,3.486,0,0,1-3.486-3.488h0a3.485,3.485,0,0,1,3.486-3.486h12.446a3.487,3.487,0,0,1,3.487,3.486Z" transform="translate(-471.12 -288.035)"/>
      <path id="Trazado_51785" data-name="Trazado 51785" d="M534.944,344.523a3.486,3.486,0,0,1-3.486,3.488H519.012a3.488,3.488,0,0,1-3.488-3.488h0a3.487,3.487,0,0,1,3.488-3.486h12.445a3.486,3.486,0,0,1,3.486,3.486Z" transform="translate(-481.486 -288.035)"/>
      <path id="Trazado_51786" data-name="Trazado 51786" d="M570.356,344.523a3.486,3.486,0,0,1-3.487,3.488H554.423a3.486,3.486,0,0,1-3.486-3.488h0a3.485,3.485,0,0,1,3.486-3.486h12.446a3.485,3.485,0,0,1,3.487,3.486Z" transform="translate(-492.103 -288.035)"/>
      <path id="Trazado_51787" data-name="Trazado 51787" d="M606.079,344.523a3.487,3.487,0,0,1-3.487,3.488H590.145a3.488,3.488,0,0,1-3.487-3.488h0a3.487,3.487,0,0,1,3.487-3.486h12.447a3.487,3.487,0,0,1,3.487,3.486Z" transform="translate(-502.812 -288.035)"/>
      <path id="Rectángulo_5327" data-name="Rectángulo 5327" d="M7.785,0h3.849a7.784,7.784,0,0,1,7.784,7.784V9.251a7.786,7.786,0,0,1-7.786,7.786H7.786A7.786,7.786,0,0,1,0,9.251V7.785A7.785,7.785,0,0,1,7.785,0Z" transform="translate(9.827 65.199)"/>
      <path id="Trazado_51788" data-name="Trazado 51788" d="M534.944,370.042c0,4.516-.935,5.451-5.452,5.451h-8.517c-4.516,0-5.452-.252-5.452-4.769v-6.816c0-4.515.935-5.452,5.452-5.452h8.517c4.517,0,5.452.937,5.452,5.452Z" transform="translate(-481.486 -293.257)"/>
      <path id="Rectángulo_5328" data-name="Rectángulo 5328" d="M7.785,0h3.848A7.786,7.786,0,0,1,19.42,7.786V9.251a7.786,7.786,0,0,1-7.786,7.786H7.787A7.787,7.787,0,0,1,0,9.25V7.785A7.785,7.785,0,0,1,7.785,0Z" transform="translate(58.834 65.199)"/>
      <path id="Trazado_51789" data-name="Trazado 51789" d="M606.079,370.042c0,4.516-.936,5.451-5.453,5.451H592.11c-4.517,0-5.452-.252-5.452-4.769v-6.816c0-4.515.935-5.452,5.452-5.452h8.516c4.517,0,5.453.937,5.453,5.452Z" transform="translate(-502.812 -293.257)"/>
      <path id="Rectángulo_5329" data-name="Rectángulo 5329" d="M7.786,0h3.849a7.784,7.784,0,0,1,7.784,7.784V9.252a7.787,7.787,0,0,1-7.787,7.787H7.786A7.786,7.786,0,0,1,0,9.253V7.786A7.786,7.786,0,0,1,7.786,0Z" transform="translate(9.827 87.235)"/>
      <path id="Rectángulo_5330" data-name="Rectángulo 5330" d="M7.788,0h3.845A7.786,7.786,0,0,1,19.42,7.786V9.252a7.787,7.787,0,0,1-7.787,7.787H7.786A7.786,7.786,0,0,1,0,9.253V7.788A7.788,7.788,0,0,1,7.788,0Z" transform="translate(34.038 87.235)"/>
      <path id="Rectángulo_5331" data-name="Rectángulo 5331" d="M7.788,0h3.845A7.786,7.786,0,0,1,19.42,7.786V9.252a7.787,7.787,0,0,1-7.787,7.787H7.787A7.787,7.787,0,0,1,0,9.252V7.788A7.788,7.788,0,0,1,7.788,0Z" transform="translate(58.834 87.235)"/>
      <path id="Rectángulo_5332" data-name="Rectángulo 5332" d="M7.788,0h3.846A7.786,7.786,0,0,1,19.42,7.786V9.252a7.787,7.787,0,0,1-7.787,7.787H7.787A7.787,7.787,0,0,1,0,9.252V7.788A7.788,7.788,0,0,1,7.788,0Z" transform="translate(83.846 87.235)"/>
      <path id="Rectángulo_5333" data-name="Rectángulo 5333" d="M7.785,0h3.85a7.784,7.784,0,0,1,7.784,7.784V9.251a7.787,7.787,0,0,1-7.787,7.787H7.786A7.786,7.786,0,0,1,0,9.252V7.785A7.785,7.785,0,0,1,7.785,0Z" transform="translate(9.827 108.134)"/>
      <path id="Rectángulo_5334" data-name="Rectángulo 5334" d="M7.785,0h3.848A7.786,7.786,0,0,1,19.42,7.786V9.251a7.787,7.787,0,0,1-7.787,7.787H7.787A7.787,7.787,0,0,1,0,9.251V7.785A7.785,7.785,0,0,1,7.785,0Z" transform="translate(34.038 108.134)"/>
      <path id="Rectángulo_5335" data-name="Rectángulo 5335" d="M7.785,0h3.848A7.786,7.786,0,0,1,19.42,7.786V9.251a7.787,7.787,0,0,1-7.787,7.787H7.787A7.787,7.787,0,0,1,0,9.251V7.785A7.785,7.785,0,0,1,7.785,0Z" transform="translate(58.834 108.134)"/>
      <path id="Rectángulo_5336" data-name="Rectángulo 5336" d="M7.787,0h3.847A7.786,7.786,0,0,1,19.42,7.786V31.061a7.786,7.786,0,0,1-7.786,7.786H7.787A7.787,7.787,0,0,1,0,31.06V7.787A7.787,7.787,0,0,1,7.787,0Z" transform="translate(83.846 108.134)"/>
      <path id="Rectángulo_5337" data-name="Rectángulo 5337" d="M7.788,0h3.847a7.784,7.784,0,0,1,7.784,7.784V9.252a7.786,7.786,0,0,1-7.786,7.786H7.786A7.786,7.786,0,0,1,0,9.252V7.788A7.788,7.788,0,0,1,7.788,0Z" transform="translate(9.827 130.171)"/>
      <path id="Trazado_51790" data-name="Trazado 51790" d="M534.944,462.832c0,4.517-.935,5.453-5.452,5.453h-8.517c-4.516,0-5.452-.254-5.452-4.77V456.7c0-4.516.935-5.452,5.452-5.452h8.517c4.517,0,5.452.936,5.452,5.452Z" transform="translate(-481.486 -321.076)"/>
      <path id="Trazado_51791" data-name="Trazado 51791" d="M570.356,462.832c0,4.517-.936,5.453-5.453,5.453h-8.515c-4.518,0-5.452-.254-5.452-4.77V456.7c0-4.516.935-5.452,5.452-5.452H564.9c4.516,0,5.453.936,5.453,5.452Z" transform="translate(-492.103 -321.076)"/>
      <path id="Trazado_51792" data-name="Trazado 51792" d="M499.391,343.548a3.488,3.488,0,0,1-3.486,3.488H483.458a3.488,3.488,0,0,1-3.486-3.488h0a3.487,3.487,0,0,1,3.486-3.485H495.9a3.486,3.486,0,0,1,3.486,3.485Z" transform="translate(-470.827 -287.743)" fill="#515b6b"/>
      <path id="Trazado_51793" data-name="Trazado 51793" d="M533.972,343.548a3.489,3.489,0,0,1-3.488,3.488H518.038a3.488,3.488,0,0,1-3.487-3.488h0a3.486,3.486,0,0,1,3.487-3.485h12.445a3.488,3.488,0,0,1,3.488,3.485Z" transform="translate(-481.194 -287.743)" fill="#515b6b"/>
      <path id="Trazado_51794" data-name="Trazado 51794" d="M569.383,343.548a3.487,3.487,0,0,1-3.487,3.488H553.449a3.487,3.487,0,0,1-3.486-3.488h0a3.486,3.486,0,0,1,3.486-3.485H565.9a3.486,3.486,0,0,1,3.487,3.485Z" transform="translate(-491.811 -287.743)" fill="#515b6b"/>
      <path id="Trazado_51795" data-name="Trazado 51795" d="M605.106,343.548a3.488,3.488,0,0,1-3.488,3.488H589.173a3.489,3.489,0,0,1-3.488-3.488h0a3.487,3.487,0,0,1,3.488-3.485h12.445a3.487,3.487,0,0,1,3.488,3.485Z" transform="translate(-502.52 -287.743)" fill="#fa7561"/>
      <path id="Rectángulo_5338" data-name="Rectángulo 5338" d="M7.786,0h3.848a7.785,7.785,0,0,1,7.785,7.785V9.252a7.787,7.787,0,0,1-7.787,7.787H7.786A7.786,7.786,0,0,1,0,9.252V7.786A7.786,7.786,0,0,1,7.786,0Z" transform="translate(9.144 64.517)" fill="#515b6b"/>
      <path id="Rectángulo_5339" data-name="Rectángulo 5339" d="M7.788,0h3.846a7.787,7.787,0,0,1,7.787,7.787V9.252a7.787,7.787,0,0,1-7.787,7.787H7.788A7.788,7.788,0,0,1,0,9.251V7.788A7.788,7.788,0,0,1,7.788,0Z" transform="translate(33.357 64.517)" fill="#515b6b"/>
      <path id="Trazado_51796" data-name="Trazado 51796" d="M569.383,369.069c0,4.515-.935,5.452-5.453,5.452h-8.515c-4.516,0-5.452-.254-5.452-4.77v-6.815c0-4.516.936-5.453,5.452-5.453h8.515c4.518,0,5.453.937,5.453,5.453Z" transform="translate(-491.811 -292.965)" fill="#515b6b"/>
      <path id="Rectángulo_5340" data-name="Rectángulo 5340" d="M7.786,0h3.846a7.789,7.789,0,0,1,7.789,7.789V9.25a7.789,7.789,0,0,1-7.789,7.789H7.786A7.786,7.786,0,0,1,0,9.253V7.786A7.786,7.786,0,0,1,7.786,0Z" transform="translate(83.164 64.517)" fill="#515b6b"/>
      <path id="Trazado_51797" data-name="Trazado 51797" d="M499.391,400.539c0,4.517-.934,5.454-5.452,5.454h-8.516c-4.518,0-5.451-.255-5.451-4.771v-6.816c0-4.516.933-5.452,5.451-5.452h8.516c4.518,0,5.452.936,5.452,5.452Z" transform="translate(-470.827 -302.4)" fill="#515b6b"/>
      <path id="Rectángulo_5341" data-name="Rectángulo 5341" d="M7.789,0h3.845a7.787,7.787,0,0,1,7.787,7.787V9.253a7.786,7.786,0,0,1-7.786,7.786H7.788A7.788,7.788,0,0,1,0,9.251V7.789A7.789,7.789,0,0,1,7.789,0Z" transform="translate(33.357 86.554)" fill="#515b6b"/>
      <path id="Rectángulo_5342" data-name="Rectángulo 5342" d="M7.789,0h3.845a7.787,7.787,0,0,1,7.787,7.787V9.253a7.786,7.786,0,0,1-7.786,7.786H7.788A7.788,7.788,0,0,1,0,9.251V7.789A7.789,7.789,0,0,1,7.789,0Z" transform="translate(58.151 86.554)" fill="#515b6b"/>
      <path id="Rectángulo_5343" data-name="Rectángulo 5343" d="M7.789,0h3.843a7.789,7.789,0,0,1,7.789,7.789V9.253a7.786,7.786,0,0,1-7.786,7.786H7.786A7.786,7.786,0,0,1,0,9.253V7.789A7.789,7.789,0,0,1,7.789,0Z" transform="translate(83.164 86.554)" fill="#515b6b"/>
      <path id="Rectángulo_5344" data-name="Rectángulo 5344" d="M7.788,0h3.846a7.785,7.785,0,0,1,7.785,7.785V9.252a7.787,7.787,0,0,1-7.787,7.787H7.786A7.786,7.786,0,0,1,0,9.253V7.788A7.788,7.788,0,0,1,7.788,0Z" transform="translate(9.144 107.453)" fill="#515b6b"/>
      <path id="Rectángulo_5345" data-name="Rectángulo 5345" d="M7.788,0h3.846a7.787,7.787,0,0,1,7.787,7.787V9.252a7.787,7.787,0,0,1-7.787,7.787H7.788A7.788,7.788,0,0,1,0,9.251V7.788A7.788,7.788,0,0,1,7.788,0Z" transform="translate(33.357 107.453)" fill="#515b6b"/>
      <path id="Rectángulo_5346" data-name="Rectángulo 5346" d="M7.788,0h3.846a7.787,7.787,0,0,1,7.787,7.787V9.252a7.787,7.787,0,0,1-7.787,7.787H7.788A7.788,7.788,0,0,1,0,9.251V7.788A7.788,7.788,0,0,1,7.788,0Z" transform="translate(58.151 107.453)" fill="#515b6b"/>
      <path id="Rectángulo_5347" data-name="Rectángulo 5347" d="M7.786,0h3.846a7.789,7.789,0,0,1,7.789,7.789V31.06a7.787,7.787,0,0,1-7.787,7.787H7.786A7.786,7.786,0,0,1,0,31.061V7.786A7.786,7.786,0,0,1,7.786,0Z" transform="translate(83.164 107.453)" fill="#515b6b"/>
      <path id="Rectángulo_5348" data-name="Rectángulo 5348" d="M7.786,0h3.848a7.785,7.785,0,0,1,7.785,7.785V9.252a7.786,7.786,0,0,1-7.786,7.786H7.786A7.786,7.786,0,0,1,0,9.252V7.786A7.786,7.786,0,0,1,7.786,0Z" transform="translate(9.144 129.489)" fill="#515b6b"/>
      <path id="Rectángulo_5349" data-name="Rectángulo 5349" d="M7.788,0h3.846a7.787,7.787,0,0,1,7.787,7.787V9.252a7.786,7.786,0,0,1-7.786,7.786H7.788A7.788,7.788,0,0,1,0,9.25V7.788A7.788,7.788,0,0,1,7.788,0Z" transform="translate(33.357 129.489)" fill="#515b6b"/>
      <path id="Rectángulo_5350" data-name="Rectángulo 5350" d="M7.786,0h3.848a7.787,7.787,0,0,1,7.787,7.787V9.252a7.786,7.786,0,0,1-7.786,7.786H7.788A7.788,7.788,0,0,1,0,9.25V7.786A7.786,7.786,0,0,1,7.786,0Z" transform="translate(58.151 129.489)" fill="#515b6b"/>
      <g id="Grupo_20365" data-name="Grupo 20365" transform="translate(50.959 13.433)">
        <path id="Trazado_51798" data-name="Trazado 51798" d="M592.813,288.458l-.482-.483.179-.181h-3.539l.178.181-.481.483-.125-.127v7.159h4.4v-7.159Z" transform="translate(-554.336 -285.505)" fill="none"/>
        <path id="Trazado_51799" data-name="Trazado 51799" d="M588.543,306.83l.125-.126.481.482-.266.266H592.6l-.267-.266.482-.482.127.128v-7.073h-4.4Z" transform="translate(-554.336 -289.092)" fill="none"/>
        <path id="Trazado_51800" data-name="Trazado 51800" d="M561.666,288.458l-.483-.483.181-.181h-3.541l.179.181-.482.483-.125-.127v7.159h4.4v-7.159Z" transform="translate(-544.998 -285.505)" fill="none"/>
        <path id="Trazado_51801" data-name="Trazado 51801" d="M557.521,306.7l.482.482-.266.266h3.714l-.267-.266.483-.482.127.128v-7.073h-4.4v7.071Z" transform="translate(-544.998 -289.092)" fill="none"/>
        <path id="Trazado_51802" data-name="Trazado 51802" d="M577.24,288.458l-.482-.483.18-.181H573.4l.18.181-.483.483-.126-.127v7.159h4.4v-7.159Z" transform="translate(-549.667 -285.505)" fill="none"/>
        <path id="Trazado_51803" data-name="Trazado 51803" d="M573.094,306.7l.483.482-.268.266h3.715l-.267-.266.482-.482.127.128v-7.073h-4.4v7.071Z" transform="translate(-549.667 -289.092)" fill="none"/>
        <path id="Trazado_51804" data-name="Trazado 51804" d="M547.937,287.153v-1.5h-6.2l1.5,1.5Z" transform="translate(-540.302 -284.865)"/>
        <path id="Trazado_51805" data-name="Trazado 51805" d="M542.193,287.581l-1.647-1.649-.208,8.1,1.678-1.678Z" transform="translate(-539.884 -284.947)"/>
        <path id="Trazado_51806" data-name="Trazado 51806" d="M546.6,295.784h-3.806l-1.5,1.5h4.478l1.393-1.391A1.449,1.449,0,0,0,546.6,295.784Z" transform="translate(-540.17 -287.901)"/>
        <path id="Trazado_51807" data-name="Trazado 51807" d="M550.076,306.634v-9.271a1.346,1.346,0,0,0-.251-.819l-1.442,1.442V306l1.448,1.447A1.359,1.359,0,0,0,550.076,306.634Z" transform="translate(-542.296 -288.129)"/>
        <path id="Trazado_51808" data-name="Trazado 51808" d="M541.95,304.048h-1.694v4.836a1.374,1.374,0,0,0,.213.774l1.482-1.48Z" transform="translate(-539.859 -290.378)"/>
        <path id="Trazado_51809" data-name="Trazado 51809" d="M542.666,310.746l-1.368,1.368a1.441,1.441,0,0,0,.612.131H546.6a1.472,1.472,0,0,0,.573-.111l-1.386-1.388Z" transform="translate(-540.172 -292.386)"/>
        <path id="Trazado_51810" data-name="Trazado 51810" d="M557.308,310.746l-1.343,1.343a1.408,1.408,0,0,0,.66.156h5.057a1.432,1.432,0,0,0,.676-.161l-1.337-1.338Z" transform="translate(-544.569 -292.386)"/>
        <path id="Trazado_51811" data-name="Trazado 51811" d="M556.67,299.759h-1.694V307.6a1.4,1.4,0,0,0,.193.734l1.5-1.5Z" transform="translate(-544.272 -289.092)"/>
        <path id="Trazado_51812" data-name="Trazado 51812" d="M560.96,287.153l1.365-1.365a1.459,1.459,0,0,0-.619-.131h-5.057a1.442,1.442,0,0,0-.6.125l1.374,1.371Z" transform="translate(-544.593 -284.865)"/>
        <path id="Trazado_51813" data-name="Trazado 51813" d="M556.67,287.932l-1.47-1.469a1.387,1.387,0,0,0-.223.787v7.841h1.694Z" transform="translate(-544.272 -285.106)"/>
        <path id="Trazado_51814" data-name="Trazado 51814" d="M563.676,295.092h1.694v-7.841a1.358,1.358,0,0,0-.229-.784l-1.466,1.466Z" transform="translate(-546.881 -285.108)"/>
        <path id="Trazado_51815" data-name="Trazado 51815" d="M563.676,306.832l1.5,1.5a1.356,1.356,0,0,0,.2-.73v-7.839h-1.694Z" transform="translate(-546.881 -289.092)"/>
        <path id="Trazado_51816" data-name="Trazado 51816" d="M562.806,286.995l.483.483.127-.127,1.465-1.466.878-.879-.483-.481-.924.923-1.365,1.365Z" transform="translate(-546.62 -284.525)" fill="#14dded"/>
        <path id="Trazado_51817" data-name="Trazado 51817" d="M542.641,295.1l-.481-.481-.339.337-1.678,1.678-.453.455.481.481.642-.641,1.5-1.5Z" transform="translate(-539.689 -287.553)" fill="#14dded"/>
        <path id="Trazado_51818" data-name="Trazado 51818" d="M542.641,309.886l-.481-.481-.38.38-1.482,1.48-.609.611.481.482.646-.645,1.368-1.368Z" transform="translate(-539.689 -291.984)" fill="#14dded"/>
        <path id="Trazado_51819" data-name="Trazado 51819" d="M549.635,295.88l-.482-.482-.374.376-1.392,1.391-.7.7.482.481.709-.708,1.442-1.441Z" transform="translate(-541.786 -287.785)" fill="#14dded"/>
        <path id="Trazado_51820" data-name="Trazado 51820" d="M556.517,287.478l.482-.483-.179-.181-1.374-1.371-.916-.918-.483.481.874.876,1.471,1.469Z" transform="translate(-543.994 -284.525)" fill="#14dded"/>
        <path id="Trazado_51821" data-name="Trazado 51821" d="M542.383,287.478l.482-.483-.181-.181-1.5-1.5-.793-.792-.482.481.506.5,1.647,1.649Z" transform="translate(-539.756 -284.525)" fill="#14dded"/>
        <path id="Trazado_51822" data-name="Trazado 51822" d="M548.068,309.935l-.257-.257-.481.482.266.266,1.386,1.387.818.817.483-.483-.766-.765Z" transform="translate(-541.98 -292.066)" fill="#14dded"/>
        <path id="Trazado_51823" data-name="Trazado 51823" d="M557,310.16l-.482-.482-.125.126-1.5,1.5-.844.842.483.483.86-.862,1.343-1.343Z" transform="translate(-543.994 -292.066)" fill="#14dded"/>
        <path id="Trazado_51824" data-name="Trazado 51824" d="M563.288,309.678l-.483.482.267.266,1.336,1.338.867.866.483-.483-.847-.847-1.5-1.5Z" transform="translate(-546.62 -292.066)" fill="#14dded"/>
        <path id="Trazado_51825" data-name="Trazado 51825" d="M560.655,298.785H553.6v.682h10.18v-.682h-3.124Z" transform="translate(-543.859 -288.801)" fill="#14dded"/>
        <path id="Trazado_51826" data-name="Trazado 51826" d="M572.881,310.746l-1.341,1.343a1.4,1.4,0,0,0,.659.156h5.057a1.432,1.432,0,0,0,.676-.161l-1.336-1.338Z" transform="translate(-549.238 -292.386)"/>
        <path id="Trazado_51827" data-name="Trazado 51827" d="M572.244,299.759h-1.693V307.6a1.381,1.381,0,0,0,.192.734l1.5-1.5Z" transform="translate(-548.942 -289.092)"/>
        <path id="Trazado_51828" data-name="Trazado 51828" d="M572.244,287.932l-1.47-1.469a1.375,1.375,0,0,0-.223.787v7.841h1.693Z" transform="translate(-548.942 -285.106)"/>
        <path id="Trazado_51829" data-name="Trazado 51829" d="M576.533,287.153l1.365-1.365a1.459,1.459,0,0,0-.619-.131h-5.057a1.429,1.429,0,0,0-.6.125l1.372,1.371Z" transform="translate(-549.262 -284.865)"/>
        <path id="Trazado_51830" data-name="Trazado 51830" d="M579.249,295.092h1.694v-7.841a1.352,1.352,0,0,0-.228-.784l-1.466,1.466Z" transform="translate(-551.549 -285.108)"/>
        <path id="Trazado_51831" data-name="Trazado 51831" d="M579.249,306.832l1.5,1.5a1.355,1.355,0,0,0,.2-.73v-7.839h-1.694Z" transform="translate(-551.549 -289.092)"/>
        <path id="Trazado_51832" data-name="Trazado 51832" d="M578.38,286.995l.482.483.127-.127,1.466-1.466.878-.879-.482-.481-.925.923-1.365,1.365Z" transform="translate(-551.289 -284.525)" fill="#14dded"/>
        <path id="Trazado_51833" data-name="Trazado 51833" d="M572.09,287.478l.483-.483-.181-.181-1.372-1.371-.918-.918-.483.481.875.876,1.47,1.469Z" transform="translate(-548.662 -284.525)" fill="#14dded"/>
        <path id="Trazado_51834" data-name="Trazado 51834" d="M572.573,310.16l-.483-.482-.126.126-1.5,1.5-.844.842.483.483.862-.862,1.341-1.343Z" transform="translate(-548.662 -292.066)" fill="#14dded"/>
        <path id="Trazado_51835" data-name="Trazado 51835" d="M578.862,309.678l-.482.482.267.266,1.336,1.338.868.866.482-.483-.848-.847-1.5-1.5Z" transform="translate(-551.289 -292.066)" fill="#14dded"/>
        <path id="Trazado_51836" data-name="Trazado 51836" d="M576.228,298.785h-7.057v.682h10.181v-.682h-3.124Z" transform="translate(-548.528 -288.801)" fill="#14dded"/>
        <path id="Trazado_51837" data-name="Trazado 51837" d="M588.454,310.746l-1.342,1.343a1.4,1.4,0,0,0,.66.156h5.057a1.431,1.431,0,0,0,.676-.161l-1.336-1.338Z" transform="translate(-553.907 -292.386)"/>
        <path id="Trazado_51838" data-name="Trazado 51838" d="M592.105,287.153l1.366-1.365a1.459,1.459,0,0,0-.619-.131H587.8a1.435,1.435,0,0,0-.6.125l1.374,1.371Z" transform="translate(-553.931 -284.865)"/>
        <path id="Trazado_51839" data-name="Trazado 51839" d="M587.817,299.759h-1.7V307.6a1.4,1.4,0,0,0,.193.734l1.5-1.5Z" transform="translate(-553.61 -289.092)"/>
        <path id="Trazado_51840" data-name="Trazado 51840" d="M587.817,287.932l-1.47-1.469a1.371,1.371,0,0,0-.225.787v7.841h1.7Z" transform="translate(-553.61 -285.106)"/>
        <path id="Trazado_51841" data-name="Trazado 51841" d="M594.822,295.092h1.693v-7.841a1.356,1.356,0,0,0-.227-.784l-1.466,1.466Z" transform="translate(-556.218 -285.108)"/>
        <path id="Trazado_51842" data-name="Trazado 51842" d="M596.515,299.759h-1.693v7.073l1.5,1.5a1.36,1.36,0,0,0,.2-.73Z" transform="translate(-556.218 -289.092)"/>
        <path id="Trazado_51843" data-name="Trazado 51843" d="M593.953,286.995l.482.483.127-.127,1.466-1.466.878-.879-.481-.481-.926.923-1.366,1.365Z" transform="translate(-555.958 -284.525)" fill="#14dded"/>
        <path id="Trazado_51844" data-name="Trazado 51844" d="M587.664,287.478l.481-.483-.178-.181-1.374-1.371-.918-.918-.482.481.876.876,1.47,1.469Z" transform="translate(-553.331 -284.525)" fill="#14dded"/>
        <path id="Trazado_51845" data-name="Trazado 51845" d="M588.145,310.16l-.481-.482-.125.126-1.5,1.5-.844.842.482.483.862-.862,1.342-1.343Z" transform="translate(-553.331 -292.066)" fill="#14dded"/>
        <path id="Trazado_51846" data-name="Trazado 51846" d="M594.435,309.678l-.482.482.267.266,1.336,1.338.868.866.481-.483-.847-.847-1.5-1.5Z" transform="translate(-555.958 -292.066)" fill="#14dded"/>
        <path id="Trazado_51847" data-name="Trazado 51847" d="M591.8,299.467h3.125v-.682H584.743v.682H591.8Z" transform="translate(-553.197 -288.801)" fill="#14dded"/>
      </g>
      <path id="Trazado_51848" data-name="Trazado 51848" d="M503.186,280.915H488.149a8.178,8.178,0,0,0-8.177,8.179v9.768A8.14,8.14,0,0,0,481.1,303Z" transform="translate(-470.827 -270.01)" fill="#fff" opacity="0.4"/>
      <path id="Trazado_51849" data-name="Trazado 51849" d="M554.615,280.915h-40.18q-12.917,12.914-25.834,25.834a8.154,8.154,0,0,0,2.134.291H528.49Z" transform="translate(-473.415 -270.01)" fill="#fff" opacity="0.4"/>
      <path id="Trazado_51850" data-name="Trazado 51850" d="M590.535,281.231a8.081,8.081,0,0,0-2.226-.316h-4.243Q571,293.978,557.94,307.039h6.786Z" transform="translate(-494.202 -270.01)" fill="#fff" opacity="0.4"/>
    </g>
  </g>
</svg>
