<svg xmlns="http://www.w3.org/2000/svg" xmlns:xlink="http://www.w3.org/1999/xlink" width="132.473" height="132.473" viewBox="0 0 132.473 132.473">
  <defs>
    <clipPath id="clip-path">
      <rect id="Rect치ngulo_5355" data-name="Rect치ngulo 5355" width="132.473" height="132.473" rx="11.144" transform="translate(346.438 200.125)" fill="#4eb1a5"/>
    </clipPath>
  </defs>
  <g id="Grupo_20382" data-name="Grupo 20382" transform="translate(-346.438 -200.125)">
    <rect id="Rect치ngulo_5354" data-name="Rect치ngulo 5354" width="132.473" height="132.473" rx="11.144" transform="translate(346.438 200.125)" fill="#4eb1a5"/>
    <g id="Grupo_20381" data-name="Grupo 20381" clip-path="url(#clip-path)">
      <g id="Grupo_20380" data-name="Grupo 20380">
        <g id="Grupo_20379" data-name="Grupo 20379">
          <path id="Trazado_51886" data-name="Trazado 51886" d="M408.256,270.822l63.491-7.108-3.467-30.966-63.492,7.108,3.468,30.965Z" fill="#91bf53" fill-rule="evenodd"/>
          <path id="Trazado_51887" data-name="Trazado 51887" d="M406.624,271.995l63.492-7.108-3.468-30.965-63.49,7.108,3.466,30.965Z" fill="#7aa44c" fill-rule="evenodd"/>
          <path id="Trazado_51888" data-name="Trazado 51888" d="M440.308,266.845,438.8,251.293l-10.015-7.636s-1.951,2.209-.308,5.9l-5.157-3.344s-2.745,4.411-.109,8.071l-8.607-4.639s-2.629,4.756,1.5,7.135a55.292,55.292,0,0,0,5.384,2.88l-1.775,4.543s-23.644-9.33-37.223,4.33L430.361,280.5l9.947-13.659Z" fill="#d3946a" fill-rule="evenodd"/>
          <path id="Trazado_51889" data-name="Trazado 51889" d="M393.064,287.8l38.746-.987,13.343-14.352,1.514-14.287-14.421-4.576c.191,2.117-1.12,6.876,7.736,8.692-1.771,4.443-2.141,5.709-2.141,5.709l-10.426,7.489s-16.294,2.822-15.231-2.793l-27.854-5.558-34.448,8.444,5.777,22.053,37.4-9.834Z" fill="#f9bb88" fill-rule="evenodd"/>
          <path id="Trazado_51890" data-name="Trazado 51890" d="M433.934,254.832l5.423,1.724a2.409,2.409,0,0,1-2.549.9c-1.577-.468-2.766-.541-2.874-2.626Z" fill="#f6e7d8" fill-rule="evenodd"/>
          <path id="Trazado_51891" data-name="Trazado 51891" d="M404.822,273.217l63.6-6.036-2.942-31.019-63.6,6.034,2.944,31.021Z" fill="#91bf53" fill-rule="evenodd"/>
          <path id="Trazado_51892" data-name="Trazado 51892" d="M406.79,270.835l59.254-5.622-2.529-26.67-59.256,5.622,2.531,26.67Z" fill="#dad891" fill-rule="evenodd"/>
          <path id="Trazado_51893" data-name="Trazado 51893" d="M408.759,268.456l54.905-5.211-2.118-22.322-54.905,5.21,2.118,22.323Z" fill="#91bf53" fill-rule="evenodd"/>
          <path id="Trazado_51894" data-name="Trazado 51894" d="M436.372,267.554a12.922,12.922,0,1,0-14.084-11.645,12.924,12.924,0,0,0,14.084,11.645Z" fill="#dad891" fill-rule="evenodd"/>
          <path id="Trazado_51895" data-name="Trazado 51895" d="M455.511,255.73a2.959,2.959,0,1,0-3.226-2.667,2.96,2.96,0,0,0,3.226,2.667Z" fill="#dad891" fill-rule="evenodd"/>
          <path id="Trazado_51896" data-name="Trazado 51896" d="M415.472,259.529a2.959,2.959,0,1,0-3.224-2.667,2.962,2.962,0,0,0,3.224,2.667Z" fill="#dad891" fill-rule="evenodd"/>
          <path id="Trazado_51897" data-name="Trazado 51897" d="M436.03,255.955a5.139,5.139,0,0,1,1.118.369,1.762,1.762,0,0,1,.641.5,1.423,1.423,0,0,1,.1,1.532,1.816,1.816,0,0,1-.7.652,3.227,3.227,0,0,1-1.133.355,6.571,6.571,0,0,1-1.2.057,8.647,8.647,0,0,1-1.183-.125l-1.012-.178a.179.179,0,0,0-.149.029.3.3,0,0,0-.091.134l-.3,1.459a.17.17,0,0,0,.014.151.281.281,0,0,0,.15.088l1.11.2c.307.051.615.093.929.122s.633.038.959.031l.223,1.649a.207.207,0,0,0,.074.141.212.212,0,0,0,.156.033l1.648-.225a.215.215,0,0,0,.143-.073.211.211,0,0,0,.032-.157l-.228-1.667a4.746,4.746,0,0,0,1.679-.827,3.1,3.1,0,0,0,.98-1.3,3.383,3.383,0,0,0,.175-1.716,3.606,3.606,0,0,0-.5-1.491,2.928,2.928,0,0,0-1.126-1,7.515,7.515,0,0,0-1.918-.663l-2.158-.488a5.455,5.455,0,0,1-.983-.314,2.225,2.225,0,0,1-.726-.474,1.207,1.207,0,0,1-.341-.687,1.615,1.615,0,0,1,.091-.827,1.594,1.594,0,0,1,.462-.621,2.627,2.627,0,0,1,.751-.419,4.423,4.423,0,0,1,.949-.232,8.621,8.621,0,0,1,1-.081,8.488,8.488,0,0,1,.958.032c.318.028.648.073.982.133l1.054.192a.169.169,0,0,0,.15-.014.28.28,0,0,0,.093-.131l.281-1.475a.156.156,0,0,0-.018-.151.255.255,0,0,0-.144-.088l-1-.182c-.486-.093-.94-.161-1.367-.2a8.563,8.563,0,0,0-1.279-.034l-.222-1.629a.184.184,0,0,0-.229-.176l-1.666.227a.2.2,0,0,0-.143.074.2.2,0,0,0-.031.155l.226,1.668a4.95,4.95,0,0,0-1.793.868,3.23,3.23,0,0,0-1.037,1.374,4.033,4.033,0,0,0,.173,3.013,2.647,2.647,0,0,0,.7.863,3.971,3.971,0,0,0,1.069.616,9.46,9.46,0,0,0,1.48.444l2.134.476Z" fill="#82af4a"/>
          <path id="Trazado_51898" data-name="Trazado 51898" d="M381.852,268.323c4.127-3.682,7.519-6.484,13.956-7.682a69.763,69.763,0,0,1,23.011.378s10.217.737,15.66-1.985a6.28,6.28,0,0,1-1.954,7.879c-4.343,3.428-16.325,3.213-20.087,6.042a11.492,11.492,0,0,0-4.337,6.932l-26.249-11.564Z" fill="#f9bb88" fill-rule="evenodd"/>
          <path id="Trazado_51899" data-name="Trazado 51899" d="M431.341,263.895c-.881.692-3.975,1.218-4.51.922s-1.137-2.374-1.064-2.86c.246-.43,5.334-.971,6-1.512,1.6.083.107,3.028-.427,3.45Z" fill="#f6e7d8" fill-rule="evenodd"/>
        </g>
        <path id="Trazado_51900" data-name="Trazado 51900" d="M372.053,299.208l13.387-4.128L379.488,262.5l-12.28,4.137Z" fill="#fff"/>
        <path id="Trazado_51901" data-name="Trazado 51901" d="M370.836,262.31l7.031,38.488-49.622,16.159-.184-42.617Z" fill="#15616e"/>
      </g>
    </g>
  </g>
</svg>
