<svg xmlns="http://www.w3.org/2000/svg" width="181.333" height="201.618" viewBox="0 0 181.333 201.618">
  <g id="Grupo_21245" data-name="Grupo 21245" transform="translate(-3096.921 -1544.854)">
    <g id="Grupo_21233" data-name="Grupo 21233" transform="translate(3096.921 1564.227)">
      <rect id="Rectángulo_5496" data-name="Rectángulo 5496" width="82.286" height="169.083" rx="27.015" transform="translate(19.245 13.162)" fill="#c7ddeb"/>
      <path id="Trazado_52351" data-name="Trazado 52351" d="M3207.051,1608.7a1.415,1.415,0,0,1-1.358,1.466h-18.809a1.416,1.416,0,0,1-1.358-1.466v-.167a1.415,1.415,0,0,1,1.358-1.466h18.809a1.415,1.415,0,0,1,1.358,1.466Z" transform="translate(-3143.807 -1597.148)" fill="#3d4451"/>
      <g id="Grupo_21228" data-name="Grupo 21228" transform="translate(8.075 17.854)">
        <rect id="Rectángulo_5497" data-name="Rectángulo 5497" width="80.617" height="143.65" rx="12.092" transform="translate(1.177 1.177)" fill="#7eb9c7"/>
        <path id="Trazado_52352" data-name="Trazado 52352" d="M3190.172,1769.925h-69.231a6.878,6.878,0,0,1-6.87-6.871V1630.79a6.877,6.877,0,0,1,6.87-6.87h69.231a6.878,6.878,0,0,1,6.87,6.87v132.264A6.878,6.878,0,0,1,3190.172,1769.925Zm-69.231-143.651a4.521,4.521,0,0,0-4.516,4.516v132.264a4.521,4.521,0,0,0,4.516,4.516h69.231a4.522,4.522,0,0,0,4.516-4.516V1630.79a4.521,4.521,0,0,0-4.516-4.516Z" transform="translate(-3114.071 -1623.92)" fill="#3d4451"/>
      </g>
      <path id="Trazado_52353" data-name="Trazado 52353" d="M3169.955,1608.974a1.558,1.558,0,1,1,1.553,1.677A1.618,1.618,0,0,1,3169.955,1608.974Z" transform="translate(-3135.568 -1597.269)" fill="#3d4451"/>
      <path id="Trazado_52354" data-name="Trazado 52354" d="M3179.543,1765.418h-66.313a16.328,16.328,0,0,1-16.31-16.31v-146.8a16.328,16.328,0,0,1,16.31-16.31h66.313a16.328,16.328,0,0,1,16.309,16.31v146.8A16.328,16.328,0,0,1,3179.543,1765.418Zm-66.313-174.4a11.3,11.3,0,0,0-11.292,11.292v146.8a11.3,11.3,0,0,0,11.292,11.291h66.313a11.3,11.3,0,0,0,11.292-11.291v-146.8a11.3,11.3,0,0,0-11.292-11.292Z" transform="translate(-3096.921 -1586)" fill="#3d4451"/>
      <rect id="Rectángulo_5498" data-name="Rectángulo 5498" width="56.5" height="47.084" transform="translate(22.167 50.85)" fill="#f5fafc"/>
      <g id="Grupo_21229" data-name="Grupo 21229" transform="translate(21.499 109.509)">
        <line id="Línea_269" data-name="Línea 269" x2="32.252" transform="translate(1.138 1.138)" fill="#7eb9c7"/>
        <path id="Trazado_52355" data-name="Trazado 52355" d="M3175.974,1820.859h-32.252a1.138,1.138,0,1,1,0-2.276h32.252a1.138,1.138,0,0,1,0,2.276Z" transform="translate(-3142.583 -1818.583)" fill="#3d4451"/>
      </g>
      <g id="Grupo_21230" data-name="Grupo 21230" transform="translate(21.022 121.286)">
        <line id="Línea_270" data-name="Línea 270" x2="56.33" transform="translate(1.132 1.131)" fill="#7eb9c7"/>
        <path id="Trazado_52356" data-name="Trazado 52356" d="M3199.031,1845.86H3142.7a1.131,1.131,0,1,1,0-2.263h56.33a1.131,1.131,0,1,1,0,2.263Z" transform="translate(-3141.569 -1843.597)" fill="#3d4451"/>
      </g>
      <g id="Grupo_21231" data-name="Grupo 21231" transform="translate(21.022 133.293)">
        <line id="Línea_271" data-name="Línea 271" x2="56.33" transform="translate(1.132 1.131)" fill="#7eb9c7"/>
        <path id="Trazado_52357" data-name="Trazado 52357" d="M3199.031,1871.36H3142.7a1.131,1.131,0,1,1,0-2.263h56.33a1.131,1.131,0,1,1,0,2.263Z" transform="translate(-3141.569 -1869.097)" fill="#3d4451"/>
      </g>
      <g id="Grupo_21232" data-name="Grupo 21232" transform="translate(32.556 56.5)">
        <path id="Trazado_52358" data-name="Trazado 52358" d="M3200.62,1737.537,3188.1,1744.6l-12.522-7.064v-14.128l12.522-7.064,12.522,7.064Z" transform="translate(-3171.098 -1711.474)" fill="#fdc345"/>
        <path id="Trazado_52359" data-name="Trazado 52359" d="M3183.156,1742.888l-17.091-9.2v-18.5l17.091-9.2,17.092,9.2v18.5Zm-15.323-10.253,15.323,8.245,15.324-8.245v-16.383l-15.324-8.245-15.323,8.245Z" transform="translate(-3166.065 -1706)" fill="#3d4451"/>
        <rect id="Rectángulo_5499" data-name="Rectángulo 5499" width="1.768" height="17.941" transform="translate(15.968 18.001)" fill="#3d4451"/>
        <rect id="Rectángulo_5500" data-name="Rectángulo 5500" width="18.296" height="1.768" transform="translate(16.674 17.221) rotate(-26.925)" fill="#3d4451"/>
        <rect id="Rectángulo_5501" data-name="Rectángulo 5501" width="1.767" height="18.158" transform="translate(0.515 10.51) rotate(-62.847)" fill="#3d4451"/>
        <rect id="Rectángulo_5502" data-name="Rectángulo 5502" width="1.767" height="18.25" transform="matrix(0.47, -0.882, 0.882, 0.47, 9.059, 5.94)" fill="#3d4451"/>
      </g>
      <rect id="Rectángulo_5503" data-name="Rectángulo 5503" width="70.155" height="9.652" transform="translate(14.869 31.781)" fill="#c7ddeb"/>
    </g>
    <g id="Grupo_21234" data-name="Grupo 21234" transform="translate(3152.091 1544.854)">
      <path id="Trazado_52360" data-name="Trazado 52360" d="M3333.458,1547.658h-109.6a6.964,6.964,0,0,0-6.963,6.964v26.255a6.964,6.964,0,0,0,6.963,6.964h23.588l-8.753,19.087,24.175-19.087h70.586a6.964,6.964,0,0,0,6.964-6.964v-26.255A6.964,6.964,0,0,0,3333.458,1547.658Z" transform="translate(-3215.579 -1546.338)" fill="#f04f4c"/>
      <path id="Trazado_52361" data-name="Trazado 52361" d="M3233.728,1609.878l10.181-22.2h-21.531a8.293,8.293,0,0,1-8.283-8.284v-26.255a8.293,8.293,0,0,1,8.283-8.283h109.6a8.293,8.293,0,0,1,8.283,8.283v26.255a8.293,8.293,0,0,1-8.283,8.284h-70.127Zm-11.349-62.384a5.65,5.65,0,0,0-5.643,5.643v26.255a5.65,5.65,0,0,0,5.643,5.643h25.646l-7.325,15.973,20.231-15.973h71.045a5.65,5.65,0,0,0,5.643-5.643v-26.255a5.65,5.65,0,0,0-5.643-5.643Z" transform="translate(-3214.095 -1544.854)" fill="#3d4451"/>
    </g>
    <g id="Grupo_21235" data-name="Grupo 21235" transform="translate(3176.526 1557.012)">
      <path id="Trazado_52362" data-name="Trazado 52362" d="M3265.992,1582.147l3.086-.316a4.052,4.052,0,0,0,1.131,2.409,3.3,3.3,0,0,0,2.3.769,3.4,3.4,0,0,0,2.31-.685,2.075,2.075,0,0,0,.777-1.6,1.562,1.562,0,0,0-.327-1,2.6,2.6,0,0,0-1.141-.719q-.557-.2-2.54-.724a8.4,8.4,0,0,1-3.579-1.641,4.53,4.53,0,0,1-.766-5.707,4.318,4.318,0,0,1,1.961-1.68,7.494,7.494,0,0,1,3.092-.577,6.393,6.393,0,0,1,4.453,1.369,4.951,4.951,0,0,1,1.57,3.654l-3.173.147a2.9,2.9,0,0,0-.873-1.839,3.077,3.077,0,0,0-2.009-.56,3.487,3.487,0,0,0-2.165.6,1.231,1.231,0,0,0-.5,1.03,1.3,1.3,0,0,0,.471,1.007,8.079,8.079,0,0,0,2.915,1.109,14.835,14.835,0,0,1,3.424,1.194,4.511,4.511,0,0,1,1.736,1.685,5.146,5.146,0,0,1,.627,2.642,5.083,5.083,0,0,1-.75,2.67,4.561,4.561,0,0,1-2.122,1.85,8.493,8.493,0,0,1-3.419.6,6.565,6.565,0,0,1-4.576-1.453A6.462,6.462,0,0,1,3265.992,1582.147Z" transform="translate(-3265.992 -1570.676)" fill="#f5fafc"/>
      <path id="Trazado_52363" data-name="Trazado 52363" d="M3311.165,1587.86h-3.451l-1.372-3.767h-6.28l-1.3,3.767H3295.4l6.119-16.584h3.354Zm-5.841-6.561-2.165-6.154-2.122,6.154Z" transform="translate(-3281.554 -1570.994)" fill="#f5fafc"/>
      <path id="Trazado_52364" data-name="Trazado 52364" d="M3332.638,1588.013v-16.448h3.172v13.654h7.888v2.794Z" transform="translate(-3301.259 -1571.146)" fill="#f5fafc"/>
      <path id="Trazado_52365" data-name="Trazado 52365" d="M3360.93,1587.86v-16.584h11.65v2.806H3364.1v3.676h7.888v2.794H3364.1v4.514h8.778v2.794Z" transform="translate(-3316.23 -1570.994)" fill="#f5fafc"/>
    </g>
    <g id="Grupo_21236" data-name="Grupo 21236" transform="translate(3237.828 1556.805)">
      <path id="Trazado_52366" data-name="Trazado 52366" d="M3396.19,1574.79a4.752,4.752,0,0,1,1.09-3.435,3.943,3.943,0,0,1,2.957-1.117,4.036,4.036,0,0,1,3.02,1.112,5.961,5.961,0,0,1,0,6.875,3.939,3.939,0,0,1-2.956,1.118,4.037,4.037,0,0,1-3.02-1.112A4.747,4.747,0,0,1,3396.19,1574.79Zm2.761-.024a4.2,4.2,0,0,0,.416,2.259,1.024,1.024,0,0,0,.87.423,1.036,1.036,0,0,0,.883-.423,4.306,4.306,0,0,0,.4-2.259,4.237,4.237,0,0,0-.4-2.246,1.109,1.109,0,0,0-1.753-.012A4.2,4.2,0,0,0,3398.951,1574.766Zm3.984,13.669h-2.623l9.848-18.2h2.547Zm5.725-4.529a4.751,4.751,0,0,1,1.09-3.435,4.554,4.554,0,0,1,5.977,0,5.971,5.971,0,0,1,0,6.881,3.942,3.942,0,0,1-2.957,1.118,4.026,4.026,0,0,1-3.02-1.118A4.768,4.768,0,0,1,3408.66,1583.906Zm2.761-.012a4.135,4.135,0,0,0,.416,2.247,1.015,1.015,0,0,0,.87.436,1,1,0,0,0,.87-.424,4.2,4.2,0,0,0,.416-2.259,4.312,4.312,0,0,0-.4-2.258,1.037,1.037,0,0,0-.883-.424,1,1,0,0,0-.87.424A4.2,4.2,0,0,0,3411.421,1583.894Z" transform="translate(-3396.19 -1570.237)" fill="#f5fafc"/>
    </g>
    <g id="Grupo_21244" data-name="Grupo 21244" transform="translate(3203.546 1636.807)">
      <g id="Grupo_21243" data-name="Grupo 21243" transform="translate(0 0)">
        <g id="Grupo_21238" data-name="Grupo 21238" transform="translate(15.598)">
          <g id="Grupo_21237" data-name="Grupo 21237">
            <path id="Trazado_52367" data-name="Trazado 52367" d="M3360.411,1794.437l-3.9-3.908a33.063,33.063,0,0,0,.133-46.47l3.907-3.907A38.584,38.584,0,0,1,3360.411,1794.437Z" transform="translate(-3356.507 -1740.152)" fill="#3d4451"/>
          </g>
        </g>
        <g id="Grupo_21240" data-name="Grupo 21240" transform="translate(7.8 7.799)">
          <g id="Grupo_21239" data-name="Grupo 21239">
            <path id="Trazado_52368" data-name="Trazado 52368" d="M3343.852,1795.4l-3.9-3.905a22.037,22.037,0,0,0,.133-30.878l3.906-3.905A27.554,27.554,0,0,1,3343.852,1795.4Z" transform="translate(-3339.947 -1756.716)" fill="#3d4451"/>
          </g>
        </g>
        <g id="Grupo_21242" data-name="Grupo 21242" transform="translate(0 15.598)">
          <g id="Grupo_21241" data-name="Grupo 21241">
            <path id="Trazado_52369" data-name="Trazado 52369" d="M3327.288,1796.373l-3.908-3.906a11.03,11.03,0,0,0,.135-15.281l3.9-3.9A16.551,16.551,0,0,1,3327.288,1796.373Z" transform="translate(-3323.38 -1773.281)" fill="#3d4451"/>
          </g>
        </g>
      </g>
    </g>
  </g>
</svg>
