<svg xmlns="http://www.w3.org/2000/svg" width="200" height="164.17" viewBox="0 0 200 164.17">
  <g id="Grupo_21227" data-name="Grupo 21227" transform="translate(-3434.029 -1454.914)">
    <path id="Trazado_52324" data-name="Trazado 52324" d="M3527.739,1856.933c0,5.973-3.528,10.537-6.9,10.537s-7.693-4.842-7.693-10.815,4.323-17.747,7.693-17.747S3527.739,1850.961,3527.739,1856.933Z" transform="translate(-53.754 -260.89)" fill="#6b968b"/>
    <path id="Trazado_52325" data-name="Trazado 52325" d="M3799.558,1461.087l20.512,14.194v64.144l13,12.283v70.7" transform="translate(-248.343 -4.194)" fill="#c7ddeb"/>
    <path id="Trazado_52326" data-name="Trazado 52326" d="M3733.425,1510.328l-18.842,17.505V1654.42H3734" transform="translate(-190.611 -37.649)" fill="#c7ddeb"/>
    <path id="Trazado_52327" data-name="Trazado 52327" d="M3631.416,1744.108v-84.641l21.686-17.13v102.111" transform="translate(-134.107 -127.337)" fill="#c7ddeb"/>
    <path id="Trazado_52328" data-name="Trazado 52328" d="M3588.727,1729.211h-3.958v-78.9l45.56-32.123v110h-3.958V1625.82l-37.644,26.541Z" transform="translate(-102.414 -110.929)" fill="#3d4451"/>
    <path id="Trazado_52329" data-name="Trazado 52329" d="M3713.69,1616.771h-3.958V1584.1l-13.311-12.575a1.98,1.98,0,0,1-.62-1.439V1460.792l-42.088,30.783v33.693h-3.958v-34.7a1.979,1.979,0,0,1,.811-1.6l46.047-33.678a1.979,1.979,0,0,1,3.147,1.6v112.338l13.311,12.575a1.979,1.979,0,0,1,.62,1.438Z" transform="translate(-146.566)" fill="#3d4451"/>
    <path id="Trazado_52330" data-name="Trazado 52330" d="M3832.714,1619.392h-3.456v-69.951l-13-12.283v-63.983l-19.767-13.678,1.966-2.842,21.257,14.709v64.305l13,12.283Z" transform="translate(-246.26 -1.183)" fill="#3d4451"/>
    <rect id="Rectángulo_5485" data-name="Rectángulo 5485" width="2.073" height="153.684" transform="translate(3540.79 1463.759)" fill="#3d4451"/>
    <g id="Grupo_21218" data-name="Grupo 21218" transform="translate(3505.16 1474.085)">
      <path id="Trazado_52331" data-name="Trazado 52331" d="M3694.688,1527.547l-35.55,24.048v-6.742l35.55-24.048Z" transform="translate(-3658.102 -1518.852)" fill="#6b968b"/>
      <path id="Trazado_52332" data-name="Trazado 52332" d="M3655.9,1549.409v-9.245l37.624-25.45v9.245Zm2.073-8.144v4.239l33.477-22.645v-4.239Z" transform="translate(-3655.905 -1514.714)" fill="#3d4451"/>
    </g>
    <g id="Grupo_21219" data-name="Grupo 21219" transform="translate(3528.938 1550.238)">
      <rect id="Rectángulo_5486" data-name="Rectángulo 5486" width="8.532" height="8.061" transform="translate(1.037 1.037)" fill="#7eb9c7"/>
      <path id="Trazado_52333" data-name="Trazado 52333" d="M3740.677,1762.387h-10.6v-10.134h10.6Zm-8.532-2.073h6.459v-5.988h-6.459Z" transform="translate(-3730.072 -1752.253)" fill="#3d4451"/>
    </g>
    <g id="Grupo_21220" data-name="Grupo 21220" transform="translate(3549.92 1488.048)">
      <rect id="Rectángulo_5487" data-name="Rectángulo 5487" width="11.732" height="11.084" transform="translate(1.426 1.425)" fill="#7eb9c7"/>
      <path id="Trazado_52334" data-name="Trazado 52334" d="M3810.1,1572.2h-14.583v-13.935H3810.1Zm-11.731-2.851h8.88v-8.233h-8.88Z" transform="translate(-3795.521 -1558.266)" fill="#3d4451"/>
    </g>
    <g id="Grupo_21221" data-name="Grupo 21221" transform="translate(3498.052 1574.584)">
      <rect id="Rectángulo_5488" data-name="Rectángulo 5488" width="12.443" height="11.756" transform="translate(1.21 1.209)" fill="#7eb9c7"/>
      <path id="Trazado_52335" data-name="Trazado 52335" d="M3648.594,1842.37h-14.862V1828.2h14.862Zm-12.443-2.419h10.024v-9.337h-10.024Z" transform="translate(-3633.732 -1828.195)" fill="#3d4451"/>
    </g>
    <g id="Grupo_21222" data-name="Grupo 21222" transform="translate(3550.985 1519.012)">
      <path id="Trazado_52336" data-name="Trazado 52336" d="M3801.626,1667.059l33.051,26.868.014-6.377-33.051-26.868Z" transform="translate(-3800.734 -1658.813)" fill="#6b968b"/>
      <path id="Trazado_52337" data-name="Trazado 52337" d="M3833.673,1691.835l-34.83-28.314.019-8.669,34.83,28.314Zm-33.046-29.16L3831.9,1688.1l.009-4.085-31.271-25.422Z" transform="translate(-3798.844 -1654.852)" fill="#3d4451"/>
    </g>
    <path id="Trazado_52338" data-name="Trazado 52338" d="M3791.1,1835.111l11.909,11.252v28.718H3791.1" transform="translate(-242.595 -258.309)" fill="#c7ddeb"/>
    <g id="Grupo_21223" data-name="Grupo 21223" transform="translate(3547.465 1597.597)">
      <rect id="Rectángulo_5489" data-name="Rectángulo 5489" width="8.532" height="8.061" transform="translate(1.037 1.037)" fill="#7eb9c7"/>
      <path id="Trazado_52339" data-name="Trazado 52339" d="M3798.468,1910.111h-10.605v-10.134h10.605Zm-8.532-2.073h6.459v-5.988h-6.459Z" transform="translate(-3787.863 -1899.977)" fill="#3d4451"/>
    </g>
    <g id="Grupo_21224" data-name="Grupo 21224" transform="translate(3568.189 1566.024)">
      <rect id="Rectángulo_5490" data-name="Rectángulo 5490" width="8.532" height="8.061" transform="translate(1.036 1.037)" fill="#7eb9c7"/>
      <path id="Trazado_52340" data-name="Trazado 52340" d="M3863.111,1811.628h-10.6v-10.134h10.6Zm-8.532-2.073h6.459v-5.988h-6.459Z" transform="translate(-3852.506 -1801.494)" fill="#3d4451"/>
    </g>
    <g id="Grupo_21225" data-name="Grupo 21225" transform="translate(3558.061 1552.423)">
      <rect id="Rectángulo_5491" data-name="Rectángulo 5491" width="7.457" height="7.046" transform="translate(0.906 0.906)" fill="#7eb9c7"/>
      <path id="Trazado_52341" data-name="Trazado 52341" d="M3830.182,1767.926h-9.269v-8.858h9.269Zm-7.457-1.812h5.646v-5.234h-5.646Z" transform="translate(-3820.913 -1759.068)" fill="#3d4451"/>
    </g>
    <g id="Grupo_21226" data-name="Grupo 21226" transform="translate(3484.205 1525.147)">
      <path id="Trazado_52342" data-name="Trazado 52342" d="M3633.53,1686.909l-39.816,26.446v-7.005l39.816-26.446Z" transform="translate(-3592.697 -1678.007)" fill="#6b968b"/>
      <path id="Trazado_52343" data-name="Trazado 52343" d="M3590.541,1711.232v-9.448l41.851-27.8v9.448Zm2.034-8.357v4.563l37.782-25.095v-4.563Z" transform="translate(-3590.541 -1673.987)" fill="#3d4451"/>
    </g>
    <path id="Trazado_52344" data-name="Trazado 52344" d="M3506.836,1856.2c-5.195,0-11.469-6.3-11.469-14.131,0-6.918,5.545-22.146,11.469-22.146,2.75,0,5.29,2.986,7.548,8.875a42.216,42.216,0,0,1,2.9,13.592C3517.287,1849.745,3512.4,1856.2,3506.836,1856.2Zm0-33.021c-.785,0-2.85,1.822-5.052,6.71-1.89,4.2-3.161,9.092-3.161,12.18,0,6.2,4.982,10.875,8.212,10.875,3.4,0,7.194-4.514,7.194-10.554a39.364,39.364,0,0,0-2.687-12.426C3509.448,1825.019,3507.573,1823.177,3506.836,1823.177Z" transform="translate(-41.674 -247.989)" fill="#3d4451"/>
    <rect id="Rectángulo_5492" data-name="Rectángulo 5492" width="3.256" height="18.274" transform="translate(3463.195 1600.169)" fill="#3d4451"/>
    <path id="Trazado_52345" data-name="Trazado 52345" d="M3459.337,1880.512c0,4.669-2.758,8.238-5.393,8.238s-6.015-3.786-6.015-8.455,3.38-13.875,6.015-13.875S3459.337,1875.842,3459.337,1880.512Z" transform="translate(-9.444 -279.581)" fill="#7cbc31"/>
    <path id="Trazado_52346" data-name="Trazado 52346" d="M3443,1879.937c-4.062,0-8.966-4.928-8.966-11.048,0-5.409,4.335-17.314,8.966-17.314,4.72,0,8.17,12.325,8.17,17.564C3451.166,1874.892,3447.348,1879.937,3443,1879.937Zm0-25.816c-.614,0-2.229,1.424-3.95,5.246a26.607,26.607,0,0,0-2.471,9.522c0,4.851,3.9,8.5,6.42,8.5,2.655,0,5.625-3.529,5.625-8.252a30.771,30.771,0,0,0-2.1-9.714C3445.037,1855.561,3443.571,1854.121,3443,1854.121Z" transform="translate(0 -269.495)" fill="#3d4451"/>
    <rect id="Rectángulo_5493" data-name="Rectángulo 5493" width="2.546" height="14.287" transform="translate(3442.136 1604.156)" fill="#3d4451"/>
    <path id="Trazado_52347" data-name="Trazado 52347" d="M3959.574,1858.933c0,5.973-3.528,10.537-6.9,10.537s-7.693-4.842-7.693-10.815,4.324-17.747,7.693-17.747S3959.574,1852.961,3959.574,1858.933Z" transform="translate(-347.147 -262.249)" fill="#6b968b"/>
    <path id="Trazado_52348" data-name="Trazado 52348" d="M3938.671,1858.2c-5.195,0-11.469-6.3-11.469-14.131,0-6.918,5.545-22.146,11.469-22.146,2.75,0,5.29,2.986,7.548,8.875a42.226,42.226,0,0,1,2.9,13.592C3949.122,1851.745,3944.238,1858.2,3938.671,1858.2Zm0-33.021c-.785,0-2.851,1.822-5.052,6.71-1.89,4.2-3.16,9.092-3.16,12.18,0,6.2,4.981,10.875,8.212,10.875,3.4,0,7.194-4.514,7.194-10.554a39.358,39.358,0,0,0-2.687-12.426C3941.283,1827.019,3939.408,1825.178,3938.671,1825.178Z" transform="translate(-335.067 -249.348)" fill="#3d4451"/>
    <rect id="Rectángulo_5494" data-name="Rectángulo 5494" width="3.257" height="18.274" transform="translate(3601.637 1600.81)" fill="#3d4451"/>
    <path id="Trazado_52349" data-name="Trazado 52349" d="M4030.387,1884.476c0,4.561-2.694,8.047-5.267,8.047s-5.875-3.7-5.875-8.259,3.3-13.552,5.875-13.552S4030.387,1879.915,4030.387,1884.476Z" transform="translate(-397.601 -282.497)" fill="#7cbc31"/>
    <path id="Trazado_52350" data-name="Trazado 52350" d="M4014.426,1883.915c-3.967,0-8.757-4.813-8.757-10.791,0-5.283,4.234-16.912,8.757-16.912,4.61,0,7.98,12.039,7.98,17.156C4022.407,1878.987,4018.677,1883.915,4014.426,1883.915Zm0-25.216c-.6,0-2.177,1.391-3.858,5.124a25.987,25.987,0,0,0-2.413,9.3c0,4.738,3.8,8.3,6.271,8.3,2.593,0,5.494-3.447,5.494-8.059a30.047,30.047,0,0,0-2.052-9.489C4016.42,1860.106,4014.989,1858.7,4014.426,1858.7Z" transform="translate(-388.377 -272.646)" fill="#3d4451"/>
    <rect id="Rectángulo_5495" data-name="Rectángulo 5495" width="2.486" height="13.954" transform="translate(3624.547 1605.13)" fill="#3d4451"/>
  </g>
</svg>
