<svg xmlns="http://www.w3.org/2000/svg" width="132.473" height="132.473" viewBox="0 0 132.473 132.473">
  <g id="Grupo_20375" data-name="Grupo 20375" transform="translate(-182.358 -26.122)">
    <rect id="Rectángulo_5352" data-name="Rectángulo 5352" width="132.473" height="132.473" rx="10.008" transform="translate(182.358 26.122)" fill="#4db1a5"/>
    <g id="Grupo_20368" data-name="Grupo 20368">
      <path id="Trazado_51854" data-name="Trazado 51854" d="M296.36,53.439a9.3,9.3,0,0,0,9.005-6.975h0l.017-.065.017-.064.013-.062.01-.034.006-.032.014-.067.014-.064.015-.064.013-.063.013-.067.012-.064.006-.034.006-.033.01-.064.012-.066.01-.065v0l.01-.065.009-.068.008-.067,0-.031,0-.034.009-.068.007-.067.006-.064v0l.005-.07.007-.066c.026-.268.036-.541.036-.811a9.3,9.3,0,1,0-16.57,5.8L271.827,74.371a9.008,9.008,0,0,0-8.981,2.251l-.008.006-.005-.006a9.025,9.025,0,0,0-1.31,1.661l-15-3.51a8.973,8.973,0,0,0-2.606-5.547l-.011-.012a8.983,8.983,0,0,0-12.728.008l-.007-.008a8.985,8.985,0,0,0-2.637,6.375,8.882,8.882,0,0,0,.735,3.556l-22.471,26.749a9,9,0,0,0-9.692,2l-.008.008,0-.008a9.012,9.012,0,0,0,0,12.748c.06.058.123.116.186.169a8.987,8.987,0,0,0,12.548-.169l.012-.013a9.01,9.01,0,0,0,1.3-11.093L233.076,83.42A9,9,0,0,0,243.9,81.962l.007-.006,0,.006a9.038,9.038,0,0,0,1.315-1.664l15,3.508a9.013,9.013,0,0,0,15.35,5.561c.061-.061.118-.125.175-.191a9,9,0,0,0,.7-11.536l17.35-24.553a9.362,9.362,0,0,0,2.552.352Z" fill="#f37544" fill-rule="evenodd"/>
      <path id="Trazado_51855" data-name="Trazado 51855" d="M237.54,78.921a3.341,3.341,0,0,0,2.366-.971l-.006,0a3.337,3.337,0,0,0-4.715-4.724l0,0,0,.009a3.349,3.349,0,0,0,0,4.718l0,0a3.311,3.311,0,0,0,2.355.976Z" fill="#fff" fill-rule="evenodd"/>
      <path id="Trazado_51856" data-name="Trazado 51856" d="M203.467,117.6a3.337,3.337,0,0,0,2.355-.964l.011-.011a3.341,3.341,0,0,0-4.732-4.719l.008.005a3.329,3.329,0,0,0,0,4.714l.1.11a3.36,3.36,0,0,0,2.255.865Z" fill="#fff" fill-rule="evenodd"/>
      <path id="Trazado_51857" data-name="Trazado 51857" d="M269.208,86.327a3.326,3.326,0,0,0,2.356-.976l.116-.11a3.349,3.349,0,0,0-.116-4.6l-.1-.112a3.37,3.37,0,0,0-4.618.105l.008.007a3.332,3.332,0,0,0,2.358,5.688Z" fill="#fff" fill-rule="evenodd"/>
    </g>
    <g id="Grupo_20369" data-name="Grupo 20369">
      <path id="Trazado_51858" data-name="Trazado 51858" d="M259.687,114.924c0,2.262,5.171,4.093,11.548,4.093s11.547-1.831,11.547-4.093-5.172-4.091-11.547-4.091-11.548,1.832-11.548,4.091" fill="#fcc331"/>
      <path id="Trazado_51859" data-name="Trazado 51859" d="M259.687,114.808c0,2.259,5.171,4.09,11.548,4.09s11.547-1.831,11.547-4.09v4.278c0,2.26-5.172,4.091-11.547,4.091s-11.548-1.831-11.548-4.091Z" fill="#eda02e"/>
      <path id="Trazado_51860" data-name="Trazado 51860" d="M259.687,119.007c0,2.258,5.171,4.092,11.548,4.092s11.547-1.834,11.547-4.092v4.278c0,2.261-5.172,4.091-11.547,4.091s-11.548-1.83-11.548-4.091Z" fill="#fcc331"/>
      <path id="Trazado_51861" data-name="Trazado 51861" d="M259.687,123.205c0,2.26,5.171,4.091,11.548,4.091s11.547-1.831,11.547-4.091v4.279c0,2.26-5.172,4.09-11.547,4.09s-11.548-1.83-11.548-4.09Z" fill="#eda02e"/>
      <path id="Trazado_51862" data-name="Trazado 51862" d="M259.687,98.082c0,2.262,5.171,4.093,11.548,4.093s11.547-1.831,11.547-4.093-5.172-4.091-11.547-4.091-11.548,1.832-11.548,4.091" fill="#fcc331"/>
      <path id="Trazado_51863" data-name="Trazado 51863" d="M259.687,97.966c0,2.259,5.171,4.09,11.548,4.09s11.547-1.831,11.547-4.09v4.278c0,2.26-5.172,4.091-11.547,4.091s-11.548-1.831-11.548-4.091Z" fill="#eda02e"/>
      <path id="Trazado_51864" data-name="Trazado 51864" d="M259.687,102.165c0,2.258,5.171,4.092,11.548,4.092s11.547-1.834,11.547-4.092v4.278c0,2.26-5.172,4.09-11.547,4.09s-11.548-1.83-11.548-4.09Z" fill="#fcc331"/>
      <path id="Trazado_51865" data-name="Trazado 51865" d="M259.687,106.387c0,2.258,5.171,4.092,11.548,4.092s11.547-1.834,11.547-4.092v4.278c0,2.261-5.172,4.091-11.547,4.091s-11.548-1.83-11.548-4.091Z" fill="#eda02e"/>
      <path id="Trazado_51866" data-name="Trazado 51866" d="M259.687,110.586c0,2.259,5.171,4.09,11.548,4.09s11.547-1.831,11.547-4.09v4.278c0,2.26-5.172,4.091-11.547,4.091s-11.548-1.831-11.548-4.091Z" fill="#fcc331"/>
      <path id="Trazado_51867" data-name="Trazado 51867" d="M259.687,127.4c0,2.259,5.171,4.092,11.548,4.092s11.547-1.833,11.547-4.092v4.279c0,2.259-5.172,4.091-11.547,4.091s-11.548-1.832-11.548-4.091Z" fill="#fcc331"/>
      <path id="Trazado_51868" data-name="Trazado 51868" d="M259.687,131.506c0,2.259,5.171,4.091,11.548,4.091s11.547-1.832,11.547-4.091v4.278c0,2.261-5.172,4.091-11.547,4.091s-11.548-1.83-11.548-4.091Z" fill="#eda02e"/>
      <path id="Trazado_51869" data-name="Trazado 51869" d="M259.687,139.8c0,2.261,5.171,4.092,11.548,4.092s11.547-1.831,11.547-4.092v4.281c0,2.26-5.172,4.09-11.547,4.09s-11.548-1.83-11.548-4.09Z" fill="#eda02e"/>
      <path id="Trazado_51870" data-name="Trazado 51870" d="M259.687,135.7c0,2.259,5.171,4.091,11.548,4.091s11.547-1.832,11.547-4.091v4.279c0,2.259-5.172,4.091-11.547,4.091s-11.548-1.832-11.548-4.091Z" fill="#fcc331"/>
    </g>
    <g id="Grupo_20370" data-name="Grupo 20370">
      <path id="Trazado_51871" data-name="Trazado 51871" d="M192.043,128.147c0,2.261,5.17,4.092,11.548,4.092s11.547-1.831,11.547-4.092-5.173-4.092-11.547-4.092-11.548,1.832-11.548,4.092" fill="#fcc331"/>
      <path id="Trazado_51872" data-name="Trazado 51872" d="M192.043,128.031c0,2.259,5.17,4.09,11.548,4.09s11.547-1.831,11.547-4.09v4.277c0,2.26-5.173,4.092-11.547,4.092s-11.548-1.832-11.548-4.092Z" fill="#eda02e"/>
      <path id="Trazado_51873" data-name="Trazado 51873" d="M192.043,132.23c0,2.258,5.17,4.092,11.548,4.092s11.547-1.834,11.547-4.092v4.278c0,2.26-5.173,4.09-11.547,4.09s-11.548-1.83-11.548-4.09Z" fill="#fcc331"/>
      <path id="Trazado_51874" data-name="Trazado 51874" d="M192.043,136.428c0,2.259,5.17,4.091,11.548,4.091s11.547-1.832,11.547-4.091v4.278c0,2.261-5.173,4.091-11.547,4.091s-11.548-1.83-11.548-4.091Z" fill="#eda02e"/>
      <path id="Trazado_51875" data-name="Trazado 51875" d="M192.043,140.627c0,2.259,5.17,4.091,11.548,4.091s11.547-1.832,11.547-4.091V144.9c0,2.26-5.173,4.092-11.547,4.092s-11.548-1.832-11.548-4.092Z" fill="#fcc331"/>
    </g>
    <g id="Grupo_20374" data-name="Grupo 20374">
      <g id="Grupo_20371" data-name="Grupo 20371">
        <path id="Trazado_51876" data-name="Trazado 51876" d="M308.546,44.517a12.038,12.038,0,1,1-11.735-12.336A12.042,12.042,0,0,1,308.546,44.517Z" fill="#ffb733"/>
      </g>
      <g id="Grupo_20372" data-name="Grupo 20372">
        <path id="Trazado_51877" data-name="Trazado 51877" d="M306.131,44.457A9.629,9.629,0,1,1,296.75,34.6,9.62,9.62,0,0,1,306.131,44.457Z" fill="#ffd55c"/>
      </g>
      <g id="Grupo_20373" data-name="Grupo 20373">
        <path id="Trazado_51878" data-name="Trazado 51878" d="M295.837,43.217a4.387,4.387,0,0,1-.942-.455,1.531,1.531,0,0,1-.506-.516,1.167,1.167,0,0,1-.159-.613,1.2,1.2,0,0,1,.25-.748,1.6,1.6,0,0,1,.69-.5,2.892,2.892,0,0,1,1.04-.182,5.924,5.924,0,0,1,1.068.086,8.626,8.626,0,0,1,1.029.244l.869.275a.179.179,0,0,0,.137-.008.261.261,0,0,0,.091-.11l.438-1.25a.176.176,0,0,0,.007-.138.287.287,0,0,0-.125-.093l-.952-.306c-.27-.081-.535-.154-.81-.215s-.555-.1-.842-.139l-.009-1.476a.2.2,0,0,0-.044-.136.2.2,0,0,0-.138-.045l-1.48.009a.187.187,0,0,0-.132.048.191.191,0,0,0-.046.135l.009,1.5a4.279,4.279,0,0,0-1.577.54,2.744,2.744,0,0,0-1.011,1.033,3,3,0,0,0-.353,1.491,3.174,3.174,0,0,0,.276,1.373,2.577,2.577,0,0,0,.876,1.012,6.667,6.667,0,0,0,1.616.8l1.847.678a5.14,5.14,0,0,1,.835.39,2.1,2.1,0,0,1,.586.5,1.092,1.092,0,0,1,.218.643,1.363,1.363,0,0,1-.175.718,1.4,1.4,0,0,1-.478.495,2.262,2.262,0,0,1-.711.284,3.771,3.771,0,0,1-.864.1,7.73,7.73,0,0,1-.888-.042,8.243,8.243,0,0,1-.844-.137c-.275-.061-.564-.138-.854-.231l-.9-.292a.163.163,0,0,0-.135,0,.247.247,0,0,0-.094.1l-.421,1.27a.15.15,0,0,0,0,.135.261.261,0,0,0,.12.1l.859.273c.419.137.807.25,1.183.334a7.335,7.335,0,0,0,1.124.176l.007,1.465a.164.164,0,0,0,.053.133.168.168,0,0,0,.129.045l1.5-.008a.161.161,0,0,0,.177-.183l-.008-1.5a4.44,4.44,0,0,0,1.681-.558,2.893,2.893,0,0,0,1.067-1.1,3.254,3.254,0,0,0,.369-1.59,3.183,3.183,0,0,0-.173-1.085,2.4,2.4,0,0,0-.515-.842,3.617,3.617,0,0,0-.874-.667,8.49,8.49,0,0,0-1.255-.561Z" fill="#dd7e0b"/>
      </g>
    </g>
  </g>
</svg>
