<svg xmlns="http://www.w3.org/2000/svg" xmlns:xlink="http://www.w3.org/1999/xlink" width="395.808" height="319.75" viewBox="0 0 395.808 319.75">
  <defs>
    <linearGradient id="linear-gradient" x1="0.198" y1="0.5" x2="1.198" y2="0.5" gradientUnits="objectBoundingBox">
      <stop offset="0" stop-color="#8e70cf"/>
      <stop offset="0.375" stop-color="#ae73c6"/>
      <stop offset="1" stop-color="#ed79b5"/>
    </linearGradient>
    <linearGradient id="linear-gradient-2" x1="0.5" y1="-0.306" x2="0.5" y2="1.665" gradientUnits="objectBoundingBox">
      <stop offset="0" stop-color="#ffe887"/>
      <stop offset="0.174" stop-color="#fdde7b"/>
      <stop offset="0.485" stop-color="#f7c55c"/>
      <stop offset="0.895" stop-color="#ef9e2a"/>
      <stop offset="1" stop-color="#ed931d"/>
    </linearGradient>
    <clipPath id="clip-path">
      <path id="Trazado_50927" data-name="Trazado 50927" d="M1816.866,977.8l29.113-17.482V995.7Z" transform="translate(-1816.866 -960.316)" fill="none"/>
    </clipPath>
  </defs>
  <g id="Grupo_19844" data-name="Grupo 19844" transform="translate(-406.807 -197.982)">
    <ellipse id="Elipse_1110" data-name="Elipse 1110" cx="181.319" cy="6.932" rx="181.319" ry="6.932" transform="translate(429.484 503.869)" fill="#e3e3e3" opacity="0.55" style="mix-blend-mode: multiply;isolation: isolate"/>
    <g id="Grupo_19812" data-name="Grupo 19812" transform="translate(420.769 266.271)">
      <g id="Grupo_19811" data-name="Grupo 19811" transform="translate(40.615 0)">
        <rect id="Rectángulo_4897" data-name="Rectángulo 4897" width="300.617" height="210.39" rx="3" fill="#424242"/>
        <rect id="Rectángulo_4898" data-name="Rectángulo 4898" width="274.241" height="172.729" transform="translate(13.188 13.071)" fill="#424242"/>
        <circle id="Elipse_1111" data-name="Elipse 1111" cx="2.767" cy="2.767" r="2.767" transform="translate(146.395 6.728) rotate(-45)" fill="#6b6b6b"/>
      </g>
      <rect id="Rectángulo_4899" data-name="Rectángulo 4899" width="381.847" height="14.467" rx="7.234" transform="translate(0 197.422)" fill="#6e6e6e"/>
      <path id="Rectángulo_4900" data-name="Rectángulo 4900" d="M0,0H65.317a0,0,0,0,1,0,0V0a6.039,6.039,0,0,1-6.039,6.039H6.039A6.039,6.039,0,0,1,0,0V0A0,0,0,0,1,0,0Z" transform="translate(158.644 197.422)" fill="#999"/>
    </g>
    <g id="Grupo_19825" data-name="Grupo 19825" transform="translate(406.807 197.982)">
      <g id="Grupo_19824" data-name="Grupo 19824" transform="translate(0 0)">
        <g id="Grupo_19822" data-name="Grupo 19822" transform="translate(27.359 25.783)">
          <rect id="Rectángulo_4901" data-name="Rectángulo 4901" width="274.279" height="179.678" transform="translate(27.533 43.005)" fill="#0b6770" opacity="0.19" style="mix-blend-mode: multiply;isolation: isolate"/>
          <g id="Grupo_19813" data-name="Grupo 19813">
            <rect id="Rectángulo_4902" data-name="Rectángulo 4902" width="284.044" height="197.751" transform="translate(0.072 9.357)" fill="#f7f7f7"/>
            <rect id="Rectángulo_4903" data-name="Rectángulo 4903" width="284.044" height="29.235" fill="url(#linear-gradient)"/>
          </g>
          <g id="Grupo_19814" data-name="Grupo 19814" transform="translate(6.02 10.499)" opacity="0.33">
            <path id="Trazado_50916" data-name="Trazado 50916" d="M635.917,448.9a3.131,3.131,0,1,1-3.134-3.129A3.131,3.131,0,0,1,635.917,448.9Z" transform="translate(-629.655 -444.941)" fill="#fff"/>
            <path id="Trazado_50917" data-name="Trazado 50917" d="M700.437,448.852a3.131,3.131,0,1,1-3.134-3.129A3.131,3.131,0,0,1,700.437,448.852Z" transform="translate(-684.51 -444.898)" fill="#fff"/>
            <circle id="Elipse_1112" data-name="Elipse 1112" cx="3.131" cy="3.131" r="3.131" transform="matrix(0.31, -0.951, 0.951, 0.31, 18.511, 5.953)" fill="#fff"/>
          </g>
          <g id="Grupo_19815" data-name="Grupo 19815" transform="translate(92.842 12.499)" opacity="0.33">
            <line id="Línea_251" data-name="Línea 251" y1="0.078" x2="100.571" transform="translate(1.542 1.503)" fill="#fff"/>
            <rect id="Rectángulo_4904" data-name="Rectángulo 4904" width="103.656" height="3.084" fill="#fff"/>
          </g>
          <g id="Grupo_19820" data-name="Grupo 19820" transform="translate(15.6 43.855)">
            <g id="Grupo_19818" data-name="Grupo 19818" transform="translate(153.092)">
              <g id="Grupo_19816" data-name="Grupo 19816" opacity="0.33">
                <line id="Línea_252" data-name="Línea 252" y1="0.071" x2="91.762" transform="translate(2.358 2.323)" fill="#fff"/>
                <rect id="Rectángulo_4905" data-name="Rectángulo 4905" width="96.478" height="4.716" fill="#c1a8db"/>
              </g>
              <g id="Grupo_19817" data-name="Grupo 19817" transform="translate(48.334 11.465)" opacity="0.33">
                <line id="Línea_253" data-name="Línea 253" y1="0.034" x2="43.43" transform="translate(2.358 2.341)" fill="#fff"/>
                <rect id="Rectángulo_4906" data-name="Rectángulo 4906" width="48.147" height="4.716" fill="#c1a8db"/>
              </g>
            </g>
            <g id="Grupo_19819" data-name="Grupo 19819" transform="translate(0 0.139)" opacity="0.33">
              <line id="Línea_254" data-name="Línea 254" y1="0.03" x2="38.952" transform="translate(2.358 2.343)" fill="#fff"/>
              <rect id="Rectángulo_4907" data-name="Rectángulo 4907" width="43.668" height="4.716" fill="#c1a8db"/>
            </g>
          </g>
          <g id="Grupo_19821" data-name="Grupo 19821" transform="translate(15.735 74.71)">
            <path id="Trazado_50918" data-name="Trazado 50918" d="M762.737,983.027l-62.839.049a5.3,5.3,0,0,1-5.3-5.3l-.08-102.613a5.3,5.3,0,0,1,5.3-5.3l62.839-.049a5.3,5.3,0,0,1,5.3,5.3l.08,102.613A5.3,5.3,0,0,1,762.737,983.027Z" transform="translate(-694.514 -869.679)" fill="#e7e1ed"/>
            <path id="Trazado_50919" data-name="Trazado 50919" d="M1348.587,982.574l-62.839.049a5.3,5.3,0,0,1-5.3-5.3l-.08-102.613a5.3,5.3,0,0,1,5.3-5.3l62.839-.049a5.3,5.3,0,0,1,5.3,5.3l.079,102.613A5.3,5.3,0,0,1,1348.587,982.574Z" transform="translate(-1192.614 -869.293)" fill="#e7e1ed"/>
            <path id="Trazado_50920" data-name="Trazado 50920" d="M1934.437,982.12l-62.839.049a5.3,5.3,0,0,1-5.3-5.3l-.08-102.613a5.3,5.3,0,0,1,5.3-5.3l62.839-.049a5.3,5.3,0,0,1,5.3,5.3l.079,102.613A5.3,5.3,0,0,1,1934.437,982.12Z" transform="translate(-1690.714 -868.907)" fill="#e7e1ed"/>
          </g>
        </g>
        <g id="Grupo_19823" data-name="Grupo 19823">
          <rect id="Rectángulo_4908" data-name="Rectángulo 4908" width="14.481" height="3.679" transform="translate(2.147 29.678) rotate(-9.925)" fill="#fff"/>
          <rect id="Rectángulo_4909" data-name="Rectángulo 4909" width="3.679" height="21.527" transform="translate(0 9.204) rotate(-54.925)" fill="#fff"/>
          <rect id="Rectángulo_4910" data-name="Rectángulo 4910" width="3.679" height="14.481" transform="matrix(0.987, -0.162, 0.162, 0.987, 22.993, 0.595)" fill="#fff"/>
        </g>
      </g>
    </g>
    <g id="Grupo_19833" data-name="Grupo 19833" transform="translate(484.895 282.283)">
      <rect id="Rectángulo_4911" data-name="Rectángulo 4911" width="171.296" height="105.674" rx="5" transform="translate(0 0)" fill="#5d6fba"/>
      <path id="Trazado_50921" data-name="Trazado 50921" d="M1373.532,866.475h100.181a4.4,4.4,0,0,0,4.4-4.4V765.2a4.4,4.4,0,0,0-4.4-4.4h-43.721Z" transform="translate(-1306.821 -760.801)" fill="#5163a8"/>
      <rect id="Rectángulo_4912" data-name="Rectángulo 4912" width="27.452" height="19.722" rx="9.861" transform="translate(14.822 43.562)" fill="url(#linear-gradient-2)"/>
      <g id="Grupo_19828" data-name="Grupo 19828" transform="translate(14.153 16.595)">
        <g id="Grupo_19826" data-name="Grupo 19826" opacity="0.3">
          <line id="Línea_255" data-name="Línea 255" x2="41.773" transform="translate(1.39 1.389)" fill="#fff"/>
          <rect id="Rectángulo_4913" data-name="Rectángulo 4913" width="44.552" height="2.779" fill="#fff"/>
        </g>
        <g id="Grupo_19827" data-name="Grupo 19827" transform="translate(0 7.743)" opacity="0.3">
          <line id="Línea_256" data-name="Línea 256" x2="63.768" transform="translate(1.39 1.389)" fill="#fff"/>
          <rect id="Rectángulo_4914" data-name="Rectángulo 4914" width="66.547" height="2.779" fill="#fff"/>
        </g>
      </g>
      <g id="Grupo_19829" data-name="Grupo 19829" transform="translate(113.249 74.013)">
        <path id="Trazado_50922" data-name="Trazado 50922" d="M1818.906,1270.366h-12.958a1.059,1.059,0,0,1-.908-1.6l7.971-13.309a1.059,1.059,0,0,1,.908-.515h12.958a1.059,1.059,0,0,1,.908,1.6l-7.971,13.309A1.059,1.059,0,0,1,1818.906,1270.366Z" transform="translate(-1786.816 -1254.94)" fill="#f6921e"/>
        <path id="Trazado_50923" data-name="Trazado 50923" d="M1698.253,1270.366H1685.3a1.059,1.059,0,0,1-.908-1.6l7.971-13.309a1.059,1.059,0,0,1,.908-.515h12.958a1.059,1.059,0,0,1,.908,1.6l-7.971,13.309A1.059,1.059,0,0,1,1698.253,1270.366Z" transform="translate(-1684.235 -1254.94)" fill="#f6921e"/>
      </g>
      <g id="Grupo_19832" data-name="Grupo 19832" transform="translate(133.115 29.884)">
        <g id="Grupo_19831" data-name="Grupo 19831" clip-path="url(#clip-path)">
          <g id="Grupo_19830" data-name="Grupo 19830" transform="translate(-21.977 -4.817)" opacity="0.31">
            <path id="Trazado_50924" data-name="Trazado 50924" d="M1750.044,1019.829a11.772,11.772,0,1,1,11.772-11.772A11.785,11.785,0,0,1,1750.044,1019.829Zm0-20.765a8.993,8.993,0,1,0,8.993,8.993A9,9,0,0,0,1750.044,999.064Z" transform="translate(-1728.068 -986.08)" fill="#fff"/>
            <path id="Trazado_50925" data-name="Trazado 50925" d="M1721.082,995.969a16.874,16.874,0,1,1,16.875-16.874A16.893,16.893,0,0,1,1721.082,995.969Zm0-30.97a14.1,14.1,0,1,0,14.1,14.1A14.111,14.111,0,0,0,1721.082,965Z" transform="translate(-1699.106 -957.118)" fill="#fff"/>
            <path id="Trazado_50926" data-name="Trazado 50926" d="M1692.12,972.108a21.977,21.977,0,1,1,21.977-21.977A22,22,0,0,1,1692.12,972.108Zm0-41.174a19.2,19.2,0,1,0,19.2,19.2A19.219,19.219,0,0,0,1692.12,930.934Z" transform="translate(-1670.143 -928.155)" fill="#fff"/>
          </g>
        </g>
      </g>
    </g>
    <path id="Trazado_50928" data-name="Trazado 50928" d="M1715.673,1066.643v122.535l-15.128-9.583-15.136,9.583-15.119-9.583-15.128,9.583-15.128-9.583-15.128,9.583V1066.643l15.128,9.583,15.136-9.583,15.119,9.583,15.128-9.583,15.128,9.583Z" transform="translate(-1035.65 -738.55)" fill="#58228f" opacity="0.28" style="mix-blend-mode: multiply;isolation: isolate"/>
    <g id="Grupo_19843" data-name="Grupo 19843" transform="translate(584.66 324.308)">
      <g id="Grupo_19842" data-name="Grupo 19842" transform="translate(0 0)">
        <g id="Grupo_19841" data-name="Grupo 19841">
          <path id="Trazado_50929" data-name="Trazado 50929" d="M1684.979,1041.376v122.535l-15.128-9.582-15.136,9.582-15.119-9.582-15.128,9.582-15.128-9.582-15.128,9.582V1041.376l15.128,9.583,15.136-9.583,15.119,9.583,15.128-9.583,15.128,9.583Z" transform="translate(-1594.213 -1041.376)" fill="#f2f2f2"/>
          <g id="Grupo_19840" data-name="Grupo 19840" transform="translate(12.786 29.9)">
            <g id="Grupo_19834" data-name="Grupo 19834" transform="translate(0 15.821)">
              <rect id="Rectángulo_4915" data-name="Rectángulo 4915" width="32.5" height="2.189" fill="#d4d4d4"/>
              <rect id="Rectángulo_4916" data-name="Rectángulo 4916" width="14.46" height="2.189" transform="translate(50.734)" fill="#d4d4d4"/>
            </g>
            <g id="Grupo_19835" data-name="Grupo 19835" transform="translate(0 23.74)">
              <rect id="Rectángulo_4917" data-name="Rectángulo 4917" width="24.28" height="2.189" fill="#d4d4d4"/>
              <rect id="Rectángulo_4918" data-name="Rectángulo 4918" width="14.46" height="2.189" transform="translate(50.734)" fill="#d4d4d4"/>
            </g>
            <g id="Grupo_19836" data-name="Grupo 19836" transform="translate(0 31.659)">
              <rect id="Rectángulo_4919" data-name="Rectángulo 4919" width="32.5" height="2.189" fill="#d4d4d4"/>
              <rect id="Rectángulo_4920" data-name="Rectángulo 4920" width="14.46" height="2.189" transform="translate(50.734)" fill="#d4d4d4"/>
            </g>
            <g id="Grupo_19837" data-name="Grupo 19837" transform="translate(0 39.577)">
              <rect id="Rectángulo_4921" data-name="Rectángulo 4921" width="32.5" height="2.189" fill="#d4d4d4"/>
              <rect id="Rectángulo_4922" data-name="Rectángulo 4922" width="14.46" height="2.189" transform="translate(50.734)" fill="#d4d4d4"/>
            </g>
            <g id="Grupo_19838" data-name="Grupo 19838" transform="translate(0 47.496)">
              <rect id="Rectángulo_4923" data-name="Rectángulo 4923" width="28.539" height="2.189" fill="#d4d4d4"/>
              <rect id="Rectángulo_4924" data-name="Rectángulo 4924" width="14.46" height="2.189" transform="translate(50.734)" fill="#d4d4d4"/>
            </g>
            <g id="Grupo_19839" data-name="Grupo 19839" transform="translate(0 55.415)">
              <rect id="Rectángulo_4925" data-name="Rectángulo 4925" width="32.5" height="2.189" fill="#d4d4d4"/>
              <rect id="Rectángulo_4926" data-name="Rectángulo 4926" width="14.46" height="2.189" transform="translate(50.734)" fill="#d4d4d4"/>
            </g>
            <rect id="Rectángulo_4927" data-name="Rectángulo 4927" width="42.642" height="2.189" transform="translate(11.276)" fill="#d4d4d4"/>
          </g>
        </g>
      </g>
      <path id="Trazado_50930" data-name="Trazado 50930" d="M1742.193,1267.48l-14.962-14.962,6.147-6.147,8.655,8.655,41.274-43.453,6.3,5.987Z" transform="translate(-1707.307 -1186.08)" fill="#78ba23"/>
    </g>
  </g>
</svg>
