<svg xmlns="http://www.w3.org/2000/svg" width="316.172" height="316.861" viewBox="0 0 316.172 316.861">
  <g id="Elderly_financial" data-name="Elderly financial" transform="translate(-2427.461 -184.642)">
    <path id="Trazado_48882" data-name="Trazado 48882" d="M2553.285,196.641c-6.831,2.142-37.139,12.1-67.4,38.515-7.332,6.4-36.965,32.267-49.626,67.044-21.55,59.195,4.237,149.25,78.513,185.441,86.516,42.154,195.8-9.731,220.726-79.17,10.79-30.059,9.106-67.685,6.925-98.968-1.469-21.069-2.823-93.206-37.287-86.91-12.652,2.312-19.365,13.023-30.427,1.3-6.447-6.831-9.147-16.751-16.113-23.11-8.039-7.337-17.821-11.339-28.552-12.655C2604.561,185,2577.648,189,2553.285,196.641Z" transform="translate(-0.898 -1.497)" fill="#caddff"/>
    <g id="Grupo_18989" data-name="Grupo 18989" transform="translate(2435.096 227.561)">
      <g id="Grupo_18982" data-name="Grupo 18982" transform="translate(4.336 57.932)">
        <rect id="Rectángulo_4634" data-name="Rectángulo 4634" width="51.291" height="95.495" transform="translate(51.862 96.066) rotate(180)" fill="#99b9ff"/>
        <path id="Trazado_48883" data-name="Trazado 48883" d="M2510.776,546.24h-51.291a.571.571,0,0,1-.571-.571V450.174a.571.571,0,0,1,.571-.571h51.291a.571.571,0,0,1,.571.571v95.495A.571.571,0,0,1,2510.776,546.24Zm-50.72-1.142H2510.2V450.745h-50.149Z" transform="translate(-2458.914 -449.603)"/>
      </g>
      <path id="Trazado_48884" data-name="Trazado 48884" d="M2459.551,546.369a.53.53,0,0,1-.53-.53V450.357a.53.53,0,0,1,1.061,0v95.481A.531.531,0,0,1,2459.551,546.369Z" transform="translate(-2454.644 -391.81)"/>
      <rect id="Rectángulo_4635" data-name="Rectángulo 4635" width="138.981" height="106.886" transform="translate(159.34 47.112)" fill="#fff"/>
      <path id="Trazado_48885" data-name="Trazado 48885" d="M2504.818,432.164h-55.749a.264.264,0,0,1-.1-.506l26.178-11.13,29.674,0Z" transform="translate(-2448.316 -373.662)" fill="#99b9ff"/>
      <path id="Trazado_48886" data-name="Trazado 48886" d="M2473.323,431.832h-25a.8.8,0,0,1-.315-1.546l26.229-11.152h.108l24.837,0a.531.531,0,0,1,0,1.061l-24.729,0-24.874,10.576h23.74a.53.53,0,0,1,0,1.061Z" transform="translate(-2447.521 -372.799)"/>
      <path id="Trazado_48887" data-name="Trazado 48887" d="M2653.88,298.8h101.288l-77.789,35.28H2577.5a.306.306,0,0,1-.126-.584Z" transform="translate(-2527.84 -298.264)" fill="#99b9ff"/>
      <path id="Trazado_48888" data-name="Trazado 48888" d="M2580.483,333.741h-4.377a.785.785,0,0,1-.324-1.5L2652.6,297.4h94.247a.53.53,0,0,1,0,1.061h-94.018l-75.449,34.219h3.1a.53.53,0,1,1,0,1.06Z" transform="translate(-2526.677 -297.401)"/>
      <path id="Trazado_48889" data-name="Trazado 48889" d="M2839.866,334.105H2996.56L2917.971,298.8Z" transform="translate(-2690.53 -298.267)" fill="#fff"/>
      <rect id="Rectángulo_4636" data-name="Rectángulo 4636" width="103.072" height="106.808" transform="translate(56.224 46.999)" fill="#caddff"/>
      <g id="Grupo_18983" data-name="Grupo 18983" transform="translate(159.34 47.112)">
        <rect id="Rectángulo_4637" data-name="Rectángulo 4637" width="9.988" height="106.886" transform="translate(102.807)" fill="#caddff"/>
        <rect id="Rectángulo_4638" data-name="Rectángulo 4638" width="9.988" height="106.886" transform="translate(77.025)" fill="#caddff"/>
        <rect id="Rectángulo_4639" data-name="Rectángulo 4639" width="9.988" height="106.886" transform="translate(51.243)" fill="#caddff"/>
        <rect id="Rectángulo_4640" data-name="Rectángulo 4640" width="9.988" height="106.886" transform="translate(25.461)" fill="#caddff"/>
        <rect id="Rectángulo_4641" data-name="Rectángulo 4641" width="9.988" height="106.886" fill="#caddff"/>
        <rect id="Rectángulo_4642" data-name="Rectángulo 4642" width="9.988" height="106.886" transform="translate(128.589)" fill="#caddff"/>
      </g>
      <g id="Grupo_18984" data-name="Grupo 18984" transform="translate(56.212 47.112)">
        <rect id="Rectángulo_4643" data-name="Rectángulo 4643" width="9.988" height="106.886" transform="translate(77.346)" fill="#99b9ff"/>
        <rect id="Rectángulo_4644" data-name="Rectángulo 4644" width="9.988" height="106.886" transform="translate(51.564)" fill="#99b9ff"/>
        <rect id="Rectángulo_4645" data-name="Rectángulo 4645" width="9.988" height="106.886" transform="translate(25.782)" fill="#99b9ff"/>
        <rect id="Rectángulo_4646" data-name="Rectángulo 4646" width="9.988" height="106.886" fill="#99b9ff"/>
      </g>
      <rect id="Rectángulo_4647" data-name="Rectángulo 4647" width="103.072" height="11.245" transform="translate(159.296 47.129) rotate(180)" fill="#fff"/>
      <g id="Grupo_18985" data-name="Grupo 18985" transform="translate(158.769 153.427)">
        <rect id="Rectángulo_4648" data-name="Rectángulo 4648" width="35.449" height="24.218" transform="translate(36.02 24.789) rotate(180)" fill="#fff"/>
        <path id="Trazado_48890" data-name="Trazado 48890" d="M2900.669,725.853h-35.449a.571.571,0,0,1-.571-.571V701.064a.571.571,0,0,1,.571-.571h35.449a.571.571,0,0,1,.571.571v24.218A.571.571,0,0,1,2900.669,725.853Zm-34.878-1.142H2900.1V701.635h-34.307Z" transform="translate(-2864.65 -700.493)"/>
      </g>
      <rect id="Rectángulo_4649" data-name="Rectángulo 4649" width="51.37" height="24.133" transform="translate(4.888 153.997)" fill="#caddff"/>
      <rect id="Rectángulo_4650" data-name="Rectángulo 4650" width="138.621" height="11.245" transform="translate(297.917 47.129) rotate(180)" fill="#fff"/>
      <rect id="Rectángulo_4651" data-name="Rectángulo 4651" width="35.466" height="24.218" transform="translate(297.63 178.215) rotate(180)" fill="#fff"/>
      <rect id="Rectángulo_4652" data-name="Rectángulo 4652" width="67.173" height="24.218" transform="translate(261.962 178.215) rotate(180)" fill="#fff"/>
      <g id="Grupo_18986" data-name="Grupo 18986" transform="translate(15.52 72.028)">
        <rect id="Rectángulo_4653" data-name="Rectángulo 4653" width="9.988" height="19.586" transform="translate(21.028)" fill="#caddff"/>
        <rect id="Rectángulo_4654" data-name="Rectángulo 4654" width="9.988" height="19.586" transform="translate(21.028 41.463)" fill="#caddff"/>
        <rect id="Rectángulo_4655" data-name="Rectángulo 4655" width="9.988" height="19.586" fill="#caddff"/>
        <rect id="Rectángulo_4656" data-name="Rectángulo 4656" width="9.988" height="19.586" transform="translate(0 41.463)" fill="#caddff"/>
      </g>
      <rect id="Rectángulo_4657" data-name="Rectángulo 4657" width="103.051" height="24.218" transform="translate(56.141 153.997)" fill="#99b9ff"/>
      <g id="Grupo_18987" data-name="Grupo 18987" transform="translate(201.346 158.406)">
        <path id="Trazado_48891" data-name="Trazado 48891" d="M2993.651,714.716h-16.57a.571.571,0,1,1,0-1.142h16.57a.571.571,0,1,1,0,1.142Z" transform="translate(-2976.51 -713.574)" fill="#99b9ff"/>
        <path id="Trazado_48892" data-name="Trazado 48892" d="M3001.675,727.431h-24.594a.571.571,0,1,1,0-1.142h24.594a.571.571,0,1,1,0,1.142Z" transform="translate(-2976.51 -721.449)" fill="#99b9ff"/>
        <path id="Trazado_48893" data-name="Trazado 48893" d="M2977.081,740.04a.571.571,0,0,1,0-1.142l39.2-.065h0a.571.571,0,0,1,0,1.142l-39.2.065Z" transform="translate(-2976.51 -729.219)" fill="#99b9ff"/>
        <path id="Trazado_48894" data-name="Trazado 48894" d="M3030.781,752.861h-53.7a.571.571,0,1,1,0-1.142h53.7a.571.571,0,0,1,0,1.142Z" transform="translate(-2976.51 -737.2)" fill="#99b9ff"/>
      </g>
      <g id="Grupo_18988" data-name="Grupo 18988" transform="translate(81.464 50.68)">
        <path id="Trazado_48895" data-name="Trazado 48895" d="M2756.056,455.014a.531.531,0,0,1-.531-.531V438.643a.531.531,0,0,1,1.061,0v15.841A.531.531,0,0,1,2756.056,455.014Z" transform="translate(-2719.755 -435.234)"/>
        <path id="Trazado_48896" data-name="Trazado 48896" d="M2688.32,460.233a.531.531,0,0,1-.531-.531V436.734a.53.53,0,1,1,1.061,0V459.7A.53.53,0,0,1,2688.32,460.233Z" transform="translate(-2677.801 -434.052)"/>
        <path id="Trazado_48897" data-name="Trazado 48897" d="M2662.078,485.347a.53.53,0,0,1-.53-.531V465.9a.53.53,0,0,1,1.061,0v18.917A.531.531,0,0,1,2662.078,485.347Z" transform="translate(-2661.548 -452.116)"/>
        <path id="Trazado_48898" data-name="Trazado 48898" d="M3229.365,487.585a.531.531,0,0,1-.531-.531V431.082a.53.53,0,1,1,1.061,0v55.973A.531.531,0,0,1,3229.365,487.585Z" transform="translate(-3012.912 -430.551)"/>
      </g>
      <path id="Trazado_48899" data-name="Trazado 48899" d="M2491.047,725.768h-31.614a.571.571,0,0,1-.571-.571V701.064a.571.571,0,0,1,.571-.571h31.243a.571.571,0,1,1,0,1.142H2460v22.991h31.043a.571.571,0,1,1,0,1.142Z" transform="translate(-2454.545 -547.066)"/>
      <path id="Trazado_48900" data-name="Trazado 48900" d="M2864.1,726.55h-.448a.571.571,0,0,1-.123-1.129V702.189a.571.571,0,1,1,1.142,0v23.79A.571.571,0,0,1,2864.1,726.55Z" transform="translate(-2704.91 -547.763)"/>
      <path id="Trazado_48901" data-name="Trazado 48901" d="M2664.079,765.262H2643.86a.571.571,0,0,1,0-1.142h20.219a.571.571,0,0,1,0,1.142Z" transform="translate(-2568.775 -586.475)"/>
      <path id="Trazado_48902" data-name="Trazado 48902" d="M3109.168,333.772H3018.21a.53.53,0,0,1,0-1.061h86.009l-76.332-34.292a.53.53,0,1,1,.435-.968Z" transform="translate(-2800.664 -297.404)"/>
      <path id="Trazado_48903" data-name="Trazado 48903" d="M3098.205,402.591h-46.77a.53.53,0,0,1,0-1.061h45.709V391.346h-80.4a.53.53,0,0,1,0-1.061h81.458Z" transform="translate(-2799.757 -354.931)"/>
    </g>
    <g id="Grupo_18995" data-name="Grupo 18995" transform="translate(2619.056 410.618)">
      <g id="Grupo_18990" data-name="Grupo 18990" transform="translate(0 22.459)">
        <path id="Trazado_48904" data-name="Trazado 48904" d="M2930.838,863.6l-.006,8.339c0,2.527,2.919,5.06,8.79,7.02,11.743,3.919,30.906,4.085,43.181.42.2-.06.4-.121.6-.183,6.219-1.958,9.344-4.561,9.348-7.17l.006-8.339c0,2.61-3.128,5.213-9.347,7.17-.2.063-.4.123-.6.183-12.275,3.665-31.438,3.5-43.18-.42C2933.757,868.66,2930.835,866.127,2930.838,863.6Z" transform="translate(-2930.832 -853.608)" fill="#99b9ff"/>
        <path id="Trazado_48905" data-name="Trazado 48905" d="M2940.8,839.986c-.2.061-.4.121-.6.184-12.244,3.853-12.494,10.206-.559,14.19,11.743,3.919,30.905,4.085,43.181.42.2-.06.4-.121.6-.183,12.242-3.853,12.492-10.206.557-14.19C2972.235,836.487,2953.073,836.322,2940.8,839.986Z" transform="translate(-2930.843 -837.348)" fill="#fff"/>
      </g>
      <g id="Grupo_18991" data-name="Grupo 18991" transform="translate(6.657 12.61)">
        <path id="Trazado_48906" data-name="Trazado 48906" d="M2948.329,837.722l-.007,8.339c0,2.527,2.919,5.06,8.79,7.02,11.743,3.919,30.906,4.085,43.181.42.2-.06.4-.121.6-.183,6.219-1.958,9.343-4.56,9.347-7.17l.007-8.339c0,2.609-3.128,5.212-9.347,7.17-.2.062-.4.123-.6.183-12.276,3.665-31.438,3.5-43.181-.42C2951.248,842.782,2948.325,840.249,2948.329,837.722Z" transform="translate(-2948.322 -827.73)" fill="#99b9ff"/>
        <path id="Trazado_48907" data-name="Trazado 48907" d="M2958.289,814.108c-.2.06-.4.121-.6.184-12.243,3.853-12.493,10.206-.559,14.19,11.743,3.92,30.906,4.085,43.181.42.2-.06.4-.121.6-.183,12.242-3.853,12.492-10.206.557-14.19C2989.725,810.61,2970.563,810.444,2958.289,814.108Z" transform="translate(-2948.333 -811.47)" fill="#fff"/>
      </g>
      <g id="Grupo_18994" data-name="Grupo 18994" transform="translate(0.515)">
        <g id="Grupo_18992" data-name="Grupo 18992" transform="translate(0 10.011)">
          <path id="Trazado_48908" data-name="Trazado 48908" d="M2933.689,806.144l-.006,8.339c0,2.527,2.919,5.06,8.79,7.02,11.743,3.919,30.906,4.085,43.181.42.2-.06.4-.121.6-.183,6.219-1.958,9.344-4.561,9.347-7.17l.007-8.339c0,2.61-3.128,5.213-9.347,7.17-.2.062-.4.123-.6.183-12.275,3.665-31.438,3.5-43.181-.42C2936.608,811.2,2933.686,808.671,2933.689,806.144Z" transform="translate(-2933.113 -805.573)" fill="#99b9ff"/>
          <path id="Trazado_48909" data-name="Trazado 48909" d="M2963.833,824.223c-8.145,0-16.281-1.042-22.469-3.107-5.924-1.978-9.185-4.663-9.18-7.563l.006-8.333v-.005a.571.571,0,0,1,.571-.57h0a.571.571,0,0,1,.57.571h0c0,2.334,3.058,4.695,8.4,6.478,11.515,3.843,30.731,4.029,42.837.414.2-.06.4-.12.591-.181,5.683-1.789,8.944-4.2,8.947-6.626a.571.571,0,0,1,.571-.57h0a.571.571,0,0,1,.57.571l-.007,8.339c0,3-3.466,5.737-9.747,7.714q-.3.095-.607.186A76.454,76.454,0,0,1,2963.833,824.223Zm-30.5-16.1,0,5.432c0,2.334,3.058,4.7,8.4,6.478,11.514,3.843,30.73,4.029,42.837.415.2-.06.4-.12.59-.181,5.683-1.789,8.944-4.2,8.947-6.626l0-5.431c-1.5,1.841-4.426,3.493-8.6,4.808-.2.063-.4.125-.607.186-12.505,3.734-31.623,3.547-43.525-.425C2937.493,811.482,2934.756,809.884,2933.33,808.122Z" transform="translate(-2932.184 -804.644)"/>
        </g>
        <g id="Grupo_18993" data-name="Grupo 18993" transform="translate(0.006)">
          <path id="Trazado_48910" data-name="Trazado 48910" d="M2943.649,782.53c-.2.061-.4.121-.6.184-12.244,3.853-12.493,10.207-.559,14.191,11.743,3.919,30.906,4.085,43.181.42.2-.06.4-.121.6-.183,12.242-3.853,12.492-10.206.557-14.191C2975.086,779.031,2955.924,778.865,2943.649,782.53Z" transform="translate(-2933.129 -779.302)" fill="#fff"/>
          <path id="Trazado_48911" data-name="Trazado 48911" d="M2963.85,799.593c-8.146,0-16.282-1.042-22.469-3.107-5.945-1.985-9.205-4.68-9.18-7.59.026-2.986,3.488-5.716,9.749-7.687.2-.063.4-.125.608-.186h0c12.5-3.733,31.622-3.546,43.521.426,5.945,1.985,9.206,4.68,9.18,7.59-.026,2.986-3.487,5.716-9.746,7.686-.2.063-.4.125-.607.186A76.44,76.44,0,0,1,2963.85,799.593Zm-20.966-17.476c-.2.06-.4.12-.592.182-5.667,1.783-8.928,4.191-8.949,6.607-.02,2.341,3.042,4.709,8.4,6.5,11.515,3.843,30.731,4.029,42.837.415.2-.06.4-.12.59-.181,5.666-1.783,8.926-4.191,8.948-6.607.021-2.34-3.041-4.709-8.4-6.5-11.513-3.843-30.728-4.029-42.833-.415Z" transform="translate(-2932.199 -778.341)"/>
        </g>
        <path id="Trazado_48912" data-name="Trazado 48912" d="M2968,798.036l-1.07,1.289,3.724.521a1.813,1.813,0,0,0-.184,2.1l5.1.289a1.7,1.7,0,0,1,.131-2.1,2.383,2.383,0,0,1,1.331-.752,5.562,5.562,0,0,1,1.976-.048,2.494,2.494,0,0,1,2.333,2.089c.479,1.814,2.284,2.772,6.092,3.305a20.2,20.2,0,0,0,7.1-.176,8.235,8.235,0,0,0,2.668-1.069l4.317.6,1.07-1.289-4.022-.563a2.051,2.051,0,0,0,.033-2.492l-5.279-.3a1.851,1.851,0,0,1,.053,2.444,2.733,2.733,0,0,1-1.515.838,5.944,5.944,0,0,1-2.156.057c-1.609-.225-2.275-.788-2.526-1.91-.357-1.621-1.677-2.878-5.784-3.453a19.221,19.221,0,0,0-6.814.168,8.5,8.5,0,0,0-2.562,1Z" transform="translate(-2953.705 -790.028)" fill="#99b9ff"/>
      </g>
    </g>
    <g id="Grupo_19005" data-name="Grupo 19005" transform="translate(2427.489 184.642)">
      <g id="Grupo_18996" data-name="Grupo 18996" transform="translate(0 31.728)">
        <rect id="Rectángulo_4658" data-name="Rectángulo 4658" width="143.893" height="189.574" rx="19.379" transform="translate(0.571 0.571)" fill="#99b9ff"/>
        <path id="Trazado_48913" data-name="Trazado 48913" d="M2564.623,458.716h-50.129a.571.571,0,0,1,0-1.142h50.129a6.813,6.813,0,0,0,6.805-6.805V275.947a6.813,6.813,0,0,0-6.805-6.806H2435.482a6.813,6.813,0,0,0-6.806,6.806v46.061a.571.571,0,1,1-1.142,0V275.947a7.957,7.957,0,0,1,7.948-7.947h129.141a7.956,7.956,0,0,1,7.947,7.947V450.769A7.956,7.956,0,0,1,2564.623,458.716Z" transform="translate(-2427.535 -268)"/>
      </g>
      <g id="Grupo_19001" data-name="Grupo 19001" transform="translate(15.563 43.434)">
        <rect id="Rectángulo_4659" data-name="Rectángulo 4659" width="112.768" height="158.949" transform="translate(113.339 159.52) rotate(180)" fill="#caddff"/>
        <g id="Grupo_18997" data-name="Grupo 18997" transform="translate(14.19 24.906)">
          <rect id="Rectángulo_4660" data-name="Rectángulo 4660" width="85.53" height="4.929" transform="translate(85.53 4.929) rotate(180)" fill="#fff"/>
          <rect id="Rectángulo_4661" data-name="Rectángulo 4661" width="63.191" height="4.929" transform="translate(85.53 14.631) rotate(180)" fill="#fff"/>
        </g>
        <g id="Grupo_18998" data-name="Grupo 18998" transform="translate(14.19 51.158)">
          <rect id="Rectángulo_4662" data-name="Rectángulo 4662" width="85.53" height="4.929" transform="translate(85.53 4.929) rotate(180)" fill="#fff"/>
          <rect id="Rectángulo_4663" data-name="Rectángulo 4663" width="63.191" height="4.929" transform="translate(85.53 14.631) rotate(180)" fill="#fff"/>
        </g>
        <g id="Grupo_18999" data-name="Grupo 18999" transform="translate(14.19 77.41)">
          <rect id="Rectángulo_4664" data-name="Rectángulo 4664" width="85.53" height="4.929" transform="translate(85.53 4.929) rotate(180)" fill="#fff"/>
          <rect id="Rectángulo_4665" data-name="Rectángulo 4665" width="63.191" height="4.929" transform="translate(85.53 14.631) rotate(180)" fill="#fff"/>
        </g>
        <g id="Grupo_19000" data-name="Grupo 19000" transform="translate(14.19 103.662)">
          <rect id="Rectángulo_4666" data-name="Rectángulo 4666" width="85.53" height="4.929" transform="translate(85.53 4.929) rotate(180)" fill="#fff"/>
          <rect id="Rectángulo_4667" data-name="Rectángulo 4667" width="63.191" height="4.929" transform="translate(85.53 14.631) rotate(180)" fill="#fff"/>
        </g>
        <path id="Trazado_48914" data-name="Trazado 48914" d="M2581.762,458.845h-49.555a.571.571,0,0,1,0-1.142h48.984V299.9H2469.565V413.035a.571.571,0,1,1-1.142,0V299.325a.571.571,0,0,1,.571-.571h112.768a.571.571,0,0,1,.571.571V458.274A.571.571,0,0,1,2581.762,458.845Z" transform="translate(-2468.423 -298.754)"/>
      </g>
      <g id="Grupo_19004" data-name="Grupo 19004" transform="translate(29.9)">
        <g id="Grupo_19002" data-name="Grupo 19002" transform="translate(0 27.108)">
          <path id="Rectángulo_4668" data-name="Rectángulo 4668" d="M7.8,0H76.294a7.8,7.8,0,0,1,7.8,7.8v0A17.767,17.767,0,0,1,66.328,25.567H17.767A17.767,17.767,0,0,1,0,7.8v0A7.8,7.8,0,0,1,7.8,0Z" transform="translate(84.666 26.138) rotate(180)" fill="#99b9ff"/>
          <path id="Trazado_48915" data-name="Trazado 48915" d="M2584.349,282.57h-71.284a6.984,6.984,0,0,1-6.976-6.976v-4.573a15.177,15.177,0,0,1,15.159-15.16h54.917a15.177,15.177,0,0,1,15.16,15.16v4.573A6.984,6.984,0,0,1,2584.349,282.57ZM2521.249,257a14.034,14.034,0,0,0-14.018,14.018v4.573a5.841,5.841,0,0,0,5.834,5.835h71.284a5.841,5.841,0,0,0,5.835-5.835v-4.573A14.034,14.034,0,0,0,2576.166,257Z" transform="translate(-2506.089 -255.861)"/>
        </g>
        <g id="Grupo_19003" data-name="Grupo 19003" transform="translate(28.186)">
          <path id="Trazado_48916" data-name="Trazado 48916" d="M2581.64,200v21.615a4.414,4.414,0,0,0,4.414,4.414h18.9a4.414,4.414,0,0,0,4.414-4.414V200a13.862,13.862,0,1,0-27.724,0Zm9.549-3.08a4.313,4.313,0,1,1,4.313,4.312A4.313,4.313,0,0,1,2591.189,196.924Z" transform="translate(-2581.069 -185.571)" fill="#99b9ff"/>
          <path id="Trazado_48917" data-name="Trazado 48917" d="M2604.021,225.675h-18.9a4.99,4.99,0,0,1-4.985-4.985V199.075a14.433,14.433,0,1,1,28.866,0V220.69A4.99,4.99,0,0,1,2604.021,225.675Zm-9.448-39.891a13.306,13.306,0,0,0-13.291,13.291V220.69a3.847,3.847,0,0,0,3.843,3.843h18.9a3.847,3.847,0,0,0,3.843-3.843V199.075A13.306,13.306,0,0,0,2594.573,185.784Zm0,15.094a4.884,4.884,0,1,1,4.883-4.883A4.889,4.889,0,0,1,2594.573,200.878Zm0-8.625a3.742,3.742,0,1,0,3.742,3.742A3.746,3.746,0,0,0,2594.573,192.253Z" transform="translate(-2580.14 -184.642)"/>
        </g>
      </g>
    </g>
    <g id="Grupo_19014" data-name="Grupo 19014" transform="translate(2494.103 368.163)">
      <g id="Grupo_19006" data-name="Grupo 19006" transform="translate(3.349 62.108)">
        <path id="Trazado_48918" data-name="Trazado 48918" d="M2611.354,860.415l-.008,9.669c0,2.93,3.385,5.868,10.193,8.14,13.616,4.545,35.837,4.737,50.071.487.234-.07.464-.14.694-.213,7.212-2.27,10.834-5.288,10.839-8.314l.008-9.669c0,3.026-3.627,6.044-10.839,8.314-.229.072-.46.143-.694.213-14.234,4.25-36.455,4.058-50.071-.487C2614.738,866.283,2611.349,863.345,2611.354,860.415Z" transform="translate(-2611.346 -848.828)" fill="#99b9ff"/>
        <path id="Trazado_48919" data-name="Trazado 48919" d="M2622.9,833.033c-.235.07-.465.141-.7.213-14.2,4.468-14.487,11.835-.648,16.455,13.616,4.545,35.837,4.737,50.071.487.234-.07.465-.141.694-.213,14.2-4.468,14.485-11.835.646-16.455C2659.355,828.976,2637.136,828.783,2622.9,833.033Z" transform="translate(-2611.358 -829.974)" fill="#99b9ff"/>
      </g>
      <g id="Grupo_19007" data-name="Grupo 19007" transform="translate(1.363 48.698)">
        <path id="Trazado_48920" data-name="Trazado 48920" d="M2606.136,825.183l-.008,9.669c0,2.93,3.385,5.868,10.193,8.14,13.616,4.545,35.837,4.737,50.071.487.234-.07.464-.141.694-.213,7.212-2.27,10.835-5.288,10.839-8.314l.008-9.669c0,3.026-3.627,6.044-10.839,8.314-.23.072-.46.143-.694.213-14.234,4.25-36.455,4.058-50.071-.487C2609.521,831.051,2606.132,828.113,2606.136,825.183Z" transform="translate(-2606.129 -813.596)" fill="#99b9ff"/>
        <path id="Trazado_48921" data-name="Trazado 48921" d="M2617.686,797.8c-.235.07-.466.141-.7.213-14.2,4.468-14.487,11.835-.648,16.455,13.616,4.545,35.837,4.737,50.071.487.234-.07.464-.141.694-.213,14.195-4.468,14.484-11.835.646-16.455C2654.138,793.744,2631.919,793.551,2617.686,797.8Z" transform="translate(-2606.141 -794.742)" fill="#fff"/>
      </g>
      <g id="Grupo_19008" data-name="Grupo 19008" transform="translate(7.053 35.183)">
        <path id="Trazado_48922" data-name="Trazado 48922" d="M2621.083,789.677l-.008,9.669c0,2.93,3.385,5.867,10.193,8.14,13.616,4.545,35.837,4.737,50.071.487.234-.07.464-.14.694-.212,7.212-2.27,10.834-5.288,10.839-8.314l.007-9.669c0,3.026-3.627,6.044-10.838,8.314q-.344.108-.694.213c-14.234,4.25-36.455,4.058-50.071-.487C2624.468,795.545,2621.079,792.607,2621.083,789.677Z" transform="translate(-2621.076 -778.09)" fill="#99b9ff"/>
        <path id="Trazado_48923" data-name="Trazado 48923" d="M2632.632,762.295c-.235.07-.465.141-.7.214-14.2,4.468-14.487,11.835-.648,16.455,13.616,4.545,35.837,4.737,50.071.487.234-.07.465-.14.694-.213,14.2-4.468,14.485-11.835.646-16.455C2669.085,758.238,2646.866,758.045,2632.632,762.295Z" transform="translate(-2621.088 -759.236)" fill="#fff"/>
      </g>
      <g id="Grupo_19009" data-name="Grupo 19009" transform="translate(0 24.051)">
        <path id="Trazado_48924" data-name="Trazado 48924" d="M2602.555,760.429l-.008,9.669c0,2.93,3.385,5.868,10.193,8.14,13.616,4.545,35.837,4.737,50.071.487.234-.07.464-.14.694-.213,7.212-2.27,10.834-5.288,10.839-8.314l.007-9.669c0,3.026-3.626,6.044-10.838,8.314-.229.072-.46.143-.694.212-14.234,4.25-36.455,4.058-50.071-.487C2605.939,766.3,2602.551,763.359,2602.555,760.429Z" transform="translate(-2602.547 -748.842)" fill="#99b9ff"/>
        <path id="Trazado_48925" data-name="Trazado 48925" d="M2614.1,733.047c-.235.07-.465.141-.7.213-14.2,4.468-14.487,11.835-.648,16.455,13.616,4.545,35.837,4.737,50.071.487.234-.07.464-.14.694-.212,14.2-4.468,14.485-11.835.646-16.455C2650.556,728.99,2628.337,728.8,2614.1,733.047Z" transform="translate(-2602.559 -729.988)" fill="#fff"/>
      </g>
      <g id="Grupo_19010" data-name="Grupo 19010" transform="translate(8.343 13.023)">
        <path id="Trazado_48926" data-name="Trazado 48926" d="M2624.473,731.456l-.008,9.669c0,2.93,3.385,5.868,10.193,8.14,13.616,4.545,35.837,4.737,50.071.487.234-.07.464-.141.694-.213,7.211-2.27,10.834-5.288,10.839-8.314l.007-9.669c0,3.026-3.626,6.044-10.838,8.314-.23.072-.46.143-.694.213-14.234,4.25-36.455,4.058-50.071-.487C2627.857,737.324,2624.469,734.386,2624.473,731.456Z" transform="translate(-2624.465 -719.869)" fill="#99b9ff"/>
        <path id="Trazado_48927" data-name="Trazado 48927" d="M2636.021,704.074c-.235.07-.465.141-.7.214-14.2,4.468-14.487,11.835-.648,16.455,13.616,4.545,35.837,4.737,50.071.487.234-.07.464-.14.694-.213,14.2-4.468,14.485-11.835.646-16.455C2672.474,700.017,2650.255,699.824,2636.021,704.074Z" transform="translate(-2624.477 -701.015)" fill="#fff"/>
      </g>
      <g id="Grupo_19013" data-name="Grupo 19013" transform="translate(1.696 0)">
        <g id="Grupo_19011" data-name="Grupo 19011" transform="translate(0 11.609)">
          <path id="Trazado_48928" data-name="Trazado 48928" d="M2608.511,698.8l-.008,9.669c0,2.93,3.385,5.868,10.193,8.14,13.616,4.545,35.837,4.737,50.071.487.234-.07.464-.14.694-.213,7.212-2.27,10.834-5.288,10.839-8.314l.008-9.669c0,3.026-3.627,6.044-10.839,8.314-.229.072-.459.143-.694.213-14.234,4.25-36.455,4.058-50.071-.487C2611.9,704.669,2608.507,701.731,2608.511,698.8Z" transform="translate(-2607.933 -698.23)" fill="#99b9ff"/>
          <path id="Trazado_48929" data-name="Trazado 48929" d="M2643.612,719.822c-9.435,0-18.858-1.207-26.025-3.6-6.829-2.28-10.588-5.363-10.583-8.683l.007-9.664v-.005a.571.571,0,0,1,.571-.57h0a.571.571,0,0,1,.57.571h0c0,2.748,3.569,5.517,9.8,7.6,13.367,4.462,35.674,4.677,49.728.482.23-.069.458-.139.686-.21,6.63-2.087,10.435-4.919,10.439-7.77a.571.571,0,0,1,.571-.57h0a.57.57,0,0,1,.57.571l-.007,9.669c-.005,3.433-4,6.579-11.239,8.859-.232.073-.465.145-.7.215A88.541,88.541,0,0,1,2643.612,719.822Zm-35.46-18.841-.005,6.561c0,2.748,3.569,5.518,9.8,7.6,13.366,4.461,35.674,4.677,49.727.481.232-.069.459-.139.686-.21,6.63-2.087,10.435-4.919,10.439-7.77l.005-6.559c-1.665,2.2-5.109,4.18-10.094,5.749q-.348.11-.7.215c-14.485,4.325-36.63,4.109-50.416-.492C2612.961,705.007,2609.741,703.09,2608.151,700.981Z" transform="translate(-2607.004 -697.301)"/>
        </g>
        <g id="Grupo_19012" data-name="Grupo 19012" transform="translate(0.007)">
          <path id="Trazado_48930" data-name="Trazado 48930" d="M2620.061,671.419c-.235.07-.466.141-.7.214-14.2,4.468-14.487,11.835-.648,16.455,13.616,4.545,35.837,4.737,50.071.487.234-.07.464-.14.694-.213,14.2-4.468,14.485-11.835.646-16.455C2656.513,667.362,2634.294,667.17,2620.061,671.419Z" transform="translate(-2607.953 -667.766)" fill="#fff"/>
          <path id="Trazado_48931" data-name="Trazado 48931" d="M2643.631,691.261c-9.435,0-18.858-1.207-26.025-3.6-6.854-2.288-10.612-5.383-10.583-8.714.03-3.42,4.022-6.555,11.24-8.827.233-.073.466-.145.7-.216h0c14.484-4.324,36.628-4.107,50.411.493,6.854,2.288,10.612,5.383,10.583,8.715-.03,3.42-4.021,6.555-11.238,8.826-.232.073-.466.145-.7.215A88.547,88.547,0,0,1,2643.631,691.261ZM2619.294,671c-.232.069-.46.139-.688.211-6.611,2.08-10.416,4.9-10.441,7.747-.024,2.756,3.549,5.534,9.8,7.621,13.367,4.462,35.674,4.677,49.728.482q.346-.1.686-.21c6.61-2.08,10.414-4.9,10.439-7.747.024-2.756-3.549-5.534-9.8-7.622-13.365-4.461-35.67-4.677-49.723-.482Z" transform="translate(-2607.023 -666.8)"/>
        </g>
        <path id="Trazado_48932" data-name="Trazado 48932" d="M2674.048,680.25l1.723,1.507a28.064,28.064,0,0,0-3.642.68,12.864,12.864,0,0,0-1.55.513l3.38,1.809a19.986,19.986,0,0,1,1.9-.629,21.121,21.121,0,0,1,3.234-.579c2.616-.283,4.008.106,4.558.585.646.565-.353,1.076-3.148,1.993-3.967,1.235-4.824,2.385-3.06,3.927,1.741,1.524,5.764,2.551,10.785,2.394l2,1.747,3.944-.426-1.859-1.626a31.085,31.085,0,0,0,3.962-.762,11.77,11.77,0,0,0,2.04-.712l-3.5-1.873a14.913,14.913,0,0,1-2.4.848,22.552,22.552,0,0,1-3.424.626c-2.294.247-4.294.04-5.078-.645-.743-.65.076-1.2,2.564-1.949,3.6-1.081,5.562-2.254,3.664-3.915-1.724-1.507-5.569-2.419-10.288-2.315l-1.859-1.626Z" transform="translate(-2646.38 -674.867)" fill="#99b9ff"/>
      </g>
    </g>
    <g id="Grupo_19016" data-name="Grupo 19016" transform="translate(2526.896 300.054)">
      <path id="Trazado_48933" data-name="Trazado 48933" d="M2829.079,516.311l-8.374,63.331a88.291,88.291,0,0,1-36.811,60.7l-19.561,13.726a13.88,13.88,0,0,1-16.486-.4l-17.114-13.29a88.289,88.289,0,0,1-33.4-58.369l-8.517-65.626a13.34,13.34,0,0,1,9.763-14.6l42.565-11.456a71.775,71.775,0,0,1,37.867.153l40.415,11.229A13.34,13.34,0,0,1,2829.079,516.311Z" transform="translate(-2688.703 -487.86)" fill="#d9940f"/>
      <path id="Trazado_48934" data-name="Trazado 48934" d="M2846.923,518.013l-8.374,63.331a88.287,88.287,0,0,1-36.811,60.7l-19.56,13.726a13.88,13.88,0,0,1-16.486-.4l-17.114-13.289a88.287,88.287,0,0,1-33.4-58.368l-8.517-65.626a13.341,13.341,0,0,1,9.763-14.6l42.565-11.456a71.779,71.779,0,0,1,37.867.153l40.415,11.229A13.341,13.341,0,0,1,2846.923,518.013Z" transform="translate(-2699.755 -488.914)" fill="#fec558"/>
      <g id="Grupo_19015" data-name="Grupo 19015" transform="translate(10.255 4.121)">
        <path id="Trazado_48935" data-name="Trazado 48935" d="M2724.81,611.823a.571.571,0,0,1-.565-.5l-8.517-65.626a9.912,9.912,0,0,1,7.23-10.81.571.571,0,0,1,.3,1.1,8.767,8.767,0,0,0-6.394,9.561l8.517,65.626a.571.571,0,0,1-.493.64A.609.609,0,0,1,2724.81,611.823Z" transform="translate(-2715.645 -521.097)" fill="#fff"/>
        <path id="Trazado_48936" data-name="Trazado 48936" d="M2836.623,503.12a.571.571,0,0,1-.148-1.122l3.625-.976a68.63,68.63,0,0,1,36.041.146.571.571,0,0,1-.306,1.1,67.48,67.48,0,0,0-35.438-.144l-3.625.976A.569.569,0,0,1,2836.623,503.12Z" transform="translate(-2790.222 -498.687)" fill="#fff"/>
        <path id="Trazado_48937" data-name="Trazado 48937" d="M3028.009,596.428a.625.625,0,0,1-.075,0,.571.571,0,0,1-.491-.641l7.317-55.342a8.776,8.776,0,0,0-6.322-9.564l-10.835-3.01a.571.571,0,1,1,.306-1.1l10.835,3.01a9.924,9.924,0,0,1,7.149,10.814l-7.317,55.342A.571.571,0,0,1,3028.009,596.428Z" transform="translate(-2902.411 -516.065)" fill="#fff"/>
        <path id="Trazado_48938" data-name="Trazado 48938" d="M2845.7,881.854a10.325,10.325,0,0,1-6.391-2.19L2822.2,866.375a.571.571,0,1,1,.7-.9l17.112,13.29a9.278,9.278,0,0,0,11.019.266l19.56-13.726a83.491,83.491,0,0,0,10.79-9.026.571.571,0,1,1,.8.811,84.613,84.613,0,0,1-10.938,9.15l-19.561,13.727A10.363,10.363,0,0,1,2845.7,881.854Z" transform="translate(-2781.503 -720.067)" fill="#fff"/>
      </g>
      <circle id="Elipse_1088" data-name="Elipse 1088" cx="35.655" cy="35.655" r="35.655" transform="translate(41.312 37.953)" fill="#fff"/>
      <path id="Trazado_48939" data-name="Trazado 48939" d="M2850.137,671.026a4.435,4.435,0,0,1-3.82-2.183l-14.871-25.214a4.436,4.436,0,1,1,7.641-4.507L2850,657.618l16.634-30.357a4.436,4.436,0,1,1,7.78,4.263l-20.382,37.2a4.438,4.438,0,0,1-3.821,2.3Z" transform="translate(-2776.733 -572.773)" fill="#fec558"/>
    </g>
    <g id="Grupo_19033" data-name="Grupo 19033" transform="translate(2427.461 313.875)">
      <g id="Grupo_19032" data-name="Grupo 19032" transform="translate(0 0)">
        <g id="Grupo_19023" data-name="Grupo 19023" transform="translate(6.232 75.84)">
          <g id="Grupo_19017" data-name="Grupo 19017" transform="translate(41.39 82.083)">
            <path id="Trazado_48940" data-name="Trazado 48940" d="M2554.077,942.51l5.132,14.816,7.168-.367-5.12-16.379Z" transform="translate(-2553.505 -940.008)" fill="#fff"/>
            <path id="Trazado_48941" data-name="Trazado 48941" d="M2558.279,956.967a.571.571,0,0,1-.539-.384l-5.133-14.816a.571.571,0,0,1,.392-.738l7.18-1.93a.57.57,0,0,1,.693.381l5.121,16.379a.571.571,0,0,1-.515.74l-7.169.367Zm-4.392-14.995,4.791,13.831,6.005-.308-4.737-15.153Z" transform="translate(-2552.576 -939.079)"/>
          </g>
          <g id="Grupo_19019" data-name="Grupo 19019" transform="translate(43.975 95.587)">
            <g id="Grupo_19018" data-name="Grupo 19018">
              <path id="Trazado_48942" data-name="Trazado 48942" d="M2561.03,986.731s-.891-7.257,1.6-10.57l5.566,1.807v-1.084a.656.656,0,0,1,.622-.655l3.1-.162a7.3,7.3,0,0,1,3.37.632c3.718,1.667,12.275,5.962,12,10.082C2587.3,986.78,2580.563,988.3,2561.03,986.731Z" transform="translate(-2560.301 -975.485)" fill="#fff"/>
              <path id="Trazado_48943" data-name="Trazado 48943" d="M2575.887,987.089c-3.94,0-9.135-.178-15.837-.719a.571.571,0,0,1-.521-.5c-.037-.306-.889-7.525,1.714-10.983a.571.571,0,0,1,.632-.2l4.818,1.564v-.3a1.227,1.227,0,0,1,1.163-1.226l3.1-.162a7.918,7.918,0,0,1,3.633.681c4.731,2.121,12.625,6.323,12.341,10.64a.572.572,0,0,1-.444.52C2586.308,986.449,2583.347,987.089,2575.887,987.089Zm-15.27-1.819c16.109,1.269,23.372.392,25.166.1-.3-2.563-4.588-5.917-11.656-9.086a6.772,6.772,0,0,0-3.107-.583l-3.1.162a.085.085,0,0,0-.081.085v1.084a.571.571,0,0,1-.747.543l-5.161-1.676C2560.2,978.638,2560.482,983.719,2560.616,985.271Z" transform="translate(-2559.366 -974.556)"/>
            </g>
            <path id="Trazado_48944" data-name="Trazado 48944" d="M2571.763,997.867a79.716,79.716,0,0,1-8.354-.421.571.571,0,1,1,.121-1.135,90.006,90.006,0,0,0,22.769-.733.571.571,0,0,1,.208,1.123A91.166,91.166,0,0,1,2571.763,997.867Z" transform="translate(-2561.554 -987.57)"/>
            <path id="Trazado_48945" data-name="Trazado 48945" d="M2593.918,983.97a.565.565,0,0,1-.312-.094l-5.358-3.514a.571.571,0,0,1,.626-.955l5.358,3.514a.571.571,0,0,1-.314,1.048Z" transform="translate(-2577.095 -977.504)"/>
          </g>
          <g id="Grupo_19020" data-name="Grupo 19020" transform="translate(5.828 85.892)">
            <path id="Trazado_48946" data-name="Trazado 48946" d="M2466.527,950.586l-1.791,12.57h-3.875l-.216-12.363Z" transform="translate(-2460.074 -950.014)" fill="#fff"/>
            <path id="Trazado_48947" data-name="Trazado 48947" d="M2463.808,962.8h-3.876a.571.571,0,0,1-.571-.561l-.215-12.363a.571.571,0,0,1,.551-.58l5.882-.207a.572.572,0,0,1,.585.651l-1.791,12.57A.571.571,0,0,1,2463.808,962.8Zm-3.315-1.142h2.82l1.625-11.4-4.64.163Z" transform="translate(-2459.146 -949.085)"/>
          </g>
          <path id="Trazado_48948" data-name="Trazado 48948" d="M2522.346,731.454s5.943,38.383,6.179,47.549,4.421,37.461,4.421,37.461-5.138,3.938-8.883,3.919c0,0-19.521-53.048-20.833-68.106s3.072-21.951,3.072-21.951Z" transform="translate(-2480.471 -727.699)" fill="#fec558"/>
          <path id="Trazado_48949" data-name="Trazado 48949" d="M2486.957,724.79s-21.8,65.01-22.126,90.012c0,0-2.372,1.3-8.753.261,0,0-4.5-72.408,7.289-91.639Z" transform="translate(-2450.894 -723.424)" fill="#fec558"/>
          <g id="Grupo_19022" data-name="Grupo 19022" transform="translate(0 95.492)">
            <g id="Grupo_19021" data-name="Grupo 19021">
              <path id="Trazado_48950" data-name="Trazado 48950" d="M2455.406,990.8a30.962,30.962,0,0,1-8.426-.282,1.981,1.981,0,0,1-1.575-2.487c.887-3.154,2.8-9.129,5.2-11.848l.525,1.535.841-1.4a.7.7,0,0,1,.538-.338l1.746-.163a.7.7,0,0,1,.758.578l.233,1.325.663-1.707,1.242,12.627A1.976,1.976,0,0,1,2455.406,990.8Z" transform="translate(-2444.761 -975.237)" fill="#fff"/>
              <path id="Trazado_48951" data-name="Trazado 48951" d="M2451.312,990.6a31.65,31.65,0,0,1-5.356-.455,2.552,2.552,0,0,1-2.028-3.2c.932-3.313,2.863-9.287,5.328-12.073a.571.571,0,0,1,.968.194l.127.372.208-.347a1.28,1.28,0,0,1,.974-.613l1.746-.163a1.276,1.276,0,0,1,1.175.559h0a.571.571,0,0,1,1.1.151l1.243,12.627a2.554,2.554,0,0,1-2.259,2.785h0A30.4,30.4,0,0,1,2451.312,990.6Zm3.166-.736h0Zm-5-13.439c-2.021,2.861-3.633,7.9-4.455,10.825a1.41,1.41,0,0,0,1.123,1.77,30.329,30.329,0,0,0,8.268.277,1.409,1.409,0,0,0,1.244-1.538l-1.033-10.493a.571.571,0,0,1-.867-.384l-.233-1.325a.133.133,0,0,0-.142-.109l-1.746.163a.133.133,0,0,0-.1.064l-.841,1.4a.564.564,0,0,1-.55.274.571.571,0,0,1-.48-.383Z" transform="translate(-2443.833 -974.307)"/>
            </g>
            <path id="Trazado_48952" data-name="Trazado 48952" d="M2452.256,1008.777a17.713,17.713,0,0,1-4.474-.539.571.571,0,1,1,.29-1.1,20.265,20.265,0,0,0,8.781,0,.571.571,0,0,1,.277,1.108A21.94,21.94,0,0,1,2452.256,1008.777Z" transform="translate(-2446.015 -994.628)"/>
            <path id="Trazado_48953" data-name="Trazado 48953" d="M2459.351,996.71h-4.156a.571.571,0,0,1,0-1.142h4.156a.571.571,0,0,1,0,1.142Z" transform="translate(-2450.517 -987.476)"/>
          </g>
        </g>
        <g id="Grupo_19024" data-name="Grupo 19024" transform="translate(22.989)">
          <path id="Trazado_48954" data-name="Trazado 48954" d="M2508.018,552.005a19.834,19.834,0,0,0,8.443-2.354,18.356,18.356,0,0,0,2.9-2.254c1.413-1.294,2.806-2.8,3.146-4.687.688-3.823-4.114-3.419-3.989-5.965.031-.654.529-1.208.595-1.858.2-2-2.625-1.951-3.835-1.962a5.868,5.868,0,0,0-2.4-5.962,8.079,8.079,0,0,0-4.556-1.291c-2.076-.027-5.162.548-6.358,2.5-.337.551-.122,1.809-.593,2.194-1.178.964-1.34-.511-2.379-.673a5.9,5.9,0,0,0-4.548,1.117,4.64,4.64,0,0,0-1.729,4.259c.137.827.478,1.82-.131,2.4-1.056,1-2.458.515-3.081,2.187a3.315,3.315,0,0,0,1.03,3.475,6.272,6.272,0,0,0,3.519,1.4c.09.858-.972,1.3-1.569,1.919-2.166,2.259,1,4.151,3.006,4.068a11.274,11.274,0,0,1,3.614.031c.754.219,1.422.677,2.177.894A19.989,19.989,0,0,0,2508.018,552.005Z" transform="translate(-2488.78 -525.101)" fill="#fff"/>
          <path id="Trazado_48955" data-name="Trazado 48955" d="M2505.362,551.709a19.051,19.051,0,0,1-5.155-.647,7.707,7.707,0,0,1-1.181-.482,4.953,4.953,0,0,0-3.464-.49c-.323.028-.645.055-.965.068a4.645,4.645,0,0,1-4.127-2.2,2.448,2.448,0,0,1,.686-2.831,5.95,5.95,0,0,1,.667-.572,4.693,4.693,0,0,0,.568-.488,6.333,6.333,0,0,1-3.156-1.44,3.9,3.9,0,0,1-1.181-4.1,2.86,2.86,0,0,1,2.076-1.81,2.939,2.939,0,0,0,1.147-.593c.26-.246.186-.733.043-1.449-.03-.149-.059-.3-.082-.438a5.191,5.191,0,0,1,1.936-4.8,6.5,6.5,0,0,1,4.991-1.235,2.264,2.264,0,0,1,1.23.712c.371.355.371.353.7.083a2.538,2.538,0,0,0,.155-.792,3.025,3.025,0,0,1,.312-1.258c1.282-2.1,4.373-2.812,6.852-2.776a8.639,8.639,0,0,1,4.877,1.394,6.527,6.527,0,0,1,2.751,5.867,4.581,4.581,0,0,1,3.247,1.01,1.986,1.986,0,0,1,.472,1.572,3.428,3.428,0,0,1-.343,1.074,2.266,2.266,0,0,0-.25.755c-.036.746.531,1.129,1.538,1.744,1.223.747,2.9,1.769,2.444,4.294-.373,2.072-1.889,3.694-3.322,5.007a18.9,18.9,0,0,1-2.992,2.322,20.375,20.375,0,0,1-8.7,2.434h0C2506.54,551.688,2505.946,551.709,2505.362,551.709Zm-8.537-2.832a5.4,5.4,0,0,1,1.522.195,7.778,7.778,0,0,1,1.168.478,6.785,6.785,0,0,0,1.006.416,19.479,19.479,0,0,0,6.535.541h0a19.224,19.224,0,0,0,8.19-2.274,17.927,17.927,0,0,0,2.808-2.186c1.292-1.184,2.656-2.629,2.969-4.367.315-1.756-.718-2.387-1.915-3.117-1.01-.616-2.154-1.315-2.083-2.774a3.185,3.185,0,0,1,.35-1.17,2.533,2.533,0,0,0,.248-.718.825.825,0,0,0-.187-.694c-.556-.621-2.18-.633-2.96-.638h-.125a.571.571,0,0,1-.547-.716,5.3,5.3,0,0,0-2.171-5.35,7.513,7.513,0,0,0-4.235-1.187h-.137c-2.043,0-4.716.58-5.726,2.231a2.584,2.584,0,0,0-.15.781,2.218,2.218,0,0,1-.568,1.557,1.449,1.449,0,0,1-2.213-.142,1.257,1.257,0,0,0-.615-.408,5.342,5.342,0,0,0-4.1,1,4.09,4.09,0,0,0-1.522,3.72c.021.131.048.265.076.4a2.532,2.532,0,0,1-.377,2.5,3.948,3.948,0,0,1-1.562.844c-.659.226-1.1.375-1.376,1.129a2.736,2.736,0,0,0,.878,2.853,5.66,5.66,0,0,0,3.2,1.255.571.571,0,0,1,.5.507c.1.923-.613,1.473-1.183,1.914a5.073,5.073,0,0,0-.542.46c-.8.835-.552,1.389-.469,1.57a3.574,3.574,0,0,0,3.039,1.532c.3-.013.609-.038.916-.065C2495.912,548.915,2496.367,548.877,2496.825,548.877Z" transform="translate(-2487.859 -524.172)"/>
        </g>
        <g id="Grupo_19027" data-name="Grupo 19027" transform="translate(0 18.86)">
          <g id="Grupo_19025" data-name="Grupo 19025" transform="translate(75.719)">
            <path id="Trazado_48956" data-name="Trazado 48956" d="M2633.011,581.432a3.54,3.54,0,0,1,1.07-1.247l5.337-4.962s.694,2.391-.148,3.8a18.435,18.435,0,0,1,2.935.333s2.438-2.148,3.045-2.519a4.552,4.552,0,0,1,2.216-.946,3.235,3.235,0,0,1,1.63.636l-4.688,5.942-8.524,2.346-1.771,14.68-6.219-5.754Z" transform="translate(-2627.323 -574.652)" fill="#fff"/>
            <path id="Trazado_48957" data-name="Trazado 48957" d="M2633.185,599.138a.572.572,0,0,1-.387-.152l-6.219-5.754a.571.571,0,0,1-.139-.638l5.117-12.309c.005-.013.011-.025.017-.037a4.116,4.116,0,0,1,1.213-1.43l5.315-4.942a.571.571,0,0,1,.937.259,7.371,7.371,0,0,1,.132,3.434,19.436,19.436,0,0,1,1.94.245c.634-.555,2.37-2.06,2.914-2.392.082-.05.167-.1.255-.16a4.233,4.233,0,0,1,2.265-.87,3.73,3.73,0,0,1,1.971.755.571.571,0,0,1,.1.806l-4.688,5.942a.572.572,0,0,1-.3.2l-8.155,2.245-1.725,14.3a.571.571,0,0,1-.567.5Zm-5.539-6.474,5.106,4.725,1.636-13.57a.571.571,0,0,1,.415-.482l8.344-2.3,4.171-5.287a1.984,1.984,0,0,0-.789-.22h-.015a3.457,3.457,0,0,0-1.625.693c-.094.059-.184.116-.271.17-.415.253-2,1.609-2.966,2.46a.57.57,0,0,1-.5.13,18.035,18.035,0,0,0-2.834-.321.571.571,0,0,1-.471-.863,4.014,4.014,0,0,0,.279-2.395l-4.589,4.267a.5.5,0,0,1-.046.039,3.006,3.006,0,0,0-.894,1.029Z" transform="translate(-2626.395 -573.723)"/>
          </g>
          <path id="Trazado_48958" data-name="Trazado 48958" d="M2596.261,610.85l-6.793-4.05s-8.021,10.692-11.5,10.712c-3.038.018-10.273-7.719-12.046-9.667a.264.264,0,0,0-.458.151l-2.258,22.057S2595.477,645.861,2596.261,610.85Z" transform="translate(-2511.54 -594.21)"/>
          <path id="Trazado_48959" data-name="Trazado 48959" d="M2504.281,601.477s-10.713-9.536-26.168-1.116a133.844,133.844,0,0,1-5.375,27.119c-4.216,12.732-9.337,20.555-8.576,29.06h0a11.539,11.539,0,0,1,7.216-1.247l29.461,4.579a3.891,3.891,0,0,0,4.22-3.471c.568-3.174,1.033-8.855.7-18.949C2505.57,631.566,2508.853,607.617,2504.281,601.477Z" transform="translate(-2450.146 -588.07)"/>
          <g id="Grupo_19026" data-name="Grupo 19026" transform="translate(9.987 40.108)">
            <path id="Trazado_48960" data-name="Trazado 48960" d="M2460.577,680.6l4.863,8.791,4.959-2.721,8.511,2.371s-1.437,1.872-5.55.206l6.263,3.353s-1.906,1.224-5.65-1.161l3.59,2.917a34.433,34.433,0,0,0-4.444-1.04l-1.544-.167a12.305,12.305,0,0,0-3.069.549,7.944,7.944,0,0,1-5.264.084l-1.972-.7-6.071-9.227Z" transform="translate(-2454.629 -680.026)" fill="#fff"/>
            <path id="Trazado_48961" data-name="Trazado 48961" d="M2476.636,694a.568.568,0,0,1-.164-.024,34.12,34.12,0,0,0-4.341-1.019l-1.5-.163a11.7,11.7,0,0,0-2.863.515,8.606,8.606,0,0,1-5.645.085l-1.972-.7a.572.572,0,0,1-.286-.225l-6.071-9.227a.571.571,0,0,1,.181-.8l5.377-3.257a.571.571,0,0,1,.8.212l4.587,8.293,4.461-2.448a.57.57,0,0,1,.428-.049l8.511,2.371a.571.571,0,0,1,.3.9,3.472,3.472,0,0,1-2.474,1.1l3,1.609a.571.571,0,0,1,.039.984,3.938,3.938,0,0,1-2.624.333l.616.5a.571.571,0,0,1-.36,1.014Zm-15.923-2.317,1.792.634a7.462,7.462,0,0,0,4.884-.085,12.781,12.781,0,0,1,3.236-.581.561.561,0,0,1,.084,0l1.545.167a17.4,17.4,0,0,1,1.948.365l-1.516-1.232a.571.571,0,0,1,.667-.925,7.769,7.769,0,0,0,3.627,1.371l-4.817-2.579a.571.571,0,0,1,.484-1.033,6.067,6.067,0,0,0,3.909.519l-7.013-1.953-4.756,2.609a.571.571,0,0,1-.774-.224l-4.575-8.272-4.363,2.643Z" transform="translate(-2453.7 -679.096)"/>
          </g>
          <path id="Trazado_48962" data-name="Trazado 48962" d="M2457.135,619.33l-9.431,3.96a4.189,4.189,0,0,0-2.382,5.1l1.524,9.658-6.271,5.487s-17.375-15.023-12.126-24.2c4.466-7.806,27.933-13.817,27.933-13.817Z" transform="translate(-2427.461 -593.413)"/>
        </g>
        <g id="Grupo_19030" data-name="Grupo 19030" transform="translate(30.566 10.567)">
          <g id="Grupo_19028" data-name="Grupo 19028" transform="translate(0 5.632)">
            <path id="Trazado_48963" data-name="Trazado 48963" d="M2524.53,570.893l-2.048,9.115,5.8,2.064s-7.733,4.641-19.015.455l5.933-3.166,3.955-11.129Z" transform="translate(-2508.695 -567.661)" fill="#fff"/>
            <path id="Trazado_48964" data-name="Trazado 48964" d="M2517.741,583.932a27.493,27.493,0,0,1-9.6-1.8.571.571,0,0,1-.07-1.039l5.738-3.062,3.881-10.921a.57.57,0,0,1,.791-.32l5.376,2.661a.571.571,0,0,1,.3.637l-1.937,8.622,5.323,1.895a.571.571,0,0,1,.1,1.027A20.4,20.4,0,0,1,2517.741,583.932Zm-7.982-2.445a23.335,23.335,0,0,0,16.111-.265l-4.509-1.6a.571.571,0,0,1-.366-.663l1.95-8.677-4.4-2.177-3.74,10.524a.571.571,0,0,1-.269.313Z" transform="translate(-2507.766 -566.732)"/>
          </g>
          <g id="Grupo_19029" data-name="Grupo 19029" transform="translate(6.858)">
            <path id="Trazado_48965" data-name="Trazado 48965" d="M2529.934,561.728s-2.208.6-2.595-1.3a1.212,1.212,0,0,1,1.439-1.615s-1.573-4.244,1.506-4.352a18.036,18.036,0,0,0,5.406-1.024,31.079,31.079,0,0,1,2.25,7.393c.244,2-.037,3.716-1.563,4.092-4.179,1.029-6.443-3.192-6.443-3.192Z" transform="translate(-2526.714 -552.864)" fill="#fff"/>
            <path id="Trazado_48966" data-name="Trazado 48966" d="M2534.161,564.724c-2.956,0-4.82-2.368-5.435-3.292a2.951,2.951,0,0,1-1.89-.331,2.2,2.2,0,0,1-.985-1.49,1.915,1.915,0,0,1,.37-1.8,1.678,1.678,0,0,1,.871-.466,4.479,4.479,0,0,1,.241-3.39,2.357,2.357,0,0,1,2-1,17.557,17.557,0,0,0,5.218-.985.571.571,0,0,1,.729.3,31.255,31.255,0,0,1,2.3,7.56c.413,3.39-.856,4.436-1.994,4.716A5.938,5.938,0,0,1,2534.161,564.724Zm-4.654-4.195c.091.168,2.123,3.814,5.8,2.908,1-.247,1.384-1.414,1.133-3.469a29.016,29.016,0,0,0-2-6.748,19.187,19.187,0,0,1-5.072.88,1.266,1.266,0,0,0-1.093.492c-.549.817-.112,2.509.1,3.092a.571.571,0,0,1-.625.762.97.97,0,0,0-.716.159c-.167.176-.118.563-.074.779a1.065,1.065,0,0,0,.462.743,2.1,2.1,0,0,0,1.425.121A.573.573,0,0,1,2529.507,560.529Zm-.5.27h0Z" transform="translate(-2525.785 -551.935)"/>
          </g>
        </g>
        <g id="Grupo_19031" data-name="Grupo 19031" transform="translate(32.446 35.484)">
          <path id="Trazado_48967" data-name="Trazado 48967" d="M2513.276,678.044a.571.571,0,0,1-.152-1.121,40.42,40.42,0,0,0,17.889-9.857.571.571,0,1,1,.8.814,41.544,41.544,0,0,1-18.385,10.144A.57.57,0,0,1,2513.276,678.044Z" transform="translate(-2512.706 -648.059)" fill="#5479f7"/>
          <path id="Trazado_48968" data-name="Trazado 48968" d="M2571.78,627.758c-.02,0-.04,0-.06,0a.571.571,0,0,1-.509-.627,32.426,32.426,0,0,0,.04-6.81c-.044-.668-.094-1.425-.146-2.315a.571.571,0,1,1,1.14-.066c.052.887.1,1.641.145,2.306a33.274,33.274,0,0,1-.043,7A.571.571,0,0,1,2571.78,627.758Z" transform="translate(-2548.876 -617.398)" fill="#5479f7"/>
        </g>
      </g>
    </g>
    <g id="Grupo_19051" data-name="Grupo 19051" transform="translate(2677.33 310.419)">
      <g id="Grupo_19040" data-name="Grupo 19040" transform="translate(1.464 66.343)">
        <g id="Grupo_19036" data-name="Grupo 19036" transform="translate(30.382 98.601)">
          <g id="Grupo_19034" data-name="Grupo 19034" transform="translate(10.18)">
            <path id="Trazado_48969" data-name="Trazado 48969" d="M3205.287,960.382l-8.863-.723.343-.95a18.019,18.019,0,0,0,1.053-6.984l-.07-1.463,6.34,1.169Z" transform="translate(-3195.633 -949.57)" fill="#fff"/>
            <path id="Trazado_48970" data-name="Trazado 48970" d="M3204.659,959.883l-10.313-.842.6-1.652a17.36,17.36,0,0,0,1.02-6.763l-.1-2.182,7.455,1.374Zm-8.731-1.858,7.412.6-1.048-7.839-5.224-.963.035.744a18.5,18.5,0,0,1-1.086,7.206Z" transform="translate(-3194.346 -948.444)"/>
          </g>
          <g id="Grupo_19035" data-name="Grupo 19035" transform="translate(0 5.386)">
            <path id="Trazado_48971" data-name="Trazado 48971" d="M3177.891,962.925a16.563,16.563,0,0,0-1.471,1.584c-1.42,1.792-5.344,3.8-6.126,4.058a6.46,6.46,0,0,0-1.83.906,2.245,2.245,0,0,0-.852,2.022l.039.378a1.409,1.409,0,0,0,.737,1.1,11.383,11.383,0,0,0,5.525,1.07c4.458-.065,8.574-.709,11.4-.842s4.545-.553,5.315-1.63c.7-.973-.62-6.138-1.761-7.642a.723.723,0,0,0-.777-.249,4.65,4.65,0,0,0-2.193,1.347,6.352,6.352,0,0,1-3.678,1.563A2,2,0,0,1,3180,964.8c-.036-.367-.078-.766-.127-1.164A1.178,1.178,0,0,0,3177.891,962.925Z" transform="translate(-3167.6 -962.595)"/>
            <path id="Trazado_48972" data-name="Trazado 48972" d="M3177.012,984.753a24.217,24.217,0,0,1-6.023-.613.571.571,0,1,1,.3-1.1c5.959,1.61,18.935-.7,19.066-.728a.571.571,0,0,1,.2,1.124A88.475,88.475,0,0,1,3177.012,984.753Z" transform="translate(-3169.438 -974.8)" fill="#99b9ff"/>
          </g>
        </g>
        <g id="Grupo_19039" data-name="Grupo 19039" transform="translate(0 96.849)">
          <g id="Grupo_19037" data-name="Grupo 19037" transform="translate(11.217)">
            <path id="Trazado_48973" data-name="Trazado 48973" d="M3127.867,955.448l-8.534-.736.335-.914a17.375,17.375,0,0,0,1.045-6.723l-.061-1.409,6.1,1.154Z" transform="translate(-3118.54 -944.97)" fill="#fff"/>
            <path id="Trazado_48974" data-name="Trazado 48974" d="M3127.233,954.946l-9.984-.861.593-1.615a16.712,16.712,0,0,0,1.011-6.5l-.091-2.129,7.216,1.366Zm-8.4-1.871,7.084.611-.969-7.514-4.987-.944.03.69a17.848,17.848,0,0,1-1.08,6.944Z" transform="translate(-3117.249 -943.839)"/>
          </g>
          <g id="Grupo_19038" data-name="Grupo 19038" transform="translate(0 4.974)">
            <path id="Trazado_48975" data-name="Trazado 48975" d="M3098.492,957.225a16.955,16.955,0,0,0-1.541,1.583c-1.493,1.8-5.551,3.754-6.355,4a6.619,6.619,0,0,0-1.892.882,2.3,2.3,0,0,0-.918,2.046l.031.387a1.439,1.439,0,0,0,.727,1.145,11.639,11.639,0,0,0,5.62,1.225c4.556.04,8.777-.52,11.667-.59s4.657-.456,5.469-1.539c.734-.978-.487-6.286-1.617-7.85a.738.738,0,0,0-.788-.272,4.749,4.749,0,0,0-2.273,1.323,6.489,6.489,0,0,1-3.795,1.509,2.043,2.043,0,0,1-2.219-1.886c-.028-.376-.062-.785-.1-1.192A1.2,1.2,0,0,0,3098.492,957.225Z" transform="translate(-3087.779 -956.906)"/>
            <path id="Trazado_48976" data-name="Trazado 48976" d="M3099.036,979.293a32.794,32.794,0,0,1-6.688-.59.571.571,0,0,1,.239-1.116c7.383,1.582,19.8-.707,19.929-.73a.571.571,0,0,1,.21,1.122A84.724,84.724,0,0,1,3099.036,979.293Z" transform="translate(-3090.329 -969.257)" fill="#99b9ff"/>
          </g>
        </g>
        <path id="Trazado_48977" data-name="Trazado 48977" d="M3130.042,722.413c-.909,2.664-4.375,20.643-5.348,27.686-.884,6.406-2.272,33.769-2.534,38.362a.748.748,0,0,1-.748.7h-10.281a.749.749,0,0,1-.746-.673c-.478-4.763-3.394-35.209-2.948-48.107.486-14.086,6.806-30.843,8.021-35.457s2.722-15.536,2.722-15.536l30.17,4.534s3.81,31.645,4.3,37.959,1.437,26.74.221,37.669c-.787,7.08-1.379,17.27-1.666,19.727a2.261,2.261,0,0,1-2.247,2h-8.029a.748.748,0,0,1-.75-.738c-.037-2.948-.475-17.958-2.357-27.569-2.187-11.172-4.618-28.658-5.833-35.7-.4-2.329-.75-5-1.038-7.539C3130.949,719.732,3130.951,719.749,3130.042,722.413Z" transform="translate(-3099.926 -689.392)" fill="#fec558"/>
        <path id="Trazado_48978" data-name="Trazado 48978" d="M3161.835,757.048a.571.571,0,0,1-.566-.507c-.2-1.8-.362-3.438-.477-4.666a7.462,7.462,0,0,0-2.988-5.291.571.571,0,1,1,.68-.918,8.608,8.608,0,0,1,3.445,6.1c.115,1.223.272,2.855.475,4.644a.571.571,0,0,1-.5.631A.533.533,0,0,1,3161.835,757.048Z" transform="translate(-3131.008 -724.177)" fill="#caddff"/>
        <path id="Trazado_48979" data-name="Trazado 48979" d="M3203.85,727.5h-.014c-4.321-.1-6.278-4.24-6.918-6.015a.571.571,0,1,1,1.074-.388c.561,1.554,2.255,5.177,5.871,5.261a.571.571,0,0,1-.013,1.141Z" transform="translate(-3155.355 -708.797)" fill="#caddff"/>
        <path id="Trazado_48980" data-name="Trazado 48980" d="M3130.2,725.894a.571.571,0,0,1-.063-1.138c3.884-.441,3.774-4.871,3.767-5.06a.571.571,0,0,1,.551-.59.561.561,0,0,1,.59.55c.069,1.961-.842,5.787-4.78,6.234C3130.241,725.893,3130.22,725.894,3130.2,725.894Z" transform="translate(-3113.699 -707.796)" fill="#caddff"/>
      </g>
      <g id="Grupo_19050" data-name="Grupo 19050" transform="translate(0 0)">
        <g id="Grupo_19043" data-name="Grupo 19043" transform="translate(0 21.6)">
          <g id="Grupo_19041" data-name="Grupo 19041" transform="translate(51.074 52.834)">
            <path id="Trazado_48981" data-name="Trazado 48981" d="M3222.609,712.83c.063,1.175-.473,5.538-.726,8.185a8.9,8.9,0,0,1-1.437,4.061c-.376.569-.515.916-.728,1.184a.469.469,0,0,0,.348.758l1.652.278s1.149-.994,1.138-.82c-.759,11.665,5.746,7.069,5.482.265-.087-2.255-1.571-3.332-1.638-4.245-.135-1.831.633-3.528.792-6.035C3227.6,714.821,3222.482,710.489,3222.609,712.83Z" transform="translate(-3219.046 -711.578)" fill="#fff"/>
            <path id="Trazado_48982" data-name="Trazado 48982" d="M3223.98,733.267a1.8,1.8,0,0,1-.96-.277c-1.218-.753-1.8-2.926-1.717-6.315l-.14.12-.2.176-1.89-.318a1.04,1.04,0,0,1-.727-1.681,3.5,3.5,0,0,0,.263-.423c.108-.191.242-.428.435-.72a8.367,8.367,0,0,0,1.346-3.8c.07-.735.162-1.6.258-2.5.239-2.249.51-4.8.466-5.6h0a1.134,1.134,0,0,1,.5-1.135c.471-.282,1.126-.161,2,.373,1.277.779,3.613,2.976,3.523,4.4a21.929,21.929,0,0,1-.462,3.08,10.6,10.6,0,0,0-.33,2.877,2.836,2.836,0,0,0,.455.913,6.483,6.483,0,0,1,1.184,3.352c.135,3.477-1.382,6.28-2.877,7.151A2.232,2.232,0,0,1,3223.98,733.267Zm-2.072-8.324a.579.579,0,0,1,.264.072l.34.169-.016.4c-.333,5.122.776,6.223,1.124,6.438a.8.8,0,0,0,.906-.067c1.225-.714,2.424-3.2,2.311-6.12a5.422,5.422,0,0,0-1.012-2.792,3.307,3.307,0,0,1-.624-1.434,11.59,11.59,0,0,1,.35-3.188,20.6,20.6,0,0,0,.442-2.925,5.072,5.072,0,0,0-1.768-2.428,5.23,5.23,0,0,0-1.976-1.27c0,.02,0,.044,0,.072h0c.048.895-.216,3.38-.472,5.784-.095.891-.186,1.754-.256,2.486a9.517,9.517,0,0,1-1.529,4.321c-.171.259-.29.469-.395.653-.088.156-.168.3-.259.429l1.28.215C3221.339,725.144,3221.659,724.943,3221.908,724.943Z" transform="translate(-3218.116 -710.647)"/>
          </g>
          <path id="Trazado_48983" data-name="Trazado 48983" d="M3186.47,595.879c1.4.408,4.93.064,7.7,3.756,3.349,4.466,3.493,17.182,3.34,22.654-.107,3.8-1.008,8.359-.863,10.314a4.977,4.977,0,0,0,4.5,4.516s3.764.743,5.884-4.542c1.683-4.2,4-16.16,3.379-28.082-.676-12.921-12.986-27.862-29.159-23.518Z" transform="translate(-3144.206 -577.023)"/>
          <path id="Trazado_48984" data-name="Trazado 48984" d="M3114.569,596.979c-3.228,2.857-7.578,12.2-8.573,17.78-.692,3.875-.93,8.514-1.355,10.518-.808,3.805-3.674,4.244-3.674,4.244-2.59.412-5.4-.518-5.8-3.164-.64-4.3-.278-17.69.782-23.026,3.188-16.043,15.555-30.77,29.364-26.194l2.01,11.7A47.141,47.141,0,0,0,3114.569,596.979Z" transform="translate(-3090.696 -574.596)"/>
          <g id="Grupo_19042" data-name="Grupo 19042" transform="translate(0 51.771)">
            <path id="Trazado_48985" data-name="Trazado 48985" d="M3094.751,719.823a4.687,4.687,0,0,1-.3,1.69l-1.976,5.873a.842.842,0,0,1-1.035.54h0a.842.842,0,0,1-.569-1.055l.7-2.294a.581.581,0,0,0-.7-.781c-1.48.434-3.285,3.159-3.285,3.159s-.578,1.116-1.081,1.272l-.132.039a.766.766,0,0,1-.934-.9l1.053-5.434a2.981,2.981,0,0,1,1.014-1.755l2.393-1.936c1.434-1.332.722-6.294.722-6.294-.386-1.547,1.559-2.259,2.6-2.525a2.2,2.2,0,0,1,2.629,1.322,2.156,2.156,0,0,1,.129.656Z" transform="translate(-3084.861 -708.782)" fill="#fff"/>
            <path id="Trazado_48986" data-name="Trazado 48986" d="M3085.251,727.94a1.292,1.292,0,0,1-.865-.337,1.359,1.359,0,0,1-.432-1.267l1.053-5.438a3.557,3.557,0,0,1,1.21-2.085l2.381-1.927c.868-.836.792-3.957.537-5.757-.342-1.448.758-2.608,3.023-3.186a2.788,2.788,0,0,1,3.306,1.68,2.712,2.712,0,0,1,.164.831.625.625,0,0,1-.006.1l-1.232,8.385a5.209,5.209,0,0,1-.336,1.839l-1.971,5.86a1.413,1.413,0,0,1-2.691-.865l.7-2.293a.451.451,0,0,1,.018-.05c-.932.255-2.3,1.9-2.961,2.885-.217.414-.759,1.326-1.4,1.527l-.137.041A1.253,1.253,0,0,1,3085.251,727.94ZM3092.867,709a1.724,1.724,0,0,0-.426.054c-.748.191-2.459.752-2.189,1.833a.442.442,0,0,1,.011.057c.078.538.708,5.3-.9,6.794l-.029.025-2.393,1.937a2.412,2.412,0,0,0-.812,1.415l-1.053,5.438a.223.223,0,0,0,.073.2.139.139,0,0,0,.136.04l.132-.04a3.091,3.091,0,0,0,.739-.989c.01-.018.02-.035.031-.052.2-.3,1.968-2.912,3.6-3.391a1.152,1.152,0,0,1,1.4,1.518l-.7,2.272a.271.271,0,0,0,.517.167l1.976-5.874a4.18,4.18,0,0,0,.272-1.518.568.568,0,0,1,.006-.073l1.229-8.365a1.555,1.555,0,0,0-.093-.434A1.608,1.608,0,0,0,3092.867,709Z" transform="translate(-3083.931 -707.854)"/>
          </g>
          <path id="Trazado_48987" data-name="Trazado 48987" d="M3172.585,587.132s-11-21.015-34.956-13.776c-15.332,4.634-9.92,52.549-9.92,52.549l35.479-.08Z" transform="translate(-3110.472 -571.839)"/>
          <path id="Trazado_48988" data-name="Trazado 48988" d="M3218.565,668.176a.572.572,0,0,1-.571-.565c-.017-1.693.325-5.268.627-8.422.084-.876.165-1.723.235-2.493a48.274,48.274,0,0,0-1.649-18.29.571.571,0,1,1,1.092-.334,49.433,49.433,0,0,1,1.694,18.727c-.07.772-.151,1.621-.235,2.5-.3,3.126-.639,6.67-.622,8.3a.571.571,0,0,1-.565.577Z" transform="translate(-3166.464 -612.611)" fill="#fff"/>
          <path id="Trazado_48989" data-name="Trazado 48989" d="M3169.423,648.855a.568.568,0,0,1-.366-.133,49.421,49.421,0,0,1-11.65-14.76.571.571,0,1,1,1.009-.535,48.279,48.279,0,0,0,11.374,14.418.571.571,0,0,1-.367,1.009Z" transform="translate(-3129.399 -609.798)" fill="#fff"/>
        </g>
        <g id="Grupo_19049" data-name="Grupo 19049" transform="translate(28.232)">
          <g id="Grupo_19044" data-name="Grupo 19044" transform="translate(2.824 11.482)">
            <path id="Trazado_48990" data-name="Trazado 48990" d="M3175.477,546.758c.022.131.091,5.842.332,8.024a7.507,7.507,0,0,0,1.245,3.385l1.269,1.876a13.915,13.915,0,0,1-5.471.452,15.376,15.376,0,0,1-5.829-1.632,4.925,4.925,0,0,1,1.008-1.007,4.977,4.977,0,0,1,1.9-.863c-.316-1.612-.371-7.517-.687-9.129Z" transform="translate(-3166.452 -546.187)" fill="#fff"/>
            <path id="Trazado_48991" data-name="Trazado 48991" d="M3173.641,560.205c-.553,0-1.138-.024-1.761-.07a15.837,15.837,0,0,1-6.046-1.693.571.571,0,0,1-.2-.85,5.489,5.489,0,0,1,2.722-1.946c-.118-.964-.194-2.5-.274-4.119-.09-1.827-.183-3.717-.333-4.483a.571.571,0,0,1,.461-.672l6.236-1.107a.571.571,0,0,1,.662.466c.011.066.013.073.034,1.025.04,1.754.123,5.4.3,7.032a6.963,6.963,0,0,0,1.15,3.128l1.269,1.877a.571.571,0,0,1-.295.862A12.509,12.509,0,0,1,3173.641,560.205Zm-6.623-2.461a14.693,14.693,0,0,0,4.946,1.252,15.078,15.078,0,0,0,4.512-.22l-.825-1.219a8.11,8.11,0,0,1-1.34-3.642c-.185-1.68-.269-5.362-.309-7.132,0-.1,0-.192-.006-.277l-5.039.894c.114.967.189,2.484.268,4.071.09,1.828.183,3.718.333,4.483a.571.571,0,0,1-.437.667,4.359,4.359,0,0,0-2.1,1.123Z" transform="translate(-3165.522 -545.257)"/>
          </g>
          <g id="Grupo_19047" data-name="Grupo 19047" transform="translate(0.912)">
            <g id="Grupo_19045" data-name="Grupo 19045" transform="translate(0 1.641)">
              <path id="Trazado_48992" data-name="Trazado 48992" d="M3166.96,523.219a4.759,4.759,0,0,1,1.856-1.555,6.121,6.121,0,0,1,1.637-.407,9.957,9.957,0,0,1,2.5-.049c.346.04.745.225,1.077.231a3.973,3.973,0,0,0,1.13-.372,2.973,2.973,0,0,1,1.762-.051,2.062,2.062,0,0,1,1.308,1.136,9.17,9.17,0,0,1,.186,2.358c.136,1.048.844,2.08.507,3.082a3.179,3.179,0,0,1-1.1,1.325,9.682,9.682,0,0,1-1.829,1.37c-1.227.6-2.567.339-3.868.532a3.791,3.791,0,0,0-2.428,1.969,3.583,3.583,0,0,0-.346,1.014,4.072,4.072,0,0,1-.96,2.138c-.739.661-2.568,1.112-5.684-.044a1.075,1.075,0,0,1-.69-1.19c.118-.681.273-1.548.492-2.364a8.509,8.509,0,0,1,1.865-4.411,31.688,31.688,0,0,0,1.812-3.468A9.224,9.224,0,0,1,3166.96,523.219Z" transform="translate(-3161.427 -520.333)" fill="#fff"/>
              <path id="Trazado_48993" data-name="Trazado 48993" d="M3165.176,536.246a10.423,10.423,0,0,1-3.6-.746,1.646,1.646,0,0,1-1.053-1.824c.126-.721.276-1.553.484-2.343a9.13,9.13,0,0,1,1.968-4.661,14.456,14.456,0,0,0,1.17-2.17c.191-.407.389-.828.6-1.237a9.649,9.649,0,0,1,.825-1.32h0a5.329,5.329,0,0,1,2.083-1.734,6.722,6.722,0,0,1,1.79-.45,10.531,10.531,0,0,1,2.643-.051,3.665,3.665,0,0,1,.575.129,2.145,2.145,0,0,0,.447.1,1.785,1.785,0,0,0,.523-.176,4.358,4.358,0,0,1,.422-.169,3.512,3.512,0,0,1,2.1-.053A2.633,2.633,0,0,1,3177.83,521a4,4,0,0,1,.205,1.676,5.51,5.51,0,0,0,.019.826,5.827,5.827,0,0,0,.269,1.015,3.614,3.614,0,0,1,.213,2.323,3.712,3.712,0,0,1-1.282,1.583c-.125.1-.248.209-.372.316a7.449,7.449,0,0,1-1.571,1.127,6.4,6.4,0,0,1-2.75.5,10.975,10.975,0,0,0-1.285.086,3.3,3.3,0,0,0-2.032,1.715,2.338,2.338,0,0,0-.222.647c-.017.07-.034.138-.052.2l-.071.273a3.982,3.982,0,0,1-1.06,2.144A3.905,3.905,0,0,1,3165.176,536.246Zm1.312-13.613a8.6,8.6,0,0,0-.728,1.166c-.2.386-.4.794-.581,1.189a15.538,15.538,0,0,1-1.268,2.339,8.038,8.038,0,0,0-1.763,4.085.558.558,0,0,1-.02.148c-.205.765-.35,1.563-.48,2.314a.5.5,0,0,0,.326.557c2.752,1.022,4.47.722,5.1.154a3.045,3.045,0,0,0,.715-1.574l.12-.469a3.2,3.2,0,0,1,.372-.994,4.336,4.336,0,0,1,2.823-2.224,11.922,11.922,0,0,1,1.42-.1,5.452,5.452,0,0,0,2.282-.383,6.49,6.49,0,0,0,1.326-.966c.129-.112.258-.222.389-.33a1.84,1.84,0,0,0,.712-2.671,6.764,6.764,0,0,1-.316-1.222,6.409,6.409,0,0,1-.028-1,3.052,3.052,0,0,0-.119-1.211,1.5,1.5,0,0,0-.948-.808,2.412,2.412,0,0,0-1.42.049,3.292,3.292,0,0,0-.308.125,2.372,2.372,0,0,1-1.008.274,2.966,2.966,0,0,1-.736-.141,2.773,2.773,0,0,0-.4-.094,9.4,9.4,0,0,0-2.355.048,5.593,5.593,0,0,0-1.486.365,4.158,4.158,0,0,0-1.629,1.376Zm-4.91,8.778h0Z" transform="translate(-3160.499 -519.402)"/>
            </g>
            <g id="Grupo_19046" data-name="Grupo 19046" transform="translate(0.039)">
              <path id="Trazado_48994" data-name="Trazado 48994" d="M3169.5,523.35c-.054.255-.626.619-.82.788a43.271,43.271,0,0,1-1.009,5.046c-.456,1.278-4.52.167-4.52.167l-.059-1.266-.817-.432a.316.316,0,0,1-.119-.451,12.185,12.185,0,0,0,1.547-3.393c.343-1.269.331-2.6.739-3.858a4.8,4.8,0,0,1,1.753-2.529,5.71,5.71,0,0,1,2.955-.819,5.973,5.973,0,0,1,5.378,2.273,1.241,1.241,0,0,1,.257.393.59.59,0,0,1-.427.709,2.689,2.689,0,0,1-1.363,0,8.5,8.5,0,0,0-2.239-.026,3.493,3.493,0,0,0-1.548.5,1.624,1.624,0,0,0-.765,1.37,1.746,1.746,0,0,0,.376.932c.077.1.669.48.68.526A.161.161,0,0,1,3169.5,523.35Z" transform="translate(-3161.53 -516.019)" fill="#fff"/>
              <path id="Trazado_48995" data-name="Trazado 48995" d="M3165.094,529.441a12.546,12.546,0,0,1-3.028-.469.571.571,0,0,1-.419-.524l-.044-.94-.528-.279a.886.886,0,0,1-.333-1.265,11.6,11.6,0,0,0,1.476-3.232,13.86,13.86,0,0,0,.307-1.7,12.583,12.583,0,0,1,.44-2.186,5.4,5.4,0,0,1,1.974-2.825,6.322,6.322,0,0,1,3.249-.918,6.545,6.545,0,0,1,5.84,2.472,1.735,1.735,0,0,1,.364.584,1.145,1.145,0,0,1-.759,1.422,2.833,2.833,0,0,1-1.512.056l-.142-.021a7.92,7.92,0,0,0-2.088-.024,2.88,2.88,0,0,0-1.3.4,1.056,1.056,0,0,0-.514.866,1.178,1.178,0,0,0,.241.589c.058.048.2.148.287.211.325.231.461.327.515.559a.729.729,0,0,1,0,.318v0c-.079.371-.411.647-.836.969l-.011.009a39.421,39.421,0,0,1-1,4.929C3167,529.209,3166.1,529.441,3165.094,529.441Zm-2.326-1.469c1.757.421,3.316.415,3.431.09a43.293,43.293,0,0,0,.982-4.937.569.569,0,0,1,.189-.347c.055-.048.136-.111.229-.181.042-.032.106-.08.172-.132a1.507,1.507,0,0,1-.341-.3,2.3,2.3,0,0,1-.491-1.244,2.179,2.179,0,0,1,1.016-1.874,4.1,4.1,0,0,1,1.8-.59,9.066,9.066,0,0,1,2.39.028l.15.022a1.955,1.955,0,0,0,.923.01.309.309,0,0,0,.072-.039,1.7,1.7,0,0,0-.127-.161,5.385,5.385,0,0,0-4.915-2.074,5.069,5.069,0,0,0-2.663.721,4.279,4.279,0,0,0-1.531,2.233,11.556,11.556,0,0,0-.395,1.991,14.753,14.753,0,0,1-.336,1.839,12.581,12.581,0,0,1-1.47,3.318l.575.3a.571.571,0,0,1,.3.478Zm5.8-5.552h0Z" transform="translate(-3160.601 -515.09)"/>
            </g>
            <path id="Trazado_48996" data-name="Trazado 48996" d="M3180.645,540.213s1.04-2.379,1.912-1.765S3182.224,541.658,3180.645,540.213Z" transform="translate(-3172.977 -529.495)" fill="#fff"/>
          </g>
          <g id="Grupo_19048" data-name="Grupo 19048" transform="translate(0 5.214)">
            <path id="Trazado_48997" data-name="Trazado 48997" d="M3159.4,534.477a.569.569,0,0,1-.389-.152,3.608,3.608,0,0,1-.9-2.407,4.378,4.378,0,0,1,.286-1.887,1.463,1.463,0,0,1,1.247-1.058c.811-.044,1.5.772,1.745,2.072a.571.571,0,0,1-1.122.214c-.157-.826-.488-1.132-.568-1.145-.123.035-.506.628-.448,1.745a2.614,2.614,0,0,0,.54,1.629.571.571,0,0,1-.388.989Z" transform="translate(-3158.103 -528.902)"/>
            <path id="Trazado_48998" data-name="Trazado 48998" d="M3168.291,534.692c-1.114,0-2.039-1.23-2.122-2.847a3.807,3.807,0,0,1,.416-2.01,1.842,1.842,0,0,1,1.479-1.045c1.142-.059,2.114,1.191,2.2,2.845a3.813,3.813,0,0,1-.416,2.01,1.842,1.842,0,0,1-1.479,1.045Zm-.15-4.762h-.018c-.187.01-.383.175-.537.456a2.7,2.7,0,0,0-.275,1.4c.053,1.036.573,1.782,1,1.763.187-.01.383-.175.537-.456a2.7,2.7,0,0,0,.275-1.4C3169.07,530.673,3168.565,529.93,3168.141,529.93Z" transform="translate(-3163.095 -528.788)"/>
            <path id="Trazado_48999" data-name="Trazado 48999" d="M3174.044,533.019a.571.571,0,0,1-.04-1.141l1.878-.133a.581.581,0,0,1,.61.529.571.571,0,0,1-.529.61l-1.878.133Z" transform="translate(-3167.624 -530.619)"/>
          </g>
        </g>
      </g>
    </g>
    <g id="Grupo_19054" data-name="Grupo 19054" transform="translate(2512.085 192.811)">
      <g id="Grupo_19052" data-name="Grupo 19052" transform="translate(46.358 0)">
        <path id="Trazado_49000" data-name="Trazado 49000" d="M2873.5,231.921a.571.571,0,0,1-.248-.057c-.213-.1-21.676-10.185-56.14-2.776a.571.571,0,1,1-.24-1.116c34.874-7.5,56.661,2.76,56.877,2.864a.571.571,0,0,1-.25,1.085Z" transform="translate(-2799.359 -217.952)"/>
        <path id="Trazado_49001" data-name="Trazado 49001" d="M2855.667,215.843a.568.568,0,0,1-.3-.083c-.076-.046-7.761-4.632-21.775-7.049-12.936-2.231-34.066-3.017-61.262,5.909a.571.571,0,0,1-.356-1.085c27.454-9.011,48.8-8.2,61.88-5.937,14.205,2.46,21.79,6.995,22.106,7.187a.571.571,0,0,1-.3,1.059Z" transform="translate(-2771.585 -206.105)"/>
      </g>
      <g id="Grupo_19053" data-name="Grupo 19053" transform="translate(0 272.772)">
        <path id="Trazado_49002" data-name="Trazado 49002" d="M2733.909,961.265a101.288,101.288,0,0,1-43.127-9.818A109.039,109.039,0,0,1,2679.008,945a.571.571,0,0,1,.609-.966,107.873,107.873,0,0,0,11.65,6.378c25.729,12.08,53.938,12.915,79.431,2.35a.571.571,0,0,1,.437,1.055A96.979,96.979,0,0,1,2733.909,961.265Z" transform="translate(-2667.723 -935.879)"/>
        <path id="Trazado_49003" data-name="Trazado 49003" d="M2781.2,995.094a90.645,90.645,0,0,1-26.413-3.9.571.571,0,1,1,.332-1.093,92.1,92.1,0,0,0,45.714,1.817.571.571,0,1,1,.229,1.118A98.706,98.706,0,0,1,2781.2,995.094Z" transform="translate(-2714.573 -964.45)"/>
        <path id="Trazado_49004" data-name="Trazado 49004" d="M2652.679,929.054a2.717,2.717,0,0,1-.524-.051,2.851,2.851,0,0,1-1.9-1.355,3.348,3.348,0,0,1,.805-4.339,2.73,2.73,0,0,1,2.176-.509,2.851,2.851,0,0,1,1.9,1.355,3.348,3.348,0,0,1-.8,4.339A2.76,2.76,0,0,1,2652.679,929.054Zm.044-5.162a1.63,1.63,0,0,0-.976.333,2.183,2.183,0,0,0-.51,2.831,1.723,1.723,0,0,0,1.138.826,1.606,1.606,0,0,0,1.278-.3,2.182,2.182,0,0,0,.509-2.83,1.722,1.722,0,0,0-1.138-.827A1.561,1.561,0,0,0,2652.722,923.892Z" transform="translate(-2649.792 -922.75)"/>
        <path id="Trazado_49005" data-name="Trazado 49005" d="M2935.432,947.253a.582.582,0,0,1-.17-.026.57.57,0,0,1-.375-.713c.031-.1.779-2.441,2.8-2.982a3.82,3.82,0,0,1,2.229.4,4.11,4.11,0,0,0,2.123.428c.468-.105,1.007-.729,1.529-1.332a4.653,4.653,0,0,1,2.448-1.851,3.432,3.432,0,0,1,2.365,1.018c.507.376,1.147.844,1.469.807.46-.051.994-.7,1.423-1.224a3.767,3.767,0,0,1,1.085-1.043.571.571,0,1,1,.5,1.027,3.819,3.819,0,0,0-.7.74,3.757,3.757,0,0,1-2.18,1.636,3.591,3.591,0,0,1-2.275-1.025c-.52-.386-1.167-.864-1.494-.809-.588.1-1.191.8-1.774,1.471a4.593,4.593,0,0,1-2.141,1.7,4.956,4.956,0,0,1-2.776-.474,3.357,3.357,0,0,0-1.531-.362c-1.412.377-2,2.2-2.009,2.219A.572.572,0,0,1,2935.432,947.253Z" transform="translate(-2826.357 -933.852)"/>
      </g>
    </g>
    <g id="Grupo_19055" data-name="Grupo 19055" transform="translate(2510.601 280.798)">
      <path id="Trazado_49006" data-name="Trazado 49006" d="M2668.148,479.269a.57.57,0,0,1-.507-.833l21.138-40.857a.571.571,0,1,1,1.014.525l-21.138,40.857A.569.569,0,0,1,2668.148,479.269Z" transform="translate(-2659.324 -437.27)"/>
      <path id="Trazado_49007" data-name="Trazado 49007" d="M2646.464,508.076a.577.577,0,0,1-.119-.013.57.57,0,0,1-.44-.676l4.32-20.429a.571.571,0,0,1,1.117.236l-4.32,20.428A.571.571,0,0,1,2646.464,508.076Z" transform="translate(-2645.892 -467.765)"/>
    </g>
  </g>
</svg>
