<svg xmlns="http://www.w3.org/2000/svg" xmlns:xlink="http://www.w3.org/1999/xlink" width="187" height="187" viewBox="0 0 187 187">
  <defs>
    <clipPath id="clip-path">
      <circle id="Elipse_983" data-name="Elipse 983" cx="93.5" cy="93.5" r="93.5" transform="translate(441 8188)" fill="#fff" stroke="#707070" stroke-width="1"/>
    </clipPath>
  </defs>
  <g id="Grupo_18076" data-name="Grupo 18076" transform="translate(-461 -8149)">
    <g id="Enmascarar_grupo_1" data-name="Enmascarar grupo 1" transform="translate(20 -39)" clip-path="url(#clip-path)">
      <g id="Grupo_18014" data-name="Grupo 18014" transform="translate(441 8218.986)">
        <path id="Trazado_46492" data-name="Trazado 46492" d="M282.091,244.428c14.91-7.551,45.143.83,67.661,60.343L327.77,323.537s-26.706-28.952-35.2-40.65Z" transform="translate(-178.03 -147.991)" fill="#155185"/>
        <path id="Trazado_46493" data-name="Trazado 46493" d="M333.72,345.219,331.958,330.9l5.138,18.563Z" transform="translate(-201.161 -189.186)" fill="#144573"/>
        <path id="Trazado_46494" data-name="Trazado 46494" d="M255.129,226.876c-1.86-3.413-5.08-4.8-12.109-5.9-6.175-3.535-13.57,5.734-16.062,5.9.93,6.136,2.438,10.891,6.046,14.369.223.13,9.945,2.635,14.2.051a25.5,25.5,0,0,0,7.922-14.42" transform="translate(-152.457 -137.824)" fill="#ffaf92"/>
        <path id="Trazado_46495" data-name="Trazado 46495" d="M234.62,261.141a3.294,3.294,0,0,1,.1.74c-1.3,17.975-4.111,78.273-2.937,126.4,5.726.062,20.632-.118,20.935-.14,0,0-3.328-129.792-3.4-130.647-3.808,1.766-10.038,2.937-14.854.122.588,1.161-.069,2.05.159,3.529" transform="translate(-154.565 -155.134)" fill="#ff9"/>
        <path id="Trazado_46496" data-name="Trazado 46496" d="M223.42,384.857s6.172.111,6.329.113c-1.174-48.123-.079-105.74,1.221-123.716.019-.251.86-2.488.508-3.834-.434-.253-1.625-.962-2.033-1.283-2.6-.15-6.025,128.72-6.025,128.72" transform="translate(-150.816 -154.506)" fill="#d7d766"/>
        <path id="Trazado_46497" data-name="Trazado 46497" d="M226.483,227.694c-3.151.707-5.9,5.352-5.9,5.352s-.257,7.7,5.77,10.33c.446-.1.952-.206,1.719-.418a.1.1,0,0,1,.049-.014h0c.152.12.413.293.7.477-2.747-3.331-4.013-7.659-4.83-13.055.76-.051,1.975-.948,3.473-2.071q-.5-.286-.992-.6" transform="translate(-149.501 -141.313)" fill="#ccc"/>
        <path id="Trazado_46498" data-name="Trazado 46498" d="M230.431,228.814c-1.5,1.122-2.713,2.02-3.473,2.071.818,5.4,2.083,9.725,4.83,13.055.342.216.723.447,1.014.62.1.05.192.1.288.146-1.973-2.867-4.43-11.549-1.449-15.232-.4-.207-.807-.427-1.211-.661" transform="translate(-152.457 -141.833)" fill="#cc8c75"/>
        <path id="Trazado_46499" data-name="Trazado 46499" d="M237.859,258.183l.316.186h0l-.028-.04c-.1-.047-.192-.1-.288-.146" transform="translate(-157.513 -155.456)" fill="#cccc7a"/>
        <path id="Trazado_46500" data-name="Trazado 46500" d="M233.07,256.164c-.768.211-1.274.322-1.719.418a9.6,9.6,0,0,0,1.377.479c.116-.522.23-.828.343-.9" transform="translate(-154.495 -154.519)" fill="#181927"/>
        <path id="Trazado_46501" data-name="Trazado 46501" d="M234.31,256.137a.1.1,0,0,0-.049.014c-.113.068-.227.374-.343.9a11.874,11.874,0,0,0,2.429.372l-.316-.186c-.292-.174-.673-.4-1.014-.62-.29-.184-.55-.357-.7-.477h0" transform="translate(-155.686 -154.507)" fill="#acac52"/>
        <path id="Trazado_46502" data-name="Trazado 46502" d="M230.05,261.6s10.6,7.162,18.317,1.534c0,0-2.816,7.588-18.849,1.534Z" transform="translate(-153.644 -157.04)" fill="#d7d766"/>
        <path id="Trazado_46503" data-name="Trazado 46503" d="M193.241,256.243c-.031-.206-24.384-1.072-27.37,17.149a861.73,861.73,0,0,0-10.74,114.527,3.736,3.736,0,0,0,1.641,3.281,33.811,33.811,0,0,0,7.17,3.314q.949.335,1.981.669,1.088.334,2.287.67,1.311.363,2.678.725a129.826,129.826,0,0,0,21.365,3.263l2.342-.087c-2.47-52.7,1.407-124.993,3.223-143.613C194.3,254.093,194.084,261.975,193.241,256.243Z" transform="translate(-119.14 -154.347)" fill="#155185"/>
        <path id="Trazado_46504" data-name="Trazado 46504" d="M265.39,238.05c-.93,6.136-4.131,8.086-7.449,11.913-2.847,19.38-9.577,59.368-4.948,141.872,17.544.092,35.352-5.389,42.116-8.7a6.819,6.819,0,0,0,3.739-6.31c-.7-42.839-1.509-66.042-6.2-104.574C291.93,266.379,292.226,256.46,265.39,238.05Z" transform="translate(-163.799 -146.117)" fill="#155185"/>
        <path id="Trazado_46505" data-name="Trazado 46505" d="M159.96,244.612c-11.614-7.08-44.708.83-67.869,65.475l26.8,9.076s22.095-24.395,30.589-36.092Z" transform="translate(-89.899 -148.175)" fill="#155185"/>
        <path id="Trazado_46506" data-name="Trazado 46506" d="M278.347,258.07c-6.079-5.758-14.617-1.1-14.945-1.417-.966-.931,2.56-9.523,7.88-9.366C276.742,247.448,279.178,256.346,278.347,258.07Z" transform="translate(-169.287 -150.401)" fill="#144573"/>
        <path id="Trazado_46507" data-name="Trazado 46507" d="M206.806,258.621c5.615-6.01,14.219-1.745,14.522-2.075.891-.971-3.038-9.381-8.228-8.989C207.775,247.959,205.9,256.939,206.806,258.621Z" transform="translate(-143.007 -150.52)" fill="#144573"/>
        <path id="Trazado_46508" data-name="Trazado 46508" d="M217.956,224.949,214.5,227.8a20.457,20.457,0,0,0-7.771,19.6c.733-3,5.217-6.789,6.913-7.609,2.776.877,5.412,3.359,7.752,5.881a8.408,8.408,0,0,0,.007-5.248c-1.192-3.289-3.525-7.012-1.575-11.432l1.694-2.534S218.83,224.216,217.956,224.949Z" transform="translate(-142.96 -139.972)" fill="#2874b6"/>
        <path id="Trazado_46509" data-name="Trazado 46509" d="M273.729,228.221c-1.506-2.231-3.8-2.018-4.741-2.092-.293,5.126.691,9.547-3.879,15.021a7.6,7.6,0,0,0-2.127,5.6,12.938,12.938,0,0,1,8.351-4.547,24.13,24.13,0,0,1,7.073,6.047C280.7,237.188,273.729,228.221,273.729,228.221Z" transform="translate(-169.166 -140.587)" fill="#2874b6"/>
        <path id="Trazado_46510" data-name="Trazado 46510" d="M198.882,150.036a8.971,8.971,0,0,0-.452,4.75,10.034,10.034,0,0,0,2.5,5.516,5.669,5.669,0,0,0,4.5,2.166,4.276,4.276,0,0,0,3.229-1.635,5.6,5.6,0,0,0,.581-.885,6.443,6.443,0,0,0,.311-.6,7.867,7.867,0,0,0,.488-1.391,8.67,8.67,0,0,0,.25-2.426,10.582,10.582,0,0,0-.118-1.244,10.062,10.062,0,0,0-2.527-5.54,5.619,5.619,0,0,0-4.475-2.141,4.358,4.358,0,0,0-2.216.71,5.134,5.134,0,0,0-1.62,1.785,5.408,5.408,0,0,0-.381.776A.664.664,0,0,0,198.882,150.036Z" transform="translate(-139.166 -103.701)" fill="#ffaf92"/>
        <path id="Trazado_46511" data-name="Trazado 46511" d="M211.656,157.519c-3.07-5.594-4.592-8.012-8.442-6.66,3.394.737,4.177,3.519,5.274,8.251.212-.461,2.787,1.4,2.91.907A8.936,8.936,0,0,0,211.656,157.519Z" transform="translate(-141.443 -105.503)" fill="#f0a589"/>
        <path id="Trazado_46512" data-name="Trazado 46512" d="M302.871,154.237a5.677,5.677,0,0,0-.354-.837,5.4,5.4,0,0,0-1.595-1.969,4.587,4.587,0,0,0-2.284-.876,5.906,5.906,0,0,0-4.822,1.983,10.587,10.587,0,0,0-2.978,5.665,10.921,10.921,0,0,0-.2,1.3,9.115,9.115,0,0,0,.119,2.561,8.329,8.329,0,0,0,.431,1.488,6.8,6.8,0,0,0,.291.644,5.884,5.884,0,0,0,.558.962,4.5,4.5,0,0,0,3.292,1.906,5.959,5.959,0,0,0,4.851-2.007,10.542,10.542,0,0,0,2.949-5.64,9.422,9.422,0,0,0-.195-5.011A.656.656,0,0,0,302.871,154.237Z" transform="translate(-181.978 -105.521)" fill="#ffaf92"/>
        <path id="Trazado_46513" data-name="Trazado 46513" d="M292.518,164.368c.1.51,1.8-1.776,1.986-1.294,1.1-4.948,3.377-7.013,6.877-7.57-4.009-1.044-7.239.554-8.982,6.3A9.074,9.074,0,0,0,292.518,164.368Z" transform="translate(-182.793 -107.69)" fill="#f0a589"/>
        <path id="Trazado_46514" data-name="Trazado 46514" d="M221.162,101.247c-6.116,3.034-8.435,12.879-9.917,24.311-.061,1.193-.269,7.42-1.563,18.537a44.353,44.353,0,0,0,.2,13.557q21.263,26.69,42.693,3.832a21.325,21.325,0,0,0,2.48-10.133,86.326,86.326,0,0,1,1.349-16.443q.2-1.078.382-2.287a2.78,2.78,0,0,1,.058-.36,4.269,4.269,0,0,1,.068-.463c1.961-22.787-5.011-25.266-5.031-25.233-3.21-5.835-24.6-8.745-30.721-5.316" transform="translate(-144.252 -81.981)" fill="#ffaf92"/>
        <path id="Trazado_46515" data-name="Trazado 46515" d="M212.663,123.429c1.5-11.43,4.569-22.513,10.857-25.531,4.774-3.711,22.809-2.217,30.125,3.944.021-.033-.462-.073-.406-.1,4.19,4.463,5.381,12.9,4.613,25.339.643-4.447,4.205-10.226,4.453-17.438.14-3.883.124-7.314-1.085-10.309-1.239-3.642-5.108-6.691-8.492-9.1-3.172-2.25-6.917-3.205-11.22-3.9-4.252-.677-8.459.023-12.6,1.059-4.358,1.087-5.144,1.836-8.225,4.569C212.549,98.45,212.891,119.136,212.663,123.429Z" transform="translate(-145.826 -75.616)" fill="#630"/>
        <path id="Trazado_46516" data-name="Trazado 46516" d="M254.862,169.065c0-2.555-.434-8.464-.01-14.139-.512.251-.807.062-.65-.137-.406,9.459-2.9,14.14-6.661,16.073-11.2-7.127-22.918-6-35.087-.817-2.612-2.876-3.682-6.015-3.77-14.892a84.073,84.073,0,0,1-2.724,15c-9.025,21.464,16.828,31.012,23.54,32.571C256.094,196.667,256.864,179.8,254.862,169.065Z" transform="translate(-141.84 -107.497)" fill="#630"/>
        <path id="Trazado_46517" data-name="Trazado 46517" d="M254.017,169.135c-.08-.077-.152-.144-.217-.2a3.8,3.8,0,0,1,.008,5.14,5.569,5.569,0,0,1-4.213,2.178l.208.019a5.284,5.284,0,0,0,3.713-.971,3.809,3.809,0,0,0,1.777-2.945A3.863,3.863,0,0,0,254.017,169.135Z" transform="translate(-162.957 -114.057)" fill="#d98465"/>
        <path id="Trazado_46518" data-name="Trazado 46518" d="M249.8,167.734a5.887,5.887,0,0,0-7.059-.4,4.01,4.01,0,0,0-1.754,2.972,3.913,3.913,0,0,0,1.253,3.191,5.424,5.424,0,0,0,2.765,1.448,3.356,3.356,0,0,0,.59.105,5.569,5.569,0,0,0,4.213-2.178A3.8,3.8,0,0,0,249.8,167.734Z" transform="translate(-158.959 -112.858)" fill="#ffaf92"/>
        <path id="Trazado_46519" data-name="Trazado 46519" d="M249.855,211.681q.017,1.091-1.08.745a7.85,7.85,0,0,0-2.682-.346,9.078,9.078,0,0,0-2.8.435q-1.164.383-1.181-.708a2.879,2.879,0,0,1,1.083-2.123,3.953,3.953,0,0,1,2.737-1.084,3.858,3.858,0,0,1,2.744,1A2.86,2.86,0,0,1,249.855,211.681Z" transform="translate(-159.487 -132.457)" fill="#502800"/>
        <path id="Trazado_46520" data-name="Trazado 46520" d="M264.292,72.8a26.845,26.845,0,0,0-3.652-2.737,23.7,23.7,0,0,0-20.158-2.192,24.969,24.969,0,0,0-7.062,3.378c-14.527.5-13.27,17.125-4.326,18.791a78.494,78.494,0,0,0,13.179,3.637c.936.148,1.888.261,2.858.345a44.443,44.443,0,0,0,11.783-.619c8.751-1.548,9.562-5.7,11.732-.8Q273.221,81.143,264.292,72.8Z" transform="translate(-150.351 -66.583)" fill="#630"/>
        <path id="Trazado_46521" data-name="Trazado 46521" d="M235.653,139.07s-.728,7.106-2.579,11.143l-11.706-1.785s-1.112-4.963-.495-7.9,1.657-3.283,1.657-3.283a25.908,25.908,0,0,0,6.1,3.351c5.563,1.742,7.024-1.531,7.024-1.531" transform="translate(-149.548 -99.361)" fill="#f09271"/>
        <path id="Trazado_46522" data-name="Trazado 46522" d="M258.72,140.052s1.58,10.506,2.831,11.936l11.572-1.251s2.179-2.757,1.313-7.991c.072-.186-.553-3.223-2.7-2.643s-6.076,2.055-7.819,2.1-4.679.479-5.2-2.151" transform="translate(-167.19 -100.651)" fill="#f09271"/>
        <path id="Trazado_46523" data-name="Trazado 46523" d="M272.329,70.066a23.7,23.7,0,0,0-20.158-2.192q-9.926,5.277,1.791,25.806c.936.148,1.888.261,2.858.345Q247.079,61.317,272.329,70.066Z" transform="translate(-162.04 -66.583)" fill="#783c00"/>
        <path id="Trazado_46524" data-name="Trazado 46524" d="M233.876,155.141c-2.348-5.936-11.685-5.314-11.853-.521-.212,6.054,12.3,6.233,11.853.521" transform="translate(-150.167 -105.673)" fill="#fff"/>
        <path id="Trazado_46525" data-name="Trazado 46525" d="M233.47,157.708a4.1,4.1,0,0,0-.086-2.63,2.279,2.279,0,0,0-1.529-1.466,2.306,2.306,0,0,0-2.068.5,4.13,4.13,0,0,0-1.418,2.226,3.966,3.966,0,0,0,.095,2.6,2.256,2.256,0,0,0,1.521,1.5,2.285,2.285,0,0,0,2.076-.531,4,4,0,0,0,1.409-2.2" transform="translate(-153.032 -106.916)" fill="#502800"/>
        <path id="Trazado_46526" data-name="Trazado 46526" d="M233.371,158.9a1.987,1.987,0,0,0-.042-1.279,1.106,1.106,0,0,0-.743-.713,1.121,1.121,0,0,0-1.005.244,2.009,2.009,0,0,0-.689,1.082,1.928,1.928,0,0,0,.046,1.264,1.1,1.1,0,0,0,.739.728,1.113,1.113,0,0,0,1.009-.258,1.939,1.939,0,0,0,.685-1.067" transform="translate(-154.243 -108.465)" fill="#2b0e00"/>
        <path id="Trazado_46527" data-name="Trazado 46527" d="M227.953,156.937l-.067.005a2.078,2.078,0,0,0-1.018.344.729.729,0,0,0-.394.634q.024.345.479.556a1.788,1.788,0,0,0,.43.135l.047.008a5,5,0,0,1,.14-.7,4.782,4.782,0,0,1,.383-.978" transform="translate(-152.232 -108.493)" fill="#fff"/>
        <path id="Trazado_46528" data-name="Trazado 46528" d="M228.952,156.926c-.056,0-.114,0-.172.006a4.782,4.782,0,0,0-.383.978,5,5,0,0,0-.14.7,2.234,2.234,0,0,0,.339.025c.077,0,.157,0,.238-.011a2.2,2.2,0,0,0,.843-.237c.009-.043.02-.086.032-.129a2.094,2.094,0,0,1,.454-.861.917.917,0,0,0-.395-.307,1.89,1.89,0,0,0-.783-.168h-.032" transform="translate(-153.059 -108.488)" fill="#dcd4cc"/>
        <path id="Trazado_46529" data-name="Trazado 46529" d="M231.39,157.811a2.094,2.094,0,0,0-.454.861c-.012.043-.023.086-.032.129a1.879,1.879,0,0,0,.176-.107.729.729,0,0,0,.394-.634.513.513,0,0,0-.084-.249" transform="translate(-154.288 -108.898)" fill="#d5cfcc"/>
        <path id="Trazado_46530" data-name="Trazado 46530" d="M233.82,153.991l.012-.027c.075-4.648-11.728-9.527-11.875-.35C224.722,148.129,231.857,151.163,233.82,153.991Z" transform="translate(-150.137 -104.547)" fill="#2b0e00"/>
        <path id="Trazado_46531" data-name="Trazado 46531" d="M263.454,155.754c2.537-5.857,11.852-4.6,11.882,0,.041,6.3-12.559,5.364-11.882,0" transform="translate(-169.373 -106.119)" fill="#fff"/>
        <path id="Trazado_46532" data-name="Trazado 46532" d="M274.866,158.492a3.958,3.958,0,0,0-.09-2.63,2.33,2.33,0,0,0-1.586-1.466,2.458,2.458,0,0,0-2.146.5,4.112,4.112,0,0,0-1.471,2.226,3.826,3.826,0,0,0,.1,2.6,2.306,2.306,0,0,0,1.577,1.5,2.437,2.437,0,0,0,2.155-.531,3.984,3.984,0,0,0,1.463-2.2" transform="translate(-172.141 -107.28)" fill="#502800"/>
        <path id="Trazado_46533" data-name="Trazado 46533" d="M274.758,159.7a1.976,1.976,0,0,0-.041-1.267,1.1,1.1,0,0,0-.736-.706,1.11,1.11,0,0,0-1,.241,1.99,1.99,0,0,0-.683,1.072,1.906,1.906,0,0,0,.046,1.252,1.086,1.086,0,0,0,.732.721,1.1,1.1,0,0,0,1-.256,1.919,1.919,0,0,0,.679-1.058" transform="translate(-173.451 -108.842)" fill="#2b0e00"/>
        <path id="Trazado_46534" data-name="Trazado 46534" d="M269.347,157.561a2.066,2.066,0,0,0-1.007.342.725.725,0,0,0-.391.63q.025.342.476.551a1.719,1.719,0,0,0,.35.118,4.823,4.823,0,0,1,.128-.576,4.636,4.636,0,0,1,.445-1.064" transform="translate(-171.47 -108.782)" fill="#fff"/>
        <path id="Trazado_46535" data-name="Trazado 46535" d="M270.3,157.539c-.077,0-.156,0-.237.012h0a4.634,4.634,0,0,0-.445,1.064,4.824,4.824,0,0,0-.128.576l.078.016a2.145,2.145,0,0,0,.383.033c.077,0,.155,0,.236-.011a2.168,2.168,0,0,0,.844-.24l.005-.02a2.057,2.057,0,0,1,.5-.906.845.845,0,0,0-.421-.358,1.885,1.885,0,0,0-.778-.166H270.3" transform="translate(-172.185 -108.772)" fill="#dcd4cc"/>
        <path id="Trazado_46536" data-name="Trazado 46536" d="M272.867,158.517a2.057,2.057,0,0,0-.5.906l-.005.02a1.753,1.753,0,0,0,.167-.1.722.722,0,0,0,.39-.63.507.507,0,0,0-.053-.194" transform="translate(-173.518 -109.226)" fill="#d5cfcc"/>
        <path id="Trazado_46537" data-name="Trazado 46537" d="M263.49,154.55l-.012-.028c.075-4.648,12.028-9.147,11.881.03C272.771,148.981,265.543,151.785,263.49,154.55Z" transform="translate(-169.396 -104.915)" fill="#2b0e00"/>
        <path id="Trazado_46538" data-name="Trazado 46538" d="M273.78,138a2.806,2.806,0,0,0-4.13-1.326c-2.318,1.464-9.082,4.26-10.93,1.617l.62,2.131c.733,2.6,1.758,4.211,5.551,2.775a23.288,23.288,0,0,0,5.788-3.382c2.188-1.647,3.756,1.17,3.756,1.17A11.815,11.815,0,0,0,273.78,138Z" transform="translate(-167.19 -98.886)" fill="#630"/>
        <path id="Trazado_46539" data-name="Trazado 46539" d="M221.651,136.539a2.449,2.449,0,0,1,3.883-1c2.181,1.646,8.528,4.987,10.28,2.473l-.583,2.082c-.689,2.547-1.906,4.068-5.221,2.34a26.831,26.831,0,0,1-5.444-3.836c-2.058-1.818-3.533.876-3.533.876A11.848,11.848,0,0,1,221.651,136.539Z" transform="translate(-149.709 -98.301)" fill="#630"/>
        <path id="Trazado_46540" data-name="Trazado 46540" d="M247.8,197.829a9.083,9.083,0,0,1-3.319-.965,13.191,13.191,0,0,0-5.164-1.352,11.8,11.8,0,0,0-4.821,1.234,7.518,7.518,0,0,1-2.816.825,2.621,2.621,0,0,1-1.257-.308,4.559,4.559,0,0,1-2.223-5.238c.43-1.908,1.922-3.895,3.964-4.078a3.043,3.043,0,0,1,.887-.121,10.369,10.369,0,0,1,2.108.32,16.3,16.3,0,0,0,3.6.478c.2,0,.412-.005.625-.018a20.229,20.229,0,0,0,5.107-1.107,10.68,10.68,0,0,1,2.992-.678,2.587,2.587,0,0,1,1.441.395,7.17,7.17,0,0,1,3.073,6.173,4.851,4.851,0,0,1-2.952,4.177A2.918,2.918,0,0,1,247.8,197.829Z" transform="translate(-152.966 -122.355)" fill="#741919"/>
        <path id="Trazado_46541" data-name="Trazado 46541" d="M252.238,193.046l-.478-4.022c-.117-.093-.235-.188-.357-.267-1.519-.989-4.544,1.286-9,1.536-3.432.194-5.72-1.165-7.09-.668a2.471,2.471,0,0,0-.443.073l-.146,2.879-.247,4.861c1.733.152,4.1-2.047,7.809-2.048,4.27,0,7.319,3.079,9.345,2.139a4.624,4.624,0,0,0,1.053-.68Z" transform="translate(-155.947 -123.138)" fill="#fff"/>
        <path id="Trazado_46542" data-name="Trazado 46542" d="M252.451,193.046l-.478-4.022c-.117-.093-.235-.188-.357-.267-1.519-.989-4.544,1.286-9,1.536-3.432.194-5.72-1.165-7.09-.668a2.471,2.471,0,0,0-.443.073l-.146,2.879a30.417,30.417,0,0,1,8.027-1A28,28,0,0,1,252.451,193.046Z" transform="translate(-156.16 -123.138)" fill="#efefef"/>
        <path id="Trazado_46543" data-name="Trazado 46543" d="M247.322,186.943a1.69,1.69,0,0,1,.947.248c1.919,1.547,3.859,7,.234,8.772a2.016,2.016,0,0,1-.86.179c-2,0-4.78-2.317-8.484-2.318h0c-3.583,0-5.917,2.06-7.634,2.06a1.708,1.708,0,0,1-.828-.2c-2.377-2.131.123-7.393,1.488-7.625a2.07,2.07,0,0,1,.711-.11c1.291,0,3.155.8,5.7.8.221,0,.446-.006.677-.019,3.665-.206,6.362-1.784,8.049-1.784m0-1.81h0a11.248,11.248,0,0,0-3.266.721,19.222,19.222,0,0,1-4.885,1.066c-.2.011-.388.016-.575.016a15.5,15.5,0,0,1-3.4-.457,11.158,11.158,0,0,0-2.3-.34,3.993,3.993,0,0,0-1.063.134c-1.909.189-3.237,2.184-3.812,4.742-.593,2.636-.427,5.053,1.818,6.262a3.512,3.512,0,0,0,1.686.417,8.263,8.263,0,0,0,3.172-.9,11.064,11.064,0,0,1,4.462-1.162,12.49,12.49,0,0,1,4.814,1.281,9.818,9.818,0,0,0,3.671,1.036,3.822,3.822,0,0,0,1.622-.347,5.53,5.53,0,0,0,3.2-4.985,8.826,8.826,0,0,0-3.208-6.946A3.482,3.482,0,0,0,247.322,185.133Z" transform="translate(-152.814 -121.572)" fill="#ffaf92"/>
        <path id="Trazado_46544" data-name="Trazado 46544" d="M162.6,345.219l1.763-14.318-5.138,18.563Z" transform="translate(-121.039 -189.186)" fill="#144573"/>
        <path id="Trazado_46545" data-name="Trazado 46545" d="M119.929,356.087c-6.538,8.792-18,11.336-25.605,5.682s-8.468-17.365-1.931-26.156,18-11.336,25.605-5.682S126.466,347.3,119.929,356.087Z" transform="translate(-88.003 -187.339)" fill="#2874b6"/>
        <path id="Trazado_46546" data-name="Trazado 46546" d="M171.845,184.332s5.613-4.548,7.465.682c.9,2.536-4.436,7.041-4.436,7.041Z" transform="translate(-126.893 -120.35)" fill="#f0a48a"/>
        <path id="Trazado_46547" data-name="Trazado 46547" d="M169.086,210.936c2.809,1.272,3.288,11.316,2.975,13.809-.4,3.2-6.4,5.307-7.127-5.928S169.086,210.936,169.086,210.936Z" transform="translate(-123.653 -133.323)" fill="#f0a48a"/>
        <path id="Trazado_46548" data-name="Trazado 46548" d="M136.254,196.649a.8.8,0,0,0,.931.718,1.634,1.634,0,0,0,1.823,1.708s3.683-3.163,1.559-7.48c0,0,2.537-6.505-1.887-7.381,0,0,.159-3.493-2.812-4.192a3.225,3.225,0,0,0-4.543-2.009c-3.467,1.436-8.884,4.828-12.509,5.4-1.235.2-3.467,1.435-2.993,4.99a10.615,10.615,0,0,0,.953,4.71c1.05,1.85,6.463,17.546,6.234,19.462-1.356,11.375-18.513,30.542-26.863,57.358a20.054,20.054,0,0,0,.013,10.585l-.006,0,.018.053a12.331,12.331,0,0,0,.381,1.174,20.109,20.109,0,0,1,1.118,5.228c-.184,2.2,6.745,6.181,10.187,4.528,2.13-1.022,4.5-2.041,6.271-2.783,4.926-1.5,8.725-4.1,10.063-9.8,5.946-14.287,1.678-44.254,14.39-66.284,0,0,4.5-3.469-3.661-13.075A4.247,4.247,0,0,0,136.254,196.649Z" transform="translate(-91.452 -118.107)" fill="#ffaf92"/>
        <path id="Trazado_46549" data-name="Trazado 46549" d="M167.034,189.267s-8.178,1.412-10.467,2.009c0,0,7.38-2.864,10.427-2.712Z" transform="translate(-119.806 -123.16)" fill="#f5a88d"/>
        <path id="Trazado_46550" data-name="Trazado 46550" d="M172.36,201.215s-.771-3.234-8.378-1.128c0,0,6.144-3.791,8.705,0Z" transform="translate(-123.246 -127.727)" fill="#f5a88d"/>
        <path id="Trazado_46551" data-name="Trazado 46551" d="M159.885,181.126c-.5.054-2.466.271-3.432.461-2.861.561-9.612,4.25-8.683,3.991s4.9-2.108,6.832-2.941a18.9,18.9,0,0,1,5.5-1.009A3.579,3.579,0,0,0,159.885,181.126Z" transform="translate(-115.685 -119.713)" fill="#f5a88d"/>
        <path id="Trazado_46552" data-name="Trazado 46552" d="M167.273,213.417a4.247,4.247,0,0,0,1.331-2.909.8.8,0,0,0,.931.718,1.634,1.634,0,0,0,1.823,1.708A7.108,7.108,0,0,0,173.511,209a5.6,5.6,0,0,0-5.453-1.212c-2.51.669-3.843,5.093-2.056,7.864s5.273,9.829,1.072,12.778a9.125,9.125,0,0,0,2,1.61c.579-1.2,1.19-2.388,1.859-3.547C170.934,226.492,175.429,223.023,167.273,213.417Z" transform="translate(-123.802 -131.966)" fill="#f5a88d"/>
        <path id="Trazado_46553" data-name="Trazado 46553" d="M138.838,241.34a4.2,4.2,0,0,0-2.056-1.242s-1.463,7.425-12.15,1.912c0,0,5.737,4.44,9.112,4.215,0,0-3.6,11.422-4.613,15.922s-3.786,28-5.149,33.213c-1.376,5.261-5.144,17.473-14.373,18.251-8.715.735-11.74-3.212-14.05-11.778a21.108,21.108,0,0,0,.6,7.648l-.006,0,.018.053a12.323,12.323,0,0,0,.381,1.174,20.109,20.109,0,0,1,1.118,5.228c-.184,2.2,6.745,6.181,10.187,4.528,2.13-1.022,4.5-2.041,6.271-2.783,4.926-1.5,8.725-4.1,10.063-9.8,5.946-14.287,1.678-44.254,14.39-66.284A2.059,2.059,0,0,0,138.838,241.34Z" transform="translate(-91.452 -147.067)" fill="#f5a88d"/>
        <path id="Trazado_46554" data-name="Trazado 46554" d="M348.655,356.087c6.537,8.792,18,11.336,25.605,5.682s8.468-17.365,1.931-26.156-18-11.336-25.605-5.682S342.117,347.3,348.655,356.087Z" transform="translate(-206.869 -187.339)" fill="#2874b6"/>
        <path id="Trazado_46555" data-name="Trazado 46555" d="M321.608,184.332s-5.613-4.548-7.466.682c-.9,2.536,4.437,7.041,4.437,7.041Z" transform="translate(-192.849 -120.35)" fill="#f0a48a"/>
        <path id="Trazado_46556" data-name="Trazado 46556" d="M324.612,210.936c-2.809,1.272-3.289,11.316-2.975,13.809.4,3.2,6.4,5.307,7.128-5.928S324.612,210.936,324.612,210.936Z" transform="translate(-196.334 -133.323)" fill="#f0a48a"/>
        <path id="Trazado_46557" data-name="Trazado 46557" d="M324.078,196.649a.8.8,0,0,1-.931.718,1.634,1.634,0,0,1-1.823,1.708s-3.683-3.163-1.559-7.48c0,0-2.538-6.505,1.886-7.381,0,0-.159-3.493,2.812-4.192a3.225,3.225,0,0,1,4.543-2.009c3.467,1.436,8.884,4.828,12.509,5.4,1.235.2,3.467,1.435,2.992,4.99a10.616,10.616,0,0,1-.952,4.71c-1.05,1.85-6.463,17.546-6.235,19.462,1.356,11.375,18.513,30.542,26.863,57.358a20.054,20.054,0,0,1-.013,10.585l.006,0-.018.053a12.331,12.331,0,0,1-.381,1.174,20.13,20.13,0,0,0-1.118,5.228c.183,2.2-6.746,6.181-10.187,4.528-2.13-1.022-4.5-2.041-6.271-2.783-4.926-1.5-8.725-4.1-10.063-9.8-5.946-14.287-1.678-44.254-14.39-66.284,0,0-4.5-3.469,3.661-13.076A4.245,4.245,0,0,1,324.078,196.649Z" transform="translate(-195.169 -118.107)" fill="#ffaf92"/>
        <path id="Trazado_46558" data-name="Trazado 46558" d="M323.91,189.267s8.179,1.412,10.468,2.009c0,0-7.38-2.864-10.428-2.712Z" transform="translate(-197.428 -123.16)" fill="#f5a88d"/>
        <path id="Trazado_46559" data-name="Trazado 46559" d="M320.109,201.215s.77-3.234,8.378-1.128c0,0-6.143-3.791-8.705,0Z" transform="translate(-195.513 -127.727)" fill="#f5a88d"/>
        <path id="Trazado_46560" data-name="Trazado 46560" d="M329.371,181.126c.5.054,2.466.271,3.433.461,2.861.561,9.612,4.25,8.682,3.991s-4.9-2.108-6.832-2.941a18.893,18.893,0,0,0-5.5-1.009A3.632,3.632,0,0,1,329.371,181.126Z" transform="translate(-199.86 -119.713)" fill="#f5a88d"/>
        <path id="Trazado_46561" data-name="Trazado 46561" d="M367.942,289.161c-8.35-26.816-25.506-45.984-26.863-57.358-.14-1.175,1.84-7.527,3.636-12.694-1.909,4.674-4.525,10.613-6.366,12.35-2.574,2.429-11.205,1.455-11.205,1.455s7.406,2.695,11.785,1.285c0,0,5.279,12.224,7.056,14.18S365,284.283,365,288.193s.711,14.042-7.465,15.464c-6.1,1.061-13.492-2.434-18.253-7.157.192.565.392,1.116.611,1.641,1.337,5.7,5.137,8.3,10.063,9.8,1.776.742,4.141,1.761,6.271,2.783,3.442,1.652,10.371-2.329,10.188-4.528a20.13,20.13,0,0,1,1.118-5.228,12.323,12.323,0,0,0,.381-1.174l.018-.053-.006,0A20.053,20.053,0,0,0,367.942,289.161Z" transform="translate(-198.928 -137.331)" fill="#f5a88d"/>
      </g>
    </g>
    <g id="Elipse_990" data-name="Elipse 990" transform="translate(461 8151)" fill="none" stroke="#fec558" stroke-width="1">
      <circle cx="92.5" cy="92.5" r="92.5" stroke="none"/>
      <circle cx="92.5" cy="92.5" r="92" fill="none"/>
    </g>
  </g>
</svg>
