<svg xmlns="http://www.w3.org/2000/svg" xmlns:xlink="http://www.w3.org/1999/xlink" width="128.001" height="128" viewBox="0 0 128.001 128">
  <defs>
    <clipPath id="clip-path">
      <path id="Trazado_45958" data-name="Trazado 45958" d="M334,590a64,64,0,1,1-64-64A64,64,0,0,1,334,590Z" fill="none"/>
    </clipPath>
  </defs>
  <g id="Grupo_17594" data-name="Grupo 17594" transform="translate(-206 -526)">
    <circle id="Elipse_961" data-name="Elipse 961" cx="64" cy="64" r="64" transform="translate(206 526)" fill="#474f59"/>
    <g id="Grupo_17593" data-name="Grupo 17593">
      <g id="Grupo_17591" data-name="Grupo 17591">
        <g id="Grupo_17590" data-name="Grupo 17590" clip-path="url(#clip-path)">
          <g id="Grupo_17589" data-name="Grupo 17589">
            <path id="Trazado_45953" data-name="Trazado 45953" d="M310,578a38,38,0,1,1-38-38A38,38,0,0,1,310,578Z" fill="#fff"/>
            <rect id="Rectángulo_4421" data-name="Rectángulo 4421" width="20" height="30" transform="translate(234.001 578)" fill="#fff"/>
            <path id="Trazado_45954" data-name="Trazado 45954" d="M238,608H224l10-26Z" fill="#fff"/>
            <path id="Trazado_45955" data-name="Trazado 45955" d="M285,630H236l-2-22,56-4Z" fill="#fff"/>
            <path id="Trazado_45956" data-name="Trazado 45956" d="M303,652l-48,12V627l41-17Z" fill="#fff"/>
            <path id="Trazado_45957" data-name="Trazado 45957" d="M282,623.039,297,617l11-27-26,4Z" fill="#fff"/>
          </g>
        </g>
      </g>
      <path id="Trazado_45959" data-name="Trazado 45959" d="M298,578a26,26,0,1,1-26-26A26,26,0,0,1,298,578Z" fill="#f2f2f2"/>
      <circle id="Elipse_962" data-name="Elipse 962" cx="12" cy="12" r="12" transform="translate(260.001 566)" fill="#f77b55"/>
      <path id="Trazado_45960" data-name="Trazado 45960" d="M272,574a4,4,0,0,0,0,8h22a4,4,0,0,0,0,8,4,4,0,0,0,0,8,4,4,0,0,0,0,8h34V574Z" fill="#fdca5c"/>
      <g id="Grupo_17592" data-name="Grupo 17592">
        <line id="Línea_169" data-name="Línea 169" y2="3" transform="translate(272.001 559)" fill="none" stroke="#474f59" stroke-miterlimit="10" stroke-width="2"/>
        <line id="Línea_170" data-name="Línea 170" x2="0.776" y2="2.897" transform="translate(267.084 559.648)" fill="none" stroke="#474f59" stroke-miterlimit="10" stroke-width="2"/>
        <line id="Línea_171" data-name="Línea 171" x2="1.5" y2="2.598" transform="translate(262.502 561.545)" fill="none" stroke="#474f59" stroke-miterlimit="10" stroke-width="2"/>
        <line id="Línea_172" data-name="Línea 172" x2="2.121" y2="2.121" transform="translate(258.567 564.565)" fill="none" stroke="#474f59" stroke-miterlimit="10" stroke-width="2"/>
        <line id="Línea_173" data-name="Línea 173" x2="2.598" y2="1.5" transform="translate(255.548 568.499)" fill="none" stroke="#474f59" stroke-miterlimit="10" stroke-width="2"/>
        <line id="Línea_174" data-name="Línea 174" x2="2.898" y2="0.776" transform="translate(253.649 573.081)" fill="none" stroke="#474f59" stroke-miterlimit="10" stroke-width="2"/>
        <line id="Línea_175" data-name="Línea 175" x2="2.999" transform="translate(253.002 577.998)" fill="none" stroke="#474f59" stroke-miterlimit="10" stroke-width="2"/>
        <line id="Línea_176" data-name="Línea 176" y1="0.776" x2="2.896" transform="translate(253.649 582.14)" fill="none" stroke="#474f59" stroke-miterlimit="10" stroke-width="2"/>
        <line id="Línea_177" data-name="Línea 177" y1="1.499" x2="2.597" transform="translate(255.548 585.999)" fill="none" stroke="#474f59" stroke-miterlimit="10" stroke-width="2"/>
        <line id="Línea_178" data-name="Línea 178" y1="2.12" x2="2.12" transform="translate(258.567 589.313)" fill="none" stroke="#474f59" stroke-miterlimit="10" stroke-width="2"/>
        <line id="Línea_179" data-name="Línea 179" y1="2.596" x2="1.5" transform="translate(262.502 591.856)" fill="none" stroke="#474f59" stroke-miterlimit="10" stroke-width="2"/>
        <line id="Línea_180" data-name="Línea 180" y1="2.897" x2="0.776" transform="translate(267.084 593.453)" fill="none" stroke="#474f59" stroke-miterlimit="10" stroke-width="2"/>
        <line id="Línea_181" data-name="Línea 181" y1="2.999" transform="translate(272.001 593.998)" fill="none" stroke="#474f59" stroke-miterlimit="10" stroke-width="2"/>
        <line id="Línea_182" data-name="Línea 182" x1="0.776" y1="2.897" transform="translate(276.142 593.453)" fill="none" stroke="#474f59" stroke-miterlimit="10" stroke-width="2"/>
        <line id="Línea_183" data-name="Línea 183" x1="1.5" y1="2.597" transform="translate(280 591.854)" fill="none" stroke="#474f59" stroke-miterlimit="10" stroke-width="2"/>
        <line id="Línea_184" data-name="Línea 184" x1="2.121" y1="2.12" transform="translate(283.313 589.313)" fill="none" stroke="#474f59" stroke-miterlimit="10" stroke-width="2"/>
        <line id="Línea_185" data-name="Línea 185" x1="2.598" y1="1.5" transform="translate(285.856 585.998)" fill="none" stroke="#474f59" stroke-miterlimit="10" stroke-width="2"/>
        <line id="Línea_186" data-name="Línea 186" x1="2.597" y2="1.499" transform="translate(285.857 568.5)" fill="none" stroke="#474f59" stroke-miterlimit="10" stroke-width="2"/>
        <line id="Línea_187" data-name="Línea 187" x1="2.12" y2="2.12" transform="translate(283.314 564.565)" fill="none" stroke="#474f59" stroke-miterlimit="10" stroke-width="2"/>
        <line id="Línea_188" data-name="Línea 188" x1="1.499" y2="2.597" transform="translate(280.001 561.546)" fill="none" stroke="#474f59" stroke-miterlimit="10" stroke-width="2"/>
        <line id="Línea_189" data-name="Línea 189" x1="0.775" y2="2.895" transform="translate(276.143 559.648)" fill="none" stroke="#474f59" stroke-miterlimit="10" stroke-width="2"/>
      </g>
    </g>
  </g>
</svg>
