<svg xmlns="http://www.w3.org/2000/svg" xmlns:xlink="http://www.w3.org/1999/xlink" width="128.001" height="128" viewBox="0 0 128.001 128">
  <defs>
    <clipPath id="clip-path">
      <path id="Trazado_45966" data-name="Trazado 45966" d="M814,750a64,64,0,1,1-64-64A64,64,0,0,1,814,750Z" fill="none"/>
    </clipPath>
  </defs>
  <g id="Grupo_17608" data-name="Grupo 17608" transform="translate(-686 -686)">
    <circle id="Elipse_963" data-name="Elipse 963" cx="64" cy="64" r="64" transform="translate(686 686)" fill="#f2f2f2"/>
    <g id="Grupo_17607" data-name="Grupo 17607">
      <g id="Grupo_17597" data-name="Grupo 17597">
        <g id="Grupo_17596" data-name="Grupo 17596" clip-path="url(#clip-path)">
          <g id="Grupo_17595" data-name="Grupo 17595">
            <path id="Trazado_45961" data-name="Trazado 45961" d="M790,738a38,38,0,1,1-38-38A38,38,0,0,1,790,738Z" fill="#cccbca"/>
            <rect id="Rectángulo_4422" data-name="Rectángulo 4422" width="20" height="30" transform="translate(714.001 738)" fill="#cccbca"/>
            <path id="Trazado_45962" data-name="Trazado 45962" d="M718,768H704l10-26Z" fill="#cccbca"/>
            <path id="Trazado_45963" data-name="Trazado 45963" d="M765,790H716l-2-22,56-4Z" fill="#cccbca"/>
            <path id="Trazado_45964" data-name="Trazado 45964" d="M783,812l-48,12V787l41-17Z" fill="#cccbca"/>
            <path id="Trazado_45965" data-name="Trazado 45965" d="M762,783.039,777,777l11-27-26,4Z" fill="#cccbca"/>
          </g>
        </g>
      </g>
      <g id="Grupo_17606" data-name="Grupo 17606">
        <path id="Trazado_45967" data-name="Trazado 45967" d="M782,738a30,30,0,1,1-30-30A30,30,0,0,1,782,738Z" fill="#fff"/>
        <rect id="Rectángulo_4423" data-name="Rectángulo 4423" width="35.001" height="40" transform="translate(686.001 718)" fill="#adecf7"/>
        <path id="Trazado_45968" data-name="Trazado 45968" d="M752,758a20,20,0,0,0,0-40h-32.31A37.824,37.824,0,0,0,714,738v4l-6.154,16Z" fill="#76d0de"/>
        <g id="Grupo_17599" data-name="Grupo 17599">
          <g id="Grupo_17598" data-name="Grupo 17598">
            <path id="Trazado_45969" data-name="Trazado 45969" d="M753,726h-2l-1,4h4Z" fill="#474f59"/>
            <path id="Trazado_45970" data-name="Trazado 45970" d="M746.866,727.108l-1.732,1,1.134,3.963,3.464-2Z" fill="#474f59"/>
            <path id="Trazado_45971" data-name="Trazado 45971" d="M742.108,731.134l-1,1.732,2.964,2.865,2-3.463Z" fill="#474f59"/>
            <path id="Trazado_45972" data-name="Trazado 45972" d="M740,737v2l4,1v-4Z" fill="#474f59"/>
            <path id="Trazado_45973" data-name="Trazado 45973" d="M741.108,743.133l1,1.732,3.965-1.134-2-3.465Z" fill="#474f59"/>
            <path id="Trazado_45974" data-name="Trazado 45974" d="M745.135,747.891l1.731,1,2.867-2.964-3.465-2Z" fill="#474f59"/>
            <path id="Trazado_45975" data-name="Trazado 45975" d="M751,750h2l1-4h-4Z" fill="#474f59"/>
            <path id="Trazado_45976" data-name="Trazado 45976" d="M757.134,748.89l1.732-1-1.134-3.965-3.466,2Z" fill="#474f59"/>
            <path id="Trazado_45977" data-name="Trazado 45977" d="M761.892,744.863l1-1.73-2.964-2.867-2,3.465Z" fill="#474f59"/>
            <path id="Trazado_45978" data-name="Trazado 45978" d="M764,739v-2l-4-1v4Z" fill="#474f59"/>
            <path id="Trazado_45979" data-name="Trazado 45979" d="M762.891,732.864l-1-1.731-3.965,1.133,2,3.465Z" fill="#474f59"/>
            <path id="Trazado_45980" data-name="Trazado 45980" d="M758.864,728.106l-1.73-1-2.867,2.965,3.465,2Z" fill="#474f59"/>
          </g>
          <path id="Trazado_45981" data-name="Trazado 45981" d="M752,729a9,9,0,1,0,9,9A9,9,0,0,0,752,729Zm0,13a4,4,0,1,1,4-4A4,4,0,0,1,752,742Z" fill="#474f59"/>
          <path id="Trazado_45982" data-name="Trazado 45982" d="M752,732a6,6,0,1,0,6,6A6,6,0,0,0,752,732Zm0,9a3,3,0,1,1,3-3A3,3,0,0,1,752,741Z" fill="#fff"/>
        </g>
        <g id="Grupo_17600" data-name="Grupo 17600">
          <line id="Línea_190" data-name="Línea 190" x2="2" transform="translate(728.001 738)" fill="none" stroke="#fff" stroke-miterlimit="10" stroke-width="2"/>
          <line id="Línea_191" data-name="Línea 191" x2="2" transform="translate(732.001 738)" fill="none" stroke="#fff" stroke-miterlimit="10" stroke-width="2"/>
          <line id="Línea_192" data-name="Línea 192" x2="2" transform="translate(736.001 738)" fill="none" stroke="#fff" stroke-miterlimit="10" stroke-width="2"/>
        </g>
        <g id="Grupo_17605" data-name="Grupo 17605">
          <g id="Grupo_17602" data-name="Grupo 17602">
            <g id="Grupo_17601" data-name="Grupo 17601">
              <line id="Línea_193" data-name="Línea 193" x2="1" transform="translate(747.001 723)" fill="none" stroke="#474f59" stroke-miterlimit="10" stroke-width="2"/>
              <path id="Trazado_45983" data-name="Trazado 45983" d="M750.042,723H752a15,15,0,0,1,0,30h-2.98" fill="none" stroke="#474f59" stroke-miterlimit="10" stroke-width="2" stroke-dasharray="2.041 2.041"/>
              <line id="Línea_194" data-name="Línea 194" x1="1" transform="translate(747.001 753)" fill="none" stroke="#474f59" stroke-miterlimit="10" stroke-width="2"/>
            </g>
          </g>
          <g id="Grupo_17603" data-name="Grupo 17603">
            <line id="Línea_195" data-name="Línea 195" x2="2" transform="translate(686.001 753)" fill="none" stroke="#474f59" stroke-miterlimit="10" stroke-width="2"/>
            <line id="Línea_196" data-name="Línea 196" x2="2" transform="translate(690.001 753)" fill="none" stroke="#474f59" stroke-miterlimit="10" stroke-width="2"/>
            <line id="Línea_197" data-name="Línea 197" x2="2" transform="translate(694.001 753)" fill="none" stroke="#474f59" stroke-miterlimit="10" stroke-width="2"/>
            <line id="Línea_198" data-name="Línea 198" x2="2" transform="translate(698.001 753)" fill="none" stroke="#474f59" stroke-miterlimit="10" stroke-width="2"/>
            <line id="Línea_199" data-name="Línea 199" x2="2" transform="translate(702.001 753)" fill="none" stroke="#474f59" stroke-miterlimit="10" stroke-width="2"/>
            <line id="Línea_200" data-name="Línea 200" x2="2" transform="translate(706.001 753)" fill="none" stroke="#474f59" stroke-miterlimit="10" stroke-width="2"/>
            <line id="Línea_201" data-name="Línea 201" x2="2" transform="translate(710.001 753)" fill="none" stroke="#474f59" stroke-miterlimit="10" stroke-width="2"/>
            <line id="Línea_202" data-name="Línea 202" x2="2" transform="translate(714.001 753)" fill="none" stroke="#474f59" stroke-miterlimit="10" stroke-width="2"/>
            <line id="Línea_203" data-name="Línea 203" x2="2" transform="translate(718.001 753)" fill="none" stroke="#474f59" stroke-miterlimit="10" stroke-width="2"/>
            <line id="Línea_204" data-name="Línea 204" x2="2" transform="translate(722.001 753)" fill="none" stroke="#474f59" stroke-miterlimit="10" stroke-width="2"/>
            <line id="Línea_205" data-name="Línea 205" x2="2" transform="translate(726.001 753)" fill="none" stroke="#474f59" stroke-miterlimit="10" stroke-width="2"/>
            <line id="Línea_206" data-name="Línea 206" x2="2" transform="translate(730.001 753)" fill="none" stroke="#474f59" stroke-miterlimit="10" stroke-width="2"/>
            <line id="Línea_207" data-name="Línea 207" x2="2" transform="translate(734.001 753)" fill="none" stroke="#474f59" stroke-miterlimit="10" stroke-width="2"/>
            <line id="Línea_208" data-name="Línea 208" x2="2" transform="translate(738.001 753)" fill="none" stroke="#474f59" stroke-miterlimit="10" stroke-width="2"/>
            <line id="Línea_209" data-name="Línea 209" x2="2" transform="translate(742.001 753)" fill="none" stroke="#474f59" stroke-miterlimit="10" stroke-width="2"/>
            <line id="Línea_210" data-name="Línea 210" x2="2" transform="translate(746.001 753)" fill="none" stroke="#474f59" stroke-miterlimit="10" stroke-width="2"/>
          </g>
          <g id="Grupo_17604" data-name="Grupo 17604">
            <line id="Línea_211" data-name="Línea 211" x2="2" transform="translate(686.001 723)" fill="none" stroke="#474f59" stroke-miterlimit="10" stroke-width="2"/>
            <line id="Línea_212" data-name="Línea 212" x2="2" transform="translate(690.001 723)" fill="none" stroke="#474f59" stroke-miterlimit="10" stroke-width="2"/>
            <line id="Línea_213" data-name="Línea 213" x2="2" transform="translate(694.001 723)" fill="none" stroke="#474f59" stroke-miterlimit="10" stroke-width="2"/>
            <line id="Línea_214" data-name="Línea 214" x2="2" transform="translate(698.001 723)" fill="none" stroke="#474f59" stroke-miterlimit="10" stroke-width="2"/>
            <line id="Línea_215" data-name="Línea 215" x2="2" transform="translate(702.001 723)" fill="none" stroke="#474f59" stroke-miterlimit="10" stroke-width="2"/>
            <line id="Línea_216" data-name="Línea 216" x2="2" transform="translate(706.001 723)" fill="none" stroke="#474f59" stroke-miterlimit="10" stroke-width="2"/>
            <line id="Línea_217" data-name="Línea 217" x2="2" transform="translate(710.001 723)" fill="none" stroke="#474f59" stroke-miterlimit="10" stroke-width="2"/>
            <line id="Línea_218" data-name="Línea 218" x2="2" transform="translate(714.001 723)" fill="none" stroke="#474f59" stroke-miterlimit="10" stroke-width="2"/>
            <line id="Línea_219" data-name="Línea 219" x2="2" transform="translate(718.001 723)" fill="none" stroke="#474f59" stroke-miterlimit="10" stroke-width="2"/>
            <line id="Línea_220" data-name="Línea 220" x2="2" transform="translate(722.001 723)" fill="none" stroke="#474f59" stroke-miterlimit="10" stroke-width="2"/>
            <line id="Línea_221" data-name="Línea 221" x2="2" transform="translate(726.001 723)" fill="none" stroke="#474f59" stroke-miterlimit="10" stroke-width="2"/>
            <line id="Línea_222" data-name="Línea 222" x2="2" transform="translate(730.001 723)" fill="none" stroke="#474f59" stroke-miterlimit="10" stroke-width="2"/>
            <line id="Línea_223" data-name="Línea 223" x2="2" transform="translate(734.001 723)" fill="none" stroke="#474f59" stroke-miterlimit="10" stroke-width="2"/>
            <line id="Línea_224" data-name="Línea 224" x2="2" transform="translate(738.001 723)" fill="none" stroke="#474f59" stroke-miterlimit="10" stroke-width="2"/>
            <line id="Línea_225" data-name="Línea 225" x2="2" transform="translate(742.001 723)" fill="none" stroke="#474f59" stroke-miterlimit="10" stroke-width="2"/>
            <line id="Línea_226" data-name="Línea 226" x2="2" transform="translate(746.001 723)" fill="none" stroke="#474f59" stroke-miterlimit="10" stroke-width="2"/>
          </g>
        </g>
      </g>
    </g>
  </g>
</svg>
