<svg xmlns="http://www.w3.org/2000/svg" width="125.035" height="133.856" viewBox="0 0 125.035 133.856">
  <g id="Grupo_17488" data-name="Grupo 17488" transform="translate(-70.768 -309.624)">
    <g id="Grupo_17434" data-name="Grupo 17434">
      <g id="Grupo_17433" data-name="Grupo 17433">
        <path id="Trazado_45575" data-name="Trazado 45575" d="M161.662,366.984v-37.72H79.054V441.911h82.608V366.984Z" fill="#ffdc7b"/>
      </g>
    </g>
    <g id="Grupo_17436" data-name="Grupo 17436">
      <g id="Grupo_17435" data-name="Grupo 17435">
        <path id="Trazado_45576" data-name="Trazado 45576" d="M88.448,427.258V329.264H79.336V441.911h82.608V432.8H93.99A5.542,5.542,0,0,1,88.448,427.258Z" fill="#edc45f"/>
      </g>
    </g>
    <g id="Grupo_17438" data-name="Grupo 17438">
      <g id="Grupo_17437" data-name="Grupo 17437">
        <rect id="Rectángulo_4373" data-name="Rectángulo 4373" width="33.784" height="16.517" transform="translate(105.957 323.783)" fill="#fff"/>
      </g>
    </g>
    <g id="Grupo_17440" data-name="Grupo 17440">
      <g id="Grupo_17439" data-name="Grupo 17439">
        <path id="Trazado_45577" data-name="Trazado 45577" d="M112.836,321.206a10.014,10.014,0,0,1,20.027,0Z" fill="#e8ecff"/>
      </g>
    </g>
    <g id="Grupo_17442" data-name="Grupo 17442">
      <g id="Grupo_17441" data-name="Grupo 17441">
        <rect id="Rectángulo_4374" data-name="Rectángulo 4374" width="15.748" height="15.748" transform="translate(86.426 351.273)" fill="#fff"/>
      </g>
    </g>
    <g id="Grupo_17444" data-name="Grupo 17444">
      <g id="Grupo_17443" data-name="Grupo 17443">
        <rect id="Rectángulo_4375" data-name="Rectángulo 4375" width="15.748" height="15.748" transform="translate(86.426 376.662)" fill="#fff"/>
      </g>
    </g>
    <g id="Grupo_17446" data-name="Grupo 17446">
      <g id="Grupo_17445" data-name="Grupo 17445">
        <rect id="Rectángulo_4376" data-name="Rectángulo 4376" width="15.748" height="15.748" transform="translate(86.426 402.051)" fill="#fff"/>
      </g>
    </g>
    <g id="Grupo_17448" data-name="Grupo 17448">
      <g id="Grupo_17447" data-name="Grupo 17447">
        <circle id="Elipse_953" data-name="Elipse 953" cx="32.573" cy="32.573" r="32.573" transform="translate(129.089 366.984)" fill="#38b4c1"/>
      </g>
    </g>
    <g id="Grupo_17450" data-name="Grupo 17450">
      <g id="Grupo_17449" data-name="Grupo 17449">
        <path id="Trazado_45578" data-name="Trazado 45578" d="M163.688,408.914l-7.044,7.044L182.4,390.2l-7.044-7.044L156.644,401.87l-8.512-8.512-7.044,7.044,8.512,8.512,7.044,7.044Z" fill="#e8ecff"/>
      </g>
    </g>
    <g id="Grupo_17452" data-name="Grupo 17452">
      <g id="Grupo_17451" data-name="Grupo 17451">
        <path id="Trazado_45579" data-name="Trazado 45579" d="M163.887,403.578l-4.145,4.144a4.1,4.1,0,0,1-5.8,0l-4.144-4.144-6.411-6.411-2.1,2.1,8.512,8.512,7.044,7.044,7.044-7.044L182.6,389.065l-2.1-2.1Z" fill="#d8defe"/>
      </g>
    </g>
    <g id="Grupo_17487" data-name="Grupo 17487">
      <g id="Grupo_17454" data-name="Grupo 17454">
        <g id="Grupo_17453" data-name="Grupo 17453">
          <path id="Trazado_45580" data-name="Trazado 45580" d="M163.231,443.48H77.486V327.7h27.562v3.136H80.622V440.343h79.472v-8.214h3.136Z"/>
        </g>
      </g>
      <g id="Grupo_17456" data-name="Grupo 17456">
        <g id="Grupo_17455" data-name="Grupo 17455">
          <path id="Trazado_45581" data-name="Trazado 45581" d="M73.9,435.194H70.768V320.978H98.33v3.136H73.9Z"/>
        </g>
      </g>
      <g id="Grupo_17458" data-name="Grupo 17458">
        <g id="Grupo_17457" data-name="Grupo 17457">
          <path id="Trazado_45582" data-name="Trazado 45582" d="M163.231,366.984h-3.136V330.832H139.742V327.7h23.489Z"/>
        </g>
      </g>
      <g id="Grupo_17460" data-name="Grupo 17460">
        <g id="Grupo_17459" data-name="Grupo 17459">
          <path id="Trazado_45583" data-name="Trazado 45583" d="M141.31,341.869H104.39V322.215h36.92Zm-33.784-3.137h30.648v-13.38H107.526Z"/>
        </g>
      </g>
      <g id="Grupo_17462" data-name="Grupo 17462">
        <g id="Grupo_17461" data-name="Grupo 17461">
          <path id="Trazado_45584" data-name="Trazado 45584" d="M134.431,321.206h-3.136a8.445,8.445,0,0,0-16.891,0h-3.136a11.582,11.582,0,1,1,23.163,0Z"/>
        </g>
      </g>
      <g id="Grupo_17464" data-name="Grupo 17464">
        <g id="Grupo_17463" data-name="Grupo 17463">
          <path id="Trazado_45585" data-name="Trazado 45585" d="M103.742,368.59H84.858V349.7h18.884Zm-15.748-3.137h12.612V352.842H87.994Z"/>
        </g>
      </g>
      <g id="Grupo_17466" data-name="Grupo 17466">
        <g id="Grupo_17465" data-name="Grupo 17465">
          <path id="Trazado_45586" data-name="Trazado 45586" d="M103.742,393.978H84.858V375.094h18.884Zm-15.748-3.136h12.612V378.23H87.994Z"/>
        </g>
      </g>
      <g id="Grupo_17468" data-name="Grupo 17468">
        <g id="Grupo_17467" data-name="Grupo 17467">
          <path id="Trazado_45587" data-name="Trazado 45587" d="M103.742,419.367H84.858V400.483h18.884Zm-15.748-3.136h12.612V403.619H87.994Z"/>
        </g>
      </g>
      <g id="Grupo_17470" data-name="Grupo 17470">
        <g id="Grupo_17469" data-name="Grupo 17469">
          <path id="Trazado_45588" data-name="Trazado 45588" d="M161.662,433.7a34.141,34.141,0,1,1,34.141-34.14A34.179,34.179,0,0,1,161.662,433.7Zm0-65.145a31,31,0,1,0,31,31.005A31.039,31.039,0,0,0,161.662,368.552Z"/>
        </g>
      </g>
      <g id="Grupo_17472" data-name="Grupo 17472">
        <g id="Grupo_17471" data-name="Grupo 17471">
          <path id="Trazado_45589" data-name="Trazado 45589" d="M156.56,418.176l-8.152-8.153,2.217-2.217,5.935,5.936L162.5,407.8l2.217,2.217Z"/>
        </g>
      </g>
      <g id="Grupo_17474" data-name="Grupo 17474">
        <g id="Grupo_17473" data-name="Grupo 17473">
          <path id="Trazado_45590" data-name="Trazado 45590" d="M157.669,417.067l-2.218-2.217L180.1,390.2l-4.827-4.827L156.56,404.087l-8.512-8.512-4.827,4.827,7.4,7.4-2.217,2.217-9.621-9.62,9.262-9.262,8.512,8.512,18.716-18.715,9.262,9.262Z"/>
        </g>
      </g>
      <g id="Grupo_17476" data-name="Grupo 17476">
        <g id="Grupo_17475" data-name="Grupo 17475">
          <rect id="Rectángulo_4377" data-name="Rectángulo 4377" width="17.449" height="3.136" transform="translate(108.552 414.39)"/>
        </g>
      </g>
      <g id="Grupo_17478" data-name="Grupo 17478">
        <g id="Grupo_17477" data-name="Grupo 17477">
          <rect id="Rectángulo_4378" data-name="Rectángulo 4378" width="14.297" height="3.136" transform="translate(108.552 404.426)"/>
        </g>
      </g>
      <g id="Grupo_17480" data-name="Grupo 17480">
        <g id="Grupo_17479" data-name="Grupo 17479">
          <rect id="Rectángulo_4379" data-name="Rectángulo 4379" width="17.449" height="3.136" transform="translate(108.552 377.986)"/>
        </g>
      </g>
      <g id="Grupo_17482" data-name="Grupo 17482">
        <g id="Grupo_17481" data-name="Grupo 17481">
          <rect id="Rectángulo_4380" data-name="Rectángulo 4380" width="14.297" height="3.136" transform="translate(108.552 387.95)"/>
        </g>
      </g>
      <g id="Grupo_17484" data-name="Grupo 17484">
        <g id="Grupo_17483" data-name="Grupo 17483">
          <rect id="Rectángulo_4381" data-name="Rectángulo 4381" width="41.724" height="3.136" transform="translate(108.552 353.377)"/>
        </g>
      </g>
      <g id="Grupo_17486" data-name="Grupo 17486">
        <g id="Grupo_17485" data-name="Grupo 17485">
          <rect id="Rectángulo_4382" data-name="Rectángulo 4382" width="34.327" height="3.136" transform="translate(108.552 363.341)"/>
        </g>
      </g>
    </g>
  </g>
</svg>
