<svg xmlns="http://www.w3.org/2000/svg" width="232.797" height="378.448" viewBox="0 0 232.797 378.448">
  <g id="Grupo_20168" data-name="Grupo 20168" transform="translate(-1040.217 -636.397)">
    <g id="Grupo_20152" data-name="Grupo 20152" transform="translate(1040.217 687.374)">
      <path id="Trazado_51276" data-name="Trazado 51276" d="M1045.182,984.177V721.526h226.485V983.112Z" transform="translate(-1042.025 -718.369)" fill="#fff"/>
      <path id="Trazado_51277" data-name="Trazado 51277" d="M1046.506,982.37V730.38c0-3.4.118-6.819,0-10.215-.005-.149,0-.3,0-.447l-3.131,3.132h217.292c2.928,0,5.883.116,8.809,0,.127-.005.256,0,.383,0l-3.131-3.132v251c0,3.377-.109,6.776,0,10.152,0,.145,0,.291,0,.435l3.131-3.131-6.07.029-16.518.078-24.318.115-29.779.14-32.489.153-32.925.155-30.583.144-25.953.122-18.657.088c-2.934.014-5.875-.027-8.809.041-.128,0-.256,0-.383,0-4.029.019-4.037,6.282,0,6.263l6.07-.029,16.518-.078,24.318-.115,29.78-.14,32.488-.153,32.925-.154,30.583-.144,25.953-.122,18.658-.088c2.934-.014,5.875.027,8.809-.041.128,0,.256,0,.383,0a3.179,3.179,0,0,0,3.132-3.132v-251c0-3.382.053-6.77,0-10.152,0-.145,0-.291,0-.436a3.177,3.177,0,0,0-3.132-3.131H1052.567c-2.934,0-5.875-.057-8.809,0-.128,0-.256,0-.383,0a3.177,3.177,0,0,0-3.132,3.131v251.99c0,3.4-.057,6.813,0,10.215,0,.149,0,.3,0,.447C1040.242,986.4,1046.506,986.407,1046.506,982.37Z" transform="translate(-1040.217 -716.561)" fill="#072c6e"/>
    </g>
    <g id="Grupo_20153" data-name="Grupo 20153" transform="translate(1070.801 788.493)">
      <path id="Trazado_51278" data-name="Trazado 51278" d="M1091.446,881.852h139.3c1.879,0,3.759.029,5.637,0h.242a3.131,3.131,0,0,0,0-6.263h-139.3c-1.878,0-3.759-.028-5.637,0-.08,0-.161,0-.241,0a3.131,3.131,0,1,0,0,6.263Z" transform="translate(-1088.312 -875.576)" fill="#072c6e"/>
      <path id="Trazado_51279" data-name="Trazado 51279" d="M1164.5,914.3h86.605c3.981,0,7.976.094,11.956,0,.054,0,.109,0,.163,0a3.132,3.132,0,0,0,0-6.263h-86.605c-3.982,0-7.976-.094-11.957,0-.054,0-.108,0-.162,0a3.132,3.132,0,0,0,0,6.263Z" transform="translate(-1114.912 -887.378)" fill="#072c6e"/>
      <path id="Trazado_51280" data-name="Trazado 51280" d="M1091.446,914.319h26.132a3.131,3.131,0,0,0,0-6.263h-26.132a3.131,3.131,0,1,0,0,6.263Z" transform="translate(-1088.312 -887.402)" fill="#072c6e"/>
      <path id="Trazado_51281" data-name="Trazado 51281" d="M1296.923,947.275h34.844a3.132,3.132,0,0,0,0-6.263h-34.844a3.132,3.132,0,1,0,0,6.263Z" transform="translate(-1163.125 -899.401)" fill="#072c6e"/>
      <path id="Trazado_51282" data-name="Trazado 51282" d="M1091.446,947.252h93.721c4.315,0,8.641.092,12.955,0,.06,0,.119,0,.179,0a3.132,3.132,0,0,0,0-6.263h-93.722c-4.315,0-8.641-.092-12.955,0-.059,0-.119,0-.178,0a3.132,3.132,0,1,0,0,6.263Z" transform="translate(-1088.312 -899.378)" fill="#072c6e"/>
    </g>
    <g id="Grupo_20163" data-name="Grupo 20163" transform="translate(1058.864 853.898)">
      <g id="Grupo_20154" data-name="Grupo 20154" transform="translate(98.135 13.806)">
        <path id="Trazado_51283" data-name="Trazado 51283" d="M1275.072,1096.558l8.013-6.131c7.889-5.736,14.47-16.01,18.293-26.65l2.542-5.372-43.438-53.346-31.733,37.4" transform="translate(-1225.642 -1001.931)" fill="#fff"/>
        <path id="Trazado_51284" data-name="Trazado 51284" d="M1274.873,1097.471l4.816-3.684c2.026-1.55,4.134-3.045,6.066-4.71,7.56-6.512,12.809-15.635,16.343-24.857.113-.3.232-.591.335-.892.268-.783-.182.339-.11.195s.138-.291.207-.437l.877-1.853,1.438-3.038a3.311,3.311,0,0,0-.49-3.8l-4.327-5.314-10.388-12.758-12.513-15.367-10.862-13.34c-1.75-2.149-3.421-4.407-5.27-6.472-.027-.031-.052-.064-.078-.1a3.142,3.142,0,0,0-4.429,0l-10.757,12.677L1228.7,1033.8l-3.941,4.645a3.131,3.131,0,0,0,4.428,4.428l10.757-12.677,17.034-20.074,3.942-4.645h-4.429l4.327,5.314,10.388,12.758,12.513,15.367,10.862,13.339c1.753,2.152,3.438,4.388,5.27,6.473.027.03.052.063.078.1l-.49-3.8c-.84,1.776-1.712,3.539-2.522,5.328-.473,1.045-.829,2.144-1.255,3.209-.1.254-.208.506-.309.759-.134.335.032-.074.051-.118-.071.169-.144.336-.216.5q-.381.88-.788,1.749a68.968,68.968,0,0,1-3.391,6.383q-.935,1.555-1.958,3.054-.487.712-.994,1.41-.272.373-.548.742l-.238.313c-.282.375.3-.376.009-.014a52.609,52.609,0,0,1-4.6,5.071c-.792.75-1.615,1.46-2.464,2.144-.469.377.367-.266-.115.088-.128.094-.257.188-.384.284l-.172.131c-.749.569-1.494,1.143-2.241,1.714l-5.595,4.28a3.448,3.448,0,0,0-1.439,1.872,3.2,3.2,0,0,0,.316,2.413c.825,1.281,2.893,2.188,4.284,1.124Z" transform="translate(-1223.863 -1000.14)" fill="#072c6e"/>
      </g>
      <g id="Grupo_20155" data-name="Grupo 20155" transform="translate(20.688 25.218)">
        <path id="Trazado_51285" data-name="Trazado 51285" d="M1159.319,1143.792l3.561,4.658a10.179,10.179,0,0,0,14.272,1.9h0a10.179,10.179,0,0,0,1.9-14.27l-6.1-7.967,1.831,2.394,13.544,17.7a10.179,10.179,0,0,0,14.27,1.9l0,0a10.178,10.178,0,0,0,1.9-14.269l-23.8-31.107,3.093,4.043,22.869,30.036a10.179,10.179,0,0,0,14.269,1.9l0,0a10.179,10.179,0,0,0,1.9-14.269l-25.962-34.079,3.094,4.043,18.664,24.394a10.178,10.178,0,0,0,14.269,1.9l.008-.006a10.179,10.179,0,0,0,1.9-14.266l-4.09-5.351-29.226-38.236-27.348-32.722a66.693,66.693,0,0,0-16.314-9.161l-50.89,39.607a53.642,53.642,0,0,0,4.949,16.622" transform="translate(-1103.846 -1019.859)" fill="#fff"/>
        <path id="Trazado_51286" data-name="Trazado 51286" d="M1154.842,1143.6c1.518,1.986,2.942,4.139,4.629,5.985a13.338,13.338,0,0,0,14.134,3.463,13.52,13.52,0,0,0,8.9-12.261,13.19,13.19,0,0,0-2-7.316c-.5-.787-1.109-1.515-1.675-2.254l-4.936-6.453a3.446,3.446,0,0,0-1.872-1.439,3.2,3.2,0,0,0-2.413.315c-1.281.826-2.188,2.893-1.123,4.285l10.179,13.3q2.513,3.284,5.025,6.568a14.037,14.037,0,0,0,4.9,4.306,13.289,13.289,0,0,0,19.163-14.085c-.41-2.788-1.876-4.958-3.525-7.113l-12.23-15.985q-5.094-6.658-10.187-13.315l-.173-.226a3.443,3.443,0,0,0-1.871-1.439,3.2,3.2,0,0,0-2.413.316c-1.281.825-2.188,2.893-1.124,4.284q5.5,7.19,10.977,14.4l14.639,19.226a15.085,15.085,0,0,0,4.606,4.292,13.551,13.551,0,0,0,12.192.428,13.383,13.383,0,0,0,5.127-19.8c-3.945-5.27-7.981-10.476-11.97-15.713l-13.748-18.046-.242-.317-5.408,3.161,4.973,6.5,9.181,12,7.324,9.572c.46.6.906,1.218,1.424,1.772a13.31,13.31,0,0,0,22.706-11.725c-.51-3.006-2.287-5.246-4.07-7.579l-4.223-5.525-7.935-10.38-10.026-13.118-7.684-10.052c-.942-1.234-1.873-2.473-2.869-3.665l-7.384-8.835-10.491-12.553-7.749-9.272c-.267-.32-.529-.644-.8-.96a11.643,11.643,0,0,0-2.091-1.651,69.116,69.116,0,0,0-13.624-7.672c-.583-.245-1.168-.484-1.759-.71a3.351,3.351,0,0,0-3.456.652l-.084.065-.576.448-2.6,2.025-9.6,7.469-12.772,9.941-12.727,9.9-9.429,7.338-2.516,1.958c-.173.135-.365.261-.526.41a3.016,3.016,0,0,0-.706,1.053,5.945,5.945,0,0,0-.008,3.221q.135.953.31,1.9a59.383,59.383,0,0,0,4.8,14.288,3.146,3.146,0,0,0,4.285,1.124,3.219,3.219,0,0,0,1.124-4.285q-.457-.974-.885-1.96c-.362-.832.233.584-.111-.263-.139-.343-.278-.686-.412-1.03q-.747-1.914-1.358-3.878-.625-2.014-1.085-4.073-.223-1.007-.4-2.024c-.068-.389-.127-.779-.189-1.17q-.079-.563-.01-.052-.037-.3-.071-.591l-.917,2.214,5.07-3.946,12.172-9.474,14.658-11.407,12.727-9.905c2.053-1.6,4.175-3.136,6.173-4.8.029-.025.06-.047.091-.071l-3.047.805q.613.231,1.222.474l.541.221c.519.214-.66-.3.193.086.8.362,1.6.724,2.391,1.112,1.565.771,3.1,1.608,4.6,2.5q2.172,1.29,4.25,2.734.881.611,1.745,1.249c.074.055.788.56.208.146-3.111-2.221-.224-.207-.21-.163,0,.011.02.02.025.03a6.513,6.513,0,0,0,.839,1l1.873,2.241,12.963,15.51,10.926,13.074a6.637,6.637,0,0,0,.715.855c.005,0-.714-.93-.386-.5l.339.444,3.478,4.551,12.571,16.445,11.119,14.547,1.72,2.251,2.871,3.757c.354.462.708.923,1.059,1.386.2.266.4.535.575.816s.342.57.492.867c.066.13.124.265.189.4q.144.322-.1-.246c.039.1.077.2.112.3.2.57.24,1.208.446,1.764-.2-.548-.052-.481-.031-.2.01.141.024.282.031.423a10.074,10.074,0,0,1,0,1.057c-.009.172-.045.355-.041.526.011.42.146-.607.029-.2-.088.3-.118.625-.2.93q-.108.41-.249.809a1.737,1.737,0,0,1-.149.4q.272-.631.06-.163l-.093.191q-.217.431-.473.84c-.076.122-.155.242-.237.36-.17.248-.168.534.036-.025-.191.523-.986,1.061-1.395,1.421-.482.424.219-.167.272-.2-.126.08-.244.182-.366.268q-.413.287-.852.534a3.37,3.37,0,0,1-.885.441c.057-.009.689-.246.143-.073-.206.065-.407.141-.615.2q-.411.12-.831.205a4.125,4.125,0,0,1-.42.076c-.008-.014.7-.062.2-.032-.678.041-1.33.008-2.007-.006-.456-.01.79.161.1.011-.137-.03-.277-.052-.415-.081q-.413-.09-.818-.214-.2-.062-.4-.133c-.063-.022-.689-.3-.219-.074.415.2-.008-.011-.111-.062q-.289-.141-.568-.3c-.282-.161-.545-.343-.818-.519-.237-.152-.332-.066.113.1a1.819,1.819,0,0,1-.335-.282q-.332-.292-.638-.613-.194-.2-.375-.415c-.409-.478-.047-.043.133.193l-.23-.3-10.735-14.032-8.311-10.864-2.481-3.241a3.441,3.441,0,0,0-1.871-1.44,3.2,3.2,0,0,0-2.412.316c-1.283.827-2.186,2.891-1.124,4.284L1203.7,1107l14.111,18.523c.162.213.325.425.486.638l.062.081a11.249,11.249,0,0,1,.634.93c.115.19.223.383.325.58.067.13.132.261.194.393q.211.471-.06-.146a4.721,4.721,0,0,0,.336,1.024q.084.31.148.624l.041.21q.084.52-.018-.2a4.55,4.55,0,0,1,.068,1.057c0,.211,0,.423-.011.634q-.011.211-.03.422-.057.523.035-.2a8.238,8.238,0,0,1-.613,2.241l.15-.357q-.087.194-.183.385c-.063.127-.13.254-.2.378q-.157.281-.331.553-.116.181-.241.358-.3.41.1-.113a3.226,3.226,0,0,1-.734.817c-.158.158-.321.31-.49.457-.269.236-.8.447.105-.057-.355.2-.673.483-1.026.691-.159.094-.32.184-.484.269-.13.067-.261.132-.394.194q-.471.211.147-.06c-.158.2-.883.3-1.129.363-.172.044-.346.085-.521.12l-.21.041q-.52.084.2-.018c-.044.114-1.129.07-1.269.069s-.282-.005-.423-.012-.281-.017-.422-.03q-.523-.057.2.034a8.14,8.14,0,0,1-2.241-.612l.357.149q-.195-.088-.385-.183c-.191-.1-.38-.2-.565-.306q-.232-.135-.457-.284c-.091-.058-.18-.119-.268-.182q-.41-.3.113.1a3.789,3.789,0,0,1-.973-.893c-.216-.227-1.008-1.247-.242-.223l-.088-.116q-6.59-8.688-13.212-17.353-5.626-7.389-11.257-14.773l-1.4-1.837-5.408,3.161,8.192,10.708,12.88,16.834c.9,1.181,1.818,2.355,2.712,3.544.163.218.322.438.471.667q.272.42.5.864c.067.13.129.262.193.394.323.661-.2-.641.017.057.186.586.334,1.161.465,1.761.1.452-.053-.807-.013-.095.008.141.024.282.032.423a10.116,10.116,0,0,1,0,1.057c-.007.141-.023.281-.03.422-.033.706.125-.543.018-.1-.075.308-.117.622-.2.93-.071.273-.154.544-.248.81a1.774,1.774,0,0,1-.149.4q.271-.63.06-.163l-.094.192a10.278,10.278,0,0,1-.53.932c-.078.121-.161.238-.241.358-.192.287-.219.062.1-.113-.228.126-.476.553-.658.738-.263.268-.544.507-.825.754-.4.355.843-.588.181-.139-.125.085-.245.175-.37.258q-.371.247-.762.461-.242.132-.49.25c-.114.055-.55.189-.125.063.5-.148-.179.055-.234.073q-.305.1-.618.188c-.276.075-.555.13-.834.188-.615.128.205-.034.2-.018a2.5,2.5,0,0,1-.529.048q-.476.03-.952.017-.212-.007-.422-.021c-.105-.008-.211-.017-.316-.028-.243-.026-.14-.011.309.045a8.722,8.722,0,0,1-1.844-.463,2.5,2.5,0,0,0-.4-.149c.082.01.654.309.163.06-.319-.161-.636-.322-.941-.509q-.184-.112-.363-.233c-.041-.028-.621-.445-.209-.137s-.152-.136-.19-.17c-.11-.1-.219-.2-.324-.3q-.322-.309-.615-.645c-.076-.088-.544-.683-.115-.119.294.388.224.293.164.213-1.325-1.745-2.663-3.48-3.995-5.221l-10.129-13.239-1.24-1.622-5.408,3.161,3.857,5.041,2.012,2.63c.213.279.426.556.621.848a10.182,10.182,0,0,1,.711,1.253c.34.71-.11-.373.064.154.09.273.184.544.259.822q.1.362.168.73a1.569,1.569,0,0,0,.055.315s-.066-.657-.042-.306a13.49,13.49,0,0,1,.045,1.587c-.007.147.021.923-.023.425-.039-.437-.029.135-.066.312a12.889,12.889,0,0,1-.441,1.524c-.179.526.28-.573-.064.131q-.14.288-.3.567-.186.327-.4.64c-.061.09-.128.176-.186.266-.2.317.406-.465.022-.033a12.464,12.464,0,0,1-1,1.031c-.112.1-.23.193-.342.293-.266.237.172-.153.185-.142-.02-.017-.692.465-.748.5q-.284.172-.58.325c-.113.059-.85.336-.42.209.459-.135-.322.1-.439.141-.274.086-.55.161-.829.223a4.263,4.263,0,0,0-.629.121c.509-.206.5-.053.2-.031-.105.008-.211.018-.317.025a13.316,13.316,0,0,1-1.585-.022c-.6-.032.579.124-.005,0-.242-.052-.483-.095-.723-.155s-.478-.129-.712-.206c-.1-.033-.2-.068-.3-.1-.479-.175-.128-.151.059.036a7.446,7.446,0,0,0-1.225-.657c-.174-.109-.525-.252-.626-.425,0-.006.47.394.2.155-.135-.123-.279-.236-.414-.36q-.326-.3-.627-.629c-.116-.127-.669-.819-.266-.288.373.49.041.053-.046-.061l-1.18-1.543-2.159-2.825a3.444,3.444,0,0,0-1.871-1.439,3.2,3.2,0,0,0-2.413.316c-1.282.826-2.187,2.892-1.124,4.284Z" transform="translate(-1102.072 -1018.086)" fill="#072c6e"/>
      </g>
      <g id="Grupo_20156" data-name="Grupo 20156" transform="translate(0 2.784)">
        <path id="Trazado_51287" data-name="Trazado 51287" d="M1134.993,987.784l14.285,18.671-59.5,45.519-15.235-19.913Z" transform="translate(-1071.363 -984.619)" fill="#1cbfff"/>
        <path id="Trazado_51288" data-name="Trazado 51288" d="M1130.465,987.552l12.5,16.343,1.781,2.328,1.123-4.285-5.915,4.526-14.206,10.869-17.189,13.15-14.86,11.369c-2.4,1.836-4.908,3.585-7.223,5.527-.032.027-.067.052-.1.078l4.284,1.124-13.357-17.458-1.879-2.455-1.124,4.284,6.01-4.4,14.434-10.573,17.463-12.791,15.1-11.06c2.446-1.791,4.9-3.571,7.339-5.375l.1-.076a3.209,3.209,0,0,0,1.124-4.285c-.842-1.3-2.871-2.158-4.285-1.123l-6.01,4.4-14.433,10.573-17.463,12.791-15.1,11.06c-2.446,1.791-4.9,3.571-7.339,5.375l-.1.076c-1.232.9-2.235,2.832-1.124,4.285l13.356,17.458,1.879,2.455a3.355,3.355,0,0,0,1.871,1.439,3.024,3.024,0,0,0,2.412-.316l5.916-4.526,14.206-10.869,17.188-13.15,14.86-11.37q3.612-2.763,7.224-5.526l.1-.078a3.356,3.356,0,0,0,1.439-1.872,3.027,3.027,0,0,0-.315-2.413l-12.5-16.344-1.781-2.327a3.448,3.448,0,0,0-1.871-1.439,3.2,3.2,0,0,0-2.413.316C1130.308,984.093,1129.4,986.161,1130.465,987.552Z" transform="translate(-1069.54 -982.807)" fill="#072c6e"/>
      </g>
      <g id="Grupo_20157" data-name="Grupo 20157" transform="translate(15.496 71.345)">
        <path id="Rectángulo_5257" data-name="Rectángulo 5257" d="M9.949,0h0A9.949,9.949,0,0,1,19.9,9.949v18.5a9.949,9.949,0,0,1-9.949,9.949h0A9.949,9.949,0,0,1,0,28.444V9.949A9.949,9.949,0,0,1,9.949,0Z" transform="matrix(0.608, 0.794, -0.794, 0.608, 30.494, 0)" fill="#fff"/>
        <path id="Trazado_51289" data-name="Trazado 51289" d="M1103.3,1120.973a13.173,13.173,0,0,1-1.425-2.167c-.347-.706.155.483-.107-.251q-.127-.354-.225-.717c-.074-.275-.13-.553-.186-.832-.04-.2.055-.311-.006,0-.089.45,0-.053-.008-.215-.034-.531.021-1.05.029-1.579.006-.423-.15.611-.029.207.029-.1.036-.211.057-.311.062-.31.14-.617.232-.919.025-.083.145-.654.242-.7-.093.042-.268.573-.064.164.064-.127.123-.256.189-.381q.2-.378.432-.739c.058-.09.119-.179.18-.268.329-.472.149-.015-.033.029.13-.032.483-.547.587-.651q.274-.278.569-.531c.68-.586-.345.246-.139.09.186-.141.371-.284.557-.427l2.512-1.922c4.03-3.083,8.035-6.2,12.09-9.25.162-.121.324-.241.492-.355q.322-.218.661-.411c.127-.072.257-.141.388-.207.092-.047.674-.311.22-.115-.409.176.292-.1.435-.144q.407-.13.825-.223c.139-.031.278-.055.417-.083.2-.04.31.055,0-.006-.41-.081-.068.007.11,0s.351-.022.527-.026c.246-.005.492,0,.738.013.139.008.281.031.42.033.423.006-.611-.15-.207-.029.537.16,1.093.249,1.631.421.68.217-.361-.2.133.046.255.127.508.252.754.4.216.126.427.261.633.4.1.069.439.375.117.078-.364-.335.157.148.185.174.191.172.375.353.552.54.094.1.759.915.352.378l.073.1c.125.164.25.326.37.494a11.308,11.308,0,0,1,.843,1.431c.255.5-.2-.584.059.153q.162.455.278.924c.06.241.1.487.149.729.087.417-.01-.626-.029-.2a3.148,3.148,0,0,0,.026.316c.018.281.024.562.018.843,0,.141-.01.281-.019.421l-.016.21q-.046.418.007,0c-.085-.2.052-.266-.006,0-.029.137-.052.276-.083.413q-.092.411-.219.814c-.037.116-.282.89-.135.419.134-.431,0,0-.058.111-.078.16-.158.317-.245.472q-.182.328-.39.64c-.079.12-.166.235-.246.354-.191.284.143-.2.158-.2-.154.038-.468.531-.586.651-.237.24-.494.449-.742.676-.361.33.61-.462.3-.228l-.228.174-2.136,1.635-7.307,5.59q-2.654,2.03-5.307,4.06c-.248.19-.5.378-.757.55s-.5.314-.762.454c-.132.071-.824.393-.415.216.437-.189-.431.142-.537.176q-.409.126-.827.214c-.139.029-.279.05-.418.078-.418.087.626-.01.2-.029-.242-.011-.5.039-.738.045-.28.006-.562,0-.842-.02a3.112,3.112,0,0,0-.315-.027c-.385.014.672.137.1.011-.519-.114-1.02-.243-1.527-.4-.738-.233.36.2-.134-.046-.287-.143-.571-.287-.846-.452-.247-.148-.478-.315-.717-.475-.284-.191.2.142.2.158a2.406,2.406,0,0,0-.331-.285,10.267,10.267,0,0,1-1.207-1.309,3.137,3.137,0,0,0-4.429,0,3.228,3.228,0,0,0,0,4.428,12.811,12.811,0,0,0,15.641,3.276,34.013,34.013,0,0,0,5.265-3.8l7.986-6.111,2.879-2.2a19.029,19.029,0,0,0,2.668-2.252,12.813,12.813,0,0,0,1.039-15.949,14.154,14.154,0,0,0-5.913-4.956,12.706,12.706,0,0,0-8.458-.51c-2.584.759-4.5,2.39-6.585,3.983l-7.967,6.1q-2.281,1.744-4.562,3.49a12.985,12.985,0,0,0-4.949,7.3,13.138,13.138,0,0,0,.946,8.639,12.748,12.748,0,0,0,1.519,2.363,3.446,3.446,0,0,0,1.871,1.439,3.2,3.2,0,0,0,2.413-.316C1103.457,1124.431,1104.365,1122.364,1103.3,1120.973Z" transform="translate(-1094.336 -1091.042)" fill="#072c6e"/>
      </g>
      <g id="Grupo_20158" data-name="Grupo 20158" transform="translate(27.741 82.297)">
        <path id="Rectángulo_5258" data-name="Rectángulo 5258" d="M9.949,0h0A9.949,9.949,0,0,1,19.9,9.949V37.527a9.949,9.949,0,0,1-9.949,9.949h0A9.949,9.949,0,0,1,0,37.527V9.949A9.949,9.949,0,0,1,9.949,0Z" transform="translate(37.705 0) rotate(52.579)" fill="#fff"/>
        <path id="Trazado_51290" data-name="Trazado 51290" d="M1122.541,1143.717c-.28-.366-.567-.727-.821-1.112a9.526,9.526,0,0,1-.5-.859c-.061-.118-.244-.363-.239-.491l.147.348c-.053-.134-.1-.269-.15-.405a9.542,9.542,0,0,1-.291-1.03c-.031-.139-.055-.278-.084-.417-.123-.612.041.2.022.2a6.3,6.3,0,0,1-.057-1.054c0-.175.006-.351.016-.526.005-.1.013-.21.022-.315q.046-.418-.007,0l-.029.208q.032-.208.074-.414t.092-.411c.084-.343.2-.673.308-1.009.182-.57-.08.142-.078.159-.015-.124.219-.464.277-.574a9.617,9.617,0,0,1,.551-.918c.038-.055.478-.573.139-.206s.141-.148.174-.185a9.782,9.782,0,0,1,.786-.778c.214-.189.822-.649-.107.058l.055-.043q2.719-2.073,5.431-4.155l16.481-12.61c.159-.121.317-.245.477-.365a10.654,10.654,0,0,1,1.038-.7c.207-.12.632-.458.878-.452-.482-.013-.411.164-.045.033.236-.084.475-.16.717-.225.31-.083.623-.138.937-.2.451-.094-.806.046-.1.019.141-.006.281-.022.422-.027a9.725,9.725,0,0,1,1.054.013c-.034,0,.42.031.419.037q-.726-.1-.207-.022l.207.039a9.676,9.676,0,0,1,1.021.263c.162.052.332.139.5.174.422.088-.676-.346-.065-.027.284.149.571.287.846.452.154.092.305.188.453.288.09.061.177.123.265.187q.279.2-.2-.158c.083.225.64.572.807.744.142.146.814.977.429.458s.068.09.157.207c.187.247.37.5.537.756a9.543,9.543,0,0,1,.5.862l.1.2q.214.47-.055-.15a1.757,1.757,0,0,1,.15.4,9.658,9.658,0,0,1,.291,1.03c.031.139.055.278.083.417.136.675-.028-.627,0,.008.015.353.041.7.033,1.054,0,.14-.01.281-.018.421-.052.771.006,0,.019,0a8.826,8.826,0,0,1-.549,2.032c.1-.057.271-.562.065-.163-.082.158-.156.318-.24.474a9.478,9.478,0,0,1-.5.824l-.123.177q-.3.409.095-.117c-.014.07-.258.3-.285.331a9.635,9.635,0,0,1-.871.851c-.683.588.439-.318.137-.088l-.234.179-.943.721-3.291,2.519-9.456,7.234-7.536,5.766a18.179,18.179,0,0,1-2.064,1.463c-.191.108-.39.2-.584.3-.31.166-.091.195.15-.055a3.1,3.1,0,0,1-1.02.338c-.31.084-.623.138-.937.2-.452.094.806-.047.1-.018-.212.008-.421.029-.633.034-.353.008-.7-.02-1.052-.036-.5-.024.221-.026.205.035,0,.013-.465-.085-.517-.1q-.465-.1-.917-.241c-.162-.051-.332-.139-.5-.174q-.329-.127.258.115c-.13-.057-.258-.118-.385-.181q-.383-.191-.747-.415c-.184-.113-.358-.237-.538-.356-.294-.195-.195.021.118.095-.23-.055-.646-.578-.807-.744a10.788,10.788,0,0,1-.731-.849,3.138,3.138,0,0,0-4.428,0,3.227,3.227,0,0,0,0,4.428,12.752,12.752,0,0,0,17.306,2.235c2.008-1.513,3.993-3.056,5.99-4.584q8.165-6.247,16.331-12.494a13.191,13.191,0,0,0,4.956-7.052,12.749,12.749,0,0,0-1.629-10.29,13.762,13.762,0,0,0-7.747-5.891,12.751,12.751,0,0,0-10.29,1.629c-1.849,1.253-3.579,2.718-5.352,4.074l-10.059,7.7-7.132,5.457a14.1,14.1,0,0,0-4.163,4.562,12.753,12.753,0,0,0-.787,10.314,14.441,14.441,0,0,0,2.088,3.711,3.444,3.444,0,0,0,1.871,1.439,3.2,3.2,0,0,0,2.413-.316C1122.7,1147.176,1123.606,1145.108,1122.541,1143.717Z" transform="translate(-1113.577 -1108.267)" fill="#072c6e"/>
      </g>
      <g id="Grupo_20159" data-name="Grupo 20159" transform="translate(60.08 16.21)">
        <path id="Trazado_51291" data-name="Trazado 51291" d="M1244.312,1058.944c-25.268,6.1-44.106-9.241-44.106-9.241l-15.056,11.519a10.081,10.081,0,0,1-14.132-1.88h0a10.082,10.082,0,0,1,1.88-14.133l33.281-25.462c7.718-6.433,19.8-10.189,31.3-10.893" transform="translate(-1165.812 -1005.717)" fill="#fff"/>
        <path id="Trazado_51292" data-name="Trazado 51292" d="M1241.687,1054.129c-1.2.286-2.406.536-3.621.738q-.395.066-.792.126c-.234.035-.993.129-.345.052-.6.072-1.205.142-1.81.2a50.808,50.808,0,0,1-6.578.169q-1.588-.063-3.171-.223-.344-.035-.687-.074c-.1-.011-.975-.109-.489-.057.468.051-.249-.036-.367-.053q-.441-.065-.883-.138a54.23,54.23,0,0,1-5.523-1.213q-2.535-.7-5-1.628-.553-.209-1.1-.429c-.165-.066-.329-.134-.494-.2-.676-.275.586.256-.056-.023-.686-.3-1.368-.6-2.044-.926a54.385,54.385,0,0,1-6.119-3.4c-.648-.419-1.288-.853-1.91-1.309-.169-.123-.849-.644-.2-.144.559.432.267.209.132.1-.976-.793-2.636-1.375-3.795-.49l-14.757,11.291a13.674,13.674,0,0,1-1.233.865c-.179.108-.766.539-.978.518.255.026.513-.189.144-.06-.205.072-.408.149-.615.213a10.108,10.108,0,0,1-1.043.264,4.138,4.138,0,0,0-.422.074c.792-.25.166-.029-.121-.013-.318.018-.637.022-.956.01-.212-.008-.423-.029-.635-.045-.621-.046.207.013.2.028a6.6,6.6,0,0,1-1.037-.227q-.307-.085-.609-.189c-.256-.089-.649-.419-.046,0-.28-.2-.657-.312-.956-.485-.233-.134-.786-.364-.907-.59.018.035.561.48.117.086-.137-.122-.278-.24-.413-.366-.3-.282-.57-.588-.846-.893-.508-.56.337.552-.064-.089-.079-.127-.169-.249-.249-.376-.2-.314-.368-.642-.542-.97-.339-.642.164.48.006.047-.062-.17-.129-.338-.187-.51a10.067,10.067,0,0,1-.33-1.249,4.263,4.263,0,0,0-.073-.422c.239.757.037.263.018-.015q-.031-.477-.018-.956c0-.111-.026-.909.071-.952l-.052.413c.023-.139.049-.279.078-.417q.065-.312.149-.619c.047-.172.184-.908.335-1.009-.281.188-.227.5-.017.063.078-.161.159-.321.245-.477.174-.317.375-.614.569-.918.307-.479-.073.054-.1.11a2.665,2.665,0,0,1,.5-.583,10.12,10.12,0,0,1,.808-.773c.236-.2.639-.5-.187.127l.116-.089q6.944-5.3,13.881-10.62l17.5-13.388,1.647-1.26.115-.088.016-.012c.307-.236.6-.468.9-.711.167-.135.68-.724.193-.162a9.741,9.741,0,0,1,1.943-1.38q1.018-.673,2.076-1.283a51.725,51.725,0,0,1,4.734-2.375c.121-.054.553-.232-.036.013.2-.083.4-.165.6-.246q.6-.244,1.215-.473,1.293-.487,2.61-.911a65.41,65.41,0,0,1,10.716-2.471l.534-.075c-.769.106.125-.013.235-.027q.667-.08,1.335-.148c.886-.09,1.773-.16,2.662-.217a3.132,3.132,0,0,0,0-6.263,68.39,68.39,0,0,0-23.031,5.411,42.619,42.619,0,0,0-8.939,5.179,9.163,9.163,0,0,0-1.365,1.072c.111-.135.61-.464.439-.329l-.143.109-.659.5-16.831,12.877L1169.8,1040.5a14.427,14.427,0,0,0-4.108,4.486,13.186,13.186,0,0,0,6.075,18.44,13.482,13.482,0,0,0,11.162-.1,17.281,17.281,0,0,0,3.284-2.172l4.32-3.306,8.892-6.8.573-.439-3.8-.49a45.75,45.75,0,0,0,8.589,5.354,59.346,59.346,0,0,0,22.091,6.105,54.437,54.437,0,0,0,16.472-1.413,3.16,3.16,0,0,0,2.187-3.852,3.2,3.2,0,0,0-3.852-2.187Z" transform="translate(-1164.019 -1003.921)" fill="#072c6e"/>
      </g>
      <g id="Grupo_20160" data-name="Grupo 20160" transform="translate(39.966 101.354)">
        <rect id="Rectángulo_5259" data-name="Rectángulo 5259" width="19.898" height="42.413" rx="9.949" transform="translate(33.685 0) rotate(52.582)" fill="#fff"/>
        <path id="Trazado_51293" data-name="Trazado 51293" d="M1141.771,1170.607c-.211-.277-.428-.551-.63-.834a9.629,9.629,0,0,1-.539-.846c-.072-.127-.141-.257-.208-.388-.046-.092-.31-.673-.114-.22.18.418,0-.021-.04-.129q-.09-.253-.167-.51c-.081-.273-.148-.55-.2-.829a2.976,2.976,0,0,0-.074-.418c.031.08.061.752.036.2-.016-.352-.041-.7-.033-1.054,0-.06.034-.841.056-.84.06,0-.13.7-.022.207.03-.137.052-.276.083-.413a9.392,9.392,0,0,1,.252-.914c.044-.133.1-.264.141-.4.1-.367-.284.581-.027.065a13.828,13.828,0,0,1,.927-1.563c.236-.35-.381.429-.089.121.125-.132.239-.276.364-.41a9.558,9.558,0,0,1,.722-.689c.668-.575-.322.229-.142.092l.224-.171.842-.644,3.077-2.354q7.03-5.379,14.06-10.757c.3-.229.6-.454.924-.655q.374-.235.769-.435a1.811,1.811,0,0,1,.394-.188c-.316-.008-.491.181-.146.07.173-.056,1.771-.637,1.86-.482-.009-.015-.76.057-.1.028.141-.006.28-.018.422-.022a9.341,9.341,0,0,1,.948.017c.052,0,.419.03.419.037,0,.029-.813-.153-.207-.022.344.074.686.141,1.025.24.116.034.752.161.8.273,0,0-.709-.343-.164-.064.126.064.255.123.381.189.252.132.5.277.738.431.121.078.236.162.356.242.6.4-.49-.448.05.046.217.2.436.392.64.6.13.134.824.989.429.459-.375-.5.041.053.116.151.156.206.311.411.456.624q.249.369.464.758.106.193.2.39l.048.1q.214.47-.055-.15c.149.135.222.617.281.814.1.343.168.689.244,1.038.108.5-.064-.207-.022-.2.011,0,.039.453.037.421.018.281.024.562.017.843,0,.078-.034.841-.056.84-.06,0,.13-.7.022-.207-.045.206-.081.413-.131.618-.067.273-.146.544-.237.81a2.049,2.049,0,0,1-.146.4c.22-.109.255-.557.018-.069q-.186.385-.405.751-.111.184-.229.362c-.061.091-.523.647-.2.3s-.326.35-.4.426c-.233.241-.483.458-.731.684-.5.459.551-.413.21-.152l-.589.45-2.706,2.071-8.22,6.288-6.362,4.867c-.159.122-.317.244-.476.364-.246.185-.5.363-.756.527s-.506.3-.769.435c-.048.024-.7.324-.221.114.452-.194-.132.043-.23.077-.27.093-.545.174-.822.243q-.259.064-.521.112c-.2.038-.5-.05-.108.026.411.081.067-.007-.11,0s-.351.022-.527.025c-.317.007-.631-.012-.948-.027l-.1-.008q-.418-.046,0,.007l.208.028c-.138-.021-.277-.046-.415-.073-.275-.055-.549-.123-.818-.2-.125-.037-.741-.154-.8-.273.049.1.57.267.164.064-.191-.095-.381-.187-.569-.291q-.375-.208-.73-.449a1.877,1.877,0,0,1-.352-.25c.341.438.306.248.125.082a11.948,11.948,0,0,1-1.372-1.454,3.138,3.138,0,0,0-4.428,0,3.229,3.229,0,0,0,0,4.429,12.754,12.754,0,0,0,17.065,2.415c1.671-1.213,3.286-2.511,4.926-3.765,4.776-3.654,9.62-7.233,14.332-10.97a12.764,12.764,0,0,0,2.481-16.974,14.18,14.18,0,0,0-6.914-5.487,12.8,12.8,0,0,0-9.352.516c-2.111.919-3.96,2.645-5.772,4.032l-8.877,6.791q-2.9,2.221-5.8,4.441a13.58,13.58,0,0,0-4.707,6.252,12.738,12.738,0,0,0,.48,9.452,13.033,13.033,0,0,0,1.652,2.662,3.446,3.446,0,0,0,1.872,1.439,3.2,3.2,0,0,0,2.413-.315C1141.928,1174.065,1142.836,1172,1141.771,1170.607Z" transform="translate(-1132.807 -1138.234)" fill="#072c6e"/>
      </g>
      <g id="Grupo_20161" data-name="Grupo 20161" transform="translate(52.095 119.836)">
        <path id="Rectángulo_5260" data-name="Rectángulo 5260" d="M9.949,0h0A9.949,9.949,0,0,1,19.9,9.949V27.366a9.949,9.949,0,0,1-9.949,9.949h0A9.949,9.949,0,0,1,0,27.366V9.949A9.949,9.949,0,0,1,9.949,0Z" transform="translate(29.635 0) rotate(52.579)" fill="#fff"/>
        <path id="Trazado_51294" data-name="Trazado 51294" d="M1160.874,1196.582a13.444,13.444,0,0,1-1.377-2.069,2.067,2.067,0,0,0-.188-.394c.014.012.215.572.108.247-.078-.238-.17-.472-.241-.713q-.121-.41-.2-.829c-.021-.1-.035-.21-.057-.313-.081-.389.042.686.019.1a13.753,13.753,0,0,1-.014-1.475c0,.034.031-.42.037-.42.029,0-.153.813-.021.208.059-.275.11-.55.183-.822.064-.239.146-.471.22-.705.234-.738-.2.36.046-.134a13.294,13.294,0,0,1,.864-1.476c.3-.455-.4.452.117-.131q.255-.289.532-.558c.29-.28,1.14-.945.239-.259l.47-.36,2.375-1.817c3.838-2.937,7.651-5.909,11.516-8.81.273-.2.552-.4.843-.578q.329-.2.674-.376a2.163,2.163,0,0,0,.394-.188c-.1.111-.561.211-.147.069a11.059,11.059,0,0,1,1.546-.427c.724-.136-.457,0,.112-.018.282-.011.562-.036.844-.036s.56.024.841.038c.562.027-.668-.153.105.019.52.116,1.017.257,1.523.419.572.183-.144-.079-.159-.077a1.8,1.8,0,0,1,.385.18c.223.111.441.232.655.359s.42.273.63.411c.339.223-.051.132-.118-.095.023.081.265.225.331.285q.328.3.628.621c.105.114.675.825.276.3-.371-.491,0,0,.073.1.1.134.206.266.3.4a9.779,9.779,0,0,1,.812,1.326,1.773,1.773,0,0,1,.188.394c0-.033-.261-.71-.069-.146.092.271.186.541.261.818.065.24.12.483.166.728.148.788-.008-.457.018.112s.023,1.117,0,1.685.137-.609-.019.105c-.052.24-.1.481-.163.719-.074.273-.169.536-.256.805-.026.082-.128.436,0,.019.145-.465-.052.1-.1.206a11.023,11.023,0,0,1-.771,1.284c-.3.443.361-.413-.118.132a9.467,9.467,0,0,1-.693.71c-.12.111-.841.688-.282.265.392-.3.288-.221.2-.158l-.179.137-1.976,1.512-7.015,5.367c-1.69,1.293-3.376,2.592-5.071,3.88a11.349,11.349,0,0,1-1.057.728c-.252.151-.513.282-.775.415-.5.255.584-.2-.153.058a11.137,11.137,0,0,1-1.549.411c-.612.125.2-.041.2-.022s-.454.039-.422.037c-.245.016-.491.021-.738.019s-.491-.026-.736-.037c-.505-.022.221-.029.206.036,0,.007-.382-.068-.415-.074-.523-.1-1.009-.3-1.519-.437-.32-.087.239.1.258.115a2.53,2.53,0,0,0-.385-.181c-.254-.126-.5-.265-.746-.414a4.5,4.5,0,0,0-.712-.483c.023.008.452.384.208.151-.106-.1-.221-.19-.329-.289a10.375,10.375,0,0,1-1.126-1.234,3.136,3.136,0,0,0-4.428,0,3.227,3.227,0,0,0,0,4.428,12.8,12.8,0,0,0,15.246,3.459,29.015,29.015,0,0,0,5.4-3.78l7.7-5.893c1.822-1.394,4.053-2.775,5.519-4.546,3.622-4.379,4.223-10.929.754-15.618a13.842,13.842,0,0,0-5.539-4.8,13.109,13.109,0,0,0-8.419-.78c-2.666.655-4.633,2.286-6.742,3.9l-7.682,5.877c-1.741,1.332-3.552,2.61-5.232,4.021a12.832,12.832,0,0,0-2.971,15.26,12.986,12.986,0,0,0,1.473,2.265,3.442,3.442,0,0,0,1.872,1.44,3.2,3.2,0,0,0,2.413-.316C1161.032,1200.041,1161.939,1197.973,1160.874,1196.582Z" transform="translate(-1151.91 -1167.306)" fill="#072c6e"/>
      </g>
      <g id="Grupo_20162" data-name="Grupo 20162" transform="translate(126.623)">
        <path id="Trazado_51295" data-name="Trazado 51295" d="M1291.205,983.42,1273.58,996.9l45.519,59.5,17.049-13.044Z" transform="translate(-1270.452 -980.246)" fill="#ffd059"/>
        <path id="Trazado_51296" data-name="Trazado 51296" d="M1287.834,978.9l-15.459,11.827-2.167,1.658a3.354,3.354,0,0,0-1.439,1.872,3.027,3.027,0,0,0,.315,2.413l4.526,5.916,10.87,14.206,13.15,17.188,11.37,14.861q2.763,3.612,5.526,7.223l.078.1a3.354,3.354,0,0,0,1.872,1.439,3.026,3.026,0,0,0,2.413-.315l14.907-11.4,2.142-1.639a3.362,3.362,0,0,0,1.44-1.871,3.043,3.043,0,0,0-.316-2.413l-4.469-5.959-10.731-14.312-12.984-17.316L1297.651,987.4q-2.728-3.639-5.456-7.277c-.026-.034-.052-.068-.077-.1a3.213,3.213,0,0,0-4.285-1.123c-1.292.833-2.174,2.883-1.123,4.284l4.468,5.959,10.731,14.312,12.984,17.315,11.226,14.971c1.812,2.417,3.538,4.942,5.456,7.277.027.033.051.069.077.1l1.124-4.285-14.908,11.4-2.142,1.639,4.285,1.124-4.526-5.915-10.869-14.206-13.151-17.189-11.369-14.861c-1.836-2.4-3.585-4.908-5.527-7.223-.027-.032-.052-.068-.078-.1l-1.124,4.285,15.459-11.827,2.167-1.658a3.443,3.443,0,0,0,1.439-1.871,3.2,3.2,0,0,0-.315-2.413C1291.292,978.741,1289.226,977.834,1287.834,978.9Z" transform="translate(-1268.661 -978.43)" fill="#072c6e"/>
      </g>
    </g>
    <g id="Grupo_20167" data-name="Grupo 20167" transform="translate(1087.907 636.397)">
      <g id="Grupo_20165" data-name="Grupo 20165">
        <g id="Grupo_20164" data-name="Grupo 20164">
          <circle id="Elipse_1146" data-name="Elipse 1146" cx="65.576" cy="65.576" r="65.576" transform="translate(3.131 3.132)" fill="#ffd059"/>
          <path id="Trazado_51297" data-name="Trazado 51297" d="M1183.919,773.811a68.707,68.707,0,1,1,68.708-68.707A68.785,68.785,0,0,1,1183.919,773.811Zm0-131.151a62.444,62.444,0,1,0,62.444,62.444A62.515,62.515,0,0,0,1183.919,642.66Z" transform="translate(-1115.212 -636.397)" fill="#072c6e"/>
        </g>
      </g>
      <g id="Grupo_20166" data-name="Grupo 20166" transform="translate(18.82 26.494)">
        <path id="Trazado_51298" data-name="Trazado 51298" d="M1240.957,698.7l-49.063,56.776a1.152,1.152,0,0,1-1.743.189l-40.418-31.01,7.334-18.506,30.627,22.9a1.152,1.152,0,0,0,1.743-.19l38.9-45.868Z" transform="translate(-1146.6 -679.854)" fill="#fff"/>
        <path id="Trazado_51299" data-name="Trazado 51299" d="M1189.147,757.316a4.291,4.291,0,0,1-2.777-1.024l-40.337-30.948a3.131,3.131,0,0,1-1-3.638l7.334-18.507a3.131,3.131,0,0,1,4.786-1.354l29.236,21.857,37.772-44.536a3.059,3.059,0,0,1,2.43-1.106,3.134,3.134,0,0,1,2.4,1.17l12.618,15.713a3.13,3.13,0,0,1-.073,4.008l-49,56.7a4.314,4.314,0,0,1-2.959,1.644A4.228,4.228,0,0,1,1189.147,757.316Zm-37.426-35.5,37.148,28.5,46.219-53.484-8.609-10.72-36.387,42.9a4.281,4.281,0,0,1-6.159.674l-27.256-20.377Zm33.372,3.428,0,0Z" transform="translate(-1144.807 -678.06)" fill="#072c6e"/>
      </g>
    </g>
  </g>
</svg>
