<svg xmlns="http://www.w3.org/2000/svg" width="179.317" height="185.843" viewBox="0 0 179.317 185.843">
  <g id="Grupo_20151" data-name="Grupo 20151" transform="translate(-244.59 -49.765)">
    <g id="Grupo_20150" data-name="Grupo 20150" transform="translate(246.59 51.579)">
      <line id="Línea_267" data-name="Línea 267" x2="25.473" y2="67.951" transform="translate(18.761 42.791)" fill="none" stroke="#11223e" stroke-linecap="round" stroke-linejoin="round" stroke-width="4"/>
      <line id="Línea_268" data-name="Línea 268" y1="5.26" x2="77.808" transform="translate(16.445 37.531)" fill="none" stroke="#11223e" stroke-linecap="round" stroke-linejoin="round" stroke-width="4"/>
      <path id="Trazado_51271" data-name="Trazado 51271" d="M333.2,81.932l34.736,55.909-72.251,16.445" transform="translate(-206.992 -27.1)" fill="none" stroke="#11223e" stroke-linecap="round" stroke-linejoin="round" stroke-width="4"/>
      <path id="Trazado_51272" data-name="Trazado 51272" d="M300.94,97.32a49.7,49.7,0,1,0,49.7,49.7A49.678,49.678,0,0,0,300.94,97.32Z" transform="translate(-242.84 -14.689)" fill="#ffcb2b" stroke="#11223e" stroke-linecap="round" stroke-linejoin="round" stroke-width="4"/>
      <circle id="Elipse_1144" data-name="Elipse 1144" cx="16.445" cy="16.445" r="16.445" transform="translate(142.426 94.296)" fill="#a9cdee" stroke="#11223e" stroke-linecap="round" stroke-linejoin="round" stroke-width="4"/>
      <circle id="Elipse_1145" data-name="Elipse 1145" cx="16.445" cy="16.445" r="16.445" transform="translate(0 26.345)" fill="#a9cdee" stroke="#11223e" stroke-linecap="round" stroke-linejoin="round" stroke-width="4"/>
      <path id="Trazado_51273" data-name="Trazado 51273" d="M327.592,102.981a13.871,13.871,0,1,1,13.87-13.872A13.875,13.875,0,0,1,327.592,102.981Zm36.733-6.223a35.817,35.817,0,0,0,.8-7.649,37.7,37.7,0,0,0-.8-7.676L352.5,80.295a22.706,22.706,0,0,0-1.08-2.587l7.562-9.155v-.027a37.421,37.421,0,0,0-10.861-10.8l-9.155,7.562a22.578,22.578,0,0,0-2.587-1.08l-1.138-11.827a35.794,35.794,0,0,0-7.647-.8,38.052,38.052,0,0,0-7.678.8L318.778,64.2a20.343,20.343,0,0,0-2.56,1.08l-9.182-7.562A37.094,37.094,0,0,0,296.2,68.553l7.564,9.184a20.326,20.326,0,0,0-1.082,2.558l-11.827,1.138a37.826,37.826,0,0,0-.8,7.676,35.809,35.809,0,0,0,.8,7.649L302.684,97.9a18.375,18.375,0,0,0,1.082,2.587l-7.564,9.184a36.653,36.653,0,0,0,10.834,10.8l9.153-7.533c.854.4,1.707.768,2.589,1.08l1.136,11.827a38.052,38.052,0,0,0,7.678.8,35.794,35.794,0,0,0,7.647-.8l1.138-11.827a21.005,21.005,0,0,0,2.616-1.08l9.155,7.562a37.11,37.11,0,0,0,10.832-10.832l-7.562-9.155A22.986,22.986,0,0,0,352.5,97.9Z" transform="translate(-211.532 -51.579)" fill="#3181b2" stroke="#11223e" stroke-linecap="round" stroke-linejoin="round" stroke-width="3.627"/>
    </g>
    <path id="Trazado_51274" data-name="Trazado 51274" d="M283.944,167.491V141.874c-5.857.6-14.159,1.707-15.184,2.928C267.2,146.764,289.8,108.5,289.8,108.5v25.618c5.886-.6,14.188-1.707,15.184-2.93C306.576,129.25,283.944,167.491,283.944,167.491Z" transform="translate(17.818 45.902)" fill="#fff" stroke="#11223e" stroke-linecap="round" stroke-linejoin="round" stroke-width="4"/>
  </g>
</svg>
