<svg xmlns="http://www.w3.org/2000/svg" width="120.49" height="102.596" viewBox="0 0 120.49 102.596">
  <g id="Grupo_20214" data-name="Grupo 20214" transform="translate(-4062.314 -1488.391)">
    <rect id="Rectángulo_5265" data-name="Rectángulo 5265" width="5.969" height="45.194" transform="translate(4082.216 1531.33)" fill="#c7ddeb"/>
    <rect id="Rectángulo_5266" data-name="Rectángulo 5266" width="5.969" height="58.838" transform="translate(4100.124 1507.027)" fill="#c7ddeb"/>
    <rect id="Rectángulo_5267" data-name="Rectángulo 5267" width="5.969" height="66.939" transform="translate(4124 1509.585)" fill="#c7ddeb"/>
    <rect id="Rectángulo_5268" data-name="Rectángulo 5268" width="5.969" height="40.931" transform="translate(4146.17 1515.128)" fill="#c7ddeb"/>
    <rect id="Rectángulo_5269" data-name="Rectángulo 5269" width="5.969" height="55.427" transform="translate(4162.798 1496.368)" fill="#c7ddeb"/>
    <g id="Grupo_20210" data-name="Grupo 20210" transform="translate(4062.314 1488.391)">
      <g id="Grupo_20209" data-name="Grupo 20209">
        <path id="Trazado_51349" data-name="Trazado 51349" d="M4180.493,1590.987h0l-118.175-.154V1490.7a2.312,2.312,0,0,1,4.624,0v95.514l113.558.147a2.312,2.312,0,0,1,0,4.623Z" transform="translate(-4062.314 -1488.391)" fill="#3d4451"/>
        <path id="Trazado_51350" data-name="Trazado 51350" d="M4131.746,1644.849l-2.355-2.317,36.142-36.751,13.757,17.086,40.524-41.726,2.37,2.3-43.126,44.405-13.771-17.1Z" transform="translate(-4112.584 -1557.903)" fill="#3d4451"/>
        <path id="Trazado_51351" data-name="Trazado 51351" d="M4453.279,1550.3l20.011-2.841-2.558,18.6Z" transform="translate(-4355.325 -1532.658)" fill="#3d4451"/>
      </g>
    </g>
    <circle id="Elipse_1152" data-name="Elipse 1152" cx="4.335" cy="4.335" r="4.335" transform="translate(4108.642 1538.238) rotate(-45)" fill="#3d4451"/>
    <circle id="Elipse_1153" data-name="Elipse 1153" cx="4.6" cy="4.6" r="4.6" transform="matrix(0.23, -0.973, 0.973, 0.23, 4123.918, 1559.142)" fill="#3d4451"/>
    <circle id="Elipse_1154" data-name="Elipse 1154" cx="4.488" cy="4.488" r="4.488" transform="translate(4144.771 1530.357)" fill="#3d4451"/>
    <g id="Grupo_20211" data-name="Grupo 20211" transform="translate(4074.961 1560.916)">
      <circle id="Elipse_1155" data-name="Elipse 1155" cx="6.684" cy="6.684" r="6.684" transform="translate(0 9.453) rotate(-45)" fill="#fdc345"/>
      <path id="Trazado_51352" data-name="Trazado 51352" d="M4126.276,1799.447a8.106,8.106,0,1,1,8.106-8.106A8.114,8.114,0,0,1,4126.276,1799.447Zm0-13.368a5.263,5.263,0,1,0,5.262,5.263A5.268,5.268,0,0,0,4126.276,1786.078Z" transform="translate(-4116.824 -1781.888)" fill="#3d4451"/>
    </g>
    <g id="Grupo_20212" data-name="Grupo 20212" transform="translate(4085.403 1498.164)">
      <path id="Trazado_51353" data-name="Trazado 51353" d="M4181.657,1532.588h-15.052a6.967,6.967,0,0,0-6.946,6.947v5.789a6.967,6.967,0,0,0,6.946,6.947h8.032l6.3,7.979s.277-5.006.23-7.979h.489a6.967,6.967,0,0,0,6.946-6.947v-5.789A6.967,6.967,0,0,0,4181.657,1532.588Z" transform="translate(-4158.359 -1531.288)" fill="#7eb9c7"/>
      <path id="Trazado_51354" data-name="Trazado 51354" d="M4178.156,1559.862l-8.037-10.181h-7.4a8.256,8.256,0,0,1-8.247-8.247v-5.789a8.256,8.256,0,0,1,8.247-8.247h15.051a8.257,8.257,0,0,1,8.247,8.247v5.789a8.258,8.258,0,0,1-7.433,8.207c-.023,2.924-.226,6.612-.236,6.791ZM4162.717,1530a5.652,5.652,0,0,0-5.646,5.646v5.789a5.652,5.652,0,0,0,5.646,5.646h8.662l4.526,5.733c.052-1.474.094-3.141.073-4.412l-.021-1.321h1.81a5.653,5.653,0,0,0,5.647-5.646v-5.789a5.654,5.654,0,0,0-5.647-5.646Z" transform="translate(-4154.47 -1527.398)" fill="#3d4451"/>
    </g>
    <g id="Grupo_20213" data-name="Grupo 20213" transform="translate(4147.136 1545.972)">
      <path id="Trazado_51355" data-name="Trazado 51355" d="M4413,1759.853h15.051a6.967,6.967,0,0,0,6.947-6.947v-5.789a6.967,6.967,0,0,0-6.947-6.947h-8.031l-6.3-7.979s-.278,5.006-.231,7.979H4413a6.967,6.967,0,0,0-6.946,6.947v5.789A6.967,6.967,0,0,0,4413,1759.853Z" transform="translate(-4404.755 -1728.689)" fill="#f04f4c"/>
      <path id="Trazado_51356" data-name="Trazado 51356" d="M4424.163,1750.677h-15.051a8.256,8.256,0,0,1-8.247-8.247v-5.789a8.258,8.258,0,0,1,7.432-8.207c.023-2.924.227-6.613.237-6.792l.189-3.429,8.038,10.181h7.4a8.256,8.256,0,0,1,8.247,8.247v5.789A8.256,8.256,0,0,1,4424.163,1750.677ZM4409.112,1731a5.653,5.653,0,0,0-5.646,5.646v5.789a5.653,5.653,0,0,0,5.646,5.647h15.051a5.652,5.652,0,0,0,5.646-5.647v-5.789a5.652,5.652,0,0,0-5.646-5.646H4415.5l-4.526-5.733c-.053,1.474-.094,3.141-.073,4.412l.021,1.321Z" transform="translate(-4400.865 -1718.214)" fill="#3d4451"/>
    </g>
  </g>
</svg>
