<svg xmlns="http://www.w3.org/2000/svg" width="248.048" height="186.317" viewBox="0 0 248.048 186.317">
  <g id="Grupo_20273" data-name="Grupo 20273" transform="translate(-5849.948 -1549.301)">
    <g id="Grupo_20263" data-name="Grupo 20263" transform="translate(5940.764 1653.477)">
      <path id="Trazado_51549" data-name="Trazado 51549" d="M6104.977,1820.981l-30.6,16.464-30.6-16.464v-32.927l30.6-16.464,30.6,16.464Z" transform="translate(-6041.547 -1769.059)" fill="#f5fafc"/>
      <path id="Trazado_51550" data-name="Trazado 51550" d="M6105.337,1827.938l-21.928,12.37-21.927-12.37V1803.2l21.927-12.37,21.928,12.37Z" transform="translate(-6050.754 -1779.063)" fill="#fdc345"/>
      <path id="Trazado_51551" data-name="Trazado 51551" d="M6071.962,1837.234l-32.828-17.662V1783.98l32.828-17.662,32.829,17.662v35.591Zm-28.371-20.326,28.371,15.265,28.372-15.265v-30.264l-28.372-15.265-28.371,15.265Z" transform="translate(-6039.134 -1766.318)" fill="#3d4451"/>
      <rect id="Rectángulo_5291" data-name="Rectángulo 5291" width="3.962" height="33.872" transform="translate(30.394 34.621)" fill="#3d4451"/>
      <rect id="Rectángulo_5292" data-name="Rectángulo 5292" width="34.542" height="3.962" transform="matrix(0.892, -0.453, 0.453, 0.892, 31.901, 32.875)" fill="#3d4451"/>
      <rect id="Rectángulo_5293" data-name="Rectángulo 5293" width="3.962" height="34.283" transform="translate(1.39 20.757) rotate(-62.847)" fill="#3d4451"/>
    </g>
    <g id="Grupo_20270" data-name="Grupo 20270" transform="translate(5849.948 1614.265)">
      <g id="Grupo_20264" data-name="Grupo 20264" transform="translate(0 44.594)">
        <path id="Trazado_51552" data-name="Trazado 51552" d="M5918.407,1803.439l7.383,18.855c-22.927,4.139-46.631,28.513-46.631,28.513l1.554-28.513-22.538-9.2s29.145-30.812,54.791-30.812" transform="translate(-5854.226 -1780.002)" fill="#f04f4c"/>
        <path id="Trazado_51553" data-name="Trazado 51553" d="M5872.272,1854.288l1.8-32.967-24.12-9.843,2.291-2.422a146.909,146.909,0,0,1,18.085-15.677c14.324-10.516,27.232-15.848,38.365-15.848v4.565c-6.972,0-18.817,2.6-35.663,14.964a150.117,150.117,0,0,0-15.083,12.751l20.861,8.513-1.329,24.37c7.541-6.881,24.038-20.44,40.931-24.545L5912,1801.8l4.25-1.664,8.4,21.44-2.732.494c-21.928,3.958-45.168,27.619-45.4,27.857Z" transform="translate(-5849.948 -1777.53)" fill="#3d4451"/>
      </g>
      <g id="Grupo_20265" data-name="Grupo 20265" transform="translate(173.346 44.594)">
        <path id="Trazado_51554" data-name="Trazado 51554" d="M6224.979,1803.439l-7.383,18.855c22.927,4.139,46.631,28.513,46.631,28.513l-1.554-28.513,22.538-9.2s-29.145-30.812-54.791-30.812" transform="translate(-6214.458 -1780.002)" fill="#f04f4c"/>
        <path id="Trazado_51555" data-name="Trazado 51555" d="M6263.438,1854.289l-4.247-4.363c-.232-.239-23.473-23.9-45.4-27.857l-2.732-.494,8.4-21.44,4.25,1.664-6.4,16.349c16.893,4.1,33.39,17.663,40.931,24.545l-1.329-24.37,20.86-8.513a150.319,150.319,0,0,0-15.144-12.8c-9.281-6.806-22.992-14.918-35.6-14.918v-4.565c11.133,0,24.041,5.332,38.364,15.848a146.749,146.749,0,0,1,18.085,15.677l2.292,2.422-24.12,9.843Z" transform="translate(-6211.059 -1777.53)" fill="#3d4451"/>
      </g>
      <g id="Grupo_20267" data-name="Grupo 20267" transform="translate(23.379)">
        <g id="Grupo_20266" data-name="Grupo 20266">
          <path id="Trazado_51556" data-name="Trazado 51556" d="M6099.474,1727.415q-9.028,20.357-18.055,40.716c-48.934-36.871-108.024-36.87-156.958,0q-9.029-20.357-18.054-40.716C5966.188,1682,6039.689,1681.993,6099.474,1727.415Z" transform="translate(-5902.684 -1689.165)" fill="#fff"/>
          <path id="Trazado_51557" data-name="Trazado 51557" d="M6078.26,1767.839c-49.253-38.417-109.452-38.417-158.706,0q-10.455-22.752-20.9-45.506c28.92-22.79,63-37.7,100.256-37.7s71.34,14.913,100.257,37.7Q6088.711,1745.086,6078.26,1767.839Zm-156.884-8.484c48.685-35.362,106.376-35.363,155.062,0q7.662-17.909,15.324-35.818c-57.869-42.357-127.839-42.357-185.708,0Q5913.714,1741.446,5921.376,1759.355Z" transform="translate(-5898.651 -1684.632)" fill="#3d4451"/>
        </g>
      </g>
      <g id="Grupo_20269" data-name="Grupo 20269" transform="translate(33.284 12.455)">
        <g id="Grupo_20268" data-name="Grupo 20268">
          <path id="Trazado_51558" data-name="Trazado 51558" d="M6098.871,1741.555c-3.788,7.183-6.826,14.689-10.613,21.871-24.343-13.879-47.5-24.135-75.92-23.325-28.131.8-50.469,10.323-74.551,24.326a165.028,165.028,0,0,0-10.963-21.871c27.683-16.5,52.916-26.9,85.514-27.665C6045.181,1714.124,6071.012,1725.111,6098.871,1741.555Z" transform="translate(-5923.205 -1712.801)" fill="#f04f4c"/>
          <path id="Trazado_51559" data-name="Trazado 51559" d="M6085.35,1764.178c-24.583-14.234-48.076-25.082-76.933-24.247-28.686.829-51.428,10.958-75.93,25.248a163.022,163.022,0,0,0-13.2-25.11c14.241-8.442,28.447-17.513,44.246-22.794,14.249-4.763,29.923-6.314,44.887-6.66,34.423-.795,61,11.27,90.134,28.453C6093.737,1747.251,6090.165,1756,6085.35,1764.178Zm-149.995-4.912c23.616-13.67,45.549-22.554,73.062-23.328,27.888-.784,50.656,8.827,74.665,22.327,2.945-6.193,5.508-12.534,8.452-18.726-26.7-15.679-51.746-25.679-83.117-24.949-31.054.723-55.616,10.192-82.053,25.95A172.9,172.9,0,0,1,5935.355,1759.266Z" transform="translate(-5919.285 -1710.578)" fill="#3d4451"/>
        </g>
      </g>
    </g>
    <g id="Grupo_20272" data-name="Grupo 20272" transform="translate(5915.279 1549.301)">
      <path id="Trazado_51560" data-name="Trazado 51560" d="M6133.586,1585.061l-19.326-.022.021-18.349s.008-7.734.01-9.249a3.211,3.211,0,0,0-1.365-2.427l-11.07-.012c-1.82,0-2.275.907-2.275.907s-10.034,22.888-14.44,30.312-13.354,7.111-13.354,7.111l-.044,39.432,13.043.015,8.484,7.287,35.94.04a9.425,9.425,0,0,0,6.058-2.2l4.318-3.611a9.427,9.427,0,0,0,3.379-7.22l.037-32.58a9.427,9.427,0,0,0-4.557-8.082h0A9.429,9.429,0,0,0,6133.586,1585.061Z" transform="translate(-6030.604 -1552.264)" fill="#f5fafc"/>
      <path id="Trazado_51561" data-name="Trazado 51561" d="M6129.976,1623l-18.2-.021.015-13.43s.006-5.66.008-6.77-1.287-1.777-1.287-1.777l-10.426-.011c-1.715,0-2.143.663-2.143.663s-9.445,16.75-13.594,22.182-12.576,5.2-12.576,5.2l-.033,28.861,12.286.014,7.992,5.335,33.85.038a10.527,10.527,0,0,0,5.7-1.605l4.067-2.642a6.416,6.416,0,0,0,3.181-5.284l.027-23.845c0-2.42-1.627-4.665-4.294-5.917h0A10.871,10.871,0,0,0,6129.976,1623Z" transform="translate(-6030.602 -1576.177)" fill="#fdc345"/>
      <path id="Trazado_51562" data-name="Trazado 51562" d="M6126.254,1639.877h-.015l-36.951-.041-8.484-7.287-14.768-.016.051-45,2.829.1c.295.009,7.408.121,10.905-5.772,4.271-7.2,14.188-29.786,14.288-30.013l.059-.125c.584-1.171,2.131-2.42,4.716-2.42h.008l11.9.013.687.458a5.851,5.851,0,0,1,2.585,4.708l-.028,24.863,16.589.019a12.161,12.161,0,0,1,12.149,12.176l-.037,32.579a12.134,12.134,0,0,1-4.361,9.316l-4.319,3.612A12.178,12.178,0,0,1,6126.254,1639.877Zm-34.937-5.511,34.929.039h.008a6.7,6.7,0,0,0,4.291-1.558l4.319-3.612a6.674,6.674,0,0,0,2.4-5.125l.037-32.579a6.69,6.69,0,0,0-6.684-6.7l-22.061-.025.034-30.024-9.7-.011a.265.265,0,0,0-.088,0c-1.784,4.044-10.227,23.062-14.271,29.878a17.68,17.68,0,0,1-12.975,8.25l-.038,34.164,11.319.012Z" transform="translate(-6027.637 -1549.301)" fill="#3d4451"/>
      <g id="Grupo_20271" data-name="Grupo 20271" transform="translate(0 32.296)">
        <rect id="Rectángulo_5294" data-name="Rectángulo 5294" width="51.862" height="43.351" transform="matrix(0.001, -1, 1, 0.001, 2.739, 54.601)" fill="#7eb9c7"/>
        <path id="Trazado_51563" data-name="Trazado 51563" d="M6034.866,1673.969l-48.823-.056.064-57.334,48.824.055Zm-43.345-5.521,37.879.043.053-46.39-37.88-.043Z" transform="translate(-5986.043 -1616.58)" fill="#3d4451"/>
      </g>
      <rect id="Rectángulo_5295" data-name="Rectángulo 5295" width="36.396" height="12.43" transform="translate(6.352 38.292) rotate(0.065)" fill="#f5fafc"/>
    </g>
  </g>
</svg>
