<svg xmlns="http://www.w3.org/2000/svg" width="538.195" height="186.987" viewBox="0 0 538.195 186.987">
  <g id="Grupo_20136" data-name="Grupo 20136" transform="translate(-364.019 -633.26)">
    <path id="Trazado_51201" data-name="Trazado 51201" d="M575.27,666.337a2.039,2.039,0,0,1,2.041-2.041h0a2.042,2.042,0,0,1,2.044,2.041h0a2.045,2.045,0,0,1-2.044,2.044h0A2.042,2.042,0,0,1,575.27,666.337Zm0-10.214a2.039,2.039,0,0,1,2.041-2.041h0a2.042,2.042,0,0,1,2.044,2.041h0a2.045,2.045,0,0,1-2.044,2.044h0A2.042,2.042,0,0,1,575.27,656.123Zm0-10.214a2.042,2.042,0,0,1,2.041-2.044h0a2.045,2.045,0,0,1,2.044,2.044h0a2.045,2.045,0,0,1-2.044,2.044h0A2.042,2.042,0,0,1,575.27,645.909Zm0-10.214a2.042,2.042,0,0,1,2.041-2.044h0a2.045,2.045,0,0,1,2.044,2.044h0a2.045,2.045,0,0,1-2.044,2.044h0A2.042,2.042,0,0,1,575.27,635.695Zm142.606-.391a2.045,2.045,0,0,1,2.044-2.044h0a2.042,2.042,0,0,1,2.041,2.044h0a2.04,2.04,0,0,1-2.041,2.041h0A2.042,2.042,0,0,1,717.876,635.3Zm-10.214,0a2.045,2.045,0,0,1,2.044-2.044h0a2.042,2.042,0,0,1,2.041,2.044h0a2.039,2.039,0,0,1-2.041,2.041h0A2.042,2.042,0,0,1,707.662,635.3Zm-10.214,0a2.044,2.044,0,0,1,2.041-2.044h0a2.043,2.043,0,0,1,2.044,2.044h0a2.04,2.04,0,0,1-2.044,2.041h0A2.041,2.041,0,0,1,697.448,635.3Zm-10.214,0a2.044,2.044,0,0,1,2.041-2.044h0a2.045,2.045,0,0,1,2.044,2.044h0a2.042,2.042,0,0,1-2.044,2.041h0A2.042,2.042,0,0,1,687.234,635.3Zm-10.214,0a2.042,2.042,0,0,1,2.041-2.044h0A2.045,2.045,0,0,1,681.1,635.3h0a2.042,2.042,0,0,1-2.044,2.041h0A2.04,2.04,0,0,1,677.02,635.3Zm-10.214,0a2.042,2.042,0,0,1,2.041-2.044h0a2.045,2.045,0,0,1,2.044,2.044h0a2.042,2.042,0,0,1-2.044,2.041h0A2.039,2.039,0,0,1,666.806,635.3Zm-10.214,0a2.042,2.042,0,0,1,2.041-2.044h0a2.045,2.045,0,0,1,2.044,2.044h0a2.042,2.042,0,0,1-2.044,2.041h0A2.04,2.04,0,0,1,656.592,635.3Zm-10.214,0a2.042,2.042,0,0,1,2.041-2.044h0a2.045,2.045,0,0,1,2.044,2.044h0a2.042,2.042,0,0,1-2.044,2.041h0A2.04,2.04,0,0,1,646.378,635.3Zm-10.217,0a2.045,2.045,0,0,1,2.044-2.044h0a2.045,2.045,0,0,1,2.044,2.044h0a2.042,2.042,0,0,1-2.044,2.041h0A2.042,2.042,0,0,1,636.161,635.3Zm-10.214,0a2.045,2.045,0,0,1,2.044-2.044h0a2.045,2.045,0,0,1,2.044,2.044h0a2.042,2.042,0,0,1-2.044,2.041h0A2.042,2.042,0,0,1,625.947,635.3Zm-10.214,0a2.045,2.045,0,0,1,2.044-2.044h0a2.045,2.045,0,0,1,2.044,2.044h0a2.042,2.042,0,0,1-2.044,2.041h0A2.042,2.042,0,0,1,615.732,635.3Zm-10.214,0a2.045,2.045,0,0,1,2.044-2.044h0a2.045,2.045,0,0,1,2.044,2.044h0a2.042,2.042,0,0,1-2.044,2.041h0A2.042,2.042,0,0,1,605.518,635.3Zm-10.214,0a2.045,2.045,0,0,1,2.044-2.044h0a2.042,2.042,0,0,1,2.041,2.044h0a2.04,2.04,0,0,1-2.041,2.041h0A2.042,2.042,0,0,1,595.3,635.3Zm-10.214,0a2.045,2.045,0,0,1,2.044-2.044h0a2.042,2.042,0,0,1,2.041,2.044h0a2.04,2.04,0,0,1-2.041,2.041h0A2.042,2.042,0,0,1,585.09,635.3Z" transform="translate(-145.225)" fill="#072c6e"/>
    <path id="Trazado_51202" data-name="Trazado 51202" d="M1546.779,665.787a2.045,2.045,0,0,1,2.044-2.044h0a2.045,2.045,0,0,1,2.044,2.044h0a2.044,2.044,0,0,1-2.044,2.041h0A2.044,2.044,0,0,1,1546.779,665.787Zm0-10.214a2.045,2.045,0,0,1,2.044-2.044h0a2.045,2.045,0,0,1,2.044,2.044h0a2.044,2.044,0,0,1-2.044,2.041h0A2.044,2.044,0,0,1,1546.779,655.573Zm0-10.214a2.045,2.045,0,0,1,2.044-2.044h0a2.045,2.045,0,0,1,2.044,2.044h0a2.044,2.044,0,0,1-2.044,2.041h0A2.044,2.044,0,0,1,1546.779,645.359Zm-.16-10.055a2.045,2.045,0,0,1,2.044-2.044h0a2.042,2.042,0,0,1,2.041,2.044h0a2.04,2.04,0,0,1-2.041,2.041h0A2.042,2.042,0,0,1,1546.62,635.3Zm-10.214,0a2.045,2.045,0,0,1,2.044-2.044h0a2.044,2.044,0,0,1,2.041,2.044h0a2.042,2.042,0,0,1-2.041,2.041h0A2.042,2.042,0,0,1,1536.406,635.3Zm-10.214,0a2.043,2.043,0,0,1,2.044-2.044h0a2.044,2.044,0,0,1,2.041,2.044h0a2.041,2.041,0,0,1-2.041,2.041h0A2.04,2.04,0,0,1,1526.192,635.3Zm-10.214,0a2.042,2.042,0,0,1,2.041-2.044h0a2.045,2.045,0,0,1,2.044,2.044h0a2.042,2.042,0,0,1-2.044,2.041h0A2.04,2.04,0,0,1,1515.978,635.3Zm-10.214,0a2.042,2.042,0,0,1,2.041-2.044h0a2.045,2.045,0,0,1,2.044,2.044h0a2.042,2.042,0,0,1-2.044,2.041h0A2.039,2.039,0,0,1,1505.764,635.3Zm-10.214,0a2.042,2.042,0,0,1,2.041-2.044h0a2.045,2.045,0,0,1,2.044,2.044h0a2.042,2.042,0,0,1-2.044,2.041h0A2.04,2.04,0,0,1,1495.55,635.3Zm-10.217,0a2.045,2.045,0,0,1,2.044-2.044h0a2.045,2.045,0,0,1,2.044,2.044h0a2.042,2.042,0,0,1-2.044,2.041h0A2.042,2.042,0,0,1,1485.333,635.3Zm-10.214,0a2.045,2.045,0,0,1,2.044-2.044h0a2.045,2.045,0,0,1,2.044,2.044h0a2.042,2.042,0,0,1-2.044,2.041h0A2.042,2.042,0,0,1,1475.118,635.3Zm-10.214,0a2.045,2.045,0,0,1,2.044-2.044h0a2.045,2.045,0,0,1,2.044,2.044h0a2.042,2.042,0,0,1-2.044,2.041h0A2.042,2.042,0,0,1,1464.9,635.3Zm-10.214,0a2.045,2.045,0,0,1,2.044-2.044h0a2.045,2.045,0,0,1,2.044,2.044h0a2.042,2.042,0,0,1-2.044,2.041h0A2.042,2.042,0,0,1,1454.69,635.3Zm-10.214,0a2.045,2.045,0,0,1,2.044-2.044h0a2.045,2.045,0,0,1,2.044,2.044h0a2.042,2.042,0,0,1-2.044,2.041h0A2.042,2.042,0,0,1,1444.476,635.3Zm-10.214,0a2.045,2.045,0,0,1,2.044-2.044h0a2.042,2.042,0,0,1,2.041,2.044h0a2.039,2.039,0,0,1-2.041,2.041h0A2.042,2.042,0,0,1,1434.262,635.3Zm-10.214,0a2.045,2.045,0,0,1,2.044-2.044h0a2.042,2.042,0,0,1,2.041,2.044h0a2.04,2.04,0,0,1-2.041,2.041h0A2.042,2.042,0,0,1,1424.048,635.3Zm-10.214,0a2.045,2.045,0,0,1,2.044-2.044h0a2.044,2.044,0,0,1,2.041,2.044h0a2.042,2.042,0,0,1-2.041,2.041h0A2.042,2.042,0,0,1,1413.834,635.3Zm-10.214,0a2.045,2.045,0,0,1,2.044-2.044h0a2.042,2.042,0,0,1,2.041,2.044h0a2.039,2.039,0,0,1-2.041,2.041h0A2.042,2.042,0,0,1,1403.62,635.3Z" transform="translate(-714.676)" fill="#072c6e"/>
    <g id="Grupo_20090" data-name="Grupo 20090" transform="translate(766.08 683.044)">
      <g id="Grupo_20089" data-name="Grupo 20089">
        <g id="Grupo_20088" data-name="Grupo 20088">
          <g id="Grupo_20087" data-name="Grupo 20087">
            <g id="Grupo_20086" data-name="Grupo 20086">
              <circle id="Elipse_1136" data-name="Elipse 1136" cx="68.067" cy="68.067" r="68.067" fill="#a8e4ed"/>
            </g>
          </g>
        </g>
      </g>
    </g>
    <g id="Grupo_20094" data-name="Grupo 20094" transform="translate(540.643 635.303)">
      <g id="Grupo_20093" data-name="Grupo 20093" transform="translate(0 0)">
        <g id="Grupo_20092" data-name="Grupo 20092">
          <g id="Grupo_20091" data-name="Grupo 20091">
            <circle id="Elipse_1137" data-name="Elipse 1137" cx="91.929" cy="91.929" r="91.929" fill="#a8e4ed"/>
          </g>
        </g>
      </g>
    </g>
    <g id="Grupo_20098" data-name="Grupo 20098" transform="translate(364.019 683.026)">
      <g id="Grupo_20097" data-name="Grupo 20097" transform="translate(0)">
        <g id="Grupo_20096" data-name="Grupo 20096">
          <g id="Grupo_20095" data-name="Grupo 20095">
            <circle id="Elipse_1138" data-name="Elipse 1138" cx="68.067" cy="68.067" r="68.067" fill="#a8e4ed"/>
          </g>
        </g>
      </g>
    </g>
    <g id="Grupo_20115" data-name="Grupo 20115" transform="translate(575.363 634.24)">
      <g id="Grupo_20099" data-name="Grupo 20099" transform="translate(0 25.055)">
        <path id="Trazado_51203" data-name="Trazado 51203" d="M1045.182,850.619V721.526H1156.5V850.1Z" transform="translate(-1043.63 -719.974)" fill="#fff"/>
        <path id="Trazado_51204" data-name="Trazado 51204" d="M1043.308,847.206V723.353c0-1.67.058-3.352,0-5.021,0-.073,0-.147,0-.22l-1.539,1.539h106.8c1.439,0,2.891.057,4.33,0,.062,0,.126,0,.188,0l-1.539-1.539V841.479c0,1.66-.054,3.33,0,4.99,0,.071,0,.143,0,.214l1.539-1.539-2.984.014-8.118.038-11.952.056-14.637.069-15.968.075-16.182.076-15.031.071-12.756.06-9.17.043c-1.442.007-2.888-.013-4.33.02-.063,0-.126,0-.188,0a1.54,1.54,0,0,0,0,3.078l2.984-.014,8.118-.038,11.952-.056,14.637-.069,15.968-.075,16.182-.076,15.031-.071,12.756-.06,9.17-.043c1.442-.007,2.888.013,4.33-.02.063,0,.125,0,.188,0a1.562,1.562,0,0,0,1.539-1.539V723.317c0-1.662.026-3.327,0-4.99,0-.071,0-.143,0-.214a1.561,1.561,0,0,0-1.539-1.539h-106.8c-1.442,0-2.888-.028-4.33,0-.063,0-.126,0-.188,0a1.562,1.562,0,0,0-1.539,1.539V841.966c0,1.673-.028,3.348,0,5.021,0,.073,0,.147,0,.22A1.54,1.54,0,0,0,1043.308,847.206Z" transform="translate(-1040.217 -716.561)" fill="#072c6e"/>
      </g>
      <g id="Grupo_20100" data-name="Grupo 20100" transform="translate(15.032 74.755)">
        <path id="Trazado_51205" data-name="Trazado 51205" d="M1089.852,878.661h68.468c.923,0,1.847.014,2.77,0h.119a1.539,1.539,0,0,0,0-3.078h-68.468c-.923,0-1.848-.014-2.77,0h-.119a1.539,1.539,0,1,0,0,3.078Z" transform="translate(-1088.312 -875.576)" fill="#072c6e"/>
        <path id="Trazado_51206" data-name="Trazado 51206" d="M1162.911,911.089h42.566c1.957,0,3.92.046,5.877,0h.08a1.539,1.539,0,0,0,0-3.078h-42.566c-1.957,0-3.92-.046-5.877,0h-.08a1.539,1.539,0,0,0,0,3.078Z" transform="translate(-1138.536 -897.86)" fill="#072c6e"/>
        <path id="Trazado_51207" data-name="Trazado 51207" d="M1089.852,911.134H1102.7a1.539,1.539,0,0,0,0-3.078h-12.844a1.539,1.539,0,1,0,0,3.078Z" transform="translate(-1088.312 -897.905)" fill="#072c6e"/>
        <path id="Trazado_51208" data-name="Trazado 51208" d="M1295.329,944.09h17.126a1.539,1.539,0,0,0,0-3.078h-17.126a1.539,1.539,0,1,0,0,3.078Z" transform="translate(-1229.568 -920.56)" fill="#072c6e"/>
        <path id="Trazado_51209" data-name="Trazado 51209" d="M1089.852,944.046h46.064c2.121,0,4.247.045,6.367,0h.088a1.539,1.539,0,0,0,0-3.078h-46.064c-2.121,0-4.247-.045-6.367,0h-.088a1.539,1.539,0,1,0,0,3.078Z" transform="translate(-1088.312 -920.516)" fill="#072c6e"/>
      </g>
      <g id="Grupo_20110" data-name="Grupo 20110" transform="translate(9.165 106.902)">
        <g id="Grupo_20101" data-name="Grupo 20101" transform="translate(48.233 6.785)">
          <path id="Trazado_51210" data-name="Trazado 51210" d="M1251.517,1050.031l3.938-3.014c3.878-2.819,7.112-7.869,8.991-13.1l1.25-2.64-21.35-26.22-15.6,18.38" transform="translate(-1227.222 -1003.521)" fill="#fff"/>
          <path id="Trazado_51211" data-name="Trazado 51211" d="M1248.934,1047.978l2.367-1.811c1-.762,2.032-1.5,2.981-2.315a30.328,30.328,0,0,0,8.033-12.217c.056-.145.114-.291.165-.438.132-.385-.09.167-.054.1s.068-.143.1-.215l.431-.911.707-1.493a1.627,1.627,0,0,0-.241-1.865l-2.127-2.612-5.106-6.271-6.15-7.553-5.339-6.557c-.86-1.056-1.682-2.166-2.59-3.181-.013-.015-.026-.031-.038-.047a1.544,1.544,0,0,0-2.177,0l-5.287,6.231-8.372,9.867-1.937,2.283a1.539,1.539,0,0,0,2.177,2.177l5.287-6.231,8.372-9.867,1.938-2.283H1239.9l2.127,2.612,5.106,6.271,6.15,7.553,5.339,6.556c.861,1.058,1.69,2.157,2.59,3.181.013.015.025.031.038.047l-.241-1.865c-.413.873-.841,1.739-1.24,2.619-.233.514-.407,1.054-.617,1.577-.05.125-.1.249-.152.373-.066.165.016-.036.025-.058-.035.083-.071.165-.106.247q-.187.432-.387.859a33.883,33.883,0,0,1-1.667,3.137q-.46.764-.962,1.5-.239.35-.488.693-.134.183-.269.364l-.117.154c-.138.184.149-.185,0-.007a25.846,25.846,0,0,1-2.259,2.492c-.389.369-.794.718-1.211,1.054-.23.185.18-.131-.057.043l-.189.14-.084.064c-.368.28-.734.562-1.1.843l-2.75,2.1a1.694,1.694,0,0,0-.707.92,1.574,1.574,0,0,0,.155,1.186,1.555,1.555,0,0,0,2.106.552Z" transform="translate(-1223.863 -1000.14)" fill="#072c6e"/>
        </g>
        <g id="Grupo_20102" data-name="Grupo 20102" transform="translate(10.168 12.394)">
          <path id="Trazado_51212" data-name="Trazado 51212" d="M1132.687,1082.347l1.75,2.289a5,5,0,0,0,7.015.936h0a5,5,0,0,0,.934-7.014l-3-3.916.9,1.176,6.657,8.7a5,5,0,0,0,7.014.933l0,0a5,5,0,0,0,.933-7.013l-11.7-15.289,1.52,1.987,11.24,14.763a5,5,0,0,0,7.013.933h0a5,5,0,0,0,.933-7.013l-12.76-16.75,1.521,1.987,9.173,11.99a5,5,0,0,0,7.013.934l0,0a5,5,0,0,0,.935-7.012l-2.01-2.63-14.364-18.793-13.442-16.083a32.78,32.78,0,0,0-8.018-4.5l-25.013,19.467a26.366,26.366,0,0,0,2.433,8.17" transform="translate(-1105.422 -1021.433)" fill="#fff"/>
          <path id="Trazado_51213" data-name="Trazado 51213" d="M1128.008,1079.776c.746.976,1.446,2.034,2.275,2.942a6.556,6.556,0,0,0,6.947,1.7,6.645,6.645,0,0,0,4.372-6.026,6.482,6.482,0,0,0-.984-3.6c-.245-.387-.545-.745-.823-1.108l-2.426-3.171a1.694,1.694,0,0,0-.92-.707,1.573,1.573,0,0,0-1.186.155,1.555,1.555,0,0,0-.552,2.106l5,6.539q1.235,1.614,2.47,3.228a6.9,6.9,0,0,0,2.411,2.117,6.532,6.532,0,0,0,9.418-6.923,7.546,7.546,0,0,0-1.732-3.5l-6.011-7.857q-2.5-3.272-5.007-6.544l-.085-.111a1.691,1.691,0,0,0-.92-.707,1.572,1.572,0,0,0-1.186.155,1.554,1.554,0,0,0-.552,2.105q2.7,3.534,5.4,7.077l7.195,9.45a7.415,7.415,0,0,0,2.264,2.109,6.66,6.66,0,0,0,5.992.21,6.578,6.578,0,0,0,2.52-9.733c-1.939-2.59-3.922-5.149-5.883-7.723l-6.757-8.87-.119-.156-2.658,1.553,2.444,3.195,4.513,5.9,3.6,4.7c.226.3.445.6.7.871a6.542,6.542,0,0,0,11.16-5.763,8.555,8.555,0,0,0-2-3.725l-2.075-2.715-3.9-5.1-4.928-6.447-3.776-4.941c-.463-.606-.921-1.215-1.41-1.8l-3.629-4.342-5.156-6.17-3.809-4.557c-.131-.157-.26-.317-.394-.472a5.723,5.723,0,0,0-1.028-.811,33.969,33.969,0,0,0-6.7-3.771c-.286-.121-.574-.238-.865-.349a1.647,1.647,0,0,0-1.7.32l-.041.032-.283.22-1.279,1-4.717,3.671-6.277,4.886-6.255,4.868-4.635,3.607-1.237.963c-.085.066-.179.128-.259.2a1.484,1.484,0,0,0-.347.518,2.922,2.922,0,0,0,0,1.583q.066.468.153.934a29.182,29.182,0,0,0,2.361,7.023,1.546,1.546,0,0,0,2.106.552,1.582,1.582,0,0,0,.552-2.106q-.224-.479-.435-.963c-.178-.409.114.287-.054-.129-.068-.168-.137-.337-.2-.506q-.367-.941-.668-1.906-.307-.99-.533-2-.11-.495-.2-.995c-.033-.191-.062-.383-.093-.575s-.027-.193,0-.025q-.018-.145-.035-.291l-.451,1.088,2.492-1.939,5.983-4.656,7.2-5.607,6.255-4.868c1.009-.785,2.052-1.542,3.034-2.361l.045-.035-1.5.4q.3.114.6.233l.266.109c.255.105-.324-.148.1.042.394.178.787.356,1.175.547.769.379,1.522.79,2.259,1.229q1.068.634,2.089,1.344.433.3.858.614c.037.027.387.275.1.072-1.529-1.092-.11-.1-.1-.08,0,.005.01.01.012.015a3.2,3.2,0,0,0,.413.494l.92,1.1,6.371,7.623,5.37,6.426a3.262,3.262,0,0,0,.351.42s-.351-.457-.19-.245l.167.218,1.709,2.237,6.178,8.083,5.465,7.15.845,1.106,1.411,1.847c.174.227.348.453.521.681.1.131.195.263.283.4s.168.28.242.426c.032.064.061.13.093.194q.071.158-.052-.121c.019.049.038.1.055.15.1.28.118.594.219.867-.1-.269-.026-.236-.015-.1.005.069.012.138.015.208a4.948,4.948,0,0,1,0,.519c0,.085-.022.174-.02.259.006.206.072-.3.014-.1-.043.148-.058.307-.1.457q-.053.2-.122.4a.849.849,0,0,1-.073.2q.134-.31.029-.08l-.046.094q-.106.212-.232.413c-.038.06-.076.119-.117.177-.084.122-.082.262.018-.012-.094.257-.485.521-.685.7-.237.208.107-.082.134-.1-.062.039-.12.089-.18.132q-.2.141-.419.262a1.654,1.654,0,0,1-.435.217c.028,0,.339-.121.07-.036-.1.032-.2.069-.3.1q-.2.059-.408.1a2.054,2.054,0,0,1-.206.038c0-.007.346-.03.1-.016-.333.02-.654,0-.986,0-.224,0,.388.079.049.005-.068-.015-.136-.025-.2-.04q-.2-.044-.4-.105-.1-.031-.2-.065c-.031-.011-.339-.149-.108-.037.2.1,0-.006-.054-.03-.095-.046-.187-.1-.279-.147-.139-.079-.268-.169-.4-.255-.117-.075-.163-.032.056.048a.887.887,0,0,1-.165-.138q-.163-.143-.313-.3c-.063-.066-.125-.134-.184-.2-.2-.235-.023-.021.065.1l-.113-.147-5.276-6.9-4.085-5.34-1.219-1.593a1.691,1.691,0,0,0-.92-.708,1.573,1.573,0,0,0-1.186.155,1.554,1.554,0,0,0-.552,2.106l5.555,7.292,6.936,9.1.239.314.03.04a5.531,5.531,0,0,1,.312.457c.057.093.11.188.16.285.033.064.065.128.1.193q.1.231-.029-.072a2.32,2.32,0,0,0,.165.5c.027.1.052.2.073.307l.02.1q.041.255-.009-.1a2.227,2.227,0,0,1,.033.52q0,.156-.006.312-.005.1-.015.207-.028.257.017-.1a4.052,4.052,0,0,1-.3,1.1l.073-.175q-.043.1-.09.189t-.1.186q-.077.138-.162.272-.057.089-.119.176-.147.2.048-.056a1.583,1.583,0,0,1-.361.4c-.078.078-.158.153-.241.225-.132.116-.395.22.052-.028-.174.1-.331.237-.5.339-.078.046-.157.09-.238.132-.064.033-.128.065-.193.1q-.232.1.072-.029c-.078.1-.434.147-.555.178-.085.022-.17.042-.256.059l-.1.02q-.255.041.1-.009c-.022.056-.555.034-.624.034s-.139,0-.208-.006-.138-.008-.207-.015q-.257-.028.1.017a4,4,0,0,1-1.1-.3l.175.073q-.1-.043-.189-.09-.141-.071-.278-.15c-.076-.044-.151-.091-.224-.139-.045-.029-.089-.058-.132-.089q-.2-.147.056.048a1.862,1.862,0,0,1-.478-.439c-.106-.112-.5-.613-.119-.109l-.043-.057q-3.239-4.27-6.494-8.529-2.765-3.631-5.533-7.261l-.69-.9-2.658,1.554,4.026,5.263,6.33,8.274c.444.58.894,1.157,1.333,1.742.08.107.158.215.232.328.089.138.172.279.247.425.033.064.063.129.1.193.159.325-.1-.315.008.028.092.288.164.57.229.865.049.222-.026-.4-.006-.047,0,.069.012.139.016.208a4.919,4.919,0,0,1,0,.52c0,.069-.011.138-.015.207-.016.347.062-.267.009-.049-.037.151-.058.306-.1.457-.035.134-.076.267-.122.4a.875.875,0,0,1-.073.2q.133-.31.029-.08l-.046.094a5.039,5.039,0,0,1-.261.458c-.038.059-.079.117-.118.176-.094.141-.108.03.048-.056-.112.062-.234.272-.323.363-.129.132-.268.249-.406.371-.2.174.414-.289.089-.068-.061.042-.12.086-.182.127q-.182.121-.375.227-.119.065-.241.123c-.056.027-.27.093-.061.031.245-.073-.088.027-.115.036q-.15.051-.3.092c-.136.037-.273.064-.41.093-.3.063.1-.016.1-.009a1.229,1.229,0,0,1-.26.023q-.234.015-.468.008c-.069,0-.138-.006-.208-.01-.052,0-.1-.008-.155-.014-.119-.013-.069-.005.152.022a4.287,4.287,0,0,1-.906-.228,1.225,1.225,0,0,0-.2-.073c.04,0,.322.152.08.029-.157-.079-.313-.158-.462-.25q-.09-.055-.178-.114c-.02-.014-.305-.219-.1-.068s-.075-.067-.093-.083c-.054-.047-.108-.1-.159-.146q-.158-.152-.3-.317c-.037-.043-.267-.336-.057-.058.145.191.11.144.081.1-.651-.858-1.309-1.711-1.963-2.566l-4.978-6.507-.61-.8-2.658,1.554,1.9,2.478.989,1.293c.1.137.209.273.305.417a5,5,0,0,1,.349.616c.167.349-.054-.183.031.076.044.134.091.267.128.4q.048.178.083.359a.761.761,0,0,0,.027.155s-.032-.323-.021-.15a6.622,6.622,0,0,1,.022.78c0,.072.01.454-.011.209-.019-.215-.014.066-.032.153a6.351,6.351,0,0,1-.217.749c-.088.259.137-.281-.032.064q-.069.142-.147.279-.091.161-.194.315c-.03.044-.063.086-.092.131-.1.156.2-.228.011-.016a6.145,6.145,0,0,1-.493.507c-.055.049-.113.095-.168.144-.131.116.085-.075.091-.07-.01-.008-.34.228-.368.245q-.14.085-.285.16c-.055.029-.418.165-.207.1s-.158.051-.216.069q-.2.063-.407.11a2.078,2.078,0,0,0-.309.059c.25-.1.244-.026.1-.015l-.156.012a6.561,6.561,0,0,1-.779-.01c-.292-.016.284.061,0,0-.119-.025-.238-.047-.355-.076s-.235-.063-.35-.1l-.148-.052c-.236-.086-.063-.074.029.018a3.66,3.66,0,0,0-.6-.323c-.086-.054-.258-.124-.307-.209,0,0,.231.194.1.076-.067-.06-.137-.116-.2-.177q-.16-.148-.308-.309c-.057-.062-.329-.4-.131-.142.183.241.02.026-.023-.03l-.58-.758-1.061-1.389a1.692,1.692,0,0,0-.92-.707,1.573,1.573,0,0,0-1.186.155,1.554,1.554,0,0,0-.552,2.106Z" transform="translate(-1102.072 -1018.086)" fill="#072c6e"/>
        </g>
        <g id="Grupo_20103" data-name="Grupo 20103" transform="translate(0 1.368)">
          <path id="Trazado_51214" data-name="Trazado 51214" d="M1104.256,987.784l7.021,9.177-29.242,22.373-7.488-9.787Z" transform="translate(-1072.982 -986.228)" fill="#1cbfff"/>
          <path id="Trazado_51215" data-name="Trazado 51215" d="M1099.485,985.139l6.146,8.033.875,1.144.552-2.106-2.907,2.224-6.982,5.342-8.448,6.464-7.3,5.588c-1.179.9-2.412,1.762-3.55,2.716-.016.013-.033.026-.05.038l2.106.552-6.565-8.58-.923-1.207-.552,2.106,2.954-2.163,7.094-5.2,8.583-6.287,7.421-5.436c1.2-.88,2.409-1.755,3.607-2.642l.051-.037a1.577,1.577,0,0,0,.552-2.106,1.556,1.556,0,0,0-2.106-.552l-2.954,2.163-7.094,5.2-8.583,6.287-7.421,5.436c-1.2.88-2.409,1.755-3.607,2.642l-.051.037a1.557,1.557,0,0,0-.552,2.106l6.565,8.58.923,1.207a1.649,1.649,0,0,0,.92.707,1.486,1.486,0,0,0,1.186-.155l2.908-2.224,6.982-5.342,8.448-6.463,7.3-5.588q1.775-1.358,3.551-2.716l.05-.038a1.649,1.649,0,0,0,.707-.92,1.488,1.488,0,0,0-.155-1.186l-6.146-8.033-.875-1.144a1.7,1.7,0,0,0-.92-.707,1.574,1.574,0,0,0-1.186.155A1.555,1.555,0,0,0,1099.485,985.139Z" transform="translate(-1069.54 -982.807)" fill="#072c6e"/>
        </g>
        <g id="Grupo_20104" data-name="Grupo 20104" transform="translate(7.616 35.066)">
          <path id="Rectángulo_5237" data-name="Rectángulo 5237" d="M4.89,0h0A4.89,4.89,0,0,1,9.78,4.89v9.091a4.89,4.89,0,0,1-4.89,4.89h0A4.89,4.89,0,0,1,0,13.98V4.89A4.89,4.89,0,0,1,4.89,0Z" transform="matrix(0.608, 0.794, -0.794, 0.608, 14.988, 0)" fill="#fff"/>
          <path id="Trazado_51216" data-name="Trazado 51216" d="M1099.122,1106.124a6.472,6.472,0,0,1-.7-1.065c-.17-.347.076.237-.052-.123q-.062-.174-.111-.352c-.036-.135-.064-.272-.091-.409-.02-.1.027-.153,0,0-.044.221,0-.026,0-.106-.017-.261.01-.516.014-.776,0-.208-.073.3-.014.1.014-.048.018-.1.028-.153.03-.152.069-.3.114-.452.013-.041.071-.322.119-.343-.046.021-.132.282-.032.081.031-.062.061-.126.093-.187q.1-.186.212-.363c.029-.044.058-.088.089-.132.161-.232.073-.007-.016.014.064-.016.238-.269.289-.32q.134-.136.28-.261c.334-.288-.169.121-.068.044l.274-.21,1.235-.945c1.98-1.515,3.949-3.048,5.942-4.546.079-.06.159-.118.242-.174q.158-.107.325-.2c.063-.035.126-.069.191-.1.045-.023.331-.153.108-.057-.2.087.143-.048.214-.071q.2-.064.406-.11c.068-.015.137-.027.205-.041.1-.02.153.027,0,0-.2-.04-.033,0,.054,0s.172-.011.259-.013c.121,0,.242,0,.363.007.068,0,.138.015.206.016.208,0-.3-.073-.1-.014.264.079.537.123.8.207.334.107-.177-.1.066.023.125.063.25.124.371.195s.21.129.311.2c.048.034.216.184.057.038-.179-.165.077.073.091.085.094.085.184.173.271.265.046.049.373.45.173.186l.036.048c.061.081.123.16.182.243a5.582,5.582,0,0,1,.414.7c.125.246-.1-.287.029.075q.08.224.137.454c.029.119.048.239.073.359.043.2,0-.308-.014-.1a1.521,1.521,0,0,0,.013.155c.009.138.012.276.009.414,0,.069-.005.138-.009.207l-.008.1q-.023.205,0,0c-.042-.1.025-.131,0,0-.014.068-.026.136-.041.2q-.045.2-.108.4c-.018.057-.139.438-.067.206.066-.212,0,0-.028.054-.038.078-.078.156-.12.232q-.09.161-.192.315c-.039.059-.082.116-.121.174-.094.139.07-.1.078-.1-.076.019-.23.261-.288.32-.116.118-.243.221-.365.332-.177.162.3-.227.148-.112l-.112.086-1.05.8-3.592,2.748q-1.3,1-2.609,2c-.122.093-.244.186-.372.271s-.246.154-.374.223c-.065.035-.405.193-.2.106s-.212.07-.264.086q-.2.062-.407.105c-.068.014-.137.024-.205.038-.205.042.307,0,.1-.014-.119-.005-.244.019-.363.022-.138,0-.276,0-.414-.01a1.536,1.536,0,0,0-.155-.013c-.189.007.33.067.05.006-.255-.056-.5-.12-.75-.2-.363-.115.177.1-.066-.022-.141-.07-.281-.141-.416-.222s-.235-.155-.352-.234c-.14-.094.1.07.1.078a1.188,1.188,0,0,0-.163-.14,5.051,5.051,0,0,1-.593-.643,1.542,1.542,0,0,0-2.177,0,1.587,1.587,0,0,0,0,2.177,6.3,6.3,0,0,0,7.688,1.61,16.72,16.72,0,0,0,2.588-1.865l3.925-3,1.415-1.083a9.345,9.345,0,0,0,1.311-1.107,6.3,6.3,0,0,0,.511-7.839,6.956,6.956,0,0,0-2.906-2.436,6.245,6.245,0,0,0-4.157-.251,10.067,10.067,0,0,0-3.236,1.957l-3.916,3q-1.121.857-2.242,1.716a6.382,6.382,0,0,0-2.433,3.586,6.457,6.457,0,0,0,.465,4.246,6.25,6.25,0,0,0,.746,1.161,1.693,1.693,0,0,0,.92.708,1.573,1.573,0,0,0,1.186-.155A1.555,1.555,0,0,0,1099.122,1106.124Z" transform="translate(-1094.716 -1091.413)" fill="#072c6e"/>
        </g>
        <g id="Grupo_20105" data-name="Grupo 20105" transform="translate(13.635 40.449)">
          <path id="Rectángulo_5238" data-name="Rectángulo 5238" d="M4.89,0h0A4.89,4.89,0,0,1,9.78,4.89V18.444a4.89,4.89,0,0,1-4.89,4.89h0A4.89,4.89,0,0,1,0,18.445V4.89A4.89,4.89,0,0,1,4.89,0Z" transform="translate(18.532) rotate(52.579)" fill="#fff"/>
          <path id="Trazado_51217" data-name="Trazado 51217" d="M1118.35,1126.063c-.138-.18-.279-.357-.4-.547a4.654,4.654,0,0,1-.248-.422c-.03-.058-.12-.178-.118-.242l.072.171c-.026-.066-.051-.132-.074-.2a4.7,4.7,0,0,1-.143-.506c-.015-.068-.027-.137-.041-.2-.061-.3.02.1.011.1a3.1,3.1,0,0,1-.028-.518c0-.086,0-.172.008-.259,0-.052.006-.1.011-.155q.023-.205,0,0l-.014.1q.016-.1.036-.2t.045-.2c.042-.169.1-.331.151-.5.09-.28-.039.07-.038.078-.007-.061.108-.228.136-.282a4.741,4.741,0,0,1,.271-.451c.019-.027.235-.282.068-.1s.069-.073.086-.091a4.8,4.8,0,0,1,.386-.382c.105-.093.4-.319-.053.028l.027-.021q1.336-1.019,2.669-2.042l8.1-6.2c.078-.06.156-.12.234-.179a5.2,5.2,0,0,1,.51-.342c.1-.059.311-.225.431-.222-.237-.006-.2.081-.022.016.116-.041.233-.078.352-.111.152-.041.306-.068.46-.1.222-.046-.4.022-.048.009.069,0,.138-.011.207-.013a4.791,4.791,0,0,1,.518.006c-.017,0,.206.015.206.019q-.357-.052-.1-.011l.1.019a4.8,4.8,0,0,1,.5.13c.08.025.163.068.245.086.208.043-.332-.17-.032-.013.14.073.28.141.416.222.076.045.15.092.223.141.044.03.087.06.13.092q.137.1-.1-.078c.041.111.315.281.4.366s.4.48.211.225.033.044.077.1c.092.121.182.243.264.372a4.671,4.671,0,0,1,.244.424l.047.1q.105.231-.027-.074a.863.863,0,0,1,.074.2,4.731,4.731,0,0,1,.143.506c.015.068.027.137.041.2.067.332-.014-.308,0,0,.007.173.02.344.016.518,0,.069,0,.138-.009.207-.026.379,0,0,.009,0a4.345,4.345,0,0,1-.27,1c.052-.028.133-.276.032-.08-.04.077-.077.156-.118.233a4.661,4.661,0,0,1-.246.405l-.061.087q-.148.2.047-.057c-.007.034-.127.148-.14.163a4.726,4.726,0,0,1-.428.418c-.336.289.216-.156.068-.043l-.115.088-.464.354-1.618,1.238-4.648,3.556-3.7,2.834a8.922,8.922,0,0,1-1.015.719c-.094.053-.192.1-.287.149-.152.081-.045.1.074-.027a1.528,1.528,0,0,1-.5.166c-.152.041-.306.068-.46.1-.222.046.4-.023.048-.009-.1,0-.207.014-.311.017-.173,0-.344-.01-.517-.018-.248-.011.109-.013.1.017,0,.006-.229-.042-.254-.047q-.228-.048-.451-.119c-.08-.025-.163-.068-.245-.086q-.162-.062.127.057c-.064-.028-.127-.058-.189-.089q-.188-.094-.367-.2c-.09-.055-.176-.117-.264-.175-.145-.1-.1.01.058.047-.113-.027-.318-.284-.4-.366a5.3,5.3,0,0,1-.359-.417,1.542,1.542,0,0,0-2.177,0,1.586,1.586,0,0,0,0,2.177,6.267,6.267,0,0,0,8.506,1.1c.987-.744,1.963-1.5,2.944-2.253q4.013-3.07,8.026-6.141a6.484,6.484,0,0,0,2.436-3.466,6.266,6.266,0,0,0-.8-5.058,6.764,6.764,0,0,0-3.808-2.9,6.266,6.266,0,0,0-5.058.8c-.909.616-1.759,1.336-2.631,2l-4.944,3.783-3.505,2.682a6.931,6.931,0,0,0-2.046,2.242,6.268,6.268,0,0,0-.387,5.069,7.1,7.1,0,0,0,1.026,1.824,1.693,1.693,0,0,0,.92.707,1.571,1.571,0,0,0,1.186-.155A1.554,1.554,0,0,0,1118.35,1126.063Z" transform="translate(-1113.944 -1108.639)" fill="#072c6e"/>
        </g>
        <g id="Grupo_20106" data-name="Grupo 20106" transform="translate(29.529 7.967)">
          <path id="Trazado_51218" data-name="Trazado 51218" d="M1205.987,1033.473c-12.419,3-21.678-4.542-21.678-4.542l-7.4,5.662a4.955,4.955,0,0,1-6.946-.924h0a4.955,4.955,0,0,1,.924-6.946l16.358-12.515c3.794-3.162,9.731-5.008,15.383-5.354" transform="translate(-1167.404 -1007.312)" fill="#fff"/>
          <path id="Trazado_51219" data-name="Trazado 51219" d="M1202.193,1028.6c-.589.14-1.182.263-1.78.363l-.389.062c-.115.017-.488.063-.17.025-.3.035-.592.07-.89.1a24.987,24.987,0,0,1-3.233.083q-.781-.031-1.558-.109l-.338-.037c-.049-.006-.479-.054-.24-.028s-.122-.017-.18-.026q-.217-.032-.434-.068a26.687,26.687,0,0,1-2.715-.6q-1.246-.342-2.457-.8-.272-.1-.541-.211l-.243-.1c-.332-.135.288.126-.027-.011-.337-.146-.673-.3-1-.455a26.745,26.745,0,0,1-3.008-1.671c-.318-.206-.633-.419-.939-.643-.083-.061-.417-.316-.1-.071.275.212.131.1.065.049a1.576,1.576,0,0,0-1.865-.241l-7.253,5.549a6.73,6.73,0,0,1-.606.425c-.088.053-.377.265-.481.255.125.012.252-.093.071-.03-.1.035-.2.073-.3.1a4.968,4.968,0,0,1-.513.13,2,2,0,0,0-.207.036c.389-.123.082-.014-.06-.007-.156.009-.313.011-.47,0-.1,0-.208-.014-.312-.022-.305-.022.1.007.1.014a3.245,3.245,0,0,1-.509-.112q-.151-.042-.3-.093c-.126-.043-.319-.206-.022,0-.138-.1-.323-.154-.47-.239-.115-.066-.387-.179-.446-.29.009.017.276.236.057.042-.068-.06-.137-.118-.2-.18-.148-.138-.28-.289-.416-.439-.25-.275.166.271-.031-.044-.039-.063-.083-.122-.123-.185-.1-.154-.181-.315-.266-.477-.167-.316.081.236,0,.023-.03-.084-.063-.166-.092-.251a4.933,4.933,0,0,1-.162-.614,2.083,2.083,0,0,0-.036-.207c.117.372.018.129.009-.008-.01-.156-.013-.313-.009-.47,0-.055-.013-.447.035-.468l-.025.2c.011-.068.024-.137.038-.2q.032-.153.073-.3c.023-.085.09-.446.165-.5-.138.093-.112.246-.008.031.038-.079.078-.157.12-.234.086-.156.184-.3.28-.451.151-.235-.036.027-.048.054a1.313,1.313,0,0,1,.248-.286,4.941,4.941,0,0,1,.4-.38c.116-.1.314-.246-.092.063l.057-.044q3.413-2.607,6.822-5.22l8.6-6.58.81-.619.057-.043.008-.006c.151-.116.3-.23.443-.349.082-.067.334-.356.095-.08a4.8,4.8,0,0,1,.955-.678q.5-.331,1.021-.63a25.413,25.413,0,0,1,2.327-1.167c.059-.027.272-.114-.018.006l.295-.121q.3-.12.6-.233.636-.24,1.283-.448a32.15,32.15,0,0,1,5.267-1.215l.262-.037c-.378.052.061-.007.115-.013q.328-.039.656-.073c.435-.044.871-.079,1.308-.107a1.539,1.539,0,0,0,0-3.078,33.61,33.61,0,0,0-11.32,2.659,20.947,20.947,0,0,0-4.394,2.546,4.505,4.505,0,0,0-.671.527c.055-.067.3-.228.216-.162l-.07.054-.324.248-8.272,6.329-7.55,5.776a7.091,7.091,0,0,0-2.019,2.2,6.481,6.481,0,0,0,2.986,9.063,6.627,6.627,0,0,0,5.486-.048,8.5,8.5,0,0,0,1.614-1.067l2.123-1.625,4.37-3.343.282-.216-1.865-.241a22.485,22.485,0,0,0,4.222,2.632,29.168,29.168,0,0,0,10.858,3,26.753,26.753,0,0,0,8.1-.694,1.553,1.553,0,0,0,1.075-1.893,1.572,1.572,0,0,0-1.893-1.075Z" transform="translate(-1164.019 -1003.921)" fill="#072c6e"/>
        </g>
        <g id="Grupo_20107" data-name="Grupo 20107" transform="translate(19.643 49.815)">
          <rect id="Rectángulo_5239" data-name="Rectángulo 5239" width="9.78" height="20.846" rx="4.89" transform="translate(16.556) rotate(52.582)" fill="#fff"/>
          <path id="Trazado_51220" data-name="Trazado 51220" d="M1137.584,1154.517c-.1-.136-.21-.271-.31-.41a4.763,4.763,0,0,1-.265-.416c-.035-.062-.069-.126-.1-.191-.023-.045-.152-.331-.056-.108.089.206,0-.01-.02-.063-.03-.083-.057-.167-.082-.251-.04-.134-.073-.27-.1-.407a1.475,1.475,0,0,0-.036-.206c.015.039.03.37.018.1-.008-.173-.02-.345-.016-.518,0-.029.016-.413.027-.413.03,0-.064.344-.011.1.015-.067.026-.136.041-.2a4.636,4.636,0,0,1,.124-.449c.022-.065.051-.13.069-.2.049-.18-.14.285-.013.032a6.774,6.774,0,0,1,.455-.768c.116-.172-.187.211-.043.06.062-.065.117-.136.179-.2a4.749,4.749,0,0,1,.355-.339c.328-.283-.158.112-.07.045l.11-.084.414-.317,1.512-1.157q3.455-2.644,6.91-5.287c.148-.113.3-.223.454-.322.122-.077.249-.148.378-.214a.883.883,0,0,1,.194-.093c-.155,0-.242.089-.072.034.085-.027.87-.313.914-.237,0-.008-.374.028-.047.014.069,0,.138-.009.207-.011a4.638,4.638,0,0,1,.466.008c.026,0,.206.015.206.018s-.4-.075-.1-.011c.169.037.337.069.5.118.057.017.37.079.393.134,0,0-.348-.169-.08-.031.062.031.125.061.187.093.124.065.245.136.363.212.059.038.116.08.175.119.3.2-.241-.22.024.022.107.1.214.193.314.3.064.066.4.486.211.226s.02.026.057.074c.077.1.153.2.224.307q.122.181.228.373c.035.063.068.127.1.192l.024.048q.105.231-.027-.074c.073.067.109.3.138.4.05.168.083.339.12.51.053.244-.031-.1-.011-.1s.019.223.018.207c.009.138.011.276.008.414,0,.038-.017.413-.027.413-.029,0,.064-.344.01-.1-.022.1-.04.2-.064.3-.033.134-.072.267-.117.4a1.019,1.019,0,0,1-.072.2c.108-.054.125-.274.009-.034q-.092.189-.2.369-.054.09-.112.178c-.03.045-.257.318-.1.145s-.16.172-.2.209c-.115.119-.238.225-.359.336-.247.226.271-.2.1-.075l-.289.221-1.33,1.018-4.04,3.091-3.127,2.392-.234.179c-.121.091-.244.178-.372.259s-.249.148-.378.214c-.023.012-.346.159-.108.056.222-.1-.065.021-.113.037-.133.046-.268.086-.4.119q-.127.031-.256.055c-.1.019-.244-.025-.053.013s.033,0-.054,0-.172.011-.259.013c-.156,0-.31-.006-.466-.013l-.052,0q-.205-.022,0,0l.1.014c-.068-.01-.136-.022-.2-.036-.135-.027-.27-.06-.4-.1-.062-.018-.365-.076-.393-.134.024.049.28.131.08.031-.094-.047-.187-.092-.279-.143q-.184-.1-.359-.221a.926.926,0,0,1-.173-.123c.168.215.151.122.062.04a5.876,5.876,0,0,1-.674-.714,1.542,1.542,0,0,0-2.177,0,1.587,1.587,0,0,0,0,2.177,6.269,6.269,0,0,0,8.388,1.187c.821-.6,1.615-1.234,2.421-1.851,2.348-1.8,4.728-3.555,7.044-5.392a6.274,6.274,0,0,0,1.219-8.343,6.969,6.969,0,0,0-3.4-2.7,6.292,6.292,0,0,0-4.6.254,14.7,14.7,0,0,0-2.837,1.982l-4.363,3.338q-1.426,1.091-2.853,2.183a6.676,6.676,0,0,0-2.313,3.073,6.261,6.261,0,0,0,.236,4.646,6.405,6.405,0,0,0,.812,1.308,1.694,1.694,0,0,0,.92.707,1.573,1.573,0,0,0,1.186-.155A1.555,1.555,0,0,0,1137.584,1154.517Z" transform="translate(-1133.178 -1138.606)" fill="#072c6e"/>
        </g>
        <g id="Grupo_20108" data-name="Grupo 20108" transform="translate(25.605 58.899)">
          <path id="Rectángulo_5240" data-name="Rectángulo 5240" d="M4.89,0h0A4.89,4.89,0,0,1,9.78,4.89v8.56a4.89,4.89,0,0,1-4.89,4.89h0A4.89,4.89,0,0,1,0,13.45V4.89A4.89,4.89,0,0,1,4.89,0Z" transform="translate(14.566 0) rotate(52.579)" fill="#fff"/>
          <path id="Trazado_51221" data-name="Trazado 51221" d="M1156.714,1182.074a6.608,6.608,0,0,1-.677-1.017,1.021,1.021,0,0,0-.093-.194c.007.006.106.281.053.122-.038-.117-.084-.232-.119-.35q-.06-.2-.1-.408c-.01-.051-.017-.1-.028-.154-.04-.191.021.337.009.048a6.74,6.74,0,0,1-.007-.725c0,.017.015-.206.018-.206s-.075.4-.011.1c.029-.135.054-.27.09-.4.032-.117.072-.231.108-.347.115-.363-.1.177.022-.066a6.531,6.531,0,0,1,.425-.725c.149-.224-.194.222.058-.065.083-.095.17-.186.261-.274.142-.138.56-.464.117-.128l.231-.177,1.167-.893c1.887-1.443,3.761-2.9,5.66-4.33.134-.1.271-.2.414-.284q.162-.1.331-.185a1.069,1.069,0,0,0,.194-.093c-.048.055-.276.1-.072.034a5.429,5.429,0,0,1,.76-.21c.356-.067-.225,0,.055-.009.138-.005.276-.018.415-.018s.275.012.413.019c.276.013-.328-.075.052.009.255.057.5.126.749.206.281.09-.071-.039-.078-.038a.887.887,0,0,1,.189.089q.164.082.322.177c.106.063.206.134.309.2.167.11-.025.065-.058-.047.012.04.13.111.163.14q.161.145.309.305c.052.056.332.405.136.146-.183-.241,0,0,.036.048.05.066.1.131.15.2a4.821,4.821,0,0,1,.4.652.877.877,0,0,1,.093.194c0-.016-.128-.349-.034-.072.045.133.092.266.128.4.032.118.059.238.082.358.073.387,0-.224.009.055s.011.549,0,.828.068-.3-.009.052c-.026.118-.049.236-.08.353-.036.134-.083.263-.126.4-.013.04-.063.214,0,.009.071-.229-.026.05-.051.1a5.381,5.381,0,0,1-.379.631c-.148.218.178-.2-.058.065a4.667,4.667,0,0,1-.341.349c-.059.055-.414.338-.139.13.193-.146.141-.108.1-.078l-.088.068-.971.743-3.448,2.638c-.831.636-1.66,1.274-2.493,1.907a5.58,5.58,0,0,1-.519.358c-.124.074-.252.138-.381.2-.246.125.287-.1-.075.029a5.465,5.465,0,0,1-.761.2c-.3.061.1-.02.1-.011s-.223.019-.207.018c-.121.008-.242.01-.363.009s-.241-.013-.362-.018c-.248-.011.109-.014.1.017,0,0-.188-.033-.2-.036-.257-.052-.5-.147-.747-.215-.157-.043.117.049.127.057a1.263,1.263,0,0,0-.189-.089c-.125-.062-.248-.13-.367-.2a2.221,2.221,0,0,0-.35-.238c.012,0,.222.188.1.074-.052-.049-.109-.094-.162-.142a5.1,5.1,0,0,1-.554-.607,1.541,1.541,0,0,0-2.177,0,1.586,1.586,0,0,0,0,2.177,6.289,6.289,0,0,0,7.493,1.7,14.262,14.262,0,0,0,2.655-1.858l3.786-2.9a16.223,16.223,0,0,0,2.712-2.234,6.3,6.3,0,0,0,.371-7.676,6.8,6.8,0,0,0-2.722-2.358,6.442,6.442,0,0,0-4.138-.383,9.066,9.066,0,0,0-3.314,1.917l-3.776,2.889c-.856.655-1.746,1.283-2.572,1.976a6.307,6.307,0,0,0-1.461,7.5,6.384,6.384,0,0,0,.724,1.113,1.692,1.692,0,0,0,.92.708,1.573,1.573,0,0,0,1.186-.155A1.554,1.554,0,0,0,1156.714,1182.074Z" transform="translate(-1152.308 -1167.685)" fill="#072c6e"/>
        </g>
        <g id="Grupo_20109" data-name="Grupo 20109" transform="translate(62.235)">
          <path id="Trazado_51222" data-name="Trazado 51222" d="M1282.243,983.42l-8.663,6.628,22.373,29.242,8.379-6.411Z" transform="translate(-1272.042 -981.86)" fill="#ffd059"/>
          <path id="Trazado_51223" data-name="Trazado 51223" d="M1278.084,978.66l-7.6,5.813-1.065.815a1.648,1.648,0,0,0-.707.92,1.487,1.487,0,0,0,.155,1.186l2.224,2.908,5.342,6.982,6.463,8.448,5.588,7.3q1.358,1.775,2.716,3.55l.038.05a1.649,1.649,0,0,0,.92.707,1.487,1.487,0,0,0,1.186-.155l7.327-5.606,1.053-.805a1.653,1.653,0,0,0,.708-.92,1.5,1.5,0,0,0-.155-1.186l-2.2-2.929-5.274-7.034-6.382-8.511-5.517-7.358q-1.341-1.788-2.682-3.577l-.038-.05a1.579,1.579,0,0,0-2.106-.552,1.555,1.555,0,0,0-.552,2.106l2.2,2.929,5.274,7.035,6.382,8.51,5.517,7.358c.891,1.188,1.739,2.429,2.682,3.577.013.016.025.034.038.05l.552-2.106-7.327,5.605-1.053.805,2.106.552-2.224-2.907-5.342-6.982-6.464-8.448-5.588-7.3c-.9-1.179-1.762-2.412-2.716-3.55-.013-.016-.026-.033-.038-.05l-.552,2.106,7.6-5.813,1.065-.815a1.692,1.692,0,0,0,.707-.92,1.572,1.572,0,0,0-.155-1.186A1.554,1.554,0,0,0,1278.084,978.66Z" transform="translate(-1268.661 -978.43)" fill="#072c6e"/>
        </g>
      </g>
      <g id="Grupo_20114" data-name="Grupo 20114" transform="translate(23.439 0)">
        <g id="Grupo_20112" data-name="Grupo 20112">
          <g id="Grupo_20111" data-name="Grupo 20111">
            <circle id="Elipse_1139" data-name="Elipse 1139" cx="32.23" cy="32.23" r="32.23" transform="translate(1.539 1.539)" fill="#ffd059"/>
            <path id="Trazado_51224" data-name="Trazado 51224" d="M1148.982,703.936a33.77,33.77,0,1,1,33.77-33.77A33.808,33.808,0,0,1,1148.982,703.936Zm0-64.461a30.691,30.691,0,1,0,30.691,30.691A30.726,30.726,0,0,0,1148.982,639.475Z" transform="translate(-1115.212 -636.397)" fill="#072c6e"/>
          </g>
        </g>
        <g id="Grupo_20113" data-name="Grupo 20113" transform="translate(9.25 13.022)">
          <path id="Trazado_51225" data-name="Trazado 51225" d="M1194.569,690.709l-24.115,27.905a.566.566,0,0,1-.857.093l-19.865-15.241,3.6-9.1,15.053,11.254a.566.566,0,0,0,.857-.093l19.12-22.544Z" transform="translate(-1148.193 -681.447)" fill="#fff"/>
          <path id="Trazado_51226" data-name="Trazado 51226" d="M1166.6,717.015a2.108,2.108,0,0,1-1.365-.5L1145.409,701.3a1.539,1.539,0,0,1-.494-1.788l3.6-9.1a1.539,1.539,0,0,1,2.353-.665l14.37,10.743,18.565-21.889a1.5,1.5,0,0,1,1.194-.544,1.54,1.54,0,0,1,1.18.575l6.2,7.723a1.538,1.538,0,0,1-.036,1.97L1168.266,716.2a2.12,2.12,0,0,1-1.455.808A2.088,2.088,0,0,1,1166.6,717.015Zm-18.395-17.449,18.258,14.008,22.717-26.287-4.231-5.269-17.884,21.088a2.1,2.1,0,0,1-3.027.331l-13.4-10.015Zm16.4,1.685v0Z" transform="translate(-1144.807 -678.06)" fill="#072c6e"/>
        </g>
      </g>
    </g>
    <g id="Grupo_20127" data-name="Grupo 20127" transform="translate(384.144 689.556)">
      <g id="Grupo_20116" data-name="Grupo 20116" transform="translate(36.58)">
        <rect id="Rectángulo_5241" data-name="Rectángulo 5241" width="20.144" height="7.591" rx="3.796" transform="translate(1.539 1.539)" fill="#ffd059"/>
        <path id="Trazado_51227" data-name="Trazado 51227" d="M565.678,824.049H548.436a2.994,2.994,0,0,1-2.99-2.99V816.37a2.994,2.994,0,0,1,2.99-2.99h17.242a2.994,2.994,0,0,1,2.99,2.99v4.689A2.993,2.993,0,0,1,565.678,824.049Zm-17.154-3.078H565.59v-4.513H548.524Z" transform="translate(-545.446 -813.379)" fill="#072c6e"/>
      </g>
      <g id="Grupo_20119" data-name="Grupo 20119" transform="translate(13.516 9.59)">
        <g id="Grupo_20117" data-name="Grupo 20117" transform="translate(3.606 4.681)">
          <rect id="Rectángulo_5242" data-name="Rectángulo 5242" width="6.565" height="7.572" transform="matrix(0.874, -0.485, 0.485, 0.874, 2.093, 5.277)" fill="#1cbfff"/>
          <path id="Trazado_51228" data-name="Trazado 51228" d="M488.36,873.031l-5.167-9.314,8.433-4.678,5.167,9.313Zm-.982-8.115,2.18,3.93,3.049-1.692-2.18-3.929Z" transform="translate(-483.193 -859.04)" fill="#072c6e"/>
        </g>
        <g id="Grupo_20118" data-name="Grupo 20118">
          <path id="Rectángulo_5243" data-name="Rectángulo 5243" d="M2.574,0H8.766a2.574,2.574,0,0,1,2.574,2.574v0A2.574,2.574,0,0,1,8.766,5.148H2.574A2.574,2.574,0,0,1,0,2.574v0A2.574,2.574,0,0,1,2.574,0Z" transform="translate(1.114 6.615) rotate(-29.02)" fill="#1cbfff"/>
          <path id="Trazado_51229" data-name="Trazado 51229" d="M475.73,856.294a2.721,2.721,0,0,1-2.383-1.4L472,852.457a2.722,2.722,0,0,1,1.059-3.7l7.852-4.356a2.723,2.723,0,0,1,3.7,1.059l1.352,2.437a2.722,2.722,0,0,1-1.059,3.7l-7.852,4.356A2.705,2.705,0,0,1,475.73,856.294Zm-.869-5.016,1,1.809,7.224-4.008-1-1.809Z" transform="translate(-471.654 -844.063)" fill="#072c6e"/>
        </g>
      </g>
      <g id="Grupo_20120" data-name="Grupo 20120" transform="translate(0 16.186)">
        <path id="Trazado_51230" data-name="Trazado 51230" d="M527.95,914.111c1.737,26.2-17.951,48.884-43.9,50.6a47.368,47.368,0,1,1,43.9-50.6Z" transform="translate(-431.793 -868.555)" fill="#fff"/>
        <path id="Trazado_51231" data-name="Trazado 51231" d="M477.436,962.973a48.9,48.9,0,1,1,32.092-85.74A48.237,48.237,0,0,1,526.1,910.622h0a49.019,49.019,0,0,1-11.94,35.591,48.138,48.138,0,0,1-33.389,16.649Q479.1,962.973,477.436,962.973Zm-.039-94.727q-1.656,0-3.325.118A45.88,45.88,0,0,0,431.6,917.322a45.419,45.419,0,0,0,15.679,31.327,45.9,45.9,0,0,0,33.286,11.141,45.081,45.081,0,0,0,31.268-15.6,45.963,45.963,0,0,0,11.194-33.37h0a45.746,45.746,0,0,0-45.634-42.58Z" transform="translate(-428.409 -865.167)" fill="#072c6e"/>
      </g>
      <g id="Grupo_20121" data-name="Grupo 20121" transform="translate(14.948 31.135)">
        <path id="Trazado_51232" data-name="Trazado 51232" d="M545.919,948.05a32.42,32.42,0,1,1-34.634-30.043A32.448,32.448,0,0,1,545.919,948.05Z" transform="translate(-479.621 -916.384)" fill="#ffd059"/>
        <path id="Trazado_51233" data-name="Trazado 51233" d="M510.277,980.908a33.956,33.956,0,1,1,22.284-59.535A33.5,33.5,0,0,1,544.07,944.56a34.032,34.032,0,0,1-8.29,24.71,33.428,33.428,0,0,1-23.187,11.562Q511.432,980.909,510.277,980.908Zm-.027-64.834q-1.116,0-2.241.08A30.869,30.869,0,1,0,541,944.764h0a30.824,30.824,0,0,0-30.749-28.689Z" transform="translate(-476.236 -912.995)" fill="#072c6e"/>
      </g>
      <g id="Grupo_20122" data-name="Grupo 20122" transform="translate(31.334 47.522)">
        <circle id="Elipse_1140" data-name="Elipse 1140" cx="16.028" cy="16.028" r="16.028" transform="translate(1.539 1.539)" fill="#1cbfff"/>
        <path id="Trazado_51234" data-name="Trazado 51234" d="M546.229,1000.561A17.568,17.568,0,1,1,563.8,982.993,17.587,17.587,0,0,1,546.229,1000.561Zm0-32.057a14.489,14.489,0,1,0,14.489,14.489A14.506,14.506,0,0,0,546.229,968.5Z" transform="translate(-528.662 -965.426)" fill="#072c6e"/>
      </g>
      <g id="Grupo_20123" data-name="Grupo 20123" transform="translate(41.528 7.591)">
        <rect id="Rectángulo_5244" data-name="Rectángulo 5244" width="10.247" height="8.596" transform="translate(1.539 1.539)" fill="#fff"/>
        <path id="Trazado_51235" data-name="Trazado 51235" d="M574.6,849.342H561.279V837.668H574.6Zm-10.247-3.078h7.169v-5.518h-7.169Z" transform="translate(-561.279 -837.668)" fill="#072c6e"/>
      </g>
      <g id="Grupo_20126" data-name="Grupo 20126" transform="translate(47.362 0)">
        <g id="Grupo_20124" data-name="Grupo 20124" transform="translate(39.695 9.6)">
          <path id="Trazado_51236" data-name="Trazado 51236" d="M723.277,849.324l9.906-.306-11.4,12.131-9.906.306Z" transform="translate(-710.334 -847.479)" fill="#1cbfff"/>
          <path id="Trazado_51237" data-name="Trazado 51237" d="M708.487,859.609a1.539,1.539,0,0,1-1.121-2.593l11.4-12.131a1.539,1.539,0,0,1,1.074-.484l9.906-.306a1.539,1.539,0,0,1,1.169,2.593l-11.4,12.131a1.54,1.54,0,0,1-1.074.484l-9.906.306Zm12.089-12.151-8.422,8.959,5.555-.172,8.422-8.959Z" transform="translate(-706.948 -844.094)" fill="#072c6e"/>
        </g>
        <g id="Grupo_20125" data-name="Grupo 20125" transform="translate(39.389)">
          <path id="Trazado_51238" data-name="Trazado 51238" d="M722.6,828.21,722.3,818.3l-11.4,12.131.306,9.906Z" transform="translate(-709.355 -816.765)" fill="#1cbfff"/>
          <path id="Trazado_51239" data-name="Trazado 51239" d="M707.814,838.495A1.539,1.539,0,0,1,706.276,837l-.306-9.906a1.54,1.54,0,0,1,.417-1.1l11.4-12.131a1.539,1.539,0,0,1,2.66,1.006l.306,9.906a1.541,1.541,0,0,1-.417,1.1l-11.4,12.131A1.539,1.539,0,0,1,707.814,838.495Zm1.252-10.855.172,5.555,8.422-8.959-.172-5.555Z" transform="translate(-705.97 -813.38)" fill="#072c6e"/>
        </g>
        <path id="Trazado_51240" data-name="Trazado 51240" d="M586.41,885.489a1.539,1.539,0,0,1-1.122-2.592l56.168-59.884a1.539,1.539,0,1,1,2.245,2.106L587.533,885A1.534,1.534,0,0,1,586.41,885.489Z" transform="translate(-583.331 -819.668)" fill="#072c6e"/>
        <path id="Trazado_51241" data-name="Trazado 51241" d="M581.484,1005.221a1.54,1.54,0,0,1-1.48-1.965l2.144-7.452a1.539,1.539,0,1,1,2.958.851l-2.144,7.452A1.54,1.54,0,0,1,581.484,1005.221Z" transform="translate(-579.944 -938.021)" fill="#072c6e"/>
        <path id="Trazado_51242" data-name="Trazado 51242" d="M581.482,1017.132a1.539,1.539,0,0,1-.438-3.015l6.85-2.037a1.539,1.539,0,1,1,.877,2.95l-6.85,2.037A1.538,1.538,0,0,1,581.482,1017.132Z" transform="translate(-579.944 -949.933)" fill="#072c6e"/>
      </g>
    </g>
    <g id="Grupo_20135" data-name="Grupo 20135" transform="translate(791.744 679.331)">
      <g id="Grupo_20133" data-name="Grupo 20133" transform="translate(0)">
        <rect id="Rectángulo_5245" data-name="Rectángulo 5245" width="85.603" height="108.766" rx="17.534" transform="translate(1.539 15.84)" fill="#fff"/>
        <path id="Trazado_51243" data-name="Trazado 51243" d="M1813.762,938.264h-73.781a7.459,7.459,0,0,1-7.451-7.45V833.87a7.459,7.459,0,0,1,7.451-7.45h31.352a1.539,1.539,0,1,1,0,3.078h-31.352a4.377,4.377,0,0,0-4.372,4.372v96.944a4.377,4.377,0,0,0,4.372,4.372h73.781a4.377,4.377,0,0,0,4.372-4.372V866.481a1.539,1.539,0,0,1,3.079,0v64.332A7.459,7.459,0,0,1,1813.762,938.264Z" transform="translate(-1732.531 -812.118)" fill="#072c6e"/>
        <path id="Trazado_51244" data-name="Trazado 51244" d="M1926,868.02a1.539,1.539,0,0,1-1.539-1.539V833.87a4.377,4.377,0,0,0-4.372-4.372h-31.351a1.539,1.539,0,1,1,0-3.078h31.351a7.459,7.459,0,0,1,7.451,7.45v32.612A1.54,1.54,0,0,1,1926,868.02Z" transform="translate(-1838.857 -812.118)" fill="#072c6e"/>
        <g id="Grupo_20128" data-name="Grupo 20128" transform="translate(19.135)">
          <path id="Trazado_51245" data-name="Trazado 51245" d="M1827.193,799.885a8.157,8.157,0,1,0-10.7,0h-17.812v3.407a8.678,8.678,0,0,0,8.678,8.678h28.97a8.678,8.678,0,0,0,8.678-8.678v-3.407Z" transform="translate(-1797.14 -784.045)" fill="#1cbfff"/>
          <path id="Trazado_51246" data-name="Trazado 51246" d="M1832.941,810.128h-28.97a10.229,10.229,0,0,1-10.217-10.217V796.5a1.539,1.539,0,0,1,1.539-1.539h14.637a9.694,9.694,0,0,1,9.649-14.239,9.686,9.686,0,0,1,7.4,14.239h14.638a1.539,1.539,0,0,1,1.539,1.539v3.407A10.229,10.229,0,0,1,1832.941,810.128Zm-36.109-12.085v1.868a7.147,7.147,0,0,0,7.139,7.139h28.97a7.147,7.147,0,0,0,7.139-7.139v-1.868h-16.273a1.539,1.539,0,0,1-1.011-2.7,6.61,6.61,0,0,0-3.562-11.559,6.612,6.612,0,0,0-5.118,11.559,1.539,1.539,0,0,1-1.011,2.7Z" transform="translate(-1793.754 -780.664)" fill="#072c6e"/>
        </g>
        <path id="Trazado_51247" data-name="Trazado 51247" d="M1915.748,845.221a1.539,1.539,0,1,1,0-3.078,3.288,3.288,0,0,0,3.285-3.285,1.539,1.539,0,1,1,3.078,0A6.37,6.37,0,0,1,1915.748,845.221Z" transform="translate(-1857.426 -819.612)" fill="#072c6e"/>
        <g id="Grupo_20129" data-name="Grupo 20129" transform="translate(39.277 5.237)">
          <circle id="Elipse_1141" data-name="Elipse 1141" cx="3.021" cy="3.021" r="3.021" transform="translate(0.288 4.561) rotate(-45)" fill="#fff"/>
          <path id="Trazado_51248" data-name="Trazado 51248" d="M1862.758,806.54a4.561,4.561,0,1,1,4.561-4.56A4.566,4.566,0,0,1,1862.758,806.54Zm0-6.043a1.482,1.482,0,1,0,1.482,1.482A1.484,1.484,0,0,0,1862.758,800.5Z" transform="translate(-1858.198 -797.419)" fill="#072c6e"/>
        </g>
        <g id="Grupo_20130" data-name="Grupo 20130" transform="translate(48.341 35.45)">
          <rect id="Rectángulo_5246" data-name="Rectángulo 5246" width="22.156" height="22.156" transform="translate(1.539 1.539)" fill="#ffd059"/>
          <path id="Trazado_51249" data-name="Trazado 51249" d="M1910.894,919.32h-22.156a1.539,1.539,0,0,1-1.539-1.539V895.625a1.539,1.539,0,0,1,1.539-1.539h22.156a1.539,1.539,0,0,1,1.539,1.539v22.156A1.539,1.539,0,0,1,1910.894,919.32Zm-20.617-3.078h19.078V897.164h-19.078Z" transform="translate(-1887.198 -894.086)" fill="#072c6e"/>
        </g>
        <g id="Grupo_20131" data-name="Grupo 20131" transform="translate(48.341 64.656)">
          <path id="Trazado_51250" data-name="Trazado 51250" d="M1914.279,1005.424v9.186h-22.156V992.454h22.156v12.97Z" transform="translate(-1890.583 -990.915)" fill="#ffd059"/>
          <path id="Trazado_51251" data-name="Trazado 51251" d="M1910.894,1012.764h-22.156a1.539,1.539,0,0,1-1.539-1.539V989.069a1.539,1.539,0,0,1,1.539-1.539h22.156a1.539,1.539,0,0,1,1.539,1.539v22.156A1.539,1.539,0,0,1,1910.894,1012.764Zm-20.617-3.078h19.078V990.608h-19.078Z" transform="translate(-1887.198 -987.53)" fill="#072c6e"/>
        </g>
        <g id="Grupo_20132" data-name="Grupo 20132" transform="translate(48.341 92.854)">
          <rect id="Rectángulo_5247" data-name="Rectángulo 5247" width="22.156" height="22.156" transform="translate(1.539 1.539)" fill="#fff"/>
          <path id="Trazado_51252" data-name="Trazado 51252" d="M1910.894,1102.986h-22.156a1.539,1.539,0,0,1-1.539-1.539v-22.156a1.539,1.539,0,0,1,1.539-1.539h22.156a1.539,1.539,0,0,1,1.539,1.539v22.156A1.539,1.539,0,0,1,1910.894,1102.986Zm-20.617-3.078h19.078V1080.83h-19.078Z" transform="translate(-1887.198 -1077.752)" fill="#072c6e"/>
        </g>
        <path id="Trazado_51253" data-name="Trazado 51253" d="M1909.883,924.352a1.539,1.539,0,0,1-1.182-.553l-5.036-6.043a1.539,1.539,0,1,1,2.365-1.971l3.686,4.423,5.918-9.3a1.539,1.539,0,1,1,2.6,1.653l-7.05,11.078a1.538,1.538,0,0,1-1.2.709C1909.949,924.351,1909.916,924.352,1909.883,924.352Z" transform="translate(-1849.932 -869.711)" fill="#072c6e"/>
        <path id="Trazado_51254" data-name="Trazado 51254" d="M1793.814,948.341h-27.236a1.539,1.539,0,1,1,0-3.078h27.236a1.539,1.539,0,1,1,0,3.078Z" transform="translate(-1754.878 -893.818)" fill="#072c6e"/>
        <path id="Trazado_51255" data-name="Trazado 51255" d="M1793.814,919.293h-27.236a1.539,1.539,0,1,1,0-3.078h27.236a1.539,1.539,0,1,1,0,3.078Z" transform="translate(-1754.878 -873.849)" fill="#072c6e"/>
        <path id="Trazado_51256" data-name="Trazado 51256" d="M1793.814,1041.939h-27.236a1.539,1.539,0,1,1,0-3.078h27.236a1.539,1.539,0,1,1,0,3.078Z" transform="translate(-1754.878 -958.162)" fill="#072c6e"/>
        <path id="Trazado_51257" data-name="Trazado 51257" d="M1793.814,1016.119h-27.236a1.539,1.539,0,1,1,0-3.078h27.236a1.539,1.539,0,1,1,0,3.078Z" transform="translate(-1754.878 -940.412)" fill="#072c6e"/>
        <path id="Trazado_51258" data-name="Trazado 51258" d="M1793.814,1132.311h-27.236a1.539,1.539,0,1,1,0-3.078h27.236a1.539,1.539,0,1,1,0,3.078Z" transform="translate(-1754.878 -1020.289)" fill="#072c6e"/>
        <path id="Trazado_51259" data-name="Trazado 51259" d="M1793.814,1106.491h-27.236a1.539,1.539,0,1,1,0-3.078h27.236a1.539,1.539,0,1,1,0,3.078Z" transform="translate(-1754.878 -1002.538)" fill="#072c6e"/>
        <path id="Trazado_51260" data-name="Trazado 51260" d="M1910.378,1019.408a1.54,1.54,0,0,1-1.182-.554l-5.036-6.043a1.539,1.539,0,0,1,2.365-1.971l3.686,4.423,5.918-9.3a1.539,1.539,0,1,1,2.6,1.653l-7.05,11.078a1.54,1.54,0,0,1-1.2.71Z" transform="translate(-1850.273 -935.057)" fill="#072c6e"/>
      </g>
      <g id="Grupo_20134" data-name="Grupo 20134" transform="translate(60.742 74.289)">
        <path id="Trazado_51261" data-name="Trazado 51261" d="M1957.58,1032.482l-25.569-9.2a.153.153,0,0,0-.2.2l9.212,25.563a.745.745,0,0,0,1.225.265l4.5-4.505a1.834,1.834,0,0,1,2.594,0l12.111,12.1,4-4-12.111-12.1a1.834,1.834,0,0,1,0-2.594l4.5-4.505A.745.745,0,0,0,1957.58,1032.482Z" transform="translate(-1930.263 -1021.737)" fill="#1cbfff"/>
        <path id="Trazado_51262" data-name="Trazado 51262" d="M1958.07,1055.064a1.534,1.534,0,0,1-1.088-.45l-12.112-12.1a.3.3,0,0,0-.417,0l-4.5,4.505a2.284,2.284,0,0,1-3.755-.812l-9.219-25.582a1.692,1.692,0,0,1,2.185-2.16l25.55,9.19.019.007a2.284,2.284,0,0,1,.814,3.755l-4.5,4.505a.3.3,0,0,0,0,.418l12.112,12.1a1.54,1.54,0,0,1,0,2.177l-4,4A1.535,1.535,0,0,1,1958.07,1055.064Zm-13.408-15.717a3.362,3.362,0,0,1,2.385.986l11.023,11.016,1.82-1.821-11.023-11.015a3.378,3.378,0,0,1,0-4.771l3.619-3.621-21.613-7.774,7.787,21.608,3.618-3.62A3.364,3.364,0,0,1,1944.662,1039.347Zm-16.561-18,.032.012Zm1.765-1.792.012.034C1929.874,1019.581,1929.87,1019.569,1929.866,1019.558Z" transform="translate(-1926.874 -1018.354)" fill="#072c6e"/>
      </g>
    </g>
  </g>
</svg>
