<svg xmlns="http://www.w3.org/2000/svg" width="127.266" height="98.603" viewBox="0 0 127.266 98.603">
  <g id="Grupo_20208" data-name="Grupo 20208" transform="translate(-1400.25 -1475.237)">
    <g id="Grupo_20192" data-name="Grupo 20192" transform="translate(1400.25 1518.535)">
      <path id="Trazado_51324" data-name="Trazado 51324" d="M1423.667,1795.714c1.911-9.276,9.687-17.567,18.981-17.557,8.366.009,15.484,6.126,18.2,14.237l1.458-.133c.758-2.411,1.515-4.208,2.272-6.619l1.778-5.658c.638-2.029,1.142-4.2,2.41-5.969,1.241-1.73,4.13-3.358,6.161-1.8,2.289,1.759.15,4.886-1.779,5.96l-5.1,21.728s-9.247-.008-9.247-.011a3.669,3.669,0,0,1-.748.078l-30.855-.034A3.547,3.547,0,0,1,1423.667,1795.714Z" transform="translate(-1418.145 -1745.7)" fill="#7eb9c7"/>
      <path id="Trazado_51325" data-name="Trazado 51325" d="M1451.057,1777.5l-3.115-.427,3.243-23.632,1.079-.231a4.252,4.252,0,0,0,.8-.357c.253-.13.539-.278.841-.4,2.688-1.1,5.147-3.715,4.376-5.7a2.412,2.412,0,0,0-1.394-1.3,7.531,7.531,0,0,0-5.523.3c-2.689,1.1-5.147,3.715-4.376,5.7a1.974,1.974,0,0,0,.421.643l.709.75-5.074,11.849-1.591-2.58c-4.113-6.673-10.573-10.662-17.279-10.669h-.017a19.344,19.344,0,0,0-13.488,6.075c-4.808,4.877-7.391,11.777-7.273,19.429l-3.144.049c-.131-8.5,2.774-16.2,8.178-21.685a22.5,22.5,0,0,1,15.727-7.012h.02c6.938.008,13.6,3.6,18.292,9.746l1.99-4.648a4.909,4.909,0,0,1-.4-.808c-1.361-3.5,1.325-7.782,6.113-9.747a10.584,10.584,0,0,1,7.957-.283,5.506,5.506,0,0,1,3.085,3.055c1.361,3.5-1.324,7.782-6.113,9.747-.176.072-.378.176-.592.287-.155.08-.316.163-.485.244Z" transform="translate(-1400.25 -1722.947)" fill="#3d4451"/>
      <g id="Grupo_20188" data-name="Grupo 20188" transform="translate(8.961)">
        <g id="Grupo_20187" data-name="Grupo 20187">
          <g id="Grupo_20186" data-name="Grupo 20186">
            <g id="Grupo_20185" data-name="Grupo 20185">
              <path id="Trazado_51326" data-name="Trazado 51326" d="M1456.374,1692.107a13,13,0,1,0-12.3-12.316A13,13,0,0,0,1456.374,1692.107Z" transform="translate(-1442.789 -1664.853)" fill="#fff"/>
              <path id="Trazado_51327" data-name="Trazado 51327" d="M1452.883,1689.234q-.366,0-.732-.019a14.3,14.3,0,1,1,.732.019Zm.035-26a11.735,11.735,0,0,0-.638,23.454h0a11.736,11.736,0,0,0,1.245-23.439C1453.323,1663.235,1453.12,1663.23,1452.918,1663.23Z" transform="translate(-1438.631 -1660.696)" fill="#3d4451"/>
            </g>
          </g>
        </g>
      </g>
      <g id="Grupo_20191" data-name="Grupo 20191" transform="translate(13.757 6.963)">
        <g id="Grupo_20190" data-name="Grupo 20190">
          <g id="Grupo_20189" data-name="Grupo 20189">
            <path id="Trazado_51328" data-name="Trazado 51328" d="M1468.168,1709.449a9.472,9.472,0,1,0-8.979-8.977A9.485,9.485,0,0,0,1468.168,1709.449Z" transform="translate(-1459.177 -1690.52)" fill="#7eb9c7"/>
          </g>
        </g>
      </g>
      <path id="Trazado_51329" data-name="Trazado 51329" d="M1440.313,1853.012a1.141,1.141,0,0,1-1.141-1.141v-11.3a1.14,1.14,0,0,1,2.281,0v11.3A1.14,1.14,0,0,1,1440.313,1853.012Z" transform="translate(-1430.085 -1797.707)" fill="#3d4451"/>
    </g>
    <g id="Grupo_20201" data-name="Grupo 20201" transform="translate(1476.762 1517.808)">
      <g id="Grupo_20197" data-name="Grupo 20197" transform="translate(0 0)">
        <g id="Grupo_20196" data-name="Grupo 20196">
          <g id="Grupo_20195" data-name="Grupo 20195">
            <g id="Grupo_20193" data-name="Grupo 20193" transform="translate(9.939)">
              <path id="Trazado_51330" data-name="Trazado 51330" d="M1789.021,1690.53a13.771,13.771,0,1,0-13.028-13.044A13.772,13.772,0,0,0,1789.021,1690.53Z" transform="translate(-1774.709 -1661.741)" fill="#fff"/>
              <path id="Trazado_51331" data-name="Trazado 51331" d="M1785.569,1687.659q-.385,0-.772-.02h0a15.077,15.077,0,1,1,.772.02Zm-.641-2.551a12.5,12.5,0,1,0-11.828-11.842,12.536,12.536,0,0,0,11.828,11.842Z" transform="translate(-1770.55 -1657.585)" fill="#3d4451"/>
            </g>
            <g id="Grupo_20194" data-name="Grupo 20194" transform="translate(0 29.129)">
              <path id="Trazado_51332" data-name="Trazado 51332" d="M1733.359,1812.276c1.539-11.637,12.791-24.508,24.459-24.495s22.044,11.6,23.783,23.919" transform="translate(-1732.103 -1786.514)" fill="#fff"/>
              <path id="Trazado_51333" data-name="Trazado 51333" d="M1730.49,1808.282l-2.512-.332a32.06,32.06,0,0,1,8.772-17.326c5.1-5.333,11.108-8.27,16.927-8.27h.019c5.867.006,11.737,2.753,16.528,7.733a31.966,31.966,0,0,1,8.509,17.276l-2.51.354c-1.745-12.363-12.062-22.817-22.529-22.829h-.016c-5.046,0-10.547,2.728-15.1,7.487C1734.231,1796.927,1731.206,1802.874,1730.49,1808.282Z" transform="translate(-1727.978 -1782.354)" fill="#3d4451"/>
            </g>
          </g>
        </g>
      </g>
      <g id="Grupo_20200" data-name="Grupo 20200" transform="translate(14.284 6.904)">
        <g id="Grupo_20199" data-name="Grupo 20199">
          <g id="Grupo_20198" data-name="Grupo 20198">
            <path id="Trazado_51334" data-name="Trazado 51334" d="M1799.257,1708.133a10.5,10.5,0,1,0-10.084-9.942A10.578,10.578,0,0,0,1799.257,1708.133Z" transform="translate(-1789.16 -1687.156)" fill="#7eb9c7"/>
            <path id="Trazado_51335" data-name="Trazado 51335" d="M1841.089,1821.122c-1.93-8.947-9.85-16.957-19.34-16.967a17.017,17.017,0,0,0-4.415.583v20.428l20.142.022A3.483,3.483,0,0,0,1841.089,1821.122Z" transform="translate(-1810.756 -1776.84)" fill="#7eb9c7"/>
          </g>
        </g>
      </g>
    </g>
    <path id="Trazado_51336" data-name="Trazado 51336" d="M1635.452,1511.4h-41.083a5.963,5.963,0,0,0-6.193,5.663v14.534a5.964,5.964,0,0,0,6.193,5.663h4.852l-.745,11.406,9.74-11.406h27.236a5.963,5.963,0,0,0,6.193-5.663V1517.06A5.963,5.963,0,0,0,1635.452,1511.4Z" transform="translate(-144.053 -27.718)" fill="#c7ddeb"/>
    <path id="Trazado_51337" data-name="Trazado 51337" d="M1560.117,1525.594l.99-16.52h-4.043a8.143,8.143,0,0,1-8.146-8.122v-17.594a8.143,8.143,0,0,1,8.146-8.122h45.63a8.143,8.143,0,0,1,8.146,8.122v17.594a8.143,8.143,0,0,1-8.146,8.122H1573.06Zm-3.053-47.823a5.606,5.606,0,0,0-5.612,5.587v17.594a5.606,5.606,0,0,0,5.612,5.587h6.734l-.665,11.1,8.693-11.1h30.868a5.606,5.606,0,0,0,5.612-5.587v-17.594a5.606,5.606,0,0,0-5.612-5.587Z" transform="translate(-113.96 0)" fill="#3d4451"/>
    <g id="Grupo_20206" data-name="Grupo 20206" transform="translate(1469.239 1546.071)">
      <g id="Grupo_20204" data-name="Grupo 20204" transform="translate(0 5.157)">
        <g id="Grupo_20203" data-name="Grupo 20203">
          <g id="Grupo_20202" data-name="Grupo 20202">
            <path id="Trazado_51338" data-name="Trazado 51338" d="M1742.926,1836.244v-17.017c0-.53-.285-.959-.636-.959h-22.018c-.351,0-.636.43-.636.959v17.017Z" transform="translate(-1714.061 -1814.174)" fill="#c7ddeb"/>
            <path id="Trazado_51339" data-name="Trazado 51339" d="M1698.288,1822.805h-2.534v-19.932a2.1,2.1,0,0,1,2.044-2.138h26.12a2.1,2.1,0,0,1,2.044,2.138v18.918h-2.534V1803.27h-25.14Z" transform="translate(-1695.754 -1800.736)" fill="#3d4451"/>
          </g>
        </g>
      </g>
      <g id="Grupo_20205" data-name="Grupo 20205" transform="translate(5.08 0)">
        <path id="Trazado_51340" data-name="Trazado 51340" d="M1737.77,1785.755h-4.55a2.882,2.882,0,0,0,.02-.331,3.1,3.1,0,0,0-6.194,0,2.91,2.91,0,0,0,.02.331h-3.976a1.745,1.745,0,0,0-1.778,1.711v2.538a1.745,1.745,0,0,0,1.778,1.71h14.682a1.745,1.745,0,0,0,1.778-1.711v-2.538A1.745,1.745,0,0,0,1737.77,1785.755Z" transform="translate(-1720.424 -1781.558)" fill="#fdc345"/>
        <path id="Trazado_51341" data-name="Trazado 51341" d="M1720.177,1789.69a2.635,2.635,0,0,1-2.665-2.6v-2.539a2.635,2.635,0,0,1,2.665-2.6h3.111a3.8,3.8,0,0,1,1.138-2.191,4.022,4.022,0,0,1,2.8-1.121h0a3.954,3.954,0,0,1,3.943,3.311h3.685a2.635,2.635,0,0,1,2.665,2.6v2.538a2.548,2.548,0,0,1-.793,1.849,2.684,2.684,0,0,1-1.872.749Zm7.053-9.271h0a2.256,2.256,0,0,0-1.575.625,2.007,2.007,0,0,0-.621,1.7l.114.989h-4.972a.86.86,0,0,0-.891.823v2.539a.86.86,0,0,0,.891.823h14.682a.918.918,0,0,0,.642-.253.789.789,0,0,0,.249-.571v-2.538a.86.86,0,0,0-.891-.823h-5.545l.114-.989a1.983,1.983,0,0,0,.014-.229A2.156,2.156,0,0,0,1727.231,1780.419Z" transform="translate(-1717.512 -1778.645)" fill="#3d4451"/>
      </g>
    </g>
    <g id="Grupo_20207" data-name="Grupo 20207" transform="translate(1487.486 1563.685)">
      <path id="Trazado_51342" data-name="Trazado 51342" d="M1778.255,1866.922a8.24,8.24,0,1,1,16.473,0" transform="translate(-1777.241 -1857.418)" fill="#7eb9c7"/>
      <path id="Trazado_51343" data-name="Trazado 51343" d="M1792.413,1863.594h-2.027a7.227,7.227,0,1,0-14.446,0h-2.027a9.254,9.254,0,1,1,18.5,0Z" transform="translate(-1773.913 -1854.091)" fill="#3d4451"/>
    </g>
    <path id="Trazado_51344" data-name="Trazado 51344" d="M1616.8,1521.447H1589.68a1.394,1.394,0,0,1-1.394-1.394h0a1.394,1.394,0,0,1,1.394-1.394H1616.8a1.394,1.394,0,0,1,1.394,1.394h0A1.394,1.394,0,0,1,1616.8,1521.447Z" transform="translate(-144.137 -33.285)" fill="#3d4451"/>
    <path id="Trazado_51345" data-name="Trazado 51345" d="M1742.713,1521.654h-6.382a1.5,1.5,0,0,1-1.5-1.5h0a1.5,1.5,0,0,1,1.5-1.5h6.382a1.5,1.5,0,0,1,1.5,1.5h0A1.5,1.5,0,0,1,1742.713,1521.654Z" transform="translate(-256.472 -33.285)" fill="#3d4451"/>
    <path id="Trazado_51346" data-name="Trazado 51346" d="M1599.422,1559.845h-6.382a1.5,1.5,0,0,1-1.5-1.5h0a1.5,1.5,0,0,1,1.5-1.5h6.382a1.5,1.5,0,0,1,1.5,1.5h0A1.5,1.5,0,0,1,1599.422,1559.845Z" transform="translate(-146.634 -62.559)" fill="#3d4451"/>
    <path id="Trazado_51347" data-name="Trazado 51347" d="M1658.877,1559.845h-13.731a1.5,1.5,0,0,1-1.5-1.5h0a1.5,1.5,0,0,1,1.5-1.5h13.731a1.5,1.5,0,0,1,1.5,1.5h0A1.5,1.5,0,0,1,1658.877,1559.845Z" transform="translate(-186.574 -62.559)" fill="#3d4451"/>
    <path id="Trazado_51348" data-name="Trazado 51348" d="M1735.439,1559.845h-5.621a1.5,1.5,0,0,1-1.5-1.5h0a1.5,1.5,0,0,1,1.5-1.5h5.621a1.5,1.5,0,0,1,1.5,1.5h0A1.5,1.5,0,0,1,1735.439,1559.845Z" transform="translate(-251.478 -62.559)" fill="#3d4451"/>
  </g>
</svg>
