<svg xmlns="http://www.w3.org/2000/svg" width="618.175" height="296.774" viewBox="0 0 618.175 296.774">
  <g id="Grupo_18147" data-name="Grupo 18147" transform="translate(-28.648 -93.071)">
    <g id="Grupo_18080" data-name="Grupo 18080" transform="translate(28.648 121.04)">
      <g id="Grupo_18077" data-name="Grupo 18077" transform="translate(324.091 2.575)" opacity="0.6">
        <path id="Trazado_47105" data-name="Trazado 47105" d="M1299.294,332.149a146.387,146.387,0,0,1-32.937,92.742H1038.147a146.316,146.316,0,0,1-32.025-76.269,147.262,147.262,0,0,1,78.452-147.046,147.091,147.091,0,0,1,214.719,130.573Z" transform="translate(-1005.21 -185.108)" fill="#e1e2ff"/>
      </g>
      <g id="Grupo_18078" data-name="Grupo 18078" transform="translate(0 0)" opacity="0.7">
        <path id="Trazado_47106" data-name="Trazado 47106" d="M322.732,324.39a148.193,148.193,0,0,1-1.361,20.073,146.408,146.408,0,0,1-33.714,75.244H63.723A147.053,147.053,0,1,1,322.732,324.39Z" transform="translate(-28.648 -177.348)" fill="#e0edfd"/>
      </g>
      <g id="Grupo_18079" data-name="Grupo 18079" transform="translate(202.46 29.104)" opacity="0.5">
        <circle id="Elipse_994" data-name="Elipse 994" cx="106.628" cy="106.628" r="106.628" fill="#f4e0eb"/>
      </g>
    </g>
    <g id="Grupo_18081" data-name="Grupo 18081" transform="translate(123.594 239.976)">
      <path id="Trazado_47107" data-name="Trazado 47107" d="M436.065,568.306c-15.174-15.42-34.075-28.118-55.413-31.678s-45.207,3.47-57.98,20.93c-7.418,10.14-10.563,24.113-5.354,35.546,4.392,9.64,14.055,16.14,24.3,18.841s21.072,2.049,31.559.555,20.883-3.81,31.46-4.391a97.72,97.72,0,0,1,73.456,28.095C470,610.173,455.186,587.737,436.065,568.306Z" transform="translate(-314.742 -535.73)" fill="#fa8796"/>
      <path id="Trazado_47108" data-name="Trazado 47108" d="M366.949,560.439c24.042.368,46.923,11.185,66.16,25.611a199.274,199.274,0,0,1,42.331,42.384c-8.473-22.758-22.179-42.659-39.37-60.128C420.9,552.887,402,540.188,380.657,536.629s-45.207,3.47-57.98,20.93a40.025,40.025,0,0,0-7.917,24.106C327.643,567.644,347.623,560.143,366.949,560.439Z" transform="translate(-314.747 -535.73)" fill="#ffd7df"/>
    </g>
    <g id="Grupo_18082" data-name="Grupo 18082" transform="translate(410.151 173.205)">
      <path id="Trazado_47109" data-name="Trazado 47109" d="M1189.054,385.384c6.648-16.752,17.039-32.623,32.262-42.271s35.82-11.988,51.282-2.728c8.98,5.378,15.921,15.082,15.629,25.545-.246,8.822-5.556,16.942-12.542,22.335s-15.508,8.4-24.041,10.654-17.262,3.844-25.568,6.826a81.412,81.412,0,0,0-47.27,45.369C1176.578,428.514,1180.676,406.494,1189.054,385.384Z" transform="translate(-1178.205 -334.533)" fill="#7ab6f5"/>
      <path id="Trazado_47110" data-name="Trazado 47110" d="M1239.56,356.945c-18.333,8.074-32.388,23.792-42.476,41.1a165.991,165.991,0,0,0-18.751,46.248c-.873-20.212,3.2-39.928,10.728-58.907,6.648-16.752,17.039-32.623,32.262-42.271s35.82-11.988,51.282-2.728a33.343,33.343,0,0,1,13.889,15.935C1272.062,349.735,1254.3,350.454,1239.56,356.945Z" transform="translate(-1178.212 -334.533)" fill="#b4d3ff"/>
    </g>
    <g id="Grupo_18083" data-name="Grupo 18083" transform="translate(144.698 164.883)">
      <path id="Trazado_47111" data-name="Trazado 47111" d="M479.733,360.2c-7.066-16.95-17.93-32.937-33.607-42.5s-36.7-11.586-52.292-1.88c-9.054,5.636-15.956,15.644-15.475,26.3.405,8.983,5.957,17.163,13.169,22.535s15.946,8.288,24.679,10.433,17.653,3.613,26.167,6.507a82.951,82.951,0,0,1,48.952,45.392C493.2,403.918,488.638,381.556,479.733,360.2Z" transform="translate(-378.335 -309.458)" fill="#7ab6f5"/>
      <path id="Trazado_47112" data-name="Trazado 47112" d="M431.067,332.107c18.818,7.905,33.412,23.671,43.993,41.126a169.171,169.171,0,0,1,19.914,46.788c.535-20.607-3.956-40.621-11.962-59.824-7.066-16.95-17.93-32.937-33.608-42.5s-36.7-11.586-52.292-1.88a33.975,33.975,0,0,0-13.87,16.477C397.83,325.332,415.941,325.753,431.067,332.107Z" transform="translate(-381.614 -309.458)" fill="#b4d3ff"/>
    </g>
    <g id="Grupo_18084" data-name="Grupo 18084" transform="translate(388.484 242.785)">
      <path id="Trazado_47113" data-name="Trazado 47113" d="M1153.855,572.019c14.479-13.69,32.3-24.753,52.057-27.321s41.5,4.693,52.676,21.189c6.492,9.58,8.923,22.546,3.75,32.9-4.362,8.728-13.473,14.39-22.991,16.537s-19.464,1.188-29.069-.535-19.1-4.2-28.813-5.085a90.01,90.01,0,0,0-68.547,23.425C1121.23,609.432,1135.61,589.271,1153.855,572.019Z" transform="translate(-1112.918 -544.193)" fill="#fa8796"/>
      <path id="Trazado_47114" data-name="Trazado 47114" d="M1223.183,567.07c-22.143-.458-43.564,8.74-61.749,21.381a183.546,183.546,0,0,0-40.371,37.61c8.554-20.667,21.83-38.531,38.234-54.042,14.479-13.69,32.3-24.753,52.057-27.321s41.5,4.693,52.676,21.188a36.867,36.867,0,0,1,6.488,22.452C1259.125,575,1240.982,567.438,1223.183,567.07Z" transform="translate(-1118.36 -544.193)" fill="#ffd7df"/>
    </g>
    <g id="Grupo_18108" data-name="Grupo 18108" transform="translate(250.108 119.396)">
      <g id="Grupo_18085" data-name="Grupo 18085" transform="translate(74.895)">
        <path id="Trazado_47115" data-name="Trazado 47115" d="M927.606,172.393h-5.971v15.475h4.995V176.425H942.1v11.443H947.1V172.393H927.606Z" transform="translate(-921.634 -172.393)" fill="#7ab6f5"/>
      </g>
      <g id="Grupo_18105" data-name="Grupo 18105" transform="translate(0 21.796)">
        <g id="Grupo_18086" data-name="Grupo 18086">
          <rect id="Rectángulo_4443" data-name="Rectángulo 4443" width="175.255" height="222.207" rx="28.424" fill="#3d4166"/>
        </g>
        <g id="Grupo_18087" data-name="Grupo 18087" transform="translate(6.715 7.306)">
          <rect id="Rectángulo_4444" data-name="Rectángulo 4444" width="161.825" height="207.594" fill="#fefefe"/>
        </g>
        <g id="Grupo_18089" data-name="Grupo 18089" transform="translate(6.715 7.306)">
          <g id="Grupo_18088" data-name="Grupo 18088">
            <path id="Trazado_47116" data-name="Trazado 47116" d="M716.223,279.878l161.793-.939V260.085H716.191Z" transform="translate(-716.191 -260.085)" fill="#7ab6f5"/>
          </g>
        </g>
        <g id="Grupo_18092" data-name="Grupo 18092" transform="translate(50.187 35.549)">
          <g id="Grupo_18090" data-name="Grupo 18090" transform="translate(6.565 9.034)">
            <rect id="Rectángulo_4445" data-name="Rectángulo 4445" width="61.751" height="4.105" fill="#b4d3ff"/>
          </g>
          <g id="Grupo_18091" data-name="Grupo 18091">
            <rect id="Rectángulo_4446" data-name="Rectángulo 4446" width="74.882" height="4.105" fill="#b4d3ff"/>
          </g>
        </g>
        <g id="Grupo_18104" data-name="Grupo 18104" transform="translate(18.777 60.356)">
          <g id="Grupo_18093" data-name="Grupo 18093" transform="translate(44.214 15.711)">
            <rect id="Rectángulo_4447" data-name="Rectángulo 4447" width="93.488" height="2.744" fill="#b4d3ff"/>
            <rect id="Rectángulo_4448" data-name="Rectángulo 4448" width="74.483" height="2.744" transform="translate(0 5.782)" fill="#b4d3ff"/>
            <rect id="Rectángulo_4449" data-name="Rectángulo 4449" width="41.003" height="2.744" transform="translate(0 11.564)" fill="#b4d3ff"/>
          </g>
          <g id="Grupo_18094" data-name="Grupo 18094" transform="translate(44.214 63.653)">
            <rect id="Rectángulo_4450" data-name="Rectángulo 4450" width="93.488" height="2.744" fill="#b4d3ff"/>
            <rect id="Rectángulo_4451" data-name="Rectángulo 4451" width="74.483" height="2.744" transform="translate(0 5.782)" fill="#b4d3ff"/>
            <rect id="Rectángulo_4452" data-name="Rectángulo 4452" width="41.003" height="2.744" transform="translate(0 11.564)" fill="#b4d3ff"/>
          </g>
          <g id="Grupo_18095" data-name="Grupo 18095" transform="translate(44.214 111.594)">
            <rect id="Rectángulo_4453" data-name="Rectángulo 4453" width="93.488" height="2.744" fill="#b4d3ff"/>
            <rect id="Rectángulo_4454" data-name="Rectángulo 4454" width="74.483" height="2.744" transform="translate(0 5.782)" fill="#b4d3ff"/>
            <rect id="Rectángulo_4455" data-name="Rectángulo 4455" width="41.003" height="2.744" transform="translate(0 11.564)" fill="#b4d3ff"/>
          </g>
          <g id="Grupo_18096" data-name="Grupo 18096" transform="translate(3.768 6.177)">
            <path id="Trazado_47117" data-name="Trazado 47117" d="M796.075,471.925H765.081a1.192,1.192,0,0,1-1.192-1.192V439.739a1.192,1.192,0,0,1,1.192-1.192h30.994a1.192,1.192,0,0,1,1.192,1.192v30.994A1.192,1.192,0,0,1,796.075,471.925Zm-29.8-2.384h28.611V440.931H766.272Z" transform="translate(-763.889 -438.547)" fill="#b4d3ff"/>
          </g>
          <g id="Grupo_18097" data-name="Grupo 18097" transform="translate(3.768 54.118)">
            <path id="Trazado_47118" data-name="Trazado 47118" d="M796.075,616.383H765.081a1.192,1.192,0,0,1-1.192-1.192V584.2a1.192,1.192,0,0,1,1.192-1.192h30.994a1.192,1.192,0,0,1,1.192,1.192v30.994A1.192,1.192,0,0,1,796.075,616.383ZM766.272,614h28.611V585.388H766.272Z" transform="translate(-763.889 -583.005)" fill="#b4d3ff"/>
          </g>
          <g id="Grupo_18098" data-name="Grupo 18098" transform="translate(3.768 102.059)">
            <path id="Trazado_47119" data-name="Trazado 47119" d="M796.075,760.84H765.081a1.192,1.192,0,0,1-1.192-1.192V728.654a1.192,1.192,0,0,1,1.192-1.192h30.994a1.192,1.192,0,0,1,1.192,1.192v30.994A1.192,1.192,0,0,1,796.075,760.84Zm-29.8-2.384h28.611v-28.61H766.272Z" transform="translate(-763.889 -727.462)" fill="#b4d3ff"/>
          </g>
          <g id="Grupo_18100" data-name="Grupo 18100" transform="translate(0 95.882)">
            <g id="Grupo_18099" data-name="Grupo 18099">
              <path id="Trazado_47120" data-name="Trazado 47120" d="M771.118,743.017a2.764,2.764,0,0,1-1.942-.8l-15.819-15.633a2.763,2.763,0,0,1,3.884-3.931l13.565,13.406,19.554-26.105a2.763,2.763,0,0,1,4.422,3.313L773.33,741.911a2.763,2.763,0,0,1-2.007,1.1C771.255,743.015,771.186,743.017,771.118,743.017Z" transform="translate(-752.536 -708.85)" fill="#fa7070"/>
            </g>
          </g>
          <g id="Grupo_18101" data-name="Grupo 18101">
            <path id="Trazado_47121" data-name="Trazado 47121" d="M771.118,454.1a2.764,2.764,0,0,1-1.942-.8l-15.819-15.633a2.763,2.763,0,0,1,3.884-3.93l13.565,13.406,19.554-26.105a2.763,2.763,0,0,1,4.422,3.313L773.33,453a2.763,2.763,0,0,1-2.007,1.1C771.255,454.1,771.186,454.1,771.118,454.1Z" transform="translate(-752.536 -419.935)" fill="#fa7070"/>
          </g>
          <g id="Grupo_18103" data-name="Grupo 18103" transform="translate(0 47.062)">
            <g id="Grupo_18102" data-name="Grupo 18102">
              <path id="Trazado_47122" data-name="Trazado 47122" d="M771.118,595.911a2.763,2.763,0,0,1-1.942-.8L753.357,579.48a2.763,2.763,0,0,1,3.884-3.931l13.565,13.406L790.36,562.85a2.763,2.763,0,0,1,4.422,3.313L773.33,594.8a2.763,2.763,0,0,1-2.007,1.1Q771.22,595.911,771.118,595.911Z" transform="translate(-752.536 -561.743)" fill="#fa7070"/>
            </g>
          </g>
        </g>
      </g>
      <g id="Grupo_18106" data-name="Grupo 18106" transform="translate(54.984 11.007)">
        <rect id="Rectángulo_4456" data-name="Rectángulo 4456" width="67.24" height="16.238" fill="#7ab6f5"/>
      </g>
      <g id="Grupo_18107" data-name="Grupo 18107" transform="translate(54.008 27.245)">
        <rect id="Rectángulo_4457" data-name="Rectángulo 4457" width="67.24" height="11.988" fill="#3d4166"/>
      </g>
    </g>
    <g id="Grupo_18117" data-name="Grupo 18117" transform="translate(181.039 220.165)">
      <g id="Grupo_18114" data-name="Grupo 18114" transform="translate(2.832 38.038)">
        <path id="Trazado_47123" data-name="Trazado 47123" d="M550.111,954.377c0,1.226-10.9,2.22-24.341,2.22s-24.341-.994-24.341-2.22,10.9-2.22,24.341-2.22S550.111,953.151,550.111,954.377Z" transform="translate(-499.751 -832.184)" fill="#d3d8f6"/>
        <path id="Trazado_47124" data-name="Trazado 47124" d="M566.567,647.185l.718-1.615h6.208l.553,1.5Z" transform="translate(-543.272 -627.344)" fill="#fff"/>
        <path id="Trazado_47125" data-name="Trazado 47125" d="M531.15,949.8H518.84a1.091,1.091,0,0,1-.491-1.117c.05-.554,1.4-2.224,2.275-3.377h8.042c.92,1,2.462,2.672,2.455,3.292A11.309,11.309,0,0,0,531.15,949.8Z" transform="translate(-511.051 -827.606)" fill="#212145"/>
        <path id="Trazado_47126" data-name="Trazado 47126" d="M605.427,949.726s-14.831.3-15.266-.307c-.288-.4.246-2.646.64-4.114h7.248a4.75,4.75,0,0,0,2.222,1.469c1.464.358,4.746.075,5,1.195A5.154,5.154,0,0,1,605.427,949.726Z" transform="translate(-558.98 -827.606)" fill="#212145"/>
        <path id="Trazado_47127" data-name="Trazado 47127" d="M556.3,654.5a10.644,10.644,0,0,0-3.042,1.879.3.3,0,0,0-.015.085.054.054,0,0,0,0,.013,3.156,3.156,0,0,0,.4,1.11v0l-.048.117c-.075.181-.233.561-.461,1.084-1.451,3.328-5.711,12.418-8.937,12.4-3.95-.019-7.785-3.7-7.785-3.7s.454,8.525.638,10.4,1.814,5.385,1.6,5.838c-.159.337-.621.542-.81.846h0a.5.5,0,0,0-.077.358c.085.538.1,23.371.18,25.564s-.454,13.906-.643,15.719-1.426,19.282-1.851,19.65c-.315.272-.5.234-.548.33l-6.349-.33a1.9,1.9,0,0,1-.68-.851,112.181,112.181,0,0,1-.442-11.676c.14-3.571,1.1-9.863.821-12.867s-1.417-18.589-1.984-20.14c-1.851,5.062-5.669,15.114-6.651,19.422s-1.058,10.543-1.927,13.566-3.363,12.375-3.892,12.489a.717.717,0,0,0-.418.208h-6.7c-.076-.34-1-.529-.87-1.077s1.607-7.5,2.1-9.881,3.4-18.705,3.779-21.577,4.553-27.7,4.553-28.492c0-.027,0-.056,0-.088.013-.9.2-3.731.311-5.128a15.643,15.643,0,0,0,.142-3.485c-.142-1.56-1.5-12.357-1.5-12.357s-5.667,9.891-9.409,9.891-4.7-8.814-4.79-11.025c-.067-1.744-.028-5.392-.009-6.855.005-.391.009-.627.009-.627a22.523,22.523,0,0,1-3.259-3.076c-.68-1.034-1.615-2.961-1.289-3.443s2.055,1.772,2.579,1.843a11.384,11.384,0,0,0,1.8-.071s-.695-1.545-.355-1.757,3.712,2.479,4.024,3.628a2.621,2.621,0,0,1,.171,1.184v0c-.011.035-.024.044-.027.045h0a.621.621,0,0,1,.6.531c.051.347.126.847.219,1.427.386,2.411,1.077,6.213,1.606,6.251.774.057,4.156-11.979,9.069-12.564a71.437,71.437,0,0,1,10.41-.3s5.688.056,7.387,1.285,8.871,12.668,9.693,12.668c.7,0,4.912-5.581,6.166-7.263l.314-.421.038-.053a2.619,2.619,0,0,1,.255-1.19c.255-.326,2.73-2.834,2.891-3.1.14-.232.834-.2.817.27a.7.7,0,0,1-.029.085c-.208.511-.579,1.048-.551,1.315-.021.143.029.235.207.248a5.333,5.333,0,0,0,2.371-.293.472.472,0,0,0,.065-.066l.035-.025c.286-.226.535-1.247.9-1.778a.408.408,0,0,1,.412-.135C558.208,650.759,557.2,654.16,556.3,654.5Z" transform="translate(-496.372 -629.452)" fill="#0a1237"/>
        <path id="Trazado_47128" data-name="Trazado 47128" d="M532.589,942.241a6.662,6.662,0,0,0,.672.771h-8.042a3.906,3.906,0,0,0,.729-1.139h6.7A.419.419,0,0,0,532.589,942.241Z" transform="translate(-515.645 -825.312)" fill="#f5c3b8"/>
        <path id="Trazado_47129" data-name="Trazado 47129" d="M599.5,942.709h-7.248c.2-.745.362-1.29.362-1.29l6.349.33a.268.268,0,0,0,0,.171A2.511,2.511,0,0,0,599.5,942.709Z" transform="translate(-560.432 -825.009)" fill="#f5c3b8"/>
        <path id="Trazado_47130" data-name="Trazado 47130" d="M521.256,663.524l.027-.045C521.272,663.514,521.259,663.523,521.256,663.524Z" transform="translate(-512.998 -639.309)" fill="#f5c3b8"/>
        <path id="Trazado_47131" data-name="Trazado 47131" d="M562.861,658.025l-.048.117c-.014.034-.031.075-.051.122l-.03.073c-.072.173-.173.411-.3.7-.02.045-.04.091-.06.139l-.02.045c-1.122,2.574-3.921,8.586-6.624,11.177a3.6,3.6,0,0,1-2.312,1.225c-3.95-.019-7.785-3.7-7.785-3.7s.454,8.525.638,10.4,1.814,5.385,1.6,5.838c-.159.338-.621.542-.81.846h0s-12.546,1.154-21.606.327c.013-.9.2-3.73.311-5.128.062-.79.141-1.293.177-1.841h0a10.145,10.145,0,0,0-.034-1.643c-.142-1.559-1.5-12.357-1.5-12.357s-5.667,9.891-9.409,9.891-4.7-8.814-4.789-11.025c-.067-1.744-.028-5.392-.009-6.855.005-.391.009-.627.009-.627l3.642-1.644a.621.621,0,0,1,.6.531c.051.347.126.847.219,1.427.386,2.411,1.077,6.213,1.606,6.251.774.057,4.156-11.979,9.069-12.564a71.448,71.448,0,0,1,10.41-.3s5.688.056,7.387,1.285,8.871,12.668,9.693,12.668c.7,0,4.912-5.581,6.166-7.263l.348-.469,0,0,0,0,3.1,1.306a1.09,1.09,0,0,1,.21.161.762.762,0,0,1,.2.895Z" transform="translate(-505.588 -629.889)" fill="#fff"/>
        <g id="Grupo_18110" data-name="Grupo 18110" transform="translate(4.578 19.491)" opacity="0.2">
          <g id="Grupo_18109" data-name="Grupo 18109">
            <path id="Trazado_47132" data-name="Trazado 47132" d="M530.1,662.314c.774.057,4.157-11.979,9.069-12.564a60.946,60.946,0,0,1,6.6-.369,64.3,64.3,0,0,0-7.69.369c-4.094.488-7.5,9.6-8.843,12.371C529.408,662.647,529.95,662.3,530.1,662.314Z" transform="translate(-522.908 -649.38)" fill="#10172a"/>
            <path id="Trazado_47133" data-name="Trazado 47133" d="M639.66,676.421c.7,0,5.359-5.949,6.613-7.631l.1-.138-.845-.336v0l0,0-.348.469a89.107,89.107,0,0,1-6.019,7.228C639.395,676.275,639.568,676.421,639.66,676.421Z" transform="translate(-596.35 -662.031)" fill="#10172a"/>
            <path id="Trazado_47134" data-name="Trazado 47134" d="M511.3,672.745c-.066-1.744-.028-5.392-.009-6.855.005-.391.009-.627.009-.627l3.042-1.373a.628.628,0,0,0-.1-.115.616.616,0,0,0-.4-.156l-3.642,1.644s0,.235-.009.627c-.019,1.463-.058,5.111.009,6.855.085,2.21,1.049,11.025,4.789,11.025a2.444,2.444,0,0,0,.55-.066C512.252,682.9,511.378,674.844,511.3,672.745Z" transform="translate(-510.166 -658.893)" fill="#10172a"/>
            <path id="Trazado_47135" data-name="Trazado 47135" d="M555.582,715.5c.013-.9.2-3.731.311-5.128.062-.79.141-1.293.177-1.841h0a10.154,10.154,0,0,0-.034-1.643c-.142-1.559-1.5-12.357-1.5-12.357s-.34.593-.908,1.488c.378,3.017,1.207,9.671,1.316,10.869a10.154,10.154,0,0,1,.034,1.643h0c-.036.548-.115,1.051-.177,1.841-.109,1.4-.3,4.223-.311,5.128,2.564.234,5.406.309,8.165.3C560.244,715.789,557.808,715.706,555.582,715.5Z" transform="translate(-539.202 -679.547)" fill="#10172a"/>
          </g>
          <path id="Trazado_47136" data-name="Trazado 47136" d="M626.1,689.96a3.6,3.6,0,0,1-2.312,1.225c-3.95-.019-7.785-3.7-7.785-3.7l-.51-8.833c2.267,1.483,1.275,4.846,3.032,5.668a4.963,4.963,0,0,1,2.693,3.657c.34,1.36,1.672,1.728,3.429,1.5A1.581,1.581,0,0,1,626.1,689.96Z" transform="translate(-580.536 -668.935)" fill="#10172a"/>
          <path id="Trazado_47137" data-name="Trazado 47137" d="M554.6,700.66a10.163,10.163,0,0,0-.035-1.643c-.142-1.559-1.5-12.357-1.5-12.357L554.99,684l.865-1.247a46.31,46.31,0,0,0-.78,6.688c.141,1.53,2.381,2.239,2.834,5.272C558.189,696.581,556.179,699.047,554.6,700.66Z" transform="translate(-538.826 -671.675)" fill="#10172a"/>
        </g>
        <path id="Trazado_47138" data-name="Trazado 47138" d="M525.219,943.011a3.906,3.906,0,0,0,.729-1.139h6.7a.419.419,0,0,0-.064.369,6.662,6.662,0,0,0,.672.771Z" transform="translate(-515.645 -825.312)" fill="#fff"/>
        <path id="Trazado_47139" data-name="Trazado 47139" d="M599.5,942.709h-7.248c.2-.745.362-1.29.362-1.29l6.349.33a.268.268,0,0,0,0,.171A2.511,2.511,0,0,0,599.5,942.709Z" transform="translate(-560.432 -825.009)" fill="#fff"/>
        <path id="Trazado_47140" data-name="Trazado 47140" d="M504.658,653.62v0c-.011.035-.024.044-.027.045h0l-3.642,1.644a22.523,22.523,0,0,1-3.259-3.076c-.68-1.034-1.615-2.961-1.289-3.443s2.055,1.772,2.579,1.843a11.384,11.384,0,0,0,1.8-.071s-.695-1.545-.355-1.757,3.712,2.479,4.024,3.628A2.621,2.621,0,0,1,504.658,653.62Z" transform="translate(-496.372 -629.452)" fill="#f5c3b8"/>
        <path id="Trazado_47141" data-name="Trazado 47141" d="M664.45,658.165a10.643,10.643,0,0,0-3.042,1.879.305.305,0,0,0-.015.085s0,.022,0,.027a.364.364,0,0,0,0,.054l-3.154-1.265.038-.053a2.618,2.618,0,0,1,.255-1.19c.255-.326,2.73-2.834,2.891-3.1.14-.232.834-.2.817.27a.689.689,0,0,1-.029.085c-.208.511-.579,1.048-.551,1.315.01.1.073.159.218.17a5.818,5.818,0,0,0,2.426-.28l.035-.025c.286-.226.535-1.247.9-1.778a.407.407,0,0,1,.412-.135C666.359,654.423,665.348,657.824,664.45,658.165Z" transform="translate(-604.523 -633.117)" fill="#f5c3b8"/>
        <path id="Trazado_47142" data-name="Trazado 47142" d="M581.856,654.709h-.249l-.3,1.57.62.5.465-.382-.271-1.686Z" transform="translate(-553.117 -633.45)" fill="#2a2b7d"/>
        <path id="Trazado_47143" data-name="Trazado 47143" d="M567.473,645.57,572.2,648.6l-.553,1.569-4.8-3.2Z" transform="translate(-543.46 -627.344)" fill="#fff"/>
        <path id="Trazado_47144" data-name="Trazado 47144" d="M584.452,645.57,582.97,648.6l.465,1.038,1.513-2.725Z" transform="translate(-554.231 -627.344)" fill="#fff"/>
        <path id="Trazado_47145" data-name="Trazado 47145" d="M582.776,660.018l4.392,19.3-1.772,3.591-2.576-3.348-.8-19.54Z" transform="translate(-553.599 -636.997)" fill="#fc6e6d"/>
        <path id="Trazado_47146" data-name="Trazado 47146" d="M582.264,660.234l4.392,19.3-1.647,3.753-2.791-3.506-.44-19.958Z" transform="translate(-553.435 -636.865)" fill="#10172a" opacity="0.2"/>
        <path id="Trazado_47147" data-name="Trazado 47147" d="M582.776,660.018l4.392,19.3-1.772,3.591-2.576-3.348-.8-19.54Z" transform="translate(-553.599 -636.997)" fill="#2a2b7d"/>
        <g id="Grupo_18113" data-name="Grupo 18113" transform="translate(20.94)">
          <g id="Grupo_18111" data-name="Grupo 18111" transform="translate(0.069 3.322)">
            <path id="Trazado_47148" data-name="Trazado 47148" d="M574.673,634.144v4.419c-.162.472-.725.682-1.456.715-.081,0-.165,0-.25,0h0c-2.046-.015-5.108-1.228-4.751-2.017a2.209,2.209,0,0,0,.09-.24,40.013,40.013,0,0,0,.767-5.406Z" transform="translate(-565.363 -621.344)" fill="#f5c3b8"/>
            <path id="Trazado_47149" data-name="Trazado 47149" d="M570.439,633.047c.084.165.171.329.263.49a4.988,4.988,0,0,0,3.993,2.7,3.656,3.656,0,0,0,1.482-.075v-2.023l-5.6-2.525C570.574,631.6,570.525,632.211,570.439,633.047Z" transform="translate(-566.867 -621.343)" fill="#ca9d97"/>
            <path id="Trazado_47150" data-name="Trazado 47150" d="M566.591,610.5a7.627,7.627,0,0,0,.4,1.706c.175.361.35.721.551,1.069a5.48,5.48,0,0,0,4.386,2.97,3.575,3.575,0,0,0,2.408-.421,4.38,4.38,0,0,0,1.629-2.409,15.09,15.09,0,0,0,.665-3.5,58.626,58.626,0,0,0,.357-5.9l-8.995-.436Z" transform="translate(-564.295 -602.607)" fill="#f5c3b8"/>
            <path id="Trazado_47151" data-name="Trazado 47151" d="M572.624,602.6a5.461,5.461,0,0,0-.3-1.321,5.948,5.948,0,0,0-.269-.625,5.431,5.431,0,0,1,.238,1.142c.064.656-.676.922-1.183,1.057a4.943,4.943,0,0,1-2.349.106,10.266,10.266,0,0,1-1.923-.769,8.086,8.086,0,0,0-1.781-.595,2.675,2.675,0,0,0-1.76.071,1.521,1.521,0,0,0-.569,1.074,18,18,0,0,0-.266,2.252c0,.029,0,.057-.006.086a1.939,1.939,0,0,0-.774-.159,1.8,1.8,0,0,0-1.7,1.112,2.72,2.72,0,0,1-.3-.4,2.707,2.707,0,0,0,.265.691l.039.069.04.066.04.062.042.062c.017.024.035.047.052.071l.063.081.06.071.046.051.059.062.046.046c.028.027.056.053.085.079l.043.038c.031.026.062.052.094.077l.045.034.083.059.044.03c.04.027.081.052.122.076l.014.008q.064.036.13.069l.043.021.1.048.044.019c.049.02.1.039.149.056.728.248,1.395.411,1.35.155a8.193,8.193,0,0,1,.011-1.933q.015-.251.037-.5a16.68,16.68,0,0,1,.23-1.75,1.521,1.521,0,0,1,.569-1.074,2.672,2.672,0,0,1,1.76-.071,8.066,8.066,0,0,1,1.781.595,10.271,10.271,0,0,0,1.923.769,4.947,4.947,0,0,0,2.349-.106C571.948,603.526,572.687,603.26,572.624,602.6Z" transform="translate(-559.677 -600.659)" fill="#020711" opacity="0.25"/>
            <path id="Trazado_47152" data-name="Trazado 47152" d="M564.927,617.1a1.81,1.81,0,1,1-1.8-1.648A1.731,1.731,0,0,1,564.927,617.1Z" transform="translate(-560.775 -610.543)" fill="#f5c3b8"/>
          </g>
          <g id="Grupo_18112" data-name="Grupo 18112">
            <path id="Trazado_47153" data-name="Trazado 47153" d="M572.485,595.917a5.465,5.465,0,0,0-.3-1.321,6.211,6.211,0,0,0-6.361-3.934c-2.156.127-4.92,1.139-5.734,3.333a12.91,12.91,0,0,0-.621,4.313,2.7,2.7,0,0,0,1.824,2.583c.082.028.163.054.242.08a8.583,8.583,0,0,0,.543,3.689,9.828,9.828,0,0,0,4.218,3.361,6.229,6.229,0,0,0,4.87-.749.855.855,0,0,0,.054-.766h0a15.163,15.163,0,0,0-.272-3.292l0,0a1.782,1.782,0,0,0-.633-.8,1.714,1.714,0,0,0-.89-.232c-.1,0-.2,0-.3,0a2.494,2.494,0,0,0-.937.179,1.714,1.714,0,0,0-.7.582h0a4.1,4.1,0,0,0-.995,2.619,4.205,4.205,0,0,1-1.772-1.085,6.738,6.738,0,0,1-1.2-2.411c-.241-.658-.446-1.335-.629-2.011a7.072,7.072,0,0,1-.186-.946c-.011-.086-.02-.172-.028-.258a17.3,17.3,0,0,1,.247-1.988,1.52,1.52,0,0,1,.569-1.074,2.673,2.673,0,0,1,1.76-.071,8.069,8.069,0,0,1,1.781.6,10.276,10.276,0,0,0,1.922.769,4.948,4.948,0,0,0,2.349-.106C571.809,596.839,572.549,596.573,572.485,595.917Zm-5.141,8.386c.042-.352.121-1.083.572-1.1a22.454,22.454,0,0,1,2.5-.015c.125.009.246.015.3.132a1.178,1.178,0,0,1,.042.252,8.649,8.649,0,0,1,.128,1.121,1.138,1.138,0,0,1-.192.916,1.253,1.253,0,0,1-.517.283,3.676,3.676,0,0,1-1.4.129l-.149-.014c-.216-.023-.431-.058-.645-.1-.128-.025-.615-.051-.628-.2C567.314,605.231,567.344,604.775,567.344,604.3Z" transform="translate(-559.469 -590.65)" fill="#2d3053"/>
          </g>
        </g>
        <path id="Trazado_47154" data-name="Trazado 47154" d="M567.207,646.1l4.8,2.857-.47,2.018-4.973-3.435Z" transform="translate(-543.272 -627.698)" fill="#10172a" opacity="0.2"/>
        <path id="Trazado_47155" data-name="Trazado 47155" d="M567.473,645.57,572.2,648.6l-.553,1.569-4.8-3.2Z" transform="translate(-543.46 -627.344)" fill="#fff"/>
        <path id="Trazado_47156" data-name="Trazado 47156" d="M584.948,649.628l-1.978,1.686.542,2.018,1.534-3.7Z" transform="translate(-554.231 -630.055)" fill="#10172a" opacity="0.2"/>
        <path id="Trazado_47157" data-name="Trazado 47157" d="M584.55,645.837l-1.58,2.945.531,1.686,1.5-3.37Z" transform="translate(-554.231 -627.522)" fill="#fff"/>
      </g>
      <g id="Grupo_18116" data-name="Grupo 18116">
        <g id="Grupo_18115" data-name="Grupo 18115">
          <path id="Trazado_47158" data-name="Trazado 47158" d="M500.338,657.271l-4.9-131.568-7.6.268,4.9,131.568Z" transform="translate(-487.838 -509.22)" fill="#7ab6f5"/>
          <path id="Trazado_47159" data-name="Trazado 47159" d="M523.253,656.462l-4.9-131.568-7.6.268,4.9,131.567Z" transform="translate(-503.148 -508.679)" fill="#b4d3ff"/>
          <path id="Trazado_47160" data-name="Trazado 47160" d="M503.048,506.222l-4.705-9.327-6.489.236-4.015,9.644Z" transform="translate(-487.839 -489.972)" fill="#fff"/>
          <path id="Trazado_47161" data-name="Trazado 47161" d="M506.425,482.957l-3.5-6.923-2.988,7.159Z" transform="translate(-495.921 -476.034)" fill="#3d4166"/>
        </g>
        <rect id="Rectángulo_4458" data-name="Rectángulo 4458" width="15.219" height="2.578" transform="matrix(0.999, -0.036, 0.036, 0.999, 4.896, 148.337)" fill="#3d4166"/>
        <path id="Trazado_47162" data-name="Trazado 47162" d="M508.113,941.133l5.582-.2a4.816,4.816,0,0,0,4.638-4.989l-.249-6.84-15.209.554.249,6.84A4.817,4.817,0,0,0,508.113,941.133Z" transform="translate(-497.885 -778.742)" fill="#fa8796"/>
      </g>
      <path id="Trazado_47163" data-name="Trazado 47163" d="M494.319,644.229c-.063-.489-3.372-1.763-3.372-1.763s-.368-.147-.442-.1-.851,3.445.594,4.29a5.314,5.314,0,0,0,1.534.76C493.387,647.6,494.382,644.718,494.319,644.229Z" transform="translate(-489.437 -587.157)" fill="#f5c3b8"/>
    </g>
    <g id="Grupo_18126" data-name="Grupo 18126" transform="translate(452.475 97.834)">
      <g id="Grupo_18121" data-name="Grupo 18121" transform="translate(0 0)">
        <g id="Grupo_18118" data-name="Grupo 18118" transform="translate(0 20.253)">
          <path id="Trazado_47164" data-name="Trazado 47164" d="M1307.442,171.95a.6.6,0,0,1-.047-.06c-.557-.8-1.085-1.624-1.568-2.453a.648.648,0,0,1,.269-.9.712.712,0,0,1,.945.257c.466.8.974,1.594,1.51,2.363a.646.646,0,0,1-.193.92A.719.719,0,0,1,1307.442,171.95Z" transform="translate(-1305.738 -168.45)" fill="#7ab6f5"/>
        </g>
        <g id="Grupo_18119" data-name="Grupo 18119" transform="translate(5.171)">
          <path id="Trazado_47165" data-name="Trazado 47165" d="M1321.483,135.593a.642.642,0,0,1,.062-.917.718.718,0,0,1,.982.041,38.325,38.325,0,0,0,4.212,3.777.644.644,0,0,1,.1.934.718.718,0,0,1-.978.1,39.639,39.639,0,0,1-4.362-3.912Zm9.12,7.046a.64.64,0,0,1-.067-.765.714.714,0,0,1,.952-.234,39.74,39.74,0,0,0,5.181,2.444.653.653,0,0,1,.384.864.707.707,0,0,1-.905.367,41.2,41.2,0,0,1-5.367-2.531A.686.686,0,0,1,1330.6,142.639Zm10.88,4.188a.641.641,0,0,1-.146-.579.7.7,0,0,1,.836-.495c.931.208,1.878.383,2.816.519s1.923.241,2.89.306a.674.674,0,0,1,.644.709.685.685,0,0,1-.742.615c-1-.068-2.014-.175-3-.318s-1.958-.322-2.924-.538A.7.7,0,0,1,1341.483,146.827Zm11.7.8a.643.643,0,0,1-.161-.372.673.673,0,0,1,.635-.717,40.714,40.714,0,0,0,5.706-.871,399.567,399.567,0,0,1,1.58.5,42.867,42.867,0,0,0,3.161,4.636.644.644,0,0,1-.141.929.721.721,0,0,1-.973-.135,44.176,44.176,0,0,1-3.194-4.671.727.727,0,0,1-.112.035,42.163,42.163,0,0,1-5.911.9A.709.709,0,0,1,1353.179,147.626Zm13.639,8.281a.642.642,0,0,1,.05-.905.719.719,0,0,1,.983.018,46.415,46.415,0,0,0,4.271,3.744.644.644,0,0,1,.1.934.718.718,0,0,1-.978.1,47.842,47.842,0,0,1-4.4-3.854Zm-9.549-14.058a.653.653,0,0,1-.115-.184,39.163,39.163,0,0,1-1.8-5.426l.672-.172.678-.147-.678.147.68-.139a37.95,37.95,0,0,0,1.743,5.248.654.654,0,0,1-.39.862A.718.718,0,0,1,1357.269,141.848Zm18.675,21.117a.64.64,0,0,1-.058-.778.715.715,0,0,1,.958-.213,46.175,46.175,0,0,0,5.1,2.618.652.652,0,0,1,.343.879.709.709,0,0,1-.921.328,47.63,47.63,0,0,1-5.261-2.7A.688.688,0,0,1,1375.944,162.965ZM1364.6,145.047a.649.649,0,0,1,.274-1.044,39.725,39.725,0,0,0,5.194-2.418.714.714,0,0,1,.951.239.648.648,0,0,1-.25.908,41.251,41.251,0,0,1-5.38,2.5A.718.718,0,0,1,1364.6,145.047Zm22.031,22.569a.641.641,0,0,1-.134-.622.7.7,0,0,1,.868-.441,43.224,43.224,0,0,0,5.637,1.238.669.669,0,0,1,.579.759.692.692,0,0,1-.794.553,44.649,44.649,0,0,1-5.827-1.28A.7.7,0,0,1,1386.628,167.616Zm-32.056-36.669a.643.643,0,0,1-.161-.377,29.434,29.434,0,0,1,.086-5.736.688.688,0,0,1,.768-.586.672.672,0,0,1,.614.733,28.146,28.146,0,0,0-.082,5.488.674.674,0,0,1-.64.712A.71.71,0,0,1,1354.572,130.948Zm43.649,38.4a.644.644,0,0,1-.163-.436.681.681,0,0,1,.7-.655,44.528,44.528,0,0,0,5.779-.31.69.69,0,0,1,.776.577.671.671,0,0,1-.6.741,46.088,46.088,0,0,1-5.968.32A.707.707,0,0,1,1398.221,169.345Zm-42.262-49.476a.64.64,0,0,1-.123-.653,19.93,19.93,0,0,1,2.83-5.121.717.717,0,0,1,.972-.143.644.644,0,0,1,.15.928,18.627,18.627,0,0,0-2.643,4.786.7.7,0,0,1-.89.4A.7.7,0,0,1,1355.959,119.869Zm18.761,19.523-.008-.009a.643.643,0,0,1,.1-.934q.246-.191.488-.385c.568-.457,1.127-.935,1.66-1.42.712-.648,1.391-1.322,2.017-2a.719.719,0,0,1,.981-.059.642.642,0,0,1,.062.937c-.653.708-1.36,1.409-2.1,2.084-.553.5-1.133,1-1.723,1.475q-.252.2-.506.4A.719.719,0,0,1,1374.72,139.392Zm35.151,28.579a.652.652,0,0,1-.141-.261.662.662,0,0,1,.5-.809,47.77,47.77,0,0,0,5.506-1.727.707.707,0,0,1,.9.37.654.654,0,0,1-.388.863,49.264,49.264,0,0,1-5.673,1.78A.716.716,0,0,1,1409.872,167.971Zm-46.914-56.89a.721.721,0,0,1-.051-.065.646.646,0,0,1,.2-.919,18.927,18.927,0,0,1,5.583-2.33.7.7,0,0,1,.843.484.663.663,0,0,1-.507.8,17.486,17.486,0,0,0-5.157,2.153A.719.719,0,0,1,1362.957,111.082Zm19.438,19.869a.64.64,0,0,1-.074-.754,19.432,19.432,0,0,0,2.121-5.029.7.7,0,0,1,.841-.487.662.662,0,0,1,.51.8,20.7,20.7,0,0,1-2.261,5.365.713.713,0,0,1-.947.252A.689.689,0,0,1,1382.4,130.951Zm38.385,32.865a.636.636,0,0,1-.077-.108.648.648,0,0,1,.273-.9,47.319,47.319,0,0,0,4.895-2.967.718.718,0,0,1,.971.147.644.644,0,0,1-.154.927,48.7,48.7,0,0,1-5.04,3.055A.718.718,0,0,1,1420.781,163.815Zm-46.613-55.3a.642.642,0,0,1-.157-.522.69.69,0,0,1,.786-.563,13.064,13.064,0,0,1,5.725,2.171.646.646,0,0,1,.155.927.717.717,0,0,1-.971.148,11.646,11.646,0,0,0-5.106-1.932A.7.7,0,0,1,1374.168,108.514ZM1385,120.174a.648.648,0,0,1-.159-.359,13.95,13.95,0,0,0-1.572-5.124.649.649,0,0,1,.3-.895.71.71,0,0,1,.937.283,15.24,15.24,0,0,1,1.721,5.6.672.672,0,0,1-.62.728A.712.712,0,0,1,1385,120.174Zm45.278,37.049a.643.643,0,0,1,.056-.911,42.973,42.973,0,0,0,3.951-4.043.718.718,0,0,1,.978-.095.644.644,0,0,1,.1.934,44.316,44.316,0,0,1-4.076,4.171.719.719,0,0,1-.983-.029Z" transform="translate(-1321.32 -107.422)" fill="#7ab6f5"/>
        </g>
        <g id="Grupo_18120" data-name="Grupo 18120" transform="translate(121.407 37.515)">
          <path id="Trazado_47166" data-name="Trazado 47166" d="M1671.728,224.019a.639.639,0,0,1-.063-.772c.5-.792.979-1.607,1.416-2.421a.711.711,0,0,1,.936-.289.649.649,0,0,1,.3.893c-.452.843-.944,1.686-1.465,2.5a.715.715,0,0,1-.955.224A.7.7,0,0,1,1671.728,224.019Z" transform="translate(-1671.564 -220.464)" fill="#7ab6f5"/>
        </g>
      </g>
      <g id="Grupo_18125" data-name="Grupo 18125" transform="translate(114.174 23.501)">
        <g id="Grupo_18122" data-name="Grupo 18122">
          <path id="Trazado_47167" data-name="Trazado 47167" d="M1672.27,178.236l-22.5,14.558,14.11,10.423Z" transform="translate(-1649.771 -178.236)" fill="#7ab6f5"/>
        </g>
        <g id="Grupo_18123" data-name="Grupo 18123" transform="translate(4.531)">
          <path id="Trazado_47168" data-name="Trazado 47168" d="M1681.392,178.236,1667.112,192l-3.689-2.141Z" transform="translate(-1663.423 -178.236)" fill="#bdd5f9"/>
        </g>
        <g id="Grupo_18124" data-name="Grupo 18124" transform="translate(9.978)">
          <path id="Trazado_47169" data-name="Trazado 47169" d="M1692.359,178.236,1679.838,193.1l5.887,4.888Z" transform="translate(-1679.838 -178.236)" fill="#bdd5f9"/>
        </g>
      </g>
    </g>
    <g id="Grupo_18129" data-name="Grupo 18129" transform="translate(377.228 93.071)">
      <g id="Grupo_18128" data-name="Grupo 18128">
        <path id="Trazado_47170" data-name="Trazado 47170" d="M1151.181,119.87l0,0c.031-.042.061-.088.092-.134l0,0c.031-.047.062-.1.094-.149a5.916,5.916,0,0,0,.37-.726,7.4,7.4,0,0,0-.566-6.832c-2.184-3.6-6.746-5.452-7.408-7.483a44.2,44.2,0,0,1-1.182-5.244.019.019,0,0,1,0-.009,8.3,8.3,0,0,0-.462-1.926,6.984,6.984,0,0,0-1.669-2.678,5.872,5.872,0,0,0-3.756-1.6,6.576,6.576,0,0,0-4.086,1.145,3.95,3.95,0,0,0-1.316,1.524,7.388,7.388,0,0,0-.429,2.554,48.479,48.479,0,0,0-.118,6.059q.01.2.022.4c.01.152.019.3.031.455,0,.014,0,.028,0,.042.036.475.082.946.141,1.411q.022.173.046.345c.014.1.028.2.043.293a17.211,17.211,0,0,0,.411,1.951q.073.264.155.517c.159.49.325,1,.5,1.518q.088.26.178.523c.392,1.14.828,2.322,1.328,3.474q.231.532.48,1.052.062.13.126.259.127.258.26.511.2.38.41.748c1.549,2.7,3.607,4.839,6.5,5.252q.394.056.772.09a11.612,11.612,0,0,0,5.171-.638q.325-.122.623-.258a9.836,9.836,0,0,0,.959-.5A8.587,8.587,0,0,0,1151,120.1q.044-.051.09-.109l0,0C1151.12,119.953,1151.151,119.913,1151.181,119.87Z" transform="translate(-1113.541 -93.071)" fill="#0a1237"/>
        <g id="Grupo_18127" data-name="Grupo 18127" transform="translate(4.218 10.976)">
          <path id="Trazado_47171" data-name="Trazado 47171" d="M1125.558,138.2a82.346,82.346,0,0,0-5.768-6.139c-1.577-1.374-5.143-1.293-6.516-1.535-.045-.007-.095-.066-.136-.038-.717.451-1.087-.028-1.269-.807a13.521,13.521,0,0,1-.087-3.538s-3.9.706-3.265,1.944a2.139,2.139,0,0,1-.032,1.622,3.09,3.09,0,0,1-.919,1.353c-.6.493-1.912.444-3.412.759-2.16.455-5.3,3.674-7.925,7.174a34.1,34.1,0,0,0-4.45,7.506c-.933,2.548,7.946,6.289,11.648,7.722l.042,1.6,9.495,3.111,7.313-4.164-.052-.814c3.863-1.539,10.68-4.531,11.054-6.639C1131.563,145.706,1128.582,141.714,1125.558,138.2Zm-29,8.61c-.864-1.2,1.3-3.23,3.356-4.775,1.6-1.2,3.15-2.112,3.15-2.112l.231,9.152.056,2.143C1100.95,150.027,1097.524,148.164,1096.555,146.811Zm30.551-.038c-.2.755-4.16,2.44-7.111,3.6l-.083-1.3-.605-9.456s1.419,1.038,3.049,2.339C1124.624,143.762,1127.292,146.066,1127.106,146.772Z" transform="translate(-1091.708 -126.143)" fill="#f8c097"/>
          <path id="Trazado_47172" data-name="Trazado 47172" d="M1145.564,129.681a2.81,2.81,0,0,1-3.384.028,2.139,2.139,0,0,0,.031-1.622c-.633-1.238,3.265-1.944,3.265-1.944A13.517,13.517,0,0,0,1145.564,129.681Z" transform="translate(-1125.404 -126.143)" fill="#d9a883"/>
        </g>
        <path id="Trazado_47173" data-name="Trazado 47173" d="M1128.887,140.808c-1.576-1.374-5.142-1.293-6.516-1.536a.635.635,0,0,1-.138-.04l-.633.6a3.442,3.442,0,0,1-4.687.028l-.585-.537a7.226,7.226,0,0,1-3.08,1.245c-2.159.455-5.3,3.673-7.925,7.173l3.686,3.044c1.6-1.2,3.148-2.115,3.148-2.115l.233,9.153h16.617l-.605-9.456s1.422,1.04,3.051,2.338l3.2-3.758A83.363,83.363,0,0,0,1128.887,140.808Z" transform="translate(-1096.588 -123.913)" fill="#f9999d"/>
        <path id="Trazado_47174" data-name="Trazado 47174" d="M1120.417,234.149l.609,3.313,4.568-.7-.687-3.758Z" transform="translate(-1106.672 -186.564)" fill="#f8c097"/>
        <rect id="Rectángulo_4459" data-name="Rectángulo 4459" width="21.861" height="12.537" transform="translate(13.065 30.675)" fill="#b4d3ff"/>
        <path id="Trazado_47175" data-name="Trazado 47175" d="M1079.37,207.065c-.93,2.263-.323,3.313,4.324,5.738s27.761,5.7,27.761,5.7l.687-3.758s-10.183-4.768-18.911-7.678S1080.188,205.072,1079.37,207.065Z" transform="translate(-1079 -167.995)" fill="#0a1237"/>
        <path id="Trazado_47176" data-name="Trazado 47176" d="M1176.794,237.691l4.378.67.478-3.365-4.168-1.063Z" transform="translate(-1144.339 -187.185)" fill="#f8c097"/>
        <path id="Trazado_47177" data-name="Trazado 47177" d="M1146.893,207.065c-8.729,2.91-18.912,7.678-18.912,7.678l.687,3.758s23.114-3.273,27.761-5.7,5.253-3.475,4.323-5.738C1159.934,205.072,1155.621,204.156,1146.893,207.065Z" transform="translate(-1111.726 -167.995)" fill="#535999"/>
        <path id="Trazado_47178" data-name="Trazado 47178" d="M1199.911,236.972c-1.364-.515-9.062,0-9.062,0l-.387-.1-.478,3.365.835.128s4.334,1.091,5.849,1.273,4.88.121,5.394-1.364S1201.275,237.487,1199.911,236.972Z" transform="translate(-1153.152 -189.062)" fill="#0a1237"/>
        <path id="Trazado_47179" data-name="Trazado 47179" d="M1097.411,236.044s-7.7-.515-9.062,0-2.667,1.818-2.152,3.3,3.879,1.546,5.395,1.364,5.849-1.273,5.849-1.273l.645-.1-.609-3.312Z" transform="translate(-1083.732 -188.442)" fill="#0a1237"/>
        <path id="Trazado_47180" data-name="Trazado 47180" d="M1139.321,139.579l-2.45-2.118-1.6,1.306,3.559,2.152Z" transform="translate(-1116.595 -122.73)" fill="#fff"/>
        <path id="Trazado_47181" data-name="Trazado 47181" d="M1147.48,139.579l2.142-2.118,1.671.721-3.32,2.737Z" transform="translate(-1124.753 -122.73)" fill="#fff"/>
        <rect id="Rectángulo_4460" data-name="Rectángulo 4460" width="4.179" height="0.714" transform="translate(16.739 23.037)" fill="#fff"/>
        <ellipse id="Elipse_995" data-name="Elipse 995" cx="4.533" cy="6.496" rx="4.533" ry="6.496" transform="translate(18.193 1.565)" fill="#f8c097"/>
        <path id="Trazado_47182" data-name="Trazado 47182" d="M1158.512,114.957a1.237,1.237,0,1,0,.7,1.48A1.164,1.164,0,0,0,1158.512,114.957Z" transform="translate(-1131.165 -107.669)" fill="#f8c097"/>
        <path id="Trazado_47183" data-name="Trazado 47183" d="M1133.416,97.946s-.976,3.195-.347,3.259a57.037,57.037,0,0,0,8.7.081l.333-3.34-5.17-2.232Z" transform="translate(-1114.984 -94.837)" fill="#0a1237"/>
      </g>
      <path id="Trazado_47184" data-name="Trazado 47184" d="M1150.832,202.241a1.067,1.067,0,1,1-1.068-1.068A1.067,1.067,0,0,1,1150.832,202.241Z" transform="translate(-1125.567 -165.297)" fill="#7ab6f5"/>
    </g>
    <g id="Grupo_18134" data-name="Grupo 18134" transform="translate(355.939 269.604)">
      <path id="Trazado_47185" data-name="Trazado 47185" d="M1057.038,977.65c0,1.062-9.444,1.924-21.093,1.924s-21.093-.861-21.093-1.924,9.444-1.924,21.093-1.924S1057.038,976.587,1057.038,977.65Z" transform="translate(-1014.852 -859.333)" fill="#d3d8f6"/>
      <g id="Grupo_18133" data-name="Grupo 18133" transform="translate(4.184 0)">
        <path id="Trazado_47186" data-name="Trazado 47186" d="M1057.735,795.029c-.156-2.049-.461-5.322-.674-7.549l-19.935-.083c-.5,2.455-4.325,19.371-5.523,25.356a19.2,19.2,0,0,0-.548,4.869c.163,2.778,1.257,5.605,2.025,8.267.683,2.371,1.385,4.737,2.079,7.1.687,2.34,1.432,4.693,2.084,7.066h6.539c-1.292-5.123-5.293-21.228-4.748-23.491.617-2.559,8.038-18.5,8.038-18.5s2.112,21.9,2.211,24.313c.06,1.594.056,10.948.019,17.68h6.757c-.116-8.078-.1-21.08-.1-22.454C1055.958,815.613,1057.99,798.375,1057.735,795.029Z" transform="translate(-1029.85 -733.504)" fill="#2a2b7d"/>
        <g id="Grupo_18130" data-name="Grupo 18130" transform="translate(17.227 63.215)" opacity="0.2">
          <path id="Trazado_47187" data-name="Trazado 47187" d="M1080.707,816.835s-2-4.275-1.112,2.406c.551,5.757,1.9,19.989,1.979,21.906.06,1.594.057,10.948.019,17.68h1.343c.038-6.732.042-16.086-.019-17.68C1082.818,838.736,1080.707,816.835,1080.707,816.835Z" transform="translate(-1079.369 -815.488)" fill="#020711"/>
        </g>
        <path id="Trazado_47188" data-name="Trazado 47188" d="M1042.4,953.379h-6.515c.19.8.363,1.6.514,2.412a4.647,4.647,0,0,1,.2,1.475.675.675,0,0,1-.074.213c-.807,1.4-8.043,3.38-8.469,4.681s14.651,1.254,15.508.629c.476-.35.142-2.925-.338-5.5C1042.953,955.858,1042.641,954.426,1042.4,953.379Z" transform="translate(-1027.849 -844.402)" fill="#fff"/>
        <path id="Trazado_47189" data-name="Trazado 47189" d="M1092.36,957.332a19.408,19.408,0,0,1-.257-2.593q-.02-.68-.034-1.36h-6.817c-.015,1.764-.031,3.167-.05,3.927-.005.2-.01.361-.016.467a27.943,27.943,0,0,0-.288,4.024,1.562,1.562,0,0,0,.762,1.3,2.04,2.04,0,0,0,.77.141c1.114.058,2.228.116,3.344.13.557.007,1.114,0,1.671-.016.339-.012,1.241.1,1.455-.225a.877.877,0,0,0,.108-.361,11.691,11.691,0,0,0-.378-4.025C1092.527,958.263,1092.437,957.8,1092.36,957.332Z" transform="translate(-1065.817 -844.402)" fill="#fff"/>
        <path id="Trazado_47190" data-name="Trazado 47190" d="M1036.221,964.87a.685.685,0,0,1-.076.219c-.826,1.435-8.241,3.464-8.677,4.8s15.012,1.285,15.889.645c.488-.359.145-3-.346-5.634Z" transform="translate(-1027.459 -852.079)" fill="#27294f"/>
        <path id="Trazado_47191" data-name="Trazado 47191" d="M1092.072,964.7l-7.582-.028c-.006.216-.011.383-.017.494a29.542,29.542,0,0,0-.3,4.262,1.656,1.656,0,0,0,.807,1.375,2.165,2.165,0,0,0,.816.149c1.18.061,2.36.122,3.542.137.59.008,1.18,0,1.77-.017.36-.013,1.315.11,1.541-.238a.927.927,0,0,0,.115-.383,12.365,12.365,0,0,0-.4-4.263C1092.249,965.683,1092.153,965.189,1092.072,964.7Z" transform="translate(-1065.328 -851.945)" fill="#27294f"/>
        <g id="Grupo_18131" data-name="Grupo 18131" transform="translate(6.543 19.426)">
          <path id="Trazado_47192" data-name="Trazado 47192" d="M1069.627,685.225c-2.318-1.868-9.531-1.685-10.485-1.673-1.3.016-2.46.071-3.484.159-.767.064-1.461.148-2.087.247-5.878.925-5.921,3.18-6.261,4.341a49.5,49.5,0,0,0-.052,7.123l0,0h8.344s-.376,15.549-.724,17.889c-.2,1.352-3.065,4.613-3.792,7.492,8.174,2.08,16.983.107,16.983.107-.1-1.184-.172-1.944-.172-1.944a14.04,14.04,0,0,0,2.317-.528,7.028,7.028,0,0,0,1.507-1.729l-3.12-2.959h0a5.582,5.582,0,0,1-1.014.7l0,0s.159-14.377,1.434-17.331l0,0c.146.127,6.4,5.523,6.4,6.211a.524.524,0,0,1-.052.174,58.839,58.839,0,0,1-3.362,5.225c-.509.744-1.017,1.481-1.479,2.15.115.082.239.168.37.255a39.162,39.162,0,0,0,3.759,2.179c.578-.674,1.208-1.411,1.856-2.176,3.178-3.746,6.8-8.143,6.993-8.949C1083.853,700.743,1071.945,687.09,1069.627,685.225Z" transform="translate(-1047.173 -683.542)" fill="#fa8796"/>
        </g>
        <path id="Trazado_47193" data-name="Trazado 47193" d="M1117.8,768.359c-1.685,1.963-2.933,3.39-2.933,3.39l-3.12-2.959a.162.162,0,0,0,.039-.076c0-.068.821-1.247,1.886-2.789.115.082.239.168.37.255A39.159,39.159,0,0,0,1117.8,768.359Z" transform="translate(-1083.776 -719.158)" fill="#b8674c"/>
        <path id="Trazado_47194" data-name="Trazado 47194" d="M1120.093,719.1a2.406,2.406,0,0,1-.736.831.516.516,0,0,0,.051-.174c0-.689-6.254-6.085-6.4-6.212.1-.921.566-4.956.72-5.384.174-.484.763,3.956,1.744,4.986s3.421,1.937,3.792,2.7S1120.409,718.374,1120.093,719.1Z" transform="translate(-1084.617 -680.542)" fill="#10172a" opacity="0.15"/>
        <path id="Trazado_47195" data-name="Trazado 47195" d="M1053.643,721.607s2.367,4.875,2.309,5.794a6.614,6.614,0,0,0,1.072,3.148c.522.864.667,3.933-.463,5.226s-2.289,3.606-2.2,4.832a5.432,5.432,0,0,1-.918,3.213c-.579,1-1.815,2.9-1.8,3.529s.464,3.808-.522,4.328a37.6,37.6,0,0,0-3.8,3.009l-3.055-.706,7.227-26.525Z" transform="translate(-1038.686 -689.548)" fill="#10172a" opacity="0.15"/>
        <path id="Trazado_47196" data-name="Trazado 47196" d="M1040.029,803.354a12.546,12.546,0,0,0,3.465,1.484.471.471,0,0,1,.382.492c-.082,1.392-.542,2.608-1.05,2.874-.56.294-.27.823.077.823h.011a.474.474,0,0,1,.271.847c-.77.6-2.269,1.2-4.481-.385a.469.469,0,0,1-.117-.122l-1.137-1.7a.478.478,0,0,1-.046-.443,17.3,17.3,0,0,1,1.551-3.216,4.624,4.624,0,0,0,.469-.53A.461.461,0,0,1,1040.029,803.354Z" transform="translate(-1034.081 -744.122)" fill="#b8674c"/>
        <path id="Trazado_47197" data-name="Trazado 47197" d="M1055.649,719.333s-.375,15.549-.723,17.89a13.961,13.961,0,0,1-.451,1.778,64.925,64.925,0,0,0-6.714-1.583,1.138,1.138,0,0,0-.52-.079c.3-3.856.563-7.949.5-8.633s-.306-5.221-.438-9.37l0,0Z" transform="translate(-1040.675 -688.029)" fill="#fa8796"/>
        <path id="Trazado_47198" data-name="Trazado 47198" d="M1052.481,775.242c-.3.987-1.019,1.16-1.47,2.4-1.182,3.252-2.3,7.738-2.535,7.836-.391.17-.393.123-1.994-.322a3.75,3.75,0,0,1-2.226-1.562,53.135,53.135,0,0,0,1.7-7.265c.095-1.055-.807-1.531-.711-2.747a1.137,1.137,0,0,1,.52.079A64.954,64.954,0,0,1,1052.481,775.242Z" transform="translate(-1038.682 -724.27)" fill="#b8674c"/>
        <path id="Trazado_47199" data-name="Trazado 47199" d="M1112.82,777.517a7.028,7.028,0,0,1-1.507,1.729,14.034,14.034,0,0,1-2.317.528l-.315-4.513,0,0,1.014-.7h0Z" transform="translate(-1081.726 -724.926)" fill="#b8674c"/>
        <g id="Grupo_18132" data-name="Grupo 18132" transform="translate(12.94 19.595)" opacity="0.15">
          <path id="Trazado_47200" data-name="Trazado 47200" d="M1080.75,706.408s-.13-.033-.134-.033c-6.524-.567-10.2-9.786-12.748-16.4a28.544,28.544,0,0,1-1.417-5.676c.626-.1,1.32-.182,2.087-.247a23.17,23.17,0,0,0,.916,3.067c2.3,5.967,6.114,14.187,11.509,16.131C1080.963,703.249,1080.805,704.992,1080.75,706.408Z" transform="translate(-1066.451 -684.051)" fill="#10172a"/>
        </g>
        <path id="Trazado_47201" data-name="Trazado 47201" d="M1061.032,637.029a15.719,15.719,0,0,0-1.51,3.126c-.932,2.547-1.4,5.866.624,8.023a3.861,3.861,0,0,0,1.594,1A72.967,72.967,0,0,1,1061.032,637.029Z" transform="translate(-1048.348 -633.039)" fill="#b8674c"/>
        <path id="Trazado_47202" data-name="Trazado 47202" d="M1091.708,658.526l0,0c.031-.059.061-.121.092-.186v0q.047-.1.092-.205h0a8.185,8.185,0,0,0,.347-.99h0a10.784,10.784,0,0,0-1.436-8.882c-2.948-4.477-8.465-6.415-9.466-9a64.357,64.357,0,0,1-1.971-6.738.029.029,0,0,1,0-.012,12.017,12.017,0,0,0-.757-2.471,9.362,9.362,0,0,0-2.245-3.327,6.484,6.484,0,0,0-6.894-1.194,7.3,7.3,0,0,0-2.27,1.506h0l-.007.007q-.139.134-.272.276l-.048.051c-.084.09-.167.182-.248.276l-.014.015c-.083.1-.164.2-.244.3l-.053.068q-.118.151-.231.307c-.16.223-.312.45-.452.684,0,.012,0,.037,0,.075-.006.215-.021.838-.021,1.747h0c0,.16,0,.329,0,.506,0,.06,0,.121,0,.183,0,.3.007.629.013.973,0,.072,0,.145,0,.219.006.279.014.57.024.872v.015c.005.147.01.3.016.449.027.718.065,1.485.118,2.283q.016.244.034.492l0,.039q.018.246.038.5c.008.106.017.212.026.319.014.164.028.328.043.493q.041.441.088.887.027.247.055.494.052.453.111.908c.021.161.043.321.066.482q.042.3.088.6a29.1,29.1,0,0,0,1.45,5.882c.441,1.145.916,2.368,1.434,3.611q.282.678.582,1.361.075.171.151.341.229.511.468,1.019c.053.112.107.225.161.337q.162.337.329.671t.339.663c2.295,4.391,5.294,8.13,9.427,8.409q.464.032.907.035a11.979,11.979,0,0,0,6.8-1.9,10.759,10.759,0,0,0,3.136-3.112c.031-.047.061-.1.092-.152l0,0C1091.646,658.64,1091.677,658.584,1091.708,658.526Z" transform="translate(-1052.948 -625.005)" fill="#0a1237"/>
        <ellipse id="Elipse_996" data-name="Elipse 996" cx="1.141" cy="1.158" rx="1.141" ry="1.158" transform="translate(12.251 9.044)" fill="#b8674c"/>
        <path id="Trazado_47203" data-name="Trazado 47203" d="M1050.7,775.688a8.143,8.143,0,0,1-1.3,3.025,1.49,1.49,0,0,1-.61-.033,48.275,48.275,0,0,1-6.361-1.636c-1.2-.408-2.04-.8-1.951-1.046.241-.673,1.148-2.323,2.241-2.417a1.138,1.138,0,0,1,.521.079,64.946,64.946,0,0,1,6.714,1.583C1050.41,775.409,1050.7,775.562,1050.7,775.688Z" transform="translate(-1036.151 -724.27)" fill="#fff"/>
        <path id="Trazado_47204" data-name="Trazado 47204" d="M1122.489,762.313a6.143,6.143,0,0,1-1.538,1.961,1.159,1.159,0,0,1-.442-.145c-.163-.072-.364-.168-.591-.283a39.174,39.174,0,0,1-3.759-2.179c-.131-.087-.255-.174-.37-.255-.591-.422-.954-.762-.86-.9.307-.446,1.29-1.476,2.11-1.328a.839.839,0,0,1,.23.077.815.815,0,0,1,.137.084s2.967,1.425,4.368,2.325c.091.058.175.115.252.168C1122.331,762.052,1122.511,762.221,1122.489,762.313Z" transform="translate(-1085.891 -714.645)" fill="#fff"/>
        <path id="Trazado_47205" data-name="Trazado 47205" d="M1096.9,774.7s1.053,5.242,1.009,6.128-.532.985-.532.985l-6.345-.637Z" transform="translate(-1069.932 -725.021)" fill="#fa8796"/>
      </g>
      <path id="Trazado_47206" data-name="Trazado 47206" d="M1049.735,946.08l.642,2.422h6.515l-.618-2.422Z" transform="translate(-1038.158 -839.525)" fill="#b8674c"/>
      <path id="Trazado_47207" data-name="Trazado 47207" d="M1086.022,948.5l.017-2.422h6.757l.044,2.422Z" transform="translate(-1062.403 -839.525)" fill="#b8674c"/>
    </g>
    <g id="Grupo_18137" data-name="Grupo 18137" transform="translate(439.445 265.773)">
      <path id="Trazado_47208" data-name="Trazado 47208" d="M1309.015,672.925c-1.6-1.378-9.713-2.006-9.713-2.006-1.627-.064-1.186.379-6.2.626s-11.85,13.32-12.622,13.21-6.561-7.984-6.561-7.984-.1-.131-.257-.34a12.588,12.588,0,0,1-.791-1.2c-.441-.781-1.946-2.2-2.324-1.93s.717,1.865.717,1.865a6.254,6.254,0,0,1-2.04.009c-1.056-.182-2.13-1.976-2.6-1.856s.293,1.581.487,2.878,2.739,1.709,2.959,1.921a2.025,2.025,0,0,1,.294.908v0c.1.2,6.554,12.792,9.617,13.613,3.087.826,7.717-3.609,7.717-3.609s-.273,7.276-.384,9.177-1.351,5.126-1.6,6.037a3.831,3.831,0,0,0,.58,2.286s-4.08,14.387-4.74,16.7-3.2,14.883-3.2,16.977,10.345,25.246,10.345,25.319a6.039,6.039,0,0,1-.6.693h6.736c-.156-.479-.274-.8-.274-.8a4.983,4.983,0,0,0,.514-1.616c-.035-.5-2.112-8.269-2.773-10.474s-1.985-6.687-2.684-8.93a17.315,17.315,0,0,1-.44-7.055c.33-1.175,6.359-16.795,6.835-16.378s2.022,14.063,2.2,15.937.075,14.183.258,15.727.607,11.807.786,12.275.881.62.881.62-.208.279-.51.7h7.405c-.422-.367-.752-.635-.857-.719l-.034-.028h0l.025-.009.012,0a2.253,2.253,0,0,0,.819-.518c.294-.34-.037-11.338.073-13.653s-.276-18.8-.11-21.662c.157-2.713.544-19.955.615-23.1,0-.179.007-.313.009-.394a14.568,14.568,0,0,0,3.217-2.361h.844c.717,0,10.088-13.285,10.639-14.773S1310.613,674.3,1309.015,672.925Zm5.39,17.58c-.33.754-6.008,10.07-6.377,10.308a3.655,3.655,0,0,1-1.065.369s.073-9.812.258-11.172.807-5.622.807-5.622S1314.735,689.753,1314.405,690.5Z" transform="translate(-1266.474 -651.846)" fill="#f5c3b8"/>
      <path id="Trazado_47209" data-name="Trazado 47209" d="M1372.1,961.461a1.569,1.569,0,0,1-1.115,1.42h-10.751s-1.129-.33-.522-1.572a29.625,29.625,0,0,1,2.094-3.216h7.405C1370.332,959.062,1372.1,960.716,1372.1,961.461Z" transform="translate(-1328.652 -843.72)" fill="#212145"/>
      <path id="Trazado_47210" data-name="Trazado 47210" d="M1323.538,961.83a7.221,7.221,0,0,1-.516,1.051h-14.607s-.238-1.733.643-2.154,4.538-.516,5.255-.975a13.323,13.323,0,0,0,1.788-1.66h6.736C1323.208,959.229,1323.8,961.234,1323.538,961.83Z" transform="translate(-1294.477 -843.72)" fill="#212145"/>
      <path id="Trazado_47211" data-name="Trazado 47211" d="M1330.922,833.162a2.253,2.253,0,0,1-.819.518l-.012,0-.025.009-6,.051s-.7-.152-.881-.62-.6-10.731-.786-12.275-.073-13.853-.258-15.727-1.726-15.523-2.2-15.937-6.505,15.2-6.835,16.378a17.317,17.317,0,0,0,.44,7.055c.7,2.243,2.022,6.725,2.684,8.93s2.739,9.977,2.773,10.474a4.987,4.987,0,0,1-.514,1.616l-5.86.11c0-.073-10.345-23.224-10.345-25.319s2.536-14.662,3.2-16.977,4.74-16.7,4.74-16.7l8.1-1.728,13.189,1.728c-.071,3.142-.459,20.384-.615,23.1-.166,2.866.221,19.347.11,21.663S1331.215,832.823,1330.922,833.162Z" transform="translate(-1290.394 -720.069)" fill="#3d4166"/>
      <path id="Trazado_47212" data-name="Trazado 47212" d="M1328.944,686.483c-1.025-1.482-2.162-2.889-3.308-4.279q-2.468-2.994-5.062-5.88a23,23,0,0,0-3.84-3.937,5.813,5.813,0,0,0-1.147-.605,13.042,13.042,0,0,0-3.287-.7c-4.047-.454-8.469-.67-12.445.344a7.888,7.888,0,0,0-4.511,2.894,55.253,55.253,0,0,0-4.046,5.723c-.663,1.078-1.3,2.176-1.964,3.251-.129.208-.689,1.367-1.026,1.319-.771-.11-6.561-7.984-6.561-7.984s-.1-.131-.257-.34l-3.3,2.591v0c.1.2,6.554,12.792,9.617,13.613,3.087.826,7.717-3.609,7.717-3.609v0c-.006.163-.274,7.294-.384,9.174a23.8,23.8,0,0,1-1.282,5.041c-.143.431-.259.779-.318,1a3.831,3.831,0,0,0,.58,2.286s14.062,1.595,21.286,0c0-.179.007-.313.009-.394a14.568,14.568,0,0,0,3.217-2.361h.844c.717,0,10.088-13.285,10.639-14.773C1330.358,688.209,1329.266,686.947,1328.944,686.483Zm-6.71,3.884c-.33.754-6.008,10.07-6.377,10.308a3.655,3.655,0,0,1-1.065.369s.073-9.812.258-11.172.807-5.622.807-5.622a67.845,67.845,0,0,1,5.836,5.189C1322.084,689.879,1322.3,690.216,1322.234,690.366Z" transform="translate(-1274.303 -651.708)" fill="#7ab6f5"/>
      <path id="Trazado_47213" data-name="Trazado 47213" d="M1392.32,763.968a14.567,14.567,0,0,1-3.217,2.361l-.624-4.952a3.653,3.653,0,0,0,1.065-.369Z" transform="translate(-1347.989 -712.042)" fill="#f5c3b8"/>
      <g id="Grupo_18135" data-name="Grupo 18135" transform="translate(19.557 27.863)" opacity="0.2">
        <path id="Trazado_47214" data-name="Trazado 47214" d="M1330.388,717.168c.019,1.717.588,5.172-.367,6s-2.187,2.094-2.316,3.2-.036,4.116-1.01,4.686a3.457,3.457,0,0,1-1.29.338,23.812,23.812,0,0,0,1.282-5.041c.11-1.88.378-9.011.384-9.174l0,0s4.97-4.382,5.3-4.125S1330.37,715.45,1330.388,717.168Z" transform="translate(-1325.405 -707.851)" fill="#10172a"/>
        <path id="Trazado_47215" data-name="Trazado 47215" d="M1397.524,707.286a67.845,67.845,0,0,0-5.836-5.189s.92-4.188,1.03-4.63-.185,2.352.569,3.491a6.067,6.067,0,0,0,2.555,2.333,2.763,2.763,0,0,1,1.653,1.507A16.859,16.859,0,0,1,1397.524,707.286Z" transform="translate(-1369.691 -697.42)" fill="#10172a"/>
      </g>
      <path id="Trazado_47216" data-name="Trazado 47216" d="M1338.371,956.476h-6.736a6.071,6.071,0,0,0,.6-.693l5.86-.111S1338.215,956,1338.371,956.476Z" transform="translate(-1310.01 -842.103)" fill="#fff"/>
      <path id="Trazado_47217" data-name="Trazado 47217" d="M1373.791,956.587h-7.405c.3-.418.51-.7.51-.7l6-.051h0l.034.028Z" transform="translate(-1333.228 -842.214)" fill="#fff"/>
      <g id="Grupo_18136" data-name="Grupo 18136" transform="translate(25.149 0)">
        <path id="Trazado_47218" data-name="Trazado 47218" d="M1353.441,640.11s.222-.336.549-.862a4.684,4.684,0,0,1-2.6,1.029,5.413,5.413,0,0,1-5.486-3.214s-1.656-4.713-2.809-6.212c-.117-.15-.225-.3-.33-.444-.016.284-.036.437-.036.437s-1.225,8.371.271,9.589,4.027.467,4.027.467v3.387a23.042,23.042,0,0,0,6.878.349,9.687,9.687,0,0,1-.206-2.267l-.088-.83c-.049-.421-.1-.846-.15-1.267C1353.454,640.218,1353.448,640.165,1353.441,640.11Z" transform="translate(-1342.254 -624.783)" fill="#f5c3b8"/>
        <path id="Trazado_47219" data-name="Trazado 47219" d="M1343.708,619.254c.109.15.221.3.341.457,1.194,1.536,2.912,6.374,2.914,6.379a5.288,5.288,0,0,0,4.909,3.256,5.372,5.372,0,0,0,3.313-1.053,7.962,7.962,0,0,0,1.778-2.769,10.209,10.209,0,0,0,1.061-4.912,6.8,6.8,0,0,0-3.1-5.311c-1.7-1.183-4.121-2.158-6.221-1.742a6.763,6.763,0,0,0-4.181,3.226,5.5,5.5,0,0,0-.648,1.432C1343.825,618.391,1343.588,619.089,1343.708,619.254Z" transform="translate(-1343.203 -613.461)" fill="#0a1237"/>
        <ellipse id="Elipse_997" data-name="Elipse 997" cx="1.248" cy="1.466" rx="1.248" ry="1.466" transform="translate(1.663 8.894)" fill="#f5c3b8"/>
        <path id="Trazado_47220" data-name="Trazado 47220" d="M1358.887,667.609s-5.772.707-9.04-.1a5.131,5.131,0,0,1-1.211,1.113s4.437,3.493,11.778.288A16.044,16.044,0,0,0,1358.887,667.609Z" transform="translate(-1346.519 -649.573)" fill="#bdd5f9"/>
      </g>
      <path id="Trazado_47221" data-name="Trazado 47221" d="M1280.125,685.2l-4.215,2.9.72,2.127,4.729-3.176Z" transform="translate(-1272.778 -661.392)" fill="#bdd5f9"/>
      <path id="Trazado_47222" data-name="Trazado 47222" d="M1389.512,758l3.85,3.637,1.97-1.225-4.243-4.1Z" transform="translate(-1348.68 -708.907)" fill="#bdd5f9"/>
      <ellipse id="Elipse_998" data-name="Elipse 998" cx="25.346" cy="2.311" rx="25.346" ry="2.311" transform="translate(3.78 116.767)" fill="#312783" opacity="0.2"/>
    </g>
    <g id="Grupo_18143" data-name="Grupo 18143" transform="translate(85.86 106.08)">
      <g id="Grupo_18141" data-name="Grupo 18141">
        <g id="Grupo_18138" data-name="Grupo 18138">
          <path id="Trazado_47223" data-name="Trazado 47223" d="M201.042,132.271l23.774,10.4-11.343,12.7Z" transform="translate(-201.042 -132.271)" fill="#7ab6f5"/>
        </g>
        <g id="Grupo_18139" data-name="Grupo 18139">
          <path id="Trazado_47224" data-name="Trazado 47224" d="M201.042,132.271l15.914,11.05,3.072-2.747Z" transform="translate(-201.042 -132.271)" fill="#bdd5f9"/>
        </g>
        <g id="Grupo_18140" data-name="Grupo 18140">
          <path id="Trazado_47225" data-name="Trazado 47225" d="M201.042,132.271l14.464,12.437-4.634,5.831Z" transform="translate(-201.042 -132.271)" fill="#bdd5f9"/>
        </g>
      </g>
      <g id="Grupo_18142" data-name="Grupo 18142" transform="translate(13.821 2.127)">
        <path id="Trazado_47226" data-name="Trazado 47226" d="M389.291,160.569a36.621,36.621,0,0,0-2.881-4.727.664.664,0,1,1,1.078-.774,37.941,37.941,0,0,1,2.986,4.9.664.664,0,0,1-.291.892l-.032.015A.664.664,0,0,1,389.291,160.569Zm-6.435-8.976a38.656,38.656,0,0,0-4.132-3.691.664.664,0,1,1,.811-1.051,39.957,39.957,0,0,1,4.275,3.819.664.664,0,1,1-.953.924Zm-8.753-6.749a37.2,37.2,0,0,0-5.016-2.345.664.664,0,1,1,.47-1.241,38.5,38.5,0,0,1,5.2,2.429.664.664,0,1,1-.65,1.157Zm-10.328-3.911a41.889,41.889,0,0,0-5.489-.806.664.664,0,1,1,.107-1.323,43.241,43.241,0,0,1,5.664.832.664.664,0,0,1-.282,1.3Zm-11.049-.926c-1.8.063-3.667.224-5.553.478A.664.664,0,1,1,347,139.17c1.929-.26,3.841-.424,5.683-.489a.664.664,0,1,1,.047,1.326Zm-11.05,1.462c-1.766.391-3.587.865-5.414,1.408a.664.664,0,0,1-.379-1.272c1.858-.553,3.71-1.034,5.506-1.432a.664.664,0,1,1,.287,1.3Zm-10.734,3.168c-1.664.6-3.378,1.262-5.239,2.02a.664.664,0,1,1-.5-1.229c1.878-.765,3.608-1.432,5.289-2.04a.664.664,0,0,1,.5,1.231Zm-20.719,8.81c-1.983.878-3.632,1.592-5.191,2.244a.664.664,0,1,1-.513-1.224c1.549-.649,3.191-1.359,5.166-2.234a.664.664,0,0,1,.538,1.214Zm4.275-2.64a.664.664,0,0,1,.334-.877q1.49-.669,2.982-1.333c.731-.323,1.452-.643,2.18-.961a.664.664,0,0,1,.536,1.215l0,0q-1.047.457-2.091.922c-1.022.456-2.039.91-3.058,1.367h0A.664.664,0,0,1,314.5,150.808Zm-14.728,6.985c-1.835.691-3.638,1.32-5.358,1.869a.664.664,0,1,1-.4-1.265c1.7-.542,3.48-1.164,5.295-1.847a.664.664,0,0,1,.5,1.227Zm-10.825,3.429c-1.894.473-3.769.864-5.573,1.164a.664.664,0,0,1-.218-1.31c1.77-.294,3.61-.679,5.47-1.143a.664.664,0,0,1,.431,1.25A.684.684,0,0,1,288.944,161.222Zm-11.237,1.837a51.058,51.058,0,0,1-5.712.08.664.664,0,0,1,.058-1.326,49.66,49.66,0,0,0,5.562-.078.664.664,0,1,1,.092,1.324Zm-11.4-.531a39.153,39.153,0,0,1-5.557-1.418.664.664,0,1,1,.421-1.259,37.856,37.856,0,0,0,5.368,1.37.664.664,0,1,1-.233,1.307Zm-10.846-3.641a35.379,35.379,0,0,1-4.885-3.023.664.664,0,0,1,.79-1.067,34.072,34.072,0,0,0,4.7,2.909.664.664,0,1,1-.606,1.181Zm-9.187-6.847a28.017,28.017,0,0,1-3.487-4.594.664.664,0,1,1,1.136-.687,26.709,26.709,0,0,0,3.321,4.375.663.663,0,0,1-.033.938.655.655,0,0,1-.183.121A.664.664,0,0,1,246.27,152.04Z" transform="translate(-242.687 -138.681)" fill="#7ab6f5"/>
      </g>
    </g>
    <path id="Trazado_47227" data-name="Trazado 47227" d="M228.573,390.661v-5.244h-4.452a11.629,11.629,0,0,0-1.483-3.578l3.149-3.149-3.708-3.708-3.149,3.149a11.617,11.617,0,0,0-3.578-1.483V372.2h-5.244v4.453a11.618,11.618,0,0,0-3.578,1.483l-3.149-3.149-3.708,3.708,3.149,3.149a11.612,11.612,0,0,0-1.483,3.578h-4.452v5.244h4.452a11.612,11.612,0,0,0,1.483,3.578l-3.149,3.149,3.708,3.708,3.149-3.149a11.619,11.619,0,0,0,3.578,1.483v4.453h5.244V399.43a11.618,11.618,0,0,0,3.578-1.483l3.149,3.149,3.708-3.708-3.149-3.149a11.629,11.629,0,0,0,1.483-3.578Zm-21.73-2.018a5.918,5.918,0,1,1,5.283,5.283A5.919,5.919,0,0,1,206.843,388.643Z" transform="translate(-112.406 -186.492)" fill="#fff"/>
    <g id="Grupo_18144" data-name="Grupo 18144" transform="translate(555.697 207.88)">
      <path id="Trazado_47228" data-name="Trazado 47228" d="M1631.412,463.263a3.1,3.1,0,0,1-2.191-.907l-11.544-11.544a3.1,3.1,0,0,1,4.382-4.382l9.116,9.116,12.514-15.385a3.1,3.1,0,0,1,4.808,3.911l-14.681,18.048a3.1,3.1,0,0,1-2.245,1.139C1631.518,463.262,1631.465,463.263,1631.412,463.263Z" transform="translate(-1616.77 -439.018)" fill="#fff"/>
    </g>
    <g id="Grupo_18145" data-name="Grupo 18145" transform="translate(577.557 288.895)">
      <path id="Trazado_47229" data-name="Trazado 47229" d="M1691.817,707.614l-1-8.126.251-.251q9.279-.35,9.28-5.718a4.294,4.294,0,0,0-1.555-3.461,6.351,6.351,0,0,0-4.214-1.3q-4.465,0-8.177,3.963l-3.762-4.013a15.5,15.5,0,0,1,12.089-5.568,12.56,12.56,0,0,1,8.527,2.784,9.424,9.424,0,0,1,3.211,7.5,8.711,8.711,0,0,1-2.759,6.9,14.648,14.648,0,0,1-7.324,3.235l-.5,4.063Zm-1.455,11.086v-6.872h6.722V718.7Z" transform="translate(-1682.638 -683.135)" fill="#fff"/>
    </g>
    <g id="Grupo_18146" data-name="Grupo 18146" transform="translate(72.669 263.643)">
      <path id="Trazado_47230" data-name="Trazado 47230" d="M164.379,645.966l-3.087-36.077v-2.844H172.83v2.844l-3.006,36.077ZM161.7,663.923V652.791h10.807v11.132Z" transform="translate(-161.292 -607.045)" fill="#fff"/>
    </g>
  </g>
</svg>
