<svg xmlns="http://www.w3.org/2000/svg" xmlns:xlink="http://www.w3.org/1999/xlink" width="217" height="217" viewBox="0 0 217 217">
  <defs>
    <clipPath id="clip-path">
      <path id="Trazado_45223" data-name="Trazado 45223" d="M632.285,586.022c-17.584-.555-32.121,7.971-32.471,19.043-.158,4.993,2.6,9.645,7.287,13.308a45.214,45.214,0,0,1,9.268-.659,44.53,44.53,0,0,1,23.979,7.827c13.123-2.1,14.337-9.7,14.623-18.733C655.32,595.737,649.867,586.579,632.285,586.022Z" fill="none"/>
    </clipPath>
  </defs>
  <g id="Grupo_21273" data-name="Grupo 21273" transform="translate(-422 -3754)">
    <circle id="Elipse_944" data-name="Elipse 944" cx="108.5" cy="108.5" r="108.5" transform="translate(422 3754)" fill="#fae7b7"/>
    <g id="Grupo_12227" data-name="Grupo 12227" transform="translate(12 1661)">
      <g id="Grupo_12226" data-name="Grupo 12226" transform="translate(-98.182 1588.854)">
        <g id="Grupo_12219" data-name="Grupo 12219">
          <path id="Trazado_45207" data-name="Trazado 45207" d="M619.078,538.567c6.374-7.167,16.532-8.543,22.681-3.073s5.964,15.717-.414,22.884-16.528,8.541-22.678,3.07S612.7,545.734,619.078,538.567Z" fill="#fec00f"/>
          <path id="Trazado_45208" data-name="Trazado 45208" d="M619.381,538.836c6.179-6.948,15.488-8.759,20.789-4.043s4.588,14.171-1.595,21.12-15.485,8.759-20.79,4.041S613.2,545.784,619.381,538.836Z" fill="#f99b1c"/>
          <path id="Trazado_45209" data-name="Trazado 45209" d="M621.044,540.1c4.867-5.473,12.2-6.9,16.373-3.185s3.613,11.162-1.256,16.634-12.2,6.9-16.372,3.182S616.177,545.575,621.044,540.1Z" fill="#fec00f"/>
          <g id="Grupo_12218" data-name="Grupo 12218">
            <path id="Trazado_45210" data-name="Trazado 45210" d="M634.311,541.48a4.355,4.355,0,0,1,.939,1.71,5.372,5.372,0,0,1,.172,1.959l-.925.375a.548.548,0,0,1-.257.036.355.355,0,0,1-.217-.093.544.544,0,0,1-.134-.392c-.005-.194-.025-.418-.049-.684a4.608,4.608,0,0,0-.175-.851,2.622,2.622,0,0,0-.5-.9l-4.088,4.128a11.767,11.767,0,0,1,.511,1.151,3.877,3.877,0,0,1,.252,1.234,3.437,3.437,0,0,1-.245,1.354,4.972,4.972,0,0,1-.974,1.5,5.252,5.252,0,0,1-1.215,1.007,4.351,4.351,0,0,1-1.416.548,3.54,3.54,0,0,1-1.481-.02,3.06,3.06,0,0,1-1.4-.734l-1.12,1.134a.8.8,0,0,1-.34.2.336.336,0,0,1-.326-.072l-.411-.365,1.524-1.54a3.577,3.577,0,0,1-.734-1.443,5.523,5.523,0,0,1-.133-1.563l.751-.3c.231-.089.4-.081.5.014a.48.48,0,0,1,.127.292c.022.143.057.311.1.514a5.3,5.3,0,0,0,.179.635,2.269,2.269,0,0,0,.368.673l3.721-3.764c-.19-.385-.368-.783-.535-1.181a4.088,4.088,0,0,1-.294-1.248,3.214,3.214,0,0,1,.186-1.34,4.234,4.234,0,0,1,.9-1.451,6.6,6.6,0,0,1,1.42-1.217,4.838,4.838,0,0,1,1.557-.656,3.978,3.978,0,0,1,1.586-.019,3.1,3.1,0,0,1,1.465.752l1.371-1.4a.7.7,0,0,1,.342-.185.335.335,0,0,1,.319.071l.41.365Zm-6.86,9.74a2.641,2.641,0,0,0,.5-.775,2.117,2.117,0,0,0,.159-.769,2.646,2.646,0,0,0-.089-.775,5.734,5.734,0,0,0-.282-.773l-3.464,3.514a2.589,2.589,0,0,0,.891.412,2.192,2.192,0,0,0,.852.027,2.3,2.3,0,0,0,.766-.3A2.821,2.821,0,0,0,627.451,551.22Zm1.366-8.494a2.57,2.57,0,0,0-.506.8,2.054,2.054,0,0,0-.139.786,2.915,2.915,0,0,0,.142.785,7.885,7.885,0,0,0,.315.8l3.832-3.879a2.494,2.494,0,0,0-.927-.406,2.355,2.355,0,0,0-.946,0,2.761,2.761,0,0,0-.916.376A4.071,4.071,0,0,0,628.817,542.726Z" fill="#f99b1c"/>
          </g>
        </g>
        <g id="Grupo_12221" data-name="Grupo 12221">
          <path id="Trazado_45211" data-name="Trazado 45211" d="M608.68,567.521c7.759,6.222,9.259,17.235,3.356,24.593s-16.984,8.276-24.739,2.05-9.26-17.238-3.355-24.6S600.922,561.294,608.68,567.521Z" fill="#fec00f"/>
          <path id="Trazado_45212" data-name="Trazado 45212" d="M608.381,567.89c7.519,6.038,9.364,16.232,4.116,22.773s-15.6,6.948-23.124.912-9.362-16.228-4.112-22.768S600.86,561.857,608.381,567.89Z" fill="#f99b1c"/>
          <path id="Trazado_45213" data-name="Trazado 45213" d="M606.36,570.407c5.924,4.751,7.374,12.783,3.242,17.932s-12.288,5.475-18.208.721-7.375-12.782-3.242-17.933S600.439,565.655,606.36,570.407Z" fill="#fec00f"/>
          <g id="Grupo_12220" data-name="Grupo 12220">
            <path id="Trazado_45214" data-name="Trazado 45214" d="M604.648,585.444a5.562,5.562,0,0,1-1.884,1.27,6.046,6.046,0,0,1-2.15.441l-.4-.986a.6.6,0,0,1-.034-.282.5.5,0,0,1,.1-.257.675.675,0,0,1,.431-.2c.213-.034.463-.083.751-.145a5.464,5.464,0,0,0,.936-.307,3.335,3.335,0,0,0,.991-.675l-4.463-4.05c-.412.258-.835.5-1.269.718a4.494,4.494,0,0,1-1.356.443,3.641,3.641,0,0,1-1.481-.1,4.647,4.647,0,0,1-1.631-.9,4.779,4.779,0,0,1-1.089-1.233,4.352,4.352,0,0,1-.579-1.515,4.143,4.143,0,0,1,.046-1.663,4,4,0,0,1,.826-1.659l-1.226-1.112a.766.766,0,0,1-.208-.355.4.4,0,0,1,.083-.375l.408-.509,1.662,1.51a4.6,4.6,0,0,1,1.6-1.007,6.322,6.322,0,0,1,1.713-.345l.314.8a.553.553,0,0,1-.015.566.657.657,0,0,1-.328.176c-.154.045-.342.1-.559.176a6.033,6.033,0,0,0-.7.281,2.942,2.942,0,0,0-.743.5l4.071,3.686c.424-.263.861-.514,1.3-.749a4.788,4.788,0,0,1,1.371-.491,3.41,3.41,0,0,1,1.468.036,3.9,3.9,0,0,1,1.576.826,5.947,5.947,0,0,1,1.31,1.432,4.784,4.784,0,0,1,.7,1.66,4.5,4.5,0,0,1,0,1.775,4.057,4.057,0,0,1-.845,1.736l1.51,1.358a.714.714,0,0,1,.2.36.424.424,0,0,1-.085.364l-.408.51Zm-10.567-6.439a2.477,2.477,0,0,0,.841.464,2.207,2.207,0,0,0,.843.078,3.041,3.041,0,0,0,.847-.2,7.385,7.385,0,0,0,.854-.412l-3.8-3.433a3.371,3.371,0,0,0-.467,1.051,2.464,2.464,0,0,0-.039.954,2.234,2.234,0,0,0,.319.826A2.618,2.618,0,0,0,594.081,579.005Zm9.291.445a2.367,2.367,0,0,0-.875-.465,2.091,2.091,0,0,0-.859-.054,3.24,3.24,0,0,0-.865.259,8.938,8.938,0,0,0-.874.455l4.191,3.794a3.218,3.218,0,0,0,.461-1.088,2.646,2.646,0,0,0-.382-2.038A3.8,3.8,0,0,0,603.372,579.45Z" fill="#f99b1c"/>
          </g>
        </g>
        <path id="Trazado_45215" data-name="Trazado 45215" d="M666.651,638.078a9.473,9.473,0,0,0-2.7-6.628,9.685,9.685,0,0,1,.163,1.542,9.51,9.51,0,0,1-5.148,8.419c-3.615-16.035-21.13-28.193-42.209-28.193a51.9,51.9,0,0,0-17.69,3.049,9.338,9.338,0,0,0-11.866-2.462v8.866a33.808,33.808,0,0,0-11.824,15.8H572.9a5.721,5.721,0,0,0-5.721,5.716v6.68a5.724,5.724,0,0,0,5.721,5.72h2.478a33.8,33.8,0,0,0,11.824,15.8v10.893a5.723,5.723,0,0,0,5.721,5.719H599.6a5.725,5.725,0,0,0,5.723-5.719V680.61a53.261,53.261,0,0,0,24.785-.456v3.135a5.722,5.722,0,0,0,5.717,5.719h6.687a5.721,5.721,0,0,0,5.714-5.719V670.864c7.1-6.127,11.439-14.319,11.439-23.328,0-.108-.01-.205-.01-.306A9.5,9.5,0,0,0,666.651,638.078Z" fill="#ec8558"/>
        <path id="Trazado_45216" data-name="Trazado 45216" d="M588.373,636.674c-1.386,1.776-3.192,2.673-4.04,2.018s-.4-2.637.989-4.409,3.2-2.676,4.044-2.016S589.767,634.9,588.373,636.674Z" fill="#103754"/>
        <path id="Trazado_45217" data-name="Trazado 45217" d="M607.373,614.048a3.086,3.086,0,0,0-.06.857,3.182,3.182,0,0,0,3.431,2.919,46.794,46.794,0,0,1,26,5.224,3.182,3.182,0,0,0,4.6-3.636,50.352,50.352,0,0,0-24.582-6.194A53.244,53.244,0,0,0,607.373,614.048Z" fill="#d46f41"/>
        <path id="Trazado_45218" data-name="Trazado 45218" d="M567.182,647.811v3.061a5.724,5.724,0,0,0,5.721,5.72h2.478a33.8,33.8,0,0,0,11.824,15.8v10.893a5.723,5.723,0,0,0,5.721,5.719H599.6a5.725,5.725,0,0,0,5.723-5.719V680.61a53.261,53.261,0,0,0,24.785-.456v3.135a5.722,5.722,0,0,0,5.717,5.719h6.687a5.721,5.721,0,0,0,5.714-5.719V670.864c7.027-6.064,11.342-14.152,11.429-23.053Z" fill="#d46f41"/>
        <g id="Grupo_12225" data-name="Grupo 12225">
          <g id="Grupo_12224" data-name="Grupo 12224" clip-path="url(#clip-path)">
            <g id="Grupo_12223" data-name="Grupo 12223">
              <path id="Trazado_45219" data-name="Trazado 45219" d="M643.435,607.554a17.5,17.5,0,1,1-17.5-17.491A17.5,17.5,0,0,1,643.435,607.554Z" fill="#fec00f"/>
              <path id="Trazado_45220" data-name="Trazado 45220" d="M642.9,607.554A16.961,16.961,0,1,1,625.939,590.6,16.963,16.963,0,0,1,642.9,607.554Z" fill="#f99b1c"/>
              <path id="Trazado_45221" data-name="Trazado 45221" d="M639.3,607.554A13.357,13.357,0,1,1,625.939,594.2,13.356,13.356,0,0,1,639.3,607.554Z" fill="#fec00f"/>
              <g id="Grupo_12222" data-name="Grupo 12222">
                <path id="Trazado_45222" data-name="Trazado 45222" d="M625,615.4a6.892,6.892,0,0,1-2.425-.656,6.637,6.637,0,0,1-1.889-1.36l.584-.9a.567.567,0,0,1,.22-.2.594.594,0,0,1,.3-.078.8.8,0,0,1,.472.207c.178.143.393.3.651.479a6.76,6.76,0,0,0,.921.527,4.233,4.233,0,0,0,1.278.338l.409-5.846c-.509-.154-1.019-.326-1.51-.523a5.179,5.179,0,0,1-1.338-.758,3.5,3.5,0,0,1-.943-1.184,3.919,3.919,0,0,1-.36-1.782,4.172,4.172,0,0,1,.315-1.573,4.126,4.126,0,0,1,.915-1.362,4.628,4.628,0,0,1,1.48-.975,5.072,5.072,0,0,1,2.025-.384l.109-1.6a.643.643,0,0,1,.166-.371.475.475,0,0,1,.384-.167h.725l-.15,2.178a5.636,5.636,0,0,1,1.991.6,6.879,6.879,0,0,1,1.5,1.089l-.474.725a.613.613,0,0,1-.506.331.769.769,0,0,1-.379-.138c-.15-.091-.333-.2-.549-.319s-.457-.24-.732-.361a3.76,3.76,0,0,0-.957-.26l-.366,5.328c.527.163,1.047.339,1.564.528a5.522,5.522,0,0,1,1.384.742,3.391,3.391,0,0,1,.995,1.135,3.355,3.355,0,0,1,.383,1.691,5.222,5.222,0,0,1-.33,1.868,4.607,4.607,0,0,1-.961,1.536,4.96,4.96,0,0,1-1.552,1.075,5.053,5.053,0,0,1-2.1.415l-.128,1.969a.605.605,0,0,1-.173.372.5.5,0,0,1-.378.158h-.727Zm-1.778-11.921a2.11,2.11,0,0,0,.184.919,2.15,2.15,0,0,0,.518.688,3.544,3.544,0,0,0,.768.52,9.16,9.16,0,0,0,.957.4l.334-4.967a4.194,4.194,0,0,0-1.241.287,2.832,2.832,0,0,0-.858.549,2.138,2.138,0,0,0-.5.743A2.242,2.242,0,0,0,623.222,603.478Zm6.107,7.31a2.008,2.008,0,0,0-.206-.945,2.121,2.121,0,0,0-.555-.683,3.529,3.529,0,0,0-.828-.495,10.228,10.228,0,0,0-1.009-.389l-.376,5.483a3.95,3.95,0,0,0,1.272-.316,2.933,2.933,0,0,0,.934-.632,2.486,2.486,0,0,0,.572-.895A3.1,3.1,0,0,0,629.329,610.788Z" fill="#f99b1c"/>
              </g>
            </g>
          </g>
        </g>
      </g>
    </g>
  </g>
</svg>
