<svg xmlns="http://www.w3.org/2000/svg" width="358.198" height="319.864" viewBox="0 0 358.198 319.864">
  <g id="Grupo_12217" data-name="Grupo 12217" transform="translate(0)">
    <path id="Trazado_45096" data-name="Trazado 45096" d="M840.713,1380.619V1670.35c16.921,6.728,32.589,13.936,43.816,12.911,32.16-2.939,34.237-52.483,116.754-23.583,79.7,27.914,111.161-56.561,66.417-93.289-61.5-50.481-59.639-91.567-42.727-111.207,19.927-23.141,45.716,8.047,76.562,1.1,29.366-6.612,20.976-35.263,44.049-54,12.34-10.018,40.486-10.077,53.328-21.67Z" transform="translate(-840.713 -1380.619)" fill="#e9f6ff"/>
    <g id="Grupo_12181" data-name="Grupo 12181" transform="translate(132.685 132.044)">
      <path id="Trazado_45097" data-name="Trazado 45097" d="M1482.15,2335.97c-.266.356-.068,1.294-.068,1.294s4.692.592,6.2.205a7.676,7.676,0,0,0,1.675-.856c.108-.066.293-.462.392-.526.189-.123.287.085.449-.029a5.447,5.447,0,0,0,.714-.539c.4-2.357-.147-3.311-.147-3.311s-4-1.469-4.745-.458C1484.869,2334.134,1482.734,2335.19,1482.15,2335.97Z" transform="translate(-1406.322 -2154.722)" fill="#163f59"/>
      <path id="Trazado_45098" data-name="Trazado 45098" d="M1600.926,2330.407l-.7,3.816H1598.4s-.2-.543-.519-.543c-.262,0-.6.543-.963.543h-9.437s-.167-.806.037-1.082a3.668,3.668,0,0,1,1.139-.51c1.918-.565,7.4-2.33,8.358-4.249C1598.167,2326.044,1600.926,2330.407,1600.926,2330.407Z" transform="translate(-1549.811 -2152.221)" fill="#163f59"/>
      <g id="Grupo_12178" data-name="Grupo 12178" transform="translate(10.476 21.794)">
        <path id="Trazado_45099" data-name="Trazado 45099" d="M1498.381,2061.283l3.91-2.179.463-.486-.543-.87-.861.106.155-2.548-4.1-.727-2.1-.984,1.94,6.911" transform="translate(-1432.208 -1988.918)" fill="#e9d6b8"/>
        <path id="Trazado_45100" data-name="Trazado 45100" d="M1594.676,1874.39s4.384,4.825-9.109,17.567-15.952,9.017-15.952,9.017l-4.077-2.713-3.023-14.181,6.512-1.512.709.835a2.47,2.47,0,0,0,2.105-.859c.7-1,5.17-4.349,11.614-12.632C1586.428,1866.1,1593.84,1873.453,1594.676,1874.39Z" transform="translate(-1546.632 -1864.141)" fill="#d1dbea"/>
        <path id="Trazado_45101" data-name="Trazado 45101" d="M1658.969,1884.63s-13.607-.246-14.692-14.414c-.324-4.211-1.4-.139-2.143,3.883s1.744,15.355,9.014,19.91,10.376,5.672,13.184,3.817S1658.969,1884.63,1658.969,1884.63Z" transform="translate(-1642.008 -1863.881)" fill="#e9d6b8"/>
        <path id="Trazado_45102" data-name="Trazado 45102" d="M1559.3,2228.192s2.116,3.061,3.669.2c3.579-6.6,8.9-22.912,9.085-30.336a76.082,76.082,0,0,0-1.548-18.046l-11.343-3.7Z" transform="translate(-1522.273 -2071.784)" fill="#163f59"/>
        <path id="Trazado_45103" data-name="Trazado 45103" d="M1545.776,2023.78l-.516,48.779,10.312,5.693a70.247,70.247,0,0,0,6.96-26.494c.328-6.309.492-20.455-3.034-25.265C1554.712,2019.974,1545.776,2023.78,1545.776,2023.78Z" transform="translate(-1508.366 -1968.037)" fill="#163f59"/>
        <path id="Trazado_45104" data-name="Trazado 45104" d="M1482.194,2022.981l1.682,16.885,4.585,18.315,4.878,17.115,17.416,47.512,5.071.412s-.639-35.664-6.825-46.065c-3.276-5.5-3.272-17.717-4.784-30.87-.27-2.369,1.068-7.724.854-9.884a35.274,35.274,0,0,0-5.243-14.909Z" transform="translate(-1441.021 -1967.238)" fill="#194866"/>
        <path id="Trazado_45105" data-name="Trazado 45105" d="M1498.617,1919.706l22.339-.494,9.537-31.94s6.191-19.315-5.669-19.563-25.524-.244-25.524-.244S1489.507,1885.475,1498.617,1919.706Z" transform="translate(-1461.377 -1863.223)" fill="#d1dbea"/>
        <path id="Trazado_45106" data-name="Trazado 45106" d="M1460.022,1999.623l-14.148,17.218s.512,2.51,1.646,1.177c.136-.158-.547-.665.313-1.136,3.479-1.9,11.637-4.817,14.664-7.737a50.4,50.4,0,0,0,6.8-8.358Z" transform="translate(-1382.696 -1952.47)" fill="#e9d6b8"/>
        <path id="Trazado_45107" data-name="Trazado 45107" d="M1568.468,1881.274s-10.393,17.923-7.443,37.758a4.679,4.679,0,0,0,2.093,2.679l2.555-2.231S1565.472,1897.028,1568.468,1881.274Z" transform="translate(-1519.089 -1872.549)" fill="#387bff"/>
        <path id="Trazado_45108" data-name="Trazado 45108" d="M1536.7,1872.608l.565,3.958,6.791-6.432v-.992Z" transform="translate(-1486.948 -1864.356)" fill="#b0bfde"/>
        <path id="Trazado_45109" data-name="Trazado 45109" d="M1561.522,1871.946l-1.192,5.151,3.014-2.6Z" transform="translate(-1513.911 -1866.25)" fill="#b0bfde"/>
        <path id="Trazado_45110" data-name="Trazado 45110" d="M1632.341,1916.528l-1.769-3.2-.786-1.241a2.655,2.655,0,0,1-1.808.534l1.763,2.139,1.62,2.9.91,4.418Z" transform="translate(-1604.873 -1893.355)" fill="#b0bfde"/>
        <path id="Trazado_45111" data-name="Trazado 45111" d="M1439.762,1887.313l7.769,22.377,1.682.669-.935,1.486,9.58,1.668,4.209-7.315-11.19-30.365s-4.327-6.384-13.965-7.444C1429.93,1867.621,1439.2,1885.451,1439.762,1887.313Z" transform="translate(-1371.719 -1863.831)" fill="#d1dbea"/>
        <path id="Trazado_45112" data-name="Trazado 45112" d="M1455.65,1991.427s-6.532,1.223-9.963,1.744l.734.292-.935,1.486,3.316.55,4.83.108.756-1.788-1.413-.352Z" transform="translate(-1368.926 -1946.935)" fill="#b0bfde"/>
        <path id="Trazado_45113" data-name="Trazado 45113" d="M1544.219,1854.4a24.718,24.718,0,0,1-1.2,4.241c-.772,1.731-7.475,3.959-8.506,4.206s.258-5.2.258-6.434c0-.947.609-.65-.125-2.012Z" transform="translate(-1486.271 -1854.403)" fill="#e9d6b8"/>
      </g>
      <g id="Grupo_12179" data-name="Grupo 12179" transform="translate(55.148 0)">
        <path id="Trazado_45114" data-name="Trazado 45114" d="M1524.55,1815.875a1.944,1.944,0,0,0,1.609,2.231l8.648,1.386a1.946,1.946,0,0,0,2.23-1.612l2.052-12.806a1.947,1.947,0,0,0-1.613-2.232l-8.646-1.381a1.943,1.943,0,0,0-2.229,1.611Z" transform="translate(-1522.729 -1796.84)" fill="#e9d6b8"/>
        <path id="Trazado_45115" data-name="Trazado 45115" d="M1558.549,1805.214a7.367,7.367,0,0,1-1.052-2.221,2.9,2.9,0,0,1,1.611-2.2c1.052-.4,1.684.762,1.684.762s-1.671.608-1.8.915S1558.549,1805.214,1558.549,1805.214Z" transform="translate(-1555.111 -1796.346)" fill="#163f59"/>
        <path id="Trazado_45116" data-name="Trazado 45116" d="M1531.189,1801.417s2.094-4.71,2.086-6.188-.01-2.507-1.743-2.951c-2.6-.66-2.719-.107-3.871-1.114s-3.148-3.3-3.908-3.621a2.671,2.671,0,0,0-3.884,2.044,2.791,2.791,0,0,1-1.562,2.16c.068.238.515.526,1.286,1.079,2.211,1.587,3.612,2.059,5.528,1.872s5.513-.676,5.7.751-.643,5.561-.54,5.906S1530.828,1801.61,1531.189,1801.417Z" transform="translate(-1514.869 -1787.282)" fill="#194866"/>
        <path id="Trazado_45117" data-name="Trazado 45117" d="M1523.612,1833.078a.654.654,0,0,0,.542.743l1.865.3a.649.649,0,0,0,.745-.536l.549-3.414a.652.652,0,0,0-.538-.746l-1.869-.3a.645.645,0,0,0-.742.535Z" transform="translate(-1510.635 -1815.534)" fill="#e9d6b8"/>
        <path id="Trazado_45118" data-name="Trazado 45118" d="M1557.927,1827.562a.645.645,0,0,0,.535.745l1.866.3a.649.649,0,0,0,.745-.539l.546-3.413a.648.648,0,0,0-.535-.743l-1.87-.3a.653.653,0,0,0-.741.542Z" transform="translate(-1556.083 -1811.809)" fill="#e9d6b8"/>
        <path id="Trazado_45119" data-name="Trazado 45119" d="M1543.153,1833.872s-.808,5.039-1.078,6.721c-.243,1.521-1.385,4.758-9.971,3.377-5.081-.812-4.3-4.518-4.1-5.746a11.043,11.043,0,0,1,2.278-4.012c.02-.014-.333,2.082-.333,2.082a4.108,4.108,0,0,1,3.8-1.47c3.9.624,4.417,3.046,6.142,3.283C1541.218,1838.289,1542.555,1836.293,1543.153,1833.872Z" transform="translate(-1527.843 -1818.744)" fill="#194866"/>
        <path id="Trazado_45120" data-name="Trazado 45120" d="M1554.243,1844.57l-2.666-.429a.645.645,0,0,1-.537-.743l.06-.374,3.948.636-.061.371A.651.651,0,0,1,1554.243,1844.57Z" transform="translate(-1547.266 -1824.924)" fill="#e9d6b8"/>
      </g>
      <g id="Grupo_12180" data-name="Grupo 12180" transform="translate(0 19.097)">
        <path id="Trazado_45121" data-name="Trazado 45121" d="M1715.313,1857.513s1.286-4.354.621-5.441-3.348-4.885-3.348-4.885l-.767-.9s-1.394.36.436,2.891.309,1.823.309,1.823l-2.469-1.615-3.166-1.73-1.317-.96s-.707-.6-.989-.593c-.817.031-.494.692-.494.692l4.817,4.2-5.419-2.572s-.745-.2-.981.149c-.22.335,0,.455,0,.455l5.5,4.463-2.935-.99s-.736-.179-.981.153c-.266.365-.345.456-.345.456l10.817,5.486Z" transform="translate(-1702.362 -1846.098)" fill="#e9d6b8"/>
        <path id="Trazado_45122" data-name="Trazado 45122" d="M1732.727,1859.718l-3.912-1.57a3.219,3.219,0,0,0-1.35-.4.583.583,0,0,0-.559.609l5.684,2.991Z" transform="translate(-1726.905 -1853.96)" fill="#e9d6b8"/>
      </g>
    </g>
    <g id="Grupo_12198" data-name="Grupo 12198" transform="translate(59.616 172.517)">
      <g id="Grupo_12197" data-name="Grupo 12197" transform="translate(0 0)">
        <g id="Grupo_12187" data-name="Grupo 12187" transform="translate(0 49.842)">
          <g id="Grupo_12182" data-name="Grupo 12182" transform="translate(0 9.366)">
            <path id="Trazado_45123" data-name="Trazado 45123" d="M1948.221,2138.146a6.71,6.71,0,0,1-4.44-1.605c-2.231-1.939-3.2-5.39-2.87-10.252.218-3.283,1.509-6.6,2.877-10.125,2.3-5.919,4.912-12.628,3.548-21.5l2.535-.39c1.468,9.553-1.394,16.909-3.689,22.821-1.352,3.473-2.52,6.476-2.713,9.364-.262,3.944.418,6.754,1.973,8.127a4.252,4.252,0,0,0,3.39.953l.514,2.513A6.029,6.029,0,0,1,1948.221,2138.146Z" transform="translate(-1940.849 -2094.273)" fill="#367082"/>
          </g>
          <g id="Grupo_12185" data-name="Grupo 12185" transform="translate(6.233 62.256)">
            <g id="Grupo_12183" data-name="Grupo 12183" transform="translate(2.147 11.33)">
              <path id="Trazado_45124" data-name="Trazado 45124" d="M1897.574,2292.056l2.5,3.809-20.977,6.719s-1.4-1.339,3.746-4.03C1888.832,2295.417,1897.574,2292.056,1897.574,2292.056Z" transform="translate(-1878.92 -2292.056)" fill="#88bdda"/>
              <path id="Trazado_45125" data-name="Trazado 45125" d="M1820.19,2292.056l-2.5,3.809,20.977,6.719s1.4-1.339-3.746-4.03C1828.93,2295.417,1820.19,2292.056,1820.19,2292.056Z" transform="translate(-1797.811 -2292.056)" fill="#88bdda"/>
            </g>
            <rect id="Rectángulo_3347" data-name="Rectángulo 3347" width="4.383" height="15.606" transform="translate(20.471)" fill="#88bdda"/>
            <g id="Grupo_12184" data-name="Grupo 12184" transform="translate(4.552 12.132)">
              <path id="Trazado_45126" data-name="Trazado 45126" d="M1896.864,2294.528l2.136,3.635-17.956,6.412s-1.2-1.278,3.2-3.848A140.437,140.437,0,0,1,1896.864,2294.528Z" transform="translate(-1880.895 -2294.528)" fill="#acd5f4"/>
              <path id="Trazado_45127" data-name="Trazado 45127" d="M1827.233,2294.528l-2.134,3.635,17.955,6.412s1.2-1.278-3.206-3.848A140.211,140.211,0,0,0,1827.233,2294.528Z" transform="translate(-1806.98 -2294.528)" fill="#acd5f4"/>
            </g>
            <path id="Trazado_45128" data-name="Trazado 45128" d="M1932.979,2326.745a1.523,1.523,0,1,1-1.523-1.525A1.523,1.523,0,0,1,1932.979,2326.745Z" transform="translate(-1926.245 -2303.122)" fill="#001f46"/>
            <path id="Trazado_45129" data-name="Trazado 45129" d="M1825.824,2326.745a1.524,1.524,0,1,1-1.526-1.525A1.525,1.525,0,0,1,1825.824,2326.745Z" transform="translate(-1784.296 -2303.122)" fill="#001f46"/>
            <path id="Trazado_45130" data-name="Trazado 45130" d="M1944.336,2326.745a1.523,1.523,0,1,1-1.522-1.525A1.521,1.521,0,0,1,1944.336,2326.745Z" transform="translate(-1941.29 -2303.122)" fill="#367082"/>
            <path id="Trazado_45131" data-name="Trazado 45131" d="M1814.47,2326.745a1.522,1.522,0,1,1-1.523-1.525A1.522,1.522,0,0,1,1814.47,2326.745Z" transform="translate(-1769.256 -2303.122)" fill="#367082"/>
          </g>
          <rect id="Rectángulo_3348" data-name="Rectángulo 3348" width="3.206" height="5.612" transform="translate(27.236 56.537)" fill="#367082"/>
          <path id="Trazado_45132" data-name="Trazado 45132" d="M1876.721,2223.915a3.127,3.127,0,0,1-3.126,3.125h-1.764a3.127,3.127,0,0,1-3.126-3.125h0a3.126,3.126,0,0,1,3.126-3.127h1.764a3.126,3.126,0,0,1,3.126,3.127Z" transform="translate(-1843.873 -2170.342)" fill="#367082"/>
          <path id="Trazado_45133" data-name="Trazado 45133" d="M1855.073,2205.717c.075-.368.118-2.676.118-3.073,0-2.525-1.63-4.57-3.644-4.57h-40.613c-2.011,0-3.644,2.045-3.644,4.57,0,.4.044,2.7.122,3.073Z" transform="translate(-1802.402 -2155.004)" fill="#8dcfff"/>
          <path id="Trazado_45134" data-name="Trazado 45134" d="M1806.131,2222.513c0,.773.45,1.4,1.01,1.4h46.631c.56,0,1.01-.628,1.01-1.4h0c0-.772-.45-1.4-1.01-1.4h-46.631c-.56,0-1.01.627-1.01,1.4Z" transform="translate(-1801.617 -2170.563)" fill="#367082"/>
          <g id="Grupo_12186" data-name="Grupo 12186" transform="translate(4.6)">
            <path id="Trazado_45135" data-name="Trazado 45135" d="M1878.788,2092.691c1,.073,7.368.186,8.465.2,6.969.084,12.971-1.224,13.3-2.94a59.488,59.488,0,0,0,.18-21.582c-.3-1.715-6.389-3.023-13.505-2.936-1.117.014-7.615.126-8.637.2A58.384,58.384,0,0,1,1878.788,2092.691Z" transform="translate(-1876.601 -2065.428)" fill="#8dcfff"/>
            <path id="Trazado_45136" data-name="Trazado 45136" d="M1943.606,2066.06c-.779.009-1.324.38-1.215.827a58.328,58.328,0,0,1,.219,25.407c-.1.449.441.819,1.2.827h0c.763.011,1.47-.347,1.566-.8a58.39,58.39,0,0,0-.166-25.469c-.105-.45-.824-.806-1.608-.8Z" transform="translate(-1942.377 -2065.854)" fill="#367082"/>
            <path id="Trazado_45137" data-name="Trazado 45137" d="M1934.185,2092.885a17.6,17.6,0,0,0,1.828.122A3.669,3.669,0,0,0,1939.4,2090a58.479,58.479,0,0,0-.1-21.253,3.741,3.741,0,0,0-3.468-3.008,17.919,17.919,0,0,0-1.86.123A58.335,58.335,0,0,1,1934.185,2092.885Z" transform="translate(-1933.267 -2065.636)" fill="#7dc2f5"/>
          </g>
        </g>
        <g id="Grupo_12192" data-name="Grupo 12192" transform="translate(13.699)">
          <g id="Grupo_12190" data-name="Grupo 12190" transform="translate(24.68 26.259)">
            <g id="Grupo_12189" data-name="Grupo 12189" transform="translate(5.725 27.489)">
              <g id="Grupo_12188" data-name="Grupo 12188" transform="translate(3.674 0.799)">
                <path id="Trazado_45138" data-name="Trazado 45138" d="M1730.624,2082.142s.049,1.773,8.659,1.782,21.246-2.109,21.246-2.109l-19.857-1.877S1733.047,2079.582,1730.624,2082.142Z" transform="translate(-1730.624 -2079.92)" fill="#e2c59c"/>
                <path id="Trazado_45139" data-name="Trazado 45139" d="M1711.449,2085.152c4.093.128,5.786,2.233,7.388,2.922a28.679,28.679,0,0,1,3.192,1.693c-.856-1.779-2.177-1.871-2.822-2.457s-.481-.3.979-.361c.831-.036,2.242,1.47,3.266,2.314a3.332,3.332,0,0,0,1.453.8,18.223,18.223,0,0,0-2.325-2.741,21.076,21.076,0,0,0-4.035-2.954,16.084,16.084,0,0,0-5.557-.354C1710.779,2084.24,1708.5,2085.056,1711.449,2085.152Z" transform="translate(-1688.317 -2082.631)" fill="#e2c59c"/>
                <path id="Trazado_45140" data-name="Trazado 45140" d="M1713.18,2085.5a22.326,22.326,0,0,1,3.646,1.327c.376.3,1.921,2.029,1.921,2.029a4.063,4.063,0,0,1-1.822-.882A35.472,35.472,0,0,0,1713.18,2085.5Z" transform="translate(-1683.177 -2083.688)" fill="#e2c59c"/>
              </g>
              <path id="Trazado_45141" data-name="Trazado 45141" d="M1789.535,2077.466s-6.255-.367-5.871,4.348c.214,2.68,1.248,3.67,4.391,3.559,4.463-.158,9.521-.682,9.521-.682l2.434-6.473Z" transform="translate(-1783.647 -2077.459)" fill="#f99b1c"/>
            </g>
            <path id="Trazado_45142" data-name="Trazado 45142" d="M1821.94,2020.3l-6.923-24.448s-1.019-3.58-2.928-2.98c-2.753.864-1.5,3.808-1.327,5.536a57.038,57.038,0,0,0,2.205,13.565c1.367,5.26,2.5,11.306,3.727,14.776.848,2.392,2.547-.933,4.972-1.794C1826.193,2023.342,1821.94,2020.3,1821.94,2020.3Z" transform="translate(-1810.327 -1992.8)" fill="#f99b1c"/>
          </g>
          <path id="Trazado_45143" data-name="Trazado 45143" d="M1839.714,1927.875c-.914,4.087-8.23,7.717-9.213,15.86,0,0-7.564-19.018-6.648-23.1l.623-2.775a7.584,7.584,0,0,1,9.058-5.742l1.849.414a7.58,7.58,0,0,1,5.741,9.057Z" transform="translate(-1807.572 -1911.928)" fill="#001f46"/>
          <path id="Trazado_45144" data-name="Trazado 45144" d="M1842.125,1925.49a4.472,4.472,0,0,1-1.773,2.089c-2.318,1.293-4.384,7.5-7.639,7.24a23.047,23.047,0,0,1-2.332,5.5,11.516,11.516,0,0,1-3.648,3.23c-1.276,3.2,11.526,13.911,12.072,13.632,1.164-.594-.919-8.288-3.013-10.671-.984-1.119-1.985-2.435-2.005-3.188-.075-2.641.762-3.2,2.035-4.412a6.209,6.209,0,0,1,4.782-1.078.87.87,0,0,0,.689-.134,5.368,5.368,0,0,0,.578-1.494l1.368-6.1C1843.617,1928.406,1842.281,1927.012,1842.125,1925.49Z" transform="translate(-1810.499 -1921.086)" fill="#e9d6b8"/>
          <path id="Trazado_45145" data-name="Trazado 45145" d="M1835.715,2040.4s3.279,2.971,4.2,3.236c1.235.352,4.691-1.142,4.691-1.142s-.954-15.4-.6-21.507,1.789-7.871,1.628-9.755c-.267-3.014,2.178-4.554,1.459-6.85s-2.54-10.557-2.664-9.41c-1.064,9.764-4.81,2.234-5.557,1.055C1838.463,1995.376,1835.715,2040.4,1835.715,2040.4Z" transform="translate(-1817.367 -1967.933)" fill="#387bff"/>
          <path id="Trazado_45146" data-name="Trazado 45146" d="M1829.8,1986.636s4.34,3.183,4.282,4.652,2.242,5.815,1.309,12.346c-1.064,7.457-1.462,12.463-1.245,17.219s2.413,8.88,2.487,14.737c.058,4.586-.991,4.995-.991,4.995a3.8,3.8,0,0,1-3.724-.818c-1.7-1.567-1.4-17.269-1.143-21.219s1.49-13.26,1.775-15.978a28.811,28.811,0,0,0-.355-7.633,32.375,32.375,0,0,0-1.821-6.619c-.087-.211-1.213-1.116-1.286-1.281C1828.786,1986.323,1829.449,1986.236,1829.8,1986.636Z" transform="translate(-1804.604 -1962.218)" fill="#fec00f"/>
          <path id="Trazado_45147" data-name="Trazado 45147" d="M1845.862,1982.182s-.9-.187-.135.843a2.148,2.148,0,0,1,.444,1.065s.389-.409.976.177c.534.533,1.379,1.2,1.379,1.2a14.944,14.944,0,0,0-.667-1.642C1847.417,1983.428,1845.862,1982.182,1845.862,1982.182Z" transform="translate(-1821.816 -1959.362)" fill="#f99b1c"/>
          <path id="Trazado_45148" data-name="Trazado 45148" d="M1865.561,1944.178c-3.277,4.656-2.084,17.952-7.759,16.68s-7.679-6.692-5.863-9.644c2.2-3.577,14.2-19.3,15.438-25.881,1.421-7.558,9.368-2.629,7.491.227C1869.192,1934.189,1878.5,1925.789,1865.561,1944.178Z" transform="translate(-1850.349 -1918.274)" fill="#001f46"/>
          <path id="Trazado_45149" data-name="Trazado 45149" d="M1766.649,2297.4l-1.969,15.1,8.513,3.906,4.725,1-8.388-6.263,2.743-13.628Z" transform="translate(-1724.991 -2172.239)" fill="#e9d6b8"/>
          <path id="Trazado_45150" data-name="Trazado 45150" d="M1758.1,2343.371l1.846.481,1.24-1.114,6.8,3.3,6.031,1.38a1.1,1.1,0,0,0-.129-.729c-.756-.953-4.98-3.087-4.98-3.087s-.07,1.4-.67,1.439-5.811-2.6-7.017-3.34c-2.074-1.268-2.463-2.054-2.62-1.958C1758.184,2340.005,1758.1,2343.371,1758.1,2343.371Z" transform="translate(-1718.968 -2200.827)" fill="#163f59"/>
          <path id="Trazado_45151" data-name="Trazado 45151" d="M1672.132,2229.443l6.762,12.872,9.355-.459,4.654-1.293-10.331-1.689-5.641-11Z" transform="translate(-1609.927 -2125.287)" fill="#e9d6b8"/>
          <path id="Trazado_45152" data-name="Trazado 45152" d="M1666.031,2269.526l1.86-.425.583-1.561,8.39-.12,5.009-1.136a4.236,4.236,0,0,0-.98-.806,28.733,28.733,0,0,0-5.074-.681s.418,1.1-.1,1.409-6.28.5-7.69.4c-2.425-.168-3.131-.686-3.23-.527C1664.554,2266.5,1666.031,2269.526,1666.031,2269.526Z" transform="translate(-1596.509 -2150.219)" fill="#163f59"/>
          <path id="Trazado_45153" data-name="Trazado 45153" d="M1728.567,2114.152l5.046,2.194,2.195,6.583,32.459-5.343s3.306-1.018,5.412,4.2c2.995,7.434,10.619,30.544,10.619,30.544l-4.827,5.047-15.138-26.112s-31.025,14.552-41.256,11.412c-3.924-1.208-6.921-8.14-6.361-15.143a90.183,90.183,0,0,1,1.536-10.532Z" transform="translate(-1715.778 -2048.49)" fill="#194866"/>
          <path id="Trazado_45154" data-name="Trazado 45154" d="M1765.694,2172.608l24.823-1.785-2.135,38.306,7.321.233,5.408-44.862s-1.458-6.677-6.2-5.671S1778.7,2168.626,1765.694,2172.608Z" transform="translate(-1748.514 -2078.59)" fill="#163f59"/>
          <path id="Trazado_45155" data-name="Trazado 45155" d="M1880.752,2031.353s.6-15.585,1.053-22.978.356-21.658.454-23.434a21.656,21.656,0,0,0-.388-4.285s-2.245-3.83-4.748-3.5c-2.2.293-5.73,3.175-7.727,4.777-3.734,3-1.849,27.447-1.953,28.759-.376,4.734-3.2,9.408-5.325,13.956a25.91,25.91,0,0,0-1.678,7.518S1863.224,2036.41,1880.752,2031.353Z" transform="translate(-1860.44 -1955.965)" fill="#fec00f"/>
          <path id="Trazado_45156" data-name="Trazado 45156" d="M1862.1,1973.46l1.78,1.757,2.507,2.69-1.27,3.016-4.425-6.2Z" transform="translate(-1844.631 -1953.481)" fill="#f99b1c"/>
          <g id="Grupo_12191" data-name="Grupo 12191" transform="translate(14.067 56.058)">
            <path id="Trazado_45157" data-name="Trazado 45157" d="M1775.287,2089.945s.269,1.9,10.471.779,24.944-5.076,24.944-5.076l-23.769.6S1777.851,2086.866,1775.287,2089.945Z" transform="translate(-1775.287 -2085.299)" fill="#e9d6b8"/>
            <path id="Trazado_45158" data-name="Trazado 45158" d="M1750.573,2086.494c4.869-.4,7.124,1.645,9.105,2.175a35.539,35.539,0,0,1,3.982,1.4c-1.224-1.8-2.8-1.729-3.635-2.277s-.607-.257,1.117-.517c.982-.15,2.833,1.29,4.146,2.062a4.134,4.134,0,0,0,1.818.675,20.029,20.029,0,0,0-3.085-2.648,25.032,25.032,0,0,0-5.134-2.653,21.017,21.017,0,0,0-6.627.353C1749.669,2085.6,1747.066,2086.781,1750.573,2086.494Z" transform="translate(-1723.116 -2084.574)" fill="#e9d6b8"/>
            <path id="Trazado_45159" data-name="Trazado 45159" d="M1753.418,2085.344a28.334,28.334,0,0,1,4.478.948c.479.273,2.518,1.935,2.518,1.935a5.132,5.132,0,0,1-2.265-.713A42.974,42.974,0,0,0,1753.418,2085.344Z" transform="translate(-1717.898 -2085.094)" fill="#e9d6b8"/>
          </g>
          <path id="Trazado_45160" data-name="Trazado 45160" d="M1850.138,2021.4l-1.133-24.117s-1.3-5.053-3.2-6.213c-2.247-1.376-5.337,1.175-5.337,1.175s-1.583,3.766-.522,21.549c.71,11.893,1.956,16.9,7.6,16.028,5.262-.811,11.8-1.93,11.8-1.93l1.135-6.243Z" transform="translate(-1831.883 -1965.095)" fill="#f99b1c"/>
        </g>
        <g id="Grupo_12195" data-name="Grupo 12195" transform="translate(52.22 35.513)">
          <path id="Trazado_45161" data-name="Trazado 45161" d="M1656.449,2101.213a.4.4,0,0,0-.02-.039l.02-1.194h49.528v1.194s.011.026,0,.039l-.124.223c-.635,1.036-1.78,1.223-3.086,1.223h-43.105c-1.306,0-2.449-.187-3.086-1.223Z" transform="translate(-1656.429 -2074.433)" fill="#d0dee6"/>
          <path id="Trazado_45162" data-name="Trazado 45162" d="M1783.694,2102.385s.011.02,0,.034l-.122.178a2.006,2.006,0,0,1-.721.61h-7.536c-1.257,0-2.355-.151-2.966-.989l-.12-.182a.27.27,0,0,1-.022-.029l.011-.592h11.475Z" transform="translate(-1771.739 -2075.402)" fill="#b6c2c9"/>
          <g id="Grupo_12193" data-name="Grupo 12193" transform="translate(18.644 25.822)">
            <rect id="Rectángulo_3349" data-name="Rectángulo 3349" width="24.748" height="0.846" fill="#b6c2c9"/>
          </g>
          <g id="Grupo_12194" data-name="Grupo 12194" transform="translate(12.231)">
            <path id="Trazado_45163" data-name="Trazado 45163" d="M1637.287,2046.8l6.422-24.339a1.617,1.617,0,0,1,1.468-1.164h34.752a.867.867,0,0,1,.856,1.164l-6.422,24.339Z" transform="translate(-1637.287 -2021.301)" fill="#d7dfe2"/>
            <path id="Trazado_45164" data-name="Trazado 45164" d="M1696.826,2055.89a1.676,1.676,0,0,0,1.657,2.25,3.132,3.132,0,0,0,2.843-2.25,1.675,1.675,0,0,0-1.657-2.252A3.132,3.132,0,0,0,1696.826,2055.89Z" transform="translate(-1677.173 -2043.138)" fill="#b6c2c9"/>
          </g>
        </g>
        <g id="Grupo_12196" data-name="Grupo 12196" transform="translate(48.068 63.708)">
          <path id="Trazado_45165" data-name="Trazado 45165" d="M1428.142,2197.243h5.07l-8.364-81.009H1417.5Z" transform="translate(-1301.925 -2113.604)" fill="#acd5f4"/>
          <path id="Trazado_45166" data-name="Trazado 45166" d="M1442.677,2119.968l3.225,24.533,3.824-26.439-.187-1.828h-6.427Z" transform="translate(-1326.615 -2113.604)" fill="#86bbd8"/>
          <path id="Trazado_45167" data-name="Trazado 45167" d="M1637.325,2197.243h5.07l-8.364-81.009h-7.352Z" transform="translate(-1579.03 -2113.604)" fill="#acd5f4"/>
          <path id="Trazado_45168" data-name="Trazado 45168" d="M1651.857,2119.968l3.222,24.533,3.825-26.439-.188-1.828h-6.427Z" transform="translate(-1603.715 -2113.604)" fill="#86bbd8"/>
          <path id="Trazado_45169" data-name="Trazado 45169" d="M1778.507,2197.243h-5.07l8.364-81.009h7.349Z" transform="translate(-1773.438 -2113.604)" fill="#acd5f4"/>
          <path id="Trazado_45170" data-name="Trazado 45170" d="M1784.781,2119.968l-9.84,25,2.791-26.906.188-1.828h6.425Z" transform="translate(-1769.557 -2113.604)" fill="#86bbd8"/>
          <rect id="Rectángulo_3350" data-name="Rectángulo 3350" width="61.123" height="4.734" transform="translate(1.268)" fill="#7dc2f5"/>
          <rect id="Rectángulo_3351" data-name="Rectángulo 3351" width="69.404" height="4.734" transform="translate(59.563)" fill="#8dcfff"/>
        </g>
      </g>
    </g>
    <g id="Grupo_12199" data-name="Grupo 12199" transform="translate(68.097 52.173)">
      <path id="Trazado_45171" data-name="Trazado 45171" d="M1657.4,1624.326c-24.388,2.486-69.856,3.454-84.082-5.939-14.343-9.571-2.992-59.1,11.373-69.608,14.469-10.331,67.563-7.518,83.15-5.734C1706.678,1547.495,1685.787,1621.433,1657.4,1624.326Z" transform="translate(-1566.695 -1541.299)" fill="#387bff"/>
      <path id="Trazado_45172" data-name="Trazado 45172" d="M1621.2,1743.4s1.056,15.867,21.1,24.934c0,0-10.385-22.05-1.052-32.867C1646.844,1728.977,1621.2,1743.4,1621.2,1743.4Z" transform="translate(-1537.561 -1671.288)" fill="#387bff"/>
    </g>
    <g id="Grupo_12216" data-name="Grupo 12216" transform="translate(91.736 39.843)">
      <g id="Grupo_12200" data-name="Grupo 12200" transform="translate(6.059 33.026)">
        <path id="Trazado_45173" data-name="Trazado 45173" d="M1679.473,1639.946a28.988,28.988,0,0,0,2.8.975l-6.44,2.273,6.369-2.286-6.369,2.286h0a28.956,28.956,0,0,1-2.8-.976,17.677,17.677,0,0,1-1.229-1.393,17.677,17.677,0,0,0,1.229,1.393c-11.9-4.841-20.556-17.466-20.581-31.672q0-1.645.146-3.236l6.44-2.273q-.146,1.59-.146,3.235c.025,14.2,8.673,26.818,20.563,31.665a.031.031,0,0,1-.013.005,4.023,4.023,0,0,1-.894-.146,13.7,13.7,0,0,0-3.284-.174,6.341,6.341,0,0,0-1.293.264,9.308,9.308,0,0,0-1.309.546,8.582,8.582,0,0,1-.891.382,8.582,8.582,0,0,0,.891-.382,9.308,9.308,0,0,1,1.309-.546,6.341,6.341,0,0,1,1.293-.264,10.492,10.492,0,0,1,1.758,0c.808.062,1.313.144,2.42.325-2.289.808-4.429,1.57-6.4,2.274,4.386-1.565,6.4-2.274,6.4-2.274A.081.081,0,0,1,1679.473,1639.946Z" transform="translate(-1652.451 -1605.038)" fill="#ffc910"/>
      </g>
      <g id="Grupo_12201" data-name="Grupo 12201" transform="translate(29.441 68.91)">
        <path id="Trazado_45174" data-name="Trazado 45174" d="M1730.9,1715.552a27.687,27.687,0,0,0,2.9.683l-6.44,2.273h0a28.415,28.415,0,0,1-2.9-.683l3.219-1.136.843-.3.828-.292.4-.143.777-.274A1.431,1.431,0,0,1,1730.9,1715.552Zm-5.122,2.5.215-.075.224-.079.229-.082.236-.083.24-.085.243-.086.245-.086.246-.087.247-.087.245-.086.243-.086.239-.085.235-.083.23-.081.223-.078.216-.077-.216.077-.223.078-.23.081-.235.083-.239.085-.243.086-.245.086-.247.087-.246.087-.245.086-.243.086-.24.085-.236.083-.229.082-.224.079-.215.075" transform="translate(-1724.46 -1715.552)" fill="#ffc910"/>
      </g>
      <g id="Grupo_12202" data-name="Grupo 12202" transform="translate(32.341 69.593)">
        <path id="Trazado_45175" data-name="Trazado 45175" d="M1739.831,1717.655a27.647,27.647,0,0,0,3,.374l-6.44,2.273a27.7,27.7,0,0,1-3-.374l3.219-1.137.843-.3.828-.293.4-.143.395-.138A3.511,3.511,0,0,1,1739.831,1717.655Z" transform="translate(-1733.391 -1717.655)" fill="#ffc910"/>
      </g>
      <g id="Grupo_12203" data-name="Grupo 12203" transform="translate(35.337 69.968)">
        <path id="Trazado_45176" data-name="Trazado 45176" d="M1749.06,1718.808a27.3,27.3,0,0,0,2.986.046l-6.44,2.272h0a27.411,27.411,0,0,1-2.985-.046C1744.552,1720.4,1747.03,1719.083,1749.06,1718.808Z" transform="translate(-1742.62 -1718.808)" fill="#ffc910"/>
      </g>
      <g id="Grupo_12204" data-name="Grupo 12204" transform="translate(38.323 69.971)">
        <path id="Trazado_45177" data-name="Trazado 45177" d="M1758.254,1718.86c.261-.01.52-.025.779-.042-.915.32-5.552,1.955-6.451,2.273q-.382.026-.768.042l.369-.13,3.273-1.156.421-.147.828-.292.8-.282A5.88,5.88,0,0,1,1758.254,1718.86Z" transform="translate(-1751.814 -1718.818)" fill="#ffc910"/>
      </g>
      <g id="Grupo_12205" data-name="Grupo 12205" transform="translate(39.09 69.737)">
        <path id="Trazado_45178" data-name="Trazado 45178" d="M1762.75,1718.1l-.014.005-6.427,2.268q-1.052.16-2.131.234c.9-.318,5.536-1.953,6.451-2.273Q1761.7,1718.256,1762.75,1718.1Z" transform="translate(-1754.178 -1718.097)" fill="#ffc910"/>
      </g>
      <g id="Grupo_12206" data-name="Grupo 12206" transform="translate(41.221 69.154)">
        <path id="Trazado_45179" data-name="Trazado 45179" d="M1767.183,1716.885a26.066,26.066,0,0,0,2.8-.583q-3.22,1.136-6.44,2.273a26.131,26.131,0,0,1-2.8.583l6.427-2.268q-3.025,1.088-6.05,2.177l2.23-.8.792-.285.792-.284,2.24-.807Z" transform="translate(-1760.742 -1716.302)" fill="#ffc910"/>
      </g>
      <g id="Grupo_12207" data-name="Grupo 12207" transform="translate(44.02 68.557)">
        <path id="Trazado_45180" data-name="Trazado 45180" d="M1775.8,1715.061q.979-.263,1.926-.6l-6.44,2.273q-.948.334-1.926.6l3.22-1.136.422-.149.42-.149.417-.147.814-.287.395-.14C1775.274,1715.246,1775.571,1715.132,1775.8,1715.061Z" transform="translate(-1769.36 -1714.465)" fill="#ffc910"/>
      </g>
      <g id="Grupo_12208" data-name="Grupo 12208" transform="translate(35.224 6.642)">
        <path id="Trazado_45181" data-name="Trazado 45181" d="M1759.436,1585.694l-6.44,2.273c10.884-3.841,18.581-14.778,18.557-28.209-.031-17.487-13.141-32.577-29.283-33.706l6.44-2.273c16.142,1.13,29.251,16.219,29.282,33.707C1778.016,1570.917,1770.319,1581.854,1759.436,1585.694Z" transform="translate(-1742.27 -1523.78)" fill="#ffa601"/>
      </g>
      <path id="Trazado_45182" data-name="Trazado 45182" d="M1681.615,1530.642c-16.137-1.128-29.2,12.132-29.164,29.62s13.14,32.577,29.278,33.705,29.2-12.132,29.169-29.619S1697.757,1531.77,1681.615,1530.642Z" transform="translate(-1646.392 -1521.727)" fill="#ffa601"/>
      <g id="Grupo_12209" data-name="Grupo 12209" transform="translate(6.059 8.855)">
        <path id="Trazado_45183" data-name="Trazado 45183" d="M1683.1,1593.98c-16.138-1.128-29.247-16.219-29.278-33.705-.029-16.552,11.669-29.308,26.6-29.671-15.582-.411-28,12.616-27.971,29.671.031,17.486,13.14,32.577,29.278,33.705.865.061,1.717.071,2.563.051C1683.9,1594.021,1683.5,1594.009,1683.1,1593.98Z" transform="translate(-1652.451 -1530.595)" fill="#ee8f01"/>
      </g>
      <g id="Grupo_12210" data-name="Grupo 12210" transform="translate(24.616 6.575)">
        <path id="Trazado_45184" data-name="Trazado 45184" d="M1709.6,1527.325l6.441-2.273a26.267,26.267,0,0,1,10.607-1.411l-6.44,2.273A26.259,26.259,0,0,0,1709.6,1527.325Z" transform="translate(-1709.6 -1523.575)" fill="#ffa601"/>
      </g>
      <g id="Grupo_12211" data-name="Grupo 12211" transform="translate(35.212 0.081)">
        <path id="Trazado_45185" data-name="Trazado 45185" d="M1761.625,1578.318l-6.441,2.273c13.139-4.637,22.432-17.84,22.4-34.053-.038-21.112-15.865-39.329-35.353-40.691l6.441-2.273c19.486,1.362,35.314,19.579,35.352,40.692C1784.057,1560.479,1774.765,1573.681,1761.625,1578.318Z" transform="translate(-1742.235 -1503.574)" fill="#ffa601"/>
      </g>
      <g id="Grupo_12212" data-name="Grupo 12212" transform="translate(0 2.273)">
        <path id="Trazado_45186" data-name="Trazado 45186" d="M1669,1510.406c-19.486-1.363-35.25,14.645-35.212,35.756s15.862,39.328,35.349,40.691,35.253-14.645,35.216-35.757S1688.489,1511.768,1669,1510.406Zm.124,69.886c-16.137-1.128-29.246-16.219-29.277-33.705s13.027-30.748,29.164-29.62,29.251,16.219,29.282,33.706-13.029,30.747-29.17,29.619" transform="translate(-1633.79 -1510.326)" fill="#ffc910"/>
      </g>
      <g id="Grupo_12213" data-name="Grupo 12213" transform="translate(22.401 0)">
        <path id="Trazado_45187" data-name="Trazado 45187" d="M1702.78,1507.382l6.441-2.272a31.7,31.7,0,0,1,12.811-1.7l-6.441,2.273A31.7,31.7,0,0,0,1702.78,1507.382Z" transform="translate(-1702.78 -1503.325)" fill="#ee8f01"/>
      </g>
      <g id="Grupo_12214" data-name="Grupo 12214" transform="translate(24.809 16.802)">
        <path id="Trazado_45188" data-name="Trazado 45188" d="M1722.292,1555.358l.009,5.294a7.9,7.9,0,0,1,4.757,3.226,11.822,11.822,0,0,1,2,6.311l-4.4-.308a5.553,5.553,0,0,0-1.358-3.483,4.547,4.547,0,0,0-3.168-1.48,3.975,3.975,0,0,0-3.332,1.162,4.984,4.984,0,0,0-1.242,3.613,5.24,5.24,0,0,0,.22,1.556,4.064,4.064,0,0,0,.675,1.312q.923,1.238,3.924,2.163a21.423,21.423,0,0,1,2.733.991,11.412,11.412,0,0,1,4.981,4.071,10.671,10.671,0,0,1,1.71,6.008,12.08,12.08,0,0,1-2.061,7.231,7.092,7.092,0,0,1-5.375,3.154l.011,6.359-4.1-.287-.012-6.112a9.52,9.52,0,0,1-5.865-3.8,12.437,12.437,0,0,1-2.2-7.394l4.241.3a7.263,7.263,0,0,0,1.534,4.548,5.634,5.634,0,0,0,4.026,1.776,4.588,4.588,0,0,0,3.842-1.325,5.717,5.717,0,0,0,1.426-4.147,8.406,8.406,0,0,0-.177-1.748,5.153,5.153,0,0,0-.5-1.4q-1.078-1.981-4.452-3.094c-.37-.12-.641-.215-.826-.275a13.685,13.685,0,0,1-6.186-3.862,9.148,9.148,0,0,1-1.993-6.028,10.388,10.388,0,0,1,1.878-6.451,7.371,7.371,0,0,1,5.185-2.92l-.01-5.242Z" transform="translate(-1710.195 -1555.071)" fill="#ee8f01"/>
      </g>
      <g id="Grupo_12215" data-name="Grupo 12215" transform="translate(23.485 16.802)">
        <path id="Trazado_45189" data-name="Trazado 45189" d="M1718.214,1555.358l.01,5.294a7.893,7.893,0,0,1,4.756,3.226,11.82,11.82,0,0,1,2,6.311l-4.4-.308a5.548,5.548,0,0,0-1.358-3.483,4.545,4.545,0,0,0-3.168-1.48,3.976,3.976,0,0,0-3.332,1.162,4.984,4.984,0,0,0-1.242,3.613,5.221,5.221,0,0,0,.22,1.556,4.05,4.05,0,0,0,.675,1.312q.923,1.238,3.924,2.163a21.463,21.463,0,0,1,2.733.991,11.409,11.409,0,0,1,4.98,4.071,10.665,10.665,0,0,1,1.711,6.008,12.082,12.082,0,0,1-2.061,7.231,7.092,7.092,0,0,1-5.375,3.154l.012,6.359-4.1-.287-.011-6.112a9.519,9.519,0,0,1-5.865-3.8,12.437,12.437,0,0,1-2.2-7.394l4.241.3a7.26,7.26,0,0,0,1.534,4.548,5.633,5.633,0,0,0,4.026,1.776,4.587,4.587,0,0,0,3.841-1.325,5.713,5.713,0,0,0,1.426-4.147,8.4,8.4,0,0,0-.177-1.748,5.173,5.173,0,0,0-.5-1.4q-1.078-1.981-4.452-3.094c-.37-.12-.641-.215-.826-.275a13.685,13.685,0,0,1-6.185-3.862,9.147,9.147,0,0,1-1.993-6.028,10.388,10.388,0,0,1,1.878-6.451,7.371,7.371,0,0,1,5.185-2.92l-.01-5.242Z" transform="translate(-1706.117 -1555.071)" fill="#ffc910"/>
      </g>
    </g>
  </g>
</svg>
