<svg xmlns="http://www.w3.org/2000/svg" xmlns:xlink="http://www.w3.org/1999/xlink" width="217" height="217" viewBox="0 0 217 217">
  <defs>
    <clipPath id="clip-path">
      <rect id="Rectángulo_3580" data-name="Rectángulo 3580" width="29.26" height="27.218" fill="none"/>
    </clipPath>
  </defs>
  <g id="Grupo_21279" data-name="Grupo 21279" transform="translate(-422 -8543)">
    <circle id="Elipse_952" data-name="Elipse 952" cx="108.5" cy="108.5" r="108.5" transform="translate(422 8543)" fill="#fae7b7"/>
    <g id="Grupo_12602" data-name="Grupo 12602" transform="translate(193.527 8462.259)">
      <g id="Grupo_12584" data-name="Grupo 12584" transform="translate(271.066 113.386)">
        <g id="Grupo_12578" data-name="Grupo 12578">
          <rect id="Rectángulo_3573" data-name="Rectángulo 3573" width="109.695" height="54.993" transform="translate(0 80.149) rotate(-46.941)" fill="#75b07e"/>
        </g>
        <g id="Grupo_12580" data-name="Grupo 12580" transform="translate(17.043 17.581)">
          <g id="Grupo_12579" data-name="Grupo 12579">
            <path id="Trazado_45567" data-name="Trazado 45567" d="M362.9,138.314l-12.726-11.892a13.636,13.636,0,0,1-17.277.043l-49.86,53.36a13.634,13.634,0,0,1,1.125,17.238l12.728,11.892a13.632,13.632,0,0,1,17.275-.043l49.862-53.359A13.634,13.634,0,0,1,362.9,138.314Z" transform="translate(-283.033 -126.422)" fill="#ecebeb"/>
          </g>
        </g>
        <g id="Grupo_12581" data-name="Grupo 12581" transform="translate(38.324 39.634)">
          <path id="Trazado_45568" data-name="Trazado 45568" d="M331.144,147.949a19.214,19.214,0,1,1-27.157.92A19.216,19.216,0,0,1,331.144,147.949Z" transform="translate(-298.812 -142.774)" fill="#75b07e"/>
        </g>
        <g id="Grupo_12583" data-name="Grupo 12583" transform="translate(46.077 47.556)">
          <g id="Grupo_12582" data-name="Grupo 12582">
            <path id="Trazado_45569" data-name="Trazado 45569" d="M327.154,169.193l-1.051,1.122-2.3-2.152a10.812,10.812,0,0,1-4.174,2.473q-3.18.734-6.352-2.3l2.921-3.123a7.764,7.764,0,0,0,2.375,1.376,3.26,3.26,0,0,0,2.662-.831l-4.941-4.616-1.153.678a8.2,8.2,0,0,1-4.719,1.431,5.992,5.992,0,0,1-3.639-1.7,7.147,7.147,0,0,1-1.625-2.181,6.258,6.258,0,0,1-.018-5.293,11.5,11.5,0,0,1,1.389-2.065l-1.54-1.438,1.048-1.122,1.564,1.461a7.883,7.883,0,0,1,3.679-2.085,6.226,6.226,0,0,1,5.9,1.737l-2.843,3.044a5.722,5.722,0,0,0-1.826-1.063,2.434,2.434,0,0,0-2.378.734l4.409,4.12a19.819,19.819,0,0,1,5.125-2.12,5.6,5.6,0,0,1,4.875,1.647,6.294,6.294,0,0,1,2.236,6.1,9.317,9.317,0,0,1-1.949,3.988Zm-18.046-14.762a2.794,2.794,0,0,0-.858,2,2.7,2.7,0,0,0,.952,1.8,2.526,2.526,0,0,0,2.22.708,5.632,5.632,0,0,0,1.745-.708Zm13.14,10.177a3.982,3.982,0,0,0,.812-1.7,2.929,2.929,0,0,0-1.167-2.441,2.688,2.688,0,0,0-2.2-.8,6.658,6.658,0,0,0-1.966.713Z" transform="translate(-304.562 -148.648)" fill="#ecebeb"/>
          </g>
        </g>
      </g>
      <g id="Grupo_12591" data-name="Grupo 12591" transform="translate(288.568 135.301)">
        <g id="Grupo_12585" data-name="Grupo 12585">
          <rect id="Rectángulo_3574" data-name="Rectángulo 3574" width="109.695" height="54.993" transform="translate(0 45.507) rotate(-24.51)" fill="#75b07e"/>
        </g>
        <g id="Grupo_12587" data-name="Grupo 12587" transform="translate(13.714 13.241)">
          <g id="Grupo_12586" data-name="Grupo 12586">
            <path id="Trazado_45570" data-name="Trazado 45570" d="M388.738,161.856l-7.226-15.849a13.635,13.635,0,0,1-15.984-6.553l-66.448,30.3a13.64,13.64,0,0,1-5.538,16.364l7.225,15.848a13.634,13.634,0,0,1,15.985,6.552l66.448-30.3A13.631,13.631,0,0,1,388.738,161.856Z" transform="translate(-293.542 -139.454)" fill="#ecebeb"/>
          </g>
        </g>
        <g id="Grupo_12588" data-name="Grupo 12588" transform="translate(42.094 28.553)">
          <path id="Trazado_45571" data-name="Trazado 45571" d="M351.287,162.056a19.214,19.214,0,1,1-25.453-9.512A19.214,19.214,0,0,1,351.287,162.056Z" transform="translate(-314.585 -150.808)" fill="#75b07e"/>
        </g>
        <g id="Grupo_12590" data-name="Grupo 12590" transform="translate(51.477 34.276)">
          <g id="Grupo_12589" data-name="Grupo 12589">
            <path id="Trazado_45572" data-name="Trazado 45572" d="M338.137,181.347l-1.4.637-1.305-2.866a10.784,10.784,0,0,1-4.8.692q-3.219-.532-5-4.545l3.891-1.773a7.779,7.779,0,0,0,1.671,2.179,3.268,3.268,0,0,0,2.778.247l-2.806-6.152-1.324.187a8.208,8.208,0,0,1-4.908-.477,6,6,0,0,1-2.716-2.958,7.135,7.135,0,0,1-.67-2.635,6.263,6.263,0,0,1,2-4.9,11.591,11.591,0,0,1,2.07-1.378l-.874-1.915,1.4-.637.887,1.945a7.907,7.907,0,0,1,4.2-.523,6.223,6.223,0,0,1,4.789,3.857l-3.788,1.728a5.7,5.7,0,0,0-1.283-1.678,2.428,2.428,0,0,0-2.476-.229l2.5,5.49a19.855,19.855,0,0,1,5.544,0,5.607,5.607,0,0,1,3.88,3.382,6.293,6.293,0,0,1-.262,6.49,9.262,9.262,0,0,1-3.322,2.943Zm-11.049-20.53a2.793,2.793,0,0,0-1.552,1.517,2.7,2.7,0,0,0,.193,2.027,2.522,2.522,0,0,0,1.783,1.5,5.6,5.6,0,0,0,1.883.012Zm8.264,14.422a3.985,3.985,0,0,0,1.4-1.266,2.937,2.937,0,0,0-.146-2.7,2.7,2.7,0,0,0-1.734-1.577,6.659,6.659,0,0,0-2.09-.09Z" transform="translate(-321.543 -155.051)" fill="#ecebeb"/>
          </g>
        </g>
      </g>
      <g id="Grupo_12592" data-name="Grupo 12592" transform="translate(268.473 163.477)">
        <path id="Rectángulo_3575" data-name="Rectángulo 3575" d="M3.47,0H128.2a3.471,3.471,0,0,1,3.471,3.471V79.337a3.47,3.47,0,0,1-3.47,3.47H3.471A3.471,3.471,0,0,1,0,79.336V3.47A3.47,3.47,0,0,1,3.47,0Z" fill="#47b1c2"/>
      </g>
      <g id="Grupo_12593" data-name="Grupo 12593" transform="translate(268.473 176.824)">
        <rect id="Rectángulo_3576" data-name="Rectángulo 3576" width="131.671" height="28.057" fill="#354a5c"/>
      </g>
      <g id="Grupo_12594" data-name="Grupo 12594" transform="translate(277.029 212.792)">
        <rect id="Rectángulo_3577" data-name="Rectángulo 3577" width="29.26" height="27.218" fill="#ecebeb"/>
      </g>
      <g id="Grupo_12595" data-name="Grupo 12595" transform="translate(313.569 213.854)">
        <rect id="Rectángulo_3578" data-name="Rectángulo 3578" width="58.093" height="5.85" fill="#354a5c"/>
      </g>
      <g id="Grupo_12596" data-name="Grupo 12596" transform="translate(313.569 225.231)">
        <rect id="Rectángulo_3579" data-name="Rectángulo 3579" width="41.322" height="5.85" fill="#354a5c"/>
      </g>
      <g id="Grupo_12601" data-name="Grupo 12601" transform="translate(277.029 212.792)">
        <g id="Grupo_12600" data-name="Grupo 12600" clip-path="url(#clip-path)">
          <g id="Grupo_12599" data-name="Grupo 12599" transform="translate(2.764 3.987)">
            <g id="Grupo_12597" data-name="Grupo 12597" transform="translate(4.03)">
              <path id="Trazado_45573" data-name="Trazado 45573" d="M295.527,197.885a7.836,7.836,0,1,1-7.837-7.834A7.837,7.837,0,0,1,295.527,197.885Z" transform="translate(-279.855 -190.051)" fill="#354a5c"/>
            </g>
            <g id="Grupo_12598" data-name="Grupo 12598" transform="translate(0 14.552)">
              <path id="Trazado_45574" data-name="Trazado 45574" d="M300.6,212.708a11.866,11.866,0,1,1-11.867-11.867A11.865,11.865,0,0,1,300.6,212.708Z" transform="translate(-276.867 -200.841)" fill="#354a5c"/>
            </g>
          </g>
        </g>
      </g>
    </g>
  </g>
</svg>
