<svg xmlns="http://www.w3.org/2000/svg" width="217" height="217" viewBox="0 0 217 217">
  <g id="Grupo_21278" data-name="Grupo 21278" transform="translate(-422 -7675)">
    <circle id="Elipse_951" data-name="Elipse 951" cx="108.5" cy="108.5" r="108.5" transform="translate(422 7675)" fill="#fae7b7"/>
    <g id="Grupo_12548" data-name="Grupo 12548" transform="translate(-345.924 6916.244)">
      <path id="Trazado_45515" data-name="Trazado 45515" d="M879.6,809.407h-43.21a9.472,9.472,0,0,0-9.47,9.477v103.38a9.47,9.47,0,0,0,9.47,9.473H879.6a9.474,9.474,0,0,0,9.472-9.473V818.884A9.477,9.477,0,0,0,879.6,809.407Z" fill="#474f59"/>
      <path id="Trazado_45516" data-name="Trazado 45516" d="M849.855,816.716h16.282a.835.835,0,0,1,0,1.67H849.855a.835.835,0,0,1,0-1.67Z" fill="#fff"/>
      <path id="Trazado_45517" data-name="Trazado 45517" d="M857.993,924.761a5.485,5.485,0,1,1,5.488-5.483A5.489,5.489,0,0,1,857.993,924.761Z" fill="#30363d"/>
      <rect id="Rectángulo_3560" data-name="Rectángulo 3560" width="53.849" height="79.784" transform="translate(831.071 828.026)" fill="#dce4e7"/>
      <path id="Trazado_45518" data-name="Trazado 45518" d="M884.92,837.733c-16.423,2.545-28.394,10.423-28.394,19.759,0,5.086,3.573,9.737,9.475,13.336l-9.28,9.113L873.6,874.4a61.046,61.046,0,0,0,11.318,2.832Z" fill="#cdd5d8"/>
      <path id="Trazado_45519" data-name="Trazado 45519" d="M857.993,915.468a3.805,3.805,0,1,0,3.812,3.81A3.811,3.811,0,0,0,857.993,915.468Z" fill="#474f59"/>
      <path id="Trazado_45520" data-name="Trazado 45520" d="M896.355,796.756A39.808,39.808,0,0,0,866,862.343l-9.28,17.6,16.881-10.7a39.817,39.817,0,1,0,22.753-72.489Z" fill="#d46f41"/>
      <path id="Trazado_45521" data-name="Trazado 45521" d="M896.355,796.756c-.133,0-.265.009-.4.012v79.639c.135,0,.267.006.4.006a39.829,39.829,0,0,0,0-79.657Z" fill="#ec8558"/>
      <g id="Grupo_12545" data-name="Grupo 12545">
        <path id="Trazado_45522" data-name="Trazado 45522" d="M892.785,864.087v-6.406a28.221,28.221,0,0,1-11.46-2.9l2.02-7.884a23.829,23.829,0,0,0,11.189,2.963c3.912,0,6.537-1.55,6.537-4.176,0-2.561-2.155-4.184-7.214-5.867-7.212-2.427-12.128-5.791-12.128-12.332,0-6,4.177-10.654,11.383-11.995v-6.406h6.607v5.931a24.443,24.443,0,0,1,9.846,2.227l-2.024,7.611a20.991,20.991,0,0,0-9.71-2.355c-4.368,0-5.792,1.952-5.792,3.837,0,2.157,2.362,3.641,8.157,5.729,8.02,2.831,11.186,6.541,11.186,12.673,0,6-4.177,11.123-11.932,12.4v6.942Z" fill="#dce4e7"/>
      </g>
      <g id="Grupo_12546" data-name="Grupo 12546">
        <path id="Trazado_45523" data-name="Trazado 45523" d="M900.2,832.068c-1.7-.614-3.106-1.175-4.241-1.716v10.235c3.56,1.433,5.116,2.929,5.116,5.1,0,2.293-2,3.765-5.116,4.1v14.3h3.495v-6.942c7.755-1.281,11.932-6.407,11.932-12.4C911.382,838.609,908.216,834.9,900.2,832.068Z" fill="#fff"/>
        <path id="Trazado_45524" data-name="Trazado 45524" d="M895.955,809.088v13.56a11.566,11.566,0,0,1,1.876-.146,20.991,20.991,0,0,1,9.71,2.355l2.024-7.611a24.443,24.443,0,0,0-9.846-2.227v-5.931Z" fill="#fff"/>
      </g>
    </g>
  </g>
</svg>
