<svg xmlns="http://www.w3.org/2000/svg" width="290.374" height="287.971" viewBox="0 0 290.374 287.971">
  <g id="Retirement" transform="translate(-239.813 -188.993)">
    <path id="Trazado_50790" data-name="Trazado 50790" d="M410.453,189c-9.41-.015-92.358-.249-139.27,70.41-24.971,37.611-41.726,99.115-17.249,132.626,7.228,9.9,11.017,7.719,49.656,31.143,53.037,32.153,52.789,40.432,74.745,47.788,28.582,9.577,70.814,9.557,102.448-13.961,35.9-26.686-3.928-81.718,23.15-117.321,37.671-49.531,33.873-85.872,6.121-118.4C481.282,187.561,432.137,189.03,410.453,189Z" transform="translate(-1.402)" fill="#facf7d"/>
    <g id="Grupo_19742" data-name="Grupo 19742" transform="translate(245.316 194.138)">
      <g id="Grupo_19738" data-name="Grupo 19738" transform="translate(0 114.019)">
        <path id="Trazado_50791" data-name="Trazado 50791" d="M275.584,615.6a.523.523,0,0,1-.519-.466c-1.6-14.527-.186-28.122,4.2-40.407a.523.523,0,1,1,.985.352c-4.331,12.134-5.725,25.572-4.144,39.941a.523.523,0,0,1-.463.577A.542.542,0,0,1,275.584,615.6Z" transform="translate(-267.856 -559.118)"/>
        <path id="Trazado_50792" data-name="Trazado 50792" d="M256.568,574.85a.523.523,0,0,1-.518-.452c-.037-.27-3.536-27.2,9.317-43.571a.523.523,0,0,1,.823.646c-12.577,16.018-9.139,42.518-9.1,42.784a.523.523,0,0,1-.448.589A.5.5,0,0,1,256.568,574.85Z" transform="translate(-255.588 -530.626)"/>
      </g>
      <g id="Grupo_19740" data-name="Grupo 19740" transform="translate(201.262 12.295)">
        <path id="Trazado_50793" data-name="Trazado 50793" d="M971.586,393.435a.523.523,0,0,1-.414-.2l-4.776-6.167a.523.523,0,0,1,.456-.842l12.028.979a.523.523,0,0,1,.262.947l-7.252,5.187A.521.521,0,0,1,971.586,393.435Zm-3.636-6.072,3.741,4.83,5.68-4.063Z" transform="translate(-919.651 -334.867)"/>
        <path id="Trazado_50794" data-name="Trazado 50794" d="M946.251,288.076a.524.524,0,0,1-.377-.886L977,254.849a.523.523,0,1,1,.754.726l-31.13,32.341A.521.521,0,0,1,946.251,288.076Z" transform="translate(-906.264 -249.214)"/>
        <path id="Trazado_50795" data-name="Trazado 50795" d="M927.435,275.688a.524.524,0,0,1-.493-.7l10.866-30.449a.523.523,0,0,1,.985.352l-10.866,30.449A.523.523,0,0,1,927.435,275.688Z" transform="translate(-894.011 -242.379)"/>
        <path id="Trazado_50796" data-name="Trazado 50796" d="M900.588,270.429a.519.519,0,0,1-.313-.1,4.034,4.034,0,0,1-1.971-3.087,2.623,2.623,0,0,1,.665-1.673,2.192,2.192,0,0,0,.508-1.017c.124-.8-.41-1.393-1.028-2.077a4.1,4.1,0,0,1-1.382-2.668c-.022-1.411,1.018-2.226,1.936-2.945.818-.641,1.591-1.247,1.687-2.209.109-1.1-.743-1.966-1.646-2.882-.989-1-2.109-2.141-1.931-3.736a4.384,4.384,0,0,1,1.932-2.826c.713-.6,1.329-1.111,1.335-1.834.009-1.047-1.214-2.218-3.536-3.386a.523.523,0,1,1,.47-.935c2.78,1.4,4.125,2.814,4.112,4.329-.01,1.207-.875,1.929-1.711,2.628a3.491,3.491,0,0,0-1.563,2.139c-.122,1.1.732,1.967,1.637,2.886.984,1,2.1,2.132,1.942,3.72a4.372,4.372,0,0,1-2.083,2.93c-.831.651-1.549,1.214-1.535,2.1a3.223,3.223,0,0,0,1.112,1.983,3.518,3.518,0,0,1,1.286,2.939,3.187,3.187,0,0,1-.7,1.481,1.651,1.651,0,0,0-.458,1.051c0,.72.52,1.476,1.551,2.247a.523.523,0,0,1-.314.942Z" transform="translate(-874.243 -238.993)"/>
        <g id="Grupo_19739" data-name="Grupo 19739" transform="translate(0 19.772)">
          <path id="Trazado_50797" data-name="Trazado 50797" d="M846.023,299.43a.523.523,0,0,1-.523-.523V296.2a.523.523,0,1,1,1.046,0v2.705A.523.523,0,0,1,846.023,299.43Z" transform="translate(-840.997 -295.679)"/>
          <path id="Trazado_50798" data-name="Trazado 50798" d="M846.023,317.5a.523.523,0,0,1-.523-.523v-2.705a.523.523,0,0,1,1.046,0v2.705A.523.523,0,0,1,846.023,317.5Z" transform="translate(-840.997 -307.443)"/>
          <path id="Trazado_50799" data-name="Trazado 50799" d="M835.818,309.636h-2.705a.523.523,0,0,1,0-1.046h2.705a.523.523,0,0,1,0,1.046Z" transform="translate(-832.589 -304.087)"/>
          <path id="Trazado_50800" data-name="Trazado 50800" d="M853.884,309.636h-2.705a.523.523,0,0,1,0-1.046h2.705a.523.523,0,0,1,0,1.046Z" transform="translate(-844.353 -304.087)"/>
        </g>
      </g>
      <g id="Grupo_19741" data-name="Grupo 19741" transform="translate(115.139 0)">
        <path id="Trazado_50801" data-name="Trazado 50801" d="M586.205,226.156a.523.523,0,0,1-.1-1.037,228.123,228.123,0,0,1,48.918-3.249.523.523,0,0,1-.053,1.045,226.987,226.987,0,0,0-48.663,3.231A.507.507,0,0,1,586.205,226.156Z" transform="translate(-585.682 -215.396)"/>
        <path id="Trazado_50802" data-name="Trazado 50802" d="M640.956,206.84a.523.523,0,0,1-.078-1.04c.24-.037,24.214-3.621,47.237-1.24a.523.523,0,1,1-.108,1.041c-22.894-2.367-46.733,1.2-46.971,1.233A.516.516,0,0,1,640.956,206.84Z" transform="translate(-621.336 -203.744)"/>
      </g>
    </g>
    <g id="Grupo_19757" data-name="Grupo 19757" transform="translate(252.783 189.237)">
      <g id="Grupo_19743" data-name="Grupo 19743" transform="translate(0 37.724)">
        <path id="Trazado_50803" data-name="Trazado 50803" d="M285.673,299.341H434.032c4.68,0,9.11,3.927,9.895,8.77L477.6,515.968c.784,4.844-2.373,8.77-7.053,8.77H322.188c-4.68,0-9.11-3.927-9.895-8.77L278.62,308.111C277.835,303.268,280.993,299.341,285.673,299.341Z" transform="translate(-277.975 -298.818)"/>
        <path id="Trazado_50804" data-name="Trazado 50804" d="M469.567,524.285H321.208c-4.918,0-9.589-4.131-10.411-9.21L277.124,307.218a8.221,8.221,0,0,1,1.716-6.77,7.533,7.533,0,0,1,5.854-2.607H433.052c4.919,0,9.589,4.132,10.412,9.21l33.673,207.857a8.221,8.221,0,0,1-1.716,6.77A7.532,7.532,0,0,1,469.567,524.285Zm-184.873-225.4a6.5,6.5,0,0,0-5.057,2.239,7.192,7.192,0,0,0-1.48,5.924l33.673,207.857c.744,4.594,4.951,8.331,9.378,8.331H469.567A6.5,6.5,0,0,0,474.624,521a7.193,7.193,0,0,0,1.48-5.924L442.431,307.218c-.744-4.593-4.951-8.331-9.378-8.331Z" transform="translate(-276.996 -297.841)"/>
      </g>
      <g id="Grupo_19744" data-name="Grupo 19744" transform="translate(4.765 37.724)">
        <path id="Trazado_50805" data-name="Trazado 50805" d="M299.334,299.341H447.693c4.68,0,9.11,3.927,9.9,8.77L491.26,515.968c.785,4.844-2.373,8.77-7.053,8.77H335.848c-4.68,0-9.11-3.927-9.895-8.77L292.281,308.111C291.5,303.268,294.654,299.341,299.334,299.341Z" transform="translate(-291.636 -298.818)" fill="#fff"/>
        <path id="Trazado_50806" data-name="Trazado 50806" d="M483.227,524.285H334.868c-4.918,0-9.588-4.131-10.411-9.21L290.784,307.218a8.22,8.22,0,0,1,1.716-6.77,7.532,7.532,0,0,1,5.854-2.607H446.713c4.918,0,9.588,4.132,10.411,9.21L490.8,514.908a8.221,8.221,0,0,1-1.716,6.77A7.533,7.533,0,0,1,483.227,524.285Zm-184.874-225.4a6.5,6.5,0,0,0-5.057,2.239,7.2,7.2,0,0,0-1.48,5.924L325.49,514.908c.744,4.594,4.951,8.331,9.378,8.331H483.227A6.5,6.5,0,0,0,488.284,521a7.193,7.193,0,0,0,1.48-5.924L456.091,307.218c-.744-4.593-4.951-8.331-9.378-8.331Z" transform="translate(-290.656 -297.841)"/>
      </g>
      <g id="Grupo_19751" data-name="Grupo 19751" transform="translate(23.599 51.641)">
        <g id="Grupo_19745" data-name="Grupo 19745">
          <path id="Trazado_50807" data-name="Trazado 50807" d="M376.767,528.226h129.55L475.7,339.241H346.151Z" transform="translate(-345.628 -338.718)" fill="#fff"/>
          <path id="Trazado_50808" data-name="Trazado 50808" d="M505.34,527.772H375.79a.523.523,0,0,1-.517-.44L344.658,338.348a.524.524,0,0,1,.517-.607h129.55a.523.523,0,0,1,.516.44l30.616,188.985a.523.523,0,0,1-.516.607Zm-129.1-1.046h128.49L474.279,338.787H345.789Z" transform="translate(-344.651 -337.741)"/>
        </g>
        <g id="Grupo_19750" data-name="Grupo 19750" transform="translate(20.856 29.457)">
          <g id="Grupo_19746" data-name="Grupo 19746">
            <path id="Trazado_50809" data-name="Trazado 50809" d="M405.394,428.052h98.258l-.949-5.86H404.444Z" transform="translate(-404.444 -422.192)" fill="#caddff"/>
            <path id="Trazado_50810" data-name="Trazado 50810" d="M484.327,461.125h72.594l-.949-5.86H483.378Z" transform="translate(-455.845 -443.729)" fill="#caddff"/>
          </g>
          <g id="Grupo_19747" data-name="Grupo 19747" transform="translate(5.056 31.213)">
            <path id="Trazado_50811" data-name="Trazado 50811" d="M419.89,517.535h98.258l-.949-5.86H418.941Z" transform="translate(-418.941 -511.675)" fill="#caddff"/>
            <path id="Trazado_50812" data-name="Trazado 50812" d="M498.824,550.609h72.594l-.949-5.86H497.874Z" transform="translate(-470.342 -533.213)" fill="#caddff"/>
          </g>
          <g id="Grupo_19748" data-name="Grupo 19748" transform="translate(10.113 62.425)">
            <path id="Trazado_50813" data-name="Trazado 50813" d="M434.386,607.019h98.258l-.949-5.86H433.437Z" transform="translate(-433.437 -601.159)" fill="#caddff"/>
            <path id="Trazado_50814" data-name="Trazado 50814" d="M513.32,640.093h72.594l-.949-5.86H512.371Z" transform="translate(-484.838 -622.696)" fill="#caddff"/>
          </g>
          <g id="Grupo_19749" data-name="Grupo 19749" transform="translate(15.169 93.638)">
            <path id="Trazado_50815" data-name="Trazado 50815" d="M448.883,696.5h98.258l-.949-5.86H447.933Z" transform="translate(-447.933 -690.643)" fill="#caddff"/>
            <path id="Trazado_50816" data-name="Trazado 50816" d="M527.816,729.576h72.594l-.949-5.86H526.867Z" transform="translate(-499.334 -712.18)" fill="#caddff"/>
          </g>
        </g>
      </g>
      <g id="Grupo_19756" data-name="Grupo 19756" transform="translate(37.002)">
        <g id="Grupo_19752" data-name="Grupo 19752" transform="translate(0 32.23)">
          <path id="Trazado_50817" data-name="Trazado 50817" d="M393.551,313.99h84.181c3.432,0,5.748-2.88,5.172-6.432l-1.509-9.319c-1.311-8.09-8.71-14.649-16.527-14.649h-68.3c-7.817,0-13.091,6.558-11.781,14.649l1.51,9.319A7.736,7.736,0,0,0,393.551,313.99Z" transform="translate(-384.059 -283.068)"/>
          <path id="Trazado_50818" data-name="Trazado 50818" d="M476.75,313.536H392.569a8.287,8.287,0,0,1-7.773-6.871l-1.509-9.318a13.384,13.384,0,0,1,2.787-11.024,12.235,12.235,0,0,1,9.51-4.231h68.3c8.05,0,15.7,6.769,17.043,15.088l1.51,9.319a6.166,6.166,0,0,1-1.29,5.078A5.662,5.662,0,0,1,476.75,313.536Zm-81.166-30.4A11.2,11.2,0,0,0,386.871,287a12.357,12.357,0,0,0-2.551,10.179l1.509,9.319a7.2,7.2,0,0,0,6.74,5.992H476.75a4.63,4.63,0,0,0,3.6-1.593,5.138,5.138,0,0,0,1.054-4.232l-1.51-9.318c-1.269-7.835-8.452-14.209-16.011-14.209Z" transform="translate(-383.077 -282.091)"/>
        </g>
        <g id="Grupo_19753" data-name="Grupo 19753" transform="translate(2.093 32.23)">
          <path id="Trazado_50819" data-name="Trazado 50819" d="M399.55,313.99h84.181c3.432,0,5.748-2.88,5.173-6.432l-1.51-9.319c-1.311-8.09-8.71-14.649-16.527-14.649h-68.3c-7.817,0-13.091,6.558-11.781,14.649l1.51,9.319A7.736,7.736,0,0,0,399.55,313.99Z" transform="translate(-390.059 -283.068)" fill="#99b9ff"/>
          <path id="Trazado_50820" data-name="Trazado 50820" d="M482.749,313.536H398.569a8.286,8.286,0,0,1-7.773-6.871l-1.51-9.318a13.386,13.386,0,0,1,2.787-11.024,12.235,12.235,0,0,1,9.51-4.231h68.3c8.05,0,15.7,6.769,17.043,15.088l1.51,9.319a6.165,6.165,0,0,1-1.29,5.077A5.66,5.66,0,0,1,482.749,313.536Zm-81.166-30.4A11.205,11.205,0,0,0,392.87,287a12.358,12.358,0,0,0-2.551,10.179l1.51,9.319a7.2,7.2,0,0,0,6.74,5.992h84.181a4.631,4.631,0,0,0,3.6-1.593,5.139,5.139,0,0,0,1.054-4.232l-1.51-9.318c-1.269-7.835-8.452-14.209-16.01-14.209Z" transform="translate(-389.077 -282.091)"/>
        </g>
        <g id="Grupo_19754" data-name="Grupo 19754" transform="translate(28.169)">
          <path id="Trazado_50821" data-name="Trazado 50821" d="M465.569,207.672l4.163,25.7a6.312,6.312,0,0,0,5.921,5.248h21.708a4.281,4.281,0,0,0,4.22-5.248l-4.163-25.7c-1.474-9.1-9.8-16.481-18.595-16.481S464.094,198.57,465.569,207.672Zm10.377-3.662a4.183,4.183,0,0,1,4.124-5.127,6.167,6.167,0,0,1,5.785,5.127,4.183,4.183,0,0,1-4.124,5.127A6.167,6.167,0,0,1,475.946,204.01Z" transform="translate(-464.818 -190.668)"/>
          <path id="Trazado_50822" data-name="Trazado 50822" d="M496.379,238.167H474.671a6.861,6.861,0,0,1-6.438-5.687l-4.163-25.7a15,15,0,0,1,3.121-12.351,13.7,13.7,0,0,1,10.65-4.737c9.026,0,17.6,7.59,19.111,16.921l4.163,25.7a5.126,5.126,0,0,1-1.074,4.221A4.713,4.713,0,0,1,496.379,238.167Zm-18.537-47.429a12.671,12.671,0,0,0-9.853,4.369,13.97,13.97,0,0,0-2.885,11.505l4.163,25.7a5.779,5.779,0,0,0,5.4,4.808h21.708a3.683,3.683,0,0,0,2.866-1.266,4.1,4.1,0,0,0,.838-3.375l-4.163-25.7C494.486,197.934,486.377,190.737,477.841,190.737Zm2.907,17.946a6.716,6.716,0,0,1-6.3-5.567,5.02,5.02,0,0,1,1.052-4.134,4.617,4.617,0,0,1,3.588-1.6,6.716,6.716,0,0,1,6.3,5.567,5.019,5.019,0,0,1-1.052,4.134A4.617,4.617,0,0,1,480.749,208.684Zm-5.269-5.734a5.634,5.634,0,0,0,5.269,4.688,3.588,3.588,0,0,0,2.791-1.233,3.992,3.992,0,0,0,.816-3.288,5.634,5.634,0,0,0-5.269-4.688,3.587,3.587,0,0,0-2.791,1.232A3.991,3.991,0,0,0,475.48,202.949Z" transform="translate(-463.835 -189.691)"/>
        </g>
        <g id="Grupo_19755" data-name="Grupo 19755" transform="translate(29.523)">
          <path id="Trazado_50823" data-name="Trazado 50823" d="M469.451,207.672l4.163,25.7a6.312,6.312,0,0,0,5.921,5.248h21.708a4.281,4.281,0,0,0,4.221-5.248l-4.163-25.7c-1.474-9.1-9.8-16.481-18.595-16.481S467.976,198.57,469.451,207.672Zm10.377-3.662a4.182,4.182,0,0,1,4.124-5.127,6.167,6.167,0,0,1,5.785,5.127,4.183,4.183,0,0,1-4.124,5.127A6.167,6.167,0,0,1,479.828,204.01Z" transform="translate(-468.7 -190.668)" fill="#99b9ff"/>
          <path id="Trazado_50824" data-name="Trazado 50824" d="M500.261,238.167H478.553a6.861,6.861,0,0,1-6.438-5.687l-4.163-25.7a15,15,0,0,1,3.121-12.351,13.7,13.7,0,0,1,10.65-4.737c9.026,0,17.6,7.59,19.111,16.921l4.163,25.7a5.126,5.126,0,0,1-1.074,4.221A4.714,4.714,0,0,1,500.261,238.167Zm-18.537-47.429a12.671,12.671,0,0,0-9.853,4.369,13.97,13.97,0,0,0-2.885,11.505l4.163,25.7a5.779,5.779,0,0,0,5.4,4.808h21.708a3.682,3.682,0,0,0,2.866-1.266,4.1,4.1,0,0,0,.839-3.375l-4.163-25.7C498.368,197.934,490.259,190.737,481.723,190.737Zm2.907,17.946a6.716,6.716,0,0,1-6.3-5.567h0a5.019,5.019,0,0,1,1.052-4.134,4.617,4.617,0,0,1,3.588-1.6,6.715,6.715,0,0,1,6.3,5.567,5.02,5.02,0,0,1-1.052,4.134A4.618,4.618,0,0,1,484.631,208.684Zm-5.269-5.734a5.634,5.634,0,0,0,5.269,4.688,3.588,3.588,0,0,0,2.791-1.233,3.992,3.992,0,0,0,.816-3.288,5.634,5.634,0,0,0-5.268-4.688,3.587,3.587,0,0,0-2.791,1.232,3.993,3.993,0,0,0-.817,3.288Z" transform="translate(-467.717 -189.691)"/>
        </g>
      </g>
    </g>
    <g id="Grupo_19768" data-name="Grupo 19768" transform="translate(392.792 247.756)">
      <g id="Grupo_19759" data-name="Grupo 19759" transform="translate(0 54.383)">
        <path id="Trazado_50825" data-name="Trazado 50825" d="M734.666,876.1c2.568-19.258,4.516-31.727,4.516-31.727l81.326-14.127,8.117,23.028c2.431,6.975,5.759,17.286,8.861,29.974.458,1.874,1.04,4.321,1.577,6.807C805.963,895.459,768.448,891.8,734.666,876.1Z" transform="translate(-715.036 -719.716)"/>
        <path id="Trazado_50826" data-name="Trazado 50826" d="M918.573,891.036c1.8,6.151,4.62,14.661,1.5,18.747-5.675,7.425-10.382,6.233-17.386,3.68-14.008-5.107-36.363-13.173-42.89-8.689l-.289-13.737Z" transform="translate(-796.33 -759.304)"/>
        <path id="Trazado_50827" data-name="Trazado 50827" d="M720.3,513.371a30.284,30.284,0,0,0-27.355,16.917c-5.9,12.041-14.221,43.551-14.546,57.313-.567,24.054,20.5,25.409,21.129,25.444a.013.013,0,0,1,.013.015c-.066.7-2.527,26.832-2.722,31.472-.356,8.486,15.383,21.727,33.46,15.2,17.986-6.49,67.125-19.421,72.115-8.411a.013.013,0,1,0,.024-.008l-20.614-76.474a.015.015,0,0,1,.015-.018l16.921.817.008,0,13.781-7.97a.014.014,0,0,0,.007-.016l-3.49-15.457c-6.629-26.41-24.366-38.527-47.255-38.634Z" transform="translate(-678.389 -513.371)" fill="#5479f7"/>
        <g id="Grupo_19758" data-name="Grupo 19758" transform="translate(86.042 38.081)">
          <path id="Trazado_50828" data-name="Trazado 50828" d="M936.185,644.434c3.163-.585,2.3-4.251,13.411-4.913,32.067-1.911,16.527-18.193-1.844-15.091-6.089,1.028-8.483,4.967-10.774,5.966C917.758,638.782,929.88,645.6,936.185,644.434Z" transform="translate(-926.051 -623.518)" fill="#fff"/>
          <path id="Trazado_50829" data-name="Trazado 50829" d="M933.65,644.121c-3.485,0-7.537-1.76-8.41-4.612-.735-2.4.5-6.181,10.543-10.563a10.718,10.718,0,0,0,2.239-1.607,17.168,17.168,0,0,1,8.657-4.4c8.818-1.489,17.021,1.442,19.859,5.136a4.329,4.329,0,0,1,.76,4.613c-1.594,3.492-8.219,5.758-18.656,6.38-7.277.434-9.263,2.162-10.713,3.424a5.272,5.272,0,0,1-2.633,1.482h0A9.106,9.106,0,0,1,933.65,644.121Zm17.814-20.533a27.743,27.743,0,0,0-4.611.387,16.044,16.044,0,0,0-8.159,4.167A11.315,11.315,0,0,1,936.2,629.9c-9.83,4.289-10.46,7.666-9.961,9.3.826,2.7,5.644,4.342,8.863,3.746h0a4.261,4.261,0,0,0,2.136-1.242c1.564-1.361,3.705-3.224,11.338-3.679,14.041-.837,17.1-4.314,17.766-5.77a3.4,3.4,0,0,0-.638-3.541C963.551,625.91,958,623.588,951.464,623.588Z" transform="translate(-925.065 -622.547)"/>
        </g>
      </g>
      <g id="Grupo_19765" data-name="Grupo 19765" transform="translate(49.812 0)">
        <g id="Grupo_19760" data-name="Grupo 19760" transform="translate(5.134 29.366)">
          <path id="Trazado_50830" data-name="Trazado 50830" d="M859.036,443.15c.056.334.233,14.942.849,20.522a19.2,19.2,0,0,0,3.184,8.658l3.246,4.8c-3.12,1.021-7.332,1.652-13.994,1.155a39.307,39.307,0,0,1-14.906-4.173,12.6,12.6,0,0,1,7.43-4.783c-.809-4.122-.949-19.226-1.758-23.348Z" transform="translate(-836.892 -442.627)" fill="#fff"/>
          <path id="Trazado_50831" data-name="Trazado 50831" d="M855.74,478c-1.389,0-2.863-.059-4.434-.176A39.57,39.57,0,0,1,836.2,473.6a.523.523,0,0,1-.182-.779,13.109,13.109,0,0,1,7.249-4.864c-.359-2.282-.574-6.649-.8-11.253-.232-4.708-.473-9.576-.87-11.6a.524.524,0,0,1,.422-.616l15.949-2.83a.523.523,0,0,1,.607.428c.018.1.026.38.073,2.456.1,4.5.314,13.876.78,18.1a18.761,18.761,0,0,0,3.1,8.422l3.246,4.8a.523.523,0,0,1-.271.79A31.076,31.076,0,0,1,855.74,478Zm-18.494-5.052a38.508,38.508,0,0,0,14.137,3.833c5.4.4,9.595.109,13.126-.924l-2.851-4.215a19.8,19.8,0,0,1-3.27-8.893c-.471-4.265-.684-13.668-.786-18.187-.016-.717-.031-1.347-.042-1.772l-14.846,2.633c.356,2.291.571,6.641.8,11.225.232,4.707.473,9.574.87,11.6a.523.523,0,0,1-.4.611,12.073,12.073,0,0,0-6.735,4.091Z" transform="translate(-835.915 -441.65)"/>
        </g>
        <g id="Grupo_19763" data-name="Grupo 19763" transform="translate(0.243)">
          <g id="Grupo_19761" data-name="Grupo 19761" transform="translate(0 4.198)">
            <path id="Trazado_50832" data-name="Trazado 50832" d="M836.083,376.92a12.192,12.192,0,0,1,4.747-3.978,15.663,15.663,0,0,1,4.187-1.041,25.449,25.449,0,0,1,6.392-.126c.885.1,1.9.574,2.756.591a10.194,10.194,0,0,0,2.891-.952,7.6,7.6,0,0,1,4.505-.13,5.274,5.274,0,0,1,3.346,2.905c.775,1.875.213,4.019.475,6.031.349,2.682,2.159,5.32,1.3,7.883a8.128,8.128,0,0,1-2.826,3.388,24.775,24.775,0,0,1-4.677,3.5c-3.138,1.53-6.565.869-9.893,1.361-2.841.42-4.739,2.766-6.209,5.036a9.173,9.173,0,0,0-.884,2.593c-.514,1.929-.891,4.069-2.455,5.468-1.891,1.692-6.568,2.845-14.537-.113a2.749,2.749,0,0,1-1.764-3.044c.3-1.741.7-3.96,1.258-6.045,0-3.986,2.588-8.159,4.771-11.283,1.913-2.737,3.075-5.916,4.635-8.869A23.624,23.624,0,0,1,836.083,376.92Z" transform="translate(-822.869 -370.476)" fill="#fff"/>
            <path id="Trazado_50833" data-name="Trazado 50833" d="M832.941,410.71a25.862,25.862,0,0,1-8.9-1.862,3.274,3.274,0,0,1-2.1-3.624c.323-1.855.712-4,1.25-6.025.029-4.073,2.613-8.289,4.865-11.513A38.205,38.205,0,0,0,831.129,382c.484-1.032.985-2.1,1.528-3.127a23.857,23.857,0,0,1,2.031-3.248h0a12.707,12.707,0,0,1,4.955-4.142,16.333,16.333,0,0,1,4.326-1.081,26.038,26.038,0,0,1,6.524-.127,8.69,8.69,0,0,1,1.324.3,5.944,5.944,0,0,0,1.381.285,4.626,4.626,0,0,0,1.736-.531,10.21,10.21,0,0,1,.985-.4,8.058,8.058,0,0,1,4.818-.132,5.786,5.786,0,0,1,3.676,3.205,9.391,9.391,0,0,1,.455,3.907,14.643,14.643,0,0,0,.055,2.257,15.753,15.753,0,0,0,.725,2.765c.569,1.741,1.158,3.542.548,5.352a8.621,8.621,0,0,1-2.989,3.624c-.323.268-.643.542-.963.818a18.342,18.342,0,0,1-3.819,2.752,15.63,15.63,0,0,1-6.647,1.179,28.968,28.968,0,0,0-3.4.229c-2.665.394-4.451,2.649-5.847,4.8a6.591,6.591,0,0,0-.691,1.943c-.042.171-.084.339-.127.5-.062.233-.122.468-.182.705-.46,1.811-.937,3.682-2.429,5.018C838.463,409.436,836.619,410.71,832.941,410.71Zm2.584-34.456a22.87,22.87,0,0,0-1.942,3.108c-.532,1.006-1.027,2.062-1.507,3.083a38.948,38.948,0,0,1-3.162,5.841c-2.177,3.116-4.676,7.18-4.676,10.983a.523.523,0,0,1-.018.135c-.536,2-.925,4.146-1.248,6a2.228,2.228,0,0,0,1.431,2.464c7.423,2.755,12.1,1.917,14.005.214,1.255-1.123,1.691-2.838,2.113-4.5.061-.241.122-.481.185-.717.042-.156.081-.318.122-.483a7.436,7.436,0,0,1,.828-2.26c1.434-2.212,3.476-4.811,6.572-5.269a29.779,29.779,0,0,1,3.522-.24,14.612,14.612,0,0,0,6.218-1.073,17.554,17.554,0,0,0,3.6-2.6c.325-.28.649-.559.978-.831a7.831,7.831,0,0,0,2.664-3.152c.5-1.481-.011-3.041-.551-4.693a16.492,16.492,0,0,1-.768-2.955,15.616,15.616,0,0,1-.064-2.419,8.485,8.485,0,0,0-.376-3.48,4.731,4.731,0,0,0-3.015-2.6,7.1,7.1,0,0,0-4.193.128,9.31,9.31,0,0,0-.88.357,5.415,5.415,0,0,1-2.18.621,6.761,6.761,0,0,1-1.645-.325,7.823,7.823,0,0,0-1.16-.27,25,25,0,0,0-6.26.125,15.146,15.146,0,0,0-4.049,1,11.528,11.528,0,0,0-4.539,3.814Zm-11.81,23.015h0Z" transform="translate(-821.893 -369.496)"/>
          </g>
          <g id="Grupo_19762" data-name="Grupo 19762" transform="translate(0.1)">
            <path id="Trazado_50834" data-name="Trazado 50834" d="M842.589,376.248c-.138.653-1.6,1.582-2.1,2.015,0,0-1.415,9.637-2.58,12.9s-11.56.427-11.56.427l-.15-3.237-2.09-1.1a.807.807,0,0,1-.3-1.152,31.1,31.1,0,0,0,3.957-8.677c.877-3.246.847-6.647,1.89-9.866a12.276,12.276,0,0,1,4.483-6.468,14.6,14.6,0,0,1,7.559-2.1c5.9-.3,9.938,1.351,13.754,5.813a3.158,3.158,0,0,1,.656,1.006,1.507,1.507,0,0,1-1.089,1.814,6.883,6.883,0,0,1-3.486,0,21.747,21.747,0,0,0-5.726-.067,8.926,8.926,0,0,0-3.959,1.269,4.152,4.152,0,0,0-1.956,3.5,4.468,4.468,0,0,0,.963,2.383c.2.263,1.712,1.228,1.74,1.346A.409.409,0,0,1,842.589,376.248Z" transform="translate(-823.155 -358.437)" fill="#fff"/>
            <path id="Trazado_50835" data-name="Trazado 50835" d="M832.827,392.283a33.07,33.07,0,0,1-7.589-1.162.523.523,0,0,1-.385-.481l-.137-2.938-1.826-.964a1.33,1.33,0,0,1-.5-1.9,30.548,30.548,0,0,0,3.892-8.53,36.341,36.341,0,0,0,.811-4.461,31.518,31.518,0,0,1,1.086-5.43,12.879,12.879,0,0,1,4.685-6.739c1.934-1.319,4.422-2.014,7.827-2.186,6.163-.311,10.27,1.426,14.178,6a3.636,3.636,0,0,1,.754,1.18,2.014,2.014,0,0,1-1.395,2.467,6.418,6.418,0,0,1-3.383.089l-.369-.055a21.223,21.223,0,0,0-5.588-.065,8.209,8.209,0,0,0-3.729,1.184,3.64,3.64,0,0,0-1.727,3.042,4.008,4.008,0,0,0,.859,2.1c.089.1.589.452.887.664.749.532.884.627.943.873a.929.929,0,0,1,0,.414h0c-.135.632-.857,1.222-1.787,1.925-.123.094-.238.18-.334.256-.215,1.435-1.486,9.749-2.576,12.805C836.906,391.83,834.993,392.283,832.827,392.283Zm-6.946-2.074c3.863,1,9.855,1.787,10.562-.2,1.135-3.182,2.542-12.709,2.556-12.805a.523.523,0,0,1,.173-.318c.136-.119.321-.259.535-.421a7.536,7.536,0,0,0,1.338-1.187c-.135-.1-.321-.232-.471-.339a5.973,5.973,0,0,1-1.118-.889,4.967,4.967,0,0,1-1.067-2.669,4.636,4.636,0,0,1,2.187-3.966,9.6,9.6,0,0,1,4.188-1.354,22.223,22.223,0,0,1,5.864.069l.376.056a5.667,5.667,0,0,0,2.844-.029c.385-.151.984-.565.784-1.161a2.79,2.79,0,0,0-.557-.832c-3.671-4.292-7.535-5.923-13.329-5.63a13.832,13.832,0,0,0-7.29,2.005,11.854,11.854,0,0,0-4.28,6.2,30.734,30.734,0,0,0-1.045,5.252,37.108,37.108,0,0,1-.837,4.59,31.6,31.6,0,0,1-4.022,8.823.281.281,0,0,0-.036.224.286.286,0,0,0,.146.182l2.09,1.1a.524.524,0,0,1,.278.438Zm15.333-14.792Zm.4-.147h0Z" transform="translate(-822.179 -357.459)"/>
          </g>
          <path id="Trazado_50836" data-name="Trazado 50836" d="M875.432,424.451s2.66-6.085,4.889-4.514S879.471,428.147,875.432,424.451Z" transform="translate(-856.757 -397.976)" fill="#fff"/>
        </g>
        <g id="Grupo_19764" data-name="Grupo 19764" transform="translate(0 13.118)">
          <path id="Trazado_50837" data-name="Trazado 50837" d="M823.314,406.115a.523.523,0,0,1-.356-.14,7.289,7.289,0,0,1-1.748-4.778,8.857,8.857,0,0,1,.57-3.813c.493-1.165,1.238-1.831,2.1-1.876,1.372-.072,2.607,1.517,3.071,3.949a.523.523,0,0,1-1.028.2c-.345-1.808-1.194-3.138-1.99-3.1-.432.022-.866.473-1.189,1.238a7.809,7.809,0,0,0-.488,3.351,6.359,6.359,0,0,0,1.414,4.064.523.523,0,0,1-.356.907Z" transform="translate(-821.195 -395.354)"/>
          <path id="Trazado_50838" data-name="Trazado 50838" d="M844.4,406.548c-2.048,0-3.757-2.4-3.92-5.547a7.613,7.613,0,0,1,.821-4.015,3.288,3.288,0,0,1,2.641-1.914c2.107-.11,3.888,2.328,4.055,5.544a7.619,7.619,0,0,1-.821,4.015,3.289,3.289,0,0,1-2.64,1.914C844.489,406.547,844.444,406.548,844.4,406.548Zm-.328-10.434-.077,0a2.3,2.3,0,0,0-1.778,1.374,6.558,6.558,0,0,0-.692,3.456c.132,2.543,1.475,4.631,2.956,4.553a2.3,2.3,0,0,0,1.778-1.375,6.562,6.562,0,0,0,.693-3.456C846.821,398.171,845.512,396.114,844.072,396.114Z" transform="translate(-833.745 -395.068)"/>
          <path id="Trazado_50839" data-name="Trazado 50839" d="M858.469,403.472a.523.523,0,0,1-.036-1.045l4.115-.291a.523.523,0,1,1,.074,1.044l-4.115.292Z" transform="translate(-845.127 -399.669)"/>
        </g>
      </g>
      <g id="Grupo_19766" data-name="Grupo 19766" transform="translate(51.823 39.176)">
        <path id="Trazado_50840" data-name="Trazado 50840" d="M857.26,505.047s-4.651,7.3-8.84,6.008c-2.2-.677-4.349-7.872-5.227-8.128-2.807-.818-8.155-2.151-11.44-8.018-3.067-5.479-2.4-8.405-1.608-9.75a1.853,1.853,0,0,0-.045-1.984,3.644,3.644,0,0,1-.563-3.524,1.876,1.876,0,0,0-.015-1.49c-.78-1.815-2.223-5.99.583-6.812a1.879,1.879,0,0,1,2.044.7,20.256,20.256,0,0,0,5.048,5.005c3.249,2.067,5.2,3.48,6.829,4.411,1.4.8,2.136-6.183,5.5-8.805,2.983-2.327,4-1.15,4.3-.056s-1.548,1.528-2.6,6.731c-1.233,6.089.056,11.212.43,13.954C852.087,496.5,857.26,505.047,857.26,505.047Z" transform="translate(-827.931 -470.749)" fill="#fff"/>
        <path id="Trazado_50841" data-name="Trazado 50841" d="M848.473,510.753a3.983,3.983,0,0,1-1.176-.175c-1.454-.447-2.633-2.77-4.022-5.76a14.174,14.174,0,0,0-1.248-2.38l-.3-.087c-2.846-.82-8.142-2.346-11.4-8.163-3.08-5.5-2.571-8.622-1.6-10.271a1.325,1.325,0,0,0-.027-1.425,4.07,4.07,0,0,1-.609-4.028,1.355,1.355,0,0,0-.017-1.073c-.652-1.517-1.621-4.328-.787-6.1a2.6,2.6,0,0,1,1.7-1.42,2.4,2.4,0,0,1,2.615.895,19.717,19.717,0,0,0,4.905,4.871c1.421.9,2.578,1.673,3.6,2.351,1.266.842,2.271,1.509,3.165,2.022a9.7,9.7,0,0,0,1.134-2.382c.8-2.049,1.9-4.855,3.826-6.356,1.582-1.234,2.823-1.677,3.791-1.355a2.141,2.141,0,0,1,1.333,1.573c.18.661-.137,1.142-.539,1.75a13.155,13.155,0,0,0-2.054,5.221,32.488,32.488,0,0,0,.195,12.253c.095.568.18,1.079.241,1.527.419,3.071,5.489,11.475,5.54,11.56a.523.523,0,0,1-.007.552C856.55,504.636,852.6,510.753,848.473,510.753Zm-18.814-39.934a1.34,1.34,0,0,0-.377.054,1.575,1.575,0,0,0-1.05.861c-.482,1.024-.19,2.936.8,5.243a2.4,2.4,0,0,1,.014,1.907,3.153,3.153,0,0,0,.517,3.02,2.362,2.362,0,0,1,.063,2.543c-.68,1.156-1.374,3.893,1.613,9.229,3.046,5.442,7.884,6.836,10.775,7.669l.354.1c.547.159.94.963,1.854,2.929.9,1.933,2.257,4.855,3.381,5.2,3.336,1.026,7.2-4.259,8.067-5.522-.921-1.545-5.1-8.691-5.51-11.674-.06-.439-.144-.94-.237-1.5a33.4,33.4,0,0,1-.188-12.633,14.107,14.107,0,0,1,2.207-5.591c.346-.524.454-.71.4-.9a1.166,1.166,0,0,0-.654-.856c-.34-.113-1.157-.108-2.817,1.187-1.7,1.324-2.737,3.976-3.5,5.913-.652,1.662-1.082,2.76-1.8,3.013a.923.923,0,0,1-.786-.078c-.936-.534-1.966-1.218-3.269-2.084-1.016-.676-2.169-1.441-3.581-2.34a20.768,20.768,0,0,1-5.191-5.139A1.354,1.354,0,0,0,829.659,470.819Z" transform="translate(-826.961 -469.772)"/>
      </g>
      <path id="Trazado_50842" data-name="Trazado 50842" d="M867.11,560.6l14.085-8.974s19.04,30.785,33.46,41.235c7.02,5.087,20.638-.894,20.638-.894s13.075,50.248-12.161,57.431C881.091,661.363,867.11,560.6,867.11,560.6Z" transform="translate(-801.283 -483.899)" fill="#5479f7"/>
      <g id="Grupo_19767" data-name="Grupo 19767" transform="translate(20.042 66.956)">
        <path id="Trazado_50843" data-name="Trazado 50843" d="M739.27,755.389a27.42,27.42,0,0,1-2.955-.154.523.523,0,0,1,.113-1.041c15.562,1.691,40-11.8,56.2-23.862a.523.523,0,1,1,.625.839,170.449,170.449,0,0,1-27.985,16.969C755.013,752.959,746.289,755.389,739.27,755.389Z" transform="translate(-735.848 -667.16)" fill="#caddff"/>
        <path id="Trazado_50844" data-name="Trazado 50844" d="M782.524,652.174a10.375,10.375,0,0,1-2.446-.257c-13.376-3.276-10.252-20.143-10.219-20.313a.523.523,0,0,1,1.027.2,25.8,25.8,0,0,0,.029,8.487c1.062,5.77,4.228,9.339,9.412,10.609,7.37,1.806,27.288-7.522,27.488-7.617a.523.523,0,1,1,.446.946C807.507,644.586,791.3,652.174,782.524,652.174Z" transform="translate(-757.775 -602.66)" fill="#caddff"/>
        <path id="Trazado_50845" data-name="Trazado 50845" d="M941.9,593.407a.52.52,0,0,1-.313-.1c-15.346-11.47-34.266-42.78-34.456-43.095a.523.523,0,1,1,.9-.539c.188.313,19,31.449,34.185,42.8a.523.523,0,0,1-.314.942Z" transform="translate(-847.34 -549.415)" fill="#caddff"/>
        <path id="Trazado_50846" data-name="Trazado 50846" d="M916.131,659.875c-7.417,0-14.585-4.405-21.331-13.119-5.73-7.4-11.181-17.926-16.2-31.283a314.776,314.776,0,0,1-12.979-46.3.523.523,0,0,1,.233-.537l6.14-3.91a.523.523,0,1,1,.562.882l-5.841,3.719a314,314,0,0,0,12.868,45.788c4.984,13.256,10.384,23.687,16.049,31,7.005,9.047,14.42,13.3,22.037,12.643a.523.523,0,1,1,.09,1.043C917.215,659.852,916.672,659.875,916.131,659.875Z" transform="translate(-820.348 -559.333)" fill="#caddff"/>
      </g>
    </g>
    <g id="Grupo_19780" data-name="Grupo 19780" transform="translate(239.813 360.997)">
      <rect id="Rectángulo_4878" data-name="Rectángulo 4878" width="79.298" height="60.985" transform="translate(63.344 27.1)" fill="#caddff"/>
      <path id="Trazado_50847" data-name="Trazado 50847" d="M285.261,683.611h57.791L298.669,703.74H241.684a.174.174,0,0,1-.072-.333Z" transform="translate(-240.918 -683.089)" fill="#99b9ff"/>
      <path id="Trazado_50848" data-name="Trazado 50848" d="M242.943,703.318h-2.5a.631.631,0,0,1-.261-1.206l43.867-19.9h53.813a.486.486,0,1,1,0,.972h-53.6l-42.24,19.157h.921a.486.486,0,1,1,0,.972Z" transform="translate(-239.813 -682.181)"/>
      <g id="Grupo_19769" data-name="Grupo 19769" transform="translate(57.112)">
        <path id="Trazado_50849" data-name="Trazado 50849" d="M405.049,703.758h89.4l-44.84-20.144Z" transform="translate(-404.526 -683.09)" fill="#fff"/>
        <path id="Trazado_50850" data-name="Trazado 50850" d="M493.477,703.3h-89.4a.523.523,0,0,1-.216-1l44.564-20.144a.523.523,0,0,1,.43,0L493.691,702.3a.523.523,0,0,1-.215,1ZM406.5,702.258h84.535l-42.4-19.047Z" transform="translate(-403.549 -682.114)"/>
      </g>
      <rect id="Rectángulo_4879" data-name="Rectángulo 4879" width="58.81" height="60.941" transform="translate(4.509 27.035)" fill="#caddff"/>
      <g id="Grupo_19770" data-name="Grupo 19770" transform="translate(63.344 27.1)">
        <rect id="Rectángulo_4880" data-name="Rectángulo 4880" width="5.699" height="60.985" transform="translate(58.658)" fill="#fff"/>
        <rect id="Rectángulo_4881" data-name="Rectángulo 4881" width="5.699" height="60.985" transform="translate(43.948)" fill="#fff"/>
        <rect id="Rectángulo_4882" data-name="Rectángulo 4882" width="5.699" height="60.985" transform="translate(29.237)" fill="#fff"/>
        <rect id="Rectángulo_4883" data-name="Rectángulo 4883" width="5.699" height="60.985" transform="translate(14.527)" fill="#fff"/>
        <rect id="Rectángulo_4884" data-name="Rectángulo 4884" width="5.699" height="60.985" fill="#fff"/>
        <rect id="Rectángulo_4885" data-name="Rectángulo 4885" width="5.699" height="60.985" transform="translate(73.368)" fill="#fff"/>
      </g>
      <g id="Grupo_19771" data-name="Grupo 19771" transform="translate(4.502 27.1)">
        <rect id="Rectángulo_4886" data-name="Rectángulo 4886" width="5.699" height="60.985" transform="translate(44.131)" fill="#99b9ff"/>
        <rect id="Rectángulo_4887" data-name="Rectángulo 4887" width="5.699" height="60.985" transform="translate(29.421)" fill="#99b9ff"/>
        <rect id="Rectángulo_4888" data-name="Rectángulo 4888" width="5.699" height="60.985" transform="translate(14.71)" fill="#99b9ff"/>
        <rect id="Rectángulo_4889" data-name="Rectángulo 4889" width="5.699" height="60.985" fill="#99b9ff"/>
      </g>
      <g id="Grupo_19772" data-name="Grupo 19772" transform="translate(3.986 20.171)">
        <rect id="Rectángulo_4890" data-name="Rectángulo 4890" width="58.81" height="6.416" transform="translate(59.333 6.939) rotate(180)" fill="#99b9ff"/>
        <path id="Trazado_50851" data-name="Trazado 50851" d="M310.573,747.4H251.763a.523.523,0,0,1-.523-.523v-6.416a.523.523,0,0,1,.523-.523h58.809a.523.523,0,0,1,.523.523v6.416A.523.523,0,0,1,310.573,747.4Zm-58.286-1.046h57.763v-5.37H252.286Z" transform="translate(-251.24 -739.941)"/>
      </g>
      <g id="Grupo_19773" data-name="Grupo 19773" transform="translate(62.821 87.562)">
        <rect id="Rectángulo_4891" data-name="Rectángulo 4891" width="20.226" height="13.818" transform="translate(20.749 14.341) rotate(180)" fill="#fff"/>
        <path id="Trazado_50852" data-name="Trazado 50852" d="M440.663,948.01H420.437a.523.523,0,0,1-.523-.523V933.669a.523.523,0,0,1,.523-.523h20.226a.523.523,0,0,1,.523.523v13.818A.523.523,0,0,1,440.663,948.01Zm-19.7-1.046H440.14V934.192H420.96Z" transform="translate(-419.914 -933.146)"/>
      </g>
      <g id="Grupo_19774" data-name="Grupo 19774" transform="translate(62.795 20.171)">
        <rect id="Rectángulo_4892" data-name="Rectángulo 4892" width="79.092" height="6.416" transform="translate(79.616 6.939) rotate(180)" fill="#fff"/>
        <path id="Trazado_50853" data-name="Trazado 50853" d="M499.457,747.4H420.364a.523.523,0,0,1-.523-.523v-6.416a.523.523,0,0,1,.523-.523h79.092a.523.523,0,0,1,.523.523v6.416A.523.523,0,0,1,499.457,747.4Zm-78.569-1.046h78.046v-5.37H420.887Z" transform="translate(-419.841 -739.941)"/>
      </g>
      <g id="Grupo_19775" data-name="Grupo 19775" transform="translate(121.488 87.562)">
        <rect id="Rectángulo_4893" data-name="Rectángulo 4893" width="20.236" height="13.818" transform="translate(20.759 14.341) rotate(180)" fill="#fff"/>
        <path id="Trazado_50854" data-name="Trazado 50854" d="M608.867,948.01H588.631a.523.523,0,0,1-.523-.523V933.669a.523.523,0,0,1,.523-.523h20.236a.523.523,0,0,1,.523.523v13.818A.523.523,0,0,1,608.867,948.01Zm-19.713-1.046h19.189V934.192H589.154Z" transform="translate(-588.108 -933.146)"/>
      </g>
      <g id="Grupo_19776" data-name="Grupo 19776" transform="translate(83.046 87.562)">
        <rect id="Rectángulo_4894" data-name="Rectángulo 4894" width="38.327" height="13.818" transform="translate(38.85 14.341) rotate(180)" fill="#fff"/>
        <path id="Trazado_50855" data-name="Trazado 50855" d="M516.749,948.01H478.422a.523.523,0,0,1-.523-.523V933.669a.523.523,0,0,1,.523-.523h38.327a.523.523,0,0,1,.523.523v13.818A.523.523,0,0,1,516.749,948.01Zm-37.8-1.046h37.28V934.192h-37.28Z" transform="translate(-477.899 -933.146)"/>
      </g>
      <g id="Grupo_19777" data-name="Grupo 19777" transform="translate(3.938 87.562)">
        <rect id="Rectángulo_4895" data-name="Rectángulo 4895" width="58.797" height="13.818" transform="translate(59.32 14.341) rotate(180)" fill="#99b9ff"/>
        <path id="Trazado_50856" data-name="Trazado 50856" d="M310.424,948.01h-58.8a.523.523,0,0,1-.523-.523V933.669a.523.523,0,0,1,.523-.523h58.8a.523.523,0,0,1,.523.523v13.818A.523.523,0,0,1,310.424,948.01Zm-58.274-1.046H309.9V934.192H252.15Z" transform="translate(-251.104 -933.146)"/>
      </g>
      <g id="Grupo_19778" data-name="Grupo 19778" transform="translate(87.113 90.403)">
        <path id="Trazado_50857" data-name="Trazado 50857" d="M499.536,942.336h-9.454a.523.523,0,1,1,0-1.046h9.454a.523.523,0,1,1,0,1.046Z" transform="translate(-489.558 -941.29)" fill="#99b9ff"/>
        <path id="Trazado_50858" data-name="Trazado 50858" d="M504.114,950.253H490.081a.523.523,0,1,1,0-1.046h14.033a.523.523,0,0,1,0,1.046Z" transform="translate(-489.558 -946.445)" fill="#99b9ff"/>
        <path id="Trazado_50859" data-name="Trazado 50859" d="M508.767,958.169H490.081a.523.523,0,1,1,0-1.046h18.686a.523.523,0,0,1,0,1.046Z" transform="translate(-489.558 -951.6)" fill="#99b9ff"/>
        <path id="Trazado_50860" data-name="Trazado 50860" d="M520.721,966.086h-30.64a.523.523,0,1,1,0-1.046h30.64a.523.523,0,0,1,0,1.046Z" transform="translate(-489.558 -956.756)" fill="#99b9ff"/>
      </g>
      <g id="Grupo_19779" data-name="Grupo 19779" transform="translate(4.016 28.953)">
        <path id="Trazado_50861" data-name="Trazado 50861" d="M352.5,779.836a.486.486,0,0,1-.486-.486v-9.038a.486.486,0,1,1,.972,0v9.038A.486.486,0,0,1,352.5,779.836Z" transform="translate(-316.892 -768.183)"/>
        <path id="Trazado_50862" data-name="Trazado 50862" d="M310.324,792.951a.486.486,0,0,1-.486-.486V769.123a.486.486,0,0,1,.972,0v23.341A.486.486,0,0,1,310.324,792.951Z" transform="translate(-289.429 -767.41)"/>
        <path id="Trazado_50863" data-name="Trazado 50863" d="M293.986,831.645a.486.486,0,0,1-.486-.486V787.281a.486.486,0,1,1,.972,0v43.878A.486.486,0,0,1,293.986,831.645Z" transform="translate(-278.79 -779.234)"/>
        <path id="Trazado_50864" data-name="Trazado 50864" d="M420.506,823.059a.486.486,0,0,1-.486-.486V766.756a.486.486,0,0,1,.972,0v55.817A.486.486,0,0,1,420.506,823.059Z" transform="translate(-361.179 -765.868)"/>
        <path id="Trazado_50865" data-name="Trazado 50865" d="M647.185,822.477a.486.486,0,0,1-.486-.486V765.6a.486.486,0,0,1,.972,0v56.388A.486.486,0,0,1,647.185,822.477Z" transform="translate(-508.79 -765.118)"/>
        <path id="Trazado_50866" data-name="Trazado 50866" d="M251.813,822.737a.486.486,0,0,1-.486-.486V766.412a.486.486,0,0,1,.972,0v55.839A.486.486,0,0,1,251.813,822.737Z" transform="translate(-251.327 -765.644)"/>
      </g>
    </g>
    <g id="Grupo_19810" data-name="Grupo 19810" transform="translate(290.17 400.041)">
      <g id="Grupo_19786" data-name="Grupo 19786" transform="translate(0 47.645)">
        <g id="Grupo_19781" data-name="Grupo 19781" transform="translate(3.383 11.645)">
          <path id="Trazado_50867" data-name="Trazado 50867" d="M425.347,978.586l0,4.237c0,1.284-1.483,2.572-4.467,3.568-5.967,1.992-15.706,2.076-21.944.214l-.3-.093c-3.161-.995-4.748-2.318-4.75-3.644l0-4.237c0,1.326,1.59,2.649,4.75,3.644l.3.093c6.238,1.863,15.976,1.779,21.944-.213C423.864,981.157,425.349,979.87,425.347,978.586Z" transform="translate(-393.882 -973.508)" fill="#5479f7"/>
          <path id="Trazado_50868" data-name="Trazado 50868" d="M420.29,965.368l.305.094c6.222,1.958,6.349,5.187.284,7.212-5.967,1.992-15.706,2.076-21.944.213-.1-.031-.2-.061-.3-.093-6.221-1.958-6.348-5.187-.283-7.212C404.315,963.59,414.053,963.506,420.29,965.368Z" transform="translate(-393.881 -964.028)" fill="#99b9ff"/>
        </g>
        <g id="Grupo_19782" data-name="Grupo 19782" transform="translate(0 6.64)">
          <path id="Trazado_50869" data-name="Trazado 50869" d="M415.648,964.236l0,4.237c0,1.284-1.483,2.572-4.467,3.568-5.967,1.992-15.706,2.076-21.944.213l-.3-.093c-3.161-.995-4.748-2.318-4.75-3.644l0-4.237c0,1.326,1.59,2.649,4.75,3.644l.3.093c6.238,1.863,15.976,1.779,21.944-.213C414.164,966.807,415.65,965.52,415.648,964.236Z" transform="translate(-384.183 -959.158)" fill="#5479f7"/>
          <path id="Trazado_50870" data-name="Trazado 50870" d="M410.591,951.018l.305.094c6.222,1.958,6.349,5.187.284,7.211-5.967,1.992-15.706,2.076-21.944.213l-.3-.093c-6.221-1.958-6.348-5.187-.283-7.212C394.616,949.24,404.353,949.156,410.591,951.018Z" transform="translate(-384.182 -949.678)" fill="#99b9ff"/>
        </g>
        <g id="Grupo_19785" data-name="Grupo 19785" transform="translate(2.308)">
          <g id="Grupo_19783" data-name="Grupo 19783" transform="translate(0 5.086)">
            <path id="Trazado_50871" data-name="Trazado 50871" d="M423.766,946.724l0,4.238c0,1.284-1.483,2.571-4.467,3.568-5.967,1.992-15.706,2.076-21.944.213-.1-.03-.2-.061-.3-.093-3.161-.995-4.748-2.317-4.75-3.644l0-4.238c0,1.326,1.59,2.649,4.75,3.644l.3.093c6.238,1.863,15.976,1.778,21.944-.213C422.282,949.3,423.768,948.008,423.766,946.724Z" transform="translate(-391.777 -946.201)" fill="#5479f7"/>
            <path id="Trazado_50872" data-name="Trazado 50872" d="M407,955.638a39.069,39.069,0,0,1-10.766-1.371l-.311-.1c-3.3-1.038-5.114-2.509-5.116-4.142l0-4.238a.523.523,0,0,1,.523-.524h0a.523.523,0,0,1,.523.523c0,1.106,1.64,2.282,4.384,3.145q.147.047.3.091c6.113,1.825,15.815,1.732,21.629-.208,2.575-.859,4.111-2.007,4.109-3.071h0a.523.523,0,0,1,.523-.524h0a.523.523,0,0,1,.523.523v0l0,4.235c0,1.119-.834,2.732-4.825,4.064A38.023,38.023,0,0,1,407,955.638Zm-15.149-7.789,0,2.18c0,1.105,1.64,2.282,4.384,3.145.1.031.2.061.3.091,6.114,1.825,15.816,1.732,21.629-.208,2.575-.859,4.111-2.007,4.11-3.071l0-2.162a10.328,10.328,0,0,1-3.78,1.987c-6.087,2.031-15.865,2.128-22.26.218l-.311-.1A10.834,10.834,0,0,1,391.848,947.849Z" transform="translate(-390.8 -945.224)"/>
          </g>
          <g id="Grupo_19784" data-name="Grupo 19784" transform="translate(0)">
            <path id="Trazado_50873" data-name="Trazado 50873" d="M418.709,933.507c.1.031.2.061.305.094,6.222,1.958,6.349,5.186.284,7.211-5.967,1.992-15.706,2.076-21.944.213l-.3-.093c-6.221-1.958-6.348-5.187-.283-7.211C402.734,931.729,412.471,931.645,418.709,933.507Z" transform="translate(-391.777 -931.635)" fill="#fff"/>
            <path id="Trazado_50874" data-name="Trazado 50874" d="M406.994,941.905a39.08,39.08,0,0,1-10.766-1.371l-.311-.1c-3.285-1.034-5.1-2.5-5.116-4.126-.01-1.123.819-2.743,4.824-4.08,6.087-2.031,15.863-2.127,22.257-.219h0c.106.032.209.063.313.1,3.285,1.034,5.1,2.5,5.117,4.126.01,1.124-.819,2.743-4.824,4.08A38.04,38.04,0,0,1,406.994,941.905Zm.134-10.2a37.191,37.191,0,0,0-11.172,1.518c-2.583.862-4.119,2.013-4.11,3.079.01,1.1,1.648,2.276,4.384,3.137l.3.091c6.113,1.825,15.815,1.731,21.629-.209,2.582-.862,4.118-2.013,4.109-3.079-.01-1.1-1.649-2.276-4.385-3.137l-.3-.091h0A38.166,38.166,0,0,0,407.129,931.706Z" transform="translate(-390.801 -930.643)"/>
          </g>
          <path id="Trazado_50875" data-name="Trazado 50875" d="M429.7,942.19l.544.655-1.893.265a.921.921,0,0,1,.094,1.069l-2.591.147a.862.862,0,0,0-.067-1.065,1.211,1.211,0,0,0-.677-.382,2.822,2.822,0,0,0-1-.024,1.267,1.267,0,0,0-1.186,1.061c-.243.922-1.161,1.409-3.1,1.68a10.26,10.26,0,0,1-3.61-.089,4.176,4.176,0,0,1-1.356-.543l-2.194.307-.543-.655,2.044-.286a1.042,1.042,0,0,1-.017-1.266l2.683-.152a.94.94,0,0,0-.027,1.242,1.388,1.388,0,0,0,.77.426,3.026,3.026,0,0,0,1.1.029c.818-.114,1.156-.4,1.284-.971.181-.824.852-1.463,2.939-1.755a9.771,9.771,0,0,1,3.463.085,4.326,4.326,0,0,1,1.3.508Z" transform="translate(-404.686 -937.889)" fill="#5479f7"/>
        </g>
      </g>
      <g id="Grupo_19795" data-name="Grupo 19795" transform="translate(34.976 29.777)">
        <g id="Grupo_19787" data-name="Grupo 19787" transform="translate(2.296 28.823)">
          <path id="Trazado_50876" data-name="Trazado 50876" d="M524.058,977.328l0,4.447c0,1.348-1.557,2.7-4.688,3.744-6.262,2.09-16.482,2.179-23.028.224-.108-.032-.213-.065-.319-.1-3.317-1.044-4.983-2.432-4.985-3.824l0-4.447c0,1.391,1.668,2.78,4.985,3.824l.319.1c6.546,1.954,16.766,1.866,23.028-.224C522.5,980.027,524.06,978.676,524.058,977.328Z" transform="translate(-491.038 -971.999)" fill="#fec558"/>
          <path id="Trazado_50877" data-name="Trazado 50877" d="M518.752,963.458l.32.1c6.53,2.055,6.663,5.443.3,7.568-6.262,2.09-16.482,2.178-23.028.224l-.319-.1c-6.529-2.055-6.662-5.443-.3-7.568C501.987,961.592,512.206,961.5,518.752,963.458Z" transform="translate(-491.038 -962.051)" fill="#fae7b7"/>
        </g>
        <g id="Grupo_19788" data-name="Grupo 19788" transform="translate(3.21 22.656)">
          <path id="Trazado_50878" data-name="Trazado 50878" d="M526.676,959.646l0,4.447c0,1.347-1.557,2.7-4.688,3.744-6.262,2.09-16.482,2.179-23.029.224l-.319-.1c-3.317-1.044-4.983-2.432-4.985-3.824l0-4.447c0,1.392,1.668,2.78,4.985,3.824l.319.1c6.547,1.955,16.766,1.866,23.029-.224C525.12,962.345,526.678,960.994,526.676,959.646Z" transform="translate(-493.656 -954.317)" fill="#fec558"/>
          <path id="Trazado_50879" data-name="Trazado 50879" d="M521.371,945.776l.32.1c6.529,2.055,6.663,5.443.3,7.568-6.263,2.09-16.482,2.179-23.029.224l-.319-.1c-6.529-2.055-6.662-5.443-.3-7.568C504.606,943.91,514.824,943.822,521.371,945.776Z" transform="translate(-493.656 -944.369)" fill="#fae7b7"/>
        </g>
        <g id="Grupo_19789" data-name="Grupo 19789" transform="translate(0.593 16.44)">
          <path id="Trazado_50880" data-name="Trazado 50880" d="M519.175,941.827l0,4.447c0,1.348-1.557,2.7-4.688,3.744-6.262,2.09-16.482,2.179-23.028.224-.108-.032-.214-.065-.319-.1-3.317-1.044-4.983-2.432-4.985-3.824l0-4.447c0,1.391,1.668,2.78,4.985,3.824l.319.1c6.546,1.954,16.766,1.866,23.028-.224C517.618,944.526,519.177,943.175,519.175,941.827Z" transform="translate(-486.155 -936.498)" fill="#fec558"/>
          <path id="Trazado_50881" data-name="Trazado 50881" d="M513.869,927.957l.32.1c6.53,2.055,6.663,5.443.3,7.568-6.262,2.09-16.482,2.178-23.028.224l-.319-.1c-6.529-2.055-6.662-5.443-.3-7.568C497.1,926.091,507.323,926,513.869,927.957Z" transform="translate(-486.155 -926.55)" fill="#fae7b7"/>
        </g>
        <g id="Grupo_19790" data-name="Grupo 19790" transform="translate(3.837 11.32)">
          <path id="Trazado_50882" data-name="Trazado 50882" d="M528.474,927.149l0,4.447c0,1.347-1.557,2.7-4.688,3.744-6.262,2.09-16.482,2.179-23.028.224l-.319-.1c-3.317-1.044-4.983-2.432-4.985-3.824l0-4.447c0,1.392,1.668,2.78,4.985,3.824l.319.1c6.546,1.955,16.766,1.866,23.029-.224C526.917,929.847,528.476,928.5,528.474,927.149Z" transform="translate(-495.454 -921.82)" fill="#fec558"/>
          <path id="Trazado_50883" data-name="Trazado 50883" d="M523.168,913.278l.32.1c6.53,2.055,6.663,5.443.3,7.568-6.263,2.09-16.482,2.179-23.029.224l-.319-.1c-6.529-2.055-6.662-5.443-.3-7.568C506.4,911.412,516.622,911.324,523.168,913.278Z" transform="translate(-495.454 -911.871)" fill="#fae7b7"/>
        </g>
        <g id="Grupo_19791" data-name="Grupo 19791" transform="translate(0 6.248)">
          <path id="Trazado_50884" data-name="Trazado 50884" d="M517.474,912.608l0,4.447c0,1.348-1.557,2.7-4.688,3.744-6.263,2.09-16.482,2.178-23.029.224l-.319-.1c-3.317-1.044-4.983-2.432-4.985-3.824l0-4.447c0,1.392,1.668,2.78,4.985,3.824l.319.1c6.546,1.955,16.766,1.866,23.029-.224C515.917,915.307,517.476,913.956,517.474,912.608Z" transform="translate(-484.454 -907.279)" fill="#fec558"/>
          <path id="Trazado_50885" data-name="Trazado 50885" d="M512.169,898.738c.108.032.214.065.32.1,6.529,2.055,6.663,5.443.3,7.568-6.263,2.09-16.482,2.179-23.029.224l-.319-.1c-6.529-2.055-6.661-5.443-.3-7.568C495.4,896.872,505.622,896.783,512.169,898.738Z" transform="translate(-484.454 -897.331)" fill="#fae7b7"/>
        </g>
        <g id="Grupo_19794" data-name="Grupo 19794" transform="translate(2.271)">
          <g id="Grupo_19792" data-name="Grupo 19792" transform="translate(0 5.338)">
            <path id="Trazado_50886" data-name="Trazado 50886" d="M525.484,896.22l0,4.447c0,1.348-1.557,2.7-4.688,3.744-6.262,2.09-16.482,2.179-23.028.224l-.319-.1c-3.317-1.044-4.983-2.432-4.985-3.824l0-4.447c0,1.392,1.668,2.78,4.985,3.824l.319.1c6.546,1.955,16.766,1.867,23.028-.224C523.927,898.919,525.486,897.568,525.484,896.22Z" transform="translate(-491.941 -895.697)" fill="#fec558"/>
            <path id="Trazado_50887" data-name="Trazado 50887" d="M507.936,905.6a40.983,40.983,0,0,1-11.29-1.438l-.327-.1c-3.448-1.086-5.349-2.621-5.351-4.322l0-4.447a.523.523,0,0,1,.523-.524h0a.523.523,0,0,1,.523.523c0,1.172,1.728,2.416,4.619,3.326l.312.1c6.419,1.917,16.609,1.819,22.713-.219,2.71-.9,4.328-2.117,4.33-3.243v0a.523.523,0,0,1,.523-.524h0a.523.523,0,0,1,.523.523v0l0,4.444c0,1.165-.872,2.848-5.045,4.24A39.877,39.877,0,0,1,507.936,905.6Zm-15.923-8.208,0,2.346c0,1.172,1.728,2.415,4.619,3.325l.312.1c6.419,1.917,16.608,1.819,22.713-.219,2.713-.906,4.332-2.12,4.33-3.247l0-2.328a10.674,10.674,0,0,1-4,2.12c-6.384,2.131-16.638,2.231-23.344.229l-.327-.1A11.217,11.217,0,0,1,492.012,897.389Z" transform="translate(-490.964 -894.72)"/>
          </g>
          <g id="Grupo_19793" data-name="Grupo 19793">
            <path id="Trazado_50888" data-name="Trazado 50888" d="M520.179,882.35c.108.032.214.064.32.1,6.529,2.055,6.663,5.443.3,7.568-6.262,2.09-16.482,2.179-23.028.224l-.319-.1c-6.529-2.055-6.662-5.443-.3-7.568C503.414,880.484,513.632,880.4,520.179,882.35Z" transform="translate(-491.941 -880.411)" fill="#fff"/>
            <path id="Trazado_50889" data-name="Trazado 50889" d="M507.932,891.185a40.976,40.976,0,0,1-11.291-1.438l-.326-.1c-3.436-1.082-5.336-2.611-5.351-4.306-.01-1.171.857-2.859,5.046-4.257,6.382-2.13,16.636-2.231,23.342-.229h0l.327.1c3.436,1.082,5.337,2.611,5.352,4.306.01,1.17-.857,2.859-5.045,4.257A39.879,39.879,0,0,1,507.932,891.185Zm.141-10.7a39.075,39.075,0,0,0-11.732,1.594c-2.721.908-4.34,2.126-4.33,3.256.01,1.17,1.737,2.41,4.619,3.317l.312.1c6.419,1.917,16.609,1.819,22.713-.219,2.721-.909,4.34-2.126,4.33-3.256-.01-1.17-1.737-2.41-4.619-3.317l-.313-.1h0A40.076,40.076,0,0,0,508.073,880.482Z" transform="translate(-490.964 -879.417)"/>
          </g>
          <path id="Trazado_50890" data-name="Trazado 50890" d="M530.582,886.892l-.792.693a12.887,12.887,0,0,1,1.675.313,5.87,5.87,0,0,1,.713.236l-1.554.832c-.2-.072-.471-.181-.873-.289a9.7,9.7,0,0,0-1.488-.266,2.96,2.96,0,0,0-2.1.269c-.3.26.162.495,1.448.917,1.825.568,2.218,1.1,1.407,1.806s-2.651,1.173-4.96,1.1l-.918.8-1.814-.2.855-.748a14.274,14.274,0,0,1-1.822-.351,5.378,5.378,0,0,1-.938-.328l1.609-.861a6.893,6.893,0,0,0,1.1.39,10.389,10.389,0,0,0,1.575.288,3.556,3.556,0,0,0,2.335-.3c.341-.3-.035-.552-1.179-.9-1.657-.5-2.558-1.037-1.685-1.8.793-.693,2.561-1.112,4.732-1.064l.855-.748Z" transform="translate(-509.497 -884.157)" fill="#5479f7"/>
        </g>
      </g>
      <g id="Grupo_19809" data-name="Grupo 19809" transform="translate(71.706 0)">
        <g id="Grupo_19796" data-name="Grupo 19796" transform="translate(2.171 58.534)">
          <path id="Trazado_50891" data-name="Trazado 50891" d="M629,977.136l0,4.447c0,1.348-1.557,2.7-4.688,3.744-6.262,2.09-16.482,2.178-23.028.224-.108-.032-.214-.065-.32-.1-3.317-1.044-4.983-2.432-4.985-3.824l0-4.447c0,1.391,1.668,2.78,4.985,3.824l.32.1c6.546,1.954,16.766,1.866,23.028-.224C627.443,979.835,629,978.484,629,977.136Z" transform="translate(-595.98 -971.807)" fill="#fec558"/>
          <path id="Trazado_50892" data-name="Trazado 50892" d="M623.695,963.266l.32.1c6.529,2.055,6.663,5.443.3,7.568-6.263,2.09-16.482,2.178-23.028.224l-.32-.1c-6.528-2.055-6.662-5.443-.3-7.568C606.93,961.4,617.148,961.311,623.695,963.266Z" transform="translate(-595.98 -961.859)" fill="#fae7b7"/>
        </g>
        <g id="Grupo_19797" data-name="Grupo 19797" transform="translate(3.937 52.946)">
          <path id="Trazado_50893" data-name="Trazado 50893" d="M634.065,961.117l0,4.447c0,1.347-1.557,2.7-4.688,3.744-6.263,2.09-16.482,2.179-23.029.224l-.319-.1c-3.317-1.044-4.983-2.432-4.985-3.824l0-4.447c0,1.392,1.668,2.78,4.985,3.824l.319.1c6.546,1.955,16.766,1.866,23.029-.224C632.508,963.815,634.067,962.464,634.065,961.117Z" transform="translate(-601.045 -955.788)" fill="#fec558"/>
          <path id="Trazado_50894" data-name="Trazado 50894" d="M628.76,947.246l.32.1c6.53,2.055,6.663,5.443.3,7.568-6.262,2.09-16.482,2.179-23.029.224l-.319-.1c-6.529-2.055-6.661-5.443-.3-7.568C611.995,945.38,622.213,945.292,628.76,947.246Z" transform="translate(-601.045 -945.839)" fill="#fae7b7"/>
        </g>
        <g id="Grupo_19798" data-name="Grupo 19798" transform="translate(1.437 48.058)">
          <path id="Trazado_50895" data-name="Trazado 50895" d="M626.9,947.1l0,4.447c0,1.348-1.557,2.7-4.688,3.744-6.263,2.09-16.482,2.179-23.029.224l-.319-.1c-3.317-1.044-4.983-2.432-4.985-3.824l0-4.447c0,1.392,1.668,2.78,4.985,3.824l.319.1c6.546,1.955,16.766,1.866,23.029-.224C625.341,949.8,626.9,948.449,626.9,947.1Z" transform="translate(-593.877 -941.773)" fill="#fec558"/>
          <path id="Trazado_50896" data-name="Trazado 50896" d="M621.592,933.232c.108.032.214.065.32.1,6.53,2.055,6.663,5.443.3,7.568-6.263,2.09-16.482,2.179-23.029.224l-.319-.1c-6.529-2.055-6.662-5.443-.3-7.568C604.827,931.366,615.045,931.277,621.592,933.232Z" transform="translate(-593.877 -931.825)" fill="#fae7b7"/>
        </g>
        <g id="Grupo_19799" data-name="Grupo 19799" transform="translate(2.795 41.593)">
          <path id="Trazado_50897" data-name="Trazado 50897" d="M630.789,928.57l0,4.447c0,1.348-1.556,2.7-4.688,3.744-6.262,2.09-16.482,2.178-23.028.224-.108-.032-.214-.065-.319-.1-3.317-1.044-4.983-2.432-4.985-3.824l0-4.447c0,1.392,1.668,2.78,4.985,3.824l.319.1c6.546,1.955,16.766,1.866,23.028-.224C629.232,931.269,630.791,929.918,630.789,928.57Z" transform="translate(-597.769 -923.241)" fill="#fec558"/>
          <path id="Trazado_50898" data-name="Trazado 50898" d="M625.483,914.7c.108.032.214.065.32.1,6.529,2.055,6.663,5.443.3,7.568-6.262,2.09-16.482,2.179-23.028.224l-.319-.1c-6.529-2.055-6.662-5.443-.3-7.568C608.718,912.834,618.937,912.745,625.483,914.7Z" transform="translate(-597.769 -913.293)" fill="#fae7b7"/>
        </g>
        <g id="Grupo_19800" data-name="Grupo 19800" transform="translate(2.102 36.119)">
          <path id="Trazado_50899" data-name="Trazado 50899" d="M628.8,912.876l0,4.447c0,1.347-1.557,2.7-4.688,3.744-6.262,2.09-16.482,2.179-23.028.224-.108-.032-.213-.065-.319-.1-3.317-1.044-4.983-2.432-4.985-3.824l0-4.447c0,1.392,1.668,2.78,4.985,3.824.106.034.212.066.319.1,6.546,1.954,16.766,1.866,23.028-.224C627.247,915.574,628.806,914.223,628.8,912.876Z" transform="translate(-595.784 -907.547)" fill="#fec558"/>
          <path id="Trazado_50900" data-name="Trazado 50900" d="M623.5,899l.32.1c6.53,2.055,6.663,5.443.3,7.568-6.262,2.09-16.482,2.178-23.028.224-.107-.032-.213-.065-.319-.1-6.529-2.055-6.662-5.443-.3-7.568C606.733,897.139,616.952,897.051,623.5,899Z" transform="translate(-595.784 -897.598)" fill="#fae7b7"/>
        </g>
        <g id="Grupo_19801" data-name="Grupo 19801" transform="translate(0.797 29.941)">
          <path id="Trazado_50901" data-name="Trazado 50901" d="M625.061,895.164l0,4.447c0,1.347-1.556,2.7-4.688,3.744-6.263,2.09-16.482,2.179-23.028.224-.108-.032-.214-.065-.32-.1-3.317-1.044-4.983-2.432-4.985-3.824l0-4.447c0,1.392,1.668,2.78,4.985,3.824.105.033.211.066.319.1,6.546,1.955,16.766,1.866,23.028-.224C623.5,897.863,625.063,896.512,625.061,895.164Z" transform="translate(-592.041 -889.835)" fill="#fec558"/>
          <path id="Trazado_50902" data-name="Trazado 50902" d="M619.756,881.294l.32.1c6.529,2.055,6.663,5.443.3,7.568-6.262,2.09-16.482,2.179-23.028.224-.108-.032-.214-.065-.319-.1-6.529-2.055-6.662-5.443-.3-7.568C602.991,879.428,613.21,879.34,619.756,881.294Z" transform="translate(-592.041 -879.887)" fill="#fae7b7"/>
        </g>
        <g id="Grupo_19802" data-name="Grupo 19802" transform="translate(2.181 24.026)">
          <path id="Trazado_50903" data-name="Trazado 50903" d="M629.03,878.207l0,4.447c0,1.347-1.557,2.7-4.688,3.744-6.262,2.09-16.482,2.179-23.029.224l-.319-.1c-3.317-1.044-4.983-2.432-4.985-3.824l0-4.447c0,1.392,1.668,2.78,4.985,3.824.106.033.212.066.32.1,6.546,1.955,16.766,1.866,23.028-.224C627.474,880.905,629.032,879.554,629.03,878.207Z" transform="translate(-596.01 -872.878)" fill="#fec558"/>
          <path id="Trazado_50904" data-name="Trazado 50904" d="M623.725,864.336l.32.1c6.529,2.055,6.663,5.443.3,7.568-6.263,2.09-16.482,2.179-23.028.224-.108-.032-.214-.065-.319-.1-6.529-2.055-6.662-5.443-.3-7.568C606.96,862.47,617.178,862.382,623.725,864.336Z" transform="translate(-596.01 -862.929)" fill="#fae7b7"/>
        </g>
        <g id="Grupo_19803" data-name="Grupo 19803" transform="translate(0 19.503)">
          <path id="Trazado_50905" data-name="Trazado 50905" d="M622.777,865.238l0,4.447c0,1.348-1.557,2.7-4.688,3.744-6.263,2.09-16.482,2.178-23.029.224l-.319-.1c-3.317-1.044-4.983-2.432-4.985-3.824l0-4.447c0,1.392,1.668,2.78,4.985,3.824l.319.1c6.547,1.955,16.766,1.866,23.029-.224C621.221,867.937,622.779,866.586,622.777,865.238Z" transform="translate(-589.757 -859.909)" fill="#fec558"/>
          <path id="Trazado_50906" data-name="Trazado 50906" d="M617.472,851.368c.108.032.214.064.32.1,6.529,2.055,6.663,5.443.3,7.568-6.263,2.09-16.482,2.179-23.029.224l-.319-.1c-6.529-2.055-6.662-5.443-.3-7.568C600.707,849.5,610.925,849.413,617.472,851.368Z" transform="translate(-589.757 -849.961)" fill="#fae7b7"/>
        </g>
        <g id="Grupo_19804" data-name="Grupo 19804" transform="translate(2.11 13.304)">
          <path id="Trazado_50907" data-name="Trazado 50907" d="M628.826,847.466l0,4.447c0,1.347-1.557,2.7-4.688,3.744-6.262,2.09-16.482,2.179-23.028.224-.108-.032-.214-.065-.319-.1-3.317-1.044-4.983-2.432-4.985-3.824l0-4.447c0,1.391,1.668,2.78,4.985,3.824.106.033.211.066.319.1,6.546,1.954,16.766,1.866,23.028-.224C627.269,850.165,628.828,848.814,628.826,847.466Z" transform="translate(-595.806 -842.137)" fill="#fec558"/>
          <path id="Trazado_50908" data-name="Trazado 50908" d="M623.52,833.6l.32.1c6.53,2.055,6.663,5.443.3,7.568-6.262,2.09-16.482,2.178-23.028.224l-.319-.1c-6.529-2.055-6.662-5.443-.3-7.568C606.755,831.73,616.974,831.642,623.52,833.6Z" transform="translate(-595.806 -832.189)" fill="#fae7b7"/>
        </g>
        <g id="Grupo_19805" data-name="Grupo 19805" transform="translate(0.185 6.75)">
          <path id="Trazado_50909" data-name="Trazado 50909" d="M623.306,828.676l0,4.447c0,1.348-1.557,2.7-4.688,3.744-6.262,2.09-16.482,2.179-23.029.224l-.319-.1c-3.317-1.044-4.983-2.432-4.985-3.824l0-4.447c0,1.392,1.668,2.78,4.985,3.824l.32.1c6.546,1.955,16.766,1.866,23.028-.224C621.75,831.375,623.308,830.023,623.306,828.676Z" transform="translate(-590.286 -823.347)" fill="#fec558"/>
          <path id="Trazado_50910" data-name="Trazado 50910" d="M618,814.806c.108.032.214.065.32.1,6.53,2.055,6.663,5.443.3,7.568-6.262,2.09-16.482,2.179-23.028.224l-.32-.1c-6.529-2.055-6.661-5.443-.3-7.568C601.235,812.94,611.454,812.851,618,814.806Z" transform="translate(-590.286 -813.399)" fill="#fae7b7"/>
        </g>
        <g id="Grupo_19808" data-name="Grupo 19808" transform="translate(0.892)">
          <g id="Grupo_19806" data-name="Grupo 19806" transform="translate(0 5.338)">
            <path id="Trazado_50911" data-name="Trazado 50911" d="M626.834,810.851l0,4.447c0,1.348-1.557,2.7-4.688,3.744-6.263,2.09-16.482,2.179-23.029.224l-.319-.1c-3.317-1.044-4.983-2.432-4.985-3.824l0-4.447c0,1.392,1.668,2.78,4.985,3.824l.319.1c6.546,1.955,16.766,1.866,23.029-.224C625.278,813.55,626.836,812.2,626.834,810.851Z" transform="translate(-593.291 -810.328)" fill="#fec558"/>
            <path id="Trazado_50912" data-name="Trazado 50912" d="M609.286,820.228A40.987,40.987,0,0,1,598,818.79l-.326-.1c-3.448-1.085-5.349-2.621-5.351-4.322l0-4.447a.523.523,0,0,1,.523-.524h0a.523.523,0,0,1,.523.523c0,1.172,1.728,2.416,4.619,3.326l.311.1c6.42,1.917,16.609,1.818,22.713-.219,2.71-.9,4.328-2.116,4.33-3.242v0a.523.523,0,0,1,.523-.523h0a.523.523,0,0,1,.523.523v0l0,4.444c0,1.165-.872,2.848-5.045,4.24A39.879,39.879,0,0,1,609.286,820.228Zm-15.923-8.208,0,2.346c0,1.172,1.728,2.416,4.619,3.325l.312.1c6.42,1.917,16.609,1.819,22.713-.219,2.713-.906,4.331-2.119,4.33-3.247l0-2.328a10.675,10.675,0,0,1-4,2.12c-6.384,2.13-16.638,2.231-23.344.229-.11-.033-.219-.066-.327-.1A11.207,11.207,0,0,1,593.362,812.02Z" transform="translate(-592.314 -809.351)"/>
          </g>
          <g id="Grupo_19807" data-name="Grupo 19807" transform="translate(0)">
            <path id="Trazado_50913" data-name="Trazado 50913" d="M621.529,796.981c.108.032.214.065.32.1,6.53,2.055,6.663,5.443.3,7.568-6.263,2.09-16.482,2.179-23.029.224l-.319-.1c-6.529-2.055-6.661-5.443-.3-7.568C604.764,795.115,614.982,795.026,621.529,796.981Z" transform="translate(-593.291 -795.042)" fill="#fff"/>
            <path id="Trazado_50914" data-name="Trazado 50914" d="M609.283,805.816a40.99,40.99,0,0,1-11.291-1.438c-.11-.033-.219-.066-.327-.1-3.436-1.081-5.336-2.61-5.35-4.306-.01-1.171.857-2.859,5.045-4.258,6.383-2.13,16.636-2.231,23.342-.229h0l.327.1c3.436,1.082,5.337,2.611,5.352,4.306.01,1.171-.857,2.859-5.045,4.258A39.878,39.878,0,0,1,609.283,805.816Zm.141-10.7a39.074,39.074,0,0,0-11.732,1.594c-2.721.908-4.34,2.126-4.33,3.256.01,1.17,1.737,2.41,4.619,3.317l.311.1c6.42,1.917,16.609,1.818,22.713-.219,2.721-.908,4.34-2.125,4.33-3.256-.01-1.17-1.737-2.41-4.62-3.317l-.312-.1h0A40.077,40.077,0,0,0,609.424,795.113Z" transform="translate(-592.315 -794.048)"/>
          </g>
          <path id="Trazado_50915" data-name="Trazado 50915" d="M633.881,801.594l-.221.958a25.414,25.414,0,0,0-3.729.031c-1.614.136-2.013.4-1.89.625a.549.549,0,0,0,.346.189,17.4,17.4,0,0,0,3.018.243,17.324,17.324,0,0,1,3.726.384,1.9,1.9,0,0,1,1.25.752c.393.707-.836,1.443-3.606,1.842l.452.811-2.436.2-.42-.755a30.76,30.76,0,0,1-4.416.014l.229-.993a26.665,26.665,0,0,0,4.319,0c1.417-.119,2.289-.375,2.114-.693a.7.7,0,0,0-.448-.253,12.8,12.8,0,0,0-2.572-.217,19.256,19.256,0,0,1-4.111-.4,1.829,1.829,0,0,1-1.171-.678c-.389-.7.848-1.377,3.413-1.767l-.42-.754,2.435-.205.388.7A27.536,27.536,0,0,1,633.881,801.594Z" transform="translate(-613.108 -798.533)" fill="#5479f7"/>
        </g>
      </g>
    </g>
  </g>
</svg>
