<svg xmlns="http://www.w3.org/2000/svg" width="393.208" height="391.279" viewBox="0 0 393.208 391.279">
  <g id="Retirement" transform="translate(-1335.421 -187.219)">
    <path id="Trazado_50664" data-name="Trazado 50664" d="M1352.573,308.686c-8.483,18.756-21.039,54.666-15.992,99.329,6.475,57.3,38.531,102.481,69.712,127.867,103.47,84.24,292.885,29.819,317.968-49.534,4.551-14.4,3.271-28.281,1.7-45.367-5.007-54.339-31.382-70.491-49.12-128.188-16.142-52.508-.227-58.416-15.322-81.76-32.745-50.638-127.264-53.19-192.3-28.913C1444.232,211.446,1383.613,240.05,1352.573,308.686Z" fill="#facf7d"/>
    <g id="Grupo_19673" data-name="Grupo 19673" transform="translate(1336 251.009)">
      <path id="Trazado_50665" data-name="Trazado 50665" d="M1349.838,585.315h78.025V449.249h-15.384l-62.641,14.5Z" transform="translate(-1343.609 -389.289)" fill="#99b9ff"/>
      <g id="Grupo_19662" data-name="Grupo 19662" transform="translate(70.814 73.748)">
        <path id="Trazado_50666" data-name="Trazado 50666" d="M1488.091,601.508v0Z" transform="translate(-1487.383 -479.235)" fill="#99b9ff"/>
        <path id="Trazado_50667" data-name="Trazado 50667" d="M1487.3,601.424a.708.708,0,0,1-.708-.708V479.151a.708.708,0,1,1,1.417,0V600.716A.708.708,0,0,1,1487.3,601.424Z" transform="translate(-1486.591 -478.443)"/>
      </g>
      <g id="Grupo_19663" data-name="Grupo 19663" transform="translate(5.522 73.748)">
        <path id="Trazado_50668" data-name="Trazado 50668" d="M1349.839,479.943v0Z" transform="translate(-1349.131 -479.235)" fill="#99b9ff"/>
        <path id="Trazado_50669" data-name="Trazado 50669" d="M1349.047,601.424a.708.708,0,0,1-.708-.708V479.151a.708.708,0,1,1,1.417,0V600.716A.708.708,0,0,1,1349.047,601.424Z" transform="translate(-1348.339 -478.443)"/>
      </g>
      <path id="Trazado_50670" data-name="Trazado 50670" d="M1349.1,601.533a.658.658,0,0,1-.658-.658V479.328a.658.658,0,1,1,1.316,0V600.875A.658.658,0,0,1,1349.1,601.533Z" transform="translate(-1342.873 -404.815)"/>
      <rect id="Rectángulo_4856" data-name="Rectángulo 4856" width="176.922" height="136.065" transform="translate(202.822 59.956)" fill="#fff"/>
      <path id="Trazado_50671" data-name="Trazado 50671" d="M1409.232,463.389h-70.968a.336.336,0,0,1-.131-.645l33.324-14.169,37.774,0Z" transform="translate(-1337.323 -388.932)" fill="#99b9ff"/>
      <path id="Trazado_50672" data-name="Trazado 50672" d="M1369.476,463.311h-31.82a1.007,1.007,0,0,1-.394-1.934l33.386-14.195h.134l31.618,0a.658.658,0,0,1,0,1.316l-31.484,0L1339.171,462h30.305a.658.658,0,1,1,0,1.316Z" transform="translate(-1336.647 -388.197)"/>
      <path id="Trazado_50673" data-name="Trazado 50673" d="M1567.269,323.681h128.94l-99.025,44.911h-127.14a.389.389,0,0,1-.161-.743Z" transform="translate(-1406.839 -323.023)" fill="#99b9ff"/>
      <path id="Trazado_50674" data-name="Trazado 50674" d="M1474.319,368.515h-5.572a.982.982,0,0,1-.406-1.877l97.788-44.35H1686.1a.658.658,0,1,1,0,1.316H1566.414L1470.291,367.2h4.028a.658.658,0,0,1,0,1.316Z" transform="translate(-1405.841 -322.288)"/>
      <path id="Trazado_50675" data-name="Trazado 50675" d="M1739.141,368.63h199.471l-100.044-44.945Z" transform="translate(-1549.054 -323.026)" fill="#fff"/>
      <rect id="Rectángulo_4857" data-name="Rectángulo 4857" width="130.51" height="135.966" transform="translate(72.257 59.812)" fill="#caddff"/>
      <g id="Grupo_19664" data-name="Grupo 19664" transform="translate(202.822 59.956)">
        <rect id="Rectángulo_4858" data-name="Rectángulo 4858" width="12.715" height="136.065" transform="translate(130.873)" fill="#caddff"/>
        <rect id="Rectángulo_4859" data-name="Rectángulo 4859" width="12.715" height="136.065" transform="translate(98.052)" fill="#caddff"/>
        <rect id="Rectángulo_4860" data-name="Rectángulo 4860" width="12.715" height="136.065" transform="translate(65.232)" fill="#caddff"/>
        <rect id="Rectángulo_4861" data-name="Rectángulo 4861" width="12.715" height="136.065" transform="translate(32.411)" fill="#caddff"/>
        <rect id="Rectángulo_4862" data-name="Rectángulo 4862" width="12.715" height="136.065" fill="#caddff"/>
        <rect id="Rectángulo_4863" data-name="Rectángulo 4863" width="12.715" height="136.065" transform="translate(163.693)" fill="#caddff"/>
      </g>
      <g id="Grupo_19665" data-name="Grupo 19665" transform="translate(104.361 59.956)">
        <rect id="Rectángulo_4864" data-name="Rectángulo 4864" width="12.715" height="136.065" transform="translate(65.641)" fill="#99b9ff"/>
        <rect id="Rectángulo_4865" data-name="Rectángulo 4865" width="12.715" height="136.065" transform="translate(32.821)" fill="#99b9ff"/>
        <rect id="Rectángulo_4866" data-name="Rectángulo 4866" width="12.715" height="136.065" fill="#99b9ff"/>
      </g>
      <g id="Grupo_19666" data-name="Grupo 19666" transform="translate(70.847 44.955)">
        <rect id="Rectángulo_4867" data-name="Rectángulo 4867" width="131.211" height="14.315" transform="translate(131.919 15.023) rotate(180)" fill="#99b9ff"/>
        <path id="Trazado_50676" data-name="Trazado 50676" d="M1618.58,433.207h-131.21a.708.708,0,0,1-.708-.708V418.184a.708.708,0,0,1,.708-.708h131.21a.709.709,0,0,1,.708.708V432.5A.709.709,0,0,1,1618.58,433.207Zm-130.5-1.417h129.793v-12.9H1488.078Z" transform="translate(-1486.661 -417.476)"/>
      </g>
      <g id="Grupo_19667" data-name="Grupo 19667" transform="translate(202.114 195.312)">
        <rect id="Rectángulo_4868" data-name="Rectángulo 4868" width="45.126" height="30.829" transform="translate(45.835 31.538) rotate(180)" fill="#fff"/>
        <path id="Trazado_50677" data-name="Trazado 50677" d="M1810.442,768.092h-45.126a.709.709,0,0,1-.708-.708v-30.83a.709.709,0,0,1,.708-.708h45.126a.709.709,0,0,1,.708.708v30.83A.709.709,0,0,1,1810.442,768.092Zm-44.418-1.417h43.709V737.263h-43.709Z" transform="translate(-1764.607 -735.846)"/>
      </g>
      <rect id="Rectángulo_4869" data-name="Rectángulo 4869" width="65.394" height="30.722" transform="translate(6.205 196.021)" fill="#caddff"/>
      <rect id="Rectángulo_4870" data-name="Rectángulo 4870" width="176.464" height="14.315" transform="translate(379.231 59.978) rotate(180)" fill="#fff"/>
      <g id="Grupo_19668" data-name="Grupo 19668" transform="translate(333.008 195.312)">
        <rect id="Rectángulo_4871" data-name="Rectángulo 4871" width="45.148" height="30.829" transform="translate(45.856 31.538) rotate(180)" fill="#fff"/>
        <path id="Trazado_50678" data-name="Trazado 50678" d="M2087.621,768.092h-45.148a.708.708,0,0,1-.708-.708v-30.83a.708.708,0,0,1,.708-.708h45.148a.709.709,0,0,1,.708.708v30.83A.709.709,0,0,1,2087.621,768.092Zm-44.439-1.417h43.731V737.263h-43.731Z" transform="translate(-2041.765 -735.846)"/>
      </g>
      <g id="Grupo_19669" data-name="Grupo 19669" transform="translate(247.24 195.312)">
        <rect id="Rectángulo_4872" data-name="Rectángulo 4872" width="85.511" height="30.829" transform="translate(86.22 31.538) rotate(180)" fill="#fff"/>
        <path id="Trazado_50679" data-name="Trazado 50679" d="M1946.378,768.092h-85.512a.709.709,0,0,1-.708-.708v-30.83a.709.709,0,0,1,.708-.708h85.512a.709.709,0,0,1,.708.708v30.83A.709.709,0,0,1,1946.378,768.092Zm-84.8-1.417h84.095V737.263h-84.095Z" transform="translate(-1860.158 -735.846)"/>
      </g>
      <g id="Grupo_19670" data-name="Grupo 19670" transform="translate(19.74 91.674)">
        <rect id="Rectángulo_4873" data-name="Rectángulo 4873" width="12.715" height="24.933" transform="translate(26.768)" fill="#caddff"/>
        <rect id="Rectángulo_4874" data-name="Rectángulo 4874" width="12.715" height="24.933" transform="translate(26.768 52.782)" fill="#caddff"/>
        <rect id="Rectángulo_4875" data-name="Rectángulo 4875" width="12.715" height="24.933" fill="#caddff"/>
        <rect id="Rectángulo_4876" data-name="Rectángulo 4876" width="12.715" height="24.933" transform="translate(0 52.782)" fill="#caddff"/>
      </g>
      <rect id="Rectángulo_4877" data-name="Rectángulo 4877" width="131.184" height="30.829" transform="translate(71.449 196.021)" fill="#99b9ff"/>
      <g id="Grupo_19671" data-name="Grupo 19671" transform="translate(256.314 201.651)">
        <path id="Trazado_50680" data-name="Trazado 50680" d="M1901.173,750.684h-21.093a.708.708,0,0,1,0-1.417h21.093a.708.708,0,1,1,0,1.417Z" transform="translate(-1879.371 -749.267)" fill="#99b9ff"/>
        <path id="Trazado_50681" data-name="Trazado 50681" d="M1911.387,763.729h-31.308a.708.708,0,0,1,0-1.417h31.308a.708.708,0,0,1,0,1.417Z" transform="translate(-1879.371 -756.151)" fill="#99b9ff"/>
        <path id="Trazado_50682" data-name="Trazado 50682" d="M1921.769,776.774h-41.69a.708.708,0,0,1,0-1.417h41.69a.708.708,0,1,1,0,1.417Z" transform="translate(-1879.371 -763.035)" fill="#99b9ff"/>
        <path id="Trazado_50683" data-name="Trazado 50683" d="M1948.44,789.819h-68.361a.708.708,0,0,1,0-1.417h68.361a.708.708,0,0,1,0,1.417Z" transform="translate(-1879.371 -769.92)" fill="#99b9ff"/>
      </g>
      <g id="Grupo_19672" data-name="Grupo 19672" transform="translate(103.703 64.515)">
        <path id="Trazado_50684" data-name="Trazado 50684" d="M1653.306,488.134a.658.658,0,0,1-.658-.658V467.31a.658.658,0,0,1,1.316,0v20.166A.658.658,0,0,1,1653.306,488.134Z" transform="translate(-1607.112 -462.988)"/>
        <path id="Trazado_50685" data-name="Trazado 50685" d="M1583.811,495.249a.658.658,0,0,1-.658-.658v-29.24a.658.658,0,0,1,1.316,0v29.24A.658.658,0,0,1,1583.811,495.249Z" transform="translate(-1570.438 -461.954)"/>
        <path id="Trazado_50686" data-name="Trazado 50686" d="M1556.888,520.013a.658.658,0,0,1-.658-.658V495.273a.658.658,0,1,1,1.316,0v24.082A.658.658,0,0,1,1556.888,520.013Z" transform="translate(-1556.23 -477.745)"/>
        <path id="Trazado_50687" data-name="Trazado 50687" d="M1765.372,586.643a.658.658,0,0,1-.658-.658V461.451a.658.658,0,0,1,1.316,0V585.985A.658.658,0,0,1,1765.372,586.643Z" transform="translate(-1666.253 -459.896)"/>
        <path id="Trazado_50688" data-name="Trazado 50688" d="M2138.9,586.017a.658.658,0,0,1-.658-.658V459.552a.658.658,0,1,1,1.316,0V585.359A.658.658,0,0,1,2138.9,586.017Z" transform="translate(-1863.374 -458.894)"/>
      </g>
      <path id="Trazado_50689" data-name="Trazado 50689" d="M1389.239,767.985h-40.244a.708.708,0,0,1-.708-.708V736.554a.708.708,0,0,1,.708-.708h39.772a.708.708,0,0,1,0,1.417H1349.7v29.305h39.536a.708.708,0,0,1,0,1.417Z" transform="translate(-1342.789 -540.534)"/>
      <path id="Trazado_50690" data-name="Trazado 50690" d="M1764.278,768.7h-.57a.708.708,0,0,1-.139-1.4v-29.59a.708.708,0,1,1,1.417,0v30.285A.709.709,0,0,1,1764.278,768.7Z" transform="translate(-1561.645 -541.143)"/>
      <path id="Trazado_50691" data-name="Trazado 50691" d="M1563.947,802.542h-25.739a.708.708,0,1,1,0-1.417h25.739a.708.708,0,1,1,0,1.417Z" transform="translate(-1442.643 -574.983)"/>
      <path id="Trazado_50692" data-name="Trazado 50692" d="M2037.975,368.553h-115.71a.658.658,0,1,1,0-1.317h109.569l-97.243-43.686a.658.658,0,1,1,.539-1.2Z" transform="translate(-1645.346 -322.29)"/>
      <path id="Trazado_50693" data-name="Trazado 50693" d="M2024.443,433.213h-59.521a.658.658,0,1,1,0-1.316h58.2v-13H1920.764a.658.658,0,1,1,0-1.316h103.678Z" transform="translate(-1644.554 -372.577)"/>
    </g>
    <g id="Grupo_19677" data-name="Grupo 19677" transform="translate(1495.068 202.115)">
      <g id="Grupo_19674" data-name="Grupo 19674" transform="translate(0 0)">
        <circle id="Elipse_1103" data-name="Elipse 1103" cx="49.696" cy="49.696" r="49.696" transform="translate(0 70.281) rotate(-45)"/>
      </g>
      <g id="Grupo_19675" data-name="Grupo 19675" transform="translate(19.668 16.068)">
        <circle id="Elipse_1104" data-name="Elipse 1104" cx="48.221" cy="48.221" r="48.221" transform="matrix(0.099, -0.995, 0.995, 0.099, 0, 95.973)" fill="#fae7b7"/>
        <path id="Trazado_50694" data-name="Trazado 50694" d="M1772.1,358.7a48.929,48.929,0,1,1,48.93-48.929A48.985,48.985,0,0,1,1772.1,358.7Zm0-96.442a47.513,47.513,0,1,0,47.513,47.513A47.567,47.567,0,0,0,1772.1,262.263Z" transform="translate(-1719.361 -257.038)"/>
      </g>
      <circle id="Elipse_1105" data-name="Elipse 1105" cx="40.467" cy="40.467" r="40.467" transform="translate(15.177 68.806) rotate(-45)" fill="#fff"/>
      <path id="Trazado_50695" data-name="Trazado 50695" d="M1898.019,399.074a.708.708,0,0,1-.594-1.093,39.571,39.571,0,0,0,4.72-10.294.709.709,0,1,1,1.36.4,40.989,40.989,0,0,1-4.89,10.663A.706.706,0,0,1,1898.019,399.074Z" transform="translate(-1791.592 -307.638)"/>
      <path id="Trazado_50696" data-name="Trazado 50696" d="M1825.916,301.5a.708.708,0,0,1-.637-.4,39.506,39.506,0,0,0-35.788-22.417,39.929,39.929,0,0,0-32.085,16.275.709.709,0,1,1-1.143-.838,41.186,41.186,0,0,1,70.29,6.362.709.709,0,0,1-.637,1.018Z" transform="translate(-1717.085 -249.634)"/>
      <path id="Trazado_50697" data-name="Trazado 50697" d="M1763.847,379.04a.711.711,0,0,1-.3-.065,41.2,41.2,0,0,1-18.719-57.542.708.708,0,0,1,1.235.693,39.788,39.788,0,0,0,18.076,55.562.709.709,0,0,1-.3,1.352Z" transform="translate(-1708.357 -272.752)"/>
      <g id="Grupo_19676" data-name="Grupo 19676" transform="translate(56.79 40.235)">
        <path id="Trazado_50698" data-name="Trazado 50698" d="M1805.612,361.1v-6.652a28.177,28.177,0,0,1-11.905-3.011l2.1-8.193a24.729,24.729,0,0,0,11.625,3.081c3.991,0,6.723-1.541,6.723-4.342,0-2.661-2.241-4.342-7.423-6.092-7.493-2.521-12.6-6.022-12.6-12.815,0-6.163,4.342-10.995,11.835-12.465v-6.652h6.863v6.162a25.217,25.217,0,0,1,10.154,2.311l-2.031,7.913a23.224,23.224,0,0,0-10.084-2.381c-4.552,0-6.022,1.961-6.022,3.922,0,2.311,2.451,3.781,8.4,6.022,8.333,2.941,11.695,6.793,11.695,13.1,0,6.233-4.412,11.555-12.465,12.955V361.1Z" transform="translate(-1793.707 -303.953)" fill="#fec558"/>
      </g>
    </g>
    <g id="Grupo_19681" data-name="Grupo 19681" transform="translate(1582.681 296.457)">
      <g id="Grupo_19678" data-name="Grupo 19678" transform="translate(4.144 6.903)">
        <circle id="Elipse_1106" data-name="Elipse 1106" cx="38.084" cy="38.084" r="38.084"/>
      </g>
      <g id="Grupo_19679" data-name="Grupo 19679" transform="translate(6.195 6.195)">
        <circle id="Elipse_1107" data-name="Elipse 1107" cx="36.954" cy="36.954" r="36.954" transform="translate(0.708 0.708)" fill="#fae7b7"/>
        <path id="Trazado_50699" data-name="Trazado 50699" d="M1909.753,506.962a37.662,37.662,0,1,1,37.662-37.662A37.7,37.7,0,0,1,1909.753,506.962Zm0-73.907A36.245,36.245,0,1,0,1946,469.3,36.286,36.286,0,0,0,1909.753,433.055Z" transform="translate(-1872.091 -431.638)"/>
      </g>
      <circle id="Elipse_1108" data-name="Elipse 1108" cx="31.012" cy="31.012" r="31.012" transform="translate(0 43.857) rotate(-45)" fill="#fff"/>
      <path id="Trazado_50700" data-name="Trazado 50700" d="M2006.25,537.9a.709.709,0,0,1-.594-1.093,30.138,30.138,0,0,0,3.6-7.846.709.709,0,0,1,1.36.4,31.54,31.54,0,0,1-3.767,8.214A.707.707,0,0,1,2006.25,537.9Z" transform="translate(-1936.321 -476.534)"/>
      <path id="Trazado_50701" data-name="Trazado 50701" d="M1950.995,463.121a.708.708,0,0,1-.637-.4,30.11,30.11,0,0,0-27.276-17.085,30.433,30.433,0,0,0-24.454,12.4.709.709,0,0,1-1.143-.838,31.857,31.857,0,0,1,25.6-12.983,31.517,31.517,0,0,1,28.551,17.884.708.708,0,0,1-.637,1.018Z" transform="translate(-1879.224 -432.083)"/>
      <path id="Trazado_50702" data-name="Trazado 50702" d="M1916.392,525.376a31.728,31.728,0,0,1-27.679-47.223.708.708,0,1,1,1.235.693,30.312,30.312,0,0,0,26.444,45.113.708.708,0,0,1,0,1.417Z" transform="translate(-1872.535 -449.799)"/>
      <g id="Grupo_19680" data-name="Grupo 19680" transform="translate(31.89 21.962)">
        <path id="Trazado_50703" data-name="Trazado 50703" d="M1935.62,508.814v-5.1a21.587,21.587,0,0,1-9.123-2.308l1.609-6.278a18.954,18.954,0,0,0,8.908,2.361c3.059,0,5.152-1.181,5.152-3.327,0-2.039-1.717-3.327-5.688-4.669-5.742-1.932-9.66-4.615-9.66-9.82,0-4.723,3.328-8.425,9.07-9.552v-5.1h5.259v4.722a19.325,19.325,0,0,1,7.782,1.771l-1.557,6.064a17.8,17.8,0,0,0-7.728-1.824c-3.488,0-4.615,1.5-4.615,3.005,0,1.771,1.878,2.9,6.44,4.615,6.386,2.254,8.962,5.206,8.962,10.035,0,4.776-3.381,8.855-9.552,9.928v5.474Z" transform="translate(-1926.497 -465.023)" fill="#fec558"/>
      </g>
    </g>
    <g id="Grupo_19703" data-name="Grupo 19703" transform="translate(1366.154 320.989)">
      <g id="Grupo_19683" data-name="Grupo 19683" transform="translate(62.624 53.005)">
        <g id="Grupo_19682" data-name="Grupo 19682" transform="translate(13.217 55.824)">
          <path id="Trazado_50704" data-name="Trazado 50704" d="M1575.817,715.89c-.7-1.392-5.865-6.824-7.144-9.263-.334-.638-.994-2.2-1.839-4.226-1.438.956-2.862,1.9-4.254,2.853,1.16,1.365,3.1,6.3,3.392,10.811.239,3.655,2,8.015,3.049,7.4s.348-6.534,1.307-6.1,3.4,4.356,3.049,5.663-2.614,4.356-1.655,4.7,3.765-2.45,4.356-3.572A10.06,10.06,0,0,0,1575.817,715.89Z" transform="translate(-1561.873 -701.693)" fill="#fff"/>
          <path id="Trazado_50705" data-name="Trazado 50705" d="M1571.087,727.678a1.161,1.161,0,0,1-.4-.067,1.035,1.035,0,0,1-.622-.609c-.28-.733.207-1.707,1.024-3.236a10.865,10.865,0,0,0,.81-1.708c.194-.728-1.23-3.327-2.167-4.4-.053.468-.084,1.1-.109,1.574-.112,2.2-.221,3.579-1.039,4.056a1.162,1.162,0,0,1-1.151,0c-1.425-.758-2.762-4.907-2.962-7.971-.281-4.3-2.127-9.105-3.225-10.4a.708.708,0,0,1,.138-1.042c1.184-.815,2.415-1.632,3.606-2.422l.657-.437a.709.709,0,0,1,1.046.317c.729,1.751,1.47,3.516,1.812,4.17a44.811,44.811,0,0,0,4.268,5.57,29.111,29.111,0,0,1,2.881,3.7h0a10.836,10.836,0,0,1,.255,8.924C1575.439,724.6,1572.775,727.678,1571.087,727.678Zm-1.647-11.83a.939.939,0,0,1,.389.086c1.243.565,3.886,4.82,3.44,6.49a11.083,11.083,0,0,1-.929,2.011,17.532,17.532,0,0,0-.83,1.692,10.924,10.924,0,0,0,3.149-3.083,9.423,9.423,0,0,0-.267-7.628h0a33.794,33.794,0,0,0-2.7-3.429,44.247,44.247,0,0,1-4.438-5.824c-.293-.56-.791-1.714-1.534-3.489-.97.644-1.966,1.305-2.938,1.967a26.524,26.524,0,0,1,3.106,10.585c.194,2.968,1.359,5.937,2.032,6.666a15.394,15.394,0,0,0,.291-2.73c.1-1.943.167-2.817.77-3.184A.876.876,0,0,1,1569.441,715.848Zm-1.622,6.26Z" transform="translate(-1561.081 -700.901)"/>
        </g>
        <path id="Trazado_50706" data-name="Trazado 50706" d="M1533.1,595.948c0,.675,10.706,50.867,10.706,50.867l11.984-8.988c-3.864-5.264-14.081-38.349-13.782-55.127Z" transform="translate(-1533.096 -582.699)" fill="#5479f7"/>
      </g>
      <g id="Grupo_19692" data-name="Grupo 19692" transform="translate(3.434 91.747)">
        <g id="Grupo_19687" data-name="Grupo 19687" transform="translate(0 127.635)">
          <g id="Grupo_19684" data-name="Grupo 19684" transform="translate(8.279)">
            <path id="Trazado_50707" data-name="Trazado 50707" d="M1428.939,936.489l-2.144,13.227s4.979,2.328,8.7.921l2.274-14.137Z" transform="translate(-1426.087 -935.781)" fill="#fff"/>
            <path id="Trazado_50708" data-name="Trazado 50708" d="M1431.981,951.007a16.691,16.691,0,0,1-6.278-1.44.708.708,0,0,1-.4-.755l2.144-13.227a.708.708,0,0,1,.7-.6h0l8.832.011a.708.708,0,0,1,.7.821l-2.274,14.137a.709.709,0,0,1-.449.55A8.417,8.417,0,0,1,1431.981,951.007Zm-5.189-2.519c1.238.489,4.588,1.625,7.281.824l2.074-12.9-7.4-.01Z" transform="translate(-1425.295 -934.989)"/>
          </g>
          <g id="Grupo_19686" data-name="Grupo 19686" transform="translate(0 10.204)">
            <g id="Grupo_19685" data-name="Grupo 19685">
              <path id="Trazado_50709" data-name="Trazado 50709" d="M1417.293,958.094a13.279,13.279,0,0,0-4.9,2.128l-.086.056a6.943,6.943,0,0,0-2.6,8.234l5.39,14.366a2.928,2.928,0,0,0,2.767,1.706l10.048.017a3.668,3.668,0,0,0,3.286-4.006,5.289,5.289,0,0,0-1.525-2.928c-4.383-3.9-2.779-16.789-2.779-16.789Z" transform="translate(-1408.55 -957.386)" fill="#5479f7"/>
              <path id="Trazado_50710" data-name="Trazado 50710" d="M1427.149,984.517l-10.075-.017a3.617,3.617,0,0,1-3.41-2.12c-.007-.015-.013-.031-.019-.046l-5.39-14.366a7.7,7.7,0,0,1,2.876-9.073l.091-.059a13.9,13.9,0,0,1,5.195-2.236.7.7,0,0,1,.289.022l9.6,2.784a.709.709,0,0,1,.506.767c-.016.126-1.508,12.569,2.546,16.172a5.911,5.911,0,0,1,1.748,3.313,3.889,3.889,0,0,1-.861,3.153A4.254,4.254,0,0,1,1427.149,984.517Zm-10.1-1.433,10.075.017a2.869,2.869,0,0,0,2-1.163,2.52,2.52,0,0,0,.588-1.99,4.541,4.541,0,0,0-1.3-2.543c-4.1-3.642-3.342-14.141-3.077-16.8l-8.866-2.572a13.614,13.614,0,0,0-4.477,2l-.079.052a6.269,6.269,0,0,0-2.332,7.394l5.381,14.341A2.226,2.226,0,0,0,1417.05,983.084Z" transform="translate(-1407.766 -956.594)"/>
            </g>
            <path id="Trazado_50711" data-name="Trazado 50711" d="M1431.741,986.44a.708.708,0,0,1-.023-1.416l4.819-.158a.7.7,0,0,1,.731.685.709.709,0,0,1-.684.732l-4.82.158Z" transform="translate(-1420.045 -971.513)" fill="#caddff"/>
            <path id="Trazado_50712" data-name="Trazado 50712" d="M1432.669,993.7a.708.708,0,0,1-.023-1.416l4.819-.158a.709.709,0,0,1,.047,1.416l-4.82.158Z" transform="translate(-1420.535 -975.344)" fill="#caddff"/>
          </g>
        </g>
        <g id="Grupo_19691" data-name="Grupo 19691" transform="translate(41.483 128.83)">
          <g id="Grupo_19688" data-name="Grupo 19688" transform="translate(3.016)">
            <path id="Trazado_50713" data-name="Trazado 50713" d="M1503.933,939.911l-.445,13.124s5.672,1.668,9.232-.111v-13.9Z" transform="translate(-1502.78 -938.312)" fill="#fff"/>
            <path id="Trazado_50714" data-name="Trazado 50714" d="M1507.76,953.662a20.725,20.725,0,0,1-5.264-.74.709.709,0,0,1-.508-.7l.445-13.124a.709.709,0,0,1,.637-.681l8.787-.89a.709.709,0,0,1,.78.705v13.9a.709.709,0,0,1-.392.634A10.146,10.146,0,0,1,1507.76,953.662Zm-4.336-1.963c1.374.327,5.14,1.056,7.8-.024V939.012l-7.391.749Z" transform="translate(-1501.988 -937.52)"/>
          </g>
          <g id="Grupo_19690" data-name="Grupo 19690" transform="translate(0 13.112)">
            <g id="Grupo_19689" data-name="Grupo 19689">
              <path id="Trazado_50715" data-name="Trazado 50715" d="M1499.55,966.964s-3.365,3.608-2.205,14.765a4.606,4.606,0,0,0,3.948,4.089L1524.414,989a2.175,2.175,0,0,0,2.175-2.174v-.49a8.1,8.1,0,0,0-6.015-7.866l-.176-.044a9.686,9.686,0,0,1-5.917-4.277l-4.524-7.367-1.417.34a17.912,17.912,0,0,1-8.316-.017Z" transform="translate(-1496.394 -966.075)" fill="#5479f7"/>
              <path id="Trazado_50716" data-name="Trazado 50716" d="M1523.623,988.919a.659.659,0,0,1-.1-.007l-23.121-3.185a5.3,5.3,0,0,1-4.556-4.717c-1.18-11.348,2.246-15.165,2.392-15.322a.707.707,0,0,1,.666-.21l.672.143a17.255,17.255,0,0,0,8,.022L1509,965.3a.709.709,0,0,1,.769.318l4.525,7.367a8.926,8.926,0,0,0,5.483,3.961l.184.046a8.786,8.786,0,0,1,6.546,8.551v.49A2.886,2.886,0,0,1,1523.623,988.919Zm-24.566-21.96c-.7,1.065-2.723,5.015-1.8,13.9a3.887,3.887,0,0,0,3.34,3.46l23.068,3.178a1.468,1.468,0,0,0,1.422-1.465v-.49a7.37,7.37,0,0,0-5.483-7.179l-.168-.043a10.341,10.341,0,0,1-6.35-4.591l-4.258-6.932-.917.22a18.635,18.635,0,0,1-8.642-.016Z" transform="translate(-1495.602 -965.283)"/>
            </g>
            <path id="Trazado_50717" data-name="Trazado 50717" d="M1520.26,985.381a.708.708,0,0,1-.361-1.318l4.149-2.456a.709.709,0,0,1,.722,1.219l-4.15,2.456A.706.706,0,0,1,1520.26,985.381Z" transform="translate(-1508.241 -973.846)" fill="#caddff"/>
            <path id="Trazado_50718" data-name="Trazado 50718" d="M1524.563,991.3a.709.709,0,0,1-.362-1.318l4.15-2.456a.708.708,0,1,1,.722,1.219l-4.149,2.456A.706.706,0,0,1,1524.563,991.3Z" transform="translate(-1510.512 -976.968)" fill="#caddff"/>
          </g>
        </g>
        <path id="Trazado_50719" data-name="Trazado 50719" d="M1445.2,668.712c-1.128,1.8-11.683,15.048-12.573,30.358s.757,44.856.424,51.571c-.28,5.627-11.019,32.793-12.829,41.2a3.186,3.186,0,0,0,2.451,3.637,32.015,32.015,0,0,0,15.24.706,3.3,3.3,0,0,0,2.76-3.011c.255-7.96,7.419-34.246,8.829-40.415,1.272-5.563,4.871-29.958,6.509-41.241.073-.5.921-.464.93.043.186,11.106.569,34.851.569,41.489,0,7.208-3.946,31.256-5.344,39.545a3.254,3.254,0,0,0,2.855,3.6,38.525,38.525,0,0,0,13.742.17,3.318,3.318,0,0,0,2.829-3.034c.246-8.23,1.137-35.689,2.268-42.615,1.335-8.174,4-50.8,3.671-61.6s-6.674-23.063-6.674-23.063S1449.579,661.737,1445.2,668.712Z" transform="translate(-1414.308 -664.732)"/>
      </g>
      <g id="Grupo_19693" data-name="Grupo 19693" transform="translate(0 33.894)">
        <path id="Trazado_50720" data-name="Trazado 50720" d="M1400.509,576.559a20.878,20.878,0,0,1,1.224-8.244c2.872-7.193,11.3-14.039,19.135-18.96,20.456-12.852,42.428-5.973,50.437,2.344,3.006,3.122-.159,31.511-2.382,28.786a55.931,55.931,0,0,0-.382,7.052c.039,3.5.1,6.657.354,9.377.667,7.192,5.11,20.806,6.092,26.061.016.087-.136.1-.374.076a14.073,14.073,0,0,0-5.907.685l-2.269.742c-3.669.908-13.245,1.286-13.245,1.286s-8.234,1.388-11.444.185c-5.555-2.081-20.427,3.63-23.743,2.722-.43-.118,7.234-33.015,8.259-38.652,1.2-6.583,1.693-16.856-.84-15.972l-4.334,2.831a4.932,4.932,0,0,0-1.477,6.565l4.869,6.808-13.93,10.683-6.022-9.875A32.179,32.179,0,0,1,1400.509,576.559Z" transform="translate(-1400.496 -542.232)" fill="#5479f7"/>
        <path id="Trazado_50721" data-name="Trazado 50721" d="M1492.669,662.059a.709.709,0,0,1-.669-.942c7.337-21.049,13.7-28.913,13.964-29.237a.708.708,0,0,1,1.094.9c-.064.078-6.482,8.038-13.72,28.8A.708.708,0,0,1,1492.669,662.059Z" transform="translate(-1448.764 -589.406)"/>
        <path id="Trazado_50722" data-name="Trazado 50722" d="M1542.626,631.3a.709.709,0,0,1-.7-.638c-.871-8.715-3.287-47-1.757-55.134a.708.708,0,1,1,1.392.262c-1.411,7.508.763,44.6,1.775,54.731a.709.709,0,0,1-.634.775C1542.673,631.3,1542.649,631.3,1542.626,631.3Z" transform="translate(-1473.941 -559.498)"/>
      </g>
      <g id="Grupo_19694" data-name="Grupo 19694" transform="translate(15.798 78.975)">
        <path id="Trazado_50723" data-name="Trazado 50723" d="M1457.008,648.052a1.273,1.273,0,0,1-.215,2.315,2.17,2.17,0,0,1-.994.112c-1.562-.214-3.349-.434-4.01-.428l-1.291.012a10.046,10.046,0,0,0-2.4.728,7.85,7.85,0,0,1-1.98.66,4.461,4.461,0,0,1-3.916-1.189l-6.76-6.808c-.069-.082,5.327-4.352,5.39-4.266l4.713,6.87,1.733-1.131c.845-.6,2.125-1.156,2.917-.712Z" transform="translate(-1434.737 -638.48)" fill="#fff"/>
        <path id="Trazado_50724" data-name="Trazado 50724" d="M1444.523,651.444a5.2,5.2,0,0,1-3.6-1.463l-6.771-6.818c-.013-.014-.026-.028-.039-.043a.718.718,0,0,1-.118-.72,41.474,41.474,0,0,1,5.957-4.706.718.718,0,0,1,.669.292l4.329,6.311,1.154-.752c1.044-.744,2.569-1.343,3.65-.737l6.811,3.836h0a1.981,1.981,0,0,1-.335,3.6,2.86,2.86,0,0,1-1.317.144,35.73,35.73,0,0,0-3.908-.422l-1.231.011a9.289,9.289,0,0,0-2.153.657,8.618,8.618,0,0,1-2.16.721A5.068,5.068,0,0,1,1444.523,651.444Zm-8.846-8.755,6.239,6.284a3.746,3.746,0,0,0,3.282.992,7.16,7.16,0,0,0,1.8-.6,10.724,10.724,0,0,1,2.591-.791.706.706,0,0,1,.113-.01l1.291-.012a38.688,38.688,0,0,1,4.113.435,1.462,1.462,0,0,0,.67-.082.545.545,0,0,0,.38-.481.556.556,0,0,0-.285-.545l-6.81-3.836c-.386-.216-1.315.072-2.158.672l-1.757,1.147a.708.708,0,0,1-.971-.193l-4.314-6.288C1438.85,640.136,1436.664,641.865,1435.677,642.689Z" transform="translate(-1433.946 -637.689)"/>
      </g>
      <g id="Grupo_19702" data-name="Grupo 19702" transform="translate(25.857)">
        <g id="Grupo_19699" data-name="Grupo 19699">
          <g id="Grupo_19697" data-name="Grupo 19697" transform="translate(0 3.116)">
            <g id="Grupo_19695" data-name="Grupo 19695">
              <circle id="Elipse_1109" data-name="Elipse 1109" cx="8.243" cy="8.243" r="8.243" transform="translate(0.709 0.708)" fill="#fff"/>
              <path id="Trazado_50725" data-name="Trazado 50725" d="M1464.2,494.964a8.951,8.951,0,1,1,8.951-8.951A8.961,8.961,0,0,1,1464.2,494.964Zm0-16.486a7.534,7.534,0,1,0,7.534,7.534A7.543,7.543,0,0,0,1464.2,478.479Z" transform="translate(-1455.246 -477.062)"/>
            </g>
            <g id="Grupo_19696" data-name="Grupo 19696" transform="translate(9.265 0.91)">
              <path id="Trazado_50726" data-name="Trazado 50726" d="M1482.793,487.03a8.245,8.245,0,0,1-6.007,7.934c-1.067-1.7-3.492-6.929-.426-15.975A8.244,8.244,0,0,1,1482.793,487.03Z" transform="translate(-1474.864 -478.989)" fill="#5479f7"/>
            </g>
          </g>
          <g id="Grupo_19698" data-name="Grupo 19698" transform="translate(10.143)">
            <path id="Trazado_50727" data-name="Trazado 50727" d="M1498.524,482.14c.742-.6,4.6-1.893,1.761-6.289s-12.611-4.788-16.723-2.448-5.53,9.04-5.318,12.762,2.34,8.4,6.594,10.21C1489.838,498.5,1496.5,483.771,1498.524,482.14Z" transform="translate(-1477.515 -471.268)" fill="#fff"/>
            <path id="Trazado_50728" data-name="Trazado 50728" d="M1485.084,496.494a3.33,3.33,0,0,1-1.315-.271c-4.535-1.927-6.8-6.824-7.024-10.821-.234-4.1,1.371-10.97,5.674-13.418,4.385-2.5,14.571-2.123,17.669,2.68a5.34,5.34,0,0,1,1.046,4.074,4.9,4.9,0,0,1-2.575,2.911c-.157.093-.319.188-.383.239h0a23.981,23.981,0,0,0-2.555,3.713C1492.708,490.274,1488.829,496.494,1485.084,496.494Zm4.393-24.593a13.675,13.675,0,0,0-6.357,1.314c-3.734,2.125-5.168,8.48-4.96,12.106.2,3.445,2.21,7.918,6.164,9.6,3.019,1.285,7.449-5.822,10.1-10.067a20.348,20.348,0,0,1,2.868-4.066h0a4.689,4.689,0,0,1,.55-.357,3.61,3.61,0,0,0,1.918-2.017,4.04,4.04,0,0,0-.858-2.981C1497.317,472.98,1493.266,471.9,1489.477,471.9Z" transform="translate(-1476.723 -470.465)"/>
          </g>
        </g>
        <g id="Grupo_19701" data-name="Grupo 19701" transform="translate(14.687 6.892)">
          <g id="Grupo_19700" data-name="Grupo 19700">
            <path id="Trazado_50729" data-name="Trazado 50729" d="M1504.693,486.787c.275-.361.255,5.232.468,5.817s2.074,3.222,2.18,3.647-1.327,1.286-1.593,1.551-.43,4.913-1.174,5.87c-.454.585-4.4-.187-4.612-.042-.532.372-1.384,8.52-1.065,9.69,0,0,3.935,3.829,4.041,4.68s-10.971,1.173-14.8-2.337l.891-2.1a37.18,37.18,0,0,0,2.528-8.918c.041-.271.061-.424.061-.424a4.906,4.906,0,0,0,3.312-3.942c.251-1.853-1.817-4.025-1.583-5.43.193-1.158,1.276-1.517,2.367-1.573a7.815,7.815,0,0,0,5.086-2.183A41.637,41.637,0,0,0,1504.693,486.787Z" transform="translate(-1487.291 -485.962)" fill="#fff"/>
            <path id="Trazado_50730" data-name="Trazado 50730" d="M1498.337,518.388c-3.757,0-9.112-.8-11.625-3.1l-.369-.338,1.086-2.564a36.529,36.529,0,0,0,2.48-8.749c.039-.259.059-.407.06-.41l.06-.459.445-.129a4.167,4.167,0,0,0,2.808-3.356,5.344,5.344,0,0,0-.8-2.642,5.025,5.025,0,0,1-.78-2.809c.126-.757.687-2.044,3.029-2.164a7.117,7.117,0,0,0,4.627-1.982,39.965,39.965,0,0,0,3.824-4.227h0l.3-.4.506.134c.605.192.618.52.739,3.667.038,1,.09,2.359.158,2.622.073.2.657,1.105,1.044,1.706a10.008,10.008,0,0,1,1.15,1.99c.193.771-.636,1.378-1.437,1.964-.078.057-.173.126-.245.181-.056.272-.13.894-.19,1.409-.25,2.11-.483,3.778-1.023,4.473-.49.63-1.659.574-4.027.308-.229-.026-.49-.055-.694-.074a45.776,45.776,0,0,0-.861,8.629c1.842,1.8,3.979,4.062,4.089,4.943a.876.876,0,0,1-.533.9A10.57,10.57,0,0,1,1498.337,518.388Zm-10.289-3.835c3.287,2.482,10.878,2.594,12.988,2.226a43.31,43.31,0,0,0-3.58-3.853l-.138-.135-.051-.187c-.217-.8.261-9.7,1.342-10.457.29-.2.562-.172,1.709-.043a14.243,14.243,0,0,0,2.8.144,17.284,17.284,0,0,0,.68-3.683c.184-1.561.233-1.9.5-2.166a4.586,4.586,0,0,1,.507-.4,8.756,8.756,0,0,0,.81-.646c-.183-.317-.59-.95-.879-1.4a15.01,15.01,0,0,1-1.191-2.01,15.6,15.6,0,0,1-.235-3.029c-.015-.391-.033-.861-.054-1.3-.828.968-1.8,2-2.91,3.084a8.535,8.535,0,0,1-5.546,2.384c-1.554.08-1.667.759-1.7.982a4.515,4.515,0,0,0,.659,1.961,6.35,6.35,0,0,1,.927,3.447,5.51,5.51,0,0,1-3.373,4.361l0,.015a37.927,37.927,0,0,1-2.576,9.088Z" transform="translate(-1486.344 -485.058)"/>
          </g>
          <path id="Trazado_50731" data-name="Trazado 50731" d="M1501.7,512.147a1.945,1.945,0,0,1-1.445-.732.708.708,0,0,1,1.047-.955c.187.2.319.271.4.27a.4.4,0,0,0,.2-.12.708.708,0,0,1,1.138.844,1.788,1.788,0,0,1-1.269.691Z" transform="translate(-1493.585 -498.342)"/>
          <path id="Trazado_50732" data-name="Trazado 50732" d="M1510.3,520.747a.747.747,0,0,1-.085,0,3.388,3.388,0,0,1-2.762-1.8.708.708,0,0,1,1.255-.656,2,2,0,0,0,1.674,1.054.708.708,0,0,1-.083,1.412Z" transform="translate(-1497.444 -502.391)"/>
        </g>
      </g>
    </g>
    <g id="Grupo_19713" data-name="Grupo 19713" transform="translate(1388.849 201.887)">
      <g id="Grupo_19704" data-name="Grupo 19704" transform="translate(259.595)">
        <path id="Trazado_50733" data-name="Trazado 50733" d="M2022.325,285.42a.717.717,0,0,1-.2-.029.708.708,0,0,1-.48-.879l12.907-44.035a.708.708,0,0,1,1.36.4L2023,284.91A.709.709,0,0,1,2022.325,285.42Z" transform="translate(-2010.567 -229.724)"/>
        <path id="Trazado_50734" data-name="Trazado 50734" d="M2043.681,312.226a.709.709,0,0,1-.575-1.122l16.476-22.928a.708.708,0,1,1,1.15.827l-16.476,22.928A.707.707,0,0,1,2043.681,312.226Z" transform="translate(-2021.837 -255.009)"/>
        <path id="Trazado_50735" data-name="Trazado 50735" d="M2089.418,267.216a6.04,6.04,0,1,1,2.775-.68A6.047,6.047,0,0,1,2089.418,267.216Zm-.016-10.668a4.637,4.637,0,1,0,1.4.217A4.6,4.6,0,0,0,2089.4,256.548Z" transform="translate(-2043.155 -237.726)"/>
        <path id="Trazado_50736" data-name="Trazado 50736" d="M2004.075,260.938a.706.706,0,0,1-.332-.083c-3.72-1.979-5.5-3.938-5.432-5.988.052-1.634,1.244-2.584,2.4-3.5,1.037-.826,2.016-1.607,2.182-2.847.2-1.485-.929-2.686-2.126-3.957-1.3-1.383-2.776-2.951-2.514-5.1.233-1.9,1.656-2.964,2.91-3.9,1.145-.856,2.135-1.595,2.143-2.8a4.364,4.364,0,0,0-1.443-2.719c-.919-1.065-1.959-2.273-1.649-4.018a4.316,4.316,0,0,1,1-1.984,2.234,2.234,0,0,0,.653-1.408c.025-.974-.658-2.014-2.03-3.09a.708.708,0,0,1,.874-1.115c1.743,1.368,2.608,2.794,2.573,4.24a3.553,3.553,0,0,1-.953,2.244,2.971,2.971,0,0,0-.719,1.36c-.193,1.082.512,1.9,1.327,2.845a5.558,5.558,0,0,1,1.787,3.654c-.014,1.91-1.447,2.981-2.712,3.926-1.128.843-2.192,1.638-2.351,2.938-.182,1.485.945,2.683,2.138,3.952,1.307,1.389,2.788,2.963,2.5,5.117-.243,1.8-1.55,2.846-2.7,3.766-.984.784-1.833,1.462-1.865,2.44-.044,1.417,1.575,3.04,4.682,4.693a.708.708,0,0,1-.333,1.334Z" transform="translate(-1998.22 -218.278)"/>
      </g>
      <g id="Grupo_19707" data-name="Grupo 19707" transform="translate(171.626 299.413)">
        <g id="Grupo_19705" data-name="Grupo 19705">
          <path id="Trazado_50737" data-name="Trazado 50737" d="M1821.31,914.507q-4.36,0-8.684-.223a.708.708,0,0,1-.671-.744.7.7,0,0,1,.744-.671c54.235,2.808,110.4-20.883,143.118-60.352a.709.709,0,0,1,1.091.9c-16.557,19.974-39.258,36.242-65.649,47.045A185.818,185.818,0,0,1,1821.31,914.507Z" transform="translate(-1811.954 -852.26)"/>
        </g>
        <g id="Grupo_19706" data-name="Grupo 19706" transform="translate(2.096 32.378)">
          <path id="Trazado_50738" data-name="Trazado 50738" d="M1817.1,944.31a.709.709,0,0,1-.127-1.405c2.747-.5,5.542-.993,8.246-1.467,20.838-3.653,42.384-7.43,60.44-20.485a.708.708,0,1,1,.83,1.148c-18.32,13.246-40.03,17.052-61.025,20.733-2.7.473-5.494.963-8.235,1.465A.7.7,0,0,1,1817.1,944.31Z" transform="translate(-1816.391 -920.818)"/>
        </g>
      </g>
      <g id="Grupo_19708" data-name="Grupo 19708" transform="translate(0 5.834)">
        <path id="Trazado_50739" data-name="Trazado 50739" d="M1449.257,339.612a.709.709,0,0,1-.569-1.129,176.051,176.051,0,0,1,44.467-42.5.708.708,0,1,1,.782,1.181,174.641,174.641,0,0,0-44.109,42.157A.707.707,0,0,1,1449.257,339.612Z" transform="translate(-1448.549 -265.059)"/>
        <path id="Trazado_50740" data-name="Trazado 50740" d="M1462.316,287.285a.708.708,0,0,1-.542-1.164c22.094-26.27,50.233-45.446,81.374-55.455a.708.708,0,1,1,.434,1.349c-30.887,9.928-58.8,28.953-80.723,55.018A.707.707,0,0,1,1462.316,287.285Z" transform="translate(-1455.441 -230.632)"/>
      </g>
      <g id="Grupo_19711" data-name="Grupo 19711" transform="translate(64.644 21.438)">
        <g id="Grupo_19709" data-name="Grupo 19709" transform="translate(0 18.378)">
          <path id="Trazado_50741" data-name="Trazado 50741" d="M1599.052,307.666a.709.709,0,0,1-.708-.708v-3.664a.708.708,0,1,1,1.417,0v3.664A.708.708,0,0,1,1599.052,307.666Z" transform="translate(-1592.244 -302.585)"/>
          <path id="Trazado_50742" data-name="Trazado 50742" d="M1599.052,325.738a.709.709,0,0,1-.708-.708v-3.664a.708.708,0,1,1,1.417,0v3.664A.708.708,0,0,1,1599.052,325.738Z" transform="translate(-1592.244 -312.122)"/>
          <path id="Trazado_50743" data-name="Trazado 50743" d="M1589.8,316.917h-3.664a.708.708,0,1,1,0-1.417h3.664a.708.708,0,1,1,0,1.417Z" transform="translate(-1585.428 -309.401)"/>
          <path id="Trazado_50744" data-name="Trazado 50744" d="M1607.872,316.917h-3.664a.708.708,0,1,1,0-1.417h3.664a.708.708,0,1,1,0,1.417Z" transform="translate(-1594.965 -309.401)"/>
        </g>
        <g id="Grupo_19710" data-name="Grupo 19710" transform="translate(40.217)">
          <path id="Trazado_50745" data-name="Trazado 50745" d="M1684.208,268.751a.708.708,0,0,1-.708-.708v-3.663a.708.708,0,0,1,1.417,0v3.663A.708.708,0,0,1,1684.208,268.751Z" transform="translate(-1677.401 -263.671)"/>
          <path id="Trazado_50746" data-name="Trazado 50746" d="M1684.208,286.823a.708.708,0,0,1-.708-.708V282.45a.708.708,0,1,1,1.417,0v3.664A.708.708,0,0,1,1684.208,286.823Z" transform="translate(-1677.401 -273.208)"/>
          <path id="Trazado_50747" data-name="Trazado 50747" d="M1674.957,278h-3.664a.708.708,0,1,1,0-1.417h3.664a.708.708,0,1,1,0,1.417Z" transform="translate(-1670.585 -270.486)"/>
          <path id="Trazado_50748" data-name="Trazado 50748" d="M1693.029,278h-3.664a.708.708,0,1,1,0-1.417h3.664a.708.708,0,1,1,0,1.417Z" transform="translate(-1680.122 -270.486)"/>
        </g>
        <path id="Trazado_50749" data-name="Trazado 50749" d="M1635.414,285.107a5.624,5.624,0,0,1-2.041-.386,5.722,5.722,0,0,1-3.2-3.1,5.869,5.869,0,0,1,2.926-7.662h0a5.588,5.588,0,0,1,4.346-.112,5.717,5.717,0,0,1,3.194,3.1,5.867,5.867,0,0,1-2.926,7.661A5.617,5.617,0,0,1,1635.414,285.107Zm-1.729-9.851a4.445,4.445,0,0,0-2.206,5.808,4.314,4.314,0,0,0,2.407,2.336,4.183,4.183,0,0,0,3.253-.084,4.445,4.445,0,0,0,2.206-5.808,4.314,4.314,0,0,0-2.407-2.336,4.182,4.182,0,0,0-3.253.084Z" transform="translate(-1608.79 -268.84)"/>
      </g>
      <g id="Grupo_19712" data-name="Grupo 19712" transform="translate(97.265 300.741)">
        <path id="Trazado_50750" data-name="Trazado 50750" d="M1657.461,908.175a.709.709,0,0,1-.252-1.371l106.378-40.424a.709.709,0,0,1,.5,1.325l-106.378,40.423A.7.7,0,0,1,1657.461,908.175Z" transform="translate(-1655.688 -861.015)" fill="#fff"/>
        <path id="Trazado_50751" data-name="Trazado 50751" d="M1655.209,888.4a.708.708,0,0,1-.261-1.367l80.847-31.913a.708.708,0,1,1,.52,1.318l-80.847,31.913A.711.711,0,0,1,1655.209,888.4Z" transform="translate(-1654.5 -855.072)" fill="#fff"/>
      </g>
    </g>
    <g id="Grupo_19737" data-name="Grupo 19737" transform="translate(1434.406 301.656)">
      <g id="Grupo_19714" data-name="Grupo 19714" transform="translate(35.201 96.687)">
        <path id="Trazado_50752" data-name="Trazado 50752" d="M1663.891,671.7s22.935-1.627,20.942-13.9-17.716-19.861-28.8-21.859-46.163,10.388-31.447,23.173S1663.891,671.7,1663.891,671.7Z" transform="translate(-1620.331 -635.036)" fill="#fff"/>
        <path id="Trazado_50753" data-name="Trazado 50753" d="M1663.081,671.634c-1.05,0-25.248-.163-39.746-12.759-4.6-4-4.18-7.73-3.017-10.158,4.516-9.426,26.886-15.718,35.054-14.246,10.656,1.92,27.272,9.481,29.377,22.443a8.662,8.662,0,0,1-1.8,7.028c-5.211,6.584-19.2,7.648-19.794,7.691l-.044,0Zm.027-.708h0Zm-10.747-35.277c-9.589,0-27.188,6.211-30.766,13.68-1.382,2.885-.485,5.737,2.669,8.477,14.108,12.257,37.819,12.411,38.809,12.411h.008c.635-.05,14.031-1.176,18.762-7.156a7.206,7.206,0,0,0,1.509-5.92c-1.987-12.236-17.971-19.427-28.23-21.276A15.786,15.786,0,0,0,1652.362,635.648Z" transform="translate(-1619.548 -634.257)"/>
      </g>
      <g id="Grupo_19724" data-name="Grupo 19724" transform="translate(24.401 101.563)">
        <g id="Grupo_19718" data-name="Grupo 19718" transform="translate(0 136.073)">
          <g id="Grupo_19715" data-name="Grupo 19715" transform="translate(7.031)">
            <path id="Trazado_50754" data-name="Trazado 50754" d="M1622.234,934.2l-1.794,17.2-7.072-.127-.3-16.946Z" transform="translate(-1612.36 -933.496)" fill="#fff"/>
            <path id="Trazado_50755" data-name="Trazado 50755" d="M1619.648,951.32h-.013l-7.072-.127a.708.708,0,0,1-.7-.7l-.3-16.946a.709.709,0,0,1,.7-.721l9.165-.126a.7.7,0,0,1,.533.23.708.708,0,0,1,.181.552l-1.794,17.2A.708.708,0,0,1,1619.648,951.32Zm-6.376-1.531,5.739.1,1.644-15.759-7.657.105Z" transform="translate(-1611.568 -932.704)"/>
          </g>
          <g id="Grupo_19717" data-name="Grupo 19717" transform="translate(0 13.159)">
            <g id="Grupo_19716" data-name="Grupo 19716">
              <path id="Trazado_50756" data-name="Trazado 50756" d="M1612.112,982.61a43.194,43.194,0,0,1-11.654-.386,2.715,2.715,0,0,1-2.178-3.409c1.227-4.323,3.237-12.75,6.565-16.477l1.36,2.341.992-2.09a.973.973,0,0,1,.743-.464l2.586-.054a.971.971,0,0,1,1.049.792l.323,1.815,2.4-2.36.233,17.329A2.715,2.715,0,0,1,1612.112,982.61Z" transform="translate(-1597.469 -961.359)" fill="#fff"/>
              <path id="Trazado_50757" data-name="Trazado 50757" d="M1606.943,982.753a44.1,44.1,0,0,1-7.394-.622,3.463,3.463,0,0,1-2.345-1.561,3.4,3.4,0,0,1-.4-2.739c.142-.5.295-1.057.459-1.654,1.277-4.653,3.208-11.684,6.259-15.1a.709.709,0,0,1,1.141.116l.684,1.178.415-.875c.01-.022.022-.043.034-.063a1.689,1.689,0,0,1,1.285-.8l.051,0,2.564-.053a1.685,1.685,0,0,1,1.782,1.377l.087.492,1.445-1.418a.708.708,0,0,1,1.2.5l.232,17.3a3.432,3.432,0,0,1-3.055,3.705h0A42.363,42.363,0,0,1,1606.943,982.753Zm-2.983-19.96c-2.486,3.411-4.178,9.573-5.327,13.757-.165.6-.319,1.162-.462,1.666a1.956,1.956,0,0,0,.231,1.6,2.042,2.042,0,0,0,1.385.92,42.4,42.4,0,0,0,11.46.38h0a2.012,2.012,0,0,0,1.792-2.188c0-.02,0-.041,0-.06l-.21-15.671-1.221,1.2a.709.709,0,0,1-1.194-.382l-.323-1.815a.265.265,0,0,0-.286-.212l-.051,0-2.553.053a.269.269,0,0,0-.172.1l-.971,2.048a.708.708,0,0,1-1.252.052Z" transform="translate(-1596.679 -960.567)"/>
            </g>
            <path id="Trazado_50758" data-name="Trazado 50758" d="M1609.1,999.124a23.283,23.283,0,0,1-5.863-.758.709.709,0,1,1,.357-1.371,20.039,20.039,0,0,0,10.315.1.708.708,0,1,1,.442,1.346A18.181,18.181,0,0,1,1609.1,999.124Z" transform="translate(-1599.858 -979.779)"/>
            <path id="Trazado_50759" data-name="Trazado 50759" d="M1615.165,985.469h-5.748a.708.708,0,1,1,0-1.417h5.748a.708.708,0,0,1,0,1.417Z" transform="translate(-1603.027 -972.961)"/>
          </g>
        </g>
        <g id="Grupo_19722" data-name="Grupo 19722" transform="translate(60.118 135.915)">
          <g id="Grupo_19719" data-name="Grupo 19719" transform="translate(1.558)">
            <path id="Trazado_50760" data-name="Trazado 50760" d="M1728.773,935.566l2.23,20.081,8.524,1.769-.519-23.547Z" transform="translate(-1728.064 -933.161)" fill="#fff"/>
            <path id="Trazado_50761" data-name="Trazado 50761" d="M1738.734,957.333a.743.743,0,0,1-.144-.015l-8.523-1.769a.709.709,0,0,1-.561-.615l-2.23-20.082a.708.708,0,0,1,.588-.777l10.234-1.7a.709.709,0,0,1,.824.683l.519,23.547a.708.708,0,0,1-.708.724Zm-7.876-3.066,7.148,1.483-.481-21.839-8.766,1.453Z" transform="translate(-1727.273 -932.37)"/>
          </g>
          <g id="Grupo_19721" data-name="Grupo 19721" transform="translate(0 18.092)">
            <g id="Grupo_19720" data-name="Grupo 19720">
              <path id="Trazado_50762" data-name="Trazado 50762" d="M1725.519,984.387c-.141-3.071-.078-8.915,2.108-12.071l6.819,2.406v-1.444a.846.846,0,0,1,.762-.873l3.8-.216a8.332,8.332,0,0,1,4.13.842c4,1.948,12.557,6.589,14.372,11.4a1.754,1.754,0,0,1-1.449,2.323c-3.4.455-11.979,1.134-28.434-.2A2.29,2.29,0,0,1,1725.519,984.387Z" transform="translate(-1724.765 -971.469)" fill="#fff"/>
              <path id="Trazado_50763" data-name="Trazado 50763" d="M1744.17,987.259c-4.446,0-10.161-.2-17.39-.788a3,3,0,0,1-2.761-2.844h0c-.149-3.251-.057-9.2,2.234-12.506a.709.709,0,0,1,.818-.265l5.875,2.073v-.443a1.553,1.553,0,0,1,1.431-1.58l3.8-.216a9.079,9.079,0,0,1,4.48.912c4.7,2.292,12.87,6.871,14.724,11.789a2.381,2.381,0,0,1-.191,2.073,2.5,2.5,0,0,1-1.827,1.2A86.208,86.208,0,0,1,1744.17,987.259Zm-18.735-3.7a1.585,1.585,0,0,0,1.46,1.5c16.156,1.31,24.655.69,28.283.2a1.092,1.092,0,0,0,.8-.524.965.965,0,0,0,.082-.846c-1.744-4.627-10.385-9.245-14.019-11.016a7.673,7.673,0,0,0-3.779-.772l-3.8.216c-.037,0-.094.069-.094.165v1.443a.708.708,0,0,1-.944.668l-6.287-2.219c-1.773,3.054-1.83,8.26-1.7,11.183Z" transform="translate(-1723.974 -970.677)"/>
            </g>
            <path id="Trazado_50764" data-name="Trazado 50764" d="M1745.527,996.2a128.742,128.742,0,0,1-14.637-.852.708.708,0,0,1,.162-1.407,109.3,109.3,0,0,0,24.486.342.708.708,0,1,1,.192,1.4A84.945,84.945,0,0,1,1745.527,996.2Z" transform="translate(-1727.293 -982.951)"/>
            <path id="Trazado_50765" data-name="Trazado 50765" d="M1759.5,981.88a.7.7,0,0,1-.411-.132l-6.564-4.679a.708.708,0,1,1,.823-1.153l6.564,4.678a.709.709,0,0,1-.412,1.286Z" transform="translate(-1738.884 -973.372)"/>
          </g>
        </g>
        <g id="Grupo_19723" data-name="Grupo 19723" transform="translate(3.831)">
          <path id="Trazado_50766" data-name="Trazado 50766" d="M1666,652.6s12.715,84.12,10.111,139.559l-13.6.349s-15.1-85.063-22.375-99.048c0,0-20.31,77.935-21.072,98.224l-12.3-.374s-1.871-43.1-1.965-55.826c-.269-36.417,3.242-52.958,5.168-60.806,1.768-7.206,3.665-13.062,5.05-17.023l4.626-13.078Z" transform="translate(-1604.791 -644.581)" fill="#fae7b7"/>
          <path id="Trazado_50767" data-name="Trazado 50767" d="M1678.463,739.19a.717.717,0,0,1-.172-.021.708.708,0,0,1-.516-.859l2.305-9.241a7.254,7.254,0,0,1,5.545-5.268l1.463-.311a.708.708,0,0,1,.294,1.386l-1.463.311a5.841,5.841,0,0,0-4.468,4.233l-2.3,9.232A.709.709,0,0,1,1678.463,739.19Z" transform="translate(-1643.296 -686.216)" fill="#caddff"/>
        </g>
      </g>
      <g id="Grupo_19731" data-name="Grupo 19731" transform="translate(0 0.473)">
        <g id="Grupo_19727" data-name="Grupo 19727" transform="translate(114.892)">
          <g id="Grupo_19725" data-name="Grupo 19725" transform="translate(7.662)">
            <path id="Trazado_50768" data-name="Trazado 50768" d="M1809.276,444.848s1.651-9.247,2.237-11.727c.666-2.821-3.775-.235-5.387,8.483Z" transform="translate(-1805.363 -431.322)" fill="#fff"/>
            <path id="Trazado_50769" data-name="Trazado 50769" d="M1808.878,445.543l-4.368-4.5.067-.359c1.193-6.452,3.853-9.6,5.25-10.072a1.191,1.191,0,0,1,1.217.2,1.64,1.64,0,0,1,.306,1.682c-.574,2.433-2.212,11.6-2.229,11.689Zm-2.839-4.959,1.932,1.99c.483-2.673,1.547-8.486,2-10.406,0-.018.009-.035.012-.052C1809.1,432.764,1807.08,435.315,1806.038,440.584Z" transform="translate(-1804.51 -430.532)"/>
          </g>
          <g id="Grupo_19726" data-name="Grupo 19726" transform="translate(0 7.631)">
            <path id="Trazado_50770" data-name="Trazado 50770" d="M1800.331,452c.245.258.493.513.754.755a3.518,3.518,0,0,1,1.282,2.708c-.133,1.212-2.04,5.411-2.956,7.373a5.4,5.4,0,0,0-.507,2.134c-.028,1.021.492,7.1.492,7.1l-7.472.458a35.738,35.738,0,0,0,.6-5.685c.3-4.649-.5-2.659-2.112-7.325s.269-8.872,1.189-9.383,2.377.892,2.377.892.754-2.752,2.409-2.833c.868-.042,1.089.829,1.66,1.4Z" transform="translate(-1789.076 -447.481)" fill="#fff"/>
            <path id="Trazado_50771" data-name="Trazado 50771" d="M1790.176,472.5l.28-.966a37.531,37.531,0,0,0,.571-5.533c.166-2.61,0-2.884-.511-3.7a14.417,14.417,0,0,1-1.564-3.354c-1.69-4.905.223-9.515,1.515-10.234a2.358,2.358,0,0,1,2.393.353c.435-.972,1.287-2.313,2.7-2.382a2.058,2.058,0,0,1,1.823,1.132,3.588,3.588,0,0,0,.372.475l2.3,2.418c.263.276.486.5.722.723a4.211,4.211,0,0,1,1.506,3.306c-.134,1.218-1.715,4.8-3.018,7.595a4.667,4.667,0,0,0-.441,1.855c-.022.8.346,5.34.49,7.021l.062.723Zm1.1-22.569a.244.244,0,0,0-.12.026c-.595.374-2.372,4.155-.863,8.533a13.172,13.172,0,0,0,1.427,3.066c.682,1.093.91,1.62.724,4.535-.163,2.561-.328,4.046-.448,4.878l5.849-.358c-.138-1.656-.458-5.615-.434-6.458a6.076,6.076,0,0,1,.573-2.414,42.611,42.611,0,0,0,2.893-7.15,2.917,2.917,0,0,0-1.059-2.112c-.279-.257-.543-.53-.787-.786h0l-2.285-2.4a4.74,4.74,0,0,1-.517-.65c-.323-.46-.422-.54-.594-.53-.863.042-1.559,1.576-1.761,2.312l-.315,1.15-.859-.827A2.916,2.916,0,0,0,1791.273,449.933Z" transform="translate(-1788.286 -446.689)"/>
          </g>
          <path id="Trazado_50772" data-name="Trazado 50772" d="M1800.458,462.219a4.043,4.043,0,0,1-3.009-1.754c-2.074-2.541-.724-7.426-.665-7.632a.708.708,0,0,1,1.363.385c-.341,1.212-.934,4.716.4,6.351.869,1.065,1.738,1.362,2.179,1.189a.64.64,0,0,0,.328-.685,3.7,3.7,0,0,0-.92-2.206.709.709,0,0,1,.989-1.015,5.093,5.093,0,0,1,1.345,3.126,2.005,2.005,0,0,1-1.222,2.1A2.136,2.136,0,0,1,1800.458,462.219Z" transform="translate(-1792.514 -442.029)"/>
        </g>
        <path id="Trazado_50773" data-name="Trazado 50773" d="M1602.173,514.828c-8.481,6.567-24.658,23.639-25.6,43.895a2.146,2.146,0,0,0,1.145,2h0a12.892,12.892,0,0,0,12.676-.389l4.8-2.917s-6.591,23.4-6.141,27.164,12,10.16,26.453,4.911,41.637-6.733,46,2.16l-3.371-31.034,25.282-4.333s-6.678-25.113-24.124-40.632C1647.414,505.085,1614.756,505.085,1602.173,514.828Z" transform="translate(-1561.665 -471.214)"/>
        <path id="Trazado_50774" data-name="Trazado 50774" d="M1776.56,494.49l-12.6-.427s-3.776,33.625-8.583,38.64-14.174,11.426-14.174,11.426,2.736,18.56,19.814,17.493C1788.24,559.92,1776.56,494.49,1776.56,494.49Z" transform="translate(-1648.549 -464.059)"/>
        <g id="Grupo_19730" data-name="Grupo 19730" transform="translate(0 60.48)">
          <g id="Grupo_19728" data-name="Grupo 19728" transform="translate(0.897)">
            <path id="Trazado_50775" data-name="Trazado 50775" d="M1549.906,560.094h30.917a2.192,2.192,0,0,1,2.062,1.811l7.017,42.925a1.481,1.481,0,0,1-1.47,1.811h-30.917a2.192,2.192,0,0,1-2.062-1.811l-7.017-42.925A1.481,1.481,0,0,1,1549.906,560.094Z" transform="translate(-1547.704 -559.386)" fill="#fff"/>
            <path id="Trazado_50776" data-name="Trazado 50776" d="M1587.642,606.558h-30.917a2.889,2.889,0,0,1-2.761-2.405l-7.017-42.925a2.31,2.31,0,0,1,.488-1.878,2.165,2.165,0,0,1,1.681-.756h30.917a2.889,2.889,0,0,1,2.761,2.406l7.017,42.924a2.31,2.31,0,0,1-.487,1.878A2.164,2.164,0,0,1,1587.642,606.558Zm-38.526-46.547a.761.761,0,0,0-.6.256.89.89,0,0,0-.169.732l7.017,42.924a1.481,1.481,0,0,0,1.363,1.217h30.917a.759.759,0,0,0,.6-.256.889.889,0,0,0,.169-.732l-7.017-42.925a1.481,1.481,0,0,0-1.363-1.217Z" transform="translate(-1546.913 -558.594)"/>
          </g>
          <g id="Grupo_19729" data-name="Grupo 19729" transform="translate(0 18.429)">
            <path id="Trazado_50777" data-name="Trazado 50777" d="M1550.156,599.121l.731,4.3,11.6-2.015a3.066,3.066,0,0,1,3.566,2.634,4.174,4.174,0,0,1-1.842,3.982c-1.926,1.431-7.871,3.568-12.652,4.448-5.351.985-5.746-6.757-4.423-10.626C1548.172,598.829,1550.156,599.121,1550.156,599.121Z" transform="translate(-1545.798 -598.407)" fill="#fff"/>
            <path id="Trazado_50778" data-name="Trazado 50778" d="M1549.888,612.473a4.081,4.081,0,0,1-3.2-1.449c-2.193-2.543-1.894-7.589-1-10.2,1.208-3.533,3.684-3.209,3.789-3.194a.708.708,0,0,1,.6.582l.612,3.6,10.9-1.893a3.872,3.872,0,0,1,2.961.737,3.632,3.632,0,0,1,1.431,2.52,4.9,4.9,0,0,1-2.124,4.626c-2.089,1.553-8.139,3.691-12.947,4.576A5.654,5.654,0,0,1,1549.888,612.473Zm-1.1-13.365c-.492.163-1.242.664-1.759,2.175-.923,2.7-.848,6.981.733,8.815a2.842,2.842,0,0,0,2.891.885c4.9-.9,10.666-3.062,12.357-4.319a3.465,3.465,0,0,0,1.561-3.338,2.23,2.23,0,0,0-.882-1.545,2.447,2.447,0,0,0-1.866-.466l-11.6,2.014a.709.709,0,0,1-.82-.579Z" transform="translate(-1545.013 -597.617)"/>
          </g>
        </g>
        <path id="Trazado_50779" data-name="Trazado 50779" d="M1715.851,572.576a3.067,3.067,0,0,1-1.083-.2l-3.535-1.334a3.044,3.044,0,0,1-1.965-2.829v-8.5a1.56,1.56,0,0,1,1.562-1.555h3.762a.708.708,0,1,1,0,1.417h-3.762a.142.142,0,0,0-.146.138v8.5a1.619,1.619,0,0,0,1.048,1.5l3.535,1.335a1.649,1.649,0,0,0,1.161,0l3.948-1.478a1.619,1.619,0,0,0,1.052-1.505v-8.356a.142.142,0,0,0-.146-.138h-3.433a.708.708,0,1,1,0-1.417h3.433a1.56,1.56,0,0,1,1.562,1.555v8.356a3.043,3.043,0,0,1-1.973,2.832l-3.948,1.478A3.06,3.06,0,0,1,1715.851,572.576Z" transform="translate(-1631.695 -497.885)" fill="#99b9ff"/>
        <path id="Trazado_50780" data-name="Trazado 50780" d="M1739.522,695.009a.709.709,0,0,1-.7-.613l-1.246-9.114a.709.709,0,1,1,1.4-.192l1.246,9.114a.709.709,0,0,1-.606.8A.681.681,0,0,1,1739.522,695.009Z" transform="translate(-1646.629 -564.546)" fill="#caddff"/>
      </g>
      <g id="Grupo_19736" data-name="Grupo 19736" transform="translate(51.863)">
        <g id="Grupo_19734" data-name="Grupo 19734">
          <g id="Grupo_19732" data-name="Grupo 19732" transform="translate(6.382 18.361)">
            <path id="Trazado_50781" data-name="Trazado 50781" d="M1687.776,472.651l1.515,15.5a3.925,3.925,0,0,0,2.924,3.314l1.875.484a1.119,1.119,0,0,1,.27,2.065,22.091,22.091,0,0,1-24-.942h0a1.3,1.3,0,0,1,.507-2.3l2.641-.585a3.929,3.929,0,0,0,3.025-3.125l.613-17.154Z" transform="translate(-1669.134 -469.198)" fill="#fff"/>
            <path id="Trazado_50782" data-name="Trazado 50782" d="M1682.1,497.015a22.7,22.7,0,0,1-12.932-4.148,2,2,0,0,1,.75-3.58l2.641-.585a3.215,3.215,0,0,0,2.473-2.512l.611-17.1a.709.709,0,0,1,.885-.661l10.629,2.744a.708.708,0,0,1,.528.617l1.514,15.5a3.2,3.2,0,0,0,2.4,2.7l1.875.485a1.828,1.828,0,0,1,.441,3.368A24.563,24.563,0,0,1,1682.1,497.015Zm-5.073-26.994-.581,16.273a.661.661,0,0,1-.011.1,4.628,4.628,0,0,1-3.569,3.69l-2.641.585a.587.587,0,0,0-.457.453.568.568,0,0,0,.223.591c9.791,6.637,18.755,3.408,23.224.891a.411.411,0,0,0-.1-.762l-1.875-.484a4.608,4.608,0,0,1-3.45-3.913l-1.468-15.026Z" transform="translate(-1668.342 -468.407)"/>
          </g>
          <path id="Trazado_50783" data-name="Trazado 50783" d="M1659.787,432.441c3.419-.784-.331,3.468,11.817-2.391,4.838-2.333,3.253,3.976,4.509,3.373,4.64-2.223,5.913-2.782,8.4-2.568,1.644.142,5.5,2.657,5.33,4.85-.548,7.154-3.934,5.863-5.021,12.206-.763,4.455-1.74,5.938-3.341,6.842-1.618.913-3.275-1.157-5.117-.291-2.385,1.12-1.17,5.321-3.307,7.512-1.346,1.381-4.832,2.51-11.021.727a2.148,2.148,0,0,1-1.547-2.285c.139-1.327.323-3,.634-4.587,1.482-7.559,3.768-9.6,2.532-11.283-1.893-2.578-7.012-.044-8.294-2.208C1654.025,440.091,1655.106,433.515,1659.787,432.441Z" transform="translate(-1654.828 -429.53)"/>
          <g id="Grupo_19733" data-name="Grupo 19733" transform="translate(4.189 10.163)">
            <path id="Trazado_50784" data-name="Trazado 50784" d="M1679.364,454.784l-.681,1.992a21.391,21.391,0,0,0-.764,2.87c-.352,1.824-1.08,4.934-1.469,6.687-1.249,5.637-8.778.957-8.778.957l-.7-1.374-.941-.205a1.073,1.073,0,0,1-.495-.242,1.015,1.015,0,0,1-.243-1.183c.993-2.148,3.014-6.937,3.349-10.984A11.316,11.316,0,0,1,1679.364,454.784Z" transform="translate(-1664.491 -451.853)" fill="#fff"/>
            <path id="Trazado_50785" data-name="Trazado 50785" d="M1672.333,469.014a13.153,13.153,0,0,1-5.826-1.925.707.707,0,0,1-.257-.28l-.548-1.075-.613-.134a1.779,1.779,0,0,1-.82-.41,1.723,1.723,0,0,1-.409-2c.877-1.9,2.955-6.746,3.286-10.745a.708.708,0,0,1,.418-.589,11.94,11.94,0,0,1,11.426,1.555.709.709,0,0,1,.254.8l-.681,1.993a20.746,20.746,0,0,0-.738,2.775c-.258,1.334-.72,3.371-1.091,5.008-.143.632-.276,1.217-.383,1.7a3.931,3.931,0,0,1-2.27,3.008A4.486,4.486,0,0,1,1672.333,469.014Zm-4.913-3.029c1.241.729,4.315,2.158,6.112,1.4a2.571,2.571,0,0,0,1.435-2.009c.107-.484.24-1.071.384-1.7.369-1.627.828-3.653,1.081-4.964a22.2,22.2,0,0,1,.789-2.964l.508-1.486a10.555,10.555,0,0,0-9.215-1.253,38.374,38.374,0,0,1-3.369,10.777.308.308,0,0,0,.077.361.387.387,0,0,0,.169.074l.941.205a.708.708,0,0,1,.48.371Z" transform="translate(-1663.698 -451.05)"/>
          </g>
          <path id="Trazado_50786" data-name="Trazado 50786" d="M1694.5,467.007s1.631-4.793,3.662-3.6.1,6.424-3.662,3.6Z" transform="translate(-1675.766 -447.307)" fill="#fff"/>
        </g>
        <g id="Grupo_19735" data-name="Grupo 19735" transform="translate(3.271 14.931)">
          <path id="Trazado_50787" data-name="Trazado 50787" d="M1672.447,469.17a2.135,2.135,0,0,1-1.231-.375c-.81-.558-1.295-1.667-1.482-3.39-.152-1.4.141-2.316.9-2.8a2.29,2.29,0,0,1,1.767-.332,1.783,1.783,0,0,1,1.135.784,5.643,5.643,0,0,1,.7,4.881,1.772,1.772,0,0,1-1.1,1.14A2.719,2.719,0,0,1,1672.447,469.17Zm-.537-5.538a.948.948,0,0,0-.515.164h0c-.333.214-.3,1-.252,1.455.181,1.667.627,2.2.877,2.376a.829.829,0,0,0,.72.089c.32-.273.781-1.924-.423-3.933a.409.409,0,0,0-.243-.134A.7.7,0,0,0,1671.91,463.632Zm-.9-.433h0Z" transform="translate(-1665.945 -461.709)"/>
          <path id="Trazado_50788" data-name="Trazado 50788" d="M1673.676,463.04a.708.708,0,0,1-.03-1.416l11.022-.479a.709.709,0,0,1,.061,1.416l-11.022.478Z" transform="translate(-1667.672 -461.145)"/>
          <path id="Trazado_50789" data-name="Trazado 50789" d="M1663.662,469.085a.718.718,0,0,1-.185-.025c-.382-.1-.75-.5-1.094-1.173a5.175,5.175,0,0,1-.37-3.975,1.809,1.809,0,0,1,1.074-1.094,3.839,3.839,0,0,1,2.74.413.709.709,0,0,1-.674,1.246h0a2.537,2.537,0,0,0-1.574-.33.394.394,0,0,0-.242.269,3.852,3.852,0,0,0,.623,3.317.709.709,0,0,1-.3,1.351Z" transform="translate(-1661.754 -461.961)"/>
        </g>
      </g>
    </g>
  </g>
</svg>
