<svg xmlns="http://www.w3.org/2000/svg" width="272.463" height="385.363" viewBox="0 0 272.463 385.363">
  <g id="_196914760" data-name=" 196914760" transform="translate(-205 -742.921)">
    <g id="Grupo_17576" data-name="Grupo 17576" transform="translate(205 742.922)">
      <g id="Grupo_17575" data-name="Grupo 17575" transform="translate(0 0)">
        <rect id="Rectángulo_4417" data-name="Rectángulo 4417" width="272" height="385" transform="translate(0.463 0)" fill="none"/>
        <path id="Trazado_45642" data-name="Trazado 45642" d="M1565,2419v2.718l2.019,2.252,4.893-.078,2.485-2.019.078-2.641,4.194,2.951-3.65,2.563" transform="translate(-1459.374 -2288.772)" fill="none"/>
        <path id="Trazado_45643" data-name="Trazado 45643" d="M1572,2466.408l11.805-.078,3.728-2.33" transform="translate(-1465.83 -2330.277)" fill="none"/>
        <path id="Trazado_45644" data-name="Trazado 45644" d="M1688.592,2401.136v-2.1L1683,2395" transform="translate(-1568.209 -2266.636)" fill="none"/>
        <line id="Línea_61" data-name="Línea 61" x2="9" transform="translate(106.463 128)" fill="none"/>
        <line id="Línea_62" data-name="Línea 62" x1="1" y1="1" transform="translate(114.463 128)" fill="none"/>
        <line id="Línea_63" data-name="Línea 63" x1="5" y2="4" transform="translate(101.463 128)" fill="none"/>
        <path id="Trazado_45645" data-name="Trazado 45645" d="M1444.174,2309.242l-10.174,8v-12.97h2.874l4.66-3.029,14.834.932V2300" transform="translate(-1338.548 -2179.014)" fill="none"/>
        <path id="Trazado_45646" data-name="Trazado 45646" d="M1696,2350l5.98,5.747v7.378" transform="translate(-1580.199 -2225.131)" fill="none"/>
        <line id="Línea_64" data-name="Línea 64" y1="1" transform="translate(121.463 133)" fill="none"/>
        <line id="Línea_65" data-name="Línea 65" x1="4" y1="4" transform="translate(102.463 132)" fill="none"/>
        <rect id="Rectángulo_4418" data-name="Rectángulo 4418" width="3" height="3" transform="translate(108.463 130)" fill="none"/>
        <line id="Línea_66" data-name="Línea 66" x2="3" transform="translate(105.463 132)" fill="none"/>
        <line id="Línea_67" data-name="Línea 67" x1="5" transform="translate(110.463 132)" fill="none"/>
        <line id="Línea_68" data-name="Línea 68" y1="1" transform="translate(105.463 129)" fill="none"/>
        <path id="Trazado_45647" data-name="Trazado 45647" d="M1467.078,2352.961l-.078-2.874,1.864-1.087v-3.806l4.66-4.194,11.262.7" transform="translate(-1368.985 -2216.83)" fill="none"/>
        <path id="Trazado_45648" data-name="Trazado 45648" d="M1520,2372.835l.078-4.116,3.573-2.718h9.4" transform="translate(-1417.869 -2239.888)" fill="none"/>
        <line id="Línea_69" data-name="Línea 69" x2="9" y2="8" transform="translate(114.463 126)" fill="none"/>
        <line id="Línea_70" data-name="Línea 70" x2="6" transform="translate(121.463 132)" fill="none"/>
        <path id="Trazado_45649" data-name="Trazado 45649" d="M1706.932,2320l.078,13.9-.078,7.223L1698,2364.5" transform="translate(-1582.044 -2197.461)" fill="none"/>
        <line id="Línea_71" data-name="Línea 71" x2="7" transform="translate(112.463 158)" fill="none"/>
        <path id="Trazado_45650" data-name="Trazado 45650" d="M1372,2507.951l5.281,5.126-3.184,10.1,4.272-4.039,8.7,6.524L1403.61,2489" transform="translate(-1281.363 -2353.335)" fill="none"/>
        <path id="Trazado_45651" data-name="Trazado 45651" d="M1514.193,2565l-9.553,3.65H1494" transform="translate(-1393.888 -2423.433)" fill="none"/>
        <path id="Trazado_45652" data-name="Trazado 45652" d="M1479.485,2552v15.067L1469,2581.2" transform="translate(-1370.83 -2411.442)" fill="none"/>
        <path id="Trazado_45653" data-name="Trazado 45653" d="M1355.4,2424.94l-1.4,6.6.777-32.542" transform="translate(-1264.761 -2270.325)" fill="none"/>
        <path id="Trazado_45654" data-name="Trazado 45654" d="M1508,2464l4.272,4.349,6.446.155" transform="translate(-1406.801 -2330.277)" fill="none"/>
        <line id="Línea_72" data-name="Línea 72" y2="3" transform="translate(111.463 136)" fill="none"/>
        <line id="Línea_73" data-name="Línea 73" y2="11" transform="translate(101.463 134)" fill="none"/>
        <path id="Trazado_45655" data-name="Trazado 45655" d="M1509,2495l4.194,4.194,7.3.078" transform="translate(-1407.723 -2358.869)" fill="none"/>
        <line id="Línea_74" data-name="Línea 74" y1="2" transform="translate(108.463 139)" fill="none"/>
        <line id="Línea_75" data-name="Línea 75" x2="23" transform="translate(89.463 151)" fill="none"/>
        <path id="Trazado_45656" data-name="Trazado 45656" d="M1283,2502.708l3.184-1.553.155-21.358V2477" transform="translate(-1199.276 -2342.267)" fill="none"/>
        <path id="Trazado_45657" data-name="Trazado 45657" d="M1326,1963.425l7.378-13.825v-24l4.971-6.6,1.709,1.476.078,6.446,1.553-2.485" transform="translate(-1238.936 -1827.605)" fill="none"/>
        <path id="Trazado_45658" data-name="Trazado 45658" d="M1519.078,1713.4l-.078-14.524,7.068-10.873" transform="translate(-1416.946 -1614.546)" fill="none"/>
        <line id="Línea_76" data-name="Línea 76" y2="15" transform="translate(107.463 72)" fill="none"/>
        <path id="Trazado_45659" data-name="Trazado 45659" d="M1579,1816l5.048,6.058-.078,10.873-4.194,4.582h14.058" transform="translate(-1472.286 -1732.605)" fill="none"/>
        <line id="Línea_77" data-name="Línea 77" x1="3" y2="3" transform="translate(103.463 84)" fill="none"/>
        <line id="Línea_78" data-name="Línea 78" x2="1" y2="13" transform="translate(103.463 85)" fill="none"/>
        <path id="Trazado_45660" data-name="Trazado 45660" d="M1460.31,1814.135l-5.67,7.534-.155-21.669-2.485,2.408.078,8.233" transform="translate(-1355.15 -1717.848)" fill="none"/>
        <path id="Trazado_45661" data-name="Trazado 45661" d="M1149.106,1729.126l-7.068,9.864,2.641-22.989-10.951,18.019,3.029,13.669-2.874,1.864-6.912-11.417,3.573,15.067-6.446,4.427-2.1-3.961v10.563" transform="translate(-1050.78 -1640.371)" fill="none"/>
        <path id="Trazado_45662" data-name="Trazado 45662" d="M1113.786,2033l5.437,9.4.233,11.961-1.4,1.631-1.165-10.407-3.961-3.65,3.184,15.223-1.165,1.165-5.592-13.825.233,11.029,4.116,6.213-1.087,2.1-6.6-15.689-2.175,3.883,7.611,15.067-3.34-2.641-5.437-10.407,1.243,8.31,8.7,9.165-.544,1.087-3.961-4.738-1.709,1.087L1096,2052.339" transform="translate(-1026.799 -1932.751)" fill="none"/>
        <line id="Línea_79" data-name="Línea 79" x2="12" y2="24" transform="translate(69.463 122)" fill="none"/>
        <line id="Línea_80" data-name="Línea 80" y2="16" transform="translate(79.463 138)" fill="none"/>
        <line id="Línea_81" data-name="Línea 81" x2="7" y2="13" transform="translate(79.463 150)" fill="none"/>
        <line id="Línea_82" data-name="Línea 82" x2="3" transform="translate(79.463 139)" fill="none"/>
        <path id="Trazado_45663" data-name="Trazado 45663" d="M1267.67,2550.893,1262,2538l.854,11.65h4.039" transform="translate(-1179.906 -2398.53)" fill="none"/>
        <path id="Trazado_45664" data-name="Trazado 45664" d="M1278.388,2808v14.912l2.252-2.563-2.641,6.99" transform="translate(-1194.664 -2647.56)" fill="none"/>
        <path id="Trazado_45665" data-name="Trazado 45665" d="M1283,3044l2.175,7.068,33.785,59.1" transform="translate(-1199.276 -2865.231)" fill="none"/>
        <path id="Trazado_45666" data-name="Trazado 45666" d="M1479,3429l23.455,10.019-1.553-5.592,1.864-.7,3.34,6.446h5.747" transform="translate(-1380.053 -3220.329)" fill="none"/>
        <path id="Trazado_45667" data-name="Trazado 45667" d="M1865,3391.213l3.107-4.272,2.1,3.107,14.524.078,23.3-13.126" transform="translate(-1736.074 -3172.367)" fill="none"/>
        <path id="Trazado_45668" data-name="Trazado 45668" d="M1486,3461l23.455,13.436,29.358-.388" transform="translate(-1386.509 -3249.844)" fill="none"/>
        <line id="Línea_83" data-name="Línea 83" x1="18" y2="13" transform="translate(149.463 211)" fill="none"/>
        <line id="Línea_84" data-name="Línea 84" y1="33" x2="24" transform="translate(164.463 181)" fill="none"/>
        <path id="Trazado_45669" data-name="Trazado 45669" d="M1412.976,2888.485l-4.427-14.524-1.243.7.466,14.834-7.922,5.67-5.281-9.242-.932,1.165,2.485,18.484-6.136.854,2.019-7.689-2.175-1.087-7.689,17.553-1.553-1.01-.078-7.223h-1.864l-.7,5.67-7.689,6.679,1.786-4.5-2.408-4.039-2.641,9.4-2.175-1.4,3.262-9.553-2.951-2.485-.854.622,1.864,2.485-3.495,9.864-2.563-.155,1.243-8.621-3.029-4.039-3.107,11.029-3.573.543-4.815-5.825.7-3.883-3.65,1.786,1.786,5.747-2.951-.078-2.641-6.291,2.8-2.718-.854-.777-3.961,3.184,1.786,5.9h-.932l-9.941-16.388-1.165-6.6-1.4,5.437,8.077,15.067-1.087,1.087-9.242-12.349,2.175-14.6-2.175-1.165-4.116,7.922-3.5-6.99,5.359-8.078-1.087-1.32-5.359,5.281-1.243-.854,1.32-11.728-.932-.233L1311,2890.582" transform="translate(-1225.101 -2704.744)" fill="none"/>
        <path id="Trazado_45670" data-name="Trazado 45670" d="M1518.408,2870.66l-2.408,4.971,2.874,2.1,4.893-7.378,7.145-4.35,2.951,4.272h2.1" transform="translate(-1414.179 -2701.055)" fill="none"/>
        <path id="Trazado_45671" data-name="Trazado 45671" d="M1750,2900l2.874,3.65h14.757" transform="translate(-1630.005 -2732.414)" fill="none"/>
        <path id="Trazado_45672" data-name="Trazado 45672" d="M1942.932,2403.746l4.893-2.175,2.718-3.728L1942,2366.854l3.806-7.146L1962.97,2358l12.349,9.631" transform="translate(-1807.093 -2232.51)" fill="none"/>
        <path id="Trazado_45673" data-name="Trazado 45673" d="M2067.154,2389.446h-10.33l-8.543-6.446-10.951,1.087-2.33,2.485,1.165,1.087" transform="translate(-1892.87 -2255.568)" fill="none"/>
        <path id="Trazado_45674" data-name="Trazado 45674" d="M2023.582,2410l-4.582,4.582v1.787l4.815,3.728,11.339-.078" transform="translate(-1878.113 -2280.471)" fill="none"/>
        <line id="Línea_85" data-name="Línea 85" x1="6" y2="5" transform="translate(155.463 134)" fill="none"/>
        <path id="Trazado_45675" data-name="Trazado 45675" d="M2032,2476l3.573,1.709h15.922" transform="translate(-1890.103 -2341.345)" fill="none"/>
        <path id="Trazado_45676" data-name="Trazado 45676" d="M2189.262,2439.281l2.407-2.951-3.805-2.33-.078,2.951-1.786,2.33" transform="translate(-2032.143 -2302.607)" fill="none"/>
        <line id="Línea_86" data-name="Línea 86" x1="5" y2="4" transform="translate(140.463 132)" fill="none"/>
        <line id="Línea_87" data-name="Línea 87" x2="1" transform="translate(145.463 132)" fill="none"/>
        <path id="Trazado_45677" data-name="Trazado 45677" d="M2085,2430v3.806l2.175,2.175" transform="translate(-1938.987 -2298.918)" fill="none"/>
        <path id="Trazado_45678" data-name="Trazado 45678" d="M2112,2433l.078,3.883,5.9.155v-3.029" transform="translate(-1963.89 -2301.685)" fill="none"/>
        <line id="Línea_88" data-name="Línea 88" x2="3" transform="translate(146.463 132)" fill="none"/>
        <path id="Trazado_45679" data-name="Trazado 45679" d="M2106.466,2433l4.66.078-.078,2.8L2106,2435.8" transform="translate(-1958.356 -2301.685)" fill="none"/>
        <line id="Línea_89" data-name="Línea 89" x2="4" transform="translate(152.463 132)" fill="none"/>
        <line id="Línea_90" data-name="Línea 90" x1="1" transform="translate(147.463 131)" fill="none"/>
        <path id="Trazado_45680" data-name="Trazado 45680" d="M2078,2404.466l9.165-.466,6.757,4.66" transform="translate(-1932.531 -2274.937)" fill="none"/>
        <line id="Línea_91" data-name="Línea 91" y1="2" transform="translate(150.463 127)" fill="none"/>
        <line id="Línea_92" data-name="Línea 92" x1="2" y1="1" transform="translate(138.463 135)" fill="none"/>
        <path id="Trazado_45681" data-name="Trazado 45681" d="M1970.864,2492l2.8,5.67-4.66,2.252" transform="translate(-1831.996 -2356.102)" fill="none"/>
        <line id="Línea_93" data-name="Línea 93" y2="9" transform="translate(155.463 139)" fill="none"/>
        <path id="Trazado_45682" data-name="Trazado 45682" d="M1997.756,2593.641l-12.66-.078,5.048,4.738v5.048L1975,2591" transform="translate(-1837.531 -2447.413)" fill="none"/>
        <path id="Trazado_45683" data-name="Trazado 45683" d="M2248,2625l8.932,16.776-4.194,4.815" transform="translate(-2089.327 -2478.773)" fill="none"/>
        <line id="Línea_94" data-name="Línea 94" x2="9" y2="10" transform="translate(158.463 162)" fill="none"/>
        <path id="Trazado_45684" data-name="Trazado 45684" d="M2030.329,2759.592l-3.34,1.165,1.32,6.058-1.553.388L2012,2754" transform="translate(-1871.657 -2597.754)" fill="none"/>
        <path id="Trazado_45685" data-name="Trazado 45685" d="M2426,2586.164l6.446,2.1V2569" transform="translate(-2253.503 -2427.122)" fill="none"/>
        <path id="Trazado_45686" data-name="Trazado 45686" d="M2279.193,2682l-11.029,6.99v19.65l-1.786-2.8-1.165,4.582-6.213,1.01" transform="translate(-2099.473 -2531.346)" fill="none"/>
        <line id="Línea_95" data-name="Línea 95" x2="12" transform="translate(161.463 172)" fill="none"/>
        <line id="Línea_96" data-name="Línea 96" y2="15" transform="translate(172.463 159)" fill="none"/>
        <path id="Trazado_45687" data-name="Trazado 45687" d="M2069.4,2876.9l1.476,4.815-4.039.311,3.495,8.776-.544.543-6.136-12.737L2052,2871" transform="translate(-1908.55 -2705.667)" fill="none"/>
        <path id="Trazado_45688" data-name="Trazado 45688" d="M2552.835,2622.057V2605.9l-6.835-8.155V2584" transform="translate(-2364.183 -2440.957)" fill="none"/>
        <path id="Trazado_45689" data-name="Trazado 45689" d="M2534,2400.4l7.534-9.32,1.087.854L2551.4,2383v11.805l-7.611,16.31-.078,8.233-1.942,1.165" transform="translate(-2353.115 -2255.568)" fill="none"/>
        <path id="Trazado_45690" data-name="Trazado 45690" d="M2584,2392.194v11.184h1.786l.155-3.107,4.272-5.437v-5.048h2.252l-5.359,16.077,1.631.466,6.99-16.31L2595.65,2380" transform="translate(-2399.231 -2252.801)" fill="none"/>
        <path id="Trazado_45691" data-name="Trazado 45691" d="M2455.6,2017.629l-6.6-10.951,3.34-38.678" transform="translate(-2274.717 -1872.799)" fill="none"/>
        <path id="Trazado_45692" data-name="Trazado 45692" d="M2424,1785.416l7.378-13.359-2.1-14.058h2.951" transform="translate(-2251.658 -1679.11)" fill="none"/>
        <path id="Trazado_45693" data-name="Trazado 45693" d="M2479.019,1745l5.126,19.65L2477,1796.027l3.806,10.485,1.01-1.32-2.33-6.446,7.533-28.5-2.485-9.009,3.184,1.243,3.184,13.126-5.747,20.815,4.194-3.65,5.2-25.708,2.1,7.844-5.048,22.6,8.31-8.077.078-33.4,4.349,11.728-.155,28.892" transform="translate(-2300.542 -1667.119)" fill="none"/>
        <path id="Trazado_45694" data-name="Trazado 45694" d="M2748,1965.959l7.611-12.271,1.631-31.688" transform="translate(-2550.494 -1830.372)" fill="none"/>
        <path id="Trazado_45695" data-name="Trazado 45695" d="M1242.47,1395.765l-17.164-27.183,2.718,1.709.621-1.631-14.6-11.572-7.3,2.175,3.495-2.718-15.766-5.9-18.8,1.709-9.864-4.349h-16l-26.407,16.31,3.34,2.33-3.961-.311-17.708,24.31-.078,25.009.078,11.883" transform="translate(-1035.1 -1300.953)" fill="none"/>
        <path id="Trazado_45696" data-name="Trazado 45696" d="M1456.979,2279.6l-10.64-6.6h-13.825l-5.514,5.67" transform="translate(-1332.092 -2154.111)" fill="none"/>
        <line id="Línea_97" data-name="Línea 97" y1="6" transform="translate(95.463 120)" fill="none"/>
        <line id="Línea_98" data-name="Línea 98" x1="9" y1="7" transform="translate(115.463 116)" fill="none"/>
        <path id="Trazado_45697" data-name="Trazado 45697" d="M1652,2093v11.495l36.969.078" transform="translate(-1539.617 -1988.091)" fill="none"/>
        <line id="Línea_99" data-name="Línea 99" x2="36" transform="translate(112.463 113)" fill="none"/>
        <line id="Línea_100" data-name="Línea 100" y2="4" transform="translate(146.463 113)" fill="none"/>
        <path id="Trazado_45698" data-name="Trazado 45698" d="M1643,2115.272l34.95.077,11.106-4.349" transform="translate(-1531.316 -2004.693)" fill="none"/>
        <path id="Trazado_45699" data-name="Trazado 45699" d="M1644,2103.262l34.251.078,8.543-3.34" transform="translate(-1532.238 -1994.547)" fill="none"/>
        <line id="Línea_101" data-name="Línea 101" y2="3" transform="translate(128.463 111)" fill="none"/>
        <path id="Trazado_45700" data-name="Trazado 45700" d="M2182.078,1797.765,2182,1770.97V1758" transform="translate(-2028.453 -1679.11)" fill="none"/>
        <path id="Trazado_45701" data-name="Trazado 45701" d="M1760.145,1799l-1.01,12.427-12.737,9.941-4.893-3.262-4.5,5.281" transform="translate(-1618.015 -1716.925)" fill="none"/>
        <path id="Trazado_45702" data-name="Trazado 45702" d="M1795,1546.018l6.524-7.689.7-12.038-4.427-3.806,2.485-5.514,6.291,12.66-5.514,15.766,9.553-8.854V1523.8l-5.747-6.369,4.66-13.436,1.165,13.825,5.126,7.378,6.058,2.1,5.2,6.912" transform="translate(-1671.51 -1444.837)" fill="none"/>
        <path id="Trazado_45703" data-name="Trazado 45703" d="M2034,1811l6.99,1.01,6.835,8.466" transform="translate(-1891.948 -1727.993)" fill="none"/>
        <path id="Trazado_45704" data-name="Trazado 45704" d="M1916.5,1785.359l-.544-5.359,1.942,2.485.078,8-4.971,4.582Z" transform="translate(-1780.346 -1699.401)" fill="none"/>
        <path id="Trazado_45705" data-name="Trazado 45705" d="M1894.718,1542.8l1.942-1.01-4.66-9.165,1.864-9.631,4.582,5.825" transform="translate(-1760.977 -1462.361)" fill="none"/>
        <path id="Trazado_45706" data-name="Trazado 45706" d="M1776.893,1495.688l-5.825-10.951-1.864,2.8-1.786-2.485,4.194-5.98-5.592-7.068-1.165,1.165,2.8,3.495-3.65,6.446,6.912,8.466" transform="translate(-1642.918 -1415.322)" fill="none"/>
        <path id="Trazado_45707" data-name="Trazado 45707" d="M1704,1766.727l8-11.417v-9.242l-4.116-7.068,2.252.466,3.806,5.825v10.8l-7.922,11.339" transform="translate(-1587.578 -1661.585)" fill="none"/>
        <path id="Trazado_45708" data-name="Trazado 45708" d="M1611.417,1651.2l9.631-12.427.777-6.6-4.349-9.475,2.485-5.2-1.01-3.495-5.592,10.8,4.272,15.223L1608,1652.367" transform="translate(-1499.034 -1546.293)" fill="none"/>
        <path id="Trazado_45709" data-name="Trazado 45709" d="M1628.641,1600.717l2.485-2.718v-8.7l-3.34-9.475,5.67-9.941-.078-3.883L1626,1579.669v7.689l2.485,2.563.078,11.106" transform="translate(-1515.636 -1502.021)" fill="none"/>
        <path id="Trazado_45710" data-name="Trazado 45710" d="M1563,1832l4.5,11.883.078,6.524" transform="translate(-1457.529 -1747.362)" fill="none"/>
        <line id="Línea_102" data-name="Línea 102" x1="1" y2="18" transform="translate(87.463 84)" fill="none"/>
        <path id="Trazado_45711" data-name="Trazado 45711" d="M1393,1602.65l10.951-7.611-.078-12.038,1.087.078,3.65,6.446" transform="translate(-1300.732 -1517.701)" fill="none"/>
        <path id="Trazado_45712" data-name="Trazado 45712" d="M1966.592,1440.281l10.64,9.631-.078-1.864-7.922-8.543.078-10.019v-4.039l-8-6.446-.311.544,5.514,7.844Z" transform="translate(-1824.618 -1366.438)" fill="none"/>
        <path id="Trazado_45713" data-name="Trazado 45713" d="M2105,1697l12.97,14.058.078,14.058,4.971,6.524,3.106-3.107" transform="translate(-1957.434 -1622.847)" fill="none"/>
        <line id="Línea_103" data-name="Línea 103" y1="2" x2="1" transform="translate(166.463 99)" fill="none"/>
        <path id="Trazado_45714" data-name="Trazado 45714" d="M2364,1979l1.553,18.1,7.146,6.213" transform="translate(-2196.318 -1882.945)" fill="none"/>
        <path id="Trazado_45715" data-name="Trazado 45715" d="M2398,2101.135l2.485,2.408-.078-8.543" transform="translate(-2227.677 -1989.936)" fill="none"/>
        <path id="Trazado_45716" data-name="Trazado 45716" d="M2367.106,1893.077l-.854-11.805,2.718-12.271-4.971,8.7" transform="translate(-2196.318 -1781.489)" fill="none"/>
        <path id="Trazado_45717" data-name="Trazado 45717" d="M2152.077,1562.843l2.1-19.65-8.854-11.65-3.573-.932,9.941,13.514-.078,11.883-2.951,5.2.078-14.135L2136,1534.262l.078-11.262" transform="translate(-1986.026 -1462.361)" fill="none"/>
        <path id="Trazado_45718" data-name="Trazado 45718" d="M2104.34,1522.349l-3.262-4.349-.078,13.9" transform="translate(-1953.744 -1457.749)" fill="none"/>
        <line id="Línea_104" data-name="Línea 104" x1="1" y1="2" transform="translate(146.463 73)" fill="none"/>
        <path id="Trazado_45719" data-name="Trazado 45719" d="M2255.825,1570.6,2242,1564l11.417,16v9.087l2.718-7.456-4.815-9.32,5.67,5.514.078,15.3,4.427-10.33Z" transform="translate(-2083.793 -1500.177)" fill="none"/>
        <path id="Trazado_45720" data-name="Trazado 45720" d="M2518.427,1660.824,2506,1631l7.456,8,6.912,15.533Z" transform="translate(-2327.29 -1561.973)" fill="none"/>
        <line id="Línea_105" data-name="Línea 105" x2="3" y2="8" transform="translate(180.463 109)" fill="none"/>
        <line id="Línea_106" data-name="Línea 106" y1="2" x2="4" transform="translate(188.463 114)" fill="none"/>
        <line id="Línea_107" data-name="Línea 107" y1="3" x2="6" transform="translate(194.463 111)" fill="none"/>
        <path id="Trazado_45721" data-name="Trazado 45721" d="M1813,2257.466h8.31l14.058-8.466,23.222.078" transform="translate(-1688.112 -2131.975)" fill="none"/>
        <path id="Trazado_45722" data-name="Trazado 45722" d="M2289,2247l7.378,8.466v11.262" transform="translate(-2127.143 -2130.131)" fill="none"/>
        <line id="Línea_108" data-name="Línea 108" x2="11" y2="2" transform="translate(160.463 126)" fill="none"/>
        <path id="Trazado_45723" data-name="Trazado 45723" d="M1943.271,2342.33l-.7-2.33L1915,2342.175" transform="translate(-1782.19 -2215.908)" fill="none"/>
        <line id="Línea_109" data-name="Línea 109" y2="40" transform="translate(133.463 126)" fill="none"/>
        <line id="Línea_110" data-name="Línea 110" x1="1" transform="translate(133.463 134)" fill="none"/>
        <path id="Trazado_45724" data-name="Trazado 45724" d="M1839,2447l2.563,7.534-2.175,26.873" transform="translate(-1712.093 -2314.597)" fill="none"/>
        <line id="Línea_111" data-name="Línea 111" x2="9" transform="translate(121.463 166)" fill="none"/>
        <line id="Línea_112" data-name="Línea 112" y1="2" x2="2" transform="translate(119.463 166)" fill="none"/>
        <line id="Línea_113" data-name="Línea 113" x2="7" transform="translate(133.463 166)" fill="none"/>
        <path id="Trazado_45725" data-name="Trazado 45725" d="M1857.708,2882l-4.893,3.184-4.815.078" transform="translate(-1720.394 -2715.812)" fill="none"/>
        <line id="Línea_114" data-name="Línea 114" x2="5" y2="4" transform="translate(123.463 166)" fill="none"/>
        <line id="Línea_115" data-name="Línea 115" y2="5" transform="translate(139.463 166)" fill="none"/>
        <line id="Línea_116" data-name="Línea 116" y2="3" transform="translate(137.463 124)" fill="none"/>
        <path id="Trazado_45726" data-name="Trazado 45726" d="M1969,2293.66l9.009-4.66h23.145" transform="translate(-1831.996 -2168.868)" fill="none"/>
        <line id="Línea_117" data-name="Línea 117" x2="7" transform="translate(155.463 141)" fill="none"/>
        <line id="Línea_118" data-name="Línea 118" y1="7" x2="4" transform="translate(160.463 134)" fill="none"/>
        <line id="Línea_119" data-name="Línea 119" x1="3" y2="8" transform="translate(124.463 170)" fill="none"/>
        <path id="Trazado_45727" data-name="Trazado 45727" d="M1852.311,2942l-.311,4.427h.777l.7-1.631.777.078v2.252l1.087-.078.7-1.631,1.165.078.466,1.243h1.165l-1.786-4.583" transform="translate(-1724.083 -2771.152)" fill="none"/>
        <line id="Línea_120" data-name="Línea 120" x2="3" y2="6" transform="translate(134.463 171)" fill="none"/>
        <line id="Línea_121" data-name="Línea 121" x2="19" transform="translate(123.463 177)" fill="none"/>
        <path id="Trazado_45728" data-name="Trazado 45728" d="M1997.1,2966.349,1995,2962h1.476l3.029,4.272h2.718" transform="translate(-1855.977 -2789.599)" fill="none"/>
        <path id="Trazado_45729" data-name="Trazado 45729" d="M2069.01,2960.738l-1.01-3.573h.854l6.058,8.776.466-.388-5.514-9.32.544-.233,5.747,8,.621-.466-2.175-5.126.466-.311,6.757,13.048-2.563,13.281h-1.476l.777-6.679-4.582-1.243" transform="translate(-1923.307 -2784.065)" fill="none"/>
        <path id="Trazado_45730" data-name="Trazado 45730" d="M1698.542,3060.514v-15.456l-8-5.9-11.883-.156-3.34,1.786-2.951-1.631H1658" transform="translate(-1545.151 -2860.619)" fill="none"/>
        <path id="Trazado_45731" data-name="Trazado 45731" d="M1602.747,3035l-3.806,4.349v-2.408l-1.786,2.175-.155,10.33,2.874-.155" transform="translate(-1488.888 -2856.929)" fill="none"/>
        <path id="Trazado_45732" data-name="Trazado 45732" d="M1627,3075.99l.078-8.932,4.582-5.98,11.417-.078,4.039,2.408,4.194-2.252h10.174" transform="translate(-1516.558 -2880.91)" fill="none"/>
        <path id="Trazado_45733" data-name="Trazado 45733" d="M2055,3063l7.068,4.971.156,13.747" transform="translate(-1911.317 -2882.755)" fill="none"/>
        <line id="Línea_122" data-name="Línea 122" x2="5" y2="6" transform="translate(148.463 194)" fill="none"/>
        <path id="Trazado_45734" data-name="Trazado 45734" d="M1979.5,3181.815l-1.709,1.553,3.417,6.213-.777.777-4.116-6.6-1.942,1.243,3.5,8.388-6.369-9.941-1.631.466,1.243,4.971-4.116-6.136,2.019-5.747" transform="translate(-1830.152 -2987.901)" fill="none"/>
        <path id="Trazado_45735" data-name="Trazado 45735" d="M1969.99,3085.747l-6.99-9.009,8.155-4.738" transform="translate(-1826.462 -2891.056)" fill="none"/>
        <path id="Trazado_45736" data-name="Trazado 45736" d="M1708.436,3067.515l-11.883.155L1687,3062" transform="translate(-1571.898 -2881.832)" fill="none"/>
        <path id="Trazado_45737" data-name="Trazado 45737" d="M1824,3061v3.728h10.019" transform="translate(-1698.258 -2880.91)" fill="none"/>
        <line id="Línea_123" data-name="Línea 123" y2="5" transform="translate(134.463 180)" fill="none"/>
        <path id="Trazado_45738" data-name="Trazado 45738" d="M1807.078,3133l-.078,2.175,15.3.078" transform="translate(-1682.578 -2947.318)" fill="none"/>
        <path id="Trazado_45739" data-name="Trazado 45739" d="M1571.805,2955.32l-5.9,6.679-3.573.078.078-3.728-1.165-.078-3.417,11.339-4.738-7.534-1.087-12.97,5.514-9.32,1.32.155-1.864,4.349h1.01l4.971-6.291.854.156-3.262,6.135,1.243.078,2.641-3.417-.932,3.417h1.32l1.942-3.185,1.01.078-1.165,2.874h2.408l1.942-2.641,1.087.388-1.243,2.33" transform="translate(-1447.383 -2767.463)" fill="none"/>
        <line id="Línea_124" data-name="Línea 124" x2="5" y2="1" transform="translate(110.463 194)" fill="none"/>
        <path id="Trazado_45740" data-name="Trazado 45740" d="M1668.311,3241.466l-.311,7.456,1.165.077,1.553-5.126h3.029l2.874-2.874,1.786.078-2.874,7.146h1.087l4.971-6.99,1.01.078,2.33,5.281,1.01-5.281h2.563l2.951,4.271,1.476-1.242" transform="translate(-1554.374 -3046.93)" fill="none"/>
        <path id="Trazado_45741" data-name="Trazado 45741" d="M1795,3293.844l3.184-7.844,3.883,5.359-.932,4.582-2.1-6.213-1.631,3.262,3.107,5.359-.932,1.786Z" transform="translate(-1671.51 -3088.435)" fill="none"/>
        <path id="Trazado_45742" data-name="Trazado 45742" d="M393.278,3135l-32.309,7.068-10.485,11.417-9.941,1.087v9.941l-1.476-2.175-11.106-3.184-9.941,3.728L316,3169.173h6.757l3.34,5.281,10.718,2.02" transform="translate(-307.379 -2949.163)" fill="none"/>
        <path id="Trazado_45743" data-name="Trazado 45743" d="M521.582,3560,509,3571.029v14.757" transform="translate(-485.389 -3341.155)" fill="none"/>
        <path id="Trazado_45744" data-name="Trazado 45744" d="M509,3877l6.757,6.6h10.8" transform="translate(-485.389 -3633.534)" fill="none"/>
        <path id="Trazado_45745" data-name="Trazado 45745" d="M724,3592.843l12.194-13.592,1.32-11.106L731.378,3561" transform="translate(-683.691 -3342.077)" fill="none"/>
        <line id="Línea_125" data-name="Línea 125" x2="12" transform="translate(36.463 219)" fill="none"/>
        <path id="Trazado_45746" data-name="Trazado 45746" d="M820,3363.621,824.039,3347l5.048.156-6.679,22.368" transform="translate(-772.235 -3144.698)" fill="none"/>
        <path id="Trazado_45747" data-name="Trazado 45747" d="M572.989,3592l-12.194.233-10.8,9.631v12.66l6.058,4.039H567.4" transform="translate(-523.205 -3370.669)" fill="none"/>
        <path id="Trazado_45748" data-name="Trazado 45748" d="M629.039,3662l-3.961,2.8-.078,4.815h7.3l.078-5.437Z" transform="translate(-592.38 -3435.232)" fill="none"/>
        <path id="Trazado_45749" data-name="Trazado 45749" d="M963,3790l5.2,1.4,6.136,17.087" transform="translate(-904.129 -3553.291)" fill="none"/>
        <path id="Trazado_45750" data-name="Trazado 45750" d="M1045,3311.765l40.62,28.969,67.337-7.767,18.873-44.891-3.184-25.475-13.436-6.6" transform="translate(-979.76 -3060.765)" fill="none"/>
        <path id="Trazado_45751" data-name="Trazado 45751" d="M1375.326,3307l9.708,5.67,2.951,14.6-10.718,38.367-50.794,5.825-2.33-4.194-30.756,1.864L1285,3358.571" transform="translate(-1201.12 -3107.804)" fill="none"/>
        <path id="Trazado_45752" data-name="Trazado 45752" d="M1292,3484.629l.155-29.125V3443" transform="translate(-1207.577 -3233.241)" fill="none"/>
        <line id="Línea_126" data-name="Línea 126" y1="9" x2="13" transform="translate(84.463 202)" fill="none"/>
        <path id="Trazado_45753" data-name="Trazado 45753" d="M1152.834,3299.99l-4.272-6.99L1130,3302.941l1.4,14.291,6.757-3.806.388,6.291-6.757.621.233,2.485,3.029,1.32,1.4,25.009,4.194-3.184.311,4.427-2.485,3.961,31.067,21.824" transform="translate(-1058.159 -3094.891)" fill="none"/>
        <path id="Trazado_45754" data-name="Trazado 45754" d="M1605.029,4082.941l3.728-.233-6.757-10.8,3.883-1.087-1.243-5.825" transform="translate(-1493.5 -3806.933)" fill="none"/>
        <line id="Línea_127" data-name="Línea 127" x2="11" y2="16" transform="translate(101.463 260)" fill="none"/>
        <path id="Trazado_45755" data-name="Trazado 45755" d="M1929.311,4166.815l-.311-12.194,6.058-.622" transform="translate(-1795.103 -3889.021)" fill="none"/>
        <line id="Línea_128" data-name="Línea 128" y2="15" transform="translate(138.463 264)" fill="none"/>
        <path id="Trazado_45756" data-name="Trazado 45756" d="M2114,4135.437v-12.971l9.553-.466" transform="translate(-1965.735 -3859.506)" fill="none"/>
        <line id="Línea_129" data-name="Línea 129" y2="15" transform="translate(154.463 262)" fill="none"/>
        <line id="Línea_130" data-name="Línea 130" x1="1" y2="17" transform="translate(166.463 258)" fill="none"/>
        <path id="Trazado_45757" data-name="Trazado 45757" d="M1661,4327.078l19.8,8.466,24.232-1.942,15.844-6.6" transform="translate(-1547.918 -4048.584)" fill="none"/>
        <path id="Trazado_45758" data-name="Trazado 45758" d="M2414,3324.132l25.475-52.658-.932-22.446-4.5-6.446-14.99-4.582" transform="translate(-2242.435 -3044.163)" fill="none"/>
        <line id="Línea_131" data-name="Línea 131" x1="18" y1="5" transform="translate(179.463 191)" fill="none"/>
        <line id="Línea_132" data-name="Línea 132" x2="14" y2="22" transform="translate(192.463 194)" fill="none"/>
        <path id="Trazado_45759" data-name="Trazado 45759" d="M2748.9,3216l1.709,54.833,4.815,15.533,1.01-.155-2.563-12.66,3.34-.388,7.767,62.6-4.815.932-5.747-46.211-1.708,22.756L2743,3338.713l5.281.155,2.175,8.077h5.281l6.679-4.893h7.689l26.873-72.541-.311,48.075,12.893.156" transform="translate(-2545.883 -3023.872)" fill="none"/>
        <line id="Línea_133" data-name="Línea 133" y1="6" x2="6" transform="translate(256.463 288)" fill="none"/>
        <path id="Trazado_45760" data-name="Trazado 45760" d="M2654.356,3256.054l3.961-29.28-9.864-28.193,2.1-6.291-.078-9.475-16.31-4.194v-9.631H2610.94l-11.495-9.242L2577,3154" transform="translate(-2392.775 -2966.687)" fill="none"/>
        <path id="Trazado_45761" data-name="Trazado 45761" d="M2956,3400l14.679.156,11.728,42.561-11.572,48.619h-2.563l.466-32.7,13.048-4.815" transform="translate(-2742.34 -3193.581)" fill="none"/>
        <line id="Línea_134" data-name="Línea 134" y1="2" x2="7" transform="translate(232.463 257)" fill="none"/>
        <line id="Línea_135" data-name="Línea 135" x1="5" y1="32" transform="translate(228.463 228)" fill="none"/>
        <line id="Línea_136" data-name="Línea 136" x1="30" y2="60" transform="translate(212.463 206)" fill="none"/>
        <path id="Trazado_45762" data-name="Trazado 45762" d="M3022,3971l4.583,29.125h5.281" transform="translate(-2803.214 -3720.234)" fill="none"/>
        <path id="Trazado_45763" data-name="Trazado 45763" d="M3199.2,3454.5l5.747,40.076L3194,3531.307l14.213-36.271,2.408-31.222L3198.427,3451" transform="translate(-2961.855 -3240.62)" fill="none"/>
        <line id="Línea_137" data-name="Línea 137" x1="12" y2="27" transform="translate(232.463 278)" fill="none"/>
        <line id="Línea_138" data-name="Línea 138" x2="11" transform="translate(233.463 304)" fill="none"/>
        <line id="Línea_139" data-name="Línea 139" x1="4" y2="30" transform="translate(240.463 278)" fill="none"/>
        <line id="Línea_140" data-name="Línea 140" y1="30" transform="translate(204.463 293)" fill="none"/>
        <line id="Línea_141" data-name="Línea 141" x1="2" y2="27" transform="translate(210.463 296)" fill="none"/>
        <path id="Trazado_45764" data-name="Trazado 45764" d="M2383,3799.928l14.213,4.194,22.446-68.58-6.291-14.291V3703l-27.96,50.017" transform="translate(-2213.842 -3473.048)" fill="none"/>
        <path id="Trazado_45765" data-name="Trazado 45765" d="M805.586,4027.077l5.359,1.709-4.5,8.854,1.942,1.01,12.427-11.106,4.5,5.592-50.716,53.59-19.883,7.922-24.7-7.145-51.726-51.027-2.563,7.844,12.737,25.863h-12.66l.388,5.281-11.029-6.291L664,4011h2.252l1.087,50.561,4.272,9.242,3.029,1.165" transform="translate(-628.351 -3757.127)" fill="none"/>
        <path id="Trazado_45766" data-name="Trazado 45766" d="M746.738,3974.929,742,3913.417l3.728-1.942,19.727,23.3,1.01-1.476-18.8-26.406,2.874-2.8,44.115,59.8,1.243-1.165-41.086-59.725,1.4-1.01,8.7,8.7,1.709-2.33" transform="translate(-700.293 -3656.593)" fill="none"/>
        <path id="Trazado_45767" data-name="Trazado 45767" d="M1103,4085l45.59,30.912h40.853" transform="translate(-1033.255 -3825.38)" fill="none"/>
        <path id="Trazado_45768" data-name="Trazado 45768" d="M2159,4365.184l13.437-8.388-2.1-2.8" transform="translate(-2007.24 -4073.487)" fill="none"/>
        <path id="Trazado_45769" data-name="Trazado 45769" d="M1080,4100l49.085,38.523h25.242l-11.805,10.019" transform="translate(-1012.042 -3839.215)" fill="none"/>
        <line id="Línea_142" data-name="Línea 142" x2="23" y2="3" transform="translate(111.463 306)" fill="none"/>
        <line id="Línea_143" data-name="Línea 143" x1="40" y1="32" transform="translate(74.463 275)" fill="none"/>
        <path id="Trazado_45770" data-name="Trazado 45770" d="M1323,4520l31.766,25.4,15.456-.078" transform="translate(-1236.169 -4226.595)" fill="none"/>
        <line id="Línea_144" data-name="Línea 144" x2="34" transform="translate(94.463 325)" fill="none"/>
        <line id="Línea_145" data-name="Línea 145" y1="47" x2="51" transform="translate(119.463 279)" fill="none"/>
        <path id="Trazado_45771" data-name="Trazado 45771" d="M2508.417,4483,2505,4508.785l5.98-.232" transform="translate(-2326.367 -4192.468)" fill="none"/>
        <path id="Trazado_45772" data-name="Trazado 45772" d="M2330.64,4557,2312,4576.805l13.437,2.951" transform="translate(-2148.357 -4260.721)" fill="none"/>
        <path id="Trazado_45773" data-name="Trazado 45773" d="M2292.854,4604l-3.573,21.746-9.553,11.806-3.728-6.213" transform="translate(-2115.153 -4304.071)" fill="none"/>
        <line id="Línea_146" data-name="Línea 146" x2="15" transform="translate(147.463 328)" fill="none"/>
        <line id="Línea_147" data-name="Línea 147" y1="52" x2="13" transform="translate(179.463 280)" fill="none"/>
        <path id="Trazado_45774" data-name="Trazado 45774" d="M952.931,4531.62,923.573,4499,920,4503.815l13.592,23.766" transform="translate(-864.468 -4207.226)" fill="none"/>
        <line id="Línea_148" data-name="Línea 148" x2="7" transform="translate(69.463 320)" fill="none"/>
        <path id="Trazado_45775" data-name="Trazado 45775" d="M1182,4856l1.864,3.573,10.563-2.641" transform="translate(-1106.12 -4536.499)" fill="none"/>
        <path id="Trazado_45776" data-name="Trazado 45776" d="M438.388,3913.776v36.892h-9.864L422,3943.057,427.747,3905l7.068,6.6-3.34,13.825,1.709.777,4.349-13.747" transform="translate(-405.146 -3659.359)" fill="none"/>
        <line id="Línea_149" data-name="Línea 149" x1="3" transform="translate(30.463 254)" fill="none"/>
        <path id="Trazado_45777" data-name="Trazado 45777" d="M327.6,3954.913,313,3968.271l2.485-13.592-2.33-2.563,7.767-4.116,6.912.311" transform="translate(-304.612 -3699.02)" fill="none"/>
        <path id="Trazado_45778" data-name="Trazado 45778" d="M345.747,3839.185l-6.291.932L332,3845.708l.932-5.126,5.2-3.728L346.6,3836" transform="translate(-322.136 -3595.719)" fill="none"/>
        <path id="Trazado_45779" data-name="Trazado 45779" d="M322.786,3790.776,321,3789.145l3.961-4.5L336.766,3782" transform="translate(-311.991 -3545.913)" fill="none"/>
        <path id="Trazado_45780" data-name="Trazado 45780" d="M339.99,3715.194l-8.388-1.01-6.6,2.8v-1.787l9.32-4.194,6.213,2.33" transform="translate(-315.68 -3480.427)" fill="none"/>
        <path id="Trazado_45781" data-name="Trazado 45781" d="M302.728,3639.563v-5.9l-3.728.078v-2.951l8.932-1.787,1.476,2.175,9.631,2.175" transform="translate(-291.699 -3404.795)" fill="none"/>
        <path id="Trazado_45782" data-name="Trazado 45782" d="M464.242,3565.146,455,3561.107l2.175-3.107,10.64,5.359" transform="translate(-435.583 -3339.31)" fill="none"/>
        <line id="Línea_150" data-name="Línea 150" x1="15" y2="9" transform="translate(155.463 251)" fill="none"/>
        <line id="Línea_151" data-name="Línea 151" x2="27" transform="translate(143.463 249)" fill="none"/>
        <line id="Línea_152" data-name="Línea 152" y2="6" transform="translate(169.463 248)" fill="none"/>
        <path id="Trazado_45783" data-name="Trazado 45783" d="M2291,3378.017l20.659-34.251-2.33-15.766" transform="translate(-2128.988 -3127.173)" fill="none"/>
        <path id="Trazado_45784" data-name="Trazado 45784" d="M2276.7,3323l-16.7,24.465,13.281,10.641" transform="translate(-2100.395 -3122.562)" fill="none"/>
        <line id="Línea_153" data-name="Línea 153" x2="11" transform="translate(119.463 245)" fill="none"/>
        <line id="Línea_154" data-name="Línea 154" x1="18" y1="36" transform="translate(115.463 219)" fill="none"/>
        <path id="Trazado_45785" data-name="Trazado 45785" d="M1944.4,3836.883l1.942-11.883-8.077.078L1935,3839.213" transform="translate(-1800.637 -3585.573)" fill="none"/>
        <line id="Línea_155" data-name="Línea 155" x2="4" transform="translate(132.463 254)" fill="none"/>
        <path id="Trazado_45786" data-name="Trazado 45786" d="M1605,2421.874h2.874V2419H1605v2.874Z" transform="translate(-1496.267 -2288.772)" fill="#442961"/>
        <line id="Línea_156" data-name="Línea 156" x1="1" y2="1" transform="translate(114.463 136)" fill="none"/>
        <path id="Trazado_45787" data-name="Trazado 45787" d="M1533.436,2399h2.408l2.408-1.553v-2.1l-5.514-4.039-.466-.311H1524.5l-4.5,3.5v1.4l.466-.388,3.029-2.33v1.631h3.107v-1.631h2.874v1.553h3.417l.078-1.32,4.194,2.951-3.417,2.486Z" transform="translate(-1417.869 -2262.947)" fill="#5a3482"/>
        <path id="Trazado_45788" data-name="Trazado 45788" d="M1571.912,2442.34l2.485-2.019V2439h-3.417v1.321h-2.874v-1.243H1565v1.087l2.019,2.252Z" transform="translate(-1459.374 -2307.219)" fill="#2c65a5"/>
        <path id="Trazado_45789" data-name="Trazado 45789" d="M1438.427,2313.029v-3.806l4.66-4.194,11.262.7,5.98,5.747v1.864h3.107v-6.99l-7.068-4.349v2.02l-14.834-.932-4.66,3.029H1434v12.97l2.641-2.1-.078-2.874Z" transform="translate(-1338.548 -2180.859)" fill="#2269b5"/>
        <path id="Trazado_45790" data-name="Trazado 45790" d="M1529.029,2419l-3.029,2.33,3.573,3.573h4.893l4.5-.078.311-.155,3.417-2.486-4.194-2.951-.078,1.321v1.32l-2.485,2.019-4.893.078-2.019-2.252V2419Z" transform="translate(-1423.403 -2288.772)" fill="#eadcf9"/>
        <path id="Trazado_45791" data-name="Trazado 45791" d="M1512.971,2452.573,1509.4,2449l-.466.388-.932.777.621.621,3.65,3.728,5.592.078v-2.019Z" transform="translate(-1406.801 -2316.442)" fill="#f9c387"/>
        <path id="Trazado_45792" data-name="Trazado 45792" d="M1522.835,2469.679v4.893h2.1l8.7-3.262,2.33-5.2V2463l-.078.078-1.32.777-2.408,1.553h-2.408l-4.5.078v2.019l-5.592-.078L1516,2463.7v2.252l3.65,3.728Z" transform="translate(-1414.179 -2329.354)" fill="#d86a19"/>
        <path id="Trazado_45793" data-name="Trazado 45793" d="M1520,2371.437l4.5-3.495h7.767l.466.311,5.514,4.039v2.1l1.32-.777.078-.078v-1.165L1532.5,2366h-8.854l-3.573,2.718Z" transform="translate(-1417.869 -2239.888)" fill="#fa755c"/>
        <line id="Línea_157" data-name="Línea 157" x1="1" transform="translate(94.463 125)" fill="none"/>
        <path id="Trazado_45794" data-name="Trazado 45794" d="M1434,2278.048v1.32h2.874l4.66-3.029,14.834.932v-2.019L1452.8,2273h-13.825Z" transform="translate(-1338.548 -2154.111)" fill="#af7ae8"/>
        <path id="Trazado_45795" data-name="Trazado 45795" d="M1362.98,1874.066l4.971-5.048h13.825l3.573,2.252,7.068,4.349v-2.951l-9.32-6.136h-3.184v-11.495h-4.893l2.563-2.8-.078-5.592-4.427-11.65-1.32,1.087.078,11.495-4.815,6.369-.078-12.427-4.971,6.6v24l-4.427,8.31-.544,21.048h19.184v-6.136h-6.835v-10.873l-.621-.621-3.107,2.408-2.641,2.1v-14.291Z" transform="translate(-1267.528 -1750.129)" fill="#facec4"/>
        <path id="Trazado_45796" data-name="Trazado 45796" d="M1519.65,2504.728,1516,2501v8.621h6.835v-4.893Z" transform="translate(-1414.179 -2364.403)" fill="#fb9f8e"/>
        <path id="Trazado_45797" data-name="Trazado 45797" d="M1516,2465.952l3.65,3.728h3.184v4.893h2.1l8.7-3.262,2.33-5.2V2463l-.078.078-1.32.777-2.408,1.553h-2.408l-4.5.078v2.019l-5.592-.078L1516,2463.7Z" transform="translate(-1414.179 -2329.354)" fill="#d86a19"/>
        <path id="Trazado_45798" data-name="Trazado 45798" d="M1499.106,2573.262h-2.1v10.407L1488,2595.785l4.039,3.029,2.019,1.553,6.369-14.058L1507.8,2570Z" transform="translate(-1388.354 -2428.044)" fill="#fae343"/>
        <path id="Trazado_45799" data-name="Trazado 45799" d="M1373.417,2691h-19.184l-.233,9.864,1.4-6.6,5.281,5.126-3.184,10.1,4.272-4.039,2.641,1.942,9.009-12.116Z" transform="translate(-1264.761 -2539.647)" fill="#fa765d"/>
        <line id="Línea_158" data-name="Línea 158" x2="4" transform="translate(87.463 146)" fill="none"/>
        <path id="Trazado_45800" data-name="Trazado 45800" d="M1325,2435.456l2.641-.078.388-15.378-2.951,5.514v1.709Z" transform="translate(-1238.014 -2289.694)" fill="#fa765d"/>
        <path id="Trazado_45801" data-name="Trazado 45801" d="M1357.544,1880.435l-.388,15.378-.155,5.67h19.184v-6.136h-6.835v-10.873l-.621-.621-3.107,2.408-2.641,2.1v-14.291l4.971-5.048h13.825l3.573,2.252,7.068,4.349v-2.951l-9.32-6.136h-3.184v-11.495h-4.893l2.563-2.8-.078-5.592-4.427-11.65-1.32,1.087.078,11.495-4.815,6.369-.078-12.427-4.971,6.6v24Z" transform="translate(-1267.528 -1750.129)" fill="#facec4"/>
        <path id="Trazado_45802" data-name="Trazado 45802" d="M1526.252,2780l-6.369,14.058-2.019-1.553L1516,2796.31l2.874,2.1,4.893-7.378,7.145-4.349,2.563-6.6Z" transform="translate(-1414.179 -2621.734)" fill="#bd6177"/>
        <path id="Trazado_45803" data-name="Trazado 45803" d="M1648,2473.785l7.223.078,5.592-14.679.078-7.223-.078-3.961h-3.107v4.272l-2.33,5.2Z" transform="translate(-1535.927 -2315.52)" fill="#fb9f8f"/>
        <path id="Trazado_45804" data-name="Trazado 45804" d="M1716.155,2458.262l-5.592,14.679-2.563,6.6,2.951,4.272h1.631l-1.165-1.476,1.476-1.4h2.485l3.184-.078,2.175-26.329-2.563-7.534-2.019.078.078,3.961Z" transform="translate(-1591.267 -2314.597)" fill="#91cde5"/>
        <path id="Trazado_45805" data-name="Trazado 45805" d="M1921,2472l.078,32.154h6.058l-.078,3.184,1.4-.621,2.718-3.728-2.252-8.31-3.728-13.436-2.563-9.242Z" transform="translate(-1787.724 -2337.656)" fill="#91cde5"/>
        <path id="Trazado_45806" data-name="Trazado 45806" d="M1812.242,2399.008l-.078-32.154-.078-8.077V2358h-8.31v6.99l2.02-.078,2.563,7.533-2.175,26.329-3.184.078,3.806,3.107,4.5-.078,4.349-2.874Z" transform="translate(-1678.889 -2232.51)" fill="#fa755c"/>
        <path id="Trazado_45807" data-name="Trazado 45807" d="M1768.621,2884.156l-4.349,2.874-4.5.078-3.806-3.107h-2.485l-1.476,1.4,1.165,1.476,1.553,2.019h12.97l3.495-1.553.078-3.184Z" transform="translate(-1631.85 -2717.657)" fill="#442961"/>
        <path id="Trazado_45808" data-name="Trazado 45808" d="M2037.135,2769.98l1.32,6.058-1.553.388L2023,2764l2.252,8.31,11.65,7.611,6.136,12.737.544-.543-2.019-5.048-1.476-3.728,4.039-.311-1.476-4.815h6.99l-4.039-3.883-5.514-5.437Z" transform="translate(-1881.802 -2606.977)" fill="#bd6177"/>
        <path id="Trazado_45809" data-name="Trazado 45809" d="M2377,2695.446v13.592h3.884l-.078-12.194,6.447,2.1V2689Z" transform="translate(-2208.308 -2537.802)" fill="#58b879"/>
        <path id="Trazado_45810" data-name="Trazado 45810" d="M2252.553,2947h-6.99l1.476,4.815-4.039.311,1.476,3.728,5.98-1.01,1.165-4.583,1.786,2.8V2947Z" transform="translate(-2084.716 -2775.764)" fill="#58b879"/>
        <line id="Línea_159" data-name="Línea 159" y1="2" transform="translate(179.463 140)" fill="none"/>
        <path id="Trazado_45811" data-name="Trazado 45811" d="M2231.3,2473.611l-4.582-7.611h-10.33l-3.185,6.912H2208v5.437h3.106l8.932,16.776-3.806,4.349,4.039,3.883h.854v-13.592l10.252-6.446V2474Z" transform="translate(-2052.434 -2332.122)" fill="#fea768"/>
        <path id="Trazado_45812" data-name="Trazado 45812" d="M2005.135,2610.417l-8.932-16.776H1993.1l-8-.078,5.048,4.738v5.048L1975,2591l3.728,13.437,13.9,12.427,1.553-.388-1.32-6.058,2.951-1.087,5.514,5.437Z" transform="translate(-1837.531 -2447.413)" fill="#fbd8d1"/>
        <path id="Trazado_45813" data-name="Trazado 45813" d="M1985.1,2502.252l8,.078v-6.679l-9.864.078-4.815-3.728H1976.4l2.8,5.67-4.194,2.019,15.145,12.349v-5.048Z" transform="translate(-1837.531 -2356.102)" fill="#d86a1a"/>
        <path id="Trazado_45814" data-name="Trazado 45814" d="M2023.815,2481.893l9.864-.078,3.107-3.184h-13.2l-3.417-1.631-1.165,1.165Z" transform="translate(-1878.113 -2342.267)" fill="#71bd8b"/>
        <path id="Trazado_45815" data-name="Trazado 45815" d="M2154.844,2391.932l-3.106,3.184v1.242h5.2l3.184-6.912-8.543-6.446-4.583.466.078,1.4,3.728-.233,6.757,4.66Z" transform="translate(-1996.172 -2255.568)" fill="#b2def0"/>
        <path id="Trazado_45816" data-name="Trazado 45816" d="M1942.679,2341.4l10.8,8.388h2.563v-6.446l-8.155-1.01-.7-2.33-23.378,1.864-3.806.311.078,8.077h1.631l3.806-7.145Z" transform="translate(-1786.802 -2215.908)" fill="#a74960"/>
        <path id="Trazado_45817" data-name="Trazado 45817" d="M1950.155,2364.446l-.932-.932,2.33-2.485,6.369-.621,4.582-.466,8.543,6.446h2.718l-10.8-8.388-17.164,1.708-3.806,7.146,2.563,9.242,4.194-2.019-2.8-5.67h2.019v-1.786Z" transform="translate(-1807.093 -2232.51)" fill="#2369b4"/>
        <path id="Trazado_45818" data-name="Trazado 45818" d="M2037.107,2438l-3.107,3.029,3.417,1.631h2.1l-1.553-1.476V2438Z" transform="translate(-1891.948 -2306.296)" fill="#cbb3e6"/>
        <path id="Trazado_45819" data-name="Trazado 45819" d="M2026.223,2406.252l4.66.078-.078,1.087h2.951l.078-1.087,3.805,2.33-2.175,2.641h1.32l2.718-2.641-6.757-4.66-3.728.233-5.437.233-2.407,2.408-2.175,2.175v1.787l1.165-1.165,3.107-3.029h.854v.777h2.1Z" transform="translate(-1878.113 -2274.937)" fill="#5a3482"/>
        <path id="Trazado_45820" data-name="Trazado 45820" d="M2116.66,2433.078,2112,2433v1.165l.078,1.631,4.5.078v-1.708Z" transform="translate(-1963.89 -2301.685)" fill="#442961"/>
        <path id="Trazado_45821" data-name="Trazado 45821" d="M2087.175,2449.631,2087.1,2448H2085v2.408l1.553,1.476H2093l1.631-2.019V2448h-1.553v2.874l-5.9-.155Z" transform="translate(-1938.987 -2315.52)" fill="#31659f"/>
        <path id="Trazado_45822" data-name="Trazado 45822" d="M2117.5,2448v1.709l-4.5-.078v1.087l5.9.155V2448Z" transform="translate(-1964.812 -2315.52)" fill="#af7ae8"/>
        <path id="Trazado_45823" data-name="Trazado 45823" d="M2189.631,2436.951l-1.631,2.02h3.34l2.174-2.641-3.805-2.33-.078,1.087Z" transform="translate(-2033.987 -2302.607)" fill="#eadcf9"/>
        <path id="Trazado_45824" data-name="Trazado 45824" d="M2038.34,2390.631l5.437-.233-.078-1.4-6.369.622-2.33,2.485.932.932Z" transform="translate(-1892.87 -2261.102)" fill="#fa755c"/>
        <path id="Trazado_45825" data-name="Trazado 45825" d="M2154.844,2391.932l-3.106,3.184v1.242h5.2l3.184-6.912-8.543-6.446-4.583.466.078,1.4,3.728-.233,6.757,4.66Z" transform="translate(-1996.172 -2255.568)" fill="#b2def0"/>
        <path id="Trazado_45826" data-name="Trazado 45826" d="M2033.679,2481.815l3.107-3.184h-13.2l-3.417-1.631-1.165,1.165,4.815,3.728Z" transform="translate(-1878.113 -2342.267)" fill="#71bd8b"/>
        <path id="Trazado_45827" data-name="Trazado 45827" d="M1942.679,2341.4l10.8,8.388h2.563v-6.446l-8.155-1.01-.7-2.33-23.378,1.864-3.806.311.078,8.077h1.631l3.806-7.145Z" transform="translate(-1786.802 -2215.908)" fill="#a74960"/>
        <path id="Trazado_45828" data-name="Trazado 45828" d="M1969,2294.825l23.378-1.864.7,2.33,8.155,1.01v-2.1l-4.5-5.2h-18.718l-9.009,4.66Z" transform="translate(-1831.996 -2168.868)" fill="#af7ae8"/>
        <path id="Trazado_45829" data-name="Trazado 45829" d="M1932.815,2252.107h18.718l-2.641-3.029-8.466-.078h-6.369L1920,2257.466v.777l3.806-.311v-1.165Z" transform="translate(-1786.802 -2131.975)" fill="#fbd8d1"/>
        <path id="Trazado_45830" data-name="Trazado 45830" d="M1710.63,2149.553l14.058-8.466h6.369l-.078-9.087-6.912,2.718-17.941-.078.078,2.641h17.242v3.262l-30.445-.078,9.32,6.136v2.951Z" transform="translate(-1577.432 -2024.062)" fill="#feae51"/>
        <path id="Trazado_45831" data-name="Trazado 45831" d="M2193.184,1819.532l4.5,5.2v8.543h5.048l1.243-14.291-6.291-5.437-.7-8.31-2.951,2.951-4.971-6.524-.077-14.058L2182,1780v27.339l.078,9.087,8.466.078Z" transform="translate(-2028.453 -1699.401)" fill="#f9e344"/>
        <path id="Trazado_45832" data-name="Trazado 45832" d="M1655.184,2203.184l30.445.078V2200H1652v3.184Z" transform="translate(-1539.617 -2086.781)" fill="#9d5365"/>
        <path id="Trazado_45833" data-name="Trazado 45833" d="M1668.31,2109.738l17.941.078,6.912-2.719V2105l-7.534,2.951-33.63-.078v1.864Z" transform="translate(-1539.617 -1999.159)" fill="#9d5365"/>
        <path id="Trazado_45834" data-name="Trazado 45834" d="M1668.388,2168.641l-.078-2.641H1652v2.641Z" transform="translate(-1539.617 -2055.422)" fill="#aed9ea"/>
        <path id="Trazado_45835" data-name="Trazado 45835" d="M1652,1836.708l33.63.078,7.534-2.951V1817.6l-4.5-5.592-6.99-1.01-.932,11.495L1668,1832.436l-4.893-3.262-3.184,3.728H1652Z" transform="translate(-1539.617 -1727.993)" fill="#fc5c83"/>
        <path id="Trazado_45836" data-name="Trazado 45836" d="M1795,1546.018l4.893,3.262,12.737-9.941.932-11.495,6.99,1.01,4.5,5.592v-2.874l-3.184-4.272-6.058-2.1-5.126-7.378L1809.524,1504l-1.942,5.592-2.718,7.844,5.747,6.369v12.737l-9.553,8.854,5.514-15.766-6.291-12.66-1.476,3.262-1.01,2.252,4.427,3.806-.7,12.038Z" transform="translate(-1671.51 -1444.837)" fill="#175396"/>
        <path id="Trazado_45837" data-name="Trazado 45837" d="M1622.485,1651.2l9.631-12.427.777-6.6-4.349-9.475,2.485-5.2-1.01-3.495-5.592,10.8,4.272,15.223L1620,1651.2Z" transform="translate(-1510.102 -1546.293)" fill="#175396"/>
        <path id="Trazado_45838" data-name="Trazado 45838" d="M1493.388,1722.242l.078-9.242-5.825,8.932.078,13.514-.932,1.476-.078-6.446L1485,1729h0l.078,12.427,4.815-6.369-.078-11.495,1.32-1.087,4.427,11.65.078,5.592,1.631-1.786.078-10.873Z" transform="translate(-1385.587 -1637.605)" fill="#175396"/>
        <path id="Trazado_45839" data-name="Trazado 45839" d="M1134.513,1731.766l-.078-9.242-2.485,2.408.078,6.136-5.67,7.922,1.631-14.135L1129,1716l-6.291,10.33-.388,14.679,5.2,9.009.233,11.961-1.4,1.631-1.165-10.407-3.961-3.65,3.184,15.223-1.165,1.165-5.592-13.825.233,11.029,4.116,6.213-1.087,2.1-6.6-15.689-2.175,3.883,7.611,15.067-3.34-2.641-5.437-10.407,1.243,8.31,8.7,9.165-.544,1.087-3.961-4.738-1.709,1.087-8.388-13.436-1.32-2.019.078,2.485,9.941,20.271v-4.039h2.175l4.893,11.106v-4.815l.078-8.233v-1.709l2.951-5.514,4.427-8.31v-24Z" transform="translate(-1035.1 -1640.371)" fill="#175396"/>
        <path id="Trazado_45840" data-name="Trazado 45840" d="M1133.572,1885.814l-.233-11.029,5.592,13.825,1.165-1.165-3.184-15.223,3.961,3.65,1.165,10.407,1.4-1.631-.233-11.961-5.2-9.009.388-14.679-4.66,7.689,3.029,13.669-2.874,1.864-6.912-11.417,3.573,15.067-6.446,4.427-2.1-3.961v9.475l8.388,13.436,1.709-1.087,3.961,4.738.544-1.087-8.7-9.165-1.243-8.31,5.437,10.407,3.34,2.641-7.611-15.067,2.175-3.883,6.6,15.689,1.087-2.1Z" transform="translate(-1050.78 -1763.042)" fill="#fca08f"/>
        <path id="Trazado_45841" data-name="Trazado 45841" d="M1381.631,1602.184,1380,1616.319l5.67-7.922-.078-6.136,2.485-2.408.078,9.242h0l1.709,1.476.078,6.446.932-1.476-.078-13.514,5.825-8.932v-3.573l-3.65-6.446-1.087-.078.078,12.038Z" transform="translate(-1288.742 -1517.701)" fill="#feae51"/>
        <path id="Trazado_45842" data-name="Trazado 45842" d="M1767.65,1475.738l-3.65,6.369,6.213,7.611,1.476-3.262,6.291,12.66-5.514,15.766,9.553-8.854V1493.29l-5.67-6.369,2.718-7.844-3.184-4.039-1.864,9.631,4.66,9.165-1.709.932-5.825-10.951-1.864,2.718-1.709-2.407,4.194-6.058-5.592-7.068-1.165,1.165,2.718,3.495Zm11.495,24.62L1778.6,1495l1.942,2.485.078,8-4.893,4.582,3.495-9.708Z" transform="translate(-1642.918 -1414.4)" fill="#fec5ba"/>
        <path id="Trazado_45843" data-name="Trazado 45843" d="M1715.786,1745.291l-3.806-5.825-2.252-.466,4.116,7.068v9.242L1706,1766.494h2.563l7.223-10.407Z" transform="translate(-1589.423 -1661.585)" fill="#1d7fed"/>
        <line id="Línea_160" data-name="Línea 160" transform="translate(112.463 99)" fill="none"/>
        <path id="Trazado_45844" data-name="Trazado 45844" d="M1628.485,1589.921l.078,10.873.156-.233,2.407-2.563v-8.7l-3.34-9.475,5.67-9.941-.078-3.883L1626,1579.669v7.689Z" transform="translate(-1515.636 -1502.021)" fill="#1d7fed"/>
        <path id="Trazado_45845" data-name="Trazado 45845" d="M1153.357,1396.008l-2.33,2.563-.155.155-.078-10.873-2.408-2.563v-7.767l7.378-13.669.155,3.883-5.67,9.941,3.34,9.475-.078,8.7Zm3.107-2.252-4.272-15.223,5.592-10.8,1.01,3.495-2.408,5.2,4.349,9.475-.7,6.6-9.708,12.427h4.194l7.844-11.262v-9.165l-4.116-7.068,2.252.466,3.806,5.825v10.8l-7.223,10.407h1.243l3.184-3.728,6.524-7.767.621-12.038-4.427-3.806,1.01-2.252-6.213-7.611,3.65-6.369-2.718-3.495,1.165-1.165,5.592,7.068-4.194,6.058,1.709,2.408,1.864-2.718,5.825,10.951,1.709-.932-4.66-9.165,1.864-9.631,3.184,4.039,1.942-5.592,1.243,13.825,5.126,7.378,6.058,2.1,3.184,4.272v-6.058l-5.825-6.291-.544-.544.155-13.436,2.641,3.495-.078,8.077,12.737,12.815-.078,14.135,3.029-5.2v-11.883l-9.941-13.514,3.573.932,8.776,11.65L1204,1400.59l1.864-1.864-.233-2.408,4.971-8.7-2.718,12.271.854,11.805,2.019,2.019-.078-7.922,4.738-8.621,2.252-4.116-2.1-14.058h1.087l4.893,18.64-2.8,12.427L1221,1416.2l3.417-12.97-2.485-9.009,3.184,1.243,3.184,13.126-1.942,7.145,2.641-.854,3.029-14.912,2.1,7.844-1.32,5.825,4.582-1.553.078-23.145,4.349,11.728-.155,25.009,1.476-2.33,1.553-29.669-16.388-25.941,2.718,1.631.621-1.631-14.679-11.572-7.223,2.175,3.495-2.718-15.766-5.9-18.8,1.631-9.864-4.349h-16l-26.484,16.31,3.417,2.33-3.961-.233-17.708,24.31-.078,25.009v6.058l1.243,2.019.078-9.475,2.019,3.883,6.446-4.427-3.573-15.067,6.912,11.417,2.874-1.864-3.029-13.669,4.66-7.689,6.291-10.33-1.01,8.776,10.252-7.145-.078-11.961,1.087.078,3.65,6.446v3.573l-.078,9.242,4.039,4.815-.078,10.873-1.709,1.864-2.563,2.8h2.408l8.7-11.184Zm23.378-19.883-.078-12.97-5.514-7.767.388-.544,7.922,6.446v4.039l-.078,10.019,7.922,8.543v1.786l-10.64-9.553Zm27.649,15.067v-9.087l-11.417-16.077,13.825,6.6,5.67,12.194-4.5,10.252v-15.3l-5.67-5.514,4.893,9.32-2.718,7.534ZM1229,1398.8l-12.427-29.824,7.456,8,6.912,15.533Z" transform="translate(-1037.867 -1300.03)" fill="#fff"/>
        <path id="Trazado_45846" data-name="Trazado 45846" d="M2242,1564l11.417,16v9.087l2.718-7.456-4.815-9.32,5.67,5.514.078,15.3,4.427-10.33-5.669-12.194Z" transform="translate(-2083.793 -1500.177)" fill="#fc5c83"/>
        <path id="Trazado_45847" data-name="Trazado 45847" d="M2506,1631l12.427,29.824,1.941-6.291L2513.456,1639Z" transform="translate(-2327.29 -1561.973)" fill="#fc5c83"/>
        <path id="Trazado_45848" data-name="Trazado 45848" d="M1969.233,1439.5l.078-10.019v-4.039l-8-6.446-.311.544,5.514,7.844.078,12.893,10.64,9.631-.078-1.864Z" transform="translate(-1824.618 -1366.438)" fill="#fa755c"/>
        <path id="Trazado_45849" data-name="Trazado 45849" d="M2452.184,1776.174l-1.942,22.523L2449,1812.988l4.583,7.611,2.019,3.34.932-1.087,2.951-3.806,3.65-4.427,1.087.854,6.99-7.068,1.786-1.864v6.912l5.359-8.7.155-25.008-4.349-11.728v23.145l-.078,10.252-8.311,8.077,3.806-16.776,1.243-5.825-2.1-7.844-3.029,14.834-2.175,10.873-4.194,3.65,3.806-13.669,1.942-7.145-3.184-13.126-3.184-1.243,2.485,9.009-3.5,12.97-4.039,15.533,2.33,6.446-1.01,1.32-3.806-10.485,4.271-18.951,2.874-12.427-4.893-18.64h-1.087l2.1,14.058Z" transform="translate(-2274.717 -1679.11)" fill="#905bc8"/>
        <path id="Trazado_45850" data-name="Trazado 45850" d="M2122.281,1563.59l-.622-7.223-1.864,1.864,2.1-19.65-8.854-11.65-3.573-.932,9.941,13.514-.078,11.883-2.951,5.2.078-14.135-12.737-12.815v-8.077l-2.641-3.573-.078,13.514.466.544,5.825,6.291,6.99,7.611.078,14.058,4.97,6.524Z" transform="translate(-1953.744 -1457.749)" fill="#905bc8"/>
        <path id="Trazado_45851" data-name="Trazado 45851" d="M2373.786,1878.553l-4.738,8.621.078,7.922-2.02-2.019-.854-11.805,2.718-12.271-4.971,8.7.233,2.408.621,7.223.7,8.31,6.291,5.437Z" transform="translate(-2196.318 -1781.489)" fill="#d37929"/>
        <path id="Trazado_45852" data-name="Trazado 45852" d="M2588.738,2414.068l-1.087-.854-3.65,4.427v10.64h1.786l.155-3.107,4.272-5.437v-5.048h2.252l-5.359,16.077,1.631.466,6.99-16.31V2407Z" transform="translate(-2399.231 -2277.704)" fill="#d37929"/>
        <path id="Trazado_45853" data-name="Trazado 45853" d="M2665,2203.329l8.311-8.077.078-10.252-4.583,1.553Z" transform="translate(-2473.94 -2072.946)" fill="#d3b0f9"/>
        <path id="Trazado_45854" data-name="Trazado 45854" d="M2586.194,2230.873l2.175-10.873-2.563.854L2582,2234.524Z" transform="translate(-2397.387 -2105.228)" fill="#d3b0f9"/>
        <path id="Trazado_45855" data-name="Trazado 45855" d="M2479.485,2179.669l4.039-15.533-2.252-6.136L2477,2176.951l3.806,10.485,1.01-1.32Z" transform="translate(-2300.542 -2048.043)" fill="#d3b0f9"/>
        <path id="Trazado_45856" data-name="Trazado 45856" d="M2548.952,2395.5,2546,2399.31v13.048l6.835,8.155,1.941-1.165.078-8.233,7.611-16.31V2383l-1.786,1.864v7.922l-6.99,16.31-1.631-.466,5.359-16.077h-2.252v5.048l-4.272,5.437-.155,3.107h-1.786Z" transform="translate(-2364.183 -2255.568)" fill="#fac589"/>
        <path id="Trazado_45857" data-name="Trazado 45857" d="M1240.99,2557.417l.078-7.767h-4.039l-.854-11.65H1234v10.33l5.126,10.019Z" transform="translate(-1154.081 -2398.53)" fill="#fac589"/>
        <path id="Trazado_45858" data-name="Trazado 45858" d="M1262.854,2549.65h4.039v-.544L1262,2538Z" transform="translate(-1179.906 -2398.53)" fill="#fc5d83"/>
        <path id="Trazado_45859" data-name="Trazado 45859" d="M1370.734,2595.591v6.058l-1.786-2.8-1.243,4.582-5.9,1.01,2.019,5.126-.544.543-6.136-12.737-11.65-7.612-2.718,3.728-1.32.621-3.495,1.553h-.932l2.1,5.592h4.194l-2.1-4.349h1.476l3.029,4.271h2.175l-.932-3.573h.854l6.058,8.776.466-.388-5.514-9.32.544-.233,5.747,8,.544-.389-2.175-5.126.544-.311,6.757,13.048-2.563,13.281h-1.476l.777-6.679-1.864-.466v6.679l-2.485-2.874-2.1-2.485-1.087,1.01,3.417,6.213-.7.777-4.194-6.6-1.864,1.243,3.417,8.388-6.369-9.941-1.631.544,1.243,4.893-2.408-3.573-1.553,1.243-2.951-4.272h-2.563l-1.01,5.2-2.33-5.281-1.087-.078-4.971,6.99h-1.087l2.874-7.223h-1.709l-2.951,2.874h-3.029l-1.553,5.126-1.165-.078.311-7.456h-1.165l-2.33,7.689-4.738-7.611-1.087-12.893,5.514-9.4,1.32.155-1.864,4.349h1.01l4.893-6.369.932.233-3.262,6.058,1.243.078,2.641-3.417-.932,3.5h1.32l1.942-3.185,1.01.078-1.165,2.874h2.408l1.942-2.719,1.087.388-1.243,2.407h1.942l1.476-5.592h-3.961l-1.553-2.02h-1.631l-2.874-4.271-7.145,4.271-4.893,7.378-2.874-2.019,1.864-3.806-4.039-3.029-2.641-1.942-4.272,4.039,3.184-10.1-5.281-5.126-1.4,6.679.233-9.864.155-5.669h-2.563v5.437l-.078,7.689-1.864.932-1.32.7v14.912l2.252-2.485-2.33,5.9,2.175,7.068,3.573-20.582.932.233-1.32,11.728,1.243.854,5.281-5.281,1.087,1.242-5.281,8.077,3.495,6.99,4.194-7.844,2.1,1.165-2.1,14.6,9.242,12.349,1.087-1.087-8.077-15.145,1.4-5.359,1.165,6.6,9.941,16.31h.932l-1.786-5.9,3.961-3.106.854.777-2.8,2.718,2.641,6.291,3.029.078-1.864-5.67,3.65-1.786-.7,3.884,4.893,5.747,3.573-.544,3.107-11.029,3.029,4.039-1.243,8.621,2.563.155,3.5-9.864-1.864-2.485.854-.544,2.951,2.408-3.262,9.553,2.175,1.4,2.641-9.4,2.408,4.116-1.786,4.5,7.689-6.757.7-5.669h1.864l.078,7.223,1.553.932,7.689-17.475,2.175,1.01-2.019,7.689,6.136-.854-2.485-18.485.932-1.087,5.281,9.242,7.844-5.67-.466-14.834,1.243-.621,4.116,13.359,1.087-1.553v-16.155l-6.835-8.155v-13.125l-.932,1.087-2.019-3.34v19.65l-6.369-2.1.078,12.271h-3.883Zm-38.134,31.688-.932,4.582-2.1-6.213-1.631,3.262,3.107,5.359-.932,1.864-4.582-6.291,3.184-7.844,3.883,5.359Z" transform="translate(-1202.042 -2424.355)" fill="#fff"/>
        <path id="Trazado_45860" data-name="Trazado 45860" d="M1396.123,2905.571l-6.136.854,2.019-7.689-2.175-1.087-7.689,17.553-1.553-1.01-.078-7.223h-1.864l-.7,5.67-7.689,6.679,1.786-4.5-2.408-4.039-2.641,9.4-2.175-1.4,3.262-9.553-2.951-2.485-.854.622,1.864,2.485-3.495,9.864-2.563-.155,1.243-8.621-3.029-4.039-3.107,11.029-3.573.543-4.815-5.825.7-3.883-3.65,1.786,1.786,5.747-2.951-.078-2.641-6.291,2.8-2.718-.854-.777-3.961,3.184,1.786,5.9h-.932l-9.941-16.388-1.165-6.6-1.4,5.437,8.077,15.067-1.087,1.087-9.242-12.349,2.175-14.6-2.175-1.165-4.116,7.922-3.5-6.99,5.359-8.078-1.087-1.32-5.359,5.281-1.243-.854,1.32-11.728-.932-.233L1311,2890.582l9.786,17.165,3.262,5.669,23.455,10.019-1.553-5.592,1.864-.7,3.34,6.446h2.874l3.107-4.271,2.1,3.107,14.524.077,23.145-13.048,3.495-4.893,2.485-3.417,1.243-1.787,2.175-3.106,3.029-4.194,3.34-4.66-4.116-13.437-1.243.7.466,14.834-7.922,5.67-5.281-9.242-.932,1.165Z" transform="translate(-1225.101 -2704.744)" fill="#b989ec"/>
        <path id="Trazado_45861" data-name="Trazado 45861" d="M1635.077,3076.369l5.9-6.68.078-2.174-9.4-5.515-4.582,5.98-.078,6.291v2.019l2.33.078,1.087-3.728,1.165.078-.078,3.728h.311Z" transform="translate(-1516.558 -2881.832)" fill="#feae51"/>
        <line id="Línea_161" data-name="Línea 161" y1="2" x2="1" transform="translate(138.463 188)" fill="none"/>
        <line id="Línea_162" data-name="Línea 162" x2="6" transform="translate(142.463 193)" fill="none"/>
        <line id="Línea_163" data-name="Línea 163" y2="10" transform="translate(148.463 183)" fill="none"/>
        <line id="Línea_164" data-name="Línea 164" x2="1" transform="translate(148.463 193)" fill="none"/>
        <path id="Trazado_45862" data-name="Trazado 45862" d="M1974.883,3084.427v-9.864l-3.728-2.563-8.155,4.738,1.709,2.252.7.854,3.5,4.5,5.747.078Z" transform="translate(-1826.462 -2891.056)" fill="#feae51"/>
        <path id="Trazado_45863" data-name="Trazado 45863" d="M1978.572,3105v9.864h-.233l-5.747-.078-3.495-4.5-.233.621h0l-1.864,5.437,1.709,2.563,2.408,3.573-1.243-4.971,1.631-.466,6.369,9.941-3.5-8.388,1.942-1.243,4.116,6.6.777-.777-3.417-6.213,1.087-1.01,2.175,2.486-.078-4.427-.078-7.3Z" transform="translate(-1830.152 -2921.493)" fill="#f85d81"/>
        <path id="Trazado_45864" data-name="Trazado 45864" d="M1820.825,3135.252l-1.709-2.252-11.883.155-.155-.155-.078,2.175Z" transform="translate(-1682.578 -2947.318)" fill="#442961"/>
        <path id="Trazado_45865" data-name="Trazado 45865" d="M1623.64,3040.864h8.932l1.01.7,3.728,2.563,2.33,1.709.078,7.3,2.563.7v-8.776l-8-5.9L1622.4,3039l-3.34,1.786-2.951-1.631h-13.825l-3.34,3.883v-2.408l-1.786,2.175-.155,10.33,2.33-.078.078-6.291,4.582-5.98,10.64-.078h.777l4.039,2.407Z" transform="translate(-1488.888 -2860.619)" fill="#733a48"/>
        <path id="Trazado_45866" data-name="Trazado 45866" d="M1828.815,3063.408l-4.039-2.408H1824v3.728h9.009v-3.573Z" transform="translate(-1698.258 -2880.91)" fill="#b66529"/>
        <path id="Trazado_45867" data-name="Trazado 45867" d="M1697.64,3064.728V3061l-10.64.078,9.4,5.515.155.155,11.883-.155,8.155-4.738-1.01-.7h-8.932v3.573Z" transform="translate(-1571.898 -2880.91)" fill="#eca699"/>
        <path id="Trazado_45868" data-name="Trazado 45868" d="M1692.62,3161.078,1678.8,3161l-5.9,6.679-3.262.078h-.311l-1.01-.078-.311,7.456,1.165.078,1.553-5.126h3.029l2.874-2.874,1.786.078-2.874,7.145h1.087l4.971-6.99,1.01.078,2.33,5.281,1.01-5.281h2.563l2.951,4.272,1.476-1.243-1.709-2.563,1.864-5.437h0l.233-.621Z" transform="translate(-1554.374 -2973.143)" fill="#629ddf"/>
        <path id="Trazado_45869" data-name="Trazado 45869" d="M1802.068,3291.359l-3.883-5.359-3.184,7.844,4.582,6.291.932-1.786-3.107-5.359,1.631-3.262,2.1,6.213Z" transform="translate(-1671.51 -3088.435)" fill="#b989ec"/>
        <path id="Trazado_45870" data-name="Trazado 45870" d="M2147,3221l.078,4.427,2.485,2.951V3221.7Z" transform="translate(-1996.172 -3028.483)" fill="#b989ec"/>
        <path id="Trazado_45871" data-name="Trazado 45871" d="M1555.5,2959.98l.155-10.33,1.786-2.175v2.408l3.34-3.884H1574.6l2.951,1.631,3.34-1.786,11.883.155,8,5.9v8.776l1.864.466-.777,6.679h1.476l2.563-13.281-6.757-13.048-.466.311,2.175,5.126-.621.466-5.747-8-.544.233,5.514,9.32-.466.388-6.058-8.776h-.854l1.01,3.573h-2.175l-3.029-4.272h-1.476l2.1,4.349H1570.8l1.243-2.33-1.087-.388-1.942,2.641H1566.6l1.165-2.874-1.01-.078-1.942,3.185h-1.32l.932-3.417-2.641,3.417-1.243-.078,3.262-6.135-.854-.156-4.971,6.291h-1.01l1.864-4.349-1.32-.155-5.514,9.32,1.087,12.97,4.738,7.534,2.33-7.611-2.33-.078V2959.9Z" transform="translate(-1447.383 -2767.463)" fill="#9857dd"/>
        <path id="Trazado_45872" data-name="Trazado 45872" d="M1853.476,2949.408l.777.078v2.252l1.087-.078.7-1.631,1.165.078.466,1.243h1.165l-1.709-4.349h-4.815l-.311,4.039h.777Z" transform="translate(-1724.083 -2775.764)" fill="#7c4351"/>
        <path id="Trazado_45873" data-name="Trazado 45873" d="M1826.689,2947l1.709,4.349h-1.165l-.466-1.243-1.165-.078-.7,1.631-1.087.078v-2.252l-.777-.078-.7,1.631h-.777l.311-4.039h-1.4l-1.476,5.514h11.572l-2.019-5.514Z" transform="translate(-1693.646 -2775.764)" fill="#2f6fb8"/>
        <path id="Trazado_45874" data-name="Trazado 45874" d="M1528.707,3391.048l-14.524-.078-2.1-3.106-3.107,4.271h-2.874l-3.34-6.446-1.864.7,1.553,5.592L1479,3381.961l1.864,3.262,15.067,8.621,7.068,4.039,26.795-.388,16.776-12.038,5.281-7.456Z" transform="translate(-1380.053 -3173.29)" fill="#5a3483"/>
        <path id="Trazado_45875" data-name="Trazado 45875" d="M2276.7,3323l-16.7,24.465,12.194,9.786,10.874-18.1-2.019-13.592Z" transform="translate(-2100.395 -3122.562)" fill="#f9c589"/>
        <path id="Trazado_45876" data-name="Trazado 45876" d="M1740.726,3340.086l16.7-24.465-1.01-.621-3.495,4.893-5.281,7.456-16.776,12.038-26.795.388-7.068-4.039,12.194,24.31,4.349,8.543h1.942l3.262-13.9,8.077-.078-1.631,9.864,18.95-.078,8.776-14.523Z" transform="translate(-1581.122 -3115.183)" fill="#fc5c83"/>
        <path id="Trazado_45877" data-name="Trazado 45877" d="M1530.261,3503.931l-12.194-24.31L1503,3471l18.873,33.008Z" transform="translate(-1402.189 -3259.067)" fill="#f38da5"/>
        <path id="Trazado_45878" data-name="Trazado 45878" d="M1327.26,3397.94l-18.873-33.008-1.864-3.262-3.262-5.67-1.553,1.165-9.553,6.447v11.65l-.155,29.125,7.844,9.941,9.708-.621,9.631-.544,11.417-.7,2.33,4.194,30.6-3.5,13.669-8.077v-2.951l-6.6.078-18.951.077,1.631-9.864-8.077.078-3.262,13.9H1340l-4.349-8.543Z" transform="translate(-1207.577 -3152.999)" fill="#ffded6"/>
        <path id="Trazado_45879" data-name="Trazado 45879" d="M2239.717,3369.592l-10.873,18.1-8.776,14.524,6.6-.078v2.951L2213,3413.163l11.883-1.4,8.31-.932,10.718-38.367-2.951-14.6L2237.7,3356Z" transform="translate(-2057.046 -3152.999)" fill="#e96b0c"/>
        <path id="Trazado_45880" data-name="Trazado 45880" d="M2367.5,3294.067l-10.718,38.367-8.311.932L2347,3347.579l6.835-.777,18.873-44.891-3.184-25.475L2358.417,3271l-2.485,3.417,1.01.621,4.349,2.563,3.262,1.864Z" transform="translate(-2180.638 -3074.6)" fill="#1e4571"/>
        <line id="Línea_165" data-name="Línea 165" y1="36" x2="13" transform="translate(54.463 190)" fill="none"/>
        <line id="Línea_166" data-name="Línea 166" y1="7" x2="24" transform="translate(64.463 192)" fill="none"/>
        <path id="Trazado_45881" data-name="Trazado 45881" d="M998.076,3254l-23.455,7.456L966,3296.872" transform="translate(-906.896 -3058.92)" fill="none"/>
        <path id="Trazado_45882" data-name="Trazado 45882" d="M1109,3700l3.5,1.709,2.1,29.979" transform="translate(-1038.789 -3470.281)" fill="none"/>
        <path id="Trazado_45883" data-name="Trazado 45883" d="M1102.1,3300.261l-2.1-24.853,7.456-3.029v-2.33l14.679-5.048" transform="translate(-1030.489 -3069.066)" fill="none"/>
        <path id="Trazado_45884" data-name="Trazado 45884" d="M1110.485,3287.6l-6.757,3.806-1.4-14.291,18.562-9.941,3.728,6.058,1.553-1.165-4.039-7.067-14.679,5.048v2.33l-7.456,3.029,2.019,24,2.175,1.087,1.864,26.95,30.29,21.591,3.107-.388-28.659-20.116,2.485-3.961-.311-4.427-4.194,3.184-1.4-25.009-3.029-1.32-.233-2.485,6.757-.621Z" transform="translate(-1030.489 -3069.066)" fill="#1e4571"/>
        <path id="Trazado_45885" data-name="Trazado 45885" d="M1110.485,3287.6l-6.757,3.806-1.4-14.291,18.562-9.941,3.728,6.058,1.553-1.165-4.039-7.067-14.679,5.048v2.33l-7.456,3.029,2.019,24,2.175,1.087,1.864,26.95,30.29,21.591,3.107-.388-28.659-20.116,2.485-3.961-.311-4.427-4.194,3.184-1.4-25.009-3.029-1.32-.233-2.485,6.757-.621Z" transform="translate(-1030.489 -3069.066)" fill="#1e4571"/>
        <path id="Trazado_45886" data-name="Trazado 45886" d="M1131.4,3317.232l6.757-3.806.388,6.291-6.757.621.233,2.485,3.029,1.32,1.4,25.009,4.194-3.184.311,4.427-2.485,3.961,28.659,20.116,5.359-.621,19.805-2.252-.233-11.106,4.349-.466.311,11.028,9.708-1.087v-12.116l6.058-.311v11.728l12.038-1.4,1.476-14.213-11.883,1.4-30.6,3.495-2.33-4.194-11.417.7.777,3.728-3.883,1.087,6.757,10.8-3.184.233-10.1-15.3-9.708.622-7.844-9.941.155-29.125V3305.5l9.553-6.446-3.728-6.058L1130,3302.941Z" transform="translate(-1058.159 -3094.891)" fill="#479bfa"/>
        <path id="Trazado_45887" data-name="Trazado 45887" d="M2114,4124.311v12.116l6.058-.7V4124Z" transform="translate(-1965.735 -3861.351)" fill="#1e4571"/>
        <path id="Trazado_45888" data-name="Trazado 45888" d="M1933.66,4167.029l-.311-11.029-4.349.466.233,11.106Z" transform="translate(-1795.103 -3890.865)" fill="#1e4571"/>
        <path id="Trazado_45889" data-name="Trazado 45889" d="M1528.407,4095.728l-.777-3.728-9.631.544,10.1,15.3,3.184-.233-6.757-10.8Z" transform="translate(-1416.024 -3831.836)" fill="#1e4571"/>
        <path id="Trazado_45890" data-name="Trazado 45890" d="M332.59,1202.088l8.388-34.251,23.378-7.534-1.942-3.417-25.164,7.456L327,1191.37l-1.243,11.106-9.631,10.718-1.942,2.175H303.62l-6.757-6.6-6.369.932-7.378,5.67.932-5.126-1.864-1.631,4.039-4.5,10.64-2.408v-1.631l-7.689-.932-6.6,2.8v-1.864l1.709-.777v-5.048h-3.806v-2.951l8.932-1.864,1.476,2.252,7.844,1.786,1.476-1.32-8.388-1.553-3.34-5.281h-6.757l2.019-6.291,9.941-3.728,11.106,3.184,1.553,2.1v-9.941l9.941-1.087,10.485-11.417,13.9-3.029L359,1151.061l-2.175-7.068,2.33-5.9-2.252,2.485v-14.912l1.32-.7-5.2-9.941v-6.291l-9.941-20.271v-8.543l.078-25.009,17.708-24.31,3.961.233-3.417-2.33,26.484-16.31h16l9.864,4.349,18.8-1.631,15.766,5.9-3.495,2.718,7.223-2.175,14.679,11.572-.621,1.631-2.718-1.631,16.388,25.941-1.553,29.669-1.476,2.33-5.359,8.7v4.893l-7.611,16.232-.078,8.233-2.019,1.165v16.155l-1.087,1.553-3.34,4.66,18.8,4.815,3.65.932,11.495,9.242h23.222v9.631l16.232,4.194.155,9.475-2.1,6.291,9.864,28.193-3.961,29.28-4.349,4.427-6.369-.078.311-48-26.873,72.463h-7.689l-6.679,4.893h-5.281l-2.175-8.155-5.281-.155,7.223-18.951,2.485-6.524,1.709-22.756,3.65,29.28,2.1,16.931,4.815-.932-5.9-47.92-1.786-14.757-3.34.466,2.563,12.582-1.01.155-4.815-15.533-1.087-35.028-10.1-16.854-12.349-3.573-2.175,3.029,12.582,3.806,4.5,6.446.932,22.446-24.853,51.415.155-.078,4.893-8.7,22.29-40v18.329l6.291,14.213-22.446,68.657-3.728-1.087-9.864-2.951-5.2,6.369-3.34-5.592-13.514.078-1.476,1.553-19.883,7.922-24.7-7.145-5.359-5.281-46.445-45.746-2.563,7.844,12.815,25.863h-12.66l.388,5.281-1.476-.854-9.553-5.437-1.165-58.172H311l1.165,50.561,4.194,9.242,2.951,1.087-4.5-57.939,3.728-1.942,19.727,23.3,1.01-1.553-18.8-26.406,2.951-2.8,44.037,59.8,1.243-1.165-8.776-12.737-12.427-18.1-19.883-28.892,1.4-1.01,8.7,8.7,1.709-2.33L343,1219.1l-5.825-16.232-4.738-1.243ZM539.882,984H279v347.868H539.882ZM306.416,1219.64v36.891h-9.864L290.029,1249l3.883-25.708-12.349,11.262,2.408-13.592-2.33-2.563,7.844-4.116,5.747.233.544-3.573,7.068,6.524-3.34,13.825,1.631.777,3.961-12.349Zm199.758,49.551,11.262-25.319-3.65,25.319-7.611-.078ZM332.279,1257l26.407,29.358L351,1288.3l-1.631-3.184-7.223.078-13.359-23.3,3.573-4.893Z" transform="translate(-273.253 -965.223)" fill="#442961"/>
        <path id="Trazado_45891" data-name="Trazado 45891" d="M1751.56,3255.223l3.184,25.475-18.873,44.891-6.835.777-12.038,1.4-6.058.7-9.708,1.087-4.427.544-19.8,2.252,18.562,8,24.232-1.942,7.145-2.951,6.835-2.874,1.087-.466,24.853-51.415-.932-22.446-4.5-6.446L1741.7,3248l-1.243,1.786Z" transform="translate(-1562.675 -3053.386)" fill="#d9bbf7"/>
        <path id="Trazado_45892" data-name="Trazado 45892" d="M2509.29,3703,2487,3743l5.359,1.709-4.5,8.854,1.942,1.01,12.427-11.106,4.5,5.592-4.738,5.048-9.087,35.105-3.5,13.824,3.728,1.087,22.446-68.58-6.291-14.291Z" transform="translate(-2309.765 -3473.048)" fill="#d9bbf7"/>
        <path id="Trazado_45893" data-name="Trazado 45893" d="M2550.349,3161.767l10.1,16.854-.622-19.8-18.8-4.815-3.029,4.194Z" transform="translate(-2356.804 -2966.687)" fill="#d9bbf7"/>
        <path id="Trazado_45894" data-name="Trazado 45894" d="M2845.495,3400l-2.874,38.445-3.262.932-1.32-17.63-4.039.078" transform="translate(-2629.815 -3193.581)" fill="none"/>
        <path id="Trazado_45895" data-name="Trazado 45895" d="M2845.495,3400l-2.874,38.445-3.262.932-1.32-17.63-4.039.078.544,18.718,4.815,15.533,1.01-.155-2.563-12.66,3.34-.388,1.864,14.679,5.825-11.728,9.553-19.261,4.5-9.087-4.738-17.32Z" transform="translate(-2629.815 -3193.581)" fill="#d9bbf7"/>
        <path id="Trazado_45896" data-name="Trazado 45896" d="M2828.786,3268.736l2.874-38.445,12.66.156,4.738,17.32,4.427-8.932,1.165-2.33,2.719-5.437v-4.893h-23.222l-11.495-9.242L2819,3216l.621,19.805.544,16.31,4.039-.078,1.32,17.63Z" transform="translate(-2615.98 -3023.872)" fill="#fac68a"/>
        <path id="Trazado_45897" data-name="Trazado 45897" d="M3125.262,4103l-10.8,4.039-.155,14.834-.311,17.863h2.563Z" transform="translate(-2888.068 -3841.981)" fill="#442961"/>
        <path id="Trazado_45898" data-name="Trazado 45898" d="M3152.5,3660.027l4.97-1.4,2.019-8.388L3152.5,3625l-4.5,9.087Z" transform="translate(-2919.427 -3401.106)" fill="#442961"/>
        <path id="Trazado_45899" data-name="Trazado 45899" d="M3199.359,3482.33l5.592,38.989L3194,3558.055l14.213-36.27,2.408-31.222-10.1-10.563Z" transform="translate(-2961.855 -3267.368)" fill="#442961"/>
        <path id="Trazado_45900" data-name="Trazado 45900" d="M2948.241,3448.445l-.311,48.076,6.369.078,4.427-4.427,3.961-29.28-9.864-28.193,2.1-6.291-.078-9.475-16.31-4.194V3410l-2.719,5.437,10.1,10.563-2.408,31.222-14.213,36.271,10.951-36.736-5.592-38.989-4.427,8.932,6.99,25.241-2.02,8.388-.854,3.495-8.7,36.736h-2.563l.311-17.863h-2.874l-4.349-27.649-5.825,11.728,5.9,47.92-4.815.932-2.1-16.931-2.33,27.183,6.679-4.893h7.689Z" transform="translate(-2697.145 -3202.804)" fill="#fff"/>
        <path id="Trazado_45901" data-name="Trazado 45901" d="M3212.612,4355.319l3.65-25.319L3205,4355.319Z" transform="translate(-2972.001 -4051.351)" fill="#fff"/>
        <path id="Trazado_45902" data-name="Trazado 45902" d="M1530.589,4239.98l10.33-10.874,4.738-5.048-4.5-5.592-12.427,11.106-1.942-1.01,4.5-8.854-5.359-1.708-4.893,8.7-.777,1.32.621-1.243-1.087.466-43.571,39.532-6.912,6.369H1445l5.359,5.282,24.7,7.145,19.883-7.922,1.476-1.631Z" transform="translate(-1348.693 -3948.05)" fill="#fff"/>
        <line id="Línea_167" data-name="Línea 167" x2="1" y2="1" transform="translate(114.463 307)" fill="none"/>
        <line id="Línea_168" data-name="Línea 168" x1="3" y2="3" transform="translate(70.463 261)" fill="none"/>
        <path id="Trazado_45903" data-name="Trazado 45903" d="M923.7,3919.941l1.32-1.864,42.794,29.047h38.29l11.572-7.223-.932-1.243-7.145,2.951-24.232,1.942-18.562-8-5.359.621-3.107.388-30.29-21.591-5.67-4.039-3.573-2.563-1.709,2.33-8.7-8.7-1.4,1.01,19.883,28.892,39.843,31.533.078.078,17.242,1.553,10.718-9.165H969.522Z" transform="translate(-852.478 -3656.593)" fill="#fff"/>
        <path id="Trazado_45904" data-name="Trazado 45904" d="M1204.4,4138.047h-38.29L1123.32,4109l-1.32,1.864,45.823,35.959h25.242l-10.718,9.165-17.242-1.553h0l-.078-.078-39.843-31.533,12.427,18.1,31.766,25.4,8.932-.078,43.571-39.532-6.835,2.874.932,1.243Z" transform="translate(-1050.78 -3847.516)" fill="#cf1544"/>
        <path id="Trazado_45905" data-name="Trazado 45905" d="M1519.793,4227.242l-43.571,39.532-6.912,6.369H1445l5.359,5.282,24.7,7.145,19.883-7.922,1.476-1.631,34.173-36.037,10.33-10.874,4.738-5.048-4.5-5.592-12.427,11.106-1.942-1.01,4.5-8.854-5.359-1.708-4.893,8.7-.777,1.32.621-1.243Z" transform="translate(-1348.693 -3948.05)" fill="#fff"/>
        <path id="Trazado_45906" data-name="Trazado 45906" d="M994.763,3955.9H969.522l-45.823-35.96,1.32-1.864,42.794,29.047h38.29l11.572-7.223-.932-1.243-7.145,2.951-24.232,1.942-18.562-8-5.359.621-3.107.388-30.29-21.591-5.67-4.039-3.573-2.563-1.709,2.33-8.7-8.7-1.4,1.01,19.883,28.892,39.843,31.533.078.078,17.242,1.553Z" transform="translate(-852.478 -3656.593)" fill="#fff"/>
        <path id="Trazado_45907" data-name="Trazado 45907" d="M2395.893,4593.97l-.543,3.184-4.349,5.359,9.864,2.951,3.495-13.824-4.5.155,2.485-18.8-3.65,3.884Z" transform="translate(-2221.221 -4275.479)" fill="#fff"/>
        <path id="Trazado_45908" data-name="Trazado 45908" d="M2133.407,4530.747l.543-3.185-11.029-2.408,13.825-14.679,3.65-3.883.777-5.592L2107,4537.038l13.514-.078,3.34,5.592,5.2-6.446Z" transform="translate(-1959.278 -4209.07)" fill="#f38da5"/>
        <path id="Trazado_45909" data-name="Trazado 45909" d="M2507.485,4377.465l-2.485,18.8,4.5-.155,9.087-35.105-10.33,10.874Z" transform="translate(-2326.367 -4079.944)" fill="#442961"/>
        <path id="Trazado_45910" data-name="Trazado 45910" d="M2323.029,4640.087l2.8-17.087L2312,4637.679Z" transform="translate(-2148.357 -4321.595)" fill="#442961"/>
        <path id="Trazado_45911" data-name="Trazado 45911" d="M2750.223,4552,2743,4570.951l5.281.155,2.175,8.077Z" transform="translate(-2545.883 -4256.109)" fill="#feded5"/>
        <path id="Trazado_45912" data-name="Trazado 45912" d="M2836,4204.28l.233,27.184h5.281l2.33-27.184-3.651-29.28-1.708,22.756Z" transform="translate(-2631.659 -3908.389)" fill="#f38da5"/>
        <path id="Trazado_45913" data-name="Trazado 45913" d="M3025,3761.261l4.349,27.649h2.874l.155-14.834,10.8-4.039.854-3.495-4.97,1.4-4.5-25.941Z" transform="translate(-2805.98 -3509.019)" fill="#f38da5"/>
        <path id="Trazado_45914" data-name="Trazado 45914" d="M794.658,3988.8,750.543,3929l-2.874,2.8,18.8,26.406-1.01,1.476-19.727-23.3L742,3938.32l4.5,57.939.155,2.718,1.476.854-.388-5.281h12.66l-12.737-25.863,2.563-7.844,46.367,45.745h24.31l6.912-6.368-8.932.077-31.766-25.4,8.776,12.737Z" transform="translate(-700.293 -3681.496)" fill="#aed9ea"/>
        <path id="Trazado_45915" data-name="Trazado 45915" d="M979.563,3313.259l5.67,4.039-1.864-26.95-2.175-1.087-2.019-24,7.456-3.029v-2.33l14.679-5.048-.466-.854-23.455,7.456L969,3295.785l4.738,1.243Z" transform="translate(-909.663 -3058.92)" fill="#aed9ea"/>
        <path id="Trazado_45916" data-name="Trazado 45916" d="M325.349,3957.009l1.32-8.776-5.747-.233-7.767,4.116,2.33,2.563L313,3968.271Z" transform="translate(-304.612 -3699.02)" fill="#aed9ea"/>
        <path id="Trazado_45917" data-name="Trazado 45917" d="M302.728,3638.786l7.611-3.417,4.971,1.864v-2.563l1.942-1.709-7.844-1.786L307.932,3629,299,3630.787v2.951l3.728-.078Z" transform="translate(-291.699 -3404.795)" fill="#aed9ea"/>
        <path id="Trazado_45918" data-name="Trazado 45918" d="M345.747,3837l-7.611.777-5.2,3.728-.932,5.126,7.456-5.592,6.291-.932Z" transform="translate(-322.136 -3596.641)" fill="#aed9ea"/>
        <path id="Trazado_45919" data-name="Trazado 45919" d="M923.573,4499,920,4503.815l13.359,23.377,7.223-.078,1.631,3.184,7.767-1.941Z" transform="translate(-864.468 -4207.226)" fill="#c8cd6a"/>
        <path id="Trazado_45920" data-name="Trazado 45920" d="M667.34,4061.561,666.252,4011H664l1.165,58.172,9.553,5.437-.155-2.718-2.951-1.087Z" transform="translate(-628.351 -3757.127)" fill="#c8cd6a"/>
        <path id="Trazado_45921" data-name="Trazado 45921" d="M625,3669.611h7.3l.078-5.437-3.34-2.175-3.961,2.8Z" transform="translate(-592.38 -3435.232)" fill="#c8cd6a"/>
        <path id="Trazado_45922" data-name="Trazado 45922" d="M512.184,3585.009v-12.66l10.8-9.631,12.194-.233-2.019-2.408L521.582,3560l-5.2,4.583-2.641,2.252L512.495,3568l-1.553,1.32L509,3571.029v13.592l6.757,6.6H526.32l1.942-2.175H518.242Z" transform="translate(-485.389 -3341.155)" fill="#c8cd6a"/>
        <path id="Trazado_45923" data-name="Trazado 45923" d="M550,3600.941v12.66l6.058,3.961h10.019l9.631-10.718,1.243-11.106L574,3592.243l-1.01-1.243-12.194.233-10.8,9.631Zm13.2-2.252-.078,5.437-7.3-.078.078-4.815,3.961-2.718Z" transform="translate(-523.205 -3369.747)" fill="#ea6c0d"/>
        <path id="Trazado_45924" data-name="Trazado 45924" d="M335.6,3789.039V3785l-10.64,2.408-3.961,4.5,1.786,1.631,5.2-3.728Z" transform="translate(-311.991 -3548.679)" fill="#2369b5"/>
        <path id="Trazado_45925" data-name="Trazado 45925" d="M331.6,3714.184l7.689.932v-2.252L334.32,3711l-7.611,3.417-1.709.777v1.787Z" transform="translate(-315.68 -3480.427)" fill="#2369b5"/>
        <path id="Trazado_45926" data-name="Trazado 45926" d="M455,3561.107l8.932,3.883,2.641-2.252-9.4-4.738Z" transform="translate(-435.583 -3339.31)" fill="#2369b5"/>
        <path id="Trazado_45927" data-name="Trazado 45927" d="M1696.8,3330.094l-19.8,2.252,18.562,8,24.232-1.942,7.145-2.951,6.835-2.874,1.087-.466,24.853-51.415-.932-22.446-4.5-6.446L1741.7,3248l-1.243,1.786,11.106,5.437,3.184,25.475-18.873,44.891-6.835.777-12.038,1.4-6.058.7-9.708,1.087Z" transform="translate(-1562.675 -3053.386)" fill="#d9bbf7"/>
        <path id="Trazado_45928" data-name="Trazado 45928" d="M438.388,3950.668v-36.892l-1.32.078-3.883,12.349-1.709-.777,3.34-13.825-7.068-6.6-.544,3.573-1.32,8.776L422,3943.057l6.524,7.611Z" transform="translate(-405.146 -3659.359)" fill="#fff"/>
        <path id="Trazado_45929" data-name="Trazado 45929" d="M328.97,3215.814l9.4,4.738,5.2-4.583,11.572.078,4.039-16.621,5.048.156-6.058,20.115,3.029,3.495,10.174-27.028,3.495-9.165-13.9,3.029-10.485,11.417-9.941,1.087v9.941l-1.476-2.175-11.106-3.184-9.941,3.728L316,3217.135h6.757l3.34,5.281,8.388,1.553,1.243-1.165-8.932-3.883Z" transform="translate(-307.379 -2997.124)" fill="#fff"/>
        <path id="Trazado_45930" data-name="Trazado 45930" d="M1032.495,3139.039,1029,3148.2l25.164-7.378L1050.9,3135Z" transform="translate(-965.003 -2949.163)" fill="#cd98a5"/>
        <path id="Trazado_45931" data-name="Trazado 45931" d="M210.747,1109.586V761.718H471.629v347.868ZM477.454,743H205v385.3H477.454Z" transform="translate(-205 -742.941)" fill="#442961"/>
      </g>
      <path id="Trazado_45932" data-name="Trazado 45932" d="M1468.864,2345.194V2349l-1.864,1.087.078,2.874,3.107-2.408.932-.777v-1.4l.078-2.719,3.573-2.718h8.854l7.145,6.368v-1.864l-5.98-5.747-11.262-.7Z" transform="translate(-1368.985 -2216.83)" fill="#1e4571"/>
    </g>
    <path id="Trazado_45933" data-name="Trazado 45933" d="M333.367,1278.278h-12.66l.388,5.281-1.476-.854-9.553-5.437L308.9,1219.1h2.175l1.165,50.561,4.194,9.242,2.951,1.087-4.5-57.939,3.728-1.942,19.727,23.3,1.01-1.553-18.8-26.407,2.951-2.8,44.037,59.8,1.243-1.165-8.776-12.737-12.427-18.1L327.7,1211.563l1.4-1.01,8.7,8.7,1.709-2.33,3.573,2.563-5.825-16.232-4.738-1.243,8.388-34.251,23.378-7.534-1.942-3.417-25.164,7.456-10.252,27.028-1.243,11.106-9.631,10.718-1.942,2.175H303.543l-6.757-6.6-6.369.932-7.378,5.67.932-5.126-1.864-1.631,4.039-4.5,10.64-2.408v-1.631l-7.689-.932-6.6,2.8v-1.864l1.709-.777v-5.048H280.4v-2.951l8.932-1.864,1.476,2.252,7.844,1.786,1.476-1.32-8.388-1.553-3.34-5.281h-6.757l2.019-6.291,9.941-3.728,11.106,3.184,1.553,2.1v-9.941l9.941-1.087,10.485-11.417,13.9-3.029,18.329-4.039-2.175-7.068,2.33-5.9-2.252,2.485v-14.912l1.32-.7-5.2-9.941v-6.291L343,1088.384v-8.543l.078-25.009,17.708-24.31,3.961.233-3.417-2.33,26.484-16.31h16l9.864,4.349,18.8-1.631,15.766,5.9-3.495,2.718,7.223-2.175,14.679,11.572-.621,1.631-2.718-1.631,16.388,25.941-1.553,29.669-1.476,2.33-5.359,8.7v4.893l-7.611,16.232-.078,8.233-2.019,1.165v16.155l-1.087,1.553-3.34,4.66,18.8,4.815,3.65.932,11.495,9.242h23.222V1177l16.232,4.194.155,9.475-2.1,6.291,9.864,28.193-3.961,29.28-4.349,4.427-6.369-.078.311-48-26.873,72.463h-7.689l-6.679,4.893h-5.281l-2.175-8.155-5.281-.155,7.223-18.951,2.485-6.524,1.709-22.756,3.65,29.28,2.1,16.931,4.815-.932-5.9-47.92-1.786-14.757-3.34.466,2.563,12.582-1.01.155-4.815-15.533-.621-18.64-.544-16.388-10.1-16.854-12.349-3.573-2.175,3.029,12.582,3.806,4.5,6.446.932,22.446-24.853,51.415.155-.078,4.893-8.7,22.29-40v18.329l6.291,14.213-22.446,68.657-3.728-1.087-9.864-2.951-5.2,6.369-3.34-5.592-13.514.078-1.476,1.553-19.883,7.922-24.7-7.145-5.359-5.281-46.445-45.746-2.563,7.844,12.815,25.863Zm-26.873-21.747H296.63L290.106,1249l3.883-25.708-12.349,11.262,2.408-13.592-2.33-2.563,7.844-4.116,5.747.233.544-3.573,7.068,6.524-3.34,13.825,1.631.777,3.961-12.349,1.32-.078ZM279,984v347.868H539.882V984Zm63.143,301.191-13.359-23.3,3.573-4.893,26.407,29.358-7.689,1.942-1.631-3.184-7.223.078Zm164.109-16,11.262-25.319-3.65,25.319-7.611-.078Z" transform="translate(-68.253 -222.302)" fill="#442961"/>
    <path id="Trazado_45934" data-name="Trazado 45934" d="M471.707,1109.586H210.825V761.718H471.707ZM477.454,743H205v385.3H477.454Z" transform="translate(0 -0.019)" fill="#442961"/>
    <path id="Trazado_45935" data-name="Trazado 45935" d="M2112.078,2435.8l4.5.078v-1.708l.078-1.087L2112,2433v1.165Z" transform="translate(-1758.89 -1558.763)" fill="#442961"/>
    <path id="Trazado_45936" data-name="Trazado 45936" d="M1607.874,2420.553V2419H1605v2.874h2.874Z" transform="translate(-1291.267 -1545.85)" fill="#442961"/>
  </g>
</svg>
