<svg xmlns="http://www.w3.org/2000/svg" xmlns:xlink="http://www.w3.org/1999/xlink" width="187" height="188" viewBox="0 0 187 188">
  <defs>
    <clipPath id="clip-path">
      <circle id="Elipse_988" data-name="Elipse 988" cx="93.5" cy="93.5" r="93.5" transform="translate(461 8840)" fill="#fff" stroke="#707070" stroke-width="1"/>
    </clipPath>
  </defs>
  <g id="Grupo_18073" data-name="Grupo 18073" transform="translate(-461 -8961)">
    <g id="Enmascarar_grupo_3" data-name="Enmascarar grupo 3" transform="translate(0 121)" clip-path="url(#clip-path)">
      <g id="Grupo_18033" data-name="Grupo 18033" transform="translate(386.86 8792.525)">
        <g id="Grupo_18016" data-name="Grupo 18016" transform="translate(178.443 156.484)">
          <path id="Trazado_46613" data-name="Trazado 46613" d="M271.37,246.273C295.526,244,320.253,263.463,328.6,308.8l-19.459,12.3S289,292.889,281.109,282.017Z" transform="translate(-271.37 -246.095)" fill="#155185"/>
        </g>
        <path id="Trazado_46614" data-name="Trazado 46614" d="M242.374,226.295c-1.728-3.171-4.722-4.465-11.254-5.484-5.74-3.285-12.612,5.329-14.929,5.484.865,5.7,1.147,11.5,5.62,13.355.207.121,9.243,2.45,13.2.047A23.7,23.7,0,0,0,242.374,226.295Z" transform="translate(-65.244 -76.551)" fill="#ffaf92"/>
        <path id="Trazado_46615" data-name="Trazado 46615" d="M227.258,496.238v.021c.3.017.609.039.913.055h.026a129.36,129.36,0,0,0,14.681-.158C239.437,496.325,232.581,496.3,227.258,496.238Z" transform="translate(-70.796 -215.062)" fill="none"/>
        <path id="Trazado_46616" data-name="Trazado 46616" d="M223.633,260.777a3.083,3.083,0,0,1,.092.688c-1.208,16.707-3.821,72.75-2.73,117.477,5.323.057,19.176-.11,19.458-.131,0,0-3.094-120.633-3.163-121.428-3.54,1.641-9.33,2.729-13.805.114C224.032,258.576,223.422,259.4,223.633,260.777Z" transform="translate(-67.524 -95.273)" fill="#ff9"/>
        <path id="Trazado_46617" data-name="Trazado 46617" d="M259.454,496.058c-.283.02-.565.03-.847.049C258.915,496.092,259.2,496.076,259.454,496.058Z" transform="translate(-86.524 -215.012)" fill="#191927"/>
        <path id="Trazado_46618" data-name="Trazado 46618" d="M226.385,496.31l.436.026v-.021Z" transform="translate(-70.358 -215.139)"/>
        <path id="Trazado_46619" data-name="Trazado 46619" d="M196.39,375.746c-3.037-.039-5.187-.08-5.187-.08s5.333-117.921,5.6-119.636a37.108,37.108,0,0,0-4.379,1.192L190.5,381.73l-20.6,1.342.881,4.671c4.866,1.8,15.458,3.87,26.77,4.977-.076-2.523-.15-5.1-.222-7.727-.682-.054.031-.106-.651-.176Z" transform="translate(-42.019 -94.595)" fill="#1e1f31"/>
        <path id="Trazado_46620" data-name="Trazado 46620" d="M212.654,375.666s5.736.1,5.882.1c-1.091-44.727-.073-98.278,1.135-114.985.017-.233.8-2.312.471-3.563-.4-.236-1.51-.894-1.889-1.192C215.833,255.891,212.654,375.666,212.654,375.666Z" transform="translate(-63.47 -94.595)" fill="#d7d766"/>
        <path id="Trazado_46621" data-name="Trazado 46621" d="M233.443,495.692q-8.348.491-16.67.158h-.029c-.346-.016-.692-.038-1.037-.055q.129,4.673.27,9.2c.364.026.727.061,1.091.083h.295a112.105,112.105,0,0,0,16.925-.337l.118-9.1C234.121,495.661,233.792,495.677,233.443,495.692Z" transform="translate(-65.001 -214.804)" fill="#191927"/>
        <path id="Trazado_46622" data-name="Trazado 46622" d="M209.823,232.477a20.674,20.674,0,0,0,8.9,10.392c-1.954-2.791-4.45-11.8-.784-14.786C214.1,225.234,209.823,232.477,209.823,232.477Z" transform="translate(-62.05 -80.241)" opacity="0.2"/>
        <path id="Trazado_46623" data-name="Trazado 46623" d="M219.246,261.492s9.856,6.658,17.024,1.426c0,0-2.617,7.052-17.519,1.426Z" transform="translate(-66.529 -97.335)" fill="#d7d766"/>
        <g id="Grupo_18017" data-name="Grupo 18017" transform="translate(115.153 152.422)">
          <path id="Trazado_46624" data-name="Trazado 46624" d="M179.785,256.1c-.028-.192-22.663-1-25.439,15.939a801.007,801.007,0,0,0-9.982,106.445,3.474,3.474,0,0,0,1.525,3.05,31.422,31.422,0,0,0,6.665,3.08q.881.311,1.841.622,1.011.312,2.125.622,1.218.337,2.489.674a120.69,120.69,0,0,0,19.857,3.033l2.177-.081c-2.3-48.98,1.308-116.172,3-133.478C180.772,254.1,180.569,261.432,179.785,256.1Z" transform="translate(-144.363 -246.844)" fill="#155185"/>
          <path id="Trazado_46625" data-name="Trazado 46625" d="M253.637,237.943c-.864,5.7-3.839,7.515-6.924,11.073-2.646,18.012-8.9,55.178-4.6,131.859,16.305.086,32.857-5.008,39.143-8.089a6.338,6.338,0,0,0,3.475-5.864c-.653-39.816-1.4-61.381-5.764-97.194C278.3,264.273,278.579,255.054,253.637,237.943Z" transform="translate(-192.666 -237.943)" fill="#155185"/>
        </g>
        <g id="Grupo_18018" data-name="Grupo 18018" transform="translate(89.268 157.214)">
          <path id="Trazado_46626" data-name="Trazado 46626" d="M151.273,247.559c-20.779,1.133-47.112,17.235-58.856,63l22.891,13.4s17.027-30.4,24.922-41.27Z" transform="translate(-92.417 -247.559)" fill="#155185"/>
        </g>
        <path id="Trazado_46627" data-name="Trazado 46627" d="M266.514,257.2c-5.65-5.351-13.585-1.023-13.89-1.317-.9-.865,2.379-8.85,7.324-8.7C265.023,247.329,267.287,255.6,266.514,257.2Z" transform="translate(-83.448 -90.154)" fill="#144573"/>
        <path id="Trazado_46628" data-name="Trazado 46628" d="M196.023,257.732c5.219-5.587,13.216-1.622,13.5-1.929.828-.9-2.823-8.719-7.647-8.354C196.924,247.822,195.178,256.169,196.023,257.732Z" transform="translate(-55.024 -90.283)" fill="#144573"/>
        <path id="Trazado_46629" data-name="Trazado 46629" d="M219.811,249.871" transform="translate(-67.06 -91.505)" fill="#2874b6"/>
        <path id="Trazado_46630" data-name="Trazado 46630" d="M224.359,267.563" transform="translate(-69.342 -100.381)" fill="#2874b6"/>
        <g id="Grupo_18019" data-name="Grupo 18019" transform="translate(140.744 145.82)">
          <path id="Trazado_46631" data-name="Trazado 46631" d="M206.38,224.831l-3.208,2.651A19.013,19.013,0,0,0,195.95,245.7c.681-2.788,4.848-6.309,6.425-7.072,2.58.815,5.031,3.122,7.2,5.466a7.812,7.812,0,0,0,.007-4.878c-1.108-3.057-3.276-6.517-1.464-10.625l1.574-2.356S207.192,224.15,206.38,224.831Z" transform="translate(-195.718 -224.694)" fill="#2874b6"/>
          <path id="Trazado_46632" data-name="Trazado 46632" d="M262.2,227.965a4.9,4.9,0,0,0-4.407-1.944c-.272,4.764.642,8.874-3.6,13.961a7.064,7.064,0,0,0-1.977,5.2,12.025,12.025,0,0,1,7.761-4.227,22.438,22.438,0,0,1,6.574,5.621C268.685,236.3,262.2,227.965,262.2,227.965Z" transform="translate(-224.062 -225.36)" fill="#2874b6"/>
        </g>
        <path id="Trazado_46633" data-name="Trazado 46633" d="M149.674,357.107l1.94-18.214-5.045,23.732Z" transform="translate(-30.316 -136.165)" fill="#144573"/>
        <path id="Trazado_46634" data-name="Trazado 46634" d="M116.761,361.177c-1.856,7.828-11.16,14.11-19.813,11.839s-11.956-11.75-10.461-19.648,9.086-18.7,17.739-16.433S119.713,348.729,116.761,361.177Z" transform="translate(0 -135.029)" fill="#2874b6"/>
        <g id="Grupo_18025" data-name="Grupo 18025" transform="translate(137.167 67.475)">
          <g id="Grupo_18020" data-name="Grupo 18020" transform="translate(0 40.46)">
            <path id="Trazado_46635" data-name="Trazado 46635" d="M189.5,151.328a8.29,8.29,0,0,0-.958,4.3,9.267,9.267,0,0,0,1.659,5.34,5.236,5.236,0,0,0,3.876,2.5,3.952,3.952,0,0,0,3.145-1.129,5.2,5.2,0,0,0,.634-.744,5.958,5.958,0,0,0,.353-.51,7.332,7.332,0,0,0,.606-1.219,7.993,7.993,0,0,0,.507-2.194,9.659,9.659,0,0,0,.034-1.153,9.3,9.3,0,0,0-1.68-5.366,5.189,5.189,0,0,0-3.855-2.474,4.023,4.023,0,0,0-2.112.4,4.748,4.748,0,0,0-1.689,1.45,5.028,5.028,0,0,0-.438.668A.6.6,0,0,0,189.5,151.328Z" transform="translate(-188.538 -148.667)" fill="#ffaf92"/>
            <path id="Trazado_46636" data-name="Trazado 46636" d="M201.441,159.593c-2.172-5.476-3.289-7.866-6.971-7.068,3.025,1.063,3.424,3.7,3.887,8.163.247-.4,2.393,1.6,2.562,1.164A8.224,8.224,0,0,0,201.441,159.593Z" transform="translate(-191.514 -150.527)" fill="#f0a589"/>
            <path id="Trazado_46637" data-name="Trazado 46637" d="M188.61,163.986a9.083,9.083,0,0,0,1.627,4.666,5.236,5.236,0,0,0,3.876,2.5,3.912,3.912,0,0,0,2.869-.891A9.334,9.334,0,0,1,188.61,163.986Z" transform="translate(-188.574 -156.352)" fill="#f0a589"/>
          </g>
          <g id="Grupo_18021" data-name="Grupo 18021" transform="translate(45.875 42.187)">
            <path id="Trazado_46638" data-name="Trazado 46638" d="M291.891,155.531a5.305,5.305,0,0,0-.332-.771,4.986,4.986,0,0,0-1.484-1.808,4.232,4.232,0,0,0-2.113-.8,5.453,5.453,0,0,0-4.44,1.859,9.773,9.773,0,0,0-2.717,5.248,10.077,10.077,0,0,0-.174,1.2,8.4,8.4,0,0,0,.125,2.364,7.714,7.714,0,0,0,.406,1.371,6.29,6.29,0,0,0,.272.592,5.408,5.408,0,0,0,.521.885,4.152,4.152,0,0,0,3.05,1.741,5.5,5.5,0,0,0,4.467-1.882,9.735,9.735,0,0,0,2.69-5.225,8.7,8.7,0,0,0-.208-4.625A.641.641,0,0,0,291.891,155.531Z" transform="translate(-280.598 -152.134)" fill="#ffaf92"/>
            <path id="Trazado_46639" data-name="Trazado 46639" d="M282.5,165.276c.093.47,1.649-1.65,1.827-1.206.988-4.575,3.078-6.5,6.306-7.029-3.708-.941-6.68.554-8.258,5.872A8.421,8.421,0,0,0,282.5,165.276Z" transform="translate(-281.474 -154.464)" fill="#f0a589"/>
            <path id="Trazado_46640" data-name="Trazado 46640" d="M292.708,168.916c-3.231,6.064-9.48,4.27-10.935,3.749.076.187.158.369.249.543a5.406,5.406,0,0,0,.521.885,4.152,4.152,0,0,0,3.05,1.741,5.5,5.5,0,0,0,4.467-1.882A9.682,9.682,0,0,0,292.708,168.916Z" transform="translate(-281.187 -160.553)" fill="#f0a589"/>
          </g>
          <path id="Trazado_46641" data-name="Trazado 46641" d="M201.549,132.606c-.834,7.225-2.589,20.877-.893,26.12,2.561,7.919,22.984,19.173,37.989,3.612,5.952-6.173,4.191-17.936,4.746-24.744.3-3.611,2.2-20.091-3.5-26.245-6.52-7.048-30.01-7.78-34.317,1.251S202,128.719,201.549,132.606Z" transform="translate(-194.26 -86.774)" fill="#ffaf92"/>
          <g id="Grupo_18022" data-name="Grupo 18022" transform="translate(5.684 46.217)">
            <path id="Trazado_46642" data-name="Trazado 46642" d="M238.645,192.622c4.675-4.849,4.591-13.146,4.61-19.782-.579,6.124-2.157,13.994-6.336,18.513-9.4,10.166-25.708,6.466-32.173-.154-4.847-4.962-4.205-18.508-3.594-24.891-.865,7.509-1.951,18.2-.5,22.7C203.217,196.929,223.64,208.183,238.645,192.622Z" transform="translate(-199.944 -163.274)" fill="#f0a589"/>
            <path id="Trazado_46643" data-name="Trazado 46643" d="M287.429,161.051s.029.627.034,1.69c.062-.733.128-1.582.187-2.521C287.506,160.745,287.429,161.051,287.429,161.051Z" transform="translate(-243.833 -160.22)" fill="#f0a589"/>
          </g>
          <path id="Trazado_46644" data-name="Trazado 46644" d="M202.363,123.777s1.1-20.036,8.7-23.23,23.2-2.85,29.629,3.062,3.078,24.163,3.078,24.163,9.314-20.92,1.673-29.962c-9.125-10.8-29.353-9.886-37.11-1.369C201.146,104.332,200.88,116.212,202.363,123.777Z" transform="translate(-195.111 -78.716)" fill="#630"/>
          <path id="Trazado_46645" data-name="Trazado 46645" d="M242.37,170.192c-.015-2.264-.413-7.375-.128-12.416H241.6c-.855,8.34-3.213,13.409-6.574,15.162-10.385-6.516-20.6-6.454-31.805-1.6-2.428-2.64-3.434-5.532-3.567-13.728a77.617,77.617,0,0,1-2.429,13.864c-5.751,19.647,14.984,26.426,21.19,27.827C242.934,193.559,244.281,180.088,242.37,170.192Z" transform="translate(-192.396 -112.696)" fill="#630"/>
          <g id="Grupo_18023" data-name="Grupo 18023" transform="translate(20.831 50.19)">
            <path id="Trazado_46646" data-name="Trazado 46646" d="M242.995,170.9q-.111-.106-.2-.186a3.509,3.509,0,0,1,.037,4.745,5.141,5.141,0,0,1-3.877,2.036l.191.016a4.878,4.878,0,0,0,3.422-.918,3.516,3.516,0,0,0,1.624-2.729A3.565,3.565,0,0,0,242.995,170.9Z" transform="translate(-234.662 -169.459)" fill="#d98465"/>
            <path id="Trazado_46647" data-name="Trazado 46647" d="M238.472,169.451a5.176,5.176,0,0,0-3.05-1.241,5.23,5.23,0,0,0-3.47.914,3.7,3.7,0,0,0-1.6,2.755,3.611,3.611,0,0,0,1.175,2.939,5.009,5.009,0,0,0,2.561,1.321,3.056,3.056,0,0,0,.546.094,5.141,5.141,0,0,0,3.877-2.036A3.509,3.509,0,0,0,238.472,169.451Z" transform="translate(-230.341 -168.193)" fill="#ffaf92"/>
          </g>
          <path id="Trazado_46648" data-name="Trazado 46648" d="M223.095,128.27s1.7,9.948-.749,16.188c-1.533,3.9-9.786,2.822-11.163-.824-.928-2.459-2-8.1.243-10.987C213.924,129.435,223.095,128.27,223.095,128.27Z" transform="translate(-199.353 -97.975)" fill="#f0a082"/>
          <path id="Trazado_46649" data-name="Trazado 46649" d="M223.3,155.8c-2.2-5.467-9.317-4.68-10.827-1.213a2.248,2.248,0,0,0,.012,1.723c1.155,3.268,11.382,3.331,10.814-.51" transform="translate(-200.462 -109.798)" fill="#fff"/>
          <path id="Trazado_46650" data-name="Trazado 46650" d="M223.4,156.34a3.836,3.836,0,0,0-.1-2.464,2.133,2.133,0,0,0-1.441-1.365,2.158,2.158,0,0,0-1.934.482,3.87,3.87,0,0,0-1.316,2.094,3.712,3.712,0,0,0,.1,2.435,2.116,2.116,0,0,0,1.434,1.394,2.142,2.142,0,0,0,1.942-.51,3.742,3.742,0,0,0,1.307-2.066" transform="translate(-203.55 -110.102)" fill="#502800"/>
          <path id="Trazado_46651" data-name="Trazado 46651" d="M254.673,129.806c-1.548,2.591-3.42,12.036-1.734,15.031s9.5,2.434,10.665,1.1a12.553,12.553,0,0,0,2.072-9.1C264.746,133.148,254.673,129.806,254.673,129.806Z" transform="translate(-220.513 -98.745)" fill="#f0a082"/>
          <path id="Trazado_46652" data-name="Trazado 46652" d="M223.312,154.618l.011-.025c.042-4.292-10.964-8.787-11.046-.313C214.8,149.2,221.482,152.018,223.312,154.618Z" transform="translate(-200.447 -108.62)" fill="#2b0e00"/>
          <path id="Trazado_46653" data-name="Trazado 46653" d="M253.585,156.1c2.308-5.423,9.406-4.5,10.849-1a2.307,2.307,0,0,1-.019,1.67c-.891,2.974-10.438,2.811-10.829-.668" transform="translate(-221.171 -110.006)" fill="#fff"/>
          <path id="Trazado_46654" data-name="Trazado 46654" d="M239.789,213.788q.007-1.008-1-.68a7.273,7.273,0,0,1-2.473.341,8.386,8.386,0,0,1-2.588-.38q-1.077-.344-1.084.664a2.657,2.657,0,0,0,1.016,1.951,3.65,3.65,0,0,0,2.535.979,3.563,3.563,0,0,0,2.526-.94A2.641,2.641,0,0,0,239.789,213.788Z" transform="translate(-210.664 -140.473)" opacity="0.2"/>
          <path id="Trazado_46655" data-name="Trazado 46655" d="M212.785,88.99s13.123,7.112,31.488,1.443c6.92-2.136,7.844-3.984,10.045.687,5.429-9.357-8.187-33.143-33.492-19.542C214.915,70.253,203.01,81.447,212.785,88.99Z" transform="translate(-198.836 -67.475)" fill="#6b3500"/>
          <path id="Trazado_46656" data-name="Trazado 46656" d="M223.792,132.979c-4.058-.291-11.351,1.159-13.318,2.431.631-5.135,8.066-6.735,12.81-7.14A40.579,40.579,0,0,1,223.792,132.979Z" transform="translate(-199.543 -97.975)" fill="#630"/>
          <path id="Trazado_46657" data-name="Trazado 46657" d="M264.832,156.261a3.678,3.678,0,0,0-.1-2.446,2.164,2.164,0,0,0-1.483-1.355,2.286,2.286,0,0,0-1.993.479,3.831,3.831,0,0,0-1.355,2.079,3.559,3.559,0,0,0,.107,2.417,2.147,2.147,0,0,0,1.476,1.383,2.268,2.268,0,0,0,2-.507,3.707,3.707,0,0,0,1.347-2.051" transform="translate(-224.259 -110.078)" fill="#502800"/>
          <path id="Trazado_46658" data-name="Trazado 46658" d="M253.6,154.975l-.011-.025c.042-4.293,11.052-8.515,10.969-.041C262.135,149.78,255.477,152.411,253.6,154.975Z" transform="translate(-221.172 -108.884)" fill="#2b0e00"/>
          <path id="Trazado_46659" data-name="Trazado 46659" d="M258.726,70.12a19.59,19.59,0,0,0-10.258-2.633h-.046q-.638.009-1.294.055l-.18.016c-.34.026-.685.062-1.033.1-.139.017-.277.034-.417.053q-.5.07-1.015.16c-.093.016-.184.03-.277.047-.406.077-.817.167-1.232.265-.137.032-.276.068-.414.1q-.528.133-1.065.289c-.095.027-.189.052-.284.081q-.7.211-1.417.462l-.161.058q-.683.244-1.38.526l-.1.039c-3.747,4.191-3.288,13.666,4.036,22.867a46.115,46.115,0,0,0,4.828-.124C241.274,74.963,244.055,65.422,258.726,70.12Z" transform="translate(-212.272 -67.48)" fill="#783c00"/>
          <path id="Trazado_46660" data-name="Trazado 46660" d="M266.715,138.558a7.467,7.467,0,0,0-.2-1.8c-.931-3.694-11.05-7.116-11.05-7.116a18.572,18.572,0,0,0-1.521,4.719A50.089,50.089,0,0,1,266.715,138.558Z" transform="translate(-221.35 -98.664)" fill="#630"/>
          <path id="Trazado_46661" data-name="Trazado 46661" d="M223.5,157.789a1.75,1.75,0,0,0-.044-1.123.943.943,0,0,0-1.538-.4,1.76,1.76,0,0,0-.6.954,1.693,1.693,0,0,0,.047,1.109.963.963,0,0,0,.653.635.976.976,0,0,0,.885-.232,1.7,1.7,0,0,0,.6-.941" transform="translate(-204.947 -111.893)" fill="#2b0e00"/>
          <path id="Trazado_46662" data-name="Trazado 46662" d="M264.931,157.692a1.75,1.75,0,0,0-.044-1.123.973.973,0,0,0-.656-.622.983.983,0,0,0-.882.219,1.765,1.765,0,0,0-.6.954,1.694,1.694,0,0,0,.047,1.11.964.964,0,0,0,.653.635.975.975,0,0,0,.885-.232,1.7,1.7,0,0,0,.6-.941" transform="translate(-225.734 -111.845)" fill="#2b0e00"/>
          <path id="Trazado_46663" data-name="Trazado 46663" d="M219.606,157.589q-.025-.318-.445-.51a1.752,1.752,0,0,0-.725-.15h-.029c-.072,0-.145,0-.22.011a1.924,1.924,0,0,0-.938.324.674.674,0,0,0-.36.588q.025.318.445.51a1.608,1.608,0,0,0,.4.122,1.964,1.964,0,0,0,.356.028c.072,0,.145,0,.22-.011a1.929,1.929,0,0,0,.938-.324A.674.674,0,0,0,219.606,157.589Z" transform="translate(-202.76 -112.352)" fill="#fff" opacity="0.8"/>
          <path id="Trazado_46664" data-name="Trazado 46664" d="M260.875,158.527q-.024-.315-.442-.506a1.743,1.743,0,0,0-.719-.149h-.029c-.071,0-.144,0-.219.012a1.909,1.909,0,0,0-.931.321.67.67,0,0,0-.357.584q.025.315.442.506a1.612,1.612,0,0,0,.4.121,1.984,1.984,0,0,0,.354.028c.071,0,.144,0,.218-.011a1.915,1.915,0,0,0,.931-.321A.668.668,0,0,0,260.875,158.527Z" transform="translate(-223.474 -112.826)" fill="#fff" opacity="0.8"/>
          <g id="Grupo_18024" data-name="Grupo 18024" transform="translate(14.256 58.604)">
            <path id="Trazado_46665" data-name="Trazado 46665" d="M229.709,198.115q-.229,0-.464-.013c-3.548-.138-6.23-1.147-7.972-3a7.649,7.649,0,0,1-2.029-5.592l.13-1.327,1.291.6a22.457,22.457,0,0,0,9.019,1.85h0a38.58,38.58,0,0,0,10.079-1.208l1.311-.375,0,1.288c0,.08-.162,7.994-11.361,7.779Z" transform="translate(-218.191 -186.636)" fill="#741919"/>
            <path id="Trazado_46666" data-name="Trazado 46666" d="M219.234,188.173a23.71,23.71,0,0,0,9.449,1.948,39.385,39.385,0,0,0,10.389-1.248c0,.747-.7,7.056-10.365,6.871-.146,0-.294-.007-.443-.013-9.735-.376-9.03-7.558-9.03-7.558m-1.725-2.86-.26,2.653a8.619,8.619,0,0,0,2.279,6.3c1.933,2.058,4.859,3.176,8.695,3.324.163.006.325.011.484.014,10.108.194,12.348-6.2,12.358-8.687l.011-2.578-2.624.751a37.628,37.628,0,0,1-9.77,1.168,21.414,21.414,0,0,1-8.593-1.752l-2.581-1.2Z" transform="translate(-217.19 -185.196)" fill="#ffaf92"/>
            <path id="Trazado_46667" data-name="Trazado 46667" d="M234.455,201.514c-2.9-.056-5.22.245-6.491.9a11.931,11.931,0,0,0,5.684,1.44,13.419,13.419,0,0,0,7.138-1.357A16.386,16.386,0,0,0,234.455,201.514Z" transform="translate(-222.574 -193.321)" fill="#8c2e2b"/>
            <path id="Trazado_46668" data-name="Trazado 46668" d="M225.395,192.661c-.054.8,1.563,3.768,7.041,3.844,6.606.092,7.889-2.2,8.212-3.381A38.472,38.472,0,0,1,225.395,192.661Z" transform="translate(-221.284 -188.882)" fill="#ededed"/>
            <path id="Trazado_46669" data-name="Trazado 46669" d="M234.379,195.567a18.246,18.246,0,0,0-6.118.726,9.022,9.022,0,0,0,5.613,1.667c3.776.052,5.811-.675,6.924-1.527A29.071,29.071,0,0,0,234.379,195.567Z" transform="translate(-222.723 -190.338)" fill="#fff"/>
            <path id="Trazado_46670" data-name="Trazado 46670" d="M228.641,190a46.271,46.271,0,0,0,12.678-1.717l-.227-2.33-23.744-.879-.2,2.392A31.312,31.312,0,0,0,228.641,190Z" transform="translate(-217.147 -185.078)" fill="#630"/>
          </g>
        </g>
        <g id="Grupo_18028" data-name="Grupo 18028" transform="translate(89.784 87.288)">
          <path id="Trazado_46671" data-name="Trazado 46671" d="M137.075,186.143c1.538-.561,4.8.245,5.062,8.263s-6.058,5.145-6.058,5.145-1.714-6.376-1.289-9.1C135.262,187.432,136.118,186.493,137.075,186.143Z" transform="translate(-114.157 -146.752)" fill="#cc886e"/>
          <g id="Grupo_18026" data-name="Grupo 18026" transform="translate(8.242)">
            <circle id="Elipse_987" data-name="Elipse 987" cx="11.635" cy="11.635" r="11.635" transform="matrix(0.585, -0.811, 0.811, 0.585, 0, 18.878)" fill="#e0e0e0"/>
            <rect id="Rectángulo_4431" data-name="Rectángulo 4431" width="2.265" height="6.757" transform="translate(15.11 28.313)" fill="#4d4d4d"/>
            <path id="Trazado_46672" data-name="Trazado 46672" d="M142.579,167.64V165.1c-.373.036-.75.056-1.132.056s-.76-.02-1.132-.056v2.54c.374.029.751.049,1.133.049S142.2,167.67,142.579,167.64Z" transform="translate(-125.204 -136.265)" fill="#1a1a1a"/>
            <rect id="Rectángulo_4432" data-name="Rectángulo 4432" width="4.008" height="20.015" transform="translate(14.238 35.07)" fill="#333"/>
            <path id="Trazado_46673" data-name="Trazado 46673" d="M139.028,119.565a11.636,11.636,0,1,0-15.655,17.21C124.251,125.1,135.136,120.752,139.028,119.565Z" transform="translate(-114.687 -111.802)" fill="#fff" opacity="0.4"/>
            <rect id="Rectángulo_4433" data-name="Rectángulo 4433" width="0.793" height="20.015" transform="translate(14.816 35.07)" fill="#4d4d4d"/>
            <rect id="Rectángulo_4434" data-name="Rectángulo 4434" width="1.318" height="20.015" transform="translate(16.928 35.07)" fill="#1a1a1a"/>
            <path id="Trazado_46674" data-name="Trazado 46674" d="M128.322,111.395a14.169,14.169,0,1,0,14.169,14.169A14.17,14.17,0,0,0,128.322,111.395Zm0,25.8a11.635,11.635,0,1,1,11.635-11.635A11.635,11.635,0,0,1,128.322,137.2Z" transform="translate(-112.08 -109.322)" fill="#333" stroke="#666" stroke-miterlimit="10" stroke-width="1"/>
            <path id="Trazado_46675" data-name="Trazado 46675" d="M154.894,143.977c-.079.326-.169.653-.281.977a10.725,10.725,0,0,1-7.782,6.976A26.267,26.267,0,0,0,154.894,143.977Z" transform="translate(-128.474 -125.668)" fill="#fff"/>
            <path id="Trazado_46676" data-name="Trazado 46676" d="M122.4,130.045a9.249,9.249,0,0,1,.823-4.563c1.754-3.955,5.622-6.319,8.639-5.281a4.275,4.275,0,0,1,.695.313C129.366,120.578,123.115,124.644,122.4,130.045Z" transform="translate(-116.199 -113.618)" fill="#fff"/>
          </g>
          <path id="Trazado_46677" data-name="Trazado 46677" d="M107.941,224.95c-.342-10.636-3.614-18.382-2.963-24.237.161-1.451,3.03-5.3,3.919-7.241s1.1-3.377,3.3-4.29,6.947-2.437,9.052-.917a23.746,23.746,0,0,0,3.327,2.509c2.055.868,1.532,4.751-3.422,3.292,0,0-4.5,1.047-5.4.67l-.727,1.8s3.754-1.784,4.568-1.6,8.791,5.551,4.942,8.348c0,0,1.862,3.417,1.3,4.548,0,0,2.255,3.478.447,4.978a21.7,21.7,0,0,1-4.637,2.674s2.731,4.246-2.879,13.393c0,0,1.194,24.17,1.907,29.647s1.252,31.617-13.888,35.887-15.52-20-10.328-31.651C99.547,255.84,108.106,229.593,107.941,224.95Z" transform="translate(-93.453 -147.563)" fill="#ffaf92"/>
          <path id="Trazado_46678" data-name="Trazado 46678" d="M127.372,217.935a8.289,8.289,0,0,0-1.1-2.744,1.213,1.213,0,0,0,.106-.52,3.985,3.985,0,0,0-.158-1.036c-.033-.125-.071-.252-.112-.38a17.6,17.6,0,0,0-1.136-2.612,3.3,3.3,0,0,0,.327-.269c.026-.025.046-.052.071-.077a2.7,2.7,0,0,0,.19-.206c.016-.02.026-.042.041-.062a2.174,2.174,0,0,0,.157-.233c.013-.023.02-.047.032-.07a2.157,2.157,0,0,0,.108-.235c.009-.028.014-.056.022-.084a2,2,0,0,0,.062-.231c0-.023,0-.047.007-.071a2.033,2.033,0,0,0,.025-.253c0-.027,0-.055,0-.082a2.443,2.443,0,0,0-.012-.248c0-.028-.011-.058-.016-.087-.012-.082-.025-.165-.045-.249-.006-.025-.016-.05-.023-.075-.023-.087-.048-.175-.079-.263-.01-.027-.023-.055-.034-.082-.033-.086-.066-.172-.107-.259-.011-.025-.026-.051-.038-.076-.043-.089-.087-.177-.137-.266-.011-.021-.025-.041-.037-.062-.054-.093-.108-.186-.168-.279-.014-.022-.031-.044-.046-.067-.06-.091-.122-.182-.188-.273-.015-.021-.033-.043-.049-.064-.067-.091-.136-.181-.208-.271-.019-.024-.04-.048-.06-.072-.071-.087-.143-.174-.218-.26l-.047-.052c-.081-.092-.163-.183-.248-.273l-.057-.058c-.083-.087-.166-.173-.252-.259l-.069-.066c-.083-.082-.166-.163-.25-.242l-.059-.054c-.089-.082-.177-.164-.267-.243l-.071-.062c-.085-.075-.171-.15-.257-.223l-.1-.085c-.076-.063-.151-.127-.226-.188l-.111-.088c-.071-.057-.143-.115-.213-.169l-.121-.092-.2-.149-.12-.087-.187-.137c-.051-.037-.1-.07-.15-.105l-.141-.1-.166-.112-.109-.073c-.064-.042-.125-.08-.185-.119l-.068-.043-.175-.107-.055-.033c-.064-.037-.123-.071-.179-.1l-.022-.013c-.06-.033-.115-.062-.165-.087l-.005,0c-.05-.025-.095-.045-.134-.061h0a.689.689,0,0,0-.1-.033h0l-.231-.009h0a2.361,2.361,0,0,0-.308.046c.395.485,3,1.262,2.748,5.374.943.246,3.237,3.378,2.173,6.29.892.089,2.726,3.618,1.169,4.822-1.349.811-3.846,2.125-3.846,2.125s-1.909.805-1.495,1.91c1.131,3.021.225,10.321-2.034,12.585a3.528,3.528,0,0,0-.8,2.89c.577,5.343,2,19.577,1.77,27.962-.287,10.473-4.406,30.192-13.992,31.579-6.53.945-9.632-2.664-10.883-6.667h0a23.993,23.993,0,0,0,.764,3.275c.008.026.017.052.025.079.056.176.114.351.173.522.016.045.033.089.049.133.054.152.11.3.167.452.021.054.043.106.064.159.055.137.111.274.168.408.025.059.052.117.078.175.056.125.112.25.171.372.03.063.061.124.092.186.057.115.115.229.174.341.034.065.07.127.105.19.059.107.118.213.179.317.038.064.077.126.116.189.061.1.123.2.186.294.042.064.085.126.128.188.063.092.126.184.191.273.045.062.092.123.139.184q.1.129.2.254c.049.06.1.119.149.177.068.08.137.159.207.236q.078.086.159.169c.07.074.142.146.215.218.056.054.113.108.169.16.073.068.148.135.223.2.059.051.119.1.179.15.077.062.154.123.233.182.063.047.126.094.19.14s.159.111.241.164.133.086.2.127.166.1.25.146.14.078.21.115.173.087.26.128.146.069.219.1c.089.039.18.075.271.11s.152.059.23.087.186.062.281.091.158.05.239.072c.1.027.195.05.293.073.082.019.164.039.247.056.1.02.2.036.305.053.085.013.169.028.255.04.105.014.212.023.319.033.087.008.173.018.262.023.11.007.222.009.334.013.089,0,.177.007.268.007.115,0,.233-.005.351-.009.091,0,.18,0,.273-.009.122-.007.248-.02.373-.032.091-.008.18-.014.272-.025.133-.016.27-.038.405-.059.087-.013.173-.023.262-.039.154-.027.313-.061.471-.095.073-.015.144-.027.217-.044q.35-.081.711-.182a14.166,14.166,0,0,0,5.5-2.98q.517-.449,1-.943a18.114,18.114,0,0,0,1.765-2.135q.2-.286.4-.58a24.178,24.178,0,0,0,1.729-3.126q.458-.987.849-2.023t.719-2.1q.109-.355.212-.713c.274-.954.514-1.921.722-2.89q.078-.363.151-.727a58.929,58.929,0,0,0,.946-7.106q.025-.339.046-.673.043-.667.071-1.312.014-.321.025-.637c.015-.42.025-.832.032-1.232q.005-.3.007-.593c0-.39,0-.769,0-1.136q0-.275-.007-.541-.009-.531-.026-1.021t-.04-.935c-.015-.3-.032-.577-.051-.841-.046-.66-.1-1.214-.156-1.641-.712-5.477-1.907-29.647-1.907-29.647,5.611-9.147,2.879-13.393,2.879-13.393s.4-.165.99-.45l.311-.153a18.206,18.206,0,0,0,3.335-2.071,1.924,1.924,0,0,0,.293-.3,2.053,2.053,0,0,0,.4-1.107A3.511,3.511,0,0,0,127.372,217.935Z" transform="translate(-93.881 -154.921)" fill="#eba186"/>
          <g id="Grupo_18027" data-name="Grupo 18027" transform="translate(14.759 44.653)">
            <path id="Trazado_46679" data-name="Trazado 46679" d="M140.551,196.843a4.533,4.533,0,0,1-3.739,1.193c-2.288-.329-2.761-.68-6.154.063-1.286.282-2.647,4.639-7.587,6.394l.22-.032c1.194-.081,6.6-3.3,6.6-3.3l.727-1.8c.893.377,5.4-.67,5.4-.67C139.42,199.7,140.732,198.174,140.551,196.843Z" transform="translate(-123.071 -196.843)" fill="#e69d83"/>
            <path id="Trazado_46680" data-name="Trazado 46680" d="M141.727,212.911c-1.389-.312-6.99,3.854-9.614,4.291,2.019,1.06,7.613-3.341,9.155-3.566s2.67,2.328,2.67,2.328a3.2,3.2,0,0,0,.37-.316C143.828,214.645,143.077,213.215,141.727,212.911Z" transform="translate(-127.607 -204.896)" fill="#e69d83"/>
            <path id="Trazado_46681" data-name="Trazado 46681" d="M146.208,225.3c-1.561-.241-8.295,3.387-8.295,3.387,2.233.734,3.121-1.771,8.192-2.929.953-.218,2.043.971,2.043.971a1.028,1.028,0,0,0,.085-.31A3.605,3.605,0,0,0,146.208,225.3Z" transform="translate(-130.517 -211.115)" fill="#e69d83"/>
            <path id="Trazado_46682" data-name="Trazado 46682" d="M154.713,237.981a1.619,1.619,0,0,0-1.127-.027,11.778,11.778,0,0,1-2.891,1.2,7.112,7.112,0,0,1-.651,1.533,21.7,21.7,0,0,0,4.637-2.674C154.693,238,154.7,237.991,154.713,237.981Z" transform="translate(-136.603 -217.419)" fill="#e69d83"/>
          </g>
        </g>
        <path id="Trazado_46683" data-name="Trazado 46683" d="M225.871,387.835s-6.025,5.562,1.622,6.72,47.666,12,48.361,26.6L274.576,382.2Z" transform="translate(-68.969 -157.893)" opacity="0.2"/>
        <g id="Grupo_18032" data-name="Grupo 18032" transform="translate(155.35 167.491)">
          <g id="Grupo_18029" data-name="Grupo 18029" transform="translate(57.919 42.285)">
            <path id="Trazado_46684" data-name="Trazado 46684" d="M341.282,376.044c.4,12.313,10.552,16.1,18,14.438,12.165-2.722,14.684-13.806,10.837-22C366.5,360.769,360.8,357.39,352.7,359.2S340.9,364.453,341.282,376.044Z" transform="translate(-341.256 -355.89)" fill="#2874b6"/>
            <path id="Trazado_46685" data-name="Trazado 46685" d="M359.206,353.037c-.907.544,21.192,22.83,1.83,30.249-15.052,5.767-21.022-15.9-16.447-21.967,3.159-4.194,10.875,1.108,11.9-1.391S359.206,353.037,359.206,353.037Z" transform="translate(-342.173 -353.037)" fill="#f0a589"/>
          </g>
          <path id="Trazado_46686" data-name="Trazado 46686" d="M363.215,380s-3.935,5.568-10.8.522l1.365-4.618Z" transform="translate(-288.934 -322.222)" fill="#f0a589"/>
          <path id="Trazado_46687" data-name="Trazado 46687" d="M373.885,344.119s-1.278,4.829-1.134,6.1c.468,4.141-12.615,7.768-12.268,3.771,0,0,4.65-6.034,5.385-9.157S373.885,344.119,373.885,344.119Z" transform="translate(-292.98 -305.833)" fill="#f0a589"/>
          <g id="Grupo_18030" data-name="Grupo 18030" transform="translate(0)">
            <path id="Trazado_46688" data-name="Trazado 46688" d="M294.064,274.675l2.691-3.827v.651l-2.248,3.374Z" transform="translate(-259.661 -269.52)" fill="#ededed"/>
            <rect id="Rectángulo_4435" data-name="Rectángulo 4435" width="54.193" height="0.651" transform="translate(91.287 1.98) rotate(180)" fill="#fff"/>
            <rect id="Rectángulo_4436" data-name="Rectángulo 4436" width="24.982" height="1.302" transform="translate(76.975 1.98) rotate(180)" fill="#d6cabb"/>
            <rect id="Rectángulo_4437" data-name="Rectángulo 4437" width="3.256" height="1.98" transform="translate(67.344 1.98) rotate(180)" fill="#cac2bc"/>
            <path id="Trazado_46689" data-name="Trazado 46689" d="M227.021,337.369h55.638a1.992,1.992,0,0,0,1.735-1.015l34.473-61.232a1.991,1.991,0,0,0-1.735-2.968H261.494a1.992,1.992,0,0,0-1.735,1.014L225.286,334.4A1.991,1.991,0,0,0,227.021,337.369Z" transform="translate(-225.027 -270.175)" fill="#2c3b39"/>
            <path id="Trazado_46690" data-name="Trazado 46690" d="M284.394,358.171a1.991,1.991,0,0,1-1.735,1.014H227.021a1.991,1.991,0,0,1-1.735-2.968l14.445-25.658,68.606-14.918Z" transform="translate(-225.027 -291.991)" opacity="0.1"/>
            <path id="Trazado_46691" data-name="Trazado 46691" d="M369.4,279.8c-.239.631.18,1.143.936,1.143a2.021,2.021,0,0,0,1.8-1.143c.238-.631-.181-1.143-.936-1.143A2.02,2.02,0,0,0,369.4,279.8Z" transform="translate(-297.422 -273.435)" fill="#d6cabb"/>
            <path id="Trazado_46692" data-name="Trazado 46692" d="M329.432,279.8c-.238.631.181,1.143.936,1.143a2.02,2.02,0,0,0,1.8-1.143c.239-.631-.18-1.143-.936-1.143A2.021,2.021,0,0,0,329.432,279.8Z" transform="translate(-277.372 -273.435)" fill="#d6cabb"/>
          </g>
          <path id="Trazado_46693" data-name="Trazado 46693" d="M372.231,342.8" transform="translate(-298.877 -305.616)" fill="none" stroke="#000" stroke-miterlimit="10" stroke-width="0.25"/>
          <g id="Grupo_18031" data-name="Grupo 18031" transform="translate(53.986 35.107)" opacity="0.3">
            <path id="Trazado_46694" data-name="Trazado 46694" d="M343.5,350.935c.4-.723,1.325-1.285,11.363.482q1.2.212,2.205.44l-2.739,4.878a50.621,50.621,0,0,0-6.051-1.865C342.94,353.585,343.1,351.658,343.5,350.935Z" transform="translate(-338.362 -344.456)"/>
            <path id="Trazado_46695" data-name="Trazado 46695" d="M333.4,363.459c.12-.883,4.015-.763,5.822-.682,1.161.051,6.19.632,9.644,1.041l-4.743,8.448c-12.2-4.476-9.077-6.037-9.077-6.037A2.271,2.271,0,0,1,333.4,363.459Z" transform="translate(-333.363 -350.717)"/>
            <path id="Trazado_46696" data-name="Trazado 46696" d="M374.055,338.632l-2.652,4.676c-1.417-.588-2.52-1.343-2.639-2.1C368.459,339.26,370.577,338.654,374.055,338.632Z" transform="translate(-351.108 -338.632)"/>
          </g>
          <path id="Trazado_46697" data-name="Trazado 46697" d="M360.383,355.078c.057-1.129.522-3.894-9.516-5.661s-10.961-1.2-11.363-.482-.562,2.65,4.778,3.935a46.061,46.061,0,0,1,8.952,3.092s-11.2-1.365-13.008-1.446-5.7-.2-5.822.683a2.271,2.271,0,0,0,1.646,2.771s-3.613,1.807,12.127,7.107c0,0,1.927,2.69,4.658,2.169s4.577-2.851,4.457-4.417c0,0,3.413-3.253,1.526-5.22A9.435,9.435,0,0,0,360.383,355.078Z" transform="translate(-279.879 -308.346)" fill="#ffaf92"/>
          <path id="Trazado_46698" data-name="Trazado 46698" d="M337.748,367.762s16.583,3.339,17.188,3.442c.832.141.362.457.158.453C355.094,371.657,338.551,369.087,337.748,367.762Z" transform="translate(-281.577 -318.139)" fill="#f9a38f"/>
          <path id="Trazado_46699" data-name="Trazado 46699" d="M381.115,339.388c-.08-1.124-.924-2.529-4.738-2.57s-6.184.522-5.863,2.57,7.75,4.056,9.276,2.851A3.344,3.344,0,0,0,381.115,339.388Z" transform="translate(-298.001 -302.614)" fill="#ffaf92"/>
        </g>
      </g>
    </g>
    <g id="Elipse_993" data-name="Elipse 993" transform="translate(462 8964)" fill="none" stroke="#fec558" stroke-width="1">
      <circle cx="92.5" cy="92.5" r="92.5" stroke="none"/>
      <circle cx="92.5" cy="92.5" r="92" fill="none"/>
    </g>
  </g>
</svg>
