<svg xmlns="http://www.w3.org/2000/svg" xmlns:xlink="http://www.w3.org/1999/xlink" width="187" height="188" viewBox="0 0 187 188">
  <defs>
    <clipPath id="clip-path">
      <circle id="Elipse_986" data-name="Elipse 986" cx="93.5" cy="93.5" r="93.5" transform="translate(439 8561)" fill="#fff" stroke="#707070" stroke-width="1"/>
    </clipPath>
  </defs>
  <g id="Grupo_18074" data-name="Grupo 18074" transform="translate(-461 -8651)">
    <g id="Enmascarar_grupo_2" data-name="Enmascarar grupo 2" transform="translate(22 90)" clip-path="url(#clip-path)">
      <g id="Grupo_18015" data-name="Grupo 18015" transform="translate(-933.416 7868.994)">
        <path id="Trazado_46562" data-name="Trazado 46562" d="M1890.688,816.557c-19.3,4.269-57.98,20.66-43.9,83.091a30.257,30.257,0,0,0,29.929,23.593c11.28-.151,24.622-1.058,34.966-3.927,24.052-6.674,28.439-24.116,22.2-62.718-2.9-17.952-10.5-28.22-17.667-34.052a30.145,30.145,0,0,0-25.534-5.986" transform="translate(-424.923 -105.077)" fill="#682c1e"/>
        <path id="Trazado_46563" data-name="Trazado 46563" d="M2061.775,1524.278a48.693,48.693,0,0,1-5.447,12.914c-3.735,6.125-10.471,14.472-19.89,18.553v.027h0c.009.324.024.657.045.995a4.031,4.031,0,0,1,.434,3.019c.058.239.124.475.2.706h0c.721,2.3,2.166,4.131,5.019,4.131h.135c2.726-.054,5.457-.069,8.189-.069q1.295,0,2.59,0a9.689,9.689,0,0,0,2.993-3.77c3.578-5.26,5.426-21.835,5.736-36.51m-66.025-14.416-.01.008q-.2.142-.395.307c-3.293,15.156-4.177,31.319-1.518,45.716a21.523,21.523,0,0,0,3.119,8.009l9.672.249-.042.1q1.461.03,2.922.045h.052c4.7,0,4.659-5.51,4.748-9.245a39.082,39.082,0,0,1-18.4-29.987,117.537,117.537,0,0,1-.145-15.206" transform="translate(-563.796 -754.143)" fill="#5f281b"/>
        <path id="Trazado_46564" data-name="Trazado 46564" d="M1420.631,2521.711c-8.728,6.333-20.647,53.428-26.416,74.534-2.593,9.488,15.391,7.673,15.391,7.673l21.553-65.888s-5.615-22.986-10.528-16.318" transform="translate(-4.249 -1699.31)" fill="#f9a38f"/>
        <path id="Trazado_46565" data-name="Trazado 46565" d="M1775.287,2112.23a18.2,18.2,0,0,0-16.154-9.7c-5.821,0-11.652-.065-17.461.05-4.871.1-5.733-5.046-5.831-8.941-.109-4.34,2-8.209,2.019-8.558l-25,.509c-.117.352.953,3.972.856,6.782-.127,3.721.212,9.927-4.817,9.884-4.847-.041-9.7-.273-14.544-.273h-1.972c-9.428,0-15.326,6.154-18.184,16.72l-3.355,10.333c15.679,10.436,110.9,5.018,104.439-16.8" transform="translate(-263.201 -1292.096)" fill="#eb8e7a"/>
        <path id="Trazado_46566" data-name="Trazado 46566" d="M2342.982,2098.445a18.023,18.023,0,0,1-.677-4.811c-.109-4.34,2-8.209,2.018-8.558l-25,.509c-.117.352.952,3.972.856,6.782a29.66,29.66,0,0,1-.526,6.186,23.129,23.129,0,0,0,23.325-.109" transform="translate(-869.663 -1292.096)" fill="#eb8e7a"/>
        <path id="Trazado_46567" data-name="Trazado 46567" d="M1934.9,1485.316c3.695-.854,7.674,2.711,8.888,7.962a12.967,12.967,0,0,1,.2,4.958,15.794,15.794,0,0,0-.276-1.6c-1.214-5.251-4.791-8.909-7.99-8.169-1.919.444-3.26,2.374-3.768,4.978a4.767,4.767,0,0,1,3.134-2.923c3.2-.739,6.776,2.918,7.99,8.17a15.765,15.765,0,0,1,.3,1.777,6.043,6.043,0,0,1-4.082,3.867c-3.7.854-7.674-2.711-8.888-7.962S1931.2,1486.17,1934.9,1485.316Z" transform="translate(-505.612 -731.069)" fill="#f7a083"/>
        <path id="Trazado_46568" data-name="Trazado 46568" d="M1962.478,1536.44a4.767,4.767,0,0,0-3.134,2.923c.509-2.6,1.849-4.534,3.768-4.978,3.2-.74,6.776,2.918,7.99,8.169a15.83,15.83,0,0,1,.276,1.6,10.224,10.224,0,0,1-.608,2.231,15.769,15.769,0,0,0-.3-1.777C1969.254,1539.358,1965.677,1535.7,1962.478,1536.44Z" transform="translate(-533.009 -776.989)" fill="#e6927c"/>
        <path id="Trazado_46569" data-name="Trazado 46569" d="M1956.862,1702.736a5.464,5.464,0,0,0,3.229-2.289c-6.589.794-10.034-1.868-11.254-3.112C1950.557,1701.127,1953.807,1703.442,1956.862,1702.736Z" transform="translate(-523.182 -929.472)" fill="#e6927c"/>
        <path id="Trazado_46570" data-name="Trazado 46570" d="M2104.037,961.325c-5.286,8.671-16.584,21.789-33,20.967-10.079-.5-26.1-14.086-27.437-33.091-2.225-31.646,6.6-57.072,36.486-54.973s39.216,42.054,23.948,67.1" transform="translate(-611.504 -178.277)" fill="#ffaf97"/>
        <path id="Trazado_46571" data-name="Trazado 46571" d="M1471.874,2764.274c-12.777,24.912-1.846,28.644-1.205,35.385,2.409,25.337-23.122,48.9-28.435,95.5,25.428,24.581,110.678,14.216,128.908,3.175-9.343-39.033-21.585-45.238-25.716-74.387-3-21.162,9.552-60.668,10.259-61.6,0,0-79.209-7.041-83.811,1.93" transform="translate(-49.396 -1923.034)" fill="#e52e6b"/>
        <path id="Trazado_46572" data-name="Trazado 46572" d="M3039.154,1502.87c-3.591-1.077-7.672,4.138-8.865,10.725a17.856,17.856,0,0,0-.2,5.4,11.45,11.45,0,0,0,.484,2.192c.624,1.853,1.707,3.114,3.121,3.428,2.794.621,7.492-2.752,9.207-8.1C3044.865,1510.395,3042.66,1503.922,3039.154,1502.87Z" transform="translate(-1534.282 -747.472)" fill="#ffaf97"/>
        <path id="Trazado_46573" data-name="Trazado 46573" d="M3088.145,1559.685c-2.207-.634-5.345,3.874-5.31,6.013,2.956-4.254,6.348-3.993,7.332-.023C3090.714,1562.945,3089.912,1560.193,3088.145,1559.685Z" transform="translate(-1583.72 -800.682)" fill="#ef9981"/>
        <path id="Trazado_46574" data-name="Trazado 46574" d="M3038.182,1759.49c2.331.518,5.985-1.743,8.129-5.612-5.262,5-9.8,4.672-11.545,1.1a9.946,9.946,0,0,0,.3,1.085C3035.685,1757.914,3036.768,1759.176,3038.182,1759.49Z" transform="translate(-1538.765 -982.352)" fill="#ef9981"/>
        <ellipse id="Elipse_984" data-name="Elipse 984" cx="6.064" cy="7.074" rx="6.064" ry="7.074" transform="translate(1452.778 774.982) rotate(-75.571)" fill="#ef9981"/>
        <ellipse id="Elipse_985" data-name="Elipse 985" cx="5.727" cy="8.422" rx="5.727" ry="8.422" transform="translate(1450.672 772.353) rotate(-75.571)" fill="#ffaf97"/>
        <path id="Trazado_46575" data-name="Trazado 46575" d="M2128.847,1517.22c.2,9.231,8.04,10.527,16.108,7.728,0,0-.083-8.2-5.594-10.1s-10.514,2.373-10.514,2.373" transform="translate(-691.531 -758.351)" fill="#fffefd"/>
        <path id="Trazado_46576" data-name="Trazado 46576" d="M2618.057,1550.538c2.067,3.509,18.78,4.61,18.671-4.64,0,0-4.347-5.707-9.843-3.668-5.167,1.917-6.69,4.336-8.828,8.308" transform="translate(-1149.051 -784.002)" fill="#fffefd"/>
        <path id="Trazado_46577" data-name="Trazado 46577" d="M2214.453,1560.985c-.567,2.316-2.359,3.867-4,3.464s-2.517-2.606-1.951-4.922,2.359-3.867,4-3.465,2.517,2.606,1.95,4.922" transform="translate(-765.862 -797.292)" fill="#005b5e"/>
        <path id="Trazado_46578" data-name="Trazado 46578" d="M2184.45,1598.7c-1.216.134-2.137.767-2.094,1.469.036.591.747,1.051,1.7,1.172a5.814,5.814,0,0,1,.153-1.879,6.053,6.053,0,0,1,.24-.762" transform="translate(-741.572 -837.23)" fill="#fffefd"/>
        <path id="Trazado_46579" data-name="Trazado 46579" d="M2209.208,1598.306c-.085,0-.172,0-.26.008q-.105.007-.208.018a6.023,6.023,0,0,0-.24.762,5.8,5.8,0,0,0-.153,1.879,4.054,4.054,0,0,0,.5.031c.086,0,.173,0,.261-.008,1.316-.08,2.347-.746,2.3-1.486-.042-.691-1.006-1.2-2.205-1.2" transform="translate(-765.862 -836.858)" fill="#cdd"/>
        <path id="Trazado_46580" data-name="Trazado 46580" d="M2724.267,1574.324c-.605,2.473-2.52,4.13-4.275,3.7s-2.688-2.783-2.083-5.256,2.519-4.13,4.275-3.7,2.688,2.783,2.083,5.256" transform="translate(-1242.262 -809.45)" fill="#005b5e"/>
        <path id="Trazado_46581" data-name="Trazado 46581" d="M2697.427,1628.791c-.974.264-1.646.86-1.571,1.462.065.526.684.909,1.513,1.008a5.985,5.985,0,0,1,.057-2.47" transform="translate(-1221.805 -865.368)" fill="#fffefd"/>
        <path id="Trazado_46582" data-name="Trazado 46582" d="M2718.939,1626.63a4.074,4.074,0,0,0-.5.031,4,4,0,0,0-.556.109,5.977,5.977,0,0,0-.057,2.47,3.659,3.659,0,0,0,.434.025,4.033,4.033,0,0,0,.5-.031c1.263-.157,2.216-.86,2.127-1.57-.076-.615-.907-1.033-1.948-1.033" transform="translate(-1242.262 -863.347)" fill="#cdd"/>
        <path id="Trazado_46583" data-name="Trazado 46583" d="M2618.54,1526c-.307.381,1.794-9.1,11.063-10.337a7.857,7.857,0,0,1,7.921,3.913,3.278,3.278,0,0,0,3.459,1.363s-2.853,2.453-6.107-1.116C2632.138,1516.822,2625.631,1517.19,2618.54,1526Z" transform="translate(-1149.476 -759.523)" fill="#40180b"/>
        <path id="Trazado_46584" data-name="Trazado 46584" d="M2092.459,1498.948s1.36,2.922,3.886.874,5.264-3.429,8.641-2.174,5.734,3.443,5.938,11.222c0,0-1.89-6.678-5.759-8.359a7.226,7.226,0,0,0-7.308.825S2092.423,1504.633,2092.459,1498.948Z" transform="translate(-657.501 -742.272)" fill="#40180b"/>
        <path id="Trazado_46585" data-name="Trazado 46585" d="M2407.529,1915.575c1.876,3.38-2.882,5.779-6.437,5.779s-7.563-2.4-5.922-5.779c-.206-3.219,3.17-5.033,6.177-5.033,2.884,0,6.615,1.558,6.182,5.033" transform="translate(-940.248 -1128.867)" fill="#ff6e75"/>
        <path id="Trazado_46586" data-name="Trazado 46586" d="M2420.978,1973.476c-.733.633-2.606,1.417-5.82,1.417s-4.691-.905-5.354-1.417a14.2,14.2,0,0,1,5.461-1.068,19.969,19.969,0,0,1,5.713,1.068" transform="translate(-954.287 -1186.724)" fill="#801c13"/>
        <path id="Trazado_46587" data-name="Trazado 46587" d="M2421.045,2021.26a.589.589,0,0,0-.635-.342,5.54,5.54,0,0,1-3.23-.46.582.582,0,0,0-.736.225l-.006.01a.594.594,0,0,0,.246.853,6.671,6.671,0,0,0,1.607.52,6.747,6.747,0,0,0,2.317.027.59.59,0,0,0,.441-.825l0-.008" transform="translate(-960.406 -1231.614)" fill="#ff9196"/>
        <path id="Trazado_46588" data-name="Trazado 46588" d="M1886.936,2764.73s-2.231-25-2.431-25.015c-1.164,5.4-3.2,24.375-10.341,30.594-13.383,11.659-61.475,4.534-69.467-6.875-.979,9.817,4.4,13.043,4.844,17.712.763,8.026-1.017,15.148-4.069,23.041,17.788-7.707,62.563-4.122,80.235,9.135-3.757-18.462.065-34.981,1.229-48.593" transform="translate(-388.268 -1904.327)" fill="#d62b65"/>
        <path id="Trazado_46589" data-name="Trazado 46589" d="M1984.389,960.867c-48.864,2.24-53.48,39.272-53.916,46.086,2.344-4.695,7.459-8.428,9.8-10.134,14.678-10.693,32.584-7.579,44.438-20.665,6.672,15.547,23.321,26.819,27.883,35.421h0C2016.641,1000.871,1999.936,960.154,1984.389,960.867Z" transform="translate(-506.008 -240.702)" fill="#ef9981"/>
        <path id="Trazado_46590" data-name="Trazado 46590" d="M2612.964,1340.46s7.39-5.894,13.272-4.365c6.478,1.684,8.17,3.812,8.17,3.812s-7.911-12.428-19.752-3.469C2614.33,1336.684,2611.484,1338.272,2612.964,1340.46Z" transform="translate(-1143.891 -588.918)" fill="#40180b"/>
        <path id="Trazado_46591" data-name="Trazado 46591" d="M3066.052,2739.613c.915,11.875-15.906,20.994-19.767,5.195-5.2-18.528-5.984-43.785-7.339-73.9l22.225-2.03C3062.756,2695.325,3061.471,2716.227,3066.052,2739.613Z" transform="translate(-1542.674 -1838.077)" fill="#ffaf97"/>
        <path id="Trazado_46592" data-name="Trazado 46592" d="M1702.685,2343.175h-12.927c-16.4,28.934-48.986,21.031-40.183-.416l-13.885-.358c-10.542,1.011-15.594,4.185-20.772,15.971l-4.428,12.777c20.165,11.843,96.021,15.794,117.463,2.125,0,0,0-28.568-25.268-30.1" transform="translate(-206.753 -1532.75)" fill="#e52e6b"/>
        <path id="Trazado_46593" data-name="Trazado 46593" d="M2113.472,1327.618s-7.684-4.464-13.409-2.762c-5.983,1.779-6.949,3.57-6.949,3.57s4.589-12.331,18.455-4.715C2111.919,1323.9,2114.786,1325.341,2113.472,1327.618Z" transform="translate(-658.113 -577.727)" fill="#40180b"/>
        <path id="Trazado_46594" data-name="Trazado 46594" d="M1940.535,751.518c-2.415-50.2-34.154-46.2-34.154-46.2-20.79-8.284-64.645,10.5-58.357,74.819,1.106-7.988,7.577-21.012,12.248-24.415,14.678-10.693,36.5-11.519,46.766-29.4,2.382,21.281,31.025,39.9,32.644,56.676a198.862,198.862,0,0,0,.853-31.482" transform="translate(-428.329)" fill="#7c3524"/>
        <path id="Trazado_46595" data-name="Trazado 46595" d="M3001.771,2783.688,3004.3,2773l.444,10.347Z" transform="translate(-1507.908 -1935.456)" fill="#d62b65"/>
        <path id="Trazado_46596" data-name="Trazado 46596" d="M1828.771,2710.624c2.5-1.778,5-5.509,8.486-10.624l-5.442,11.531Z" transform="translate(-410.894 -1867.185)" fill="#d62b65"/>
        <path id="Trazado_46597" data-name="Trazado 46597" d="M2143.089,750.648a47.6,47.6,0,0,0-15.556,10.389c8.664,8.665,22.16,13.921,35.4,17.109a33.525,33.525,0,0,0,6.082-7.712A32.278,32.278,0,0,0,2171.75,780a202.2,202.2,0,0,0,29.38,3.024,67.891,67.891,0,0,0-2.228-8.993C2167.326,769.6,2149.726,756.631,2143.089,750.648Z" transform="translate(-690.302 -44.11)" fill="#873928"/>
        <path id="Trazado_46598" data-name="Trazado 46598" d="M2927.912,1358.717s10.68,13.021,5.627,25.976c0,0,7.255-8.421,1.36-21.377S2927.912,1358.717,2927.912,1358.717Z" transform="translate(-1438.833 -610.309)" fill="#7c3524"/>
        <path id="Trazado_46599" data-name="Trazado 46599" d="M2022.849,1440.885s-7.255,2.915-5.013,19.008c0,0-3.9-7.968-1.594-15.769C2018.444,1436.674,2022.849,1440.885,2022.849,1440.885Z" transform="translate(-585.538 -688.525)" fill="#7c3524"/>
        <path id="Trazado_46600" data-name="Trazado 46600" d="M3074.989,2894.067c-3.4-19.128-2.984-36.077-3.812-57.133a83.086,83.086,0,0,1-22.134,5.619c.086,1.818.175,3.56.265,5.354,5.26-2.312,17.648-6.853,18.2,1.365.811,12,2.551,38.392,6.6,50.172s11.692,49.259,9.674,64.521-2.334,26.144-2.445,27.7c-1.062,14.923-3.811,24.975-4.989,31.338.957-4.1,3.012-8.789,3.524-12.268.524-3.562,2.368-14.486,2.368-14.486l3.17-34.24C3083.726,2939.963,3079.938,2905.835,3074.989,2894.067Z" transform="translate(-1552.118 -1995.248)" fill="#f9a38f"/>
        <path id="Trazado_46601" data-name="Trazado 46601" d="M2674.9,2233.947a17.617,17.617,0,0,0,.434,3.019,4.029,4.029,0,0,0-.434-3.019" transform="translate(-1202.213 -1431.322)" fill="#552418"/>
        <path id="Trazado_46602" data-name="Trazado 46602" d="M2320.844,2295.531a21.987,21.987,0,0,1-11.327,2.946,23.541,23.541,0,0,1-7.806-1.292c-2.4,7.71-4.682,15.092-5.615,19.349a17.429,17.429,0,0,0,7.582,1.62c5.242,0,11.256-1.965,16.855-6.374a15.972,15.972,0,0,0,2.309-4.428c1.554-4.664.35-8.28-.858-9.656-.906-1.031-1.293-1.16-1.431-1.16a.108.108,0,0,0-.064.014,8.925,8.925,0,0,0,.355-1.018" transform="translate(-847.946 -1488.917)" fill="#d3806e"/>
        <path id="Trazado_46603" data-name="Trazado 46603" d="M2400.869,2223.143a28.932,28.932,0,0,1-10.865,2.128q-.727,0-1.467-.037a15.787,15.787,0,0,1-4.183-.842c-.527,1.693-1.061,3.4-1.588,5.094a23.54,23.54,0,0,0,7.806,1.292,21.987,21.987,0,0,0,11.327-2.945,9.118,9.118,0,0,0,.225-.971,17.614,17.614,0,0,1-.433-3.018,2.345,2.345,0,0,0-.82-.7" transform="translate(-929.001 -1421.218)" fill="#d3806e"/>
        <path id="Trazado_46604" data-name="Trazado 46604" d="M2416.232,1894.87a9.884,9.884,0,0,1-3.457.664,8.615,8.615,0,0,1-2.161-.282c-.975,3.355-2.135,7.127-3.331,10.969a15.794,15.794,0,0,0,4.183.842q.741.037,1.467.037a28.932,28.932,0,0,0,10.865-2.128,4.131,4.131,0,0,0-1.936-.4,8.173,8.173,0,0,0-.817.043c-4.688.472-5.742.535-5.971.535-.083,0-.058-.008-.058-.008s.615-5.52,1.215-10.272m-1.873-11.936a1.805,1.805,0,0,0-1.126.443,5.906,5.906,0,0,1-.046,1.347,8.359,8.359,0,0,1,3.724.939c-.491-1.405-1.427-2.729-2.552-2.729" transform="translate(-951.93 -1103.048)" fill="#e59d88"/>
        <path id="Trazado_46605" data-name="Trazado 46605" d="M2464.875,1916.544a13.812,13.812,0,0,1-3.988.514c-.37,0-.718-.012-1.044-.034q-.161.6-.335,1.227c.191-.012.363-.033.512-.057a.606.606,0,0,1,.1-.008.588.588,0,0,1,.538.349l0,.009a.59.59,0,0,1-.441.825,6.714,6.714,0,0,1-1.048.087q-.227.8-.47,1.638a8.6,8.6,0,0,0,2.161.282,9.885,9.885,0,0,0,3.457-.664c.195-1.542.387-3,.557-4.168m-3.6-5.978a36.78,36.78,0,0,1-.8,4.01q.155,0,.313,0l.208,0a15.151,15.151,0,0,1,4.09.614c.08-.478.15-.835.206-1.036a4.943,4.943,0,0,0-.292-2.647,8.365,8.365,0,0,0-3.724-.939" transform="translate(-1000.017 -1128.89)" fill="#e56369"/>
        <path id="Trazado_46606" data-name="Trazado 46606" d="M2477.287,1972.407q-.157,0-.312,0c-.186.76-.4,1.58-.63,2.448.326.022.673.034,1.044.034a13.812,13.812,0,0,0,3.988-.514c.075-.516.145-.974.209-1.356a15.151,15.151,0,0,0-4.09-.614l-.208,0" transform="translate(-1016.518 -1186.725)" fill="#731911"/>
        <path id="Trazado_46607" data-name="Trazado 46607" d="M2466.908,2028.2a.6.6,0,0,0-.1.008c-.149.024-.322.045-.512.058q-.163.59-.337,1.2a6.726,6.726,0,0,0,1.048-.087.59.59,0,0,0,.441-.825l0-.008a.588.588,0,0,0-.539-.35" transform="translate(-1006.808 -1238.903)" fill="#e58287"/>
        <path id="Trazado_46608" data-name="Trazado 46608" d="M1828.669,2950.6c.2,6.446-1.336,12.828-3.791,19.553l.138-.086c2.453-6.627,3.93-12.774,3.653-19.467m14.847-31.935c-4.677,5.075-10.277,10.567-15.8,15.747,4.624,2.977,11.91,5.459,20.051,7.1a166.153,166.153,0,0,0,11.448-21.292c-5.393-.367-10.682-.888-15.7-1.549" transform="translate(-407.253 -2071.688)" fill="#ce2960"/>
        <path id="Trazado_46609" data-name="Trazado 46609" d="M2148.909,2546.358c-5.6,4.409-11.613,6.374-16.855,6.374a17.424,17.424,0,0,1-7.582-1.62,19.286,19.286,0,0,0-.43,2.587c-.24,3.479-4.958,9.724-11.458,16.777,5.022.661,10.311,1.183,15.7,1.549a48.414,48.414,0,0,0,2.327-6.545c1.622-4.959,5.182-5.151,5.182-5.151s7.063-.356,10.491-11.216a13.882,13.882,0,0,0,2.62-2.755" transform="translate(-676.323 -1723.496)" fill="#ce2960"/>
        <path id="Trazado_46610" data-name="Trazado 46610" d="M1460.2,1875.377c.637,5.068-13.094,42.82-13.582,49.875-.547,7.912-25.556,28.847-40.714,42.321-3.115,2.769-14.381,10.818-16.347,24.4-1.886,13.031,15.476,12.321,23.22,6.623s35.828-46.4,39.766-61.564c2.4-6.9,4.469-6.382,4.469-6.382s7.063-.356,10.492-11.216c0,0,3.352-1.157,4.929-5.888,1.555-4.664,1.711-8.021.5-9.4s-1.495-1.146-1.495-1.146,3.207-5.863-3.167-5.221-6.029.527-6.029.527,1.413-16.161,1.927-18S1462.667,1873.42,1460.2,1875.377Z" transform="translate(0 -1095.566)" fill="#ffaf97"/>
        <path id="Trazado_46611" data-name="Trazado 46611" d="M1468.562,2444.549c.521-2.919-2.187-2.36-2.187-2.36a3.108,3.108,0,0,0-2.439,1.683c-.43.646,4.133,12.128-4.159,14.978-7.383,2.538-7.448,7.277-7.448,7.277s-17.362,37.745-38.416,57.049c-9.627,8.827-21.377,8.356-23.411-.7-1.32,13.062,15.485,12.282,23.223,6.589s35.828-46.4,39.766-61.564c2.4-6.9,4.469-6.382,4.469-6.382s7.063-.356,10.492-11.216C1468.452,2449.9,1465.616,2449.109,1468.562,2444.549Z" transform="translate(-0.948 -1626.034)" fill="#f9a38f"/>
        <path id="Trazado_46612" data-name="Trazado 46612" d="M2384.874,1875.481c-.205,2.217-3.055,14.655-6.736,25.527,1.8-2.341,5.58-2.312,8.78-2.6,0,0,1.7-16.1,1.927-18C2389.074,1878.541,2387.649,1873.553,2384.874,1875.481Z" transform="translate(-924.673 -1095.67)" fill="#f9a38f"/>
      </g>
    </g>
    <g id="Elipse_992" data-name="Elipse 992" transform="translate(462 8654)" fill="none" stroke="#fec558" stroke-width="1">
      <circle cx="92.5" cy="92.5" r="92.5" stroke="none"/>
      <circle cx="92.5" cy="92.5" r="92" fill="none"/>
    </g>
  </g>
</svg>
