<svg xmlns="http://www.w3.org/2000/svg" xmlns:xlink="http://www.w3.org/1999/xlink" width="217" height="217" viewBox="0 0 217 217">
  <defs>
    <clipPath id="clip-path">
      <path id="Rectángulo_3360" data-name="Rectángulo 3360" d="M3.3,0H120.375a3.3,3.3,0,0,1,3.3,3.3V74.48a3.3,3.3,0,0,1-3.3,3.3H3.3A3.3,3.3,0,0,1,0,74.48V3.3A3.3,3.3,0,0,1,3.3,0Z" fill="none"/>
    </clipPath>
  </defs>
  <g id="Grupo_21272" data-name="Grupo 21272" transform="translate(-422 -3003)">
    <circle id="Elipse_943" data-name="Elipse 943" cx="108.5" cy="108.5" r="108.5" transform="translate(422 3003)" fill="#fae7b7"/>
    <g id="Grupo_12246" data-name="Grupo 12246" transform="translate(190.609 2613.127)">
      <g id="Grupo_12231" data-name="Grupo 12231" transform="translate(266.391 430.003)">
        <g id="Grupo_12228" data-name="Grupo 12228">
          <path id="Trazado_45231" data-name="Trazado 45231" d="M407.333,496.53a4.409,4.409,0,0,1-2.395,5.737l-106.252,43.68a4.409,4.409,0,0,1-5.735-2.395l-26.232-63.8a4.408,4.408,0,0,1,2.395-5.735l106.251-43.681a4.409,4.409,0,0,1,5.736,2.395Z" transform="translate(-266.391 -430.003)" fill="#eb4950"/>
        </g>
        <g id="Grupo_12229" data-name="Grupo 12229" transform="translate(3.423 10.25)">
          <rect id="Rectángulo_3355" data-name="Rectángulo 3355" width="123.672" height="26.352" transform="translate(0 47.025) rotate(-22.349)" fill="#354a5c"/>
        </g>
        <g id="Grupo_12230" data-name="Grupo 12230" transform="translate(25.045 76.356)">
          <path id="Trazado_45232" data-name="Trazado 45232" d="M317.3,505.5a4.415,4.415,0,0,1-2.4,5.74l-17.288,7.106a4.408,4.408,0,0,1-5.737-2.4L285.5,500.44a4.41,4.41,0,0,1,2.394-5.738l17.29-7.109a4.409,4.409,0,0,1,5.735,2.4Z" transform="translate(-285.173 -487.265)" fill="#ecebeb"/>
        </g>
      </g>
      <g id="Grupo_12232" data-name="Grupo 12232" transform="translate(289.382 475.674)">
        <path id="Rectángulo_3356" data-name="Rectángulo 3356" d="M3.3,0H120.375a3.3,3.3,0,0,1,3.3,3.3V74.48a3.3,3.3,0,0,1-3.3,3.3H3.3A3.3,3.3,0,0,1,0,74.48V3.3A3.3,3.3,0,0,1,3.3,0Z" fill="#47b1c2"/>
      </g>
      <g id="Grupo_12233" data-name="Grupo 12233" transform="translate(301.817 492.845)">
        <path id="Rectángulo_3357" data-name="Rectángulo 3357" d="M3.3,0h20.89a3.3,3.3,0,0,1,3.3,3.3V22.269a3.3,3.3,0,0,1-3.3,3.3H3.3a3.3,3.3,0,0,1-3.3-3.3V3.3A3.3,3.3,0,0,1,3.3,0Z" fill="#f8bb25"/>
      </g>
      <g id="Grupo_12243" data-name="Grupo 12243" transform="translate(289.382 475.674)">
        <g id="Grupo_12242" data-name="Grupo 12242" clip-path="url(#clip-path)">
          <g id="Grupo_12241" data-name="Grupo 12241" transform="translate(48.929 -19.512)">
            <g id="Grupo_12234" data-name="Grupo 12234">
              <path id="Trazado_45233" data-name="Trazado 45233" d="M461.745,490.622a74.728,74.728,0,1,1-100.42-32.932A74.726,74.726,0,0,1,461.745,490.622Z" transform="translate(-320.326 -449.62)" fill="#3899a3"/>
            </g>
            <g id="Grupo_12235" data-name="Grupo 12235" transform="translate(16.704 2.872)">
              <path id="Trazado_45234" data-name="Trazado 45234" d="M407.863,595.519c-23.528,0-49.141-19.372-63.733-48.2-9.13-18.04-12.905-37.454-10.632-54.662,2.3-17.392,10.489-30.473,23.065-36.838a38.061,38.061,0,0,1,17.36-4.04c23.529,0,49.143,19.372,63.734,48.206,18.93,37.4,13.351,78.45-12.433,91.5A38.078,38.078,0,0,1,407.863,595.519ZM373.923,454.366a35.5,35.5,0,0,0-16.188,3.762c-11.789,5.967-19.484,18.348-21.665,34.865-2.207,16.695,1.477,35.57,10.374,53.15,14.161,27.984,38.844,46.784,61.418,46.784a35.493,35.493,0,0,0,16.187-3.76c24.513-12.406,29.576-51.889,11.293-88.016C421.181,473.168,396.5,454.366,373.923,454.366Z" transform="translate(-332.853 -451.774)" fill="#64c9eb"/>
            </g>
            <g id="Grupo_12236" data-name="Grupo 12236" transform="translate(32.592 5.391)">
              <path id="Trazado_45235" data-name="Trazado 45235" d="M416.452,592.372c-14.1,0-36.535-24.1-53.34-57.305-9.1-17.972-15.312-36.075-17.5-50.977-2.286-15.512.127-25.91,6.789-29.284a10.943,10.943,0,0,1,4.991-1.143c14.105,0,36.538,24.1,53.341,57.308,19.356,38.245,24.065,73.5,10.713,80.259A10.945,10.945,0,0,1,416.452,592.372ZM357.388,457.106a7.533,7.533,0,0,0-3.435.772c-5.159,2.611-6.958,11.982-4.938,25.712,2.14,14.544,8.239,32.272,17.17,49.923,15.989,31.589,37.6,55.416,50.267,55.416a7.528,7.528,0,0,0,3.435-.772c10.013-5.07,7.487-36.67-12.232-75.634C391.668,480.931,370.057,457.106,357.388,457.106Z" transform="translate(-344.768 -453.663)" fill="#64c9eb"/>
            </g>
            <g id="Grupo_12237" data-name="Grupo 12237" transform="translate(2.896 16.709)">
              <path id="Trazado_45236" data-name="Trazado 45236" d="M373.295,578.22c-21.782,0-39.269-8.861-46.782-23.7-13.049-25.789,6.763-62.167,44.167-81.094,14.568-7.373,30.029-11.272,44.717-11.272,21.783,0,39.272,8.861,46.78,23.7,6.366,12.576,5.219,27.968-3.227,43.344-8.358,15.213-22.9,28.62-40.936,37.75C403.445,574.323,387.983,578.22,373.295,578.22Zm42.1-113.474c-14.283,0-29.34,3.8-43.547,10.989-36.127,18.284-55.428,53.1-43.024,77.61,7.063,13.952,23.686,22.282,44.468,22.282,14.283,0,29.341-3.8,43.547-10.99,17.579-8.9,31.726-21.926,39.836-36.686,8.022-14.6,9.152-29.135,3.188-40.922C452.8,473.077,436.18,464.746,415.4,464.746Z" transform="translate(-322.498 -462.151)" fill="#64c9eb"/>
            </g>
            <g id="Grupo_12238" data-name="Grupo 12238" transform="translate(5.486 32.897)">
              <path id="Trazado_45237" data-name="Trazado 45237" d="M343.559,557.985c-9.384,0-15.625-2.539-18.056-7.335-6.6-13.045,18.186-38.419,56.425-57.771,23-11.64,46.146-18.588,61.91-18.588,9.385,0,15.627,2.535,18.055,7.333,6.6,13.043-18.187,38.422-56.425,57.773C382.469,551.035,359.326,557.985,343.559,557.985Zm100.278-80.293c-15.259,0-37.829,6.813-60.374,18.223-38.976,19.723-59.865,43.429-54.924,53.2,2.287,4.522,9.43,5.47,15.019,5.47,15.259,0,37.827-6.811,60.372-18.22,38.977-19.726,59.867-43.433,54.924-53.2C456.568,478.642,449.427,477.693,443.838,477.693Z" transform="translate(-324.44 -474.291)" fill="#64c9eb"/>
            </g>
            <g id="Grupo_12239" data-name="Grupo 12239" transform="translate(39.463 7.292)">
              <rect id="Rectángulo_3358" data-name="Rectángulo 3358" width="3.444" height="148.368" transform="translate(0 1.555) rotate(-26.843)" fill="#64c9eb"/>
            </g>
            <g id="Grupo_12240" data-name="Grupo 12240" transform="translate(7.538 39.212)">
              <rect id="Rectángulo_3359" data-name="Rectángulo 3359" width="148.364" height="3.444" transform="translate(0 67.023) rotate(-26.856)" fill="#64c9eb"/>
            </g>
          </g>
        </g>
      </g>
      <g id="Grupo_12244" data-name="Grupo 12244" transform="translate(298.95 530.551)">
        <path id="Trazado_45238" data-name="Trazado 45238" d="M290.808,506.776a1.586,1.586,0,0,0,1.759-1.283h1.076v10.178h-1.6v-7.761h-1.235Z" transform="translate(-290.808 -505.378)" fill="#84d2e9"/>
        <path id="Trazado_45239" data-name="Trazado 45239" d="M296.725,506.862c-.509,0-.829.277-.829,1v1.089h-1.512v-.988c0-1.629.815-2.56,2.384-2.56s2.384.931,2.384,2.56c0,3.342-3.474,4.491-3.17,6.279h3.026V515.7h-4.624v-1.248c0-3,3.17-3.491,3.17-6.427C297.553,507.108,297.233,506.862,296.725,506.862Z" transform="translate(-289.616 -505.407)" fill="#84d2e9"/>
        <path id="Trazado_45240" data-name="Trazado 45240" d="M301.8,508.025c0-.916-.32-1.163-.829-1.163s-.828.277-.828,1v.653h-1.512v-.552c0-1.629.813-2.56,2.384-2.56s2.384.931,2.384,2.56v.26a1.983,1.983,0,0,1-1.12,2.095,2.075,2.075,0,0,1,1.12,2.136v.8c0,1.627-.815,2.559-2.384,2.559s-2.384-.932-2.384-2.559v-.844h1.512v.945c0,.728.32,1,.828,1s.829-.245.829-1.148v-.8c0-.945-.32-1.293-1.047-1.293h-.539v-1.453h.624c.6,0,.961-.264.961-1.077Z" transform="translate(-288.198 -505.407)" fill="#84d2e9"/>
        <path id="Trazado_45241" data-name="Trazado 45241" d="M302.731,512.372l2.91-6.879h1.744v6.879h.755v1.453h-.755v1.846h-1.6v-1.846h-3.054Zm3.054,0v-3.767l-1.584,3.767Z" transform="translate(-286.832 -505.378)" fill="#84d2e9"/>
        <path id="Trazado_45242" data-name="Trazado 45242" d="M312.167,512.387v.945c0,.728.32.988.829.988s.828-.26.828-.988v-2.239c0-.728-.32-1-.828-1s-.829.276-.829,1v.3h-1.512l.292-5.9h4.215v1.456h-2.778l-.129,2.427a1.527,1.527,0,0,1,1.4-.739c1.176,0,1.772.828,1.772,2.324v2.27c0,1.627-.812,2.559-2.384,2.559s-2.384-.932-2.384-2.559v-.844Z" transform="translate(-284.19 -505.378)" fill="#84d2e9"/>
        <path id="Trazado_45243" data-name="Trazado 45243" d="M314.95,508.054c0-1.716.785-2.647,2.443-2.647,1.571,0,2.384.931,2.384,2.56v.26h-1.513v-.361c0-.727-.319-1-.827-1-.567,0-.888.277-.888,1.251v1.862a1.525,1.525,0,0,1,1.484-.9c1.177,0,1.774.828,1.774,2.326v1.863a2.432,2.432,0,1,1-4.856,0Zm1.6,3.476v1.831c0,.728.321.988.829.988s.829-.26.829-.988V511.53c0-.729-.32-1.005-.829-1.005S316.549,510.8,316.549,511.53Z" transform="translate(-282.758 -505.407)" fill="#84d2e9"/>
        <path id="Trazado_45244" data-name="Trazado 45244" d="M324.065,505.493v1.4l-2.355,8.78h-1.6l2.34-8.722h-3.183v-1.456Z" transform="translate(-281.318 -505.378)" fill="#84d2e9"/>
        <path id="Trazado_45245" data-name="Trazado 45245" d="M326.006,515.819a2.292,2.292,0,0,1-2.5-2.559v-.8a2.237,2.237,0,0,1,.988-2.123,2.108,2.108,0,0,1-.988-2.049v-.319a2.5,2.5,0,1,1,5,0v.319a2.137,2.137,0,0,1-.988,2.049,2.237,2.237,0,0,1,.988,2.123v.8A2.292,2.292,0,0,1,326.006,515.819Zm-.9-7.227c0,.813.379,1.077.9,1.077s.9-.264.9-1.077v-.567c0-.916-.392-1.163-.9-1.163s-.9.247-.9,1.163Zm.9,5.773c.511,0,.888-.245.9-1.148v-.945c0-.8-.335-1.148-.9-1.148s-.9.348-.9,1.148v.945C325.1,514.118,325.5,514.364,326.006,514.364Z" transform="translate(-279.905 -505.407)" fill="#84d2e9"/>
        <path id="Trazado_45246" data-name="Trazado 45246" d="M331.256,507.967a2.432,2.432,0,1,1,4.856,0v5.292a2.432,2.432,0,1,1-4.856,0Zm1.6,5.394c0,.728.319,1,.829,1s.827-.275.827-1v-5.5c0-.727-.319-1-.827-1s-.829.277-.829,1Z" transform="translate(-277.32 -505.407)" fill="#84d2e9"/>
        <path id="Trazado_45247" data-name="Trazado 45247" d="M340.406,513.172c0,1.715-.784,2.647-2.442,2.647-1.571,0-2.386-.932-2.386-2.559V513h1.512v.364c0,.728.32,1,.828,1,.567,0,.887-.275.887-1.251v-1.861a1.517,1.517,0,0,1-1.48.9c-1.18,0-1.776-.829-1.776-2.324v-1.863a2.432,2.432,0,1,1,4.856,0Zm-1.6-3.475v-1.831c0-.727-.32-.989-.828-.989s-.828.263-.828.989V509.7c0,.728.32,1,.828,1S338.806,510.425,338.806,509.7Z" transform="translate(-275.889 -505.407)" fill="#84d2e9"/>
        <path id="Trazado_45248" data-name="Trazado 45248" d="M340.729,506.776a1.586,1.586,0,0,0,1.759-1.283h1.076v10.178h-1.6v-7.761h-1.235Z" transform="translate(-274.162 -505.378)" fill="#84d2e9"/>
        <path id="Trazado_45249" data-name="Trazado 45249" d="M344.2,507.967a2.432,2.432,0,1,1,4.856,0v5.292a2.432,2.432,0,1,1-4.856,0Zm1.6,5.394c0,.728.319,1,.828,1s.828-.275.828-1v-5.5c0-.727-.319-1-.828-1s-.828.277-.828,1Z" transform="translate(-273.003 -505.407)" fill="#84d2e9"/>
        <path id="Trazado_45250" data-name="Trazado 45250" d="M352.739,506.776a1.583,1.583,0,0,0,1.759-1.283h1.076v10.178h-1.6v-7.761h-1.236Z" transform="translate(-270.157 -505.378)" fill="#84d2e9"/>
        <path id="Trazado_45251" data-name="Trazado 45251" d="M357.056,506.776a1.584,1.584,0,0,0,1.759-1.283h1.076v10.178h-1.6v-7.761h-1.236Z" transform="translate(-268.717 -505.378)" fill="#84d2e9"/>
        <path id="Trazado_45252" data-name="Trazado 45252" d="M361.372,506.776a1.583,1.583,0,0,0,1.759-1.283h1.076v10.178h-1.6v-7.761h-1.236Z" transform="translate(-267.278 -505.378)" fill="#84d2e9"/>
        <path id="Trazado_45253" data-name="Trazado 45253" d="M367.289,506.862c-.509,0-.829.277-.829,1v1.089h-1.512v-.988c0-1.629.813-2.56,2.386-2.56s2.383.931,2.383,2.56c0,3.342-3.474,4.491-3.17,6.279h3.024V515.7h-4.623v-1.248c0-3,3.17-3.491,3.17-6.427C368.117,507.108,367.8,506.862,367.289,506.862Z" transform="translate(-266.086 -505.407)" fill="#84d2e9"/>
      </g>
      <g id="Grupo_12245" data-name="Grupo 12245" transform="translate(298.583 529.909)">
        <path id="Trazado_45254" data-name="Trazado 45254" d="M290.533,506.292a1.584,1.584,0,0,0,1.759-1.277h1.077v10.177h-1.6v-7.765h-1.236Z" transform="translate(-290.533 -504.896)" fill="#354a5c"/>
        <path id="Trazado_45255" data-name="Trazado 45255" d="M296.45,506.381c-.511,0-.829.276-.829,1v1.091h-1.512v-.988c0-1.628.815-2.56,2.387-2.56s2.382.932,2.382,2.56c0,3.343-3.474,4.491-3.17,6.281h3.024v1.455h-4.623v-1.252c0-2.994,3.17-3.488,3.17-6.426C297.278,506.627,296.958,506.381,296.45,506.381Z" transform="translate(-289.341 -504.926)" fill="#354a5c"/>
        <path id="Trazado_45256" data-name="Trazado 45256" d="M301.529,507.544c0-.916-.319-1.163-.829-1.163s-.828.276-.828,1v.655h-1.512v-.552c0-1.628.815-2.56,2.383-2.56s2.386.932,2.386,2.56v.261a1.983,1.983,0,0,1-1.119,2.094,2.076,2.076,0,0,1,1.119,2.136v.8c0,1.63-.815,2.559-2.386,2.559s-2.383-.929-2.383-2.559v-.843h1.512v.947c0,.725.32,1,.828,1s.829-.247.829-1.149v-.8c0-.944-.319-1.293-1.047-1.293h-.537v-1.453h.625c.6,0,.959-.263.959-1.076Z" transform="translate(-287.923 -504.926)" fill="#354a5c"/>
        <path id="Trazado_45257" data-name="Trazado 45257" d="M302.457,511.892l2.908-6.877h1.743v6.877h.757v1.453h-.757v1.847h-1.6v-1.847h-3.052Zm3.052,0v-3.764l-1.584,3.764Z" transform="translate(-286.557 -504.896)" fill="#354a5c"/>
        <path id="Trazado_45258" data-name="Trazado 45258" d="M311.893,511.9v.947c0,.725.32.987.829.987s.828-.261.828-.987v-2.24c0-.727-.32-1.005-.828-1.005s-.829.279-.829,1.005v.3h-1.512l.291-5.9h4.218v1.452h-2.778l-.132,2.428a1.529,1.529,0,0,1,1.4-.743c1.179,0,1.775.829,1.775,2.328v2.267c0,1.63-.815,2.559-2.386,2.559s-2.384-.929-2.384-2.559V511.9Z" transform="translate(-283.915 -504.896)" fill="#354a5c"/>
        <path id="Trazado_45259" data-name="Trazado 45259" d="M314.676,507.573c0-1.715.787-2.647,2.443-2.647,1.569,0,2.384.932,2.384,2.56v.261h-1.512v-.364c0-.727-.32-1-.829-1-.567,0-.887.276-.887,1.25v1.863a1.521,1.521,0,0,1,1.483-.9c1.177,0,1.773.829,1.773,2.324v1.863a2.431,2.431,0,1,1-4.855,0Zm1.6,3.475v1.833c0,.725.32.987.828.987s.831-.261.831-.987v-1.833c0-.728-.32-1-.831-1S316.275,510.32,316.275,511.048Z" transform="translate(-282.482 -504.926)" fill="#354a5c"/>
        <path id="Trazado_45260" data-name="Trazado 45260" d="M323.79,505.015v1.393l-2.355,8.783h-1.6l2.342-8.725h-3.186v-1.452Z" transform="translate(-281.043 -504.896)" fill="#354a5c"/>
        <path id="Trazado_45261" data-name="Trazado 45261" d="M325.731,515.336a2.291,2.291,0,0,1-2.5-2.559v-.8a2.238,2.238,0,0,1,.989-2.123,2.109,2.109,0,0,1-.989-2.048v-.32a2.5,2.5,0,1,1,5,0v.32a2.134,2.134,0,0,1-.987,2.048,2.239,2.239,0,0,1,.987,2.123v.8A2.291,2.291,0,0,1,325.731,515.336Zm-.9-7.225c0,.813.379,1.076.9,1.076s.9-.263.9-1.076v-.568c0-.916-.392-1.163-.9-1.163s-.9.247-.9,1.163Zm.9,5.771c.509,0,.889-.247.9-1.149v-.944c0-.8-.332-1.148-.9-1.148s-.9.349-.9,1.148v.944C324.831,513.636,325.225,513.883,325.731,513.883Z" transform="translate(-279.63 -504.926)" fill="#354a5c"/>
        <path id="Trazado_45262" data-name="Trazado 45262" d="M330.981,507.486a2.432,2.432,0,1,1,4.856,0v5.291a2.432,2.432,0,1,1-4.856,0Zm1.6,5.4c0,.725.319,1,.828,1s.829-.276.829-1v-5.5c0-.727-.32-1-.829-1s-.828.276-.828,1Z" transform="translate(-277.045 -504.926)" fill="#354a5c"/>
        <path id="Trazado_45263" data-name="Trazado 45263" d="M340.131,512.691c0,1.716-.784,2.646-2.442,2.646-1.571,0-2.384-.929-2.384-2.559v-.261h1.512v.365c0,.725.32,1,.828,1,.565,0,.887-.276.887-1.25v-1.863a1.522,1.522,0,0,1-1.483.9c-1.177,0-1.773-.829-1.773-2.327v-1.86a2.431,2.431,0,1,1,4.855,0Zm-1.6-3.472v-1.835c0-.727-.321-.988-.828-.988s-.828.261-.828.988v1.835c0,.725.319,1,.828,1S338.532,509.944,338.532,509.218Z" transform="translate(-275.613 -504.926)" fill="#354a5c"/>
        <path id="Trazado_45264" data-name="Trazado 45264" d="M340.454,506.292a1.584,1.584,0,0,0,1.759-1.277h1.076v10.177h-1.6v-7.765h-1.237Z" transform="translate(-273.887 -504.896)" fill="#354a5c"/>
        <path id="Trazado_45265" data-name="Trazado 45265" d="M343.93,507.486a2.431,2.431,0,1,1,4.855,0v5.291a2.431,2.431,0,1,1-4.855,0Zm1.6,5.4c0,.725.32,1,.829,1s.828-.276.828-1v-5.5c0-.727-.32-1-.828-1s-.829.276-.829,1Z" transform="translate(-272.728 -504.926)" fill="#354a5c"/>
        <path id="Trazado_45266" data-name="Trazado 45266" d="M352.465,506.292a1.584,1.584,0,0,0,1.759-1.277H355.3v10.177h-1.6v-7.765h-1.236Z" transform="translate(-269.881 -504.896)" fill="#354a5c"/>
        <path id="Trazado_45267" data-name="Trazado 45267" d="M356.781,506.292a1.583,1.583,0,0,0,1.759-1.277h1.076v10.177h-1.6v-7.765h-1.237Z" transform="translate(-268.442 -504.896)" fill="#354a5c"/>
        <path id="Trazado_45268" data-name="Trazado 45268" d="M361.1,506.292a1.584,1.584,0,0,0,1.759-1.277h1.076v10.177h-1.6v-7.765H361.1Z" transform="translate(-267.003 -504.896)" fill="#354a5c"/>
        <path id="Trazado_45269" data-name="Trazado 45269" d="M367.013,506.381c-.508,0-.827.276-.827,1v1.091h-1.513v-.988c0-1.628.813-2.56,2.384-2.56s2.384.932,2.384,2.56c0,3.343-3.474,4.491-3.17,6.281H369.3v1.455h-4.624v-1.252c0-2.994,3.17-3.488,3.17-6.426C367.843,506.627,367.521,506.381,367.013,506.381Z" transform="translate(-265.811 -504.926)" fill="#354a5c"/>
      </g>
    </g>
  </g>
</svg>
