<svg xmlns="http://www.w3.org/2000/svg" xmlns:xlink="http://www.w3.org/1999/xlink" width="217" height="217" viewBox="0 0 217 217">
  <defs>
    <clipPath id="clip-path">
      <path id="Trazado_45283" data-name="Trazado 45283" d="M99.209,475.228l19.329-19.448h76.613l19.329,19.448Z" transform="translate(-99.209 -455.78)" fill="none"/>
    </clipPath>
    <clipPath id="clip-path-2">
      <path id="Trazado_45287" data-name="Trazado 45287" d="M225.055,522.5c0,3.72-9.05,6.738-20.215,6.738s-20.217-3.018-20.217-6.738,9.05-11.1,20.217-11.1c8.636,0,17.311,2.3,20.207,5.366C225.208,520.084,225.055,521.913,225.055,522.5Z" transform="translate(-184.623 -511.399)" fill="none"/>
    </clipPath>
    <clipPath id="clip-path-3">
      <path id="Trazado_45295" data-name="Trazado 45295" d="M202.516,519.261H201.46v-.622a22.892,22.892,0,0,1-3.2-.268q-1.865-.363-1.83-1.229h2.939a.9.9,0,0,0,.427.526,4.792,4.792,0,0,0,1.668.274l0-1.338-.882-.073a12.5,12.5,0,0,1-2.938-.49c-.571-.207-.855-.458-.857-.751a.659.659,0,0,1,.333-.531,3.078,3.078,0,0,1,.932-.411,9.522,9.522,0,0,1,1.721-.309c.385-.031.947-.057,1.689-.074v-.417h1.057v.421a16.287,16.287,0,0,1,2.778.25c1.221.224,1.85.587,1.9,1.088h-2.863A.664.664,0,0,0,204,514.9a3.6,3.6,0,0,0-1.486-.245v1.194q2.583.258,3.474.455c.976.218,1.464.528,1.464.926,0,.527-.672.907-2.015,1.147a19.541,19.541,0,0,1-2.918.255Zm-1.062-4.6a5.276,5.276,0,0,0-1.405.147c-.3.091-.457.218-.456.376,0,.178.228.318.688.419a9.786,9.786,0,0,0,1.174.156Zm1.062,3.271a8.119,8.119,0,0,0,1.236-.111c.453-.1.679-.263.68-.5,0-.177-.212-.323-.637-.424a10.43,10.43,0,0,0-1.281-.189Z" transform="translate(-196.425 -513.548)" fill="#ffc435"/>
    </clipPath>
    <clipPath id="clip-path-4">
      <path id="Trazado_45297" data-name="Trazado 45297" d="M223.752,516.051c0,3.722-9.049,6.739-20.214,6.739s-20.218-3.018-20.218-6.739,9.052-11.1,20.218-11.1c8.634,0,17.311,2.3,20.208,5.366C223.906,513.637,223.752,515.466,223.752,516.051Z" transform="translate(-183.32 -504.95)" fill="none"/>
    </clipPath>
    <clipPath id="clip-path-5">
      <path id="Trazado_45305" data-name="Trazado 45305" d="M201.215,512.813h-1.058v-.623a22.553,22.553,0,0,1-3.2-.268q-1.863-.363-1.83-1.227h2.94a.911.911,0,0,0,.427.526,4.775,4.775,0,0,0,1.667.275l0-1.338-.881-.075a12.706,12.706,0,0,1-2.938-.49c-.571-.207-.856-.461-.857-.753a.662.662,0,0,1,.333-.531,3.065,3.065,0,0,1,.932-.409,9.3,9.3,0,0,1,1.721-.309c.385-.034.947-.061,1.689-.075V507.1h1.057v.422a16.159,16.159,0,0,1,2.777.249q1.832.338,1.9,1.089H203.02a.658.658,0,0,0-.325-.407,3.561,3.561,0,0,0-1.485-.245V509.4q2.583.256,3.472.453,1.465.327,1.465.927c0,.528-.67.907-2.013,1.148a19.763,19.763,0,0,1-2.919.257Zm-1.062-4.6a5.352,5.352,0,0,0-1.405.145c-.3.093-.458.221-.456.379,0,.178.228.316.687.42a9.918,9.918,0,0,0,1.175.153Zm1.062,3.272a8.43,8.43,0,0,0,1.236-.112c.454-.1.679-.264.682-.5,0-.179-.214-.323-.638-.424a10.71,10.71,0,0,0-1.282-.191Z" transform="translate(-195.122 -507.099)" fill="#ffc435"/>
    </clipPath>
    <clipPath id="clip-path-6">
      <path id="Trazado_45307" data-name="Trazado 45307" d="M225.055,509.6c0,3.72-9.05,6.738-20.215,6.738s-20.217-3.018-20.217-6.738,9.05-11.1,20.217-11.1c8.636,0,17.311,2.3,20.207,5.367C225.208,507.189,225.055,509.016,225.055,509.6Z" transform="translate(-184.623 -498.502)" fill="none"/>
    </clipPath>
    <clipPath id="clip-path-7">
      <path id="Trazado_45314" data-name="Trazado 45314" d="M202.516,506.364H201.46v-.622a22.669,22.669,0,0,1-3.2-.269q-1.865-.361-1.83-1.227h2.939a.905.905,0,0,0,.427.527,4.822,4.822,0,0,0,1.668.274l0-1.339-.882-.072a12.757,12.757,0,0,1-2.938-.491c-.571-.207-.855-.46-.857-.751a.663.663,0,0,1,.333-.531,3.081,3.081,0,0,1,.932-.41,9.407,9.407,0,0,1,1.721-.309c.385-.031.947-.059,1.689-.075v-.419h1.057v.422a16.281,16.281,0,0,1,2.778.25c1.221.224,1.85.586,1.9,1.089h-2.863A.663.663,0,0,0,204,502a3.6,3.6,0,0,0-1.486-.244v1.192q2.583.26,3.474.453,1.463.327,1.464.927,0,.791-2.015,1.146a19.051,19.051,0,0,1-2.918.257Zm-1.062-4.6a5.383,5.383,0,0,0-1.405.147c-.3.091-.457.219-.456.378,0,.177.228.316.688.419a10.11,10.11,0,0,0,1.174.154Zm1.062,3.272a8.422,8.422,0,0,0,1.236-.112c.453-.1.679-.264.68-.5,0-.178-.212-.323-.637-.425a10.521,10.521,0,0,0-1.281-.188Z" transform="translate(-196.425 -500.65)" fill="#ffc435"/>
    </clipPath>
    <clipPath id="clip-path-8">
      <path id="Trazado_45316" data-name="Trazado 45316" d="M223.1,503.155c0,3.72-9.052,6.738-20.215,6.738s-20.217-3.018-20.217-6.738,9.05-11.1,20.217-11.1c8.634,0,17.311,2.3,20.207,5.365C223.255,500.739,223.1,502.568,223.1,503.155Z" transform="translate(-182.67 -492.054)" fill="none"/>
    </clipPath>
    <clipPath id="clip-path-9">
      <path id="Trazado_45324" data-name="Trazado 45324" d="M200.562,499.916h-1.055v-.622a22.684,22.684,0,0,1-3.206-.269q-1.863-.361-1.829-1.227h2.939a.908.908,0,0,0,.427.527,4.851,4.851,0,0,0,1.668.274l0-1.338-.882-.074a12.716,12.716,0,0,1-2.939-.491c-.569-.207-.853-.46-.856-.751a.661.661,0,0,1,.331-.531,3.036,3.036,0,0,1,.932-.409,9.194,9.194,0,0,1,1.722-.309c.385-.035.947-.061,1.689-.077V494.2h1.057v.422a16.421,16.421,0,0,1,2.778.249q1.832.338,1.9,1.089h-2.863a.667.667,0,0,0-.324-.409,3.64,3.64,0,0,0-1.488-.244V496.5q2.585.258,3.475.455,1.463.329,1.464.927c0,.528-.672.908-2.015,1.146a19.383,19.383,0,0,1-2.919.257Zm-1.06-4.6a5.4,5.4,0,0,0-1.405.146c-.3.092-.457.219-.456.379,0,.177.227.315.685.419a10.518,10.518,0,0,0,1.176.155Zm1.06,3.272a8.826,8.826,0,0,0,1.236-.111c.455-.1.68-.265.682-.5,0-.178-.214-.321-.637-.424a10.923,10.923,0,0,0-1.282-.191Z" transform="translate(-194.472 -494.202)" fill="#ffc435"/>
    </clipPath>
    <clipPath id="clip-path-10">
      <path id="Trazado_45326" data-name="Trazado 45326" d="M225.055,496.709c0,3.718-9.05,6.738-20.215,6.738s-20.217-3.02-20.217-6.738,9.05-11.1,20.217-11.1c8.636,0,17.311,2.3,20.207,5.366C225.208,494.29,225.055,496.121,225.055,496.709Z" transform="translate(-184.623 -485.605)" fill="none"/>
    </clipPath>
    <clipPath id="clip-path-11">
      <path id="Trazado_45333" data-name="Trazado 45333" d="M202.516,493.467H201.46v-.623a22.478,22.478,0,0,1-3.2-.269q-1.865-.359-1.83-1.226h2.939a.909.909,0,0,0,.427.527,4.83,4.83,0,0,0,1.668.273l0-1.338-.882-.074a12.777,12.777,0,0,1-2.938-.49c-.571-.208-.855-.46-.857-.753a.661.661,0,0,1,.333-.53,3.049,3.049,0,0,1,.932-.411,9.412,9.412,0,0,1,1.721-.309c.385-.031.947-.057,1.689-.075v-.417h1.057v.421a16.565,16.565,0,0,1,2.778.249c1.221.227,1.85.588,1.9,1.09h-2.863a.663.663,0,0,0-.324-.409,3.578,3.578,0,0,0-1.486-.244v1.194q2.583.256,3.474.452,1.463.329,1.464.928,0,.79-2.015,1.146a19.373,19.373,0,0,1-2.918.257Zm-1.062-4.6a5.263,5.263,0,0,0-1.405.148c-.3.091-.457.217-.456.376,0,.178.228.316.688.419a10.093,10.093,0,0,0,1.174.155Zm1.062,3.272a8.472,8.472,0,0,0,1.236-.111c.453-.1.679-.264.68-.5,0-.177-.212-.321-.637-.424a10.775,10.775,0,0,0-1.281-.188Z" transform="translate(-196.425 -487.754)" fill="#ffc435"/>
    </clipPath>
    <clipPath id="clip-path-12">
      <path id="Trazado_45335" data-name="Trazado 45335" d="M190.8,522.5c0,3.72-9.05,6.738-20.215,6.738s-20.218-3.018-20.218-6.738,9.052-11.1,20.218-11.1c8.634,0,17.311,2.3,20.207,5.366C190.951,520.084,190.8,521.913,190.8,522.5Z" transform="translate(-150.366 -511.399)" fill="none"/>
    </clipPath>
    <clipPath id="clip-path-13">
      <path id="Trazado_45343" data-name="Trazado 45343" d="M168.261,519.261H167.2v-.622a22.93,22.93,0,0,1-3.2-.268q-1.863-.363-1.83-1.229h2.94a.9.9,0,0,0,.427.526,4.789,4.789,0,0,0,1.667.274l0-1.338-.881-.073a12.5,12.5,0,0,1-2.938-.49c-.569-.207-.856-.458-.857-.751a.659.659,0,0,1,.333-.531,3.064,3.064,0,0,1,.932-.411,9.522,9.522,0,0,1,1.721-.309c.385-.031.946-.057,1.689-.074v-.417h1.057v.421a16.257,16.257,0,0,1,2.777.25c1.221.224,1.851.587,1.9,1.088h-2.864a.662.662,0,0,0-.325-.407,3.584,3.584,0,0,0-1.485-.245v1.194c1.721.172,2.881.323,3.472.455.977.218,1.465.528,1.465.926,0,.527-.672.907-2.016,1.147a19.522,19.522,0,0,1-2.917.255Zm-1.062-4.6a5.276,5.276,0,0,0-1.405.147c-.3.091-.458.218-.456.376,0,.178.227.318.687.419a9.814,9.814,0,0,0,1.175.156Zm1.062,3.271a8.119,8.119,0,0,0,1.236-.111c.454-.1.679-.263.682-.5,0-.177-.214-.323-.638-.424a10.5,10.5,0,0,0-1.282-.189Z" transform="translate(-162.168 -513.548)" fill="#ffc435"/>
    </clipPath>
    <clipPath id="clip-path-14">
      <path id="Trazado_45345" data-name="Trazado 45345" d="M188.845,516.051c0,3.722-9.049,6.739-20.214,6.739s-20.218-3.018-20.218-6.739,9.052-11.1,20.218-11.1c8.634,0,17.31,2.3,20.207,5.366C189,513.637,188.845,515.466,188.845,516.051Z" transform="translate(-148.413 -504.95)" fill="none"/>
    </clipPath>
    <clipPath id="clip-path-15">
      <path id="Trazado_45353" data-name="Trazado 45353" d="M166.306,512.813H165.25v-.623a22.535,22.535,0,0,1-3.2-.268c-1.243-.242-1.851-.65-1.83-1.227h2.94a.9.9,0,0,0,.426.526,4.79,4.79,0,0,0,1.668.275l0-1.338-.881-.075a12.706,12.706,0,0,1-2.939-.49c-.569-.207-.855-.461-.856-.753a.662.662,0,0,1,.333-.531,3.037,3.037,0,0,1,.932-.409,9.3,9.3,0,0,1,1.719-.309c.386-.034.948-.061,1.691-.075V507.1H166.3v.422a16.16,16.16,0,0,1,2.777.249c1.221.226,1.851.587,1.9,1.089h-2.863a.658.658,0,0,0-.325-.407,3.561,3.561,0,0,0-1.485-.245V509.4q2.583.256,3.472.453,1.465.327,1.464.927c0,.528-.67.907-2.015,1.148a19.7,19.7,0,0,1-2.918.257Zm-1.06-4.6a5.352,5.352,0,0,0-1.405.145c-.3.093-.457.221-.457.379,0,.178.228.316.688.42a9.918,9.918,0,0,0,1.175.153Zm1.06,3.272a8.433,8.433,0,0,0,1.237-.112c.454-.1.679-.264.68-.5,0-.179-.213-.323-.637-.424a10.7,10.7,0,0,0-1.283-.191Z" transform="translate(-160.215 -507.099)" fill="#ffc435"/>
    </clipPath>
    <clipPath id="clip-path-16">
      <path id="Trazado_45355" data-name="Trazado 45355" d="M190.8,509.6c0,3.72-9.05,6.738-20.215,6.738s-20.218-3.018-20.218-6.738,9.052-11.1,20.218-11.1c8.634,0,17.311,2.3,20.207,5.367C190.951,507.189,190.8,509.016,190.8,509.6Z" transform="translate(-150.366 -498.502)" fill="none"/>
    </clipPath>
    <clipPath id="clip-path-17">
      <path id="Trazado_45363" data-name="Trazado 45363" d="M168.261,506.364H167.2v-.622a22.707,22.707,0,0,1-3.2-.269q-1.863-.361-1.83-1.227h2.94a.905.905,0,0,0,.427.527,4.819,4.819,0,0,0,1.667.274l0-1.339-.881-.072a12.757,12.757,0,0,1-2.938-.491c-.569-.207-.856-.46-.857-.751a.663.663,0,0,1,.333-.531,3.067,3.067,0,0,1,.932-.41,9.407,9.407,0,0,1,1.721-.309c.385-.031.946-.059,1.689-.075v-.419h1.057v.422a16.251,16.251,0,0,1,2.777.25c1.221.224,1.851.586,1.9,1.089h-2.864a.661.661,0,0,0-.325-.409,3.588,3.588,0,0,0-1.485-.244v1.192c1.721.173,2.881.324,3.472.453q1.465.327,1.465.927,0,.791-2.016,1.146a19.033,19.033,0,0,1-2.917.257Zm-1.062-4.6a5.383,5.383,0,0,0-1.405.147c-.3.091-.458.219-.456.378,0,.177.227.316.687.419a10.14,10.14,0,0,0,1.175.154Zm1.062,3.272a8.421,8.421,0,0,0,1.236-.112c.454-.1.679-.264.682-.5,0-.178-.214-.323-.638-.425a10.593,10.593,0,0,0-1.282-.188Z" transform="translate(-162.168 -500.65)" fill="#ffc435"/>
    </clipPath>
  </defs>
  <g id="Grupo_21271" data-name="Grupo 21271" transform="translate(-841 -2287)">
    <circle id="Elipse_942" data-name="Elipse 942" cx="108.5" cy="108.5" r="108.5" transform="translate(841 2287)" fill="#fae7b7"/>
    <g id="Grupo_12477" data-name="Grupo 12477" transform="translate(779.791 1896.182)">
      <g id="Grupo_12252" data-name="Grupo 12252" transform="translate(99.209 455.565)">
        <g id="Grupo_12250" data-name="Grupo 12250" transform="translate(0 0.269)">
          <g id="Grupo_12249" data-name="Grupo 12249" style="isolation: isolate">
            <g id="Grupo_12248" data-name="Grupo 12248" clip-path="url(#clip-path)">
              <g id="Grupo_12247" data-name="Grupo 12247" transform="translate(0.01 0)">
                <path id="Trazado_45279" data-name="Trazado 45279" d="M120.542,472.109a2.824,2.824,0,0,0,.307-2.1,3.087,3.087,0,0,0-1.243-1.636,7.881,7.881,0,0,0-2.507-1.118,17.354,17.354,0,0,0-3.587-.547l5.2-5.933a33.437,33.437,0,0,0,3.869-.417,27.719,27.719,0,0,0,3.44-.8,15.858,15.858,0,0,0,2.674-1.055,5.62,5.62,0,0,0,1.643-1.2l53-.007a5.614,5.614,0,0,0,1.646,1.2,15.753,15.753,0,0,0,2.674,1.057,28.07,28.07,0,0,0,3.444.8,33.13,33.13,0,0,0,3.866.415l5.194,5.931a17.549,17.549,0,0,0-3.577.549,7.86,7.86,0,0,0-2.5,1.118,3.093,3.093,0,0,0-1.245,1.633,2.832,2.832,0,0,0,.31,2.1l-72.6.011m74.594-16.329-76.606.005L99.217,475.229l115.246-.015L195.137,455.78" transform="translate(-99.217 -455.78)" fill="#75b07e"/>
                <path id="Trazado_45280" data-name="Trazado 45280" d="M154.03,470.832a36.907,36.907,0,0,1-7.214-.685,21.826,21.826,0,0,1-5.451-1.782,7.869,7.869,0,0,1-3.059-2.433,2.918,2.918,0,0,1-.406-2.684,5.16,5.16,0,0,1,2.035-2.4,14.635,14.635,0,0,1,3.715-1.789,28.228,28.228,0,0,1,4.812-1.124,38.873,38.873,0,0,1,11.106,0,28.236,28.236,0,0,1,4.812,1.123,14.805,14.805,0,0,1,3.718,1.787,5.207,5.207,0,0,1,2.042,2.406,2.915,2.915,0,0,1-.4,2.682,7.847,7.847,0,0,1-3.054,2.433,21.821,21.821,0,0,1-5.445,1.783,36.83,36.83,0,0,1-7.206.688m26.481-13.839-53,.007a5.62,5.62,0,0,1-1.643,1.2,15.858,15.858,0,0,1-2.674,1.055,27.719,27.719,0,0,1-3.44.8,33.437,33.437,0,0,1-3.869.417l-5.2,5.933a17.354,17.354,0,0,1,3.587.547,7.881,7.881,0,0,1,2.507,1.118,3.087,3.087,0,0,1,1.243,1.636,2.824,2.824,0,0,1-.307,2.1l72.6-.011a2.832,2.832,0,0,1-.31-2.1,3.093,3.093,0,0,1,1.245-1.633,7.86,7.86,0,0,1,2.5-1.118,17.549,17.549,0,0,1,3.577-.549l-5.194-5.931a33.13,33.13,0,0,1-3.866-.415,28.07,28.07,0,0,1-3.444-.8,15.753,15.753,0,0,1-2.674-1.057,5.614,5.614,0,0,1-1.646-1.2" transform="translate(-96.395 -455.482)" fill="#ecebeb"/>
                <path id="Trazado_45281" data-name="Trazado 45281" d="M149.392,463.671l.041,2.251c.182-.01.351-.024.508-.036s.3-.031.435-.049.252-.039.358-.061a2.139,2.139,0,0,0,.284-.072,1.742,1.742,0,0,0,.375-.162,1.059,1.059,0,0,0,.26-.209.764.764,0,0,0,.147-.258.8.8,0,0,0,.034-.3.551.551,0,0,0-.066-.233.721.721,0,0,0-.164-.206,1.272,1.272,0,0,0-.26-.181,2.581,2.581,0,0,0-.355-.153c-.08-.024-.172-.054-.278-.08s-.226-.055-.359-.083-.279-.056-.44-.083-.334-.056-.52-.082m-1.266-3.338c-.179,0-.348.008-.5.016s-.3.026-.437.045a3.358,3.358,0,0,0-.37.066,2.442,2.442,0,0,0-.3.092,1.629,1.629,0,0,0-.238.117.956.956,0,0,0-.174.138.531.531,0,0,0-.11.158.5.5,0,0,0-.046.179.385.385,0,0,0,.041.194.511.511,0,0,0,.141.177,1.16,1.16,0,0,0,.245.157,2.6,2.6,0,0,0,.349.135c.072.024.158.045.252.067s.2.042.318.065.243.042.379.064.287.04.445.059l.014-1.729m-.062,5.607.03-2.451-1.075-.132c-.426-.05-.817-.1-1.177-.163s-.682-.126-.974-.2a7.63,7.63,0,0,1-.776-.219,4.068,4.068,0,0,1-.581-.25,2.768,2.768,0,0,1-.416-.272,1.519,1.519,0,0,1-.282-.3.965.965,0,0,1-.148-.318.881.881,0,0,1-.017-.339,1.071,1.071,0,0,1,.054-.224,1.161,1.161,0,0,1,.1-.211,1.34,1.34,0,0,1,.146-.2,1.712,1.712,0,0,1,.192-.187,2.422,2.422,0,0,1,.23-.174c.083-.056.172-.11.267-.161s.2-.1.3-.146.219-.092.338-.136c.151-.054.305-.1.463-.151s.319-.088.483-.125.331-.071.5-.1.344-.054.522-.073c.11-.012.23-.025.365-.035s.279-.021.437-.031.329-.017.51-.025.376-.016.582-.021l.007-.593h1.17l.009.6c.33.008.642.024.937.045s.573.044.835.073.5.067.733.108.44.087.634.137a6.71,6.71,0,0,1,.941.286,3.615,3.615,0,0,1,.709.368,1.992,1.992,0,0,1,.478.453,1.4,1.4,0,0,1,.242.548h-3.359a1.627,1.627,0,0,0-.076-.2,1.028,1.028,0,0,0-.091-.173.879.879,0,0,0-.112-.143.78.78,0,0,0-.135-.115,1.409,1.409,0,0,0-.29-.151,2.52,2.52,0,0,0-.382-.112,4.553,4.553,0,0,0-.477-.073c-.176-.019-.365-.03-.571-.036l.029,1.881q.776.106,1.428.207t1.182.2c.353.064.665.125.934.184s.5.117.685.173a5.846,5.846,0,0,1,.816.309,3.055,3.055,0,0,1,.612.375,1.731,1.731,0,0,1,.4.44,1.294,1.294,0,0,1,.187.51,1.392,1.392,0,0,1-.061.68,1.544,1.544,0,0,1-.4.6,2.968,2.968,0,0,1-.755.5,6.707,6.707,0,0,1-1.115.409c-.264.071-.542.137-.834.2s-.6.11-.917.153-.654.078-1,.107-.705.047-1.076.059l.019,1.317h-1.445l.017-1.3q-.714-.036-1.332-.086c-.412-.035-.795-.075-1.145-.121s-.669-.095-.958-.151-.544-.117-.771-.183a5.105,5.105,0,0,1-1.02-.419,2.516,2.516,0,0,1-.679-.536,1.6,1.6,0,0,1-.346-.642,1.783,1.783,0,0,1-.025-.739h3.685a3.357,3.357,0,0,0,.083.33,2.02,2.02,0,0,0,.11.274,1.224,1.224,0,0,0,.135.218.754.754,0,0,0,.158.157,1.47,1.47,0,0,0,.326.181,3.581,3.581,0,0,0,.463.148c.177.042.378.081.6.112s.467.056.734.078m.613-8.513a38.025,38.025,0,0,0-5.553.4,28.228,28.228,0,0,0-4.812,1.124,14.635,14.635,0,0,0-3.715,1.789,5.16,5.16,0,0,0-2.035,2.4,2.918,2.918,0,0,0,.406,2.684,7.869,7.869,0,0,0,3.059,2.433,21.826,21.826,0,0,0,5.451,1.782,38.208,38.208,0,0,0,14.42,0,21.821,21.821,0,0,0,5.445-1.783,7.847,7.847,0,0,0,3.054-2.433,2.915,2.915,0,0,0,.4-2.682,5.207,5.207,0,0,0-2.042-2.406,14.805,14.805,0,0,0-3.718-1.787,28.236,28.236,0,0,0-4.812-1.123,38.069,38.069,0,0,0-5.553-.4" transform="translate(-91.057 -455.375)" fill="#75b07e"/>
                <path id="Trazado_45282" data-name="Trazado 45282" d="M147.588,465.669l-.041-2.251c.186.026.36.055.52.082s.307.056.44.083.253.056.359.083.2.056.278.08a2.581,2.581,0,0,1,.355.153,1.272,1.272,0,0,1,.26.181.721.721,0,0,1,.164.206.551.551,0,0,1,.066.233.8.8,0,0,1-.034.3.764.764,0,0,1-.147.258,1.059,1.059,0,0,1-.26.209,1.742,1.742,0,0,1-.375.162,2.139,2.139,0,0,1-.284.072c-.106.022-.226.042-.358.061s-.278.034-.435.049-.326.026-.508.036m-1.321-3.86c-.158-.019-.305-.039-.445-.059s-.264-.044-.379-.064-.222-.042-.318-.065-.179-.044-.252-.067a2.6,2.6,0,0,1-.349-.135,1.16,1.16,0,0,1-.245-.157.511.511,0,0,1-.141-.177.385.385,0,0,1-.041-.194.5.5,0,0,1,.046-.179.531.531,0,0,1,.11-.158.956.956,0,0,1,.174-.138,1.629,1.629,0,0,1,.238-.117,2.442,2.442,0,0,1,.3-.092,3.358,3.358,0,0,1,.37-.066c.135-.019.28-.035.437-.045s.325-.015.5-.016l-.014,1.729m1.2-3.354H146.3l-.007.593c-.206,0-.4.011-.582.021s-.351.015-.51.025-.3.019-.437.031-.255.022-.365.035c-.178.02-.353.045-.522.073s-.34.062-.5.1-.325.078-.483.125-.313.1-.463.151c-.118.044-.232.09-.338.136s-.207.093-.3.146-.183.1-.267.161a2.422,2.422,0,0,0-.23.174,1.712,1.712,0,0,0-.192.187,1.34,1.34,0,0,0-.146.2,1.161,1.161,0,0,0-.1.211,1.071,1.071,0,0,0-.054.224.881.881,0,0,0,.017.339.965.965,0,0,0,.148.318,1.519,1.519,0,0,0,.282.3,2.768,2.768,0,0,0,.416.272,4.068,4.068,0,0,0,.581.25,7.63,7.63,0,0,0,.776.219c.293.071.617.137.974.2s.751.113,1.177.163l1.075.132-.03,2.451c-.267-.022-.512-.046-.734-.078s-.422-.07-.6-.112a3.581,3.581,0,0,1-.463-.148,1.47,1.47,0,0,1-.326-.181.754.754,0,0,1-.158-.157,1.224,1.224,0,0,1-.135-.218,2.02,2.02,0,0,1-.11-.274,3.357,3.357,0,0,1-.083-.33h-3.685a1.783,1.783,0,0,0,.025.739,1.6,1.6,0,0,0,.346.642,2.516,2.516,0,0,0,.679.536,5.105,5.105,0,0,0,1.02.419c.227.066.483.128.771.183s.607.107.958.151.733.086,1.145.121.856.062,1.332.086l-.017,1.3h1.445l-.019-1.317c.371-.011.73-.032,1.076-.059s.68-.065,1-.107.625-.095.917-.153.569-.125.834-.2a6.707,6.707,0,0,0,1.115-.409,2.968,2.968,0,0,0,.755-.5,1.544,1.544,0,0,0,.4-.6,1.392,1.392,0,0,0,.061-.68,1.294,1.294,0,0,0-.187-.51,1.731,1.731,0,0,0-.4-.44,3.055,3.055,0,0,0-.612-.375,5.846,5.846,0,0,0-.816-.309c-.186-.056-.414-.115-.685-.173s-.582-.121-.934-.184-.746-.13-1.182-.2-.911-.136-1.428-.207l-.029-1.881c.206.006.395.017.571.036a4.553,4.553,0,0,1,.477.073,2.52,2.52,0,0,1,.382.112,1.409,1.409,0,0,1,.29.151.78.78,0,0,1,.135.115.879.879,0,0,1,.112.143,1.028,1.028,0,0,1,.091.173,1.627,1.627,0,0,1,.076.2h3.359a1.4,1.4,0,0,0-.242-.548,1.992,1.992,0,0,0-.478-.453,3.615,3.615,0,0,0-.709-.368,6.71,6.71,0,0,0-.941-.286c-.194-.05-.4-.1-.634-.137s-.472-.077-.733-.108-.539-.056-.835-.073-.607-.037-.937-.045l-.009-.6" transform="translate(-89.212 -455.122)" fill="#ecebeb"/>
              </g>
            </g>
          </g>
        </g>
        <rect id="Rectángulo_3362" data-name="Rectángulo 3362" width="115.271" height="52.94" transform="translate(0 19.717)" fill="#66934f"/>
        <rect id="Rectángulo_3363" data-name="Rectángulo 3363" width="41.637" height="2.028" transform="translate(0 27.634)" fill="#4d6940"/>
        <rect id="Rectángulo_3364" data-name="Rectángulo 3364" width="79.245" height="2.027" transform="translate(36.026 32.836)" fill="#4d6940"/>
        <rect id="Rectángulo_3365" data-name="Rectángulo 3365" width="32.601" height="2.027" transform="translate(82.67 41.557)" fill="#4d6940"/>
        <rect id="Rectángulo_3366" data-name="Rectángulo 3366" width="41.637" height="2.027" transform="translate(0 41.557)" fill="#4d6940"/>
        <rect id="Rectángulo_3367" data-name="Rectángulo 3367" width="37.378" height="2.028" transform="translate(0 61.232)" fill="#4d6940"/>
        <rect id="Rectángulo_3368" data-name="Rectángulo 3368" width="36.792" height="2.028" transform="translate(78.479 48.786)" fill="#4d6940"/>
        <rect id="Rectángulo_3369" data-name="Rectángulo 3369" width="41.637" height="2.028" transform="translate(73.634 25.606)" fill="#4d6940"/>
        <rect id="Rectángulo_3370" data-name="Rectángulo 3370" width="30.348" height="2.03" transform="translate(0 50.681)" fill="#4d6940"/>
        <rect id="Rectángulo_3371" data-name="Rectángulo 3371" width="14.012" height="2.028" transform="translate(101.259 74.59)" fill="#4d6940"/>
        <rect id="Rectángulo_3372" data-name="Rectángulo 3372" width="48.919" height="52.94" transform="translate(33.751 19.717)" fill="#aaa89e"/>
        <path id="Trazado_45284" data-name="Trazado 45284" d="M140.317,455.564h16.538l6.767,19.717H133.55Z" transform="translate(-90.763 -455.564)" fill="none"/>
        <g id="Grupo_12251" data-name="Grupo 12251" transform="translate(33.751)">
          <path id="Trazado_45285" data-name="Trazado 45285" d="M126.3,475.282l10.731-19.717h26.227l11.96,19.717Z" transform="translate(-126.298 -455.564)" fill="#d6d5ca"/>
        </g>
      </g>
      <g id="Grupo_12280" data-name="Grupo 12280" transform="translate(205.629 524.844)">
        <path id="Trazado_45286" data-name="Trazado 45286" d="M225.055,522.121c0,3.72-9.05,6.738-20.215,6.738s-20.217-3.018-20.217-6.738c0-.811.019-5.816.019-5.816,2.823-2.588,11.461-3.36,20.2-3.36,7.147,0,16.555.562,20.149,3.147C224.989,516.092,225.055,520.779,225.055,522.121Z" transform="translate(-184.623 -510.732)" fill="#e39e2c"/>
        <g id="Grupo_12274" data-name="Grupo 12274" transform="translate(0 0.287)">
          <g id="Grupo_12273" data-name="Grupo 12273" clip-path="url(#clip-path-2)">
            <g id="Grupo_12272" data-name="Grupo 12272" transform="translate(1.087 6.549)">
              <g id="Grupo_12253" data-name="Grupo 12253">
                <rect id="Rectángulo_3373" data-name="Rectángulo 3373" width="0.684" height="12.078" fill="#c2703c"/>
              </g>
              <g id="Grupo_12254" data-name="Grupo 12254" transform="translate(2.146)">
                <rect id="Rectángulo_3374" data-name="Rectángulo 3374" width="0.684" height="12.078" fill="#c2703c"/>
              </g>
              <g id="Grupo_12255" data-name="Grupo 12255" transform="translate(4.294)">
                <rect id="Rectángulo_3375" data-name="Rectángulo 3375" width="0.684" height="12.078" fill="#c2703c"/>
              </g>
              <g id="Grupo_12256" data-name="Grupo 12256" transform="translate(6.44)">
                <rect id="Rectángulo_3376" data-name="Rectángulo 3376" width="0.683" height="12.078" fill="#c2703c"/>
              </g>
              <g id="Grupo_12257" data-name="Grupo 12257" transform="translate(8.586)">
                <rect id="Rectángulo_3377" data-name="Rectángulo 3377" width="0.684" height="12.078" fill="#c2703c"/>
              </g>
              <g id="Grupo_12258" data-name="Grupo 12258" transform="translate(10.734)">
                <rect id="Rectángulo_3378" data-name="Rectángulo 3378" width="0.684" height="12.078" fill="#c2703c"/>
              </g>
              <g id="Grupo_12259" data-name="Grupo 12259" transform="translate(12.88)">
                <rect id="Rectángulo_3379" data-name="Rectángulo 3379" width="0.684" height="12.078" fill="#c2703c"/>
              </g>
              <g id="Grupo_12260" data-name="Grupo 12260" transform="translate(15.028)">
                <rect id="Rectángulo_3380" data-name="Rectángulo 3380" width="0.683" height="12.078" fill="#c2703c"/>
              </g>
              <g id="Grupo_12261" data-name="Grupo 12261" transform="translate(17.174)">
                <rect id="Rectángulo_3381" data-name="Rectángulo 3381" width="0.684" height="12.078" fill="#c2703c"/>
              </g>
              <g id="Grupo_12262" data-name="Grupo 12262" transform="translate(19.322)">
                <rect id="Rectángulo_3382" data-name="Rectángulo 3382" width="0.683" height="12.078" fill="#c2703c"/>
              </g>
              <g id="Grupo_12263" data-name="Grupo 12263" transform="translate(21.468)">
                <rect id="Rectángulo_3383" data-name="Rectángulo 3383" width="0.684" height="12.078" fill="#c2703c"/>
              </g>
              <g id="Grupo_12264" data-name="Grupo 12264" transform="translate(23.614)">
                <rect id="Rectángulo_3384" data-name="Rectángulo 3384" width="0.684" height="12.078" fill="#c2703c"/>
              </g>
              <g id="Grupo_12265" data-name="Grupo 12265" transform="translate(25.762)">
                <rect id="Rectángulo_3385" data-name="Rectángulo 3385" width="0.683" height="12.078" fill="#c2703c"/>
              </g>
              <g id="Grupo_12266" data-name="Grupo 12266" transform="translate(27.908)">
                <rect id="Rectángulo_3386" data-name="Rectángulo 3386" width="0.684" height="12.078" fill="#c2703c"/>
              </g>
              <g id="Grupo_12267" data-name="Grupo 12267" transform="translate(30.055)">
                <rect id="Rectángulo_3387" data-name="Rectángulo 3387" width="0.685" height="12.078" fill="#c2703c"/>
              </g>
              <g id="Grupo_12268" data-name="Grupo 12268" transform="translate(32.202)">
                <rect id="Rectángulo_3388" data-name="Rectángulo 3388" width="0.684" height="12.078" fill="#c2703c"/>
              </g>
              <g id="Grupo_12269" data-name="Grupo 12269" transform="translate(34.35)">
                <rect id="Rectángulo_3389" data-name="Rectángulo 3389" width="0.683" height="12.078" fill="#c2703c"/>
              </g>
              <g id="Grupo_12270" data-name="Grupo 12270" transform="translate(36.495)">
                <rect id="Rectángulo_3390" data-name="Rectángulo 3390" width="0.685" height="12.078" fill="#c2703c"/>
              </g>
              <g id="Grupo_12271" data-name="Grupo 12271" transform="translate(38.642)">
                <rect id="Rectángulo_3391" data-name="Rectángulo 3391" width="0.684" height="12.078" fill="#c2703c"/>
              </g>
            </g>
          </g>
        </g>
        <path id="Trazado_45288" data-name="Trazado 45288" d="M225.055,516.981c0,3.208-9.05,6.814-20.215,6.814s-20.217-3.606-20.217-6.814,9.05-5.812,20.217-5.812S225.055,513.773,225.055,516.981Z" transform="translate(-184.623 -511.169)" fill="#ffc435"/>
        <g id="Grupo_12275" data-name="Grupo 12275" transform="translate(0)">
          <path id="Trazado_45289" data-name="Trazado 45289" d="M204.84,511.169c-11.166,0-20.217,2.6-20.217,5.812,0,1.595,1.756,3.308,5.38,4.358L212.5,511.6A66.252,66.252,0,0,0,204.84,511.169Z" transform="translate(-184.623 -511.169)" fill="#ffd37d"/>
        </g>
        <path id="Trazado_45290" data-name="Trazado 45290" d="M220.773,516.778c0,2.64-7.449,4.782-16.639,4.782s-16.642-2.142-16.642-4.782,7.451-4.783,16.642-4.783S220.773,514.134,220.773,516.778Z" transform="translate(-183.917 -510.966)" fill="#c2703c"/>
        <path id="Trazado_45291" data-name="Trazado 45291" d="M219.969,516.97c0,2.535-7.149,4.59-15.968,4.59s-15.969-2.055-15.969-4.59,7.15-4.589,15.969-4.589S219.969,514.436,219.969,516.97Z" transform="translate(-183.785 -510.871)" fill="#e39e2c"/>
        <g id="Grupo_12276" data-name="Grupo 12276" transform="translate(14.704 3.451)">
          <path id="Trazado_45292" data-name="Trazado 45292" d="M202.516,519.652l-1.057,0v-.625a22.55,22.55,0,0,1-3.2-.267q-1.865-.363-1.83-1.227h2.939a.917.917,0,0,0,.427.527,4.85,4.85,0,0,0,1.668.274l0-1.338-.882-.075a12.652,12.652,0,0,1-2.938-.488c-.571-.208-.855-.461-.857-.754a.668.668,0,0,1,.333-.532,3.146,3.146,0,0,1,.932-.41,9.408,9.408,0,0,1,1.721-.306c.385-.035.947-.061,1.689-.077v-.416h1.057v.424a16.053,16.053,0,0,1,2.778.249c1.221.222,1.85.586,1.9,1.088h-2.863a.67.67,0,0,0-.324-.409,3.6,3.6,0,0,0-1.486-.244v1.194q2.583.256,3.474.454,1.463.329,1.464.928c0,.523-.672.908-2.015,1.144a19.2,19.2,0,0,1-2.918.258Zm-1.062-4.6a5.3,5.3,0,0,0-1.405.145c-.3.093-.457.221-.456.381s.228.314.688.417a9.733,9.733,0,0,0,1.174.157Zm1.062,3.271a7.624,7.624,0,0,0,1.236-.112c.453-.1.679-.263.68-.5,0-.181-.212-.321-.637-.426a10.833,10.833,0,0,0-1.281-.187Z" transform="translate(-196.425 -513.939)" fill="#c2703c"/>
        </g>
        <g id="Grupo_12279" data-name="Grupo 12279" transform="translate(14.704 2.964)">
          <path id="Trazado_45293" data-name="Trazado 45293" d="M202.516,519.261H201.46v-.622a22.892,22.892,0,0,1-3.2-.268q-1.865-.363-1.83-1.229h2.939a.9.9,0,0,0,.427.526,4.792,4.792,0,0,0,1.668.274l0-1.338-.882-.073a12.5,12.5,0,0,1-2.938-.49c-.571-.207-.855-.458-.857-.751a.659.659,0,0,1,.333-.531,3.078,3.078,0,0,1,.932-.411,9.522,9.522,0,0,1,1.721-.309c.385-.031.947-.057,1.689-.074v-.417h1.057v.421a16.287,16.287,0,0,1,2.778.25c1.221.224,1.85.587,1.9,1.088h-2.863A.664.664,0,0,0,204,514.9a3.6,3.6,0,0,0-1.486-.245v1.194q2.583.258,3.474.455c.976.218,1.464.528,1.464.926,0,.527-.672.907-2.015,1.147a19.541,19.541,0,0,1-2.918.255Zm-1.062-4.6a5.276,5.276,0,0,0-1.405.147c-.3.091-.457.218-.456.376,0,.178.228.318.688.419a9.786,9.786,0,0,0,1.174.156Zm1.062,3.271a8.119,8.119,0,0,0,1.236-.111c.453-.1.679-.263.68-.5,0-.177-.212-.323-.637-.424a10.43,10.43,0,0,0-1.281-.189Z" transform="translate(-196.425 -513.548)" fill="#ffc435"/>
          <g id="Grupo_12278" data-name="Grupo 12278" clip-path="url(#clip-path-3)">
            <g id="Grupo_12277" data-name="Grupo 12277" transform="translate(-10.457 -2.589)">
              <path id="Trazado_45294" data-name="Trazado 45294" d="M208.25,511.47c-11.167,0-20.218,2.6-20.218,5.806,0,1.6,2.24,3.044,5.866,4.093l22.008-9.469A65.993,65.993,0,0,0,208.25,511.47Z" transform="translate(-188.032 -511.47)" fill="#ffd37d"/>
            </g>
          </g>
        </g>
      </g>
      <g id="Grupo_12308" data-name="Grupo 12308" transform="translate(204.006 516.81)">
        <path id="Trazado_45296" data-name="Trazado 45296" d="M223.752,515.671c0,3.722-9.049,6.739-20.214,6.739s-20.218-3.018-20.218-6.739c0-.807.019-5.816.019-5.816,2.825-2.587,11.463-3.358,20.2-3.358,7.145,0,16.555.562,20.149,3.146C223.687,509.643,223.752,514.331,223.752,515.671Z" transform="translate(-183.32 -504.284)" fill="#e39e2c"/>
        <g id="Grupo_12302" data-name="Grupo 12302" transform="translate(0 0.285)">
          <g id="Grupo_12301" data-name="Grupo 12301" clip-path="url(#clip-path-4)">
            <g id="Grupo_12300" data-name="Grupo 12300" transform="translate(1.087 6.551)">
              <g id="Grupo_12281" data-name="Grupo 12281">
                <rect id="Rectángulo_3392" data-name="Rectángulo 3392" width="0.684" height="12.077" fill="#c2703c"/>
              </g>
              <g id="Grupo_12282" data-name="Grupo 12282" transform="translate(2.146)">
                <rect id="Rectángulo_3393" data-name="Rectángulo 3393" width="0.684" height="12.077" fill="#c2703c"/>
              </g>
              <g id="Grupo_12283" data-name="Grupo 12283" transform="translate(4.294)">
                <rect id="Rectángulo_3394" data-name="Rectángulo 3394" width="0.684" height="12.077" fill="#c2703c"/>
              </g>
              <g id="Grupo_12284" data-name="Grupo 12284" transform="translate(6.441)">
                <rect id="Rectángulo_3395" data-name="Rectángulo 3395" width="0.683" height="12.077" fill="#c2703c"/>
              </g>
              <g id="Grupo_12285" data-name="Grupo 12285" transform="translate(8.588)">
                <rect id="Rectángulo_3396" data-name="Rectángulo 3396" width="0.683" height="12.077" fill="#c2703c"/>
              </g>
              <g id="Grupo_12286" data-name="Grupo 12286" transform="translate(10.734)">
                <rect id="Rectángulo_3397" data-name="Rectángulo 3397" width="0.684" height="12.077" fill="#c2703c"/>
              </g>
              <g id="Grupo_12287" data-name="Grupo 12287" transform="translate(12.882)">
                <rect id="Rectángulo_3398" data-name="Rectángulo 3398" width="0.684" height="12.077" fill="#c2703c"/>
              </g>
              <g id="Grupo_12288" data-name="Grupo 12288" transform="translate(15.028)">
                <rect id="Rectángulo_3399" data-name="Rectángulo 3399" width="0.684" height="12.077" fill="#c2703c"/>
              </g>
              <g id="Grupo_12289" data-name="Grupo 12289" transform="translate(17.174)">
                <rect id="Rectángulo_3400" data-name="Rectángulo 3400" width="0.685" height="12.077" fill="#c2703c"/>
              </g>
              <g id="Grupo_12290" data-name="Grupo 12290" transform="translate(19.322)">
                <rect id="Rectángulo_3401" data-name="Rectángulo 3401" width="0.684" height="12.077" fill="#c2703c"/>
              </g>
              <g id="Grupo_12291" data-name="Grupo 12291" transform="translate(21.469)">
                <rect id="Rectángulo_3402" data-name="Rectángulo 3402" width="0.683" height="12.077" fill="#c2703c"/>
              </g>
              <g id="Grupo_12292" data-name="Grupo 12292" transform="translate(23.616)">
                <rect id="Rectángulo_3403" data-name="Rectángulo 3403" width="0.684" height="12.077" fill="#c2703c"/>
              </g>
              <g id="Grupo_12293" data-name="Grupo 12293" transform="translate(25.762)">
                <rect id="Rectángulo_3404" data-name="Rectángulo 3404" width="0.684" height="12.077" fill="#c2703c"/>
              </g>
              <g id="Grupo_12294" data-name="Grupo 12294" transform="translate(27.909)">
                <rect id="Rectángulo_3405" data-name="Rectángulo 3405" width="0.684" height="12.077" fill="#c2703c"/>
              </g>
              <g id="Grupo_12295" data-name="Grupo 12295" transform="translate(30.056)">
                <rect id="Rectángulo_3406" data-name="Rectángulo 3406" width="0.684" height="12.077" fill="#c2703c"/>
              </g>
              <g id="Grupo_12296" data-name="Grupo 12296" transform="translate(32.203)">
                <rect id="Rectángulo_3407" data-name="Rectángulo 3407" width="0.683" height="12.077" fill="#c2703c"/>
              </g>
              <g id="Grupo_12297" data-name="Grupo 12297" transform="translate(34.35)">
                <rect id="Rectángulo_3408" data-name="Rectángulo 3408" width="0.684" height="12.077" fill="#c2703c"/>
              </g>
              <g id="Grupo_12298" data-name="Grupo 12298" transform="translate(36.496)">
                <rect id="Rectángulo_3409" data-name="Rectángulo 3409" width="0.684" height="12.077" fill="#c2703c"/>
              </g>
              <g id="Grupo_12299" data-name="Grupo 12299" transform="translate(38.643)">
                <rect id="Rectángulo_3410" data-name="Rectángulo 3410" width="0.684" height="12.077" fill="#c2703c"/>
              </g>
            </g>
          </g>
        </g>
        <path id="Trazado_45298" data-name="Trazado 45298" d="M223.752,510.533c0,3.207-9.049,6.813-20.214,6.813s-20.218-3.606-20.218-6.813,9.052-5.812,20.218-5.812S223.752,507.324,223.752,510.533Z" transform="translate(-183.32 -504.721)" fill="#ffc435"/>
        <g id="Grupo_12303" data-name="Grupo 12303">
          <path id="Trazado_45299" data-name="Trazado 45299" d="M203.538,504.721c-11.166,0-20.218,2.6-20.218,5.812,0,1.595,1.757,3.307,5.381,4.358l22.494-9.738A66.279,66.279,0,0,0,203.538,504.721Z" transform="translate(-183.32 -504.721)" fill="#ffd37d"/>
        </g>
        <path id="Trazado_45300" data-name="Trazado 45300" d="M219.471,510.33c0,2.64-7.449,4.782-16.639,4.782s-16.642-2.142-16.642-4.782,7.451-4.784,16.642-4.784S219.471,507.687,219.471,510.33Z" transform="translate(-182.614 -504.518)" fill="#c2703c"/>
        <path id="Trazado_45301" data-name="Trazado 45301" d="M218.666,510.521c0,2.535-7.149,4.591-15.967,4.591s-15.969-2.056-15.969-4.591,7.149-4.588,15.969-4.588S218.666,507.986,218.666,510.521Z" transform="translate(-182.481 -504.423)" fill="#e39e2c"/>
        <g id="Grupo_12304" data-name="Grupo 12304" transform="translate(14.704 3.45)">
          <path id="Trazado_45302" data-name="Trazado 45302" d="M201.215,513.2h-1.058v-.624a22.314,22.314,0,0,1-3.2-.269q-1.863-.357-1.83-1.226h2.94a.916.916,0,0,0,.427.528,4.884,4.884,0,0,0,1.667.273l0-1.338-.881-.074a12.639,12.639,0,0,1-2.938-.49c-.571-.207-.856-.46-.857-.754a.668.668,0,0,1,.333-.532,3.193,3.193,0,0,1,.932-.409,9.413,9.413,0,0,1,1.721-.306c.385-.036.947-.062,1.689-.077v-.417h1.057v.425a16.18,16.18,0,0,1,2.777.248q1.832.336,1.9,1.086H203.02a.669.669,0,0,0-.325-.406,3.609,3.609,0,0,0-1.485-.244v1.194q2.583.254,3.472.453,1.465.329,1.465.927,0,.789-2.013,1.144a18.945,18.945,0,0,1-2.919.258Zm-1.062-4.6a5.35,5.35,0,0,0-1.405.145c-.3.093-.458.222-.456.381,0,.176.228.314.687.417a10.325,10.325,0,0,0,1.175.156Zm1.062,3.272a7.775,7.775,0,0,0,1.236-.112c.454-.1.679-.263.682-.5,0-.182-.214-.323-.638-.426a11.133,11.133,0,0,0-1.282-.188Z" transform="translate(-195.122 -507.49)" fill="#c2703c"/>
        </g>
        <g id="Grupo_12307" data-name="Grupo 12307" transform="translate(14.704 2.963)">
          <path id="Trazado_45303" data-name="Trazado 45303" d="M201.215,512.813h-1.058v-.623a22.553,22.553,0,0,1-3.2-.268q-1.863-.363-1.83-1.227h2.94a.911.911,0,0,0,.427.526,4.775,4.775,0,0,0,1.667.275l0-1.338-.881-.075a12.706,12.706,0,0,1-2.938-.49c-.571-.207-.856-.461-.857-.753a.662.662,0,0,1,.333-.531,3.065,3.065,0,0,1,.932-.409,9.3,9.3,0,0,1,1.721-.309c.385-.034.947-.061,1.689-.075V507.1h1.057v.422a16.159,16.159,0,0,1,2.777.249q1.832.338,1.9,1.089H203.02a.658.658,0,0,0-.325-.407,3.561,3.561,0,0,0-1.485-.245V509.4q2.583.256,3.472.453,1.465.327,1.465.927c0,.528-.67.907-2.013,1.148a19.763,19.763,0,0,1-2.919.257Zm-1.062-4.6a5.352,5.352,0,0,0-1.405.145c-.3.093-.458.221-.456.379,0,.178.228.316.687.42a9.918,9.918,0,0,0,1.175.153Zm1.062,3.272a8.43,8.43,0,0,0,1.236-.112c.454-.1.679-.264.682-.5,0-.179-.214-.323-.638-.424a10.71,10.71,0,0,0-1.282-.191Z" transform="translate(-195.122 -507.099)" fill="#ffc435"/>
          <g id="Grupo_12306" data-name="Grupo 12306" clip-path="url(#clip-path-5)">
            <g id="Grupo_12305" data-name="Grupo 12305" transform="translate(-10.455 -2.589)">
              <path id="Trazado_45304" data-name="Trazado 45304" d="M206.947,505.021c-11.166,0-20.217,2.6-20.217,5.807,0,1.6,2.24,3.044,5.866,4.093l22.008-9.47A66.288,66.288,0,0,0,206.947,505.021Z" transform="translate(-186.73 -505.021)" fill="#ffd37d"/>
            </g>
          </g>
        </g>
      </g>
      <g id="Grupo_12336" data-name="Grupo 12336" transform="translate(205.629 508.775)">
        <path id="Trazado_45306" data-name="Trazado 45306" d="M225.055,509.224c0,3.72-9.05,6.738-20.215,6.738s-20.217-3.018-20.217-6.738c0-.81.019-5.819.019-5.819,2.823-2.587,11.461-3.357,20.2-3.357,7.147,0,16.555.561,20.149,3.145C224.989,503.194,225.055,507.883,225.055,509.224Z" transform="translate(-184.623 -497.835)" fill="#e39e2c"/>
        <g id="Grupo_12330" data-name="Grupo 12330" transform="translate(0 0.287)">
          <g id="Grupo_12329" data-name="Grupo 12329" clip-path="url(#clip-path-6)">
            <g id="Grupo_12328" data-name="Grupo 12328" transform="translate(1.087 6.55)">
              <g id="Grupo_12309" data-name="Grupo 12309">
                <rect id="Rectángulo_3411" data-name="Rectángulo 3411" width="0.684" height="12.077" fill="#c2703c"/>
              </g>
              <g id="Grupo_12310" data-name="Grupo 12310" transform="translate(2.146)">
                <rect id="Rectángulo_3412" data-name="Rectángulo 3412" width="0.684" height="12.077" fill="#c2703c"/>
              </g>
              <g id="Grupo_12311" data-name="Grupo 12311" transform="translate(4.294)">
                <rect id="Rectángulo_3413" data-name="Rectángulo 3413" width="0.684" height="12.077" fill="#c2703c"/>
              </g>
              <g id="Grupo_12312" data-name="Grupo 12312" transform="translate(6.44)">
                <rect id="Rectángulo_3414" data-name="Rectángulo 3414" width="0.683" height="12.077" fill="#c2703c"/>
              </g>
              <g id="Grupo_12313" data-name="Grupo 12313" transform="translate(8.586)">
                <rect id="Rectángulo_3415" data-name="Rectángulo 3415" width="0.684" height="12.077" fill="#c2703c"/>
              </g>
              <g id="Grupo_12314" data-name="Grupo 12314" transform="translate(10.734)">
                <rect id="Rectángulo_3416" data-name="Rectángulo 3416" width="0.684" height="12.077" fill="#c2703c"/>
              </g>
              <g id="Grupo_12315" data-name="Grupo 12315" transform="translate(12.88)">
                <rect id="Rectángulo_3417" data-name="Rectángulo 3417" width="0.684" height="12.077" fill="#c2703c"/>
              </g>
              <g id="Grupo_12316" data-name="Grupo 12316" transform="translate(15.028)">
                <rect id="Rectángulo_3418" data-name="Rectángulo 3418" width="0.683" height="12.077" fill="#c2703c"/>
              </g>
              <g id="Grupo_12317" data-name="Grupo 12317" transform="translate(17.174)">
                <rect id="Rectángulo_3419" data-name="Rectángulo 3419" width="0.684" height="12.077" fill="#c2703c"/>
              </g>
              <g id="Grupo_12318" data-name="Grupo 12318" transform="translate(19.322)">
                <rect id="Rectángulo_3420" data-name="Rectángulo 3420" width="0.683" height="12.077" fill="#c2703c"/>
              </g>
              <g id="Grupo_12319" data-name="Grupo 12319" transform="translate(21.468)">
                <rect id="Rectángulo_3421" data-name="Rectángulo 3421" width="0.684" height="12.077" fill="#c2703c"/>
              </g>
              <g id="Grupo_12320" data-name="Grupo 12320" transform="translate(23.614)">
                <rect id="Rectángulo_3422" data-name="Rectángulo 3422" width="0.684" height="12.077" fill="#c2703c"/>
              </g>
              <g id="Grupo_12321" data-name="Grupo 12321" transform="translate(25.762)">
                <rect id="Rectángulo_3423" data-name="Rectángulo 3423" width="0.683" height="12.077" fill="#c2703c"/>
              </g>
              <g id="Grupo_12322" data-name="Grupo 12322" transform="translate(27.908)">
                <rect id="Rectángulo_3424" data-name="Rectángulo 3424" width="0.684" height="12.077" fill="#c2703c"/>
              </g>
              <g id="Grupo_12323" data-name="Grupo 12323" transform="translate(30.055)">
                <rect id="Rectángulo_3425" data-name="Rectángulo 3425" width="0.685" height="12.077" fill="#c2703c"/>
              </g>
              <g id="Grupo_12324" data-name="Grupo 12324" transform="translate(32.202)">
                <rect id="Rectángulo_3426" data-name="Rectángulo 3426" width="0.684" height="12.077" fill="#c2703c"/>
              </g>
              <g id="Grupo_12325" data-name="Grupo 12325" transform="translate(34.35)">
                <rect id="Rectángulo_3427" data-name="Rectángulo 3427" width="0.683" height="12.077" fill="#c2703c"/>
              </g>
              <g id="Grupo_12326" data-name="Grupo 12326" transform="translate(36.495)">
                <rect id="Rectángulo_3428" data-name="Rectángulo 3428" width="0.685" height="12.077" fill="#c2703c"/>
              </g>
              <g id="Grupo_12327" data-name="Grupo 12327" transform="translate(38.642)">
                <rect id="Rectángulo_3429" data-name="Rectángulo 3429" width="0.684" height="12.077" fill="#c2703c"/>
              </g>
            </g>
          </g>
        </g>
        <path id="Trazado_45308" data-name="Trazado 45308" d="M225.055,504.086c0,3.208-9.05,6.812-20.215,6.812s-20.217-3.6-20.217-6.812,9.05-5.814,20.217-5.814S225.055,500.875,225.055,504.086Z" transform="translate(-184.623 -498.272)" fill="#ffc435"/>
        <g id="Grupo_12331" data-name="Grupo 12331" transform="translate(0)">
          <path id="Trazado_45309" data-name="Trazado 45309" d="M204.84,498.272c-11.166,0-20.217,2.6-20.217,5.814,0,1.595,1.756,3.307,5.38,4.357l22.494-9.737A65.967,65.967,0,0,0,204.84,498.272Z" transform="translate(-184.623 -498.272)" fill="#ffd37d"/>
        </g>
        <path id="Trazado_45310" data-name="Trazado 45310" d="M220.773,503.882c0,2.64-7.449,4.781-16.639,4.781s-16.642-2.141-16.642-4.781,7.451-4.783,16.642-4.783S220.773,501.237,220.773,503.882Z" transform="translate(-183.917 -498.069)" fill="#c2703c"/>
        <ellipse id="Elipse_945" data-name="Elipse 945" cx="15.968" cy="4.59" rx="15.968" ry="4.59" transform="translate(4.248 1.509)" fill="#e39e2c"/>
        <g id="Grupo_12332" data-name="Grupo 12332" transform="translate(14.704 3.451)">
          <path id="Trazado_45311" data-name="Trazado 45311" d="M202.516,506.756H201.46v-.623a22.478,22.478,0,0,1-3.2-.269q-1.865-.359-1.83-1.227h2.939a.912.912,0,0,0,.427.528,4.839,4.839,0,0,0,1.668.272l0-1.336-.882-.074a12.619,12.619,0,0,1-2.938-.491c-.571-.206-.855-.459-.857-.753a.668.668,0,0,1,.333-.532,3.113,3.113,0,0,1,.932-.409,9.107,9.107,0,0,1,1.721-.307c.385-.037.947-.061,1.689-.077v-.417h1.057v.424a16.183,16.183,0,0,1,2.778.249c1.221.223,1.85.586,1.9,1.086h-2.863A.668.668,0,0,0,204,502.4a3.594,3.594,0,0,0-1.486-.245v1.195a34.963,34.963,0,0,1,3.474.453q1.463.329,1.464.927c0,.525-.672.908-2.015,1.144a19.192,19.192,0,0,1-2.918.258Zm-1.062-4.6a5.339,5.339,0,0,0-1.405.146c-.3.093-.457.219-.456.38s.228.314.688.417a9.76,9.76,0,0,0,1.174.156Zm1.062,3.271a7.664,7.664,0,0,0,1.236-.111c.453-.1.679-.263.68-.5,0-.182-.212-.323-.637-.426a11.352,11.352,0,0,0-1.281-.188Z" transform="translate(-196.425 -501.042)" fill="#c2703c"/>
        </g>
        <g id="Grupo_12335" data-name="Grupo 12335" transform="translate(14.704 2.963)">
          <path id="Trazado_45312" data-name="Trazado 45312" d="M202.516,506.364H201.46v-.622a22.669,22.669,0,0,1-3.2-.269q-1.865-.361-1.83-1.227h2.939a.905.905,0,0,0,.427.527,4.822,4.822,0,0,0,1.668.274l0-1.339-.882-.072a12.757,12.757,0,0,1-2.938-.491c-.571-.207-.855-.46-.857-.751a.663.663,0,0,1,.333-.531,3.081,3.081,0,0,1,.932-.41,9.407,9.407,0,0,1,1.721-.309c.385-.031.947-.059,1.689-.075v-.419h1.057v.422a16.281,16.281,0,0,1,2.778.25c1.221.224,1.85.586,1.9,1.089h-2.863A.663.663,0,0,0,204,502a3.6,3.6,0,0,0-1.486-.244v1.192q2.583.26,3.474.453,1.463.327,1.464.927,0,.791-2.015,1.146a19.051,19.051,0,0,1-2.918.257Zm-1.062-4.6a5.383,5.383,0,0,0-1.405.147c-.3.091-.457.219-.456.378,0,.177.228.316.688.419a10.11,10.11,0,0,0,1.174.154Zm1.062,3.272a8.422,8.422,0,0,0,1.236-.112c.453-.1.679-.264.68-.5,0-.178-.212-.323-.637-.425a10.521,10.521,0,0,0-1.281-.188Z" transform="translate(-196.425 -500.65)" fill="#ffc435"/>
          <g id="Grupo_12334" data-name="Grupo 12334" clip-path="url(#clip-path-7)">
            <g id="Grupo_12333" data-name="Grupo 12333" transform="translate(-10.457 -2.59)">
              <path id="Trazado_45313" data-name="Trazado 45313" d="M208.25,498.571c-11.167,0-20.218,2.6-20.218,5.809,0,1.6,2.24,3.045,5.866,4.094L215.906,499A65.972,65.972,0,0,0,208.25,498.571Z" transform="translate(-188.032 -498.571)" fill="#ffd37d"/>
            </g>
          </g>
        </g>
      </g>
      <g id="Grupo_12364" data-name="Grupo 12364" transform="translate(203.196 500.741)">
        <path id="Trazado_45315" data-name="Trazado 45315" d="M223.1,502.775c0,3.72-9.052,6.738-20.215,6.738s-20.217-3.018-20.217-6.738c0-.81.017-5.816.017-5.816,2.825-2.587,11.463-3.358,20.2-3.358,7.147,0,16.555.561,20.148,3.145C223.035,496.746,223.1,501.435,223.1,502.775Z" transform="translate(-182.67 -491.387)" fill="#e39e2c"/>
        <g id="Grupo_12358" data-name="Grupo 12358" transform="translate(0 0.287)">
          <g id="Grupo_12357" data-name="Grupo 12357" clip-path="url(#clip-path-8)">
            <g id="Grupo_12356" data-name="Grupo 12356" transform="translate(1.086 6.549)">
              <g id="Grupo_12337" data-name="Grupo 12337">
                <rect id="Rectángulo_3430" data-name="Rectángulo 3430" width="0.684" height="12.077" fill="#c2703c"/>
              </g>
              <g id="Grupo_12338" data-name="Grupo 12338" transform="translate(2.146)">
                <rect id="Rectángulo_3431" data-name="Rectángulo 3431" width="0.684" height="12.077" fill="#c2703c"/>
              </g>
              <g id="Grupo_12339" data-name="Grupo 12339" transform="translate(4.294)">
                <rect id="Rectángulo_3432" data-name="Rectángulo 3432" width="0.683" height="12.077" fill="#c2703c"/>
              </g>
              <g id="Grupo_12340" data-name="Grupo 12340" transform="translate(6.44)">
                <rect id="Rectángulo_3433" data-name="Rectángulo 3433" width="0.683" height="12.077" fill="#c2703c"/>
              </g>
              <g id="Grupo_12341" data-name="Grupo 12341" transform="translate(8.586)">
                <rect id="Rectángulo_3434" data-name="Rectángulo 3434" width="0.684" height="12.077" fill="#c2703c"/>
              </g>
              <g id="Grupo_12342" data-name="Grupo 12342" transform="translate(10.734)">
                <rect id="Rectángulo_3435" data-name="Rectángulo 3435" width="0.683" height="12.077" fill="#c2703c"/>
              </g>
              <g id="Grupo_12343" data-name="Grupo 12343" transform="translate(12.88)">
                <rect id="Rectángulo_3436" data-name="Rectángulo 3436" width="0.684" height="12.077" fill="#c2703c"/>
              </g>
              <g id="Grupo_12344" data-name="Grupo 12344" transform="translate(15.027)">
                <rect id="Rectángulo_3437" data-name="Rectángulo 3437" width="0.684" height="12.077" fill="#c2703c"/>
              </g>
              <g id="Grupo_12345" data-name="Grupo 12345" transform="translate(17.174)">
                <rect id="Rectángulo_3438" data-name="Rectángulo 3438" width="0.684" height="12.077" fill="#c2703c"/>
              </g>
              <g id="Grupo_12346" data-name="Grupo 12346" transform="translate(19.322)">
                <rect id="Rectángulo_3439" data-name="Rectángulo 3439" width="0.683" height="12.077" fill="#c2703c"/>
              </g>
              <g id="Grupo_12347" data-name="Grupo 12347" transform="translate(21.467)">
                <rect id="Rectángulo_3440" data-name="Rectángulo 3440" width="0.684" height="12.077" fill="#c2703c"/>
              </g>
              <g id="Grupo_12348" data-name="Grupo 12348" transform="translate(23.614)">
                <rect id="Rectángulo_3441" data-name="Rectángulo 3441" width="0.684" height="12.077" fill="#c2703c"/>
              </g>
              <g id="Grupo_12349" data-name="Grupo 12349" transform="translate(25.762)">
                <rect id="Rectángulo_3442" data-name="Rectángulo 3442" width="0.683" height="12.077" fill="#c2703c"/>
              </g>
              <g id="Grupo_12350" data-name="Grupo 12350" transform="translate(27.908)">
                <rect id="Rectángulo_3443" data-name="Rectángulo 3443" width="0.684" height="12.077" fill="#c2703c"/>
              </g>
              <g id="Grupo_12351" data-name="Grupo 12351" transform="translate(30.055)">
                <rect id="Rectángulo_3444" data-name="Rectángulo 3444" width="0.685" height="12.077" fill="#c2703c"/>
              </g>
              <g id="Grupo_12352" data-name="Grupo 12352" transform="translate(32.202)">
                <rect id="Rectángulo_3445" data-name="Rectángulo 3445" width="0.684" height="12.077" fill="#c2703c"/>
              </g>
              <g id="Grupo_12353" data-name="Grupo 12353" transform="translate(34.348)">
                <rect id="Rectángulo_3446" data-name="Rectángulo 3446" width="0.684" height="12.077" fill="#c2703c"/>
              </g>
              <g id="Grupo_12354" data-name="Grupo 12354" transform="translate(36.495)">
                <rect id="Rectángulo_3447" data-name="Rectángulo 3447" width="0.685" height="12.077" fill="#c2703c"/>
              </g>
              <g id="Grupo_12355" data-name="Grupo 12355" transform="translate(38.642)">
                <rect id="Rectángulo_3448" data-name="Rectángulo 3448" width="0.684" height="12.077" fill="#c2703c"/>
              </g>
            </g>
          </g>
        </g>
        <path id="Trazado_45317" data-name="Trazado 45317" d="M223.1,497.636c0,3.208-9.052,6.813-20.215,6.813s-20.217-3.6-20.217-6.813,9.05-5.812,20.217-5.812S223.1,494.427,223.1,497.636Z" transform="translate(-182.67 -491.824)" fill="#ffc435"/>
        <g id="Grupo_12359" data-name="Grupo 12359" transform="translate(0)">
          <path id="Trazado_45318" data-name="Trazado 45318" d="M202.887,491.824c-11.166,0-20.217,2.6-20.217,5.812,0,1.6,1.756,3.308,5.38,4.357l22.494-9.737A66.266,66.266,0,0,0,202.887,491.824Z" transform="translate(-182.67 -491.824)" fill="#ffd37d"/>
        </g>
        <path id="Trazado_45319" data-name="Trazado 45319" d="M218.82,497.433c0,2.639-7.451,4.782-16.639,4.782s-16.642-2.143-16.642-4.782,7.451-4.784,16.642-4.784S218.82,494.79,218.82,497.433Z" transform="translate(-181.964 -491.621)" fill="#c2703c"/>
        <path id="Trazado_45320" data-name="Trazado 45320" d="M218.016,497.625c0,2.534-7.149,4.589-15.968,4.589s-15.969-2.055-15.969-4.589,7.149-4.589,15.969-4.589S218.016,495.091,218.016,497.625Z" transform="translate(-181.832 -491.526)" fill="#e39e2c"/>
        <g id="Grupo_12360" data-name="Grupo 12360" transform="translate(14.704 3.451)">
          <path id="Trazado_45321" data-name="Trazado 45321" d="M200.562,500.308h-1.055v-.624a22.481,22.481,0,0,1-3.206-.269q-1.863-.361-1.829-1.227h2.939a.915.915,0,0,0,.427.528,4.83,4.83,0,0,0,1.668.273l0-1.337-.882-.076a12.624,12.624,0,0,1-2.939-.487c-.569-.207-.853-.46-.856-.755a.666.666,0,0,1,.331-.531,3.126,3.126,0,0,1,.932-.41,9.306,9.306,0,0,1,1.722-.307c.385-.036.947-.062,1.689-.076v-.417h1.057v.424a15.914,15.914,0,0,1,2.778.249q1.832.335,1.9,1.086h-2.863a.664.664,0,0,0-.324-.407,3.614,3.614,0,0,0-1.488-.245V496.9a34.431,34.431,0,0,1,3.475.455q1.463.327,1.464.927c0,.523-.672.907-2.015,1.144a19.055,19.055,0,0,1-2.919.258Zm-1.06-4.6a5.392,5.392,0,0,0-1.405.146c-.3.093-.457.222-.456.38,0,.177.227.315.685.419a9.893,9.893,0,0,0,1.176.156Zm1.06,3.273a7.758,7.758,0,0,0,1.236-.112c.455-.1.68-.262.682-.5,0-.183-.214-.324-.637-.427a11.072,11.072,0,0,0-1.282-.188Z" transform="translate(-194.472 -494.594)" fill="#c2703c"/>
        </g>
        <g id="Grupo_12363" data-name="Grupo 12363" transform="translate(14.704 2.963)">
          <path id="Trazado_45322" data-name="Trazado 45322" d="M200.562,499.916h-1.055v-.622a22.684,22.684,0,0,1-3.206-.269q-1.863-.361-1.829-1.227h2.939a.908.908,0,0,0,.427.527,4.851,4.851,0,0,0,1.668.274l0-1.338-.882-.074a12.716,12.716,0,0,1-2.939-.491c-.569-.207-.853-.46-.856-.751a.661.661,0,0,1,.331-.531,3.036,3.036,0,0,1,.932-.409,9.194,9.194,0,0,1,1.722-.309c.385-.035.947-.061,1.689-.077V494.2h1.057v.422a16.421,16.421,0,0,1,2.778.249q1.832.338,1.9,1.089h-2.863a.667.667,0,0,0-.324-.409,3.64,3.64,0,0,0-1.488-.244V496.5q2.585.258,3.475.455,1.463.329,1.464.927c0,.528-.672.908-2.015,1.146a19.383,19.383,0,0,1-2.919.257Zm-1.06-4.6a5.4,5.4,0,0,0-1.405.146c-.3.092-.457.219-.456.379,0,.177.227.315.685.419a10.518,10.518,0,0,0,1.176.155Zm1.06,3.272a8.826,8.826,0,0,0,1.236-.111c.455-.1.68-.265.682-.5,0-.178-.214-.321-.637-.424a10.923,10.923,0,0,0-1.282-.191Z" transform="translate(-194.472 -494.202)" fill="#ffc435"/>
          <g id="Grupo_12362" data-name="Grupo 12362" clip-path="url(#clip-path-9)">
            <g id="Grupo_12361" data-name="Grupo 12361" transform="translate(-10.457 -2.589)">
              <path id="Trazado_45323" data-name="Trazado 45323" d="M206.3,492.124c-11.165,0-20.217,2.6-20.217,5.807,0,1.6,2.24,3.045,5.866,4.092l22.008-9.468A65.992,65.992,0,0,0,206.3,492.124Z" transform="translate(-186.079 -492.124)" fill="#ffd37d"/>
            </g>
          </g>
        </g>
      </g>
      <g id="Grupo_12392" data-name="Grupo 12392" transform="translate(205.629 492.708)">
        <path id="Trazado_45325" data-name="Trazado 45325" d="M225.055,496.328c0,3.718-9.05,6.738-20.215,6.738s-20.217-3.02-20.217-6.738c0-.811.019-5.819.019-5.819,2.823-2.587,11.461-3.358,20.2-3.358,7.147,0,16.555.562,20.149,3.146C224.989,490.3,225.055,494.986,225.055,496.328Z" transform="translate(-184.623 -484.939)" fill="#e39e2c"/>
        <g id="Grupo_12386" data-name="Grupo 12386" transform="translate(0 0.285)">
          <g id="Grupo_12385" data-name="Grupo 12385" clip-path="url(#clip-path-10)">
            <g id="Grupo_12384" data-name="Grupo 12384" transform="translate(1.087 6.55)">
              <g id="Grupo_12365" data-name="Grupo 12365">
                <rect id="Rectángulo_3449" data-name="Rectángulo 3449" width="0.684" height="12.077" fill="#c2703c"/>
              </g>
              <g id="Grupo_12366" data-name="Grupo 12366" transform="translate(2.146)">
                <rect id="Rectángulo_3450" data-name="Rectángulo 3450" width="0.684" height="12.077" fill="#c2703c"/>
              </g>
              <g id="Grupo_12367" data-name="Grupo 12367" transform="translate(4.294)">
                <rect id="Rectángulo_3451" data-name="Rectángulo 3451" width="0.684" height="12.077" fill="#c2703c"/>
              </g>
              <g id="Grupo_12368" data-name="Grupo 12368" transform="translate(6.44)">
                <rect id="Rectángulo_3452" data-name="Rectángulo 3452" width="0.683" height="12.077" fill="#c2703c"/>
              </g>
              <g id="Grupo_12369" data-name="Grupo 12369" transform="translate(8.586)">
                <rect id="Rectángulo_3453" data-name="Rectángulo 3453" width="0.684" height="12.077" fill="#c2703c"/>
              </g>
              <g id="Grupo_12370" data-name="Grupo 12370" transform="translate(10.734)">
                <rect id="Rectángulo_3454" data-name="Rectángulo 3454" width="0.684" height="12.077" fill="#c2703c"/>
              </g>
              <g id="Grupo_12371" data-name="Grupo 12371" transform="translate(12.88)">
                <rect id="Rectángulo_3455" data-name="Rectángulo 3455" width="0.684" height="12.077" fill="#c2703c"/>
              </g>
              <g id="Grupo_12372" data-name="Grupo 12372" transform="translate(15.028)">
                <rect id="Rectángulo_3456" data-name="Rectángulo 3456" width="0.683" height="12.077" fill="#c2703c"/>
              </g>
              <g id="Grupo_12373" data-name="Grupo 12373" transform="translate(17.174)">
                <rect id="Rectángulo_3457" data-name="Rectángulo 3457" width="0.684" height="12.077" fill="#c2703c"/>
              </g>
              <g id="Grupo_12374" data-name="Grupo 12374" transform="translate(19.322)">
                <rect id="Rectángulo_3458" data-name="Rectángulo 3458" width="0.683" height="12.077" fill="#c2703c"/>
              </g>
              <g id="Grupo_12375" data-name="Grupo 12375" transform="translate(21.468)">
                <rect id="Rectángulo_3459" data-name="Rectángulo 3459" width="0.684" height="12.077" fill="#c2703c"/>
              </g>
              <g id="Grupo_12376" data-name="Grupo 12376" transform="translate(23.614)">
                <rect id="Rectángulo_3460" data-name="Rectángulo 3460" width="0.684" height="12.077" fill="#c2703c"/>
              </g>
              <g id="Grupo_12377" data-name="Grupo 12377" transform="translate(25.762)">
                <rect id="Rectángulo_3461" data-name="Rectángulo 3461" width="0.683" height="12.077" fill="#c2703c"/>
              </g>
              <g id="Grupo_12378" data-name="Grupo 12378" transform="translate(27.908)">
                <rect id="Rectángulo_3462" data-name="Rectángulo 3462" width="0.684" height="12.077" fill="#c2703c"/>
              </g>
              <g id="Grupo_12379" data-name="Grupo 12379" transform="translate(30.055)">
                <rect id="Rectángulo_3463" data-name="Rectángulo 3463" width="0.685" height="12.077" fill="#c2703c"/>
              </g>
              <g id="Grupo_12380" data-name="Grupo 12380" transform="translate(32.202)">
                <rect id="Rectángulo_3464" data-name="Rectángulo 3464" width="0.684" height="12.077" fill="#c2703c"/>
              </g>
              <g id="Grupo_12381" data-name="Grupo 12381" transform="translate(34.35)">
                <rect id="Rectángulo_3465" data-name="Rectángulo 3465" width="0.683" height="12.077" fill="#c2703c"/>
              </g>
              <g id="Grupo_12382" data-name="Grupo 12382" transform="translate(36.495)">
                <rect id="Rectángulo_3466" data-name="Rectángulo 3466" width="0.685" height="12.077" fill="#c2703c"/>
              </g>
              <g id="Grupo_12383" data-name="Grupo 12383" transform="translate(38.642)">
                <rect id="Rectángulo_3467" data-name="Rectángulo 3467" width="0.684" height="12.077" fill="#c2703c"/>
              </g>
            </g>
          </g>
        </g>
        <path id="Trazado_45327" data-name="Trazado 45327" d="M225.055,491.188c0,3.208-9.05,6.813-20.215,6.813s-20.217-3.6-20.217-6.813,9.05-5.812,20.217-5.812S225.055,487.979,225.055,491.188Z" transform="translate(-184.623 -485.376)" fill="#ffc435"/>
        <g id="Grupo_12387" data-name="Grupo 12387" transform="translate(0)">
          <path id="Trazado_45328" data-name="Trazado 45328" d="M204.84,485.376c-11.166,0-20.217,2.6-20.217,5.812,0,1.595,1.756,3.305,5.38,4.357l22.494-9.737A66.263,66.263,0,0,0,204.84,485.376Z" transform="translate(-184.623 -485.376)" fill="#ffd37d"/>
        </g>
        <path id="Trazado_45329" data-name="Trazado 45329" d="M220.773,490.985c0,2.639-7.449,4.782-16.639,4.782s-16.642-2.143-16.642-4.782,7.451-4.783,16.642-4.783S220.773,488.341,220.773,490.985Z" transform="translate(-183.917 -485.173)" fill="#c2703c"/>
        <ellipse id="Elipse_946" data-name="Elipse 946" cx="15.968" cy="4.59" rx="15.968" ry="4.59" transform="translate(4.248 1.509)" fill="#e39e2c"/>
        <g id="Grupo_12388" data-name="Grupo 12388" transform="translate(14.704 3.45)">
          <path id="Trazado_45330" data-name="Trazado 45330" d="M202.516,493.858H201.46v-.623a22.7,22.7,0,0,1-3.2-.268q-1.865-.361-1.83-1.229h2.939a.908.908,0,0,0,.427.528,4.83,4.83,0,0,0,1.668.273l0-1.336-.882-.076a12.568,12.568,0,0,1-2.938-.49c-.571-.207-.855-.458-.857-.751a.668.668,0,0,1,.333-.533,3.115,3.115,0,0,1,.932-.409,9.311,9.311,0,0,1,1.721-.306c.385-.036.947-.061,1.689-.078v-.416h1.057v.424a16.3,16.3,0,0,1,2.778.249c1.221.223,1.85.586,1.9,1.088h-2.863A.677.677,0,0,0,204,489.5a3.621,3.621,0,0,0-1.486-.244v1.194q2.583.258,3.474.455,1.463.327,1.464.928c0,.523-.672.907-2.015,1.143a19.044,19.044,0,0,1-2.918.258Zm-1.062-4.6a5.361,5.361,0,0,0-1.405.143c-.3.093-.457.222-.456.383s.228.314.688.416a9.461,9.461,0,0,0,1.174.157Zm1.062,3.271a7.783,7.783,0,0,0,1.236-.112c.453-.1.679-.263.68-.5,0-.183-.212-.324-.637-.426a10.775,10.775,0,0,0-1.281-.188Z" transform="translate(-196.425 -488.145)" fill="#c2703c"/>
        </g>
        <g id="Grupo_12391" data-name="Grupo 12391" transform="translate(14.704 2.963)">
          <path id="Trazado_45331" data-name="Trazado 45331" d="M202.516,493.467H201.46v-.623a22.478,22.478,0,0,1-3.2-.269q-1.865-.359-1.83-1.226h2.939a.909.909,0,0,0,.427.527,4.83,4.83,0,0,0,1.668.273l0-1.338-.882-.074a12.777,12.777,0,0,1-2.938-.49c-.571-.208-.855-.46-.857-.753a.661.661,0,0,1,.333-.53,3.049,3.049,0,0,1,.932-.411,9.412,9.412,0,0,1,1.721-.309c.385-.031.947-.057,1.689-.075v-.417h1.057v.421a16.565,16.565,0,0,1,2.778.249c1.221.227,1.85.588,1.9,1.09h-2.863a.663.663,0,0,0-.324-.409,3.578,3.578,0,0,0-1.486-.244v1.194q2.583.256,3.474.452,1.463.329,1.464.928,0,.79-2.015,1.146a19.373,19.373,0,0,1-2.918.257Zm-1.062-4.6a5.263,5.263,0,0,0-1.405.148c-.3.091-.457.217-.456.376,0,.178.228.316.688.419a10.093,10.093,0,0,0,1.174.155Zm1.062,3.272a8.472,8.472,0,0,0,1.236-.111c.453-.1.679-.264.68-.5,0-.177-.212-.321-.637-.424a10.775,10.775,0,0,0-1.281-.188Z" transform="translate(-196.425 -487.754)" fill="#ffc435"/>
          <g id="Grupo_12390" data-name="Grupo 12390" clip-path="url(#clip-path-11)">
            <g id="Grupo_12389" data-name="Grupo 12389" transform="translate(-10.457 -2.59)">
              <path id="Trazado_45332" data-name="Trazado 45332" d="M208.25,485.675c-11.167,0-20.218,2.6-20.218,5.809,0,1.6,2.24,3.044,5.866,4.093l22.008-9.47A65.983,65.983,0,0,0,208.25,485.675Z" transform="translate(-188.032 -485.675)" fill="#ffd37d"/>
            </g>
          </g>
        </g>
      </g>
      <g id="Grupo_12420" data-name="Grupo 12420" transform="translate(162.947 524.844)">
        <path id="Trazado_45334" data-name="Trazado 45334" d="M190.8,522.121c0,3.72-9.05,6.738-20.215,6.738s-20.218-3.018-20.218-6.738c0-.811.019-5.816.019-5.816,2.823-2.588,11.463-3.36,20.2-3.36,7.147,0,16.555.562,20.149,3.147C190.733,516.092,190.8,520.779,190.8,522.121Z" transform="translate(-150.366 -510.732)" fill="#e39e2c"/>
        <g id="Grupo_12414" data-name="Grupo 12414" transform="translate(0 0.287)">
          <g id="Grupo_12413" data-name="Grupo 12413" clip-path="url(#clip-path-12)">
            <g id="Grupo_12412" data-name="Grupo 12412" transform="translate(1.088 6.549)">
              <g id="Grupo_12393" data-name="Grupo 12393">
                <rect id="Rectángulo_3468" data-name="Rectángulo 3468" width="0.683" height="12.078" fill="#c2703c"/>
              </g>
              <g id="Grupo_12394" data-name="Grupo 12394" transform="translate(2.145)">
                <rect id="Rectángulo_3469" data-name="Rectángulo 3469" width="0.684" height="12.078" fill="#c2703c"/>
              </g>
              <g id="Grupo_12395" data-name="Grupo 12395" transform="translate(4.293)">
                <rect id="Rectángulo_3470" data-name="Rectángulo 3470" width="0.684" height="12.078" fill="#c2703c"/>
              </g>
              <g id="Grupo_12396" data-name="Grupo 12396" transform="translate(6.44)">
                <rect id="Rectángulo_3471" data-name="Rectángulo 3471" width="0.683" height="12.078" fill="#c2703c"/>
              </g>
              <g id="Grupo_12397" data-name="Grupo 12397" transform="translate(8.586)">
                <rect id="Rectángulo_3472" data-name="Rectángulo 3472" width="0.683" height="12.078" fill="#c2703c"/>
              </g>
              <g id="Grupo_12398" data-name="Grupo 12398" transform="translate(10.734)">
                <rect id="Rectángulo_3473" data-name="Rectángulo 3473" width="0.683" height="12.078" fill="#c2703c"/>
              </g>
              <g id="Grupo_12399" data-name="Grupo 12399" transform="translate(12.88)">
                <rect id="Rectángulo_3474" data-name="Rectángulo 3474" width="0.684" height="12.078" fill="#c2703c"/>
              </g>
              <g id="Grupo_12400" data-name="Grupo 12400" transform="translate(15.027)">
                <rect id="Rectángulo_3475" data-name="Rectángulo 3475" width="0.684" height="12.078" fill="#c2703c"/>
              </g>
              <g id="Grupo_12401" data-name="Grupo 12401" transform="translate(17.173)">
                <rect id="Rectángulo_3476" data-name="Rectángulo 3476" width="0.685" height="12.078" fill="#c2703c"/>
              </g>
              <g id="Grupo_12402" data-name="Grupo 12402" transform="translate(19.32)">
                <rect id="Rectángulo_3477" data-name="Rectángulo 3477" width="0.684" height="12.078" fill="#c2703c"/>
              </g>
              <g id="Grupo_12403" data-name="Grupo 12403" transform="translate(21.467)">
                <rect id="Rectángulo_3478" data-name="Rectángulo 3478" width="0.684" height="12.078" fill="#c2703c"/>
              </g>
              <g id="Grupo_12404" data-name="Grupo 12404" transform="translate(23.614)">
                <rect id="Rectángulo_3479" data-name="Rectángulo 3479" width="0.684" height="12.078" fill="#c2703c"/>
              </g>
              <g id="Grupo_12405" data-name="Grupo 12405" transform="translate(25.761)">
                <rect id="Rectángulo_3480" data-name="Rectángulo 3480" width="0.684" height="12.078" fill="#c2703c"/>
              </g>
              <g id="Grupo_12406" data-name="Grupo 12406" transform="translate(27.908)">
                <rect id="Rectángulo_3481" data-name="Rectángulo 3481" width="0.684" height="12.078" fill="#c2703c"/>
              </g>
              <g id="Grupo_12407" data-name="Grupo 12407" transform="translate(30.054)">
                <rect id="Rectángulo_3482" data-name="Rectángulo 3482" width="0.684" height="12.078" fill="#c2703c"/>
              </g>
              <g id="Grupo_12408" data-name="Grupo 12408" transform="translate(32.202)">
                <rect id="Rectángulo_3483" data-name="Rectángulo 3483" width="0.684" height="12.078" fill="#c2703c"/>
              </g>
              <g id="Grupo_12409" data-name="Grupo 12409" transform="translate(34.348)">
                <rect id="Rectángulo_3484" data-name="Rectángulo 3484" width="0.684" height="12.078" fill="#c2703c"/>
              </g>
              <g id="Grupo_12410" data-name="Grupo 12410" transform="translate(36.495)">
                <rect id="Rectángulo_3485" data-name="Rectángulo 3485" width="0.684" height="12.078" fill="#c2703c"/>
              </g>
              <g id="Grupo_12411" data-name="Grupo 12411" transform="translate(38.642)">
                <rect id="Rectángulo_3486" data-name="Rectángulo 3486" width="0.684" height="12.078" fill="#c2703c"/>
              </g>
            </g>
          </g>
        </g>
        <path id="Trazado_45336" data-name="Trazado 45336" d="M190.8,516.981c0,3.208-9.05,6.814-20.215,6.814s-20.218-3.606-20.218-6.814,9.052-5.812,20.218-5.812S190.8,513.773,190.8,516.981Z" transform="translate(-150.366 -511.169)" fill="#ffc435"/>
        <g id="Grupo_12415" data-name="Grupo 12415" transform="translate(0)">
          <path id="Trazado_45337" data-name="Trazado 45337" d="M170.584,511.169c-11.166,0-20.218,2.6-20.218,5.812,0,1.595,1.757,3.308,5.381,4.358l22.494-9.737A66.253,66.253,0,0,0,170.584,511.169Z" transform="translate(-150.366 -511.169)" fill="#ffd37d"/>
        </g>
        <path id="Trazado_45338" data-name="Trazado 45338" d="M186.517,516.778c0,2.64-7.449,4.782-16.639,4.782s-16.642-2.142-16.642-4.782,7.451-4.783,16.642-4.783S186.517,514.134,186.517,516.778Z" transform="translate(-149.66 -510.966)" fill="#c2703c"/>
        <path id="Trazado_45339" data-name="Trazado 45339" d="M185.712,516.97c0,2.535-7.149,4.59-15.967,4.59s-15.97-2.055-15.97-4.59,7.152-4.589,15.97-4.589S185.712,514.436,185.712,516.97Z" transform="translate(-149.528 -510.871)" fill="#e39e2c"/>
        <g id="Grupo_12416" data-name="Grupo 12416" transform="translate(14.704 3.451)">
          <path id="Trazado_45340" data-name="Trazado 45340" d="M168.261,519.652l-1.058,0v-.625a22.586,22.586,0,0,1-3.2-.267q-1.863-.363-1.83-1.227h2.94a.917.917,0,0,0,.427.527,4.848,4.848,0,0,0,1.667.274l0-1.338-.881-.075a12.652,12.652,0,0,1-2.938-.488c-.569-.208-.856-.461-.857-.754a.668.668,0,0,1,.333-.532,3.132,3.132,0,0,1,.932-.41,9.408,9.408,0,0,1,1.721-.306c.385-.035.946-.061,1.689-.077v-.416h1.057v.424a16.024,16.024,0,0,1,2.777.249c1.221.222,1.851.586,1.9,1.088h-2.864a.668.668,0,0,0-.325-.409,3.589,3.589,0,0,0-1.485-.244v1.194c1.721.171,2.881.321,3.472.454q1.465.329,1.465.928c0,.523-.672.908-2.016,1.144a19.182,19.182,0,0,1-2.917.258Zm-1.062-4.6a5.3,5.3,0,0,0-1.405.145c-.3.093-.458.221-.456.381s.227.314.687.417a9.761,9.761,0,0,0,1.175.157Zm1.062,3.271a7.624,7.624,0,0,0,1.236-.112c.454-.1.679-.263.682-.5,0-.181-.214-.321-.638-.426a10.909,10.909,0,0,0-1.282-.187Z" transform="translate(-162.168 -513.939)" fill="#c2703c"/>
        </g>
        <g id="Grupo_12419" data-name="Grupo 12419" transform="translate(14.704 2.964)">
          <path id="Trazado_45341" data-name="Trazado 45341" d="M168.261,519.261H167.2v-.622a22.93,22.93,0,0,1-3.2-.268q-1.863-.363-1.83-1.229h2.94a.9.9,0,0,0,.427.526,4.789,4.789,0,0,0,1.667.274l0-1.338-.881-.073a12.5,12.5,0,0,1-2.938-.49c-.569-.207-.856-.458-.857-.751a.659.659,0,0,1,.333-.531,3.064,3.064,0,0,1,.932-.411,9.522,9.522,0,0,1,1.721-.309c.385-.031.946-.057,1.689-.074v-.417h1.057v.421a16.257,16.257,0,0,1,2.777.25c1.221.224,1.851.587,1.9,1.088h-2.864a.662.662,0,0,0-.325-.407,3.584,3.584,0,0,0-1.485-.245v1.194c1.721.172,2.881.323,3.472.455.977.218,1.465.528,1.465.926,0,.527-.672.907-2.016,1.147a19.522,19.522,0,0,1-2.917.255Zm-1.062-4.6a5.276,5.276,0,0,0-1.405.147c-.3.091-.458.218-.456.376,0,.178.227.318.687.419a9.814,9.814,0,0,0,1.175.156Zm1.062,3.271a8.119,8.119,0,0,0,1.236-.111c.454-.1.679-.263.682-.5,0-.177-.214-.323-.638-.424a10.5,10.5,0,0,0-1.282-.189Z" transform="translate(-162.168 -513.548)" fill="#ffc435"/>
          <g id="Grupo_12418" data-name="Grupo 12418" clip-path="url(#clip-path-13)">
            <g id="Grupo_12417" data-name="Grupo 12417" transform="translate(-10.457 -2.589)">
              <path id="Trazado_45342" data-name="Trazado 45342" d="M173.993,511.47c-11.166,0-20.218,2.6-20.218,5.806,0,1.6,2.241,3.044,5.866,4.093L181.65,511.9A66.015,66.015,0,0,0,173.993,511.47Z" transform="translate(-153.775 -511.47)" fill="#ffd37d"/>
            </g>
          </g>
        </g>
      </g>
      <g id="Grupo_12448" data-name="Grupo 12448" transform="translate(160.514 516.81)">
        <path id="Trazado_45344" data-name="Trazado 45344" d="M188.845,515.671c0,3.722-9.049,6.739-20.214,6.739s-20.218-3.018-20.218-6.739c0-.807.019-5.816.019-5.816,2.823-2.587,11.463-3.358,20.2-3.358,7.145,0,16.555.562,20.148,3.146C188.779,509.643,188.846,514.331,188.845,515.671Z" transform="translate(-148.413 -504.284)" fill="#e39e2c"/>
        <g id="Grupo_12442" data-name="Grupo 12442" transform="translate(0 0.285)">
          <g id="Grupo_12441" data-name="Grupo 12441" clip-path="url(#clip-path-14)">
            <g id="Grupo_12440" data-name="Grupo 12440" transform="translate(1.087 6.551)">
              <g id="Grupo_12421" data-name="Grupo 12421">
                <rect id="Rectángulo_3487" data-name="Rectángulo 3487" width="0.684" height="12.077" fill="#c2703c"/>
              </g>
              <g id="Grupo_12422" data-name="Grupo 12422" transform="translate(2.146)">
                <rect id="Rectángulo_3488" data-name="Rectángulo 3488" width="0.684" height="12.077" fill="#c2703c"/>
              </g>
              <g id="Grupo_12423" data-name="Grupo 12423" transform="translate(4.294)">
                <rect id="Rectángulo_3489" data-name="Rectángulo 3489" width="0.684" height="12.077" fill="#c2703c"/>
              </g>
              <g id="Grupo_12424" data-name="Grupo 12424" transform="translate(6.441)">
                <rect id="Rectángulo_3490" data-name="Rectángulo 3490" width="0.683" height="12.077" fill="#c2703c"/>
              </g>
              <g id="Grupo_12425" data-name="Grupo 12425" transform="translate(8.588)">
                <rect id="Rectángulo_3491" data-name="Rectángulo 3491" width="0.683" height="12.077" fill="#c2703c"/>
              </g>
              <g id="Grupo_12426" data-name="Grupo 12426" transform="translate(10.735)">
                <rect id="Rectángulo_3492" data-name="Rectángulo 3492" width="0.683" height="12.077" fill="#c2703c"/>
              </g>
              <g id="Grupo_12427" data-name="Grupo 12427" transform="translate(12.881)">
                <rect id="Rectángulo_3493" data-name="Rectángulo 3493" width="0.684" height="12.077" fill="#c2703c"/>
              </g>
              <g id="Grupo_12428" data-name="Grupo 12428" transform="translate(15.028)">
                <rect id="Rectángulo_3494" data-name="Rectángulo 3494" width="0.684" height="12.077" fill="#c2703c"/>
              </g>
              <g id="Grupo_12429" data-name="Grupo 12429" transform="translate(17.174)">
                <rect id="Rectángulo_3495" data-name="Rectángulo 3495" width="0.685" height="12.077" fill="#c2703c"/>
              </g>
              <g id="Grupo_12430" data-name="Grupo 12430" transform="translate(19.322)">
                <rect id="Rectángulo_3496" data-name="Rectángulo 3496" width="0.684" height="12.077" fill="#c2703c"/>
              </g>
              <g id="Grupo_12431" data-name="Grupo 12431" transform="translate(21.468)">
                <rect id="Rectángulo_3497" data-name="Rectángulo 3497" width="0.684" height="12.077" fill="#c2703c"/>
              </g>
              <g id="Grupo_12432" data-name="Grupo 12432" transform="translate(23.616)">
                <rect id="Rectángulo_3498" data-name="Rectángulo 3498" width="0.684" height="12.077" fill="#c2703c"/>
              </g>
              <g id="Grupo_12433" data-name="Grupo 12433" transform="translate(25.763)">
                <rect id="Rectángulo_3499" data-name="Rectángulo 3499" width="0.683" height="12.077" fill="#c2703c"/>
              </g>
              <g id="Grupo_12434" data-name="Grupo 12434" transform="translate(27.909)">
                <rect id="Rectángulo_3500" data-name="Rectángulo 3500" width="0.683" height="12.077" fill="#c2703c"/>
              </g>
              <g id="Grupo_12435" data-name="Grupo 12435" transform="translate(30.056)">
                <rect id="Rectángulo_3501" data-name="Rectángulo 3501" width="0.684" height="12.077" fill="#c2703c"/>
              </g>
              <g id="Grupo_12436" data-name="Grupo 12436" transform="translate(32.203)">
                <rect id="Rectángulo_3502" data-name="Rectángulo 3502" width="0.684" height="12.077" fill="#c2703c"/>
              </g>
              <g id="Grupo_12437" data-name="Grupo 12437" transform="translate(34.35)">
                <rect id="Rectángulo_3503" data-name="Rectángulo 3503" width="0.683" height="12.077" fill="#c2703c"/>
              </g>
              <g id="Grupo_12438" data-name="Grupo 12438" transform="translate(36.496)">
                <rect id="Rectángulo_3504" data-name="Rectángulo 3504" width="0.684" height="12.077" fill="#c2703c"/>
              </g>
              <g id="Grupo_12439" data-name="Grupo 12439" transform="translate(38.643)">
                <rect id="Rectángulo_3505" data-name="Rectángulo 3505" width="0.684" height="12.077" fill="#c2703c"/>
              </g>
            </g>
          </g>
        </g>
        <path id="Trazado_45346" data-name="Trazado 45346" d="M188.845,510.533c0,3.207-9.049,6.813-20.214,6.813s-20.218-3.606-20.218-6.813,9.052-5.812,20.218-5.812S188.845,507.324,188.845,510.533Z" transform="translate(-148.413 -504.721)" fill="#ffc435"/>
        <g id="Grupo_12443" data-name="Grupo 12443">
          <path id="Trazado_45347" data-name="Trazado 45347" d="M168.631,504.721c-11.166,0-20.218,2.6-20.218,5.812,0,1.595,1.757,3.307,5.38,4.358l22.494-9.738A66.241,66.241,0,0,0,168.631,504.721Z" transform="translate(-148.413 -504.721)" fill="#ffd37d"/>
        </g>
        <path id="Trazado_45348" data-name="Trazado 45348" d="M184.564,510.33c0,2.64-7.449,4.782-16.639,4.782s-16.642-2.142-16.642-4.782,7.451-4.784,16.642-4.784S184.564,507.687,184.564,510.33Z" transform="translate(-147.707 -504.518)" fill="#c2703c"/>
        <path id="Trazado_45349" data-name="Trazado 45349" d="M183.759,510.521c0,2.535-7.149,4.591-15.967,4.591s-15.969-2.056-15.969-4.591,7.149-4.588,15.969-4.588S183.759,507.986,183.759,510.521Z" transform="translate(-147.574 -504.423)" fill="#e39e2c"/>
        <g id="Grupo_12444" data-name="Grupo 12444" transform="translate(14.704 3.45)">
          <path id="Trazado_45350" data-name="Trazado 45350" d="M166.306,513.2H165.25v-.624a22.3,22.3,0,0,1-3.2-.269c-1.243-.238-1.851-.648-1.83-1.226h2.94a.91.91,0,0,0,.426.528,4.9,4.9,0,0,0,1.668.273l0-1.338-.881-.074a12.639,12.639,0,0,1-2.939-.49c-.569-.207-.855-.46-.856-.754a.668.668,0,0,1,.333-.532,3.163,3.163,0,0,1,.932-.409,9.419,9.419,0,0,1,1.719-.306c.386-.036.948-.062,1.691-.077v-.417H166.3v.425a16.18,16.18,0,0,1,2.777.248c1.221.224,1.851.586,1.9,1.086h-2.863a.669.669,0,0,0-.325-.406,3.609,3.609,0,0,0-1.485-.244v1.194q2.583.254,3.472.453,1.465.329,1.464.927,0,.789-2.015,1.144a18.883,18.883,0,0,1-2.918.258Zm-1.06-4.6a5.35,5.35,0,0,0-1.405.145c-.3.093-.457.222-.457.381,0,.176.228.314.688.417a10.325,10.325,0,0,0,1.175.156Zm1.06,3.272a7.778,7.778,0,0,0,1.237-.112c.454-.1.679-.263.68-.5,0-.182-.213-.323-.637-.426a11.122,11.122,0,0,0-1.283-.188Z" transform="translate(-160.215 -507.49)" fill="#c2703c"/>
        </g>
        <g id="Grupo_12447" data-name="Grupo 12447" transform="translate(14.704 2.963)">
          <path id="Trazado_45351" data-name="Trazado 45351" d="M166.306,512.813H165.25v-.623a22.535,22.535,0,0,1-3.2-.268c-1.243-.242-1.851-.65-1.83-1.227h2.94a.9.9,0,0,0,.426.526,4.79,4.79,0,0,0,1.668.275l0-1.338-.881-.075a12.706,12.706,0,0,1-2.939-.49c-.569-.207-.855-.461-.856-.753a.662.662,0,0,1,.333-.531,3.037,3.037,0,0,1,.932-.409,9.3,9.3,0,0,1,1.719-.309c.386-.034.948-.061,1.691-.075V507.1H166.3v.422a16.16,16.16,0,0,1,2.777.249c1.221.226,1.851.587,1.9,1.089h-2.863a.658.658,0,0,0-.325-.407,3.561,3.561,0,0,0-1.485-.245V509.4q2.583.256,3.472.453,1.465.327,1.464.927c0,.528-.67.907-2.015,1.148a19.7,19.7,0,0,1-2.918.257Zm-1.06-4.6a5.352,5.352,0,0,0-1.405.145c-.3.093-.457.221-.457.379,0,.178.228.316.688.42a9.918,9.918,0,0,0,1.175.153Zm1.06,3.272a8.433,8.433,0,0,0,1.237-.112c.454-.1.679-.264.68-.5,0-.179-.213-.323-.637-.424a10.7,10.7,0,0,0-1.283-.191Z" transform="translate(-160.215 -507.099)" fill="#ffc435"/>
          <g id="Grupo_12446" data-name="Grupo 12446" clip-path="url(#clip-path-15)">
            <g id="Grupo_12445" data-name="Grupo 12445" transform="translate(-10.455 -2.589)">
              <path id="Trazado_45352" data-name="Trazado 45352" d="M172.04,505.021c-11.166,0-20.217,2.6-20.217,5.807,0,1.6,2.24,3.044,5.865,4.093l22.009-9.47A66.287,66.287,0,0,0,172.04,505.021Z" transform="translate(-151.823 -505.021)" fill="#ffd37d"/>
            </g>
          </g>
        </g>
      </g>
      <g id="Grupo_12476" data-name="Grupo 12476" transform="translate(162.947 508.775)">
        <path id="Trazado_45354" data-name="Trazado 45354" d="M190.8,509.224c0,3.72-9.05,6.738-20.215,6.738s-20.218-3.018-20.218-6.738c0-.81.019-5.819.019-5.819,2.823-2.587,11.463-3.357,20.2-3.357,7.147,0,16.555.561,20.149,3.145C190.733,503.194,190.8,507.883,190.8,509.224Z" transform="translate(-150.366 -497.835)" fill="#e39e2c"/>
        <g id="Grupo_12470" data-name="Grupo 12470" transform="translate(0 0.287)">
          <g id="Grupo_12469" data-name="Grupo 12469" clip-path="url(#clip-path-16)">
            <g id="Grupo_12468" data-name="Grupo 12468" transform="translate(1.088 6.55)">
              <g id="Grupo_12449" data-name="Grupo 12449">
                <rect id="Rectángulo_3506" data-name="Rectángulo 3506" width="0.683" height="12.077" fill="#c2703c"/>
              </g>
              <g id="Grupo_12450" data-name="Grupo 12450" transform="translate(2.145)">
                <rect id="Rectángulo_3507" data-name="Rectángulo 3507" width="0.684" height="12.077" fill="#c2703c"/>
              </g>
              <g id="Grupo_12451" data-name="Grupo 12451" transform="translate(4.293)">
                <rect id="Rectángulo_3508" data-name="Rectángulo 3508" width="0.684" height="12.077" fill="#c2703c"/>
              </g>
              <g id="Grupo_12452" data-name="Grupo 12452" transform="translate(6.44)">
                <rect id="Rectángulo_3509" data-name="Rectángulo 3509" width="0.683" height="12.077" fill="#c2703c"/>
              </g>
              <g id="Grupo_12453" data-name="Grupo 12453" transform="translate(8.586)">
                <rect id="Rectángulo_3510" data-name="Rectángulo 3510" width="0.683" height="12.077" fill="#c2703c"/>
              </g>
              <g id="Grupo_12454" data-name="Grupo 12454" transform="translate(10.734)">
                <rect id="Rectángulo_3511" data-name="Rectángulo 3511" width="0.683" height="12.077" fill="#c2703c"/>
              </g>
              <g id="Grupo_12455" data-name="Grupo 12455" transform="translate(12.88)">
                <rect id="Rectángulo_3512" data-name="Rectángulo 3512" width="0.684" height="12.077" fill="#c2703c"/>
              </g>
              <g id="Grupo_12456" data-name="Grupo 12456" transform="translate(15.027)">
                <rect id="Rectángulo_3513" data-name="Rectángulo 3513" width="0.684" height="12.077" fill="#c2703c"/>
              </g>
              <g id="Grupo_12457" data-name="Grupo 12457" transform="translate(17.173)">
                <rect id="Rectángulo_3514" data-name="Rectángulo 3514" width="0.685" height="12.077" fill="#c2703c"/>
              </g>
              <g id="Grupo_12458" data-name="Grupo 12458" transform="translate(19.32)">
                <rect id="Rectángulo_3515" data-name="Rectángulo 3515" width="0.684" height="12.077" fill="#c2703c"/>
              </g>
              <g id="Grupo_12459" data-name="Grupo 12459" transform="translate(21.467)">
                <rect id="Rectángulo_3516" data-name="Rectángulo 3516" width="0.684" height="12.077" fill="#c2703c"/>
              </g>
              <g id="Grupo_12460" data-name="Grupo 12460" transform="translate(23.614)">
                <rect id="Rectángulo_3517" data-name="Rectángulo 3517" width="0.684" height="12.077" fill="#c2703c"/>
              </g>
              <g id="Grupo_12461" data-name="Grupo 12461" transform="translate(25.761)">
                <rect id="Rectángulo_3518" data-name="Rectángulo 3518" width="0.684" height="12.077" fill="#c2703c"/>
              </g>
              <g id="Grupo_12462" data-name="Grupo 12462" transform="translate(27.908)">
                <rect id="Rectángulo_3519" data-name="Rectángulo 3519" width="0.684" height="12.077" fill="#c2703c"/>
              </g>
              <g id="Grupo_12463" data-name="Grupo 12463" transform="translate(30.054)">
                <rect id="Rectángulo_3520" data-name="Rectángulo 3520" width="0.684" height="12.077" fill="#c2703c"/>
              </g>
              <g id="Grupo_12464" data-name="Grupo 12464" transform="translate(32.202)">
                <rect id="Rectángulo_3521" data-name="Rectángulo 3521" width="0.684" height="12.077" fill="#c2703c"/>
              </g>
              <g id="Grupo_12465" data-name="Grupo 12465" transform="translate(34.348)">
                <rect id="Rectángulo_3522" data-name="Rectángulo 3522" width="0.684" height="12.077" fill="#c2703c"/>
              </g>
              <g id="Grupo_12466" data-name="Grupo 12466" transform="translate(36.495)">
                <rect id="Rectángulo_3523" data-name="Rectángulo 3523" width="0.684" height="12.077" fill="#c2703c"/>
              </g>
              <g id="Grupo_12467" data-name="Grupo 12467" transform="translate(38.642)">
                <rect id="Rectángulo_3524" data-name="Rectángulo 3524" width="0.684" height="12.077" fill="#c2703c"/>
              </g>
            </g>
          </g>
        </g>
        <path id="Trazado_45356" data-name="Trazado 45356" d="M190.8,504.086c0,3.208-9.05,6.812-20.215,6.812s-20.218-3.6-20.218-6.812,9.052-5.814,20.218-5.814S190.8,500.875,190.8,504.086Z" transform="translate(-150.366 -498.272)" fill="#ffc435"/>
        <g id="Grupo_12471" data-name="Grupo 12471" transform="translate(0)">
          <path id="Trazado_45357" data-name="Trazado 45357" d="M170.584,498.272c-11.166,0-20.218,2.6-20.218,5.814,0,1.595,1.757,3.307,5.381,4.357l22.494-9.737A65.968,65.968,0,0,0,170.584,498.272Z" transform="translate(-150.366 -498.272)" fill="#ffd37d"/>
        </g>
        <path id="Trazado_45358" data-name="Trazado 45358" d="M186.517,503.882c0,2.64-7.449,4.781-16.639,4.781s-16.642-2.141-16.642-4.781,7.451-4.783,16.642-4.783S186.517,501.237,186.517,503.882Z" transform="translate(-149.66 -498.069)" fill="#c2703c"/>
        <path id="Trazado_45359" data-name="Trazado 45359" d="M185.712,504.073c0,2.534-7.149,4.59-15.967,4.59s-15.97-2.056-15.97-4.59,7.152-4.59,15.97-4.59S185.712,501.54,185.712,504.073Z" transform="translate(-149.528 -497.974)" fill="#e39e2c"/>
        <g id="Grupo_12472" data-name="Grupo 12472" transform="translate(14.704 3.451)">
          <path id="Trazado_45360" data-name="Trazado 45360" d="M168.261,506.756H167.2v-.623a22.515,22.515,0,0,1-3.2-.269q-1.863-.359-1.83-1.227h2.94a.912.912,0,0,0,.427.528,4.836,4.836,0,0,0,1.667.272l0-1.336-.881-.074a12.619,12.619,0,0,1-2.938-.491c-.569-.206-.856-.459-.857-.753a.668.668,0,0,1,.333-.532,3.1,3.1,0,0,1,.932-.409,9.107,9.107,0,0,1,1.721-.307c.385-.037.946-.061,1.689-.077v-.417h1.057v.424a16.153,16.153,0,0,1,2.777.249c1.221.223,1.851.586,1.9,1.086h-2.864a.666.666,0,0,0-.325-.406,3.583,3.583,0,0,0-1.485-.245v1.195a34.92,34.92,0,0,1,3.472.453q1.465.329,1.465.927c0,.525-.672.908-2.016,1.144a19.174,19.174,0,0,1-2.917.258Zm-1.062-4.6a5.339,5.339,0,0,0-1.405.146c-.3.093-.458.219-.456.38s.227.314.687.417a9.789,9.789,0,0,0,1.175.156Zm1.062,3.271a7.664,7.664,0,0,0,1.236-.111c.454-.1.679-.263.682-.5,0-.182-.214-.323-.638-.426a11.434,11.434,0,0,0-1.282-.188Z" transform="translate(-162.168 -501.042)" fill="#c2703c"/>
        </g>
        <g id="Grupo_12475" data-name="Grupo 12475" transform="translate(14.704 2.963)">
          <path id="Trazado_45361" data-name="Trazado 45361" d="M168.261,506.364H167.2v-.622a22.707,22.707,0,0,1-3.2-.269q-1.863-.361-1.83-1.227h2.94a.905.905,0,0,0,.427.527,4.819,4.819,0,0,0,1.667.274l0-1.339-.881-.072a12.757,12.757,0,0,1-2.938-.491c-.569-.207-.856-.46-.857-.751a.663.663,0,0,1,.333-.531,3.067,3.067,0,0,1,.932-.41,9.407,9.407,0,0,1,1.721-.309c.385-.031.946-.059,1.689-.075v-.419h1.057v.422a16.251,16.251,0,0,1,2.777.25c1.221.224,1.851.586,1.9,1.089h-2.864a.661.661,0,0,0-.325-.409,3.588,3.588,0,0,0-1.485-.244v1.192c1.721.173,2.881.324,3.472.453q1.465.327,1.465.927,0,.791-2.016,1.146a19.033,19.033,0,0,1-2.917.257Zm-1.062-4.6a5.383,5.383,0,0,0-1.405.147c-.3.091-.458.219-.456.378,0,.177.227.316.687.419a10.14,10.14,0,0,0,1.175.154Zm1.062,3.272a8.421,8.421,0,0,0,1.236-.112c.454-.1.679-.264.682-.5,0-.178-.214-.323-.638-.425a10.593,10.593,0,0,0-1.282-.188Z" transform="translate(-162.168 -500.65)" fill="#ffc435"/>
          <g id="Grupo_12474" data-name="Grupo 12474" clip-path="url(#clip-path-17)">
            <g id="Grupo_12473" data-name="Grupo 12473" transform="translate(-10.457 -2.59)">
              <path id="Trazado_45362" data-name="Trazado 45362" d="M173.993,498.571c-11.166,0-20.218,2.6-20.218,5.809,0,1.6,2.241,3.045,5.866,4.094L181.65,499A65.994,65.994,0,0,0,173.993,498.571Z" transform="translate(-153.775 -498.571)" fill="#ffd37d"/>
            </g>
          </g>
        </g>
      </g>
    </g>
  </g>
</svg>
