<svg xmlns="http://www.w3.org/2000/svg" xmlns:xlink="http://www.w3.org/1999/xlink" width="217" height="217" viewBox="0 0 217 217">
  <defs>
    <clipPath id="clip-path">
      <path id="Trazado_45432" data-name="Trazado 45432" d="M207.874,136.836,184,191.224l-.893,9.659,3.536,1.553,6.626-7.143.034-.036,23.851-54.345Z" transform="translate(-183.11 -136.836)" fill="none"/>
    </clipPath>
  </defs>
  <g id="Grupo_21275" data-name="Grupo 21275" transform="translate(-422 -5356)">
    <circle id="Elipse_948" data-name="Elipse 948" cx="108.5" cy="108.5" r="108.5" transform="translate(422 5356)" fill="#fae7b7"/>
    <g id="Grupo_12535" data-name="Grupo 12535" transform="translate(361.907 5288.92)">
      <g id="Grupo_12515" data-name="Grupo 12515" transform="translate(100.093 115.531)">
        <path id="Trazado_45426" data-name="Trazado 45426" d="M134.148,234.786l-34.055-56.994,104.2-62.261,33.942,56.3Z" transform="translate(-100.093 -115.531)" fill="#354a5c"/>
      </g>
      <g id="Grupo_12516" data-name="Grupo 12516" transform="translate(101.554 133.052)">
        <path id="Trazado_45427" data-name="Trazado 45427" d="M120.254,227.8l-19-63.617L217.56,129.445l19.06,62.918Z" transform="translate(-101.253 -129.445)" fill="#eb4950"/>
      </g>
      <g id="Grupo_12517" data-name="Grupo 12517" transform="translate(110.073 157.402)">
        <path id="Trazado_45428" data-name="Trazado 45428" d="M216.851,215.176H108.019V148.783H229.4v53.842Z" transform="translate(-108.019 -148.783)" fill="#ecebeb"/>
      </g>
      <g id="Grupo_12518" data-name="Grupo 12518" transform="translate(122.193 193.982)">
        <rect id="Rectángulo_3547" data-name="Rectángulo 3547" width="76.406" height="4.984" fill="#354a5c"/>
      </g>
      <g id="Grupo_12519" data-name="Grupo 12519" transform="translate(122.193 183.168)">
        <rect id="Rectángulo_3548" data-name="Rectángulo 3548" width="70.887" height="4.984" fill="#354a5c"/>
      </g>
      <g id="Grupo_12520" data-name="Grupo 12520" transform="translate(122.193 203.676)">
        <rect id="Rectángulo_3549" data-name="Rectángulo 3549" width="54.347" height="4.984" fill="#354a5c"/>
      </g>
      <g id="Grupo_12521" data-name="Grupo 12521" transform="translate(110.073 157.402)">
        <rect id="Rectángulo_3550" data-name="Rectángulo 3550" width="121.383" height="16.843" fill="#47b1c2"/>
      </g>
      <g id="Grupo_12522" data-name="Grupo 12522" transform="translate(190.952 161.891)">
        <rect id="Rectángulo_3551" data-name="Rectángulo 3551" width="33.162" height="7.866" fill="#354a5c"/>
      </g>
      <g id="Grupo_12523" data-name="Grupo 12523" transform="translate(218.906 211.244)">
        <path id="Trazado_45429" data-name="Trazado 45429" d="M194.448,204.092v-12.55H207Z" transform="translate(-194.448 -191.542)" fill="#eb4950"/>
      </g>
      <g id="Grupo_12534" data-name="Grupo 12534" transform="translate(204.174 129.651)">
        <g id="Grupo_12524" data-name="Grupo 12524" transform="translate(28.623)">
          <path id="Rectángulo_3552" data-name="Rectángulo 3552" d="M.9,0H4.51a.9.9,0,0,1,.9.9V9.245a.9.9,0,0,1-.9.9H.9a.9.9,0,0,1-.9-.9V.9A.9.9,0,0,1,.9,0Z" transform="translate(0 4.951) rotate(-66.305)" fill="#ee7146"/>
        </g>
        <g id="Grupo_12525" data-name="Grupo 12525" transform="translate(25.219 4.95)">
          <rect id="Rectángulo_3553" data-name="Rectángulo 3553" width="8.472" height="10.139" transform="translate(0 7.758) rotate(-66.302)" fill="#ee7146"/>
        </g>
        <g id="Grupo_12526" data-name="Grupo 12526" transform="translate(0.455 12.707)">
          <path id="Trazado_45430" data-name="Trazado 45430" d="M207.874,136.836,184,191.224l-.893,9.659,3.536,1.553,6.626-7.143.034-.036,23.851-54.345Z" transform="translate(-183.11 -136.836)" fill="#f8bb25"/>
        </g>
        <g id="Grupo_12527" data-name="Grupo 12527" transform="translate(0 76.755)">
          <path id="Trazado_45431" data-name="Trazado 45431" d="M183.2,187.7l3.536,1.553-3.992,4.309Z" transform="translate(-182.749 -187.699)" fill="#354a5c"/>
        </g>
        <g id="Grupo_12528" data-name="Grupo 12528" transform="translate(28.48 1.004)">
          <rect id="Rectángulo_3554" data-name="Rectángulo 3554" width="4.667" height="10.14" transform="translate(0 4.273) rotate(-66.302)" fill="#ee7146"/>
        </g>
        <g id="Grupo_12531" data-name="Grupo 12531" transform="translate(0.455 12.707)">
          <g id="Grupo_12530" data-name="Grupo 12530" clip-path="url(#clip-path)">
            <g id="Grupo_12529" data-name="Grupo 12529" transform="translate(-2.153 -1.17)">
              <rect id="Rectángulo_3555" data-name="Rectángulo 3555" width="76.8" height="3.865" transform="matrix(0.402, -0.916, 0.916, 0.402, 0, 70.335)" fill="#ee7146"/>
            </g>
          </g>
        </g>
        <g id="Grupo_12532" data-name="Grupo 12532" transform="translate(29.817 7.722)">
          <rect id="Rectángulo_3556" data-name="Rectángulo 3556" width="25.005" height="2.527" transform="matrix(0.401, -0.916, 0.916, 0.401, 0, 22.901)" fill="#ee7146"/>
        </g>
        <g id="Grupo_12533" data-name="Grupo 12533" transform="translate(36.067 8.573)">
          <rect id="Rectángulo_3557" data-name="Rectángulo 3557" width="2.012" height="3.657" transform="matrix(0.402, -0.916, 0.916, 0.402, 0, 1.843)" fill="#ee7146"/>
        </g>
      </g>
    </g>
  </g>
</svg>
