<svg xmlns="http://www.w3.org/2000/svg" width="217" height="217" viewBox="0 0 217 217">
  <g id="Grupo_21276" data-name="Grupo 21276" transform="translate(-422 -6073)">
    <circle id="Elipse_949" data-name="Elipse 949" cx="108.5" cy="108.5" r="108.5" transform="translate(422 6073)" fill="#fae7b7"/>
    <g id="Grupo_12544" data-name="Grupo 12544" transform="translate(-87.617 5824.906)">
      <g id="Grupo_12536" data-name="Grupo 12536" transform="translate(532.665 298.209)">
        <path id="Trazado_45441" data-name="Trazado 45441" d="M608.117,307.319l-.452,2.75-2.75.452,2.75.448.452,2.752.451-2.752,2.749-.448-2.749-.452Z" transform="translate(-541.541 -299.328)" fill="#ccc"/>
        <path id="Trazado_45442" data-name="Trazado 45442" d="M545,329.262l-.454,2.75-2.75.452,2.75.451.454,2.749.451-2.749,2.746-.451-2.746-.452Z" transform="translate(-533.787 -302.024)" fill="#fff"/>
        <path id="Trazado_45443" data-name="Trazado 45443" d="M622.026,307.65l-.236,1.428-1.426.236,1.426.236.236,1.429.235-1.429,1.429-.236-1.429-.236Z" transform="translate(-543.439 -299.369)" fill="#ccc"/>
        <path id="Trazado_45444" data-name="Trazado 45444" d="M616.784,410.958l-.453,2.75-2.75.453,2.75.449.453,2.752.45-2.752,2.749-.449-2.749-.453Z" transform="translate(-542.605 -312.06)" fill="#ccc"/>
        <path id="Trazado_45445" data-name="Trazado 45445" d="M654.578,430.956l-.236,1.428-1.427.236,1.427.236.236,1.427.235-1.427,1.428-.236-1.428-.236Z" transform="translate(-547.437 -314.517)" fill="#fff"/>
        <path id="Trazado_45446" data-name="Trazado 45446" d="M534.33,352.783l-.236,1.43-1.429.234,1.429.236.236,1.429.233-1.429,1.428-.236-1.428-.234Z" transform="translate(-532.665 -304.913)" fill="#ccc"/>
        <path id="Trazado_45447" data-name="Trazado 45447" d="M695.813,320.29l-.453,2.751-2.748.451,2.748.451.453,2.751.451-2.751,2.749-.451-2.749-.451Z" transform="translate(-552.314 -300.922)" fill="#fff"/>
        <path id="Trazado_45448" data-name="Trazado 45448" d="M557.785,298.209l-.454,2.75-2.748.451,2.748.451.454,2.749.449-2.749,2.751-.451-2.751-.451Z" transform="translate(-535.358 -298.209)" fill="#fff"/>
        <path id="Trazado_45449" data-name="Trazado 45449" d="M572.2,312.458l-.233,1.429-1.43.235,1.43.235.233,1.43.236-1.43,1.429-.235-1.429-.235Z" transform="translate(-537.318 -299.959)" fill="#ccc"/>
      </g>
      <g id="Grupo_12539" data-name="Grupo 12539" transform="translate(542.951 319.452)">
        <path id="Trazado_45450" data-name="Trazado 45450" d="M589.4,401.365a39.469,39.469,0,1,0,0-78.939" transform="translate(-549.92 -322.427)" fill="#cdd5d8"/>
        <path id="Trazado_45451" data-name="Trazado 45451" d="M583.867,322.427a39.469,39.469,0,1,0,0,78.939" transform="translate(-544.392 -322.427)" fill="#dce4e7"/>
        <g id="Grupo_12537" data-name="Grupo 12537" transform="translate(0.276 4.194)">
          <path id="Trazado_45452" data-name="Trazado 45452" d="M631.5,379.657c-.519.012-1.195.257-1.2.433s-.725.5-.96.6a3.064,3.064,0,0,0-.8,1.069c-.1.243-.685.169-.9.268s-.661.452-.663.669-.12.194-.27-.053l-.283.3-.337.372a3.089,3.089,0,0,1-1.056,1.441c-.22.056-.26,1.125-.26,1.55a2.007,2.007,0,0,0,.373,1.181l.045.343.074.675a1.226,1.226,0,0,0,.4,1.086,5.553,5.553,0,0,0,1.461-.267,2.439,2.439,0,0,0,.534-.214,39.21,39.21,0,0,0,4.065-9.428A.91.91,0,0,0,631.5,379.657Z" transform="translate(-554.541 -333.652)" fill="#474f59"/>
          <path id="Trazado_45453" data-name="Trazado 45453" d="M556.489,375.2c-.053.11.653.836.928,1.077a7.073,7.073,0,0,1,.973,1.823,3,3,0,0,1,.01,1.175c-.039.149.131.478.16.615a9.726,9.726,0,0,0-.139,1.767c.1.466-.546,1.922-.533,2.644s.34,1.67.474,1.6.18.658-.044.744-.476.662-.354.692-.008.6.027.827.223,1.731.268,2.105a10.773,10.773,0,0,0,.687,1.594c.113.311.227.9.27.987s.1.183.1.183a3.844,3.844,0,0,1,.567.261,3.453,3.453,0,0,0,1.249-.024c.278-.056.022-.308-.1-.442s-.237-.809-.379-.875-.2-.917-.078-1.1.632-.489.687-.649.067-.9-.065-1,.039-1-.065-1.447.776-.852.827-1.2,1-.733,1.214-.91a2.244,2.244,0,0,0,.3-1.41c-.107-.217.349-.392.553-.392a2.6,2.6,0,0,0,.505-.147c.076,0,.319-.448.447-.555s.4-1.17.633-1.346a1.85,1.85,0,0,0,.432-1.012,3.152,3.152,0,0,1,.478-.922,5.215,5.215,0,0,1,1.161-.64,7.231,7.231,0,0,0,.461-2c.059-.51.33-1.2.347-1.363s.3-.31.354-.365a8.672,8.672,0,0,1,.4-.855,4.473,4.473,0,0,0,.638-.91,5.3,5.3,0,0,1,.165-.791l0-.348.005-.552c-.156-.43-.633-.967-.754-.848s-.668-.38-.947-.486a5.462,5.462,0,0,0-1.154-.19c-.178,0-.787-.5-1.061-.586a11.276,11.276,0,0,1-1.1-.3c-.128-.081-.3-1.118-.86-1.458a6.13,6.13,0,0,1-1.654-1.422c-.11-.289-1.188-.9-1.523-1.082a1.349,1.349,0,0,0-.9-.161c-.068.063-.482-.562-.7-.74s-.861-.324-.891-.166-.458.077-.561-.059-.432.054-.589.106-.693.869-.934,1.066-.547-.18-.71-.252a1.814,1.814,0,0,0-.949.242c-.167.119-.557-.868-.467-1.323s-.409-1.357-.793-1.381-.5-.972-.428-1.321-.689-.571-.884-.591-.676.464-.759.7-1.831-.323-1.618-1.373a4.8,4.8,0,0,1,1.235-2.258,3.141,3.141,0,0,1,1.575-.05.414.414,0,0,0,.518-.065,3.329,3.329,0,0,1,1.23.122c.273.113.664,1.17.946,1.3s.389-.682.435-.881a2.082,2.082,0,0,0-.205-.841,2.868,2.868,0,0,1,.885-1.643,2.006,2.006,0,0,0,.841-1.059c-.038-.125.341-.226.442-.279s-.018-1.088.154-1.312a4.993,4.993,0,0,1,1.229-.809.977.977,0,0,0,.353-.875c-.092-.117.656-.755,1.046-.881s.726.226.628.279c.078-.039.616-.32.846-.473.264-.175,0-.66-.17-.8s-.068-.7.138-.755.386-.538.335-.641.856.082,1.2-.176.1.618-.157.974a.4.4,0,0,0,.35.618c.164-.068.339.19.372.286s.386-.1.613,0,.367-.313.387-.505-.549-.589-.639-.819a14.31,14.31,0,0,1-.137-1.841c-.017-.278-.382-.72-.5-.639s-.357-.712-.547-.884a.99.99,0,0,1-.226-.675c.009-.127-.651-.812-.807-1.131s-.377-.253-.389-.108-.471.164-.659.147-.344-.74-.344-1.015-.846-.322-.984-.541-.689-.115-.778-.268a.876.876,0,0,0-.669-.236c-.1.057-.054,2.02-.146,2.549s-.544,1-.709.982-.066.379.05.345-.318.577-.376.98-.468-.018-.53-.382-.468-.861-.541-.735-.351-.149-.472-.072-.872-.437-1.177-.605-.475-1.095-.649-1.175-.028-.2-.032-.34.588-.684.767-.9a11.2,11.2,0,0,1,1.092-1.248,1.127,1.127,0,0,0,.417-.76,6.926,6.926,0,0,1,1.419-.556c.314-.107.584-.977.624-1.229a1.024,1.024,0,0,0-.336-.782c-.148-.064.435-.084.626.01s.789-.175,1.022-.051.71.408,1.05.625l-.071.638-.141,1.084c-.909.377-1.169,1.026-.852,1.011a7.678,7.678,0,0,1,2.181.921c.4.3.538-.423.658-.662a1.781,1.781,0,0,0-.014-1.068c-.1-.142.474-.093.631.063s.352-.159.475-.216.184-.649.253-.768-.273-.245-.282-.394-.666-.432-.875-.533-.264-.551-.157-.63-.074-.651-.18-.839-.784-.341-1.01-.341-.462-.53-.594-.607a3.538,3.538,0,0,0-1.219-.107c-.217.063-.612-.62-.978-.411s-.741-.244-.9-.332-1.021.825-1.014,1.47a1.767,1.767,0,0,0,.468,1.288c.132.018-.032.6-.182.768s-.505-.178-.371-.324-.372-.82-.546-1.095a2.148,2.148,0,0,0-.87-.495c-.176.189-.348.387-.517.582a1.418,1.418,0,0,1,.066.769c-.125.4-.455.453-.474.282-.011-.075-.176-.132-.369-.16a39.294,39.294,0,0,0-8.878,20.632,2.381,2.381,0,0,1,.463.661c.108.344.712.574.826.644s.152-.663.069-.855.148-.3.143-.164a5.224,5.224,0,0,0,.755,1.019c.187.233.38,1.738.563,2.063a7.169,7.169,0,0,0,2.475,1.11,3.01,3.01,0,0,1,1.374.924c.109.18.852.271,1.011.345s.539.575.7.682a.859.859,0,0,1,.282.483c0,.081.98.452,1.221.714a.526.526,0,0,0,.705.081c.072-.11.266.523.368.737a1.4,1.4,0,0,1,.047.845,10.5,10.5,0,0,1-.384,1.266,5.2,5.2,0,0,0-.443,1.916,2.262,2.262,0,0,0,.74.958.228.228,0,0,1-.045.414c-.156.021-.086,1.389.287,1.595A1.367,1.367,0,0,1,556.489,375.2Z" transform="translate(-544.707 -328.181)" fill="#474f59"/>
          <path id="Trazado_45454" data-name="Trazado 45454" d="M563.437,353.4v0C563.427,353.406,563.423,353.408,563.437,353.4Z" transform="translate(-547.007 -330.426)" fill="#474f59"/>
          <path id="Trazado_45455" data-name="Trazado 45455" d="M560.152,333.66c.471-.079,1.257-.209,1.308-.343a.806.806,0,0,0-.042-.546c.075.007.161.011.228.011.181,0,.48-.983.668-1.215a9.911,9.911,0,0,1,1.525-.721,10.251,10.251,0,0,1,1.04-.762c.215-.064.53-.571.483-.674s.731-.574,1.028-.7.447-.471.336-.486c-.072-.009-1.72.854-3.229,1.71a40.108,40.108,0,0,0-4.858,3.9C559.114,333.8,559.843,333.712,560.152,333.66Z" transform="translate(-546.419 -327.334)" fill="#474f59"/>
          <path id="Trazado_45456" data-name="Trazado 45456" d="M591.008,383.307a13.941,13.941,0,0,0,1.644-1.833,4.18,4.18,0,0,0,.549-1.438,1.391,1.391,0,0,1,.646-.594c.164-.048.67-2.174,1.121-2.64a7.731,7.731,0,0,0,.921-3.524,11.118,11.118,0,0,1,.4-2.72,3.605,3.605,0,0,1,.846-1.167,25.373,25.373,0,0,0,1.608-2.317,5.079,5.079,0,0,0,.614-2.137c-.066-.295-.821-.5-.964-.358a2.52,2.52,0,0,1-1.076.269c-.228,0-.752-1.22-1.071-1.472s-.614-1.645-.8-1.905a12.836,12.836,0,0,0-.868-1.089c-.161-.151-.192-.889-.228-1.091s.315.13.376.423a14.248,14.248,0,0,0,1.153,1.887c.259.4.942,1.674,1.114,2.074s1.692.195,2.186-.036a3.2,3.2,0,0,0,1.129-.764c.023-.137.807-.5,1.025-.672s.412-1.089.555-1.233-.114-1.019-.279-1.278a1.377,1.377,0,0,0-1.109-.365c-.16.1-.5-.582-.62-.836s-.722-.561-.787-.732.162-.446.256-.506a5.036,5.036,0,0,1,1.527,1.105,8.586,8.586,0,0,1,.745,1.225,1.593,1.593,0,0,0,1.128.041c.2-.144.42-.105.5.082l.275-.049.96-.147a1.908,1.908,0,0,1,.576,1.017.95.95,0,0,0,.464.536c.186.046.323.675.381.828s.6,1.1.716,1.494a9.8,9.8,0,0,0,.691,1.379,3.292,3.292,0,0,1,.205.969.706.706,0,0,0,.569.474c.215-.016.66-1.395.764-1.907a1.437,1.437,0,0,1,.556-.936c.1,0,.177-.288.177-.4s.559-.1.608-.238.213-1.051.411-1.188a8.528,8.528,0,0,1,1.154-.685c.246-.088.878.457,1.02.712a2.18,2.18,0,0,1,.213,1.006c-.052.108.338.667.674.654s.44.428.448.588.454.608.546.807a1.758,1.758,0,0,1,0,.879,3.055,3.055,0,0,0,.046,1.046,9.84,9.84,0,0,0,1.488,1.569c.388.319.574-.647.375-.949s-.878-1-1.035-1.208a2.555,2.555,0,0,1-.124-1.287c.053-.231.59.134.81.3a1.676,1.676,0,0,1,.519.675c.009.126,1.4-.65,1.444-1.494a8.7,8.7,0,0,1,.557-2.017c.047-.225-.138-.528-.254-.536s.207-.645.6-.634,1.325-1.03,1.548-1.446a3.178,3.178,0,0,1,.717-.806,7.58,7.58,0,0,0,.417-1.436,4.348,4.348,0,0,0-.262-1.246,4.247,4.247,0,0,0-.453-.843,1.76,1.76,0,0,1-.115-.825c.049-.1.4-.217.439-.309s.439-.525.405-.713.25.246.438.4.381,1.162.61,1.275,1.146-1.069,1.033-1.83a2.372,2.372,0,0,1,.489-1.818,4.987,4.987,0,0,0,.9-1.122,39.612,39.612,0,0,0-9.721-15.323.626.626,0,0,1-.152,0l-.339-.072c-.564-.121-.891-.728-.8-.868a.394.394,0,0,0,0-.264c-.317-.284-.64-.567-.967-.839-.269-.009-.552,0-.716-.009a3.09,3.09,0,0,1-1.2-.383c-.137-.132-.578.115-.6.361s-.8.356-.877.545-.474.2-.548.093-.8.254-1.155.3a6.473,6.473,0,0,0-1.178.41,1.9,1.9,0,0,0-.6.6c-.059.154-.514.408-.661.468s-.118.723.073.819-.353-.081-.589-.206-.507.285-.581.425-.295-.086-.287-.283-.59-.361-.668-.2-.5-.053-.667-.14-.917.683-1.188.96a3.29,3.29,0,0,1-1.842.389c-.25-.1-.489.584-.277.629s-.536-.032-.946.006a6.518,6.518,0,0,0-1.881.725.309.309,0,0,1-.516-.21c0-.161-.453-.313-.585-.36s-.4.891-.633,1.071-.52-.726-1.077-.881-1.424-.683-1.669-.749a3.327,3.327,0,0,1-.882-.732,2.483,2.483,0,0,0-1.079-.273,3.472,3.472,0,0,0-1.16.586c-.2.166-.495.132-.594.194s-.929.87-1.251,1.129a10.612,10.612,0,0,0-1.067,1.614.748.748,0,0,1-.56.315c-.107.005-.2.3-.2.406s-.954.606-1.053,1.039a9.9,9.9,0,0,0,.1,1.777c0,.351.353,1.05.617,1.06s.128.6.057.762.169.346.16.485-.671.335-.875.416a1.53,1.53,0,0,0-.582.711c-.038.149-.675.254-.884.457a4.845,4.845,0,0,1,.181-.459.761.761,0,0,0-.147-.717c-.1-.084-.146-1.232-.308-1.479a5.174,5.174,0,0,0-.661-.744c-.1-.08.068-.383.125-.512s-.535-.2-.7-.1-.248,1.231-.318,1.54a1.016,1.016,0,0,0,.393.81c.1.024.07.582-.136.6s-.4.839-.3,1.025-.148.55-.273.636.8.036,1.224.025.746.176.7.211-.8.147-.94.329-.652.525-.753.664.172.449.39.433.468.756.64.9.106.541.033.653-1.107-.077-1.5.023-.883.921-.92,1.233a7.612,7.612,0,0,0,.118,1.456c.047.246.864.4,1.031.524s.949,0,1.114.079.686-.795.792-1.2.937-1.145,1.11-1.424,1.074-.239,1.293-.383.1.68.207,1.135.964.4.838-.029.089-.61.121-.455.86.489,1.019.728.113.748-.07.742-.193.558,0,.618.449-.636.66-.739.378-.538.279-.569.176-.423.295-.293a4.685,4.685,0,0,0-.793-1.2c-.351-.353-.1-.2.555.353l.452.635c.089.113.206.461.286.591l.1.185a4.19,4.19,0,0,1,.172,1,.711.711,0,0,0,.57.473c.216-.016.381.1.337.11s.142.43.357.442.31-.545.092-.56-.182-.81-.209-1.16.152-.634.226-.634-.008.717,0,.882a2.434,2.434,0,0,0,.2.723l.226.167.495.383c.715-.212,1.674-.049,1.638.1s.527.186.561-.052.058.005.058.169-.468.8-.542,1.093-1.732.095-2.44.039-1.76.189-1.838.4-1.187-.486-1.7-.7-.905-.987-1.009-1.086.086-.353.036-.507-1.209-.183-1.542-.06-2.077.306-2.488.489a2.21,2.21,0,0,1-1.224-.047c-.192-.032-.654.534-.887.639a3.116,3.116,0,0,0-.658,1.789l-.314.617-.205.393a8.941,8.941,0,0,0-1.4,2.188,14,14,0,0,0-.334,3.1,9.768,9.768,0,0,0,.79,2.612,6.246,6.246,0,0,0,1.594,1.544,5.629,5.629,0,0,0,1.891.24,1.156,1.156,0,0,0,.957-.8l.555.054.255.025c.011.312.834.561,1.035.672a1.8,1.8,0,0,0,.9-.022c.16-.048.339,1.4.224,1.823a8.347,8.347,0,0,0,.4,2.33c.118.442.624,1.653.672,2.085a20.139,20.139,0,0,1-.351,2.385,9.207,9.207,0,0,0,.812,2.407,8.209,8.209,0,0,1,.326,1.774c0,.246.752,1.708.922,2.311S590.5,383.6,591.008,383.307Z" transform="translate(-548.73 -327.854)" fill="#474f59"/>
          <path id="Trazado_45457" data-name="Trazado 45457" d="M629.9,369.734c.053.106.525-.271.808-.313s.463-.807.241-.862-.506-.647-.668-.719-.474.252-.46.483-.514.325-.616.52-.1.331.013.314S629.85,369.628,629.9,369.734Z" transform="translate(-555.078 -332.199)" fill="#474f59"/>
          <path id="Trazado_45458" data-name="Trazado 45458" d="M629.159,374.6c.14-.052-.018-.807-.31-.869s-1.115.992-.96,1.6.327.568.412.439.574.082.716.132.142-.1,0-.322A1.126,1.126,0,0,1,629.159,374.6Z" transform="translate(-554.923 -332.924)" fill="#474f59"/>
          <path id="Trazado_45459" data-name="Trazado 45459" d="M627.1,373.605c.029-.269.083-1.112.131-1.278s-.457-.653-.706-.739-1.047,1.639-1.617,1.945a1.624,1.624,0,0,0-.628,1.6c.156.243,1.346.372,1.553.555s.439-.03.565-.062.087-.111.039-.142.418-.519.483-.829S627.063,373.874,627.1,373.605Z" transform="translate(-554.476 -332.66)" fill="#474f59"/>
          <path id="Trazado_45460" data-name="Trazado 45460" d="M623.663,377.157a.892.892,0,0,0-1.016.269c-.042.171,1.72.452,2.307.61s.952.209.816.113S624.108,377.327,623.663,377.157Z" transform="translate(-554.282 -333.338)" fill="#474f59"/>
          <path id="Trazado_45461" data-name="Trazado 45461" d="M627.823,363.941c.143-.2-.2-1.122-.367-.913s-.047.747.008.939S627.683,364.14,627.823,363.941Z" transform="translate(-554.862 -331.605)" fill="#474f59"/>
          <path id="Trazado_45462" data-name="Trazado 45462" d="M628.989,366.253c.1-.24-.126-.5-.51-.584s-.327,1.069-.156,1.218S628.886,366.49,628.989,366.253Z" transform="translate(-554.963 -331.933)" fill="#474f59"/>
          <path id="Trazado_45463" data-name="Trazado 45463" d="M631.364,374.362c.459.318,1.479.172,1.51-.446C632.423,373.619,631.325,373.669,631.364,374.362Z" transform="translate(-555.352 -332.926)" fill="#474f59"/>
          <path id="Trazado_45464" data-name="Trazado 45464" d="M631.025,358.211a.649.649,0,0,0-.232.608c-.025,0-.05,0-.078,0-.15,0-.168.6-.007.706s.541-.471.744-.605a1.127,1.127,0,0,1,.667-.178,1.724,1.724,0,0,0,.789-.236.674.674,0,0,0,.222-.266c-.088-.442-.195-.875-.3-1.307-.192.139-.406.289-.507.376C632.124,357.489,631.272,358.039,631.025,358.211Z" transform="translate(-555.258 -330.86)" fill="#474f59"/>
          <path id="Trazado_45465" data-name="Trazado 45465" d="M619.181,372.2l.008,0C619.107,372.142,619.1,372.136,619.181,372.2Z" transform="translate(-553.849 -332.73)" fill="#474f59"/>
          <path id="Trazado_45466" data-name="Trazado 45466" d="M622.035,374.821a4.861,4.861,0,0,0-1.214-1.405l-.192-.311-.207-.348c-.188-.379-.753-.668-.8-.784s-.229.334-.423.2l.611.435c.529.377,1.553,2.948,1.783,3.131S622.2,375.2,622.035,374.821Z" transform="translate(-553.858 -332.706)" fill="#474f59"/>
          <path id="Trazado_45467" data-name="Trazado 45467" d="M613.14,370.443c-.142.295.758.911.826.769a1.674,1.674,0,0,0-.277-1.012C613.533,370.044,613.284,370.154,613.14,370.443Z" transform="translate(-553.112 -332.481)" fill="#474f59"/>
          <path id="Trazado_45468" data-name="Trazado 45468" d="M599.515,385.41c.038.3.658.548.834.5a3.429,3.429,0,0,0,.754-1.24,6.019,6.019,0,0,0,.125-.975.883.883,0,0,1,.154-.477,1.652,1.652,0,0,0,.252-.7,20.067,20.067,0,0,0-.387-2.255c-.009-.288-.333.146-.412.433s-.9.876-1.074,1.119a2.454,2.454,0,0,0-.306,1.219,1.821,1.821,0,0,1-.153.862A8.8,8.8,0,0,0,599.515,385.41Z" transform="translate(-551.412 -333.715)" fill="#474f59"/>
          <path id="Trazado_45469" data-name="Trazado 45469" d="M566.372,398.878h.542C567.013,398.292,566.344,398.388,566.372,398.878Z" transform="translate(-547.368 -335.964)" fill="#474f59"/>
          <path id="Trazado_45470" data-name="Trazado 45470" d="M580.564,329.052a1.852,1.852,0,0,1-.918-.2,2.327,2.327,0,0,0-1.238-.1c-.257.108-.08-.622.275-.7s.053-.579-.323-.579-1.309-.139-1.528-.091a2.74,2.74,0,0,1-.8-.176,16.414,16.414,0,0,1-1.8.308,12.634,12.634,0,0,0-2.11.109c-.282.075-.486.626-.443.82s-1.26.194-1.667.2a13.561,13.561,0,0,0-3.155.781c-.568.311-1.01,1.11-.822,1.128s-.318.466-.621.574-1.034.149-1.206.322.182.288.248.4.275-.1.465.01a8.512,8.512,0,0,0,.994.222c.172.069-.536.2-.866.225s-.261.679.009.769.969.189,1.04.072.829.124,1.172.165.6.892.7,1.077a2.671,2.671,0,0,1,.1,1.023c-.023.189.6.533.719.413s.076.295-.175.275-.086.7.222.806.1.547-.078.682-.08.56-.263.712.646,1.59.641,2.332.456,1.345.633,1.345.786.151.866.306.374-.108.49-.231a6.318,6.318,0,0,0,.55-.79,18.754,18.754,0,0,0,.659-1.958c.055-.16.756-.058.913-.14a7.383,7.383,0,0,0,.742-.55c.131-.106,1.123-.526,1.4-.724s.723-1.035.932-1.213-.107-.131-.37-.3a.281.281,0,0,1-.068-.466,3.086,3.086,0,0,1,1.151.238c.275.11.8-.272.6-.419s-.1-.142,0-.079.2-.489.1-.591.809-.773.646-1.405.252-1.282.5-1.289.175-.713-.124-.782-.017-.13.1-.232a1.5,1.5,0,0,0,.187-.85c-.068-.122.45-.26.537-.4a2.544,2.544,0,0,1,.9-.476C580.674,329.581,580.79,329.026,580.564,329.052Z" transform="translate(-547.096 -327.209)" fill="#474f59"/>
          <path id="Trazado_45471" data-name="Trazado 45471" d="M588.442,329.9c-.282-.094-.85.215-.78.391s-.464-.225-.838-.032-.481.853-.31.94.3.61.3.71.726.029.916-.124.157.531-.025.716.067.553.269.586.473.5.682.5.56-.8.641-1.1.773-.066,1.089.032.43-1.1.088-1.28-.768-.088-.91-.225a1.182,1.182,0,0,0-.543-.289C588.866,330.7,588.719,329.993,588.442,329.9Z" transform="translate(-549.833 -327.537)" fill="#474f59"/>
          <path id="Trazado_45472" data-name="Trazado 45472" d="M591.585,330.409a1.912,1.912,0,0,0,1.317-.512c.136-.125-1.542-.469-2.181-.489s-1.159.065-1.149.194A6.28,6.28,0,0,0,591.585,330.409Z" transform="translate(-550.219 -327.479)" fill="#474f59"/>
          <path id="Trazado_45473" data-name="Trazado 45473" d="M580.255,347.646c-.151-.062-.229.489-.2.7s.547.193.767.153a.425.425,0,0,0,.379-.394c-.01-.18-.32-1-.446-1S580.4,347.7,580.255,347.646Z" transform="translate(-549.049 -329.653)" fill="#474f59"/>
          <path id="Trazado_45474" data-name="Trazado 45474" d="M581.787,340.336c-.113-.2-.984-.176-1.2-.19a2.428,2.428,0,0,1-.989-.37c-.12-.135-.219.54-.415.627s.095.216.178.146,0,.348-.1.49.582.246.66.466a.563.563,0,0,0,.613.317c.266-.046.795-.317.979-.332S581.9,340.539,581.787,340.336Z" transform="translate(-548.934 -328.75)" fill="#474f59"/>
          <path id="Trazado_45475" data-name="Trazado 45475" d="M602.735,334.492c.3-.3,1.532-.706,1.674-1.019a.393.393,0,0,0-.211-.564.491.491,0,0,0-.309.207c-.027.05-1.446.384-1.88.593a5.155,5.155,0,0,0-1.125.718,17.388,17.388,0,0,0-.589,1.747c-.1.16.47.733.726.891a.958.958,0,0,0,.7.044,3.661,3.661,0,0,0-.261-1.355C601.33,335.414,602.435,334.8,602.735,334.492Z" transform="translate(-551.534 -327.909)" fill="#474f59"/>
          <path id="Trazado_45476" data-name="Trazado 45476" d="M601.347,330.441c.469.462.724-.207,1.238-.14C602.573,329.361,601.3,329.683,601.347,330.441Z" transform="translate(-551.665 -327.518)" fill="#474f59"/>
          <path id="Trazado_45477" data-name="Trazado 45477" d="M611.685,330.686c-.014.175,1.287.316,1.671.249s-.078-.661-.639-.627S611.7,330.515,611.685,330.686Z" transform="translate(-552.935 -327.589)" fill="#474f59"/>
          <path id="Trazado_45478" data-name="Trazado 45478" d="M557.839,341.713c-.137.126-.018.766.242.784s.679-.963,1-.767.535.275.481.171a9.045,9.045,0,0,0-1.075-.575C558.372,341.257,557.978,341.588,557.839,341.713Z" transform="translate(-546.313 -328.942)" fill="#474f59"/>
          <path id="Trazado_45479" data-name="Trazado 45479" d="M561.648,366.4c0,.108.57.092.662-.082s.041-.313-.112-.313S561.648,366.294,561.648,366.4Z" transform="translate(-546.788 -331.975)" fill="#474f59"/>
          <path id="Trazado_45480" data-name="Trazado 45480" d="M558.361,365.218c.273-.052.143.387.207.545s.719.286.851.392.467-.2.726-.168-.085-.9-.524-.876-.784-.4-.885-.446a6.844,6.844,0,0,1-.757-.469,6.161,6.161,0,0,0-1.637-.218,1.229,1.229,0,0,0-.854.512c-.06.129.6.215.789.113a1.887,1.887,0,0,1,1.251.325A.986.986,0,0,0,558.361,365.218Z" transform="translate(-546.031 -331.726)" fill="#474f59"/>
          <path id="Trazado_45481" data-name="Trazado 45481" d="M557.4,366.428c0,.108.576.039.712.047s.137-.095-.01-.211S557.4,366.321,557.4,366.428Z" transform="translate(-546.267 -332.002)" fill="#474f59"/>
          <path id="Trazado_45482" data-name="Trazado 45482" d="M557.831,363.088c-.151-.058-.268.176-.268.286a.191.191,0,0,0,.182.2C557.846,363.575,557.981,363.147,557.831,363.088Z" transform="translate(-546.286 -331.615)" fill="#474f59"/>
          <path id="Trazado_45483" data-name="Trazado 45483" d="M559.172,363.164a.564.564,0,0,0-.368-.2c-.075,0-.125.19-.112.419S559.224,363.274,559.172,363.164Z" transform="translate(-546.425 -331.602)" fill="#474f59"/>
          <path id="Trazado_45484" data-name="Trazado 45484" d="M560.134,364.6c.229-.115.259-.392.121-.375s-.392-.4-.542-.457-.271.245-.271.38.082.23.186.2S559.9,364.7,560.134,364.6Z" transform="translate(-546.517 -331.699)" fill="#474f59"/>
          <path id="Trazado_45485" data-name="Trazado 45485" d="M633.172,374.961c-.118.061-.7.131-.774.018s-.19.232-.314.288-.056.361.129.268c.127-.065.678.239,1.122.519.089-.442.164-.884.24-1.334C633.413,374.805,633.25,374.92,633.172,374.961Z" transform="translate(-555.433 -333.046)" fill="#474f59"/>
        </g>
        <g id="Grupo_12538" data-name="Grupo 12538" transform="translate(0.276 4.194)">
          <path id="Trazado_45486" data-name="Trazado 45486" d="M556.489,375.2c-.053.11.653.836.928,1.077a7.073,7.073,0,0,1,.973,1.823,3,3,0,0,1,.01,1.175c-.039.149.131.478.16.615a9.726,9.726,0,0,0-.139,1.767c.1.466-.546,1.922-.533,2.644s.34,1.67.474,1.6.18.658-.044.744-.476.662-.354.692-.008.6.027.827.223,1.731.268,2.105a10.773,10.773,0,0,0,.687,1.594c.113.311.227.9.27.987s.1.183.1.183a3.844,3.844,0,0,1,.567.261,3.453,3.453,0,0,0,1.249-.024c.278-.056.022-.308-.1-.442s-.237-.809-.379-.875-.2-.917-.078-1.1.632-.489.687-.649.067-.9-.065-1,.039-1-.065-1.447.776-.852.827-1.2,1-.733,1.214-.91a2.244,2.244,0,0,0,.3-1.41c-.107-.217.349-.392.553-.392a2.6,2.6,0,0,0,.505-.147c.076,0,.319-.448.447-.555s.4-1.17.633-1.346a1.85,1.85,0,0,0,.432-1.012,3.152,3.152,0,0,1,.478-.922,5.215,5.215,0,0,1,1.161-.64,7.231,7.231,0,0,0,.461-2c.059-.51.33-1.2.347-1.363s.3-.31.354-.365a8.672,8.672,0,0,1,.4-.855,4.473,4.473,0,0,0,.638-.91,5.3,5.3,0,0,1,.165-.791l0-.348.005-.552c-.156-.43-.633-.967-.754-.848s-.668-.38-.947-.486a5.462,5.462,0,0,0-1.154-.19c-.178,0-.787-.5-1.061-.586a11.276,11.276,0,0,1-1.1-.3c-.128-.081-.3-1.118-.86-1.458a6.13,6.13,0,0,1-1.654-1.422c-.11-.289-1.188-.9-1.523-1.082a1.349,1.349,0,0,0-.9-.161c-.068.063-.482-.562-.7-.74s-.861-.324-.891-.166-.458.077-.561-.059-.432.054-.589.106-.693.869-.934,1.066-.547-.18-.71-.252a1.814,1.814,0,0,0-.949.242c-.167.119-.557-.868-.467-1.323s-.409-1.357-.793-1.381-.5-.972-.428-1.321-.689-.571-.884-.591-.676.464-.759.7-1.831-.323-1.618-1.373a4.8,4.8,0,0,1,1.235-2.258,3.141,3.141,0,0,1,1.575-.05.414.414,0,0,0,.518-.065,3.329,3.329,0,0,1,1.23.122c.273.113.664,1.17.946,1.3s.389-.682.435-.881a2.082,2.082,0,0,0-.205-.841,2.868,2.868,0,0,1,.885-1.643,2.006,2.006,0,0,0,.841-1.059c-.038-.125.341-.226.442-.279s-.018-1.088.154-1.312a4.993,4.993,0,0,1,1.229-.809.977.977,0,0,0,.353-.875c-.092-.117.656-.755,1.046-.881s.726.226.628.279c.078-.039.616-.32.846-.473.264-.175,0-.66-.17-.8s-.068-.7.138-.755.386-.538.335-.641.856.082,1.2-.176.1.618-.157.974a.4.4,0,0,0,.35.618c.164-.068.339.19.372.286s.386-.1.613,0,.367-.313.387-.505-.549-.589-.639-.819a14.31,14.31,0,0,1-.137-1.841c-.017-.278-.382-.72-.5-.639s-.357-.712-.547-.884a.99.99,0,0,1-.226-.675c.009-.127-.651-.812-.807-1.131s-.377-.253-.389-.108-.471.164-.659.147-.344-.74-.344-1.015-.846-.322-.984-.541-.689-.115-.778-.268a.876.876,0,0,0-.669-.236c-.1.057-.054,2.02-.146,2.549s-.544,1-.709.982-.066.379.05.345-.318.577-.376.98-.468-.018-.53-.382-.468-.861-.541-.735-.351-.149-.472-.072-.872-.437-1.177-.605-.475-1.095-.649-1.175-.028-.2-.032-.34.588-.684.767-.9a11.2,11.2,0,0,1,1.092-1.248,1.127,1.127,0,0,0,.417-.76,6.926,6.926,0,0,1,1.419-.556c.314-.107.584-.977.624-1.229a1.024,1.024,0,0,0-.336-.782c-.148-.064.435-.084.626.01s.789-.175,1.022-.051.71.408,1.05.625l-.071.638-.141,1.084c-.909.377-1.169,1.026-.852,1.011a7.678,7.678,0,0,1,2.181.921c.4.3.538-.423.658-.662a1.781,1.781,0,0,0-.014-1.068c-.1-.142.474-.093.631.063s.352-.159.475-.216.184-.649.253-.768-.273-.245-.282-.394-.666-.432-.875-.533-.264-.551-.157-.63-.074-.651-.18-.839-.784-.341-1.01-.341-.462-.53-.594-.607a3.538,3.538,0,0,0-1.219-.107c-.217.063-.612-.62-.978-.411s-.741-.244-.9-.332-1.021.825-1.014,1.47a1.767,1.767,0,0,0,.468,1.288c.132.018-.032.6-.182.768s-.505-.178-.371-.324-.372-.82-.546-1.095a2.148,2.148,0,0,0-.87-.495c-.176.189-.348.387-.517.582a1.418,1.418,0,0,1,.066.769c-.125.4-.455.453-.474.282-.011-.075-.176-.132-.369-.16-.182.214-.352.436-.525.652s-.342.428-.507.647c-.181.233-.359.469-.525.7-.159.211-.31.426-.462.646-.224.318-.444.64-.66.969q-.311.468-.607.946c-.17.274-.331.553-.5.832l-.331.577c-.163.293-.325.588-.481.882-.09.169-.174.339-.26.507-.356.7-.7,1.408-1.01,2.13-.008.018-.018.038-.028.058-.153.354-.3.715-.444,1.076-.054.135-.108.274-.162.409-.142.37-.283.742-.413,1.121-.024.06-.043.123-.065.187a38.748,38.748,0,0,0-1.119,3.854c-.019.086-.041.173-.061.262a38.49,38.49,0,0,0-.713,4.141.093.093,0,0,1-.006.031,2.381,2.381,0,0,1,.463.661c.108.344.712.574.826.644s.152-.663.069-.855.148-.3.143-.164a5.224,5.224,0,0,0,.755,1.019c.187.233.38,1.738.563,2.063a7.169,7.169,0,0,0,2.475,1.11,3.01,3.01,0,0,1,1.374.924c.109.18.852.271,1.011.345s.539.575.7.682a.859.859,0,0,1,.282.483c0,.081.98.452,1.221.714a.526.526,0,0,0,.705.081c.072-.11.266.523.368.737a1.4,1.4,0,0,1,.047.845,10.5,10.5,0,0,1-.384,1.266,5.2,5.2,0,0,0-.443,1.916,2.262,2.262,0,0,0,.74.958.228.228,0,0,1-.045.414c-.156.021-.086,1.389.287,1.595A1.367,1.367,0,0,1,556.489,375.2Z" transform="translate(-544.707 -328.181)" fill="#596273"/>
          <line id="Línea_2" data-name="Línea 2" x1="0.002" y2="0.002" transform="translate(16.43 22.973)" fill="#596273"/>
          <path id="Trazado_45487" data-name="Trazado 45487" d="M560.152,333.66c.471-.079,1.257-.209,1.308-.343a.806.806,0,0,0-.042-.546c.075.007.161.011.228.011.181,0,.48-.983.668-1.215a9.911,9.911,0,0,1,1.525-.721,10.251,10.251,0,0,1,1.04-.762c.215-.064.53-.571.483-.674s.731-.574,1.028-.7.447-.471.336-.486c-.072-.009-1.72.854-3.229,1.71-.014.01-.03.022-.042.032-.432.293-.86.6-1.277.908-.289.211-.567.432-.844.651l-.442.35c-.332.267-.663.543-.986.82-.065.059-.136.118-.2.18-.358.314-.713.632-1.062.958C559.114,333.8,559.843,333.712,560.152,333.66Z" transform="translate(-546.419 -327.334)" fill="#596273"/>
          <path id="Trazado_45488" data-name="Trazado 45488" d="M587.776,354.189c-.186-.005-.193.558,0,.618.141.046.317-.316.484-.553v-2.2c-.014-.016-.029-.036-.044-.05-.232-.234-.2-.239.044-.058v-13.5c-.2.187-.395.363-.518.461a10.615,10.615,0,0,0-1.068,1.614.748.748,0,0,1-.56.315c-.107.005-.2.3-.2.406s-.953.606-1.053,1.039a9.9,9.9,0,0,0,.1,1.777c0,.351.353,1.05.617,1.061s.128.6.057.762.169.346.16.485-.671.335-.875.416a1.53,1.53,0,0,0-.582.711c-.038.149-.675.253-.884.457a4.826,4.826,0,0,1,.181-.459.761.761,0,0,0-.147-.717c-.1-.084-.146-1.232-.308-1.479a5.176,5.176,0,0,0-.66-.744c-.1-.08.068-.383.125-.512s-.535-.2-.7-.1-.248,1.231-.317,1.54a1.016,1.016,0,0,0,.393.81c.1.024.07.582-.136.6s-.4.839-.3,1.025-.148.55-.273.636.8.036,1.225.025.747.176.7.211-.8.147-.94.329-.652.525-.753.664.172.449.39.433.468.756.64.9.106.541.033.653-1.107-.077-1.5.023-.883.921-.92,1.233a7.612,7.612,0,0,0,.118,1.456c.047.246.864.4,1.031.524s.949,0,1.114.079.686-.795.792-1.2.937-1.145,1.11-1.424,1.074-.239,1.293-.383.1.68.207,1.135.964.4.838-.029.089-.61.121-.455.86.489,1.019.728S587.96,354.2,587.776,354.189Z" transform="translate(-549.067 -328.589)" fill="#596273"/>
          <path id="Trazado_45489" data-name="Trazado 45489" d="M587.928,359.163c-.168-.085-.326-.166-.448-.219-.508-.212-.905-.987-1.009-1.086s.086-.353.036-.507-1.209-.183-1.542-.06-2.077.306-2.488.489a2.21,2.21,0,0,1-1.224-.047c-.192-.032-.654.534-.887.639a3.116,3.116,0,0,0-.658,1.789l-.314.617-.205.393a8.941,8.941,0,0,0-1.4,2.188,14,14,0,0,0-.334,3.1,9.768,9.768,0,0,0,.79,2.612,6.246,6.246,0,0,0,1.594,1.544,5.629,5.629,0,0,0,1.891.24,1.156,1.156,0,0,0,.957-.8l.555.054.255.025c.011.312.834.561,1.035.672a1.8,1.8,0,0,0,.9-.022c.16-.048.339,1.4.224,1.823a8.347,8.347,0,0,0,.4,2.33c.118.442.624,1.653.672,2.085a20.139,20.139,0,0,1-.351,2.385,9.207,9.207,0,0,0,.812,2.407,8.209,8.209,0,0,1,.326,1.775,5.666,5.666,0,0,0,.406,1.042Z" transform="translate(-548.73 -330.895)" fill="#596273"/>
          <path id="Trazado_45490" data-name="Trazado 45490" d="M566.372,398.878h.542C567.013,398.292,566.344,398.388,566.372,398.878Z" transform="translate(-547.368 -335.964)" fill="#596273"/>
          <path id="Trazado_45491" data-name="Trazado 45491" d="M577.032,336.152c.275.11.8-.272.6-.419s-.1-.142,0-.079.2-.489.1-.591.809-.773.646-1.405.252-1.282.5-1.289.175-.713-.124-.782-.017-.13.1-.232a1.5,1.5,0,0,0,.187-.85c-.068-.122.45-.26.537-.4a2.544,2.544,0,0,1,.9-.476c.2-.046.321-.6.095-.575a1.852,1.852,0,0,1-.918-.2,2.327,2.327,0,0,0-1.238-.1c-.257.108-.08-.622.275-.7s.053-.579-.323-.579-1.309-.139-1.528-.091a2.74,2.74,0,0,1-.8-.176,16.414,16.414,0,0,1-1.8.308,12.634,12.634,0,0,0-2.11.109c-.282.075-.486.626-.443.82s-1.26.194-1.667.2a13.561,13.561,0,0,0-3.155.781c-.568.311-1.01,1.11-.822,1.128s-.318.466-.621.574-1.034.149-1.206.322.182.288.248.4.275-.1.465.01a8.512,8.512,0,0,0,.994.222c.172.069-.536.2-.866.225s-.261.679.009.769.969.189,1.04.072.829.124,1.172.165.6.892.7,1.077a2.671,2.671,0,0,1,.1,1.023c-.023.189.6.533.719.413s.076.295-.175.275-.086.7.222.806.1.547-.078.682-.08.56-.263.712.646,1.59.641,2.332.456,1.345.633,1.345.786.151.866.306.374-.108.49-.231a6.318,6.318,0,0,0,.55-.79,18.754,18.754,0,0,0,.659-1.958c.055-.16.756-.058.913-.14a7.383,7.383,0,0,0,.742-.55c.131-.106,1.123-.526,1.4-.724s.723-1.035.932-1.213-.107-.131-.37-.3a.281.281,0,0,1-.068-.466A3.086,3.086,0,0,1,577.032,336.152Z" transform="translate(-547.096 -327.209)" fill="#596273"/>
          <path id="Trazado_45492" data-name="Trazado 45492" d="M588.442,329.9c-.282-.094-.85.215-.78.391s-.464-.225-.838-.032-.481.853-.31.94.3.61.3.71.726.029.916-.124.157.531-.025.716.067.553.269.586.473.5.682.5c.1-.005.247-.208.37-.446v-2.417h0C588.866,330.7,588.719,329.993,588.442,329.9Z" transform="translate(-549.833 -327.537)" fill="#596273"/>
          <path id="Trazado_45493" data-name="Trazado 45493" d="M580.826,348.5a.425.425,0,0,0,.379-.394c-.01-.18-.32-1-.446-1s-.355.6-.5.544-.229.489-.2.7S580.606,348.536,580.826,348.5Z" transform="translate(-549.049 -329.653)" fill="#596273"/>
          <path id="Trazado_45494" data-name="Trazado 45494" d="M579.924,341.5a.563.563,0,0,0,.613.317c.266-.046.795-.317.979-.332s.389-.949.271-1.153-.984-.176-1.2-.19a2.428,2.428,0,0,1-.989-.37c-.12-.135-.219.54-.415.627s.095.216.178.146,0,.348-.1.49S579.846,341.285,579.924,341.5Z" transform="translate(-548.934 -328.75)" fill="#596273"/>
          <path id="Trazado_45495" data-name="Trazado 45495" d="M557.839,341.713c-.137.126-.018.766.242.784s.679-.963,1-.767.535.275.481.171a9.045,9.045,0,0,0-1.075-.575C558.372,341.257,557.978,341.588,557.839,341.713Z" transform="translate(-546.313 -328.942)" fill="#596273"/>
          <path id="Trazado_45496" data-name="Trazado 45496" d="M561.648,366.4c0,.108.57.092.662-.082s.041-.313-.112-.313S561.648,366.294,561.648,366.4Z" transform="translate(-546.788 -331.975)" fill="#596273"/>
          <path id="Trazado_45497" data-name="Trazado 45497" d="M558.361,365.218c.273-.052.143.387.207.545s.719.286.851.392.467-.2.726-.168-.085-.9-.524-.876-.784-.4-.885-.446a6.844,6.844,0,0,1-.757-.469,6.161,6.161,0,0,0-1.637-.218,1.229,1.229,0,0,0-.854.512c-.06.129.6.215.789.113a1.887,1.887,0,0,1,1.251.325A.986.986,0,0,0,558.361,365.218Z" transform="translate(-546.031 -331.726)" fill="#596273"/>
          <path id="Trazado_45498" data-name="Trazado 45498" d="M557.4,366.428c0,.108.576.039.712.047s.137-.095-.01-.211S557.4,366.321,557.4,366.428Z" transform="translate(-546.267 -332.002)" fill="#596273"/>
          <path id="Trazado_45499" data-name="Trazado 45499" d="M557.831,363.088c-.151-.058-.268.176-.268.286a.191.191,0,0,0,.182.2C557.846,363.575,557.981,363.147,557.831,363.088Z" transform="translate(-546.286 -331.615)" fill="#596273"/>
          <path id="Trazado_45500" data-name="Trazado 45500" d="M559.172,363.164a.564.564,0,0,0-.368-.2c-.075,0-.125.19-.112.419S559.224,363.274,559.172,363.164Z" transform="translate(-546.425 -331.602)" fill="#596273"/>
          <path id="Trazado_45501" data-name="Trazado 45501" d="M560.134,364.6c.229-.115.259-.392.121-.375s-.392-.4-.542-.457-.271.245-.271.38.082.23.186.2S559.9,364.7,560.134,364.6Z" transform="translate(-546.517 -331.699)" fill="#596273"/>
        </g>
        <path id="Trazado_45502" data-name="Trazado 45502" d="M561.834,333.508c-.037-.041-.2.081-.128.154C561.74,333.708,561.9,333.592,561.834,333.508Z" transform="translate(-546.517 -323.787)" fill="#d1ecfb"/>
        <path id="Trazado_45503" data-name="Trazado 45503" d="M566.823,348.359c-.032-.044-.2.077-.139.156C566.726,348.56,566.894,348.436,566.823,348.359Z" transform="translate(-547.129 -325.611)" fill="#d1ecfb"/>
      </g>
      <g id="Grupo_12541" data-name="Grupo 12541" transform="translate(596.546 319.452)">
        <path id="Trazado_45504" data-name="Trazado 45504" d="M684.437,361.894a39.472,39.472,0,1,1-39.472-39.467A39.476,39.476,0,0,1,684.437,361.894Z" transform="translate(-605.493 -322.427)" fill="#fec00f"/>
        <path id="Trazado_45505" data-name="Trazado 45505" d="M683.4,362.063A38.267,38.267,0,1,1,645.134,323.8,38.268,38.268,0,0,1,683.4,362.063Z" transform="translate(-605.662 -322.596)" fill="#f99b1c"/>
        <path id="Trazado_45506" data-name="Trazado 45506" d="M676.406,363.2a30.134,30.134,0,1,1-30.134-30.132A30.131,30.131,0,0,1,676.406,363.2Z" transform="translate(-606.801 -323.734)" fill="#fec00f"/>
        <g id="Grupo_12540" data-name="Grupo 12540" transform="translate(27.622 16.17)">
          <path id="Trazado_45507" data-name="Trazado 45507" d="M646.714,381.858a15.517,15.517,0,0,1-5.467-1.486,14.836,14.836,0,0,1-4.263-3.067l1.314-2.03a1.291,1.291,0,0,1,.5-.444,1.309,1.309,0,0,1,.668-.175,1.788,1.788,0,0,1,1.066.467c.4.318.888.673,1.469,1.077a14.711,14.711,0,0,0,2.077,1.189,9.518,9.518,0,0,0,2.885.76l.922-13.188c-1.149-.348-2.3-.733-3.409-1.179a11.551,11.551,0,0,1-3.017-1.713,7.917,7.917,0,0,1-2.131-2.667,8.954,8.954,0,0,1-.808-4.021,9.328,9.328,0,0,1,2.773-6.62,10.481,10.481,0,0,1,3.338-2.2,11.483,11.483,0,0,1,4.57-.865l.243-3.622a1.523,1.523,0,0,1,.374-.839,1.093,1.093,0,0,1,.868-.372h1.639l-.339,4.914a12.732,12.732,0,0,1,4.492,1.339,15.525,15.525,0,0,1,3.374,2.459l-1.07,1.639a1.382,1.382,0,0,1-1.143.744,1.754,1.754,0,0,1-.853-.312c-.338-.2-.749-.447-1.239-.721-.474-.269-1.029-.538-1.652-.812a8.4,8.4,0,0,0-2.159-.588l-.825,12.019c1.19.368,2.363.767,3.527,1.2a12.5,12.5,0,0,1,3.124,1.674,7.418,7.418,0,0,1,3.106,6.377,11.751,11.751,0,0,1-.742,4.21,10.327,10.327,0,0,1-2.167,3.462,11.136,11.136,0,0,1-3.5,2.431,11.445,11.445,0,0,1-4.739.937l-.29,4.441a1.373,1.373,0,0,1-.387.838,1.132,1.132,0,0,1-.854.356h-1.643Zm-4.013-26.9a4.73,4.73,0,0,0,.419,2.072,4.786,4.786,0,0,0,1.167,1.55,8.113,8.113,0,0,0,1.734,1.179,21.225,21.225,0,0,0,2.157.893l.753-11.2a9.64,9.64,0,0,0-2.8.645,6.385,6.385,0,0,0-1.939,1.242,4.892,4.892,0,0,0-1.122,1.677A5.133,5.133,0,0,0,642.7,354.961Zm13.781,16.488a4.55,4.55,0,0,0-.465-2.131,4.779,4.779,0,0,0-1.252-1.542,8.208,8.208,0,0,0-1.866-1.119c-.71-.311-1.464-.6-2.279-.874l-.845,12.368a8.827,8.827,0,0,0,2.865-.711,6.632,6.632,0,0,0,2.107-1.423A5.679,5.679,0,0,0,656.041,374,7.066,7.066,0,0,0,656.482,371.449Z" transform="translate(-636.984 -340.862)" fill="#f99b1c"/>
        </g>
      </g>
      <g id="Grupo_12543" data-name="Grupo 12543" transform="translate(654.354 368.639)">
        <g id="Grupo_12542" data-name="Grupo 12542">
          <path id="Trazado_45508" data-name="Trazado 45508" d="M714.522,392.518l-21.562-7.007L671.4,378.5l7.007,21.564,7.006,21.563,7.576-14.75L704.5,418.4l6.784-6.789L699.771,400.1Z" transform="translate(-671.396 -378.503)" fill="#cdd5d8"/>
          <path id="Trazado_45509" data-name="Trazado 45509" d="M692.959,385.511,671.4,378.5l.235.72,36.019,36.02,3.635-3.636L699.771,400.1l14.751-7.578Z" transform="translate(-671.396 -378.503)" fill="#dce4e7"/>
        </g>
      </g>
    </g>
  </g>
</svg>
