<svg xmlns="http://www.w3.org/2000/svg" width="217" height="217" viewBox="0 0 217 217">
  <g id="Grupo_21274" data-name="Grupo 21274" transform="translate(-422 -4665)">
    <circle id="Elipse_947" data-name="Elipse 947" cx="108.5" cy="108.5" r="108.5" transform="translate(422 4665)" fill="#fae7b7"/>
    <g id="Grupo_12514" data-name="Grupo 12514" transform="translate(-345.354 4407.376)">
      <g id="Grupo_12478" data-name="Grupo 12478">
        <rect id="Rectángulo_3526" data-name="Rectángulo 3526" width="4.852" height="18.865" transform="translate(859.961 319.551)" fill="#f99b1c"/>
        <rect id="Rectángulo_3527" data-name="Rectángulo 3527" width="4.852" height="22.535" transform="translate(869.665 315.881)" fill="#f99b1c"/>
        <rect id="Rectángulo_3528" data-name="Rectángulo 3528" width="4.851" height="25.347" transform="translate(879.368 313.069)" fill="#f99b1c"/>
        <rect id="Rectángulo_3529" data-name="Rectángulo 3529" width="4.852" height="22.805" transform="translate(889.072 315.611)" fill="#f99b1c"/>
        <rect id="Rectángulo_3530" data-name="Rectángulo 3530" width="4.852" height="31.912" transform="translate(898.777 306.504)" fill="#f99b1c"/>
        <rect id="Rectángulo_3531" data-name="Rectángulo 3531" width="4.852" height="28.854" transform="translate(908.481 309.561)" fill="#f99b1c"/>
        <rect id="Rectángulo_3532" data-name="Rectángulo 3532" width="4.852" height="35.173" transform="translate(918.185 303.243)" fill="#f99b1c"/>
        <rect id="Rectángulo_3533" data-name="Rectángulo 3533" width="4.852" height="40.88" transform="translate(927.889 297.536)" fill="#f99b1c"/>
        <rect id="Rectángulo_3534" data-name="Rectángulo 3534" width="4.851" height="46.792" transform="translate(937.594 291.624)" fill="#f99b1c"/>
      </g>
      <g id="Grupo_12486" data-name="Grupo 12486">
        <g id="Grupo_12479" data-name="Grupo 12479">
          <path id="Trazado_45368" data-name="Trazado 45368" d="M867.481,343.408h-67.1a1.072,1.072,0,0,1,0-2.144h67.1a1.072,1.072,0,1,1,0,2.144Z" fill="#f99b1c"/>
        </g>
        <g id="Grupo_12480" data-name="Grupo 12480">
          <path id="Trazado_45369" data-name="Trazado 45369" d="M867.481,354.666h-67.1a1.072,1.072,0,0,1,0-2.145h67.1a1.072,1.072,0,1,1,0,2.145Z" fill="#f99b1c"/>
        </g>
        <g id="Grupo_12481" data-name="Grupo 12481">
          <path id="Trazado_45370" data-name="Trazado 45370" d="M867.481,365.924H782.427a1.073,1.073,0,0,1,0-2.145h85.054a1.073,1.073,0,1,1,0,2.145Z" fill="#f99b1c"/>
        </g>
        <g id="Grupo_12482" data-name="Grupo 12482">
          <path id="Trazado_45371" data-name="Trazado 45371" d="M867.481,377.182H782.427a1.073,1.073,0,0,1,0-2.145h85.054a1.073,1.073,0,1,1,0,2.145Z" fill="#f99b1c"/>
        </g>
        <g id="Grupo_12485" data-name="Grupo 12485">
          <g id="Grupo_12483" data-name="Grupo 12483">
            <path id="Trazado_45372" data-name="Trazado 45372" d="M793.852,357.452a1.073,1.073,0,0,1-.994-.668l-4.719-11.6-4.719,11.6a1.072,1.072,0,1,1-1.986-.806l5.711-14.045a1.073,1.073,0,0,1,1.987,0l5.713,14.044a1.072,1.072,0,0,1-.993,1.476Z" fill="#f99b1c"/>
          </g>
          <g id="Grupo_12484" data-name="Grupo 12484">
            <path id="Trazado_45373" data-name="Trazado 45373" d="M791.537,354.646h-7.553a1.072,1.072,0,1,1,0-2.144h7.553a1.072,1.072,0,1,1,0,2.144Z" fill="#f99b1c"/>
          </g>
        </g>
      </g>
      <g id="Grupo_12495" data-name="Grupo 12495">
        <path id="Trazado_45374" data-name="Trazado 45374" d="M958.607,390.046v-48.5L947,329.944H914.632v60.1Z" fill="#fff"/>
        <path id="Trazado_45375" data-name="Trazado 45375" d="M947,341.55h11.6L947,329.944Z" fill="#ec8558"/>
        <path id="Trazado_45376" data-name="Trazado 45376" d="M958.607,341.55H947l11.6,11.6Z" fill="#d1ecfb"/>
        <rect id="Rectángulo_3535" data-name="Rectángulo 3535" width="13.458" height="1.1" transform="translate(922.957 343.707)" fill="#ec8558"/>
        <g id="Grupo_12487" data-name="Grupo 12487">
          <rect id="Rectángulo_3536" data-name="Rectángulo 3536" width="27.323" height="1.1" transform="translate(922.957 349.112)" fill="#a6dae9"/>
          <rect id="Rectángulo_3537" data-name="Rectángulo 3537" width="27.323" height="1.097" transform="translate(922.957 352.564)" fill="#a6dae9"/>
          <rect id="Rectángulo_3538" data-name="Rectángulo 3538" width="27.323" height="1.097" transform="translate(922.957 356.015)" fill="#a6dae9"/>
          <rect id="Rectángulo_3539" data-name="Rectángulo 3539" width="27.323" height="1.101" transform="translate(922.957 359.464)" fill="#a6dae9"/>
          <rect id="Rectángulo_3540" data-name="Rectángulo 3540" width="27.323" height="1.099" transform="translate(922.957 362.916)" fill="#a6dae9"/>
          <rect id="Rectángulo_3541" data-name="Rectángulo 3541" width="27.323" height="1.097" transform="translate(922.957 366.367)" fill="#a6dae9"/>
          <rect id="Rectángulo_3542" data-name="Rectángulo 3542" width="27.323" height="1.099" transform="translate(922.957 369.817)" fill="#a6dae9"/>
        </g>
        <g id="Grupo_12488" data-name="Grupo 12488">
          <path id="Trazado_45377" data-name="Trazado 45377" d="M939.52,382.592a.317.317,0,0,1-.059-.005c-.272-.046-.4-.371-.479-.649a3.066,3.066,0,0,1,.354-2.461,3.854,3.854,0,0,0-.309-.722.268.268,0,0,1,.467-.262,4.073,4.073,0,0,1,.234.489,2.55,2.55,0,0,1,1.819-.769,2.967,2.967,0,0,1,2.177,1.542l.053.086a4.716,4.716,0,0,1,2.52-.9c.787.1.875.846.883,1.334a2.215,2.215,0,0,0,.339-.654c.2-.585.4-.546,1.729-.293l.266.051a.27.27,0,0,1,.214.313.274.274,0,0,1-.314.214l-.267-.051a5.6,5.6,0,0,0-1.1-.165h0c.016,0-.005.058-.022.106a2.776,2.776,0,0,1-.483.888c-.215.275-.406.5-.659.41s-.241-.344-.239-.644c0-.614-.059-.934-.412-.977a4.283,4.283,0,0,0-2.205.845,1.366,1.366,0,0,1,.078,1.294.684.684,0,0,1-.806.183c-.65-.187-.611-.642-.584-.776a1.734,1.734,0,0,1,.631-.855c-.024-.04-.048-.08-.075-.121-.379-.6-1.059-1.3-1.724-1.3a2.021,2.021,0,0,0-1.626.825,4.367,4.367,0,0,1-.066,2.827A.4.4,0,0,1,939.52,382.592Zm0-2.26a2.534,2.534,0,0,0-.025,1.459l.011.038A4.878,4.878,0,0,0,939.523,380.332Zm4.065.326a1.059,1.059,0,0,0-.348.467c-.005.027-.017.09.207.154.146.042.218.028.228.013C943.723,381.229,943.719,381,943.588,380.658Z" fill="#ec8558"/>
        </g>
        <g id="Grupo_12494" data-name="Grupo 12494">
          <g id="Grupo_12489" data-name="Grupo 12489">
            <path id="Trazado_45378" data-name="Trazado 45378" d="M925.439,381.98a2.724,2.724,0,1,1,2.724-2.724A2.728,2.728,0,0,1,925.439,381.98Zm0-4.434a1.711,1.711,0,1,0,1.71,1.71A1.712,1.712,0,0,0,925.439,377.546Z" fill="#596273"/>
          </g>
          <g id="Grupo_12490" data-name="Grupo 12490">
            <path id="Trazado_45379" data-name="Trazado 45379" d="M924.7,382.029a.5.5,0,0,1-.4-.2l-.38-.489-.582-.21a.505.505,0,0,1-.335-.46l-.021-.62-.347-.514a.5.5,0,0,1,0-.568l.347-.514.021-.618a.507.507,0,0,1,.334-.46l.583-.211.381-.489a.507.507,0,0,1,.542-.176l.593.173.595-.173a.5.5,0,0,1,.542.176l.38.488.583.212a.508.508,0,0,1,.334.46l.02.619.346.513a.505.505,0,0,1,0,.568l-.347.514-.02.62a.507.507,0,0,1-.336.46l-.581.209-.38.49a.506.506,0,0,1-.542.176l-.595-.173-.594.173A.5.5,0,0,1,924.7,382.029Zm-.7-1.732.4.143a.513.513,0,0,1,.229.166l.259.334.4-.118a.5.5,0,0,1,.283,0l.405.118.259-.335a.5.5,0,0,1,.23-.165l.4-.143.013-.423a.511.511,0,0,1,.087-.268l.237-.35-.236-.35a.5.5,0,0,1-.088-.267l-.013-.423-.4-.145a.51.51,0,0,1-.228-.166l-.259-.332-.405.117a.488.488,0,0,1-.283,0l-.4-.117-.259.333a.508.508,0,0,1-.228.166l-.4.144-.014.422a.512.512,0,0,1-.088.267l-.237.351.237.35a.512.512,0,0,1,.088.268Z" fill="#596273"/>
          </g>
          <g id="Grupo_12493" data-name="Grupo 12493">
            <g id="Grupo_12491" data-name="Grupo 12491">
              <path id="Trazado_45380" data-name="Trazado 45380" d="M927.129,383.343a.507.507,0,0,1-.405-.2l-.845-1.125a.507.507,0,0,1,.81-.61l.845,1.125a.507.507,0,0,1-.4.812Z" fill="#596273"/>
            </g>
            <g id="Grupo_12492" data-name="Grupo 12492">
              <path id="Trazado_45381" data-name="Trazado 45381" d="M923.751,383.343a.507.507,0,0,1-.4-.811l.843-1.125a.507.507,0,0,1,.811.608l-.844,1.125A.5.5,0,0,1,923.751,383.343Z" fill="#596273"/>
            </g>
          </g>
        </g>
      </g>
      <g id="Grupo_12503" data-name="Grupo 12503">
        <g id="Grupo_12502" data-name="Grupo 12502">
          <g id="Grupo_12496" data-name="Grupo 12496">
            <path id="Trazado_45382" data-name="Trazado 45382" d="M889.541,330.505c-.467.935-1.364,1.431-2.022,1.137a39.6,39.6,0,0,0-32.464,0c-.658.294-1.558-.2-2.021-1.137-.034-.07-.068-.142-.1-.211a1.663,1.663,0,0,1,.478-2.314,43.623,43.623,0,0,1,35.756,0,1.668,1.668,0,0,1,.479,2.314C889.608,330.363,889.575,330.435,889.541,330.505Z" fill="#0e303f"/>
            <path id="Trazado_45383" data-name="Trazado 45383" d="M889.165,327.98a43.623,43.623,0,0,0-35.756,0,1.663,1.663,0,0,0-.478,2.314,41.725,41.725,0,0,1,36.713,0A1.669,1.669,0,0,0,889.165,327.98Z" fill="#474f59"/>
          </g>
          <g id="Grupo_12499" data-name="Grupo 12499">
            <g id="Grupo_12497" data-name="Grupo 12497">
              <path id="Rectángulo_3543" data-name="Rectángulo 3543" d="M1.25,0h.206a1.25,1.25,0,0,1,1.25,1.25V11.875a1.252,1.252,0,0,1-1.252,1.252h-.2A1.25,1.25,0,0,1,0,11.877V1.25A1.25,1.25,0,0,1,1.25,0Z" transform="translate(854.076 329.409)" fill="#a6dae9"/>
              <path id="Trazado_45384" data-name="Trazado 45384" d="M858.45,336.6a3.023,3.023,0,1,1-3.024-3.02A3.02,3.02,0,0,1,858.45,336.6Z" fill="#a6dae9"/>
            </g>
            <g id="Grupo_12498" data-name="Grupo 12498">
              <path id="Rectángulo_3544" data-name="Rectángulo 3544" d="M1.252,0h.207A1.248,1.248,0,0,1,2.707,1.248V11.879a1.248,1.248,0,0,1-1.248,1.248H1.25A1.25,1.25,0,0,1,0,11.877V1.252A1.252,1.252,0,0,1,1.252,0Z" transform="translate(885.794 329.409)" fill="#a6dae9"/>
              <path id="Trazado_45385" data-name="Trazado 45385" d="M890.17,336.6a3.022,3.022,0,1,1-3.024-3.02A3.022,3.022,0,0,1,890.17,336.6Z" fill="#a6dae9"/>
            </g>
          </g>
          <path id="Rectángulo_3545" data-name="Rectángulo 3545" d="M3.75,0H110.41a3.75,3.75,0,0,1,3.75,3.75V72.913a3.751,3.751,0,0,1-3.751,3.751H3.751A3.751,3.751,0,0,1,0,72.913V3.75A3.75,3.75,0,0,1,3.75,0Z" transform="translate(814.207 336.495)" fill="#0e303f"/>
          <path id="Trazado_45386" data-name="Trazado 45386" d="M928.367,365.661a5.073,5.073,0,0,1-3.7,4.667,229.484,229.484,0,0,1-106.767,0,5.071,5.071,0,0,1-3.7-4.667V340.246a3.761,3.761,0,0,1,3.75-3.751H924.616a3.767,3.767,0,0,1,3.751,3.751Z" fill="#474f59"/>
          <path id="Trazado_45387" data-name="Trazado 45387" d="M871.287,374.122a227.476,227.476,0,0,1-52.8-6.224,2.585,2.585,0,0,1-1.777-2.234V340.246A1.26,1.26,0,0,1,817.966,339h106.65a1.26,1.26,0,0,1,1.253,1.251v25.413a2.581,2.581,0,0,1-1.791,2.238,227.345,227.345,0,0,1-52.791,6.223Z" fill="#0e303f"/>
          <path id="Trazado_45388" data-name="Trazado 45388" d="M871.287,370.374a234.867,234.867,0,0,1-50.531-5.56,2.571,2.571,0,0,1-1.836-2q-.768-11.352-1.529-22.706A1.1,1.1,0,0,1,818.565,339h105.46a1.093,1.093,0,0,1,1.158,1.114q-.766,11.355-1.532,22.706a2.561,2.561,0,0,1-1.846,2,234.7,234.7,0,0,1-50.518,5.559Z" fill="#474f59"/>
          <path id="Trazado_45389" data-name="Trazado 45389" d="M863.995,336.285v33.253c0,1.656.56,3,1.248,3H877.33c.688,0,1.249-1.346,1.249-3V336.285Z" fill="#0e303f"/>
          <g id="Grupo_12500" data-name="Grupo 12500">
            <path id="Trazado_45390" data-name="Trazado 45390" d="M865.768,336.285v33.253a16.6,16.6,0,0,0,.138,3h1.383a15.788,15.788,0,0,0,.145-3V336.285Z" fill="#474f59"/>
            <path id="Trazado_45391" data-name="Trazado 45391" d="M875.144,336.285v33.253a16.216,16.216,0,0,0,.139,3h1.383a16.1,16.1,0,0,0,.143-3V336.285Z" fill="#474f59"/>
          </g>
          <g id="Grupo_12501" data-name="Grupo 12501">
            <path id="Trazado_45392" data-name="Trazado 45392" d="M877.745,384.412a1.673,1.673,0,0,1-1.075,1.478,18.276,18.276,0,0,1-10.766,0,1.659,1.659,0,0,1-1.077-1.478V371.5a1.672,1.672,0,0,1,1.077-1.477,18.308,18.308,0,0,1,10.766,0,1.672,1.672,0,0,1,1.075,1.477Z" fill="#fec00f"/>
            <path id="Trazado_45393" data-name="Trazado 45393" d="M876.67,370.46a19.34,19.34,0,0,0-10.766,0,1.579,1.579,0,0,0-1.077,1.388v5.626a.965.965,0,0,0,.12.019h12.8v-5.645A1.578,1.578,0,0,0,876.67,370.46Z" fill="#f99b1c"/>
            <path id="Trazado_45394" data-name="Trazado 45394" d="M864.827,378.69v5.722a1.659,1.659,0,0,0,1.077,1.478,18.276,18.276,0,0,0,10.766,0,1.673,1.673,0,0,0,1.075-1.478V378.69Z" fill="#f99b1c"/>
            <path id="Trazado_45395" data-name="Trazado 45395" d="M871.287,385.593a17.217,17.217,0,0,1-5.056-.761.6.6,0,0,1-.3-.416V379.8h10.7v4.614a.606.606,0,0,1-.308.424,17.163,17.163,0,0,1-5.042.757Z" fill="#fec00f"/>
          </g>
        </g>
      </g>
      <g id="Grupo_12504" data-name="Grupo 12504">
        <path id="Trazado_45396" data-name="Trazado 45396" d="M914.207,398.524a14.113,14.113,0,0,0-4.744,3.688L893.8,393.929a31.54,31.54,0,0,1,16.1-12.656Z" fill="#cdd5d8"/>
        <path id="Trazado_45397" data-name="Trazado 45397" d="M933.728,406.519a14.157,14.157,0,0,0-13.922-9.386l-4.3-17.231c.2-.027.39-.085.593-.111a31.732,31.732,0,0,1,35.16,24.358Z" fill="#70a5c5"/>
        <path id="Trazado_45398" data-name="Trazado 45398" d="M931.179,420.33a14.1,14.1,0,0,0,3.32-8.1l17.535-2.369a31.626,31.626,0,0,1-9.9,24.392Z" fill="#474f59"/>
        <path id="Trazado_45399" data-name="Trazado 45399" d="M906.743,407.3a13.977,13.977,0,0,0-.446,5.841,14.025,14.025,0,0,0,20.344,10.748L937.6,437.829A31.676,31.676,0,0,1,891.1,399.024Z" fill="#fff"/>
      </g>
      <g id="Grupo_12506" data-name="Grupo 12506">
        <path id="Trazado_45400" data-name="Trazado 45400" d="M841.329,401.766a20.609,20.609,0,1,1-20.608-20.608A20.608,20.608,0,0,1,841.329,401.766Z" fill="#70a5c5"/>
        <path id="Trazado_45401" data-name="Trazado 45401" d="M840.288,408.231,821.647,389.59l-.006.008a1.328,1.328,0,0,0-.92-.39,1.72,1.72,0,0,0-1.514,1.87,2.005,2.005,0,0,0,.686,1.564l0,0,.658.657h-.138l-.192.7.144.124-.006.14-.928-.928v0l0-.008c-.245.019-.834.1-.834.1a.889.889,0,0,0-.905.835l-.557,7.056h.009l0,.005,1.223,1.223.175,5.6-.523-.524-.01.009-2.516,0-.813-.813-.016.018-1.482-.786-6.5,2.171.014.009,14.128,14.126A20.608,20.608,0,0,0,840.288,408.231Z" fill="#6392ae"/>
        <g id="Grupo_12505" data-name="Grupo 12505">
          <path id="Trazado_45402" data-name="Trazado 45402" d="M822.466,411.492l-.2-2.211-3.084.012-.167,2.219-2.205-.76-2.591.817,6.533,2.091,6.509-2.168-2.6-.781Z" fill="#fff"/>
          <path id="Trazado_45403" data-name="Trazado 45403" d="M828.24,406.073l-1.507.79,2.206.76-5.519.01.184,1.124,5.884-.018-1.755.77,2.6.779,4.437-2.121Z" fill="#fff"/>
          <path id="Trazado_45404" data-name="Trazado 45404" d="M817.845,408.775l.169-1.134-5.519.011,2.2-.78-1.523-.807-6.5,2.171,4.463,2.145,2.592-.816-1.764-.771Z" fill="#fff"/>
          <path id="Trazado_45405" data-name="Trazado 45405" d="M820.721,392.949a1.912,1.912,0,1,0-1.514-1.871A1.721,1.721,0,0,0,820.721,392.949Z" fill="#fff"/>
          <path id="Trazado_45406" data-name="Trazado 45406" d="M818.094,401.4h.092c.044,0,.087,0,.131,0l.227,7.225H820.6c.062-2.107.024-5.8.005-7.229h.21l.227,7.229h2.061c.064-2.105.024-5.792.006-7.223.047,0,.093-.005.142-.006h.044v0q.505-.027,1.014-.067l-.559-7.056a.885.885,0,0,0-.9-.835c-.015,0-.641-.085-.888-.1l-.006.022.649.548-.775.391.359.615-.964,2.126-.151-2.907.146-.125-.191-.7h-.625l-.192.7.144.124-.154,3.009-1.011-2.227.359-.615-.775-.391.649-.548-.007-.022c-.245.019-.834.1-.834.1a.889.889,0,0,0-.905.835l-.557,7.056q.483.037.966.063Z" fill="#fff"/>
        </g>
      </g>
      <g id="Grupo_12513" data-name="Grupo 12513">
        <g id="Grupo_12507" data-name="Grupo 12507">
          <path id="Trazado_45407" data-name="Trazado 45407" d="M903.129,438.444a1.444,1.444,0,0,0-.131-.586c-5-4.374-11.649-8.89-15.094-9.164l-32.452-2.738a11.482,11.482,0,0,0-3.043.162v3.12a11.832,11.832,0,0,1,1.222-.022l32.782,1.355c3.567.147,10.292,4.441,15.415,9.291A1.4,1.4,0,0,0,903.129,438.444Z" fill="#474f59"/>
          <path id="Trazado_45408" data-name="Trazado 45408" d="M902.129,439.521c-5.153-4.851-11.924-9.145-15.511-9.292l-32.979-1.355a11.422,11.422,0,0,0-1.23.022v.342a11.832,11.832,0,0,1,1.222-.022l32.782,1.355c3.567.147,10.292,4.441,15.415,9.291a1.353,1.353,0,0,0,1.083-.65A1.346,1.346,0,0,1,902.129,439.521Z" fill="#0e303f"/>
        </g>
        <g id="Grupo_12508" data-name="Grupo 12508">
          <path id="Trazado_45409" data-name="Trazado 45409" d="M854.178,438.444a1.444,1.444,0,0,1,.129-.586c5-4.374,11.65-8.89,15.094-9.164l32.451-2.738a11.484,11.484,0,0,1,3.044.162v3.12a11.811,11.811,0,0,0-1.222-.022l-32.78,1.355c-3.569.147-10.294,4.441-15.416,9.291A1.4,1.4,0,0,1,854.178,438.444Z" fill="#474f59"/>
          <path id="Trazado_45410" data-name="Trazado 45410" d="M855.179,439.521c5.152-4.851,11.92-9.145,15.509-9.292l32.979-1.355a11.418,11.418,0,0,1,1.229.022v.342a11.811,11.811,0,0,0-1.222-.022l-32.78,1.355c-3.569.147-10.294,4.441-15.416,9.291a1.353,1.353,0,0,1-1.083-.65A1.339,1.339,0,0,0,855.179,439.521Z" fill="#0e303f"/>
        </g>
        <g id="Grupo_12512" data-name="Grupo 12512">
          <g id="Grupo_12509" data-name="Grupo 12509">
            <path id="Trazado_45411" data-name="Trazado 45411" d="M854.593,425.189a3.674,3.674,0,0,1,2.61-2.157,49.841,49.841,0,0,1,16.336.1,3.73,3.73,0,0,1,2.558,2.053H877.1a4.944,4.944,0,0,0-3.514-3.151,47.474,47.474,0,0,0-16.439-.112c-1.332.229-4.21,2.316-4.21,2.314a.673.673,0,0,0-.529.669v.28Z" fill="#0e303f"/>
            <path id="Trazado_45412" data-name="Trazado 45412" d="M875.509,432.454a4.347,4.347,0,0,1-3.329,2.969q-6.809.326-13.616-.008a4.366,4.366,0,0,1-3.33-3,25.23,25.23,0,0,1-.9-5.557,3.526,3.526,0,0,1,2.872-3.368,51.51,51.51,0,0,1,16.336.1,3.558,3.558,0,0,1,2.867,3.371A24.478,24.478,0,0,1,875.509,432.454Z" fill="#fff" opacity="0.3"/>
            <path id="Trazado_45413" data-name="Trazado 45413" d="M873.588,422.525a49.059,49.059,0,0,0-16.439-.107c-1.332.221-4.21,2.238-4.21,2.235a.658.658,0,0,0-.529.648v3.651c0,.316.262.424.529.524a2.062,2.062,0,0,1,.9,1.257q.2,1.017.484,2.038a5.419,5.419,0,0,0,4.2,3.728c2.272.126,4.58.192,6.853.192s4.58-.066,6.86-.191a5.407,5.407,0,0,0,4.192-3.7,25.318,25.318,0,0,0,.936-5.675A4.771,4.771,0,0,0,873.588,422.525Zm1.921,9.929a4.347,4.347,0,0,1-3.329,2.969q-6.809.326-13.616-.008a4.366,4.366,0,0,1-3.33-3,25.23,25.23,0,0,1-.9-5.557,3.526,3.526,0,0,1,2.872-3.368,51.51,51.51,0,0,1,16.336.1,3.558,3.558,0,0,1,2.867,3.371A24.478,24.478,0,0,1,875.509,432.454Z" fill="#0e303f"/>
            <path id="Trazado_45414" data-name="Trazado 45414" d="M856.077,433.934a4.28,4.28,0,0,1-.843-1.522,25.23,25.23,0,0,1-.9-5.557,3.526,3.526,0,0,1,2.872-3.368,51.51,51.51,0,0,1,16.336.1,3.55,3.55,0,0,1,1.948,1.109,3.64,3.64,0,0,0-2.265-1.5,50.686,50.686,0,0,0-16.338-.036,3.551,3.551,0,0,0-2.87,3.38,24.815,24.815,0,0,0,.9,5.534A4.431,4.431,0,0,0,856.077,433.934Z" fill="#474f59"/>
          </g>
          <g id="Grupo_12510" data-name="Grupo 12510">
            <path id="Trazado_45415" data-name="Trazado 45415" d="M902.894,425.189a3.677,3.677,0,0,0-2.612-2.157,49.841,49.841,0,0,0-16.336.1,3.719,3.719,0,0,0-2.555,2.053h-1.005a4.934,4.934,0,0,1,3.511-3.151,47.485,47.485,0,0,1,16.441-.112c1.332.229,4.21,2.316,4.209,2.314a.675.675,0,0,1,.529.669v.28Z" fill="#0e303f"/>
            <path id="Trazado_45416" data-name="Trazado 45416" d="M881.978,432.454a4.345,4.345,0,0,0,3.328,2.969q6.808.326,13.616-.008a4.368,4.368,0,0,0,3.33-3,24.932,24.932,0,0,0,.9-5.557,3.522,3.522,0,0,0-2.87-3.368,51.51,51.51,0,0,0-16.336.1,3.561,3.561,0,0,0-2.868,3.371A24.543,24.543,0,0,0,881.978,432.454Z" fill="#fff" opacity="0.3"/>
            <path id="Trazado_45417" data-name="Trazado 45417" d="M883.9,422.525a49.07,49.07,0,0,1,16.441-.107c1.332.221,4.21,2.238,4.209,2.235a.66.66,0,0,1,.529.648v3.651c0,.316-.26.424-.529.524a2.057,2.057,0,0,0-.9,1.257q-.2,1.017-.486,2.038a5.417,5.417,0,0,1-4.2,3.728c-2.273.126-4.578.192-6.854.192s-4.578-.066-6.859-.191a5.41,5.41,0,0,1-4.193-3.7,25.318,25.318,0,0,1-.936-5.675A4.774,4.774,0,0,1,883.9,422.525Zm-1.919,9.929a4.345,4.345,0,0,0,3.328,2.969q6.808.326,13.616-.008a4.368,4.368,0,0,0,3.33-3,24.932,24.932,0,0,0,.9-5.557,3.522,3.522,0,0,0-2.87-3.368,51.51,51.51,0,0,0-16.336.1,3.561,3.561,0,0,0-2.868,3.371A24.543,24.543,0,0,0,881.978,432.454Z" fill="#0e303f"/>
            <path id="Trazado_45418" data-name="Trazado 45418" d="M901.408,433.934a4.283,4.283,0,0,0,.844-1.522,24.932,24.932,0,0,0,.9-5.557,3.522,3.522,0,0,0-2.87-3.368,51.51,51.51,0,0,0-16.336.1A3.544,3.544,0,0,0,882,424.7a3.639,3.639,0,0,1,2.267-1.5,50.679,50.679,0,0,1,16.337-.036,3.553,3.553,0,0,1,2.87,3.38,24.875,24.875,0,0,1-.9,5.534A4.466,4.466,0,0,1,901.408,433.934Z" fill="#474f59"/>
          </g>
          <g id="Grupo_12511" data-name="Grupo 12511">
            <path id="Trazado_45419" data-name="Trazado 45419" d="M879.115,424.361a6.988,6.988,0,0,1-2.919-.484,7.379,7.379,0,0,1,.983,4.9,1.535,1.535,0,0,1,1.936-1.356Z" fill="#0e303f"/>
            <path id="Trazado_45420" data-name="Trazado 45420" d="M878.345,424.361a7,7,0,0,0,2.919-.484,7.391,7.391,0,0,0-.984,4.9,1.535,1.535,0,0,0-1.935-1.356Z" fill="#0e303f"/>
          </g>
        </g>
      </g>
    </g>
  </g>
</svg>
