<svg xmlns="http://www.w3.org/2000/svg" width="217" height="217" viewBox="0 0 217 217">
  <g id="Grupo_21277" data-name="Grupo 21277" transform="translate(-422 -6833)">
    <circle id="Elipse_950" data-name="Elipse 950" cx="108.5" cy="108.5" r="108.5" transform="translate(422 6833)" fill="#fae7b7"/>
    <g id="Grupo_12577" data-name="Grupo 12577" transform="translate(-85.029 6078.01)">
      <g id="Grupo_12550" data-name="Grupo 12550">
        <path id="Trazado_45531" data-name="Trazado 45531" d="M661.984,854.575a29.971,29.971,0,1,1-29.97-29.965A29.975,29.975,0,0,1,661.984,854.575Z" fill="#fec00f"/>
        <path id="Trazado_45532" data-name="Trazado 45532" d="M661.071,854.575a29.057,29.057,0,1,1-29.057-29.053A29.059,29.059,0,0,1,661.071,854.575Z" fill="#f99b1c"/>
        <path id="Trazado_45533" data-name="Trazado 45533" d="M654.894,854.575a22.88,22.88,0,1,1-22.88-22.879A22.877,22.877,0,0,1,654.894,854.575Z" fill="#fec00f"/>
        <g id="Grupo_12549" data-name="Grupo 12549">
          <path id="Trazado_45534" data-name="Trazado 45534" d="M630.4,868.014a11.771,11.771,0,0,1-4.152-1.126,11.269,11.269,0,0,1-3.234-2.328l1-1.541a.984.984,0,0,1,.382-.336.967.967,0,0,1,.507-.136,1.381,1.381,0,0,1,.809.353c.3.246.675.513,1.117.821a11.019,11.019,0,0,0,1.576.9,7.255,7.255,0,0,0,2.191.579l.7-10.014c-.873-.265-1.745-.558-2.588-.9a8.783,8.783,0,0,1-2.291-1.3,6.046,6.046,0,0,1-1.616-2.027,6.8,6.8,0,0,1-.614-3.058,7.086,7.086,0,0,1,2.105-5.025,7.921,7.921,0,0,1,2.536-1.67,8.684,8.684,0,0,1,3.47-.658l.183-2.749a1.134,1.134,0,0,1,.283-.638.828.828,0,0,1,.661-.281h1.242l-.257,3.728a9.666,9.666,0,0,1,3.41,1.019,11.7,11.7,0,0,1,2.563,1.866l-.811,1.242a1.048,1.048,0,0,1-.87.566,1.324,1.324,0,0,1-.648-.236c-.255-.153-.569-.341-.939-.547s-.782-.41-1.254-.619a6.5,6.5,0,0,0-1.641-.443l-.625,9.125c.9.279,1.793.583,2.677.906a9.509,9.509,0,0,1,2.374,1.272A5.63,5.63,0,0,1,641,859.608a8.978,8.978,0,0,1-.565,3.2,7.779,7.779,0,0,1-1.646,2.63,8.453,8.453,0,0,1-2.659,1.844,8.675,8.675,0,0,1-3.6.712l-.222,3.373a1.031,1.031,0,0,1-.295.635.856.856,0,0,1-.647.27h-1.25Zm-3.048-20.421a3.6,3.6,0,0,0,.32,1.573,3.7,3.7,0,0,0,.885,1.179,6.188,6.188,0,0,0,1.319.892,15.333,15.333,0,0,0,1.637.68l.574-8.509a7.258,7.258,0,0,0-2.127.49,4.885,4.885,0,0,0-1.473.943,3.716,3.716,0,0,0-.852,1.273A3.93,3.93,0,0,0,627.355,847.593Zm10.464,12.523a3.482,3.482,0,0,0-.352-1.623,3.609,3.609,0,0,0-.949-1.168,6.106,6.106,0,0,0-1.419-.849,18.219,18.219,0,0,0-1.73-.666l-.639,9.393a6.716,6.716,0,0,0,2.174-.542,5.052,5.052,0,0,0,1.6-1.08,4.272,4.272,0,0,0,.978-1.533A5.326,5.326,0,0,0,637.819,860.116Z" fill="#f99b1c"/>
        </g>
      </g>
      <g id="Grupo_12551" data-name="Grupo 12551">
        <path id="Trazado_45535" data-name="Trazado 45535" d="M702.453,834.988a4.274,4.274,0,1,1,4.275-4.274,4.278,4.278,0,0,1-4.275,4.274Z" fill="#f99b1c"/>
      </g>
      <g id="Grupo_12552" data-name="Grupo 12552">
        <path id="Trazado_45536" data-name="Trazado 45536" d="M528.3,850.784a4.275,4.275,0,1,1,4.276-4.274,4.279,4.279,0,0,1-4.276,4.274Z" fill="#f99b1c"/>
      </g>
      <g id="Grupo_12553" data-name="Grupo 12553">
        <path id="Trazado_45537" data-name="Trazado 45537" d="M566.415,918.148a4.275,4.275,0,1,1,4.274-4.274,4.279,4.279,0,0,1-4.274,4.274Z" fill="#f99b1c"/>
      </g>
      <g id="Grupo_12554" data-name="Grupo 12554">
        <path id="Trazado_45538" data-name="Trazado 45538" d="M586.429,812.394a4.275,4.275,0,1,1,4.272-4.275,4.281,4.281,0,0,1-4.272,4.275Z" fill="#f99b1c"/>
      </g>
      <g id="Grupo_12555" data-name="Grupo 12555">
        <path id="Trazado_45539" data-name="Trazado 45539" d="M614.519,814.226a4.275,4.275,0,1,1,4.274-4.275,4.28,4.28,0,0,1-4.274,4.275Z" fill="#f99b1c"/>
      </g>
      <g id="Grupo_12566" data-name="Grupo 12566">
        <g id="Grupo_12556" data-name="Grupo 12556">
          <rect id="Rectángulo_3562" data-name="Rectángulo 3562" width="15.672" height="2.001" transform="matrix(0.767, -0.641, 0.641, 0.767, 599.83, 884.905)" fill="#f7991c"/>
        </g>
        <g id="Grupo_12557" data-name="Grupo 12557">
          <rect id="Rectángulo_3563" data-name="Rectángulo 3563" width="2.001" height="23.069" transform="matrix(0.513, -0.858, 0.858, 0.513, 558.435, 878.136)" fill="#f7991c"/>
        </g>
        <g id="Grupo_12558" data-name="Grupo 12558">
          <rect id="Rectángulo_3564" data-name="Rectángulo 3564" width="2" height="27.549" transform="translate(579.982 836.743) rotate(-70.23)" fill="#f7991c"/>
        </g>
        <g id="Grupo_12559" data-name="Grupo 12559">
          <rect id="Rectángulo_3565" data-name="Rectángulo 3565" width="18.193" height="2" transform="translate(653.361 833.822) rotate(-40.485)" fill="#f7991c"/>
        </g>
        <g id="Grupo_12560" data-name="Grupo 12560">
          <rect id="Rectángulo_3566" data-name="Rectángulo 3566" width="2.001" height="18.626" transform="translate(657.688 865.072) rotate(-72.132)" fill="#f7991c"/>
        </g>
        <g id="Grupo_12561" data-name="Grupo 12561">
          <rect id="Rectángulo_3567" data-name="Rectángulo 3567" width="14.589" height="2" transform="translate(568.272 910.361) rotate(-40.643)" fill="#f7991c"/>
        </g>
        <g id="Grupo_12562" data-name="Grupo 12562">
          <rect id="Rectángulo_3568" data-name="Rectángulo 3568" width="14.707" height="1.999" transform="translate(572.654 821.297) rotate(-48.368)" fill="#f7991c"/>
        </g>
        <g id="Grupo_12563" data-name="Grupo 12563">
          <rect id="Rectángulo_3569" data-name="Rectángulo 3569" width="34.963" height="2" transform="translate(579.451 828.406) rotate(-27.767)" fill="#f7991c"/>
        </g>
        <g id="Grupo_12564" data-name="Grupo 12564">
          <rect id="Rectángulo_3570" data-name="Rectángulo 3570" width="2" height="14.45" transform="matrix(0.606, -0.796, 0.796, 0.606, 688.39, 820.666)" fill="#f7991c"/>
        </g>
        <g id="Grupo_12565" data-name="Grupo 12565">
          <rect id="Rectángulo_3571" data-name="Rectángulo 3571" width="2" height="13.199" transform="matrix(0.778, -0.628, 0.628, 0.778, 529.871, 850.367)" fill="#f7991c"/>
        </g>
      </g>
      <path id="Trazado_45540" data-name="Trazado 45540" d="M670.582,889.487a5.066,5.066,0,0,0-4.854,3.627,13.1,13.1,0,0,0-2.474-.381v-3.47a5.067,5.067,0,1,0-10.133,0V892.7h-2.437v-8.05a5.065,5.065,0,0,0-10.129,0v8.075a13.309,13.309,0,0,0-2.441.329v-24.06a5.065,5.065,0,0,0-10.13,0V905.28c-.008.188-.029.377-.029.567V918.47l-2.335-2.333V906.021a7.48,7.48,0,0,0-7.478-7.48h-2.491c-.107,0-.207.012-.313.02v9.366l-.049-.008v12.432l16.774,16.412a13.09,13.09,0,0,0,9.047,3.624h21.378a13.158,13.158,0,0,0,13.157-13.161V894.55A5.062,5.062,0,0,0,670.582,889.487Z" fill="#a56649"/>
      <g id="Grupo_12568" data-name="Grupo 12568">
        <path id="Trazado_45541" data-name="Trazado 45541" d="M603,892.676a13.689,13.689,0,1,1-13.689-13.686A13.692,13.692,0,0,1,603,892.676Z" fill="#fec00f"/>
        <path id="Trazado_45542" data-name="Trazado 45542" d="M602.588,892.676a13.272,13.272,0,1,1-13.273-13.269A13.272,13.272,0,0,1,602.588,892.676Z" fill="#f99b1c"/>
        <path id="Trazado_45543" data-name="Trazado 45543" d="M599.765,892.676a10.45,10.45,0,1,1-10.45-10.448A10.447,10.447,0,0,1,599.765,892.676Z" fill="#fec00f"/>
        <g id="Grupo_12567" data-name="Grupo 12567">
          <path id="Trazado_45544" data-name="Trazado 45544" d="M588.581,898.814a5.357,5.357,0,0,1-1.9-.514,5.149,5.149,0,0,1-1.479-1.064l.456-.7a.454.454,0,0,1,.174-.153.463.463,0,0,1,.232-.063.621.621,0,0,1,.368.162c.14.113.31.235.511.375a5.168,5.168,0,0,0,.721.413,3.3,3.3,0,0,0,1,.263l.32-4.572c-.4-.122-.8-.254-1.181-.411a3.926,3.926,0,0,1-1.047-.592,2.728,2.728,0,0,1-.739-.926,3.1,3.1,0,0,1-.28-1.4,3.22,3.22,0,0,1,.961-2.3,3.634,3.634,0,0,1,1.159-.762,3.964,3.964,0,0,1,1.584-.3l.084-1.256a.523.523,0,0,1,.128-.29.38.38,0,0,1,.3-.129h.566l-.116,1.7a4.482,4.482,0,0,1,1.558.466,5.446,5.446,0,0,1,1.17.852l-.371.567a.48.48,0,0,1-.4.259.613.613,0,0,1-.3-.108c-.115-.07-.258-.155-.427-.249a6.028,6.028,0,0,0-.573-.282,2.933,2.933,0,0,0-.75-.2l-.285,4.166c.413.128.818.267,1.224.414a4.354,4.354,0,0,1,1.083.582,2.581,2.581,0,0,1,1.078,2.209,4.111,4.111,0,0,1-.259,1.462,3.594,3.594,0,0,1-.751,1.2,3.863,3.863,0,0,1-1.216.843,3.953,3.953,0,0,1-1.641.325l-.1,1.54a.475.475,0,0,1-.135.29.385.385,0,0,1-.3.123h-.57Zm-1.393-9.327a1.641,1.641,0,0,0,.146.72,1.668,1.668,0,0,0,.405.536,2.785,2.785,0,0,0,.6.409,6.577,6.577,0,0,0,.748.31l.262-3.886a3.36,3.36,0,0,0-.971.223,2.246,2.246,0,0,0-.672.431,1.671,1.671,0,0,0-.39.583A1.788,1.788,0,0,0,587.188,889.487Zm4.78,5.719a1.582,1.582,0,0,0-.162-.741,1.673,1.673,0,0,0-.433-.533,2.8,2.8,0,0,0-.65-.388,7.856,7.856,0,0,0-.788-.3l-.292,4.288a3.061,3.061,0,0,0,.992-.246,2.3,2.3,0,0,0,.731-.493,1.97,1.97,0,0,0,.448-.7A2.441,2.441,0,0,0,591.968,895.206Z" fill="#f99b1c"/>
        </g>
      </g>
      <g id="Grupo_12570" data-name="Grupo 12570">
        <path id="Trazado_45545" data-name="Trazado 45545" d="M702.254,873.176a13.689,13.689,0,1,1-13.689-13.686A13.692,13.692,0,0,1,702.254,873.176Z" fill="#fec00f"/>
        <path id="Trazado_45546" data-name="Trazado 45546" d="M701.838,873.176a13.272,13.272,0,1,1-13.273-13.269A13.272,13.272,0,0,1,701.838,873.176Z" fill="#f99b1c"/>
        <path id="Trazado_45547" data-name="Trazado 45547" d="M699.015,873.176a10.45,10.45,0,1,1-10.45-10.448A10.447,10.447,0,0,1,699.015,873.176Z" fill="#fec00f"/>
        <g id="Grupo_12569" data-name="Grupo 12569">
          <path id="Trazado_45548" data-name="Trazado 45548" d="M687.831,879.314a5.357,5.357,0,0,1-1.9-.514,5.164,5.164,0,0,1-1.479-1.064l.456-.7a.454.454,0,0,1,.174-.153.463.463,0,0,1,.232-.063.626.626,0,0,1,.369.162c.139.113.309.235.51.375a5.168,5.168,0,0,0,.721.413,3.3,3.3,0,0,0,1,.263l.319-4.572c-.4-.122-.8-.254-1.181-.411a3.936,3.936,0,0,1-1.046-.592,2.74,2.74,0,0,1-.739-.926,3.1,3.1,0,0,1-.28-1.4,3.226,3.226,0,0,1,.962-2.3,3.617,3.617,0,0,1,1.158-.762,3.964,3.964,0,0,1,1.584-.3l.084-1.256a.523.523,0,0,1,.128-.29.38.38,0,0,1,.3-.129h.566l-.116,1.7a4.482,4.482,0,0,1,1.558.466,5.442,5.442,0,0,1,1.169.852l-.37.567a.48.48,0,0,1-.4.259.613.613,0,0,1-.3-.108c-.115-.07-.258-.155-.427-.249a6.154,6.154,0,0,0-.573-.282,2.921,2.921,0,0,0-.75-.2l-.285,4.166c.413.128.818.267,1.224.414a4.354,4.354,0,0,1,1.083.582,2.575,2.575,0,0,1,1.078,2.209,4.111,4.111,0,0,1-.259,1.462,3.578,3.578,0,0,1-.751,1.2,3.863,3.863,0,0,1-1.216.843,3.953,3.953,0,0,1-1.641.325l-.1,1.54a.475.475,0,0,1-.135.29.386.386,0,0,1-.3.123h-.57Zm-1.392-9.327a1.655,1.655,0,0,0,.145.72,1.679,1.679,0,0,0,.4.536,2.818,2.818,0,0,0,.6.409,6.577,6.577,0,0,0,.748.31l.262-3.886a3.36,3.36,0,0,0-.971.223,2.246,2.246,0,0,0-.672.431,1.671,1.671,0,0,0-.39.583A1.788,1.788,0,0,0,686.439,869.987Zm4.779,5.719a1.57,1.57,0,0,0-.163-.741,1.656,1.656,0,0,0-.432-.533,2.775,2.775,0,0,0-.65-.388,7.856,7.856,0,0,0-.788-.3l-.292,4.288a3.073,3.073,0,0,0,.993-.246,2.306,2.306,0,0,0,.73-.493,1.97,1.97,0,0,0,.448-.7A2.441,2.441,0,0,0,691.218,875.706Z" fill="#f99b1c"/>
        </g>
      </g>
      <g id="Grupo_12572" data-name="Grupo 12572">
        <path id="Trazado_45549" data-name="Trazado 45549" d="M581.254,833.676a13.689,13.689,0,1,1-13.689-13.686A13.692,13.692,0,0,1,581.254,833.676Z" fill="#fec00f"/>
        <path id="Trazado_45550" data-name="Trazado 45550" d="M580.838,833.676a13.272,13.272,0,1,1-13.273-13.269A13.272,13.272,0,0,1,580.838,833.676Z" fill="#f99b1c"/>
        <path id="Trazado_45551" data-name="Trazado 45551" d="M578.015,833.676a10.45,10.45,0,1,1-10.45-10.448A10.447,10.447,0,0,1,578.015,833.676Z" fill="#fec00f"/>
        <g id="Grupo_12571" data-name="Grupo 12571">
          <path id="Trazado_45552" data-name="Trazado 45552" d="M566.831,839.814a5.357,5.357,0,0,1-1.9-.514,5.164,5.164,0,0,1-1.479-1.064l.456-.7a.454.454,0,0,1,.174-.153.463.463,0,0,1,.232-.063.626.626,0,0,1,.369.162c.139.113.309.235.51.375a5.168,5.168,0,0,0,.721.413,3.3,3.3,0,0,0,1,.263l.319-4.572c-.4-.122-.8-.254-1.181-.411a3.936,3.936,0,0,1-1.046-.592,2.74,2.74,0,0,1-.739-.926,3.1,3.1,0,0,1-.28-1.4,3.226,3.226,0,0,1,.962-2.3,3.617,3.617,0,0,1,1.158-.762,3.964,3.964,0,0,1,1.584-.3l.084-1.256a.523.523,0,0,1,.128-.29.38.38,0,0,1,.3-.129h.566l-.116,1.7a4.482,4.482,0,0,1,1.558.466,5.442,5.442,0,0,1,1.169.852l-.37.567a.48.48,0,0,1-.4.259.613.613,0,0,1-.3-.108c-.115-.07-.258-.155-.427-.249a6.154,6.154,0,0,0-.573-.282,2.921,2.921,0,0,0-.75-.2l-.285,4.166c.413.128.818.267,1.224.414a4.354,4.354,0,0,1,1.083.582,2.575,2.575,0,0,1,1.078,2.209,4.111,4.111,0,0,1-.259,1.462,3.578,3.578,0,0,1-.751,1.2,3.863,3.863,0,0,1-1.216.843,3.953,3.953,0,0,1-1.641.325l-.1,1.54a.475.475,0,0,1-.135.29.386.386,0,0,1-.3.123h-.57Zm-1.392-9.327a1.655,1.655,0,0,0,.145.72,1.679,1.679,0,0,0,.4.536,2.818,2.818,0,0,0,.6.409,6.577,6.577,0,0,0,.748.31l.262-3.886a3.36,3.36,0,0,0-.971.223,2.246,2.246,0,0,0-.672.431,1.671,1.671,0,0,0-.39.583A1.788,1.788,0,0,0,565.439,830.487Zm4.779,5.719a1.57,1.57,0,0,0-.163-.741,1.656,1.656,0,0,0-.432-.533,2.775,2.775,0,0,0-.65-.388,7.856,7.856,0,0,0-.788-.3l-.292,4.288a3.073,3.073,0,0,0,.993-.246,2.306,2.306,0,0,0,.73-.493,1.97,1.97,0,0,0,.448-.7A2.441,2.441,0,0,0,570.218,836.206Z" fill="#f99b1c"/>
        </g>
      </g>
      <g id="Grupo_12574" data-name="Grupo 12574">
        <path id="Trazado_45553" data-name="Trazado 45553" d="M561.261,870.589A13.688,13.688,0,1,1,547.572,856.9,13.691,13.691,0,0,1,561.261,870.589Z" fill="#fec00f"/>
        <path id="Trazado_45554" data-name="Trazado 45554" d="M560.845,870.589a13.271,13.271,0,1,1-13.273-13.269A13.272,13.272,0,0,1,560.845,870.589Z" fill="#f99b1c"/>
        <path id="Trazado_45555" data-name="Trazado 45555" d="M558.022,870.589a10.449,10.449,0,1,1-10.45-10.448A10.447,10.447,0,0,1,558.022,870.589Z" fill="#fec00f"/>
        <g id="Grupo_12573" data-name="Grupo 12573">
          <path id="Trazado_45556" data-name="Trazado 45556" d="M546.84,876.727a5.367,5.367,0,0,1-1.9-.514,5.17,5.17,0,0,1-1.477-1.064l.455-.7a.446.446,0,0,1,.174-.153.463.463,0,0,1,.232-.063.624.624,0,0,1,.369.163c.139.112.31.234.51.374a5.112,5.112,0,0,0,.721.413,3.271,3.271,0,0,0,1,.263l.32-4.572c-.4-.122-.8-.254-1.181-.411a3.908,3.908,0,0,1-1.047-.592,2.753,2.753,0,0,1-.739-.926,3.1,3.1,0,0,1-.28-1.395,3.226,3.226,0,0,1,.962-2.3,3.613,3.613,0,0,1,1.158-.762,3.955,3.955,0,0,1,1.583-.3l.084-1.257a.526.526,0,0,1,.13-.29.374.374,0,0,1,.3-.129h.566l-.116,1.7a4.49,4.49,0,0,1,1.558.466,5.418,5.418,0,0,1,1.169.852l-.372.568a.477.477,0,0,1-.394.258.61.61,0,0,1-.3-.108c-.116-.07-.26-.155-.429-.249a6.011,6.011,0,0,0-.572-.282,2.952,2.952,0,0,0-.749-.2l-.286,4.166c.412.128.819.267,1.224.414a4.386,4.386,0,0,1,1.083.582,2.655,2.655,0,0,1,.779.887,2.628,2.628,0,0,1,.3,1.322,4.138,4.138,0,0,1-.258,1.463,3.6,3.6,0,0,1-.752,1.2,3.846,3.846,0,0,1-1.217.844,3.96,3.96,0,0,1-1.64.324l-.1,1.54a.48.48,0,0,1-.135.29.386.386,0,0,1-.3.123h-.57Zm-1.394-9.327a1.586,1.586,0,0,0,.551,1.256,2.768,2.768,0,0,0,.6.409,6.75,6.75,0,0,0,.748.31l.262-3.886a3.352,3.352,0,0,0-.97.223,2.23,2.23,0,0,0-.672.432,1.667,1.667,0,0,0-.39.582A1.772,1.772,0,0,0,545.446,867.4Zm4.78,5.719a1.6,1.6,0,0,0-.162-.741,1.7,1.7,0,0,0-.433-.533,2.8,2.8,0,0,0-.65-.388,8.236,8.236,0,0,0-.789-.3l-.292,4.288a3.079,3.079,0,0,0,.994-.246,2.289,2.289,0,0,0,.729-.493,1.933,1.933,0,0,0,.448-.7A2.42,2.42,0,0,0,550.226,873.119Z" fill="#f99b1c"/>
        </g>
      </g>
      <g id="Grupo_12576" data-name="Grupo 12576">
        <path id="Trazado_45557" data-name="Trazado 45557" d="M691.5,813.676a13.689,13.689,0,1,1-13.689-13.686A13.692,13.692,0,0,1,691.5,813.676Z" fill="#fec00f"/>
        <path id="Trazado_45558" data-name="Trazado 45558" d="M691.088,813.676a13.272,13.272,0,1,1-13.273-13.269A13.272,13.272,0,0,1,691.088,813.676Z" fill="#f99b1c"/>
        <path id="Trazado_45559" data-name="Trazado 45559" d="M688.265,813.676a10.45,10.45,0,1,1-10.45-10.448A10.447,10.447,0,0,1,688.265,813.676Z" fill="#fec00f"/>
        <g id="Grupo_12575" data-name="Grupo 12575">
          <path id="Trazado_45560" data-name="Trazado 45560" d="M677.081,819.814a5.357,5.357,0,0,1-1.9-.514,5.149,5.149,0,0,1-1.479-1.064l.456-.7a.454.454,0,0,1,.174-.153.463.463,0,0,1,.232-.063.621.621,0,0,1,.368.162c.14.113.31.235.511.375a5.168,5.168,0,0,0,.721.413,3.3,3.3,0,0,0,1,.263l.32-4.572c-.4-.122-.8-.254-1.181-.411a3.926,3.926,0,0,1-1.047-.592,2.728,2.728,0,0,1-.739-.926,3.1,3.1,0,0,1-.28-1.4,3.22,3.22,0,0,1,.961-2.3,3.634,3.634,0,0,1,1.159-.762,3.964,3.964,0,0,1,1.584-.3l.084-1.256a.523.523,0,0,1,.128-.29.38.38,0,0,1,.3-.129h.566l-.116,1.7a4.482,4.482,0,0,1,1.558.466,5.446,5.446,0,0,1,1.17.852l-.371.567a.48.48,0,0,1-.4.259.613.613,0,0,1-.3-.108c-.115-.07-.258-.155-.427-.249a6.028,6.028,0,0,0-.573-.282,2.933,2.933,0,0,0-.75-.2l-.285,4.166c.413.128.818.267,1.224.414a4.354,4.354,0,0,1,1.083.582,2.581,2.581,0,0,1,1.078,2.209,4.111,4.111,0,0,1-.259,1.462,3.594,3.594,0,0,1-.751,1.2,3.863,3.863,0,0,1-1.216.843,3.953,3.953,0,0,1-1.641.325l-.1,1.54a.475.475,0,0,1-.135.29.385.385,0,0,1-.3.123h-.57Zm-1.393-9.327a1.641,1.641,0,0,0,.146.72,1.668,1.668,0,0,0,.405.536,2.785,2.785,0,0,0,.6.409,6.577,6.577,0,0,0,.748.31l.262-3.886a3.36,3.36,0,0,0-.971.223,2.246,2.246,0,0,0-.672.431,1.671,1.671,0,0,0-.39.583A1.788,1.788,0,0,0,675.688,810.487Zm4.78,5.719a1.582,1.582,0,0,0-.162-.741,1.673,1.673,0,0,0-.433-.533,2.8,2.8,0,0,0-.65-.388,7.856,7.856,0,0,0-.788-.3l-.292,4.288a3.061,3.061,0,0,0,.992-.246,2.3,2.3,0,0,0,.731-.493,1.97,1.97,0,0,0,.448-.7A2.441,2.441,0,0,0,680.468,816.206Z" fill="#f99b1c"/>
        </g>
      </g>
    </g>
  </g>
</svg>
