<svg xmlns="http://www.w3.org/2000/svg" width="138.984" height="119.594" viewBox="0 0 138.984 119.594">
  <g id="Grupo_17573" data-name="Grupo 17573" transform="translate(-307.063 -316.755)">
    <g id="Grupo_17530" data-name="Grupo 17530">
      <g id="Grupo_17528" data-name="Grupo 17528">
        <path id="Trazado_45603" data-name="Trazado 45603" d="M307.063,329.4v105.65h27.029v-117H307.063Zm3.137,3.136h20.756v8.938H310.2Zm0,78.845h20.756v8.938H310.2Z" fill="#38b4c1"/>
      </g>
      <g id="Grupo_17529" data-name="Grupo 17529">
        <path id="Trazado_45604" data-name="Trazado 45604" d="M372.679,325.1V435.054h27.03V325.1Zm3.137,13.787h20.756v8.191H375.816Zm0,73.964h20.756v8.191H375.816Z" fill="#38b4c1"/>
      </g>
    </g>
    <g id="Grupo_17532" data-name="Grupo 17532">
      <g id="Grupo_17531" data-name="Grupo 17531">
        <rect id="Rectángulo_4393" data-name="Rectángulo 4393" width="23.893" height="113.868" transform="matrix(0.991, -0.136, 0.136, 0.991, 405.117, 321.773)" fill="#ffdc7b"/>
      </g>
    </g>
    <g id="Grupo_17534" data-name="Grupo 17534">
      <g id="Grupo_17533" data-name="Grupo 17533">
        <path id="Trazado_45605" data-name="Trazado 45605" d="M425.394,423.322l-14-101.949-6.277.862,15.492,112.809,23.671-3.251-.857-6.238-12.771,1.754A4.666,4.666,0,0,1,425.394,423.322Z" fill="#edc45f"/>
      </g>
    </g>
    <g id="Grupo_17536" data-name="Grupo 17536">
      <g id="Grupo_17535" data-name="Grupo 17535">
        <rect id="Rectángulo_4394" data-name="Rectángulo 4394" width="27.452" height="90.103" transform="translate(339.66 343.383)" fill="#ffdc7b"/>
      </g>
    </g>
    <g id="Grupo_17538" data-name="Grupo 17538">
      <g id="Grupo_17537" data-name="Grupo 17537">
        <path id="Trazado_45606" data-name="Trazado 45606" d="M348.371,419.105V343.383H339.95v90.1H367.4v-9.342H353.41A5.039,5.039,0,0,1,348.371,419.105Z" fill="#edc45f"/>
      </g>
    </g>
    <g id="Grupo_17540" data-name="Grupo 17540">
      <g id="Grupo_17539" data-name="Grupo 17539">
        <rect id="Rectángulo_4395" data-name="Rectángulo 4395" width="26.872" height="13.469" transform="translate(340.239 354.737)" fill="#fff"/>
      </g>
    </g>
    <g id="Grupo_17542" data-name="Grupo 17542">
      <g id="Grupo_17541" data-name="Grupo 17541">
        <rect id="Rectángulo_4396" data-name="Rectángulo 4396" width="26.872" height="13.468" transform="translate(340.239 409.12)" fill="#fff"/>
      </g>
    </g>
    <g id="Grupo_17544" data-name="Grupo 17544">
      <g id="Grupo_17543" data-name="Grupo 17543">
        <rect id="Rectángulo_4397" data-name="Rectángulo 4397" width="24.559" height="12.309" transform="translate(406.308 332.891) rotate(-7.819)" fill="#fff"/>
      </g>
    </g>
    <g id="Grupo_17546" data-name="Grupo 17546">
      <g id="Grupo_17545" data-name="Grupo 17545">
        <rect id="Rectángulo_4398" data-name="Rectángulo 4398" width="24.559" height="12.309" transform="matrix(0.991, -0.136, 0.136, 0.991, 417.093, 411.427)" fill="#fff"/>
      </g>
    </g>
    <g id="Grupo_17571" data-name="Grupo 17571">
      <g id="Grupo_17548" data-name="Grupo 17548">
        <g id="Grupo_17547" data-name="Grupo 17547">
          <path id="Trazado_45607" data-name="Trazado 45607" d="M334.093,435.054h-27.03v-117h27.03ZM310.2,431.918h20.757V321.187H310.2Z"/>
        </g>
      </g>
      <g id="Grupo_17550" data-name="Grupo 17550">
        <g id="Grupo_17549" data-name="Grupo 17549">
          <path id="Trazado_45608" data-name="Trazado 45608" d="M334.093,344.614h-27.03V329.4h27.03ZM310.2,341.478h20.757V332.54H310.2Z"/>
        </g>
      </g>
      <g id="Grupo_17552" data-name="Grupo 17552">
        <g id="Grupo_17551" data-name="Grupo 17551">
          <path id="Trazado_45609" data-name="Trazado 45609" d="M334.093,423.46h-27.03V408.249h27.03ZM310.2,420.323h20.757v-8.938H310.2Z"/>
        </g>
      </g>
      <g id="Grupo_17554" data-name="Grupo 17554">
        <g id="Grupo_17553" data-name="Grupo 17553">
          <path id="Trazado_45610" data-name="Trazado 45610" d="M419.269,436.349,403.35,320.432l26.779-3.677,15.918,115.916ZM406.885,323.113l15.065,109.7,20.563-2.824-15.065-109.7Z"/>
        </g>
      </g>
      <g id="Grupo_17556" data-name="Grupo 17556">
        <g id="Grupo_17555" data-name="Grupo 17555">
          <path id="Trazado_45611" data-name="Trazado 45611" d="M406.964,346.75l-2.069-15.07L431.673,328l2.07,15.07Zm1.466-12.389,1.215,8.855,20.563-2.824-1.216-8.855Z"/>
        </g>
      </g>
      <g id="Grupo_17558" data-name="Grupo 17558">
        <g id="Grupo_17557" data-name="Grupo 17557">
          <path id="Trazado_45612" data-name="Trazado 45612" d="M417.692,424.862l-2.07-15.07,26.778-3.677,2.07,15.07Zm1.465-12.389,1.215,8.855,20.563-2.824-1.216-8.855Z"/>
        </g>
      </g>
      <g id="Grupo_17560" data-name="Grupo 17560">
        <g id="Grupo_17559" data-name="Grupo 17559">
          <path id="Trazado_45613" data-name="Trazado 45613" d="M399.709,435.054h-27.03V325.1h27.03Zm-23.893-3.136h20.756V328.235H375.816Z"/>
        </g>
      </g>
      <g id="Grupo_17562" data-name="Grupo 17562">
        <g id="Grupo_17561" data-name="Grupo 17561">
          <path id="Trazado_45614" data-name="Trazado 45614" d="M399.709,350.213h-27.03V335.749h27.03Zm-23.893-3.136h20.756v-8.191H375.816Z"/>
        </g>
      </g>
      <g id="Grupo_17564" data-name="Grupo 17564">
        <g id="Grupo_17563" data-name="Grupo 17563">
          <path id="Trazado_45615" data-name="Trazado 45615" d="M399.709,424.177h-27.03V409.714h27.03Zm-23.893-3.136h20.756V412.85H375.816Z"/>
        </g>
      </g>
      <g id="Grupo_17566" data-name="Grupo 17566">
        <g id="Grupo_17565" data-name="Grupo 17565">
          <path id="Trazado_45616" data-name="Trazado 45616" d="M368.68,435.054H338.092V341.815H368.68Zm-27.452-3.136h24.316V344.951H341.228Z"/>
        </g>
      </g>
      <g id="Grupo_17568" data-name="Grupo 17568">
        <g id="Grupo_17567" data-name="Grupo 17567">
          <path id="Trazado_45617" data-name="Trazado 45617" d="M368.68,368.38H338.092V353.169H368.68Zm-27.452-3.136h24.316V356.3H341.228Z"/>
        </g>
      </g>
      <g id="Grupo_17570" data-name="Grupo 17570">
        <g id="Grupo_17569" data-name="Grupo 17569">
          <path id="Trazado_45618" data-name="Trazado 45618" d="M368.68,423.46H338.092V408.249H368.68Zm-27.452-3.137h24.316v-8.938H341.228Z"/>
        </g>
      </g>
    </g>
  </g>
</svg>
