<svg xmlns="http://www.w3.org/2000/svg" width="153.475" height="197.697" viewBox="0 0 153.475 197.697">
  <g id="Grupo_20149" data-name="Grupo 20149" transform="translate(-245.796 -386.436)">
    <g id="Grupo_20146" data-name="Grupo 20146" transform="translate(255.13 395.903)">
      <path id="Trazado_51265" data-name="Trazado 51265" d="M256.807,530.135a9.825,9.825,0,0,0,19.65,0V465.244h-19.65Z" transform="translate(-250.447 -356.162)" fill="#ffcb2b" stroke="#11223e" stroke-linecap="round" stroke-linejoin="round" stroke-width="4"/>
      <g id="Grupo_20144" data-name="Grupo 20144" transform="translate(20.802)">
        <circle id="Elipse_1142" data-name="Elipse 1142" cx="18.427" cy="18.427" r="18.427" fill="#fff" stroke="#11223d" stroke-linecap="round" stroke-linejoin="round" stroke-width="4.077"/>
      </g>
      <path id="Trazado_51266" data-name="Trazado 51266" d="M276.129,429.71a53.855,53.855,0,0,0,10.5,11.55c7.538,6.4,16.17,10.7,25.272,14,1.231.441,2.477.836,3.708,1.307a7.188,7.188,0,0,1,4.711,8.374,5.942,5.942,0,0,1-8.176,4.027c-5.927-2.249-11.884-4.5-17.6-7.31a76.478,76.478,0,0,1-22.8-17.005" transform="translate(-242.68 -374.629)" fill="#ffcb2b" stroke="#11223e" stroke-linecap="round" stroke-linejoin="round" stroke-width="4"/>
      <g id="Grupo_20145" data-name="Grupo 20145" transform="translate(0 34.814)">
        <path id="Trazado_51267" data-name="Trazado 51267" d="M281.694,451.579a61.82,61.82,0,0,0-.578,8.434,66.655,66.655,0,0,0,2.006,16.124,14.229,14.229,0,0,1-4.5,14.209v.289h-19.65v-1.246a13.978,13.978,0,0,1-3.5-6.383,94.323,94.323,0,0,1-2.857-22.993,86.939,86.939,0,0,1,3.784-25.668,72.551,72.551,0,0,1,2.72-7.386c.79-1.793,1.383-2.9,1.58-3.252a14.244,14.244,0,0,1,25.364,12.933Z" transform="translate(-252.622 -416.374)" fill="#ffcb2b" stroke="#11223e" stroke-linecap="round" stroke-linejoin="round" stroke-width="4"/>
      </g>
    </g>
    <rect id="Rectángulo_5252" data-name="Rectángulo 5252" width="58.052" height="41.762" rx="5.392" transform="translate(247.796 499.831)" fill="#3181b2" stroke="#11223e" stroke-linecap="round" stroke-linejoin="round" stroke-width="4"/>
    <path id="Trazado_51268" data-name="Trazado 51268" d="M272.508,435.727a53.867,53.867,0,0,0-2.263,15.445c-.163,9.885,1.991,19.286,5.219,28.414.441,1.231.925,2.445,1.343,3.7a7.187,7.187,0,0,1-3.483,8.954,5.942,5.942,0,0,1-8.3-3.763c-2.023-6.009-4.064-12.039-5.516-18.239a76.463,76.463,0,0,1-1.322-28.409" transform="translate(5.004 24.401)" fill="#ffcb2b" stroke="#11223e" stroke-linecap="round" stroke-linejoin="round" stroke-width="4"/>
    <circle id="Elipse_1143" data-name="Elipse 1143" cx="18.427" cy="18.427" r="18.427" transform="translate(354.671 394.655) rotate(-9.182)" fill="#fff" stroke="#11223d" stroke-linecap="round" stroke-linejoin="round" stroke-width="4.077"/>
    <g id="q1F8vN" transform="translate(318.603 431.836)">
      <g id="Grupo_20148" data-name="Grupo 20148">
        <g id="Grupo_20147" data-name="Grupo 20147">
          <path id="Trazado_51269" data-name="Trazado 51269" d="M370.439,431.35v53.265a14.152,14.152,0,0,1-4.407,10.288V557.59a9.832,9.832,0,0,1-19.665,0V494.918a14.2,14.2,0,0,1-4.422-10.3V454.327a66.574,66.574,0,0,1-22.2,16.382,178.905,178.905,0,0,1-16.929,6.459,6.232,6.232,0,0,1-8.146-4.255,6.518,6.518,0,0,1,4.3-8.039c1.17-.41,2.386-.729,3.571-1.125,8.784-2.872,17.051-6.747,24.178-12.7,6.288-5.257,10.106-12.22,13.635-19.476,3.448-7.1,6.656-14.458,15.847-14.458A14.23,14.23,0,0,1,370.439,431.35Z" transform="translate(-294.389 -417.11)" fill="#a9cdee" stroke="#11223e" stroke-linecap="round" stroke-linejoin="round" stroke-width="4"/>
        </g>
      </g>
    </g>
    <path id="Trazado_51270" data-name="Trazado 51270" d="M325.682,445.558s6.117-7.241,9.644-11.574" transform="translate(40.477 23.495)" fill="#a9cdee" stroke="#11223e" stroke-linecap="round" stroke-linejoin="round" stroke-width="4"/>
  </g>
</svg>
