<svg xmlns="http://www.w3.org/2000/svg" width="112" height="123.056" viewBox="0 0 112 123.056">
  <g id="Grupo_20221" data-name="Grupo 20221" transform="translate(-2027.881 -1513.599)">
    <g id="Grupo_20216" data-name="Grupo 20216" transform="translate(2027.881 1513.599)">
      <path id="Trazado_51357" data-name="Trazado 51357" d="M2090.634,1630.77l-5.377-39.658,40.57-27.51,46.14,30.871-5.377,38.314-42.125,30.443" transform="translate(-2069.618 -1549.972)" fill="#c7ddeb"/>
      <path id="Trazado_51358" data-name="Trazado 51358" d="M2083.881,1636.655l-56-30.621v-61.391l55.588-31.044,56.412,31.037v61.4Zm-52.558-32.662,52.558,28.739,52.558-28.739v-57.322l-52.958-29.136-52.158,29.129Z" transform="translate(-2027.881 -1513.599)" fill="#3d4451"/>
      <path id="Trazado_51359" data-name="Trazado 51359" d="M2108.12,1529.81l22.858,44.115,30.473,42.547-52.991.807-46.748-4.726,19.525-40.982,27.3-41.762" transform="translate(-2052.491 -1525.391)" fill="#67aeba"/>
      <path id="Trazado_51360" data-name="Trazado 51360" d="M2087.731,1719.277h-2.016v-60.455l-52.822-27.888.937-1.786,53.645,27.964,54.161-27.966.925,1.792-54.83,28.311Z" transform="translate(-2031.527 -1597.651)" fill="#3d4451"/>
      <g id="Grupo_20215" data-name="Grupo 20215" transform="translate(11.606 4.419)">
        <path id="Trazado_51361" data-name="Trazado 51361" d="M2352.769,1791.438l-.994,7.084-11.944,8.631,23.932-.365Z" transform="translate(-2266.409 -1720.126)" fill="#9cd2db"/>
        <path id="Trazado_51362" data-name="Trazado 51362" d="M2232.391,1529.81h-.419l.185.357Z" transform="translate(-2187.949 -1529.81)" fill="#9cd2db"/>
        <path id="Trazado_51363" data-name="Trazado 51363" d="M2079.87,1774.9l-1.785-13.162-7.626,17.2,16.32,2.6Z" transform="translate(-2070.46 -1698.523)" fill="#9cd2db"/>
        <path id="Trazado_51364" data-name="Trazado 51364" d="M2204.461,1539.974l6.417,4.293-6.812-13.146-10.711,16.384Z" transform="translate(-2159.858 -1530.763)" fill="#9cd2db"/>
      </g>
    </g>
    <path id="Trazado_51365" data-name="Trazado 51365" d="M2140.4,1768.2l-54.678-29.586-52.813,28.91-1.407-2.571,54.212-29.676.7.379,55.379,29.965Z" transform="translate(-2.635 -161.256)" fill="#3d4451"/>
    <rect id="Rectángulo_5270" data-name="Rectángulo 5270" width="2.931" height="58.277" transform="matrix(1, -0.008, 0.008, 1, 2081.881, 1515.596)" fill="#3d4451"/>
    <g id="Grupo_20220" data-name="Grupo 20220" transform="translate(2053.816 1534.331)">
      <g id="Grupo_20217" data-name="Grupo 20217" transform="translate(5.606 60.599)">
        <path id="Rectángulo_5271" data-name="Rectángulo 5271" d="M10.006,0H34.2A10.006,10.006,0,0,1,44.207,10.006v0a0,0,0,0,1,0,0H0a0,0,0,0,1,0,0v0A10.006,10.006,0,0,1,10.006,0Z" transform="translate(1.183 1.183)" fill="#e8eef7"/>
        <path id="Trazado_51366" data-name="Trazado 51366" d="M2190.172,1824.357H2143.6v-6a6.38,6.38,0,0,1,6.373-6.373H2183.8a6.38,6.38,0,0,1,6.373,6.373Zm-44.208-2.366h41.841v-3.633a4.011,4.011,0,0,0-4.006-4.006h-33.828a4.011,4.011,0,0,0-4.007,4.006Z" transform="translate(-2143.598 -1811.985)" fill="#3d4451"/>
      </g>
      <g id="Grupo_20218" data-name="Grupo 20218" transform="translate(9.957 52.495)">
        <path id="Rectángulo_5272" data-name="Rectángulo 5272" d="M6.569,0H28.35a6.569,6.569,0,0,1,6.569,6.569v0a0,0,0,0,1,0,0H0a0,0,0,0,1,0,0v0A6.569,6.569,0,0,1,6.569,0Z" transform="translate(1.183 1.183)" fill="#e8eef7"/>
        <path id="Trazado_51367" data-name="Trazado 51367" d="M2196.85,1791.188h-37.286v-4.015a4.926,4.926,0,0,1,4.92-4.92h27.445a4.926,4.926,0,0,1,4.92,4.92Zm-34.919-2.366h32.553v-1.648a2.557,2.557,0,0,0-2.554-2.554h-27.445a2.557,2.557,0,0,0-2.554,2.554Z" transform="translate(-2159.564 -1782.253)" fill="#3d4451"/>
      </g>
      <g id="Grupo_20219" data-name="Grupo 20219" transform="translate(0 0)">
        <path id="Trazado_51368" data-name="Trazado 51368" d="M2171.8,1645.917H2140.74c0-7.369,10.247-17.251,13.593-20.282.164-.149,1.048-.885.823-.832a22.624,22.624,0,0,1-4.228.237c-5.712-2.61-6.619-1.631-8.047-.653s-2.856,2.936-6.069,3.262c-6.069.326-6.783-3.914-7.14-5.219a1.942,1.942,0,0,1,.357-1.957l-1.235-1.957s13.729-10.765,14.087-11.744,5.712-2.936,5.712-2.936l.714-2.609s5.355,0,4.284-.979c-.8-.729-.407-4.171-.156-5.881a.46.46,0,0,1,.8-.205l5.423,6.413,8.616,6.156S2175.32,1640.788,2171.8,1645.917Z" transform="translate(-2127.224 -1592.818)" fill="#e8eef7"/>
        <path id="Trazado_51369" data-name="Trazado 51369" d="M2168.229,1643.944h-32.865v-1.183c0-6.816,7.725-15.223,12.395-19.682-.548,0-.953-.01-1.06-.013l-.238-.008-.216-.1c-4.813-2.2-5.632-1.627-6.668-.9l-.218.151c-.289.2-.607.468-.944.754a9.783,9.783,0,0,1-5.674,2.71l-.056,0c-6.687.362-7.89-4.319-8.284-5.856-.022-.086-.042-.164-.061-.233a3.361,3.361,0,0,1,.1-2.261l-1.411-2.237.841-.659c5.227-4.1,12.858-10.256,13.757-11.35.21-.47.98-1.485,5.791-3.3l.792-2.894h.9a23.838,23.838,0,0,0,2.806-.16,16.043,16.043,0,0,1,.151-5.688,1.62,1.62,0,0,1,1.162-1.314,1.654,1.654,0,0,1,1.714.516l5.327,6.3,8.872,6.339.094.454c.018.086,1.784,8.655,3.095,17.741,2.708,18.769.854,21.469.244,22.356Zm-30.4-2.366h29.054c.565-1.543,1.128-6.193-.886-20.155-1.129-7.831-2.6-15.279-2.979-17.157l-8.357-5.971-4.45-5.262a8.966,8.966,0,0,0,.045,3.241,1.422,1.422,0,0,1,.376,1.557c-.361.929-1.489,1.194-3.315,1.336-.464.036-.919.057-1.293.07l-.642,2.345-.574.21a23.852,23.852,0,0,0-5.06,2.363c-.206.445-.984,1.355-7.491,6.621-2.424,1.961-4.849,3.881-6.084,4.856l1.262,2-.773.542a.968.968,0,0,0-.04.79c.022.08.045.17.071.27.388,1.513,1.106,4.32,5.836,4.082a7.461,7.461,0,0,0,4.355-2.157,14.318,14.318,0,0,1,1.136-.9l.2-.14c1.767-1.233,3.342-1.86,8.784.592a19.664,19.664,0,0,0,3.688-.212,1.207,1.207,0,0,1,1.358.618c.451.882-.219,1.464-.995,2.137l-.123.107a72.946,72.946,0,0,0-7.918,8.371C2140.018,1635.522,2138.245,1638.895,2137.827,1641.578Zm12.37-45.36h0Z" transform="translate(-2123.032 -1589.661)" fill="#3d4451"/>
      </g>
      <path id="Rectángulo_5273" data-name="Rectángulo 5273" d="M6.727,0H28.4a6.727,6.727,0,0,1,6.727,6.727v0a0,0,0,0,1,0,0H0a0,0,0,0,1,0,0v0A6.727,6.727,0,0,1,6.727,0Z" transform="translate(11.419 64.121)" fill="#3d4451"/>
      <path id="Trazado_51370" data-name="Trazado 51370" d="M2167.632,1642.305c-2.728,2.783-13.033,12.645-13.033,19.413h23.354s2.36-15.123-1.322-28.161c-2.161-7.65-1.918-10.99-5.113-12.427a19.122,19.122,0,0,0-2.639-1.054l-2.049-4.428s-2.17,2.8-1.3,3.7-5.346,1.253-5.346,1.253l-1.144,2.473s-4.364,1.8-4.655,2.7-11.339,9.5-11.339,9.5l.866,3.079a2.8,2.8,0,0,0-.011,1.8c.291,1.2.594,2.648,5.539,2.349,2.618-.3,4.272-3.166,5.437-4.065s5.323.93,9.978,3.326" transform="translate(-2137.594 -1608.565)" fill="#3d4451"/>
      <path id="Rectángulo_5274" data-name="Rectángulo 5274" d="M3.047,0H24.7A3.047,3.047,0,0,1,27.75,3.047v0a0,0,0,0,1,0,0H0a0,0,0,0,1,0,0v0A3.047,3.047,0,0,1,3.047,0Z" transform="translate(14.798 55.922)" fill="#f04f4c"/>
      <path id="Trazado_51371" data-name="Trazado 51371" d="M2200.274,1654.1h8.829l-5.247,2.42a1.36,1.36,0,0,1-1.554-.3Z" transform="translate(-2179.22 -1636.54)" fill="#fdc345"/>
    </g>
  </g>
</svg>
