<svg xmlns="http://www.w3.org/2000/svg" width="618" height="317.043" viewBox="0 0 618 317.043">
  <g id="Grupo_20262" data-name="Grupo 20262" transform="translate(-221.625 -264.54)">
    <path id="Trazado_51375" data-name="Trazado 51375" d="M691.193,328.9a148.712,148.712,0,0,0-40.419,5.568A180.641,180.641,0,0,0,331.829,405.4a35.6,35.6,0,0,0-42.2,41.944,90.687,90.687,0,0,0-55.217,134.243H796.851A148.429,148.429,0,0,0,691.193,328.9Z" fill="#e6e6e6"/>
    <path id="Trazado_51376" data-name="Trazado 51376" d="M755.167,378.195c-8.732-6.913-20.494-10.206-27.106-19.169-10.008-13.567-3.606-32.9-7.732-49.251a46.041,46.041,0,0,0-11.436-20.007,75.494,75.494,0,1,1,65.247,135.858,90.733,90.733,0,0,0-2.049-18.491C769.573,396.023,764.1,385.267,755.167,378.195Z" transform="translate(-391.876 -12.605)" fill="#4d546e"/>
    <path id="Trazado_51377" data-name="Trazado 51377" d="M1051.209,960.207l30.974,31.6-23.47-36.718Z" transform="translate(-667.175 -555.362)" fill="#4d546e"/>
    <g id="Grupo_20223" data-name="Grupo 20223" transform="translate(688.634 424.11)">
      <path id="Trazado_51378" data-name="Trazado 51378" d="M2693.382,1133.3c2.117,5.653,7.92,8.706,7.92,8.706s2.371-6.113.254-11.767-7.92-8.706-7.92-8.706S2691.264,1127.646,2693.382,1133.3Z" transform="translate(-2675.786 -1113.328)" fill="#ccc"/>
      <path id="Trazado_51379" data-name="Trazado 51379" d="M2619.664,1254.448c3.025,5.224,9.254,7.272,9.254,7.272s1.324-6.422-1.7-11.646-9.254-7.272-9.254-7.272S2616.639,1249.224,2619.664,1254.448Z" transform="translate(-2615.607 -1210.856)" fill="#ccc"/>
      <path id="Trazado_51380" data-name="Trazado 51380" d="M2803.263,1084.032c-4.36,4.176-4.875,10.712-4.875,10.712s6.553-.233,10.913-4.409,4.875-10.712,4.875-10.712S2807.623,1079.856,2803.263,1084.032Z" transform="translate(-2760.942 -1079.623)" fill="#ccc"/>
      <path id="Trazado_51381" data-name="Trazado 51381" d="M2747.194,1206.972c-6.034-.191-11.063,4.016-11.063,4.016s4.753,4.517,10.787,4.708,11.063-4.016,11.063-4.016S2753.228,1207.163,2747.194,1206.972Z" transform="translate(-2710.873 -1182.036)" fill="#ccc"/>
      <path id="Trazado_51382" data-name="Trazado 51382" d="M2686.46,1318.206c-6.034-.191-11.063,4.016-11.063,4.016s4.753,4.517,10.787,4.708,11.063-4.016,11.063-4.016S2692.494,1318.4,2686.46,1318.206Z" transform="translate(-2662.029 -1271.493)" fill="#ccc"/>
      <g id="Grupo_20222" data-name="Grupo 20222" transform="translate(0 11.487)">
        <path id="Trazado_51383" data-name="Trazado 51383" d="M2607.114,1224.76l1.225.1a166.706,166.706,0,0,1,6.813-32.022,141.784,141.784,0,0,1,12.094-28.08,92.205,92.205,0,0,1,21.028-25.515l-.781-.95a93.426,93.426,0,0,0-21.321,25.866,143.038,143.038,0,0,0-12.2,28.336A167.959,167.959,0,0,0,2607.114,1224.76Z" transform="translate(-2607.114 -1138.298)" fill="#ccc"/>
      </g>
    </g>
    <g id="Grupo_20225" data-name="Grupo 20225" transform="translate(711.487 459.608)">
      <path id="Trazado_51384" data-name="Trazado 51384" d="M2915.92,1269.215c-.32,4.694,2.813,8.731,2.813,8.731s3.653-3.574,3.973-8.268-2.814-8.73-2.814-8.73S2916.24,1264.522,2915.92,1269.215Z" transform="translate(-2878.299 -1260.948)" fill="#ccc"/>
      <path id="Trazado_51385" data-name="Trazado 51385" d="M2827.853,1330.3c.462,4.682,4.222,8.143,4.222,8.143s3.01-4.13,2.547-8.812-4.222-8.143-4.222-8.143S2827.39,1325.615,2827.853,1330.3Z" transform="translate(-2807.452 -1309.634)" fill="#ccc"/>
      <path id="Trazado_51386" data-name="Trazado 51386" d="M3002.858,1285c-4.439,1.557-6.912,6.029-6.912,6.029s4.725,1.947,9.164.389,6.913-6.03,6.913-6.03S3007.3,1283.445,3002.858,1285Z" transform="translate(-2942.677 -1279.808)" fill="#ccc"/>
      <path id="Trazado_51387" data-name="Trazado 51387" d="M2938.142,1347.257c-4.22-2.08-9.145-.717-9.145-.717s1.917,4.737,6.137,6.818,9.145.716,9.145.716S2942.362,1349.338,2938.142,1347.257Z" transform="translate(-2888.834 -1329.431)" fill="#ccc"/>
      <path id="Trazado_51388" data-name="Trazado 51388" d="M2859.192,1406.607c-4.22-2.08-9.145-.717-9.145-.717s1.917,4.737,6.136,6.818,9.145.717,9.145.717S2863.412,1408.688,2859.192,1406.607Z" transform="translate(-2825.341 -1377.162)" fill="#ccc"/>
      <g id="Grupo_20224" data-name="Grupo 20224" transform="translate(0 9.591)">
        <path id="Trazado_51389" data-name="Trazado 51389" d="M2723.846,1358.274l.836.469a129.922,129.922,0,0,1,15.156-20.525,110.491,110.491,0,0,1,17.633-16.026,71.859,71.859,0,0,1,23.145-11.326l-.248-.925a72.814,72.814,0,0,0-23.467,11.481,111.482,111.482,0,0,0-17.792,16.173A130.875,130.875,0,0,0,2723.846,1358.274Z" transform="translate(-2723.846 -1309.94)" fill="#ccc"/>
      </g>
    </g>
    <g id="Grupo_20226" data-name="Grupo 20226" transform="translate(365.013 479.038)">
      <path id="Trazado_51390" data-name="Trazado 51390" d="M1520,1377.01a58.981,58.981,0,0,1,56.7,42.744h-113.4A58.981,58.981,0,0,1,1520,1377.01Z" transform="translate(-1363.61 -1373.719)" fill="#f0f0f0"/>
      <path id="Trazado_51391" data-name="Trazado 51391" d="M1931.114,1444.673a40.7,40.7,0,0,1,39.127,29.5h-78.254A40.7,40.7,0,0,1,1931.114,1444.673Z" transform="translate(-1708.367 -1428.135)" fill="#f0f0f0"/>
      <path id="Trazado_51392" data-name="Trazado 51392" d="M1101.787,1406.234c-7.615-26.352-37.794-46.035-73.868-46.035s-66.252,19.683-73.868,46.035Z" transform="translate(-954.052 -1360.2)" fill="#f0f0f0"/>
    </g>
    <g id="Grupo_20227" data-name="Grupo 20227" transform="translate(648.17 502.056)">
      <path id="Trazado_51393" data-name="Trazado 51393" d="M2689.113,1477.773a31.811,31.811,0,0,1,30.579,23.053h-61.158A31.811,31.811,0,0,1,2689.113,1477.773Z" transform="translate(-2608.002 -1477.773)" fill="#ccc"/>
      <path id="Trazado_51394" data-name="Trazado 51394" d="M2918.5,1522.458a19.739,19.739,0,0,1,18.975,14.3h-37.95A19.74,19.74,0,0,1,2918.5,1522.458Z" transform="translate(-2801.818 -1513.71)" fill="#ccc"/>
      <path id="Trazado_51395" data-name="Trazado 51395" d="M2472.066,1503.816c-3.693-12.78-18.329-22.325-35.823-22.325s-32.13,9.545-35.823,22.325Z" transform="translate(-2400.42 -1480.763)" fill="#ccc"/>
    </g>
    <g id="Grupo_20228" data-name="Grupo 20228" transform="translate(408.685 291.739)">
      <path id="Trazado_51396" data-name="Trazado 51396" d="M1465.822,403.473a31.811,31.811,0,0,1,30.579,23.053h-61.158A31.81,31.81,0,0,1,1465.822,403.473Z" transform="translate(-1384.712 -403.473)" fill="#ccc"/>
      <path id="Trazado_51397" data-name="Trazado 51397" d="M1695.213,448.158a19.739,19.739,0,0,1,18.975,14.305h-37.95A19.739,19.739,0,0,1,1695.213,448.158Z" transform="translate(-1578.527 -439.41)" fill="#ccc"/>
      <path id="Trazado_51398" data-name="Trazado 51398" d="M1248.775,429.517c-3.693-12.78-18.329-22.325-35.823-22.325s-32.13,9.545-35.823,22.325Z" transform="translate(-1177.129 -406.464)" fill="#ccc"/>
    </g>
    <g id="Grupo_20229" data-name="Grupo 20229" transform="translate(391.4 383.049)">
      <path id="Trazado_51399" data-name="Trazado 51399" d="M1303.292,893.547a7.879,7.879,0,0,1,7.574,5.71h-15.148A7.879,7.879,0,0,1,1303.292,893.547Z" transform="translate(-1255.217 -888.915)" fill="#ddc4c0"/>
      <path id="Trazado_51400" data-name="Trazado 51400" d="M1100,879.748a11.607,11.607,0,0,1,11.157,8.411h-22.315A11.607,11.607,0,0,1,1100,879.748Z" transform="translate(-1088.839 -877.818)" fill="#ddc4c0"/>
      <path id="Trazado_51401" data-name="Trazado 51401" d="M1186.36,880.229c-1.711-5.92-8.491-10.342-16.595-10.342s-14.884,4.422-16.595,10.342Z" transform="translate(-1140.577 -869.887)" fill="#ddc4c0"/>
    </g>
    <g id="Grupo_20230" data-name="Grupo 20230" transform="translate(355.57 522.752)">
      <path id="Trazado_51402" data-name="Trazado 51402" d="M1244.945,1605.448H916.8a10.981,10.981,0,0,1,0-21.961h328.15a10.981,10.981,0,0,1,0,21.961Z" transform="translate(-905.815 -1583.487)" fill="#b8b8b8"/>
    </g>
    <g id="Grupo_20231" data-name="Grupo 20231" transform="translate(303.824 504.899)">
      <path id="Trazado_51403" data-name="Trazado 51403" d="M656.5,1539.161a15.607,15.607,0,0,0-15,11.311H671.5A15.607,15.607,0,0,0,656.5,1539.161Z" transform="translate(-641.498 -1529.986)" fill="#999"/>
      <path id="Trazado_51404" data-name="Trazado 51404" d="M1000.877,1511.829a22.991,22.991,0,0,0-22.1,16.661h44.2A22.991,22.991,0,0,0,1000.877,1511.829Z" transform="translate(-912.747 -1508.005)" fill="#999"/>
      <path id="Trazado_51405" data-name="Trazado 51405" d="M741.318,1512.781c3.389-11.727,16.818-20.485,32.871-20.485s29.482,8.759,32.871,20.485Z" transform="translate(-721.776 -1492.296)" fill="#999"/>
    </g>
    <g id="Grupo_20232" data-name="Grupo 20232" transform="translate(687.377 515.142)">
      <path id="Trazado_51406" data-name="Trazado 51406" d="M2916.292,1579.434a11.6,11.6,0,0,1,11.146,8.4h-22.293A11.6,11.6,0,0,1,2916.292,1579.434Z" transform="translate(-2845.542 -1572.618)" fill="#f69e7b"/>
      <path id="Trazado_51407" data-name="Trazado 51407" d="M2617.11,1559.127a17.081,17.081,0,0,1,16.42,12.379H2600.69A17.081,17.081,0,0,1,2617.11,1559.127Z" transform="translate(-2600.69 -1556.286)" fill="#f69e7b"/>
      <path id="Trazado_51408" data-name="Trazado 51408" d="M2744.207,1559.836c-2.518-8.712-12.5-15.22-24.422-15.22s-21.9,6.507-24.422,15.22Z" transform="translate(-2676.83 -1544.616)" fill="#f69e7b"/>
    </g>
    <g id="Grupo_20233" data-name="Grupo 20233" transform="translate(314.621 424.11)">
      <path id="Trazado_51409" data-name="Trazado 51409" d="M1012.253,1114.445a11.6,11.6,0,0,1,11.147,8.4h-22.293A11.6,11.6,0,0,1,1012.253,1114.445Z" transform="translate(-941.503 -1107.628)" fill="#fac8b4"/>
      <path id="Trazado_51410" data-name="Trazado 51410" d="M713.071,1094.138a17.081,17.081,0,0,1,16.42,12.379h-32.84A17.081,17.081,0,0,1,713.071,1094.138Z" transform="translate(-696.651 -1091.297)" fill="#fac8b4"/>
      <path id="Trazado_51411" data-name="Trazado 51411" d="M840.168,1094.846c-2.518-8.712-12.5-15.22-24.422-15.22s-21.9,6.507-24.422,15.22Z" transform="translate(-772.791 -1079.626)" fill="#fac8b4"/>
    </g>
    <g id="Grupo_20234" data-name="Grupo 20234" transform="translate(559.126 539.001)">
      <path id="Trazado_51412" data-name="Trazado 51412" d="M2117.067,1685.41a6.3,6.3,0,0,1,6.057,4.566h-12.113A6.3,6.3,0,0,1,2117.067,1685.41Z" transform="translate(-2078.625 -1681.706)" fill="#6b728c"/>
      <path id="Trazado_51413" data-name="Trazado 51413" d="M1954.506,1674.376a9.281,9.281,0,0,1,8.922,6.726h-17.843A9.281,9.281,0,0,1,1954.506,1674.376Z" transform="translate(-1945.584 -1672.832)" fill="#6b728c"/>
      <path id="Trazado_51414" data-name="Trazado 51414" d="M2023.564,1674.761c-1.368-4.734-6.789-8.27-13.27-8.27s-11.9,3.536-13.27,8.27Z" transform="translate(-1986.954 -1666.491)" fill="#6b728c"/>
    </g>
    <path id="Trazado_51415" data-name="Trazado 51415" d="M2397.449,378.195c8.732-6.913,20.494-10.206,27.106-19.169,10.009-13.567,3.606-32.9,7.732-49.251a46.039,46.039,0,0,1,11.436-20.007,75.494,75.494,0,1,0-65.247,135.858,90.75,90.75,0,0,1,2.05-18.491C2383.043,396.023,2388.516,385.267,2397.449,378.195Z" transform="translate(-1696.807 -12.605)" fill="#4d546e"/>
    <g id="Grupo_20235" data-name="Grupo 20235" transform="translate(316.708 518.855)">
      <path id="Trazado_51416" data-name="Trazado 51416" d="M933.721,1588.564a8.318,8.318,0,0,1,8,6.028H925.725A8.318,8.318,0,0,1,933.721,1588.564Z" transform="translate(-882.965 -1583.674)" fill="#383e56"/>
      <path id="Trazado_51417" data-name="Trazado 51417" d="M719.089,1574a12.254,12.254,0,0,1,11.779,8.88H707.309A12.254,12.254,0,0,1,719.089,1574Z" transform="translate(-707.309 -1571.958)" fill="#383e56"/>
      <path id="Trazado_51418" data-name="Trazado 51418" d="M810.268,1574.5c-1.806-6.25-8.964-10.919-17.52-10.919s-15.714,4.668-17.52,10.919Z" transform="translate(-761.931 -1563.585)" fill="#383e56"/>
    </g>
    <circle id="Elipse_1156" data-name="Elipse 1156" cx="5.859" cy="5.859" r="5.859" transform="translate(610.447 417.202)" fill="#fff"/>
    <circle id="Elipse_1157" data-name="Elipse 1157" cx="5.859" cy="5.859" r="5.859" transform="translate(568.93 304.379)" fill="#fff"/>
    <circle id="Elipse_1158" data-name="Elipse 1158" cx="5.859" cy="5.859" r="5.859" transform="translate(367.28 296.19)" fill="#fff"/>
    <circle id="Elipse_1159" data-name="Elipse 1159" cx="5.859" cy="5.859" r="5.859" transform="translate(456.541 415.322)" fill="#fff"/>
    <circle id="Elipse_1160" data-name="Elipse 1160" cx="3.269" cy="3.269" r="3.269" transform="translate(591.512 405.893)" fill="#fff"/>
    <path id="Trazado_51419" data-name="Trazado 51419" d="M2435.256,960.207l-30.974,31.6,23.47-36.718Z" transform="translate(-1755.356 -555.362)" fill="#4d546e"/>
    <g id="Grupo_20240" data-name="Grupo 20240" transform="translate(413.022 430.395)">
      <path id="Trazado_51420" data-name="Trazado 51420" d="M1329.178,1637.466s-.654,2.224-.262,2.355,9.551.523,10.2.131-1.308-1.047-1.308-1.047a57.951,57.951,0,0,0-6.8-1.439A8.579,8.579,0,0,0,1329.178,1637.466Z" transform="translate(-1303.437 -1534.495)" fill="#d1a58c"/>
      <path id="Trazado_51421" data-name="Trazado 51421" d="M1321.646,1476.883c.523-1.047,1.116-1.57,2.093-1.57a1.9,1.9,0,0,1,1.9,1.961l-1.021,29.9a.875.875,0,0,1-1.75,0l-.044-1.292C1321.143,1485.418,1320.076,1480.677,1321.646,1476.883Z" transform="translate(-1297.074 -1404.134)" fill="#d1a58c"/>
      <path id="Trazado_51422" data-name="Trazado 51422" d="M1308.379,1331.38c.745-3.5,2.617-4.1,3.911-4.051a1.885,1.885,0,0,1,2.292,1.787l1.032,29.9a.874.874,0,0,1-1.255.818,3.032,3.032,0,0,1-2.163-2.248C1310.877,1351.846,1307.41,1335.934,1308.379,1331.38Z" transform="translate(-1286.886 -1285.086)" fill="#d1a58c"/>
      <path id="Trazado_51423" data-name="Trazado 51423" d="M1255.638,1637.466s-.654,2.224-.262,2.355,9.551.523,10.2.131-1.308-1.047-1.308-1.047a57.947,57.947,0,0,0-6.8-1.439A8.579,8.579,0,0,0,1255.638,1637.466Z" transform="translate(-1244.294 -1534.495)" fill="#d1a58c"/>
      <path id="Trazado_51424" data-name="Trazado 51424" d="M1260.237,1477.574a2.255,2.255,0,0,1,2.257-1.324,1.9,1.9,0,0,1,1.662,2.162l-4.382,29.6a.875.875,0,0,1-1.739-.2l.1-1.289C1258.776,1486,1258.25,1481.167,1260.237,1477.574Z" transform="translate(-1246.531 -1404.874)" fill="#d1a58c"/>
      <path id="Trazado_51425" data-name="Trazado 51425" d="M1267.366,1332.258c1.225-3.364,3.161-3.692,4.436-3.468a1.885,1.885,0,0,1,2.021,2.089l-3.137,29.753a.874.874,0,0,1-1.357.635,3.032,3.032,0,0,1-1.829-2.527C1266.994,1352.872,1265.773,1336.633,1267.366,1332.258Z" transform="translate(-1253.401 -1286.251)" fill="#d1a58c"/>
      <path id="Trazado_51426" data-name="Trazado 51426" d="M1330.174,1638.383a6.884,6.884,0,0,0,1.746-.21c2.653.391,7.717,1.587,7.557,2.858-.061.479-10.389.166-11.106.083-.64-.074-.139-2.449-.023-2.963A6.767,6.767,0,0,0,1330.174,1638.383Z" transform="translate(-1302.843 -1535.092)" fill="#383e56"/>
      <path id="Trazado_51427" data-name="Trazado 51427" d="M1256.31,1638.383a6.884,6.884,0,0,0,1.746-.21c2.653.391,7.717,1.587,7.557,2.858-.061.479-10.389.166-11.106.083-.64-.074-.139-2.449-.023-2.963A6.766,6.766,0,0,0,1256.31,1638.383Z" transform="translate(-1243.439 -1535.092)" fill="#383e56"/>
      <path id="Trazado_51428" data-name="Trazado 51428" d="M1257.852,1338.86s-.985,7.914.55,24.728c0,0-2.63.667-1.842,27.016h3.242s3.84-24.446,3.956-26.414,2.385-28.4,2.385-28.4Z" transform="translate(-1245.228 -1291.927)" fill="#52576c"/>
      <path id="Trazado_51429" data-name="Trazado 51429" d="M1310.073,1325.174s.853,25.922.737,28.232-.737,23.513-.737,23.513h-3.535s-3.049-20.349-.366-27.318c0,0-4.987-23-4.626-25.152s3.77-5.674,3.77-5.674Z" transform="translate(-1281.511 -1278.241)" fill="#52576c"/>
      <path id="Trazado_51430" data-name="Trazado 51430" d="M1370.741,1145.109a2.092,2.092,0,0,1-1.365-1.263c-.6-1.567-1.625-4.561-1.133-5.469.677-1.249,3.329,3.459,2.855,6.837Z" transform="translate(-1335.062 -1132.994)" fill="#d1a58c"/>
      <path id="Trazado_51431" data-name="Trazado 51431" d="M1294.976,1175.843a1.8,1.8,0,0,0-2.77.7c-.491.475-.229,1.783.4,2.334l14.572,11.563c.216.209.569-.143.784-.352a.552.552,0,0,0,.147-.245,2.246,2.246,0,0,0-.256-2.136C1305.7,1184.636,1297.542,1177.326,1294.976,1175.843Z" transform="translate(-1273.809 -1162.987)" fill="#383e56"/>
      <g id="Grupo_20236" data-name="Grupo 20236" transform="translate(32.517 11.105)">
        <path id="Trazado_51432" data-name="Trazado 51432" d="M1367.376,1168.453c-1.079,3.73-2.2,12.169-1.965,14.619.2,2.032,1.429,1.882,1.482,1.892a1.668,1.668,0,0,0,1.615-1.361l.711-14.912Z" transform="translate(-1365.379 -1168.453)" fill="#383e56"/>
      </g>
      <path id="Trazado_51433" data-name="Trazado 51433" d="M1211.134,1180.764c1.842-1.566,2.853.127,2.9.16.562.388.475,1.783-.083,2.473l-13.178,14.791c-.19.257-.6-.033-.842-.2a.525.525,0,0,1-.182-.221,2.379,2.379,0,0,1-.032-2.242C1201.477,1191.94,1208.738,1182.8,1211.134,1180.764Z" transform="translate(-1199.42 -1166.715)" fill="#383e56"/>
      <g id="Grupo_20238" data-name="Grupo 20238" transform="translate(11.332 11.156)">
        <g id="Grupo_20237" data-name="Grupo 20237">
          <path id="Trazado_51434" data-name="Trazado 51434" d="M1275.857,1205.266c-.078.026-.168.05-.268.075-2.742.671-5.518-.905-5.964-3.34l-.373-2.036.083,2.415a3.931,3.931,0,0,1-3.659,3.8c-2.76.362-6.313.825-8.062.977a157.71,157.71,0,0,0-.234-30.125,10.151,10.151,0,0,1-.021-4.029,5.321,5.321,0,0,1,3.449-3.959,7.422,7.422,0,0,1,5.211.319,5.466,5.466,0,0,1,.671.3c.09.047.181.1.272.154,1.292.8,2.518,2.4,2.81,5.49C1270.51,1183.021,1273.9,1197.292,1275.857,1205.266Z" transform="translate(-1257.165 -1168.714)" fill="#383e56"/>
        </g>
        <path id="Trazado_51435" data-name="Trazado 51435" d="M1281.662,1169.663l.022,4.961.035,6.551-2.931-5.989-3.008-6.138a7.422,7.422,0,0,1,5.211.319A5.466,5.466,0,0,1,1281.662,1169.663Z" transform="translate(-1272.136 -1168.714)" fill="#fff"/>
        <path id="Trazado_51436" data-name="Trazado 51436" d="M1293.912,1184.717l.034,6.551-2.931-5.989-.031-3.974,1.2-.042Z" transform="translate(-1284.363 -1178.806)" fill="#f69e7b"/>
        <path id="Trazado_51437" data-name="Trazado 51437" d="M1277.264,1182.65l-6.383-12.965-1.105,3.4,2.194,1.261-1.27,1.936Z" transform="translate(-1267.307 -1169.495)" fill="#949494"/>
        <path id="Trazado_51438" data-name="Trazado 51438" d="M1304.09,1186.046l.354-14.447,2.432,2.625-1.463,2.065,1.964,1.224Z" transform="translate(-1294.903 -1171.034)" fill="#949494"/>
        <rect id="Rectángulo_5278" data-name="Rectángulo 5278" width="4.806" height="0.392" transform="translate(8.096 28.956) rotate(178.014)" fill="#949494"/>
        <path id="Trazado_51439" data-name="Trazado 51439" d="M1306.572,1255.682a.5.5,0,1,0-.478.512A.5.5,0,0,0,1306.572,1255.682Z" transform="translate(-1296.102 -1238.271)" fill="#949494"/>
        <path id="Trazado_51440" data-name="Trazado 51440" d="M1310.007,1281.731a.5.5,0,1,0-.478.512A.5.5,0,0,0,1310.007,1281.731Z" transform="translate(-1298.865 -1259.221)" fill="#949494"/>
        <circle id="Elipse_1161" data-name="Elipse 1161" cx="0.496" cy="0.496" r="0.496" transform="translate(10.743 28.025) rotate(-79.606)" fill="#949494"/>
      </g>
      <path id="Trazado_51441" data-name="Trazado 51441" d="M1310.156,1141.5a3.633,3.633,0,0,0-.193-2.655c-.68-1.229-1.081.215-1.081.215Z" transform="translate(-1287.426 -1133.14)" fill="#2d334a"/>
      <path id="Trazado_51442" data-name="Trazado 51442" d="M1270.4,1149.958c.095.106,1.587,2.2,2.006,2.144.576-.079-.037-1.83-.037-1.83Z" transform="translate(-1256.475 -1142.474)" fill="#2d334a"/>
      <path id="Trazado_51443" data-name="Trazado 51443" d="M1282.763,1114.61a2.536,2.536,0,0,0-.283-2.031c-.6-.709-1.563-1.4-4.645-.191a.947.947,0,0,0-.6,1.067l.262,1.261Z" transform="translate(-1261.96 -1111.728)" fill="#2d334a"/>
      <path id="Trazado_51444" data-name="Trazado 51444" d="M1274.979,1121.6c.73,1.738,1.469,3.125,2.852,3.6a3.859,3.859,0,0,0,2.953-.149,2.363,2.363,0,0,0,1.593-2.18,10.188,10.188,0,0,0-1.083-3.789c-1.145-2.729-3.142-3.554-4.886-2.86S1273.834,1118.871,1274.979,1121.6Z" transform="translate(-1259.736 -1115.156)" fill="#d1a58c"/>
      <path id="Trazado_51445" data-name="Trazado 51445" d="M1278.141,1143.276l3.2-.425a47.374,47.374,0,0,1,.46,5.95c-.1.471-.892.716-1.771.547-.79-.152-1.376-.587-1.416-1.016h0A39.211,39.211,0,0,0,1278.141,1143.276Z" transform="translate(-1262.703 -1136.758)" fill="#d1a58c"/>
      <path id="Trazado_51446" data-name="Trazado 51446" d="M1263.766,1123.138a1.581,1.581,0,0,0,1.326-.8,9.829,9.829,0,0,0,.927-4.066c-.029-1.6-.589-1.883-.589-1.883s-2.948.981-3.343,2.1C1261.5,1120.171,1263.766,1123.138,1263.766,1123.138Z" transform="translate(-1249.713 -1115.479)" fill="#2d334a"/>
      <path id="Trazado_51447" data-name="Trazado 51447" d="M1270.366,1142.553c.245.592,1.174,1.108,1.622.932s.362-.7.117-1.293-.838-1-1.286-.828A.823.823,0,0,0,1270.366,1142.553Z" transform="translate(-1256.372 -1135.53)" fill="#d1a58c"/>
      <path id="Trazado_51448" data-name="Trazado 51448" d="M1279.469,1115.859l1.875-.634a2.87,2.87,0,0,1,1.93.032l.837.317-1.478-1.382-1.7-.03-1.865.784Z" transform="translate(-1263.447 -1113.685)" fill="#2d334a"/>
      <path id="Trazado_51449" data-name="Trazado 51449" d="M1274.75,1138.171l2.3,3.831a1.174,1.174,0,0,0,1.17.559l.536-.075a.528.528,0,0,0,.426-.7l-.3-.86a.459.459,0,0,1,.167-.525l1.653-1.174a.459.459,0,0,1,.576.037l.662.611a1.461,1.461,0,0,1-.07,2.207l-.958.779a1.622,1.622,0,0,1-.7.332.565.565,0,0,1-.059.011l-.035.005h0l-.414.058h0l-1.354.188a2.08,2.08,0,0,1-2.07-.99l-2.3-3.83Z" transform="translate(-1259.352 -1132.994)" fill="#2d334a"/>
      <path id="Trazado_51450" data-name="Trazado 51450" d="M1222.708,1332.7a2.092,2.092,0,0,0-1.089,1.507c-.277,1.655-.695,4.792-.033,5.586.91,1.091,2.582-4.048,1.452-7.266Z" transform="translate(-1216.934 -1289.3)" fill="#d1a58c"/>
      <g id="Grupo_20239" data-name="Grupo 20239" transform="translate(0 28.471)">
        <path id="Trazado_51451" data-name="Trazado 51451" d="M1204.112,1273.3c-1.792-3.444-4.559-11.5-4.807-13.945-.206-2.031,1.031-2.126,1.08-2.147a1.669,1.669,0,0,1,1.851,1.016l3.635,14.48Z" transform="translate(-1199.282 -1257.156)" fill="#383e56"/>
      </g>
    </g>
    <g id="Grupo_20245" data-name="Grupo 20245" transform="translate(603.49 429.019)">
      <path id="Trazado_51452" data-name="Trazado 51452" d="M2236.754,1637.466s.654,2.224.262,2.355-9.551.523-10.2.131,1.308-1.047,1.308-1.047a57.949,57.949,0,0,1,6.8-1.439A8.577,8.577,0,0,1,2236.754,1637.466Z" transform="translate(-2216.012 -1533.119)" fill="#fff"/>
      <path id="Trazado_51453" data-name="Trazado 51453" d="M2267.731,1476.883c-.523-1.047-1.116-1.57-2.094-1.57a1.9,1.9,0,0,0-1.9,1.961l1.021,29.9a.875.875,0,0,0,1.75,0l.044-1.292C2268.234,1485.418,2269.3,1480.677,2267.731,1476.883Z" transform="translate(-2245.819 -1402.757)" fill="#fff"/>
      <path id="Trazado_51454" data-name="Trazado 51454" d="M2270.122,1331.38c-.745-3.5-2.617-4.1-3.911-4.051a1.884,1.884,0,0,0-2.292,1.787l-1.032,29.9a.874.874,0,0,0,1.255.818,3.032,3.032,0,0,0,2.163-2.248C2267.624,1351.846,2271.091,1335.934,2270.122,1331.38Z" transform="translate(-2245.132 -1283.71)" fill="#d1a58c"/>
      <path id="Trazado_51455" data-name="Trazado 51455" d="M2310.295,1637.466s.654,2.224.262,2.355-9.55.523-10.2.131,1.308-1.047,1.308-1.047a57.949,57.949,0,0,1,6.8-1.439A8.575,8.575,0,0,1,2310.295,1637.466Z" transform="translate(-2275.155 -1533.119)" fill="#d1a58c"/>
      <path id="Trazado_51456" data-name="Trazado 51456" d="M2323.441,1477.574a2.255,2.255,0,0,0-2.257-1.324,1.9,1.9,0,0,0-1.663,2.162l4.382,29.6a.875.875,0,0,0,1.739-.2l-.1-1.289C2324.9,1486,2325.429,1481.167,2323.441,1477.574Z" transform="translate(-2290.663 -1403.498)" fill="#fff"/>
      <path id="Trazado_51457" data-name="Trazado 51457" d="M2311.729,1332.258c-1.225-3.364-3.161-3.692-4.437-3.468a1.884,1.884,0,0,0-2.021,2.089l3.136,29.753a.874.874,0,0,0,1.357.635,3.033,3.033,0,0,0,1.83-2.527C2312.1,1352.872,2313.322,1336.633,2311.729,1332.258Z" transform="translate(-2279.21 -1284.875)" fill="#d1a58c"/>
      <path id="Trazado_51458" data-name="Trazado 51458" d="M2231.794,1638.383a6.883,6.883,0,0,1-1.746-.21c-2.653.391-7.718,1.587-7.557,2.858.061.479,10.389.166,11.106.083.64-.074.139-2.449.023-2.963A6.767,6.767,0,0,1,2231.794,1638.383Z" transform="translate(-2212.642 -1533.716)" fill="#383e56"/>
      <path id="Trazado_51459" data-name="Trazado 51459" d="M2305.658,1638.383a6.883,6.883,0,0,1-1.746-.21c-2.653.391-7.718,1.587-7.557,2.858.061.479,10.389.166,11.106.083.639-.074.139-2.449.023-2.963A6.77,6.77,0,0,1,2305.658,1638.383Z" transform="translate(-2272.046 -1533.716)" fill="#383e56"/>
      <path id="Trazado_51460" data-name="Trazado 51460" d="M2311.093,1338.86s.985,7.914-.55,24.728c0,0,2.63.667,1.842,27.016h-3.242s-3.841-24.446-3.957-26.414-2.385-28.4-2.385-28.4Z" transform="translate(-2277.233 -1290.551)" fill="#52576c"/>
      <path id="Trazado_51461" data-name="Trazado 51461" d="M2260.667,1325.174s-.854,25.922-.738,28.232.738,23.513.738,23.513h3.535s3.048-20.349.365-27.318c0,0,4.987-23,4.626-25.152s-3.77-5.674-3.77-5.674Z" transform="translate(-2242.745 -1276.865)" fill="#52576c"/>
      <path id="Trazado_51462" data-name="Trazado 51462" d="M2178.832,1323.965a2.091,2.091,0,0,0-1.855-.125c-1.55.641-4.432,1.95-4.755,2.931-.444,1.35,4.8.045,6.931-2.619Z" transform="translate(-2172.196 -1280.81)" fill="#fff"/>
      <path id="Trazado_51463" data-name="Trazado 51463" d="M2258.038,1183.121a1.8,1.8,0,0,1,2.851-.182c.613.3.764,1.628.337,2.343l-10.331,15.47c-.142.265-.585.038-.854-.095a.554.554,0,0,1-.215-.188,2.245,2.245,0,0,1-.41-2.112C2250.524,1194.775,2256.049,1185.318,2258.038,1183.121Z" transform="translate(-2234.219 -1167.119)" fill="#383e56"/>
      <g id="Grupo_20241" data-name="Grupo 20241" transform="translate(5.102 30.907)">
        <path id="Trazado_51464" data-name="Trazado 51464" d="M2198.257,1274.667c1.971-3.345,7.334-9.958,9.28-11.465,1.614-1.251,2.349-.253,2.393-.221a1.668,1.668,0,0,1,.119,2.108l-10.354,10.755Z" transform="translate(-2198.257 -1262.574)" fill="#383e56"/>
      </g>
      <path id="Trazado_51465" data-name="Trazado 51465" d="M2338.177,1181.1c-1.672-1.747-2.851-.166-2.9-.138-.6.328-.655,1.725-.171,2.469L2346.7,1199.5c.163.276.6.028.859-.116a.527.527,0,0,0,.2-.2,2.379,2.379,0,0,0,.262-2.227C2346.637,1193.211,2340.351,1183.376,2338.177,1181.1Z" transform="translate(-2302.95 -1165.486)" fill="#383e56"/>
      <g id="Grupo_20243" data-name="Grupo 20243" transform="translate(16.46 12.532)">
        <g id="Grupo_20242" data-name="Grupo 20242">
          <path id="Trazado_51466" data-name="Trazado 51466" d="M2256.272,1205.266c.078.026.168.05.268.075,2.742.671,5.518-.905,5.964-3.34l.373-2.036-.083,2.415a3.932,3.932,0,0,0,3.659,3.8c2.76.362,6.313.825,8.063.977a157.69,157.69,0,0,1,.234-30.125,10.155,10.155,0,0,0,.021-4.029,5.321,5.321,0,0,0-3.449-3.959,7.423,7.423,0,0,0-5.211.319,5.454,5.454,0,0,0-.67.3q-.136.07-.272.154c-1.292.8-2.518,2.4-2.81,5.49C2261.619,1183.021,2258.229,1197.292,2256.272,1205.266Z" transform="translate(-2256.272 -1168.714)" fill="#383e56"/>
        </g>
        <path id="Trazado_51467" data-name="Trazado 51467" d="M2302.859,1169.663l-.022,4.961-.035,6.551,2.931-5.989,3.008-6.138a7.423,7.423,0,0,0-5.211.319A5.457,5.457,0,0,0,2302.859,1169.663Z" transform="translate(-2293.693 -1168.714)" fill="#f8b69c"/>
        <path id="Trazado_51468" data-name="Trazado 51468" d="M2302.837,1184.717l-.034,6.551,2.931-5.989.031-3.974-1.2-.042Z" transform="translate(-2293.694 -1178.806)" fill="#f69e7b"/>
        <path id="Trazado_51469" data-name="Trazado 51469" d="M2300.893,1182.65l6.383-12.965,1.105,3.4-2.194,1.261,1.27,1.936Z" transform="translate(-2292.157 -1169.495)" fill="#949494"/>
        <path id="Trazado_51470" data-name="Trazado 51470" d="M2291.324,1186.046l-.354-14.447-2.431,2.625,1.463,2.065-1.965,1.224Z" transform="translate(-2281.818 -1171.034)" fill="#949494"/>
        <rect id="Rectángulo_5279" data-name="Rectángulo 5279" width="4.806" height="0.392" transform="translate(10.61 28.564) rotate(1.986)" fill="#949494"/>
        <circle id="Elipse_1162" data-name="Elipse 1162" cx="0.496" cy="0.496" r="0.496" transform="translate(8.128 17.049) rotate(-12.322)" fill="#949494"/>
        <path id="Trazado_51471" data-name="Trazado 51471" d="M2294.838,1281.731a.5.5,0,1,1,.478.512A.5.5,0,0,1,2294.838,1281.731Z" transform="translate(-2287.288 -1259.221)" fill="#949494"/>
        <path id="Trazado_51472" data-name="Trazado 51472" d="M2291.4,1307.78a.5.5,0,1,1,.478.513A.5.5,0,0,1,2291.4,1307.78Z" transform="translate(-2284.524 -1280.17)" fill="#949494"/>
      </g>
      <path id="Trazado_51473" data-name="Trazado 51473" d="M2362.847,1335.87a2.091,2.091,0,0,1,.929,1.61c.106,1.674.2,4.838-.539,5.56-1.017.993-2.154-4.291-.7-7.376Z" transform="translate(-2324.718 -1290.448)" fill="#fff"/>
      <g id="Grupo_20244" data-name="Grupo 20244" transform="translate(37.253 31.013)">
        <path id="Trazado_51474" data-name="Trazado 51474" d="M2364.175,1278.831c2.136-3.242,5.713-10.969,6.21-13.379.413-2-.807-2.221-.854-2.246a1.668,1.668,0,0,0-1.945.821l-5.1,14.031Z" transform="translate(-2362.486 -1263.113)" fill="#383e56"/>
      </g>
      <path id="Trazado_51475" data-name="Trazado 51475" d="M2291.117,1109.3c.056-.294.306-.531.4-.8a6.092,6.092,0,0,1,.2-.877c.143-.26.454-.408.633-.639s.249-.571.463-.771.557-.247.8-.412.411-.466.678-.591a6.023,6.023,0,0,1,.888-.145c.281-.082.533-.316.827-.353a6.113,6.113,0,0,1,.889.137,5.814,5.814,0,0,1,.9-.078c.294.056.531.306.8.4a6.067,6.067,0,0,1,.877.2c.26.143.408.454.639.633s.571.249.771.463.247.556.412.8.466.411.591.678a6.013,6.013,0,0,1,.146.888c.082.281.316.533.353.828a6.1,6.1,0,0,1-.137.889,5.741,5.741,0,0,1,.079.9c-.056.294-.306.531-.4.8a6.118,6.118,0,0,1-.2.877c-.143.26-.454.408-.634.639s-.249.571-.463.771-.557.247-.8.412-.411.466-.678.591a6.05,6.05,0,0,1-.888.145c-.281.082-.533.316-.828.353a6.1,6.1,0,0,1-.889-.137,5.762,5.762,0,0,1-.9.078c-.294-.056-.531-.306-.8-.4a6.107,6.107,0,0,1-.877-.2c-.26-.143-.408-.454-.639-.634s-.571-.249-.771-.463-.247-.557-.412-.8-.466-.411-.591-.678a6.022,6.022,0,0,1-.145-.888c-.082-.281-.316-.533-.353-.828a6.067,6.067,0,0,1,.137-.889A5.8,5.8,0,0,1,2291.117,1109.3Z" transform="translate(-2267.784 -1104.698)" fill="#2d334a"/>
      <path id="Trazado_51476" data-name="Trazado 51476" d="M2292.4,1148.185a3.169,3.169,0,0,1,.416-2.284c.705-1,.917.287.917.287Z" transform="translate(-2268.818 -1137.528)" fill="#2d334a"/>
      <path id="Trazado_51477" data-name="Trazado 51477" d="M2325.425,1150.922c-.076.107-1.242,2.191-1.622,2.175-.521-.022-.114-1.708-.114-1.708Z" transform="translate(-2293.909 -1141.873)" fill="#2d334a"/>
      <path id="Trazado_51478" data-name="Trazado 51478" d="M2299.887,1119.934a2.464,2.464,0,0,1,.172-1.911c.513-.692,1.346-1.385,4.159-.4a.884.884,0,0,1,.58.969l-.184,1.191Z" transform="translate(-2274.79 -1114.7)" fill="#2d334a"/>
      <path id="Trazado_51479" data-name="Trazado 51479" d="M2299.868,1126.008c-.513,1.684-1.063,3.041-2.262,3.609a3.338,3.338,0,0,1-2.653.124,2.171,2.171,0,0,1-1.6-1.889,9.923,9.923,0,0,1,.665-3.626c.805-2.644,2.525-3.59,4.14-3.1S2300.673,1123.365,2299.868,1126.008Z" transform="translate(-2269.617 -1117.812)" fill="#fff"/>
      <path id="Trazado_51480" data-name="Trazado 51480" d="M2312.869,1145.248l-2.848-.559a46.131,46.131,0,0,0-.732,5.536c.063.445.761.714,1.558.6.717-.1,1.265-.479,1.323-.877h0A38.27,38.27,0,0,1,2312.869,1145.248Z" transform="translate(-2282.451 -1136.86)" fill="#fff"/>
      <path id="Trazado_51481" data-name="Trazado 51481" d="M2322.715,1126.606a1.385,1.385,0,0,1-1.25-.624,9.42,9.42,0,0,1-1.155-3.705c-.1-1.49.375-1.807.375-1.807s2.716.652,3.158,1.661C2324.507,1123.641,2322.715,1126.606,2322.715,1126.606Z" transform="translate(-2291.302 -1117.382)" fill="#2d334a"/>
      <path id="Trazado_51482" data-name="Trazado 51482" d="M2298.666,1138.562l-1.173,3.858a1.06,1.06,0,0,1-.9.746l-.486.052a.477.477,0,0,1-.526-.517l.073-.819a.414.414,0,0,0-.261-.422l-1.7-.665a.414.414,0,0,0-.5.159l-.445.681a1.318,1.318,0,0,0,.546,1.916l1.01.471a1.466,1.466,0,0,0,.689.135l.054,0,.032,0h0l.375-.041h0l1.226-.133a1.877,1.877,0,0,0,1.594-1.321l1.173-3.858Z" transform="translate(-2268.973 -1131.932)" fill="#2d334a"/>
      <path id="Trazado_51483" data-name="Trazado 51483" d="M2325.661,1144.291c-.172.574-.961,1.137-1.376,1.012s-.38-.62-.208-1.194.669-1.009,1.084-.885A.772.772,0,0,1,2325.661,1144.291Z" transform="translate(-2294.245 -1135.665)" fill="#fff"/>
      <path id="Trazado_51484" data-name="Trazado 51484" d="M2305,1120.668l-1.708-.5a2.482,2.482,0,0,0-1.73.121l-.738.336,1.27-1.361,1.526-.109,1.7.645Z" transform="translate(-2275.639 -1116.322)" fill="#2d334a"/>
    </g>
    <g id="Grupo_20249" data-name="Grupo 20249" transform="translate(631.845 480.471)">
      <g id="Grupo_20246" data-name="Grupo 20246" transform="translate(0 1.762)">
        <path id="Trazado_51485" data-name="Trazado 51485" d="M2318,1391.3l18.224.339a.984.984,0,0,0,1-1.023l-.506-12.843a.984.984,0,0,0-.965-.945l-16.735-.312a.985.985,0,0,0-1,.909l-.984,12.815A.984.984,0,0,0,2318,1391.3Z" transform="translate(-2317.033 -1376.518)" fill="#828282"/>
      </g>
      <g id="Grupo_20247" data-name="Grupo 20247" transform="translate(8.956 6.842)">
        <path id="Trazado_51486" data-name="Trazado 51486" d="M2363.424,1405.731l1.2.022a.638.638,0,0,0,.649-.609l.09-1.987a.639.639,0,0,0-.626-.667l-1.311-.024a.638.638,0,0,0-.65.643l.016,1.989A.638.638,0,0,0,2363.424,1405.731Z" transform="translate(-2362.782 -1402.465)" fill="#f69e7b"/>
      </g>
      <g id="Grupo_20248" data-name="Grupo 20248" transform="translate(7.071 0)">
        <path id="Trazado_51487" data-name="Trazado 51487" d="M2384.405,1372.2h0a.245.245,0,0,0,.25-.24l.023-1.263a.245.245,0,0,0-.24-.249h0a.245.245,0,0,0-.25.24l-.023,1.263A.245.245,0,0,0,2384.405,1372.2Z" transform="translate(-2378.094 -1369.874)" fill="#f69e7b"/>
        <path id="Trazado_51488" data-name="Trazado 51488" d="M2353.394,1371.623h0a.245.245,0,0,0,.25-.24l.023-1.263a.245.245,0,0,0-.24-.249h0a.245.245,0,0,0-.25.24l-.023,1.263A.245.245,0,0,0,2353.394,1371.623Z" transform="translate(-2353.154 -1369.41)" fill="#f69e7b"/>
        <path id="Trazado_51489" data-name="Trazado 51489" d="M2360.634,1367.93a13.2,13.2,0,0,0-6.071-.113" transform="translate(-2354.287 -1367.517)" fill="none" stroke="#6a6e7e" stroke-linecap="round" stroke-linejoin="round" stroke-width="4.113"/>
      </g>
      <path id="Trazado_51490" data-name="Trazado 51490" d="M2317.8,1382.03l.845-5.214a.418.418,0,0,1,.42-.351l3.565.066,14.3.266a.418.418,0,0,1,.407.366l.65,5.242a.367.367,0,0,1-.371.412l-3.237-.06-16.226-.3A.367.367,0,0,1,2317.8,1382.03Z" transform="translate(-2317.648 -1374.713)" fill="#949494"/>
      <path id="Rectángulo_5280" data-name="Rectángulo 5280" d="M0,0H3.553a0,0,0,0,1,0,0V.221a1.43,1.43,0,0,1-1.43,1.43H1.43A1.43,1.43,0,0,1,0,.221V0A0,0,0,0,1,0,0Z" transform="matrix(-1, -0.019, 0.019, -1, 12.018, 7.957)" fill="#6a6e7e"/>
    </g>
    <g id="Grupo_20253" data-name="Grupo 20253" transform="translate(407.145 479.016)">
      <g id="Grupo_20250" data-name="Grupo 20250" transform="translate(0 1.762)">
        <path id="Trazado_51491" data-name="Trazado 51491" d="M1170.23,1383.871l18.224.339a.984.984,0,0,0,1-1.023l-.506-12.842a.984.984,0,0,0-.965-.945l-16.735-.312a.984.984,0,0,0-1,.909l-.984,12.815A.984.984,0,0,0,1170.23,1383.871Z" transform="translate(-1169.264 -1369.088)" fill="#828282"/>
      </g>
      <g id="Grupo_20251" data-name="Grupo 20251" transform="translate(8.956 6.842)">
        <path id="Trazado_51492" data-name="Trazado 51492" d="M1215.654,1398.3l1.2.022a.638.638,0,0,0,.65-.609l.09-1.987a.638.638,0,0,0-.626-.667l-1.311-.024a.638.638,0,0,0-.65.643l.016,1.989A.639.639,0,0,0,1215.654,1398.3Z" transform="translate(-1215.012 -1395.035)" fill="#f69e7b"/>
      </g>
      <g id="Grupo_20252" data-name="Grupo 20252" transform="translate(7.071)">
        <path id="Trazado_51493" data-name="Trazado 51493" d="M1236.635,1364.77h0a.245.245,0,0,0,.25-.24l.023-1.263a.245.245,0,0,0-.24-.249h0a.245.245,0,0,0-.249.24l-.023,1.263A.245.245,0,0,0,1236.635,1364.77Z" transform="translate(-1230.324 -1362.444)" fill="#f69e7b"/>
        <path id="Trazado_51494" data-name="Trazado 51494" d="M1205.624,1364.192h0a.245.245,0,0,0,.25-.24l.023-1.263a.245.245,0,0,0-.24-.249h0a.245.245,0,0,0-.249.24l-.024,1.263A.245.245,0,0,0,1205.624,1364.192Z" transform="translate(-1205.384 -1361.979)" fill="#f69e7b"/>
        <path id="Trazado_51495" data-name="Trazado 51495" d="M1212.864,1360.5a13.2,13.2,0,0,0-6.071-.113" transform="translate(-1206.517 -1360.087)" fill="none" stroke="#6a6e7e" stroke-linecap="round" stroke-linejoin="round" stroke-width="4.113"/>
      </g>
      <path id="Trazado_51496" data-name="Trazado 51496" d="M1170.033,1374.6l.845-5.214a.418.418,0,0,1,.42-.351l3.565.066,14.3.266a.418.418,0,0,1,.407.366l.651,5.242a.367.367,0,0,1-.371.412l-3.237-.06-16.226-.3A.367.367,0,0,1,1170.033,1374.6Z" transform="translate(-1169.879 -1367.283)" fill="#949494"/>
      <path id="Rectángulo_5281" data-name="Rectángulo 5281" d="M0,0H3.553a0,0,0,0,1,0,0V.221a1.43,1.43,0,0,1-1.43,1.43H1.43A1.43,1.43,0,0,1,0,.221V0A0,0,0,0,1,0,0Z" transform="matrix(-1, -0.019, 0.019, -1, 12.018, 7.957)" fill="#6a6e7e"/>
    </g>
    <g id="Grupo_20254" data-name="Grupo 20254" transform="translate(286.722 299.875)">
      <path id="Trazado_51497" data-name="Trazado 51497" d="M2101.081,591.955l8.32,29.785-67.853,12.073-7.36-32.017Z" transform="translate(-1744.437 -563.191)" fill="#fff"/>
      <path id="Trazado_51498" data-name="Trazado 51498" d="M1822.369,654.51c16.071-4.418,32.451-10.495,33.262-10.1l16.209,26.823c-1.05,4.449-1.678,7.493-28.25,24.088l-9.854,6.039-11.305-7.636a29.515,29.515,0,0,1-4.835-4.084l-1.922-2.014a27.654,27.654,0,0,1-7.331-14.923l-.529-3.472c-.4-2.016,16.005-14.068,14.555-14.717Z" transform="translate(-1562.375 -605.36)" fill="#fff"/>
      <path id="Trazado_51499" data-name="Trazado 51499" d="M1708.129,744.747l28.331-16.523a4.7,4.7,0,0,1,6.432,1.693h0a4.7,4.7,0,0,1-1.693,6.432l-28.331,16.523a4.7,4.7,0,0,1-6.432-1.693h0A4.7,4.7,0,0,1,1708.129,744.747Z" transform="translate(-1480.334 -672.267)" fill="#fff"/>
      <path id="Trazado_51500" data-name="Trazado 51500" d="M1619.854,820.977l18.469-8.924a4.4,4.4,0,0,1,5.88,2.049h0a4.4,4.4,0,0,1-2.049,5.88l-18.469,8.923a4.4,4.4,0,0,1-5.88-2.049h0A4.4,4.4,0,0,1,1619.854,820.977Z" transform="translate(-1409.217 -739.847)" fill="#fff"/>
      <path id="Trazado_51501" data-name="Trazado 51501" d="M1560.621,864.248l9.179-3.141h0c2.92-.831,5.857.5,6.41,2.909h0c.529,2.3-1.338,4.7-4.171,5.349l-11.821,2.717c-1.829.421-3.571-.493-3.814-2h0C1556.016,867.671,1557.79,865.216,1560.621,864.248Z" transform="translate(-1360.147 -779.452)" fill="#fff"/>
      <path id="Trazado_51502" data-name="Trazado 51502" d="M1577.071,942.488l8.92-3.84h0c2.853-1.04,5.924.26,6.7,2.837h0c.745,2.466-.906,5.147-3.688,5.988l-11.61,3.51a3.08,3.08,0,0,1-4.014-1.98h0A5.831,5.831,0,0,1,1577.071,942.488Z" transform="translate(-1373.736 -841.722)" fill="#fff"/>
      <path id="Trazado_51503" data-name="Trazado 51503" d="M1707.995,827.347l23.919-16.262a4.741,4.741,0,0,1,6.586,1.255h0a4.741,4.741,0,0,1-1.255,6.586l-23.919,16.262a4.741,4.741,0,0,1-6.586-1.255h0A4.741,4.741,0,0,1,1707.995,827.347Z" transform="translate(-1480.434 -738.762)" fill="#fff"/>
      <path id="Trazado_51504" data-name="Trazado 51504" d="M1633.114,901.885l15.486-8.115a4.636,4.636,0,0,1,6.258,1.954h0a4.636,4.636,0,0,1-1.954,6.258l-15.486,8.115a4.636,4.636,0,0,1-6.258-1.954h0A4.636,4.636,0,0,1,1633.114,901.885Z" transform="translate(-1419.884 -805.492)" fill="#fff"/>
      <path id="Trazado_51505" data-name="Trazado 51505" d="M1667.316,982.2l7.555-4.766h0c2.436-1.354,5.312-.63,6.277,1.581h0c.923,2.115-.269,4.775-2.663,5.94l-9.99,4.86a2.661,2.661,0,0,1-3.788-1.2h0A5.571,5.571,0,0,1,1667.316,982.2Z" transform="translate(-1447.073 -872.652)" fill="#fff"/>
      <path id="Trazado_51506" data-name="Trazado 51506" d="M1767,875.079l18.7-14.721c2.2-1.731,5.144-1.635,6.58.214h0c1.436,1.849.819,4.751-1.379,6.481l-18.7,14.721c-2.2,1.731-5.144,1.635-6.581-.214h0C1764.183,879.711,1764.8,876.809,1767,875.079Z" transform="translate(-1527.823 -778.053)" fill="#fff"/>
      <path id="Trazado_51507" data-name="Trazado 51507" d="M1708.148,949.078l9.88-6.576c2.323-1.547,5.2-1.233,6.436.7h0c1.231,1.934.345,4.755-1.979,6.3l-9.88,6.576c-2.323,1.547-5.2,1.233-6.435-.7h0C1704.938,953.446,1705.824,950.625,1708.148,949.078Z" transform="translate(-1480.189 -844.321)" fill="#fff"/>
      <path id="Trazado_51508" data-name="Trazado 51508" d="M1773.415,991.883l7.166-4.613h0c2.317-1.318,5.136-.711,6.152,1.324h0c.973,1.947-.09,4.451-2.373,5.591l-9.527,4.758a2.66,2.66,0,0,1-3.722-1.028h0A5.033,5.033,0,0,1,1773.415,991.883Z" transform="translate(-1532.606 -880.554)" fill="#fff"/>
      <path id="Trazado_51509" data-name="Trazado 51509" d="M1861.478,877.3l17-16.487a4.141,4.141,0,0,1,5.855.089h0a4.141,4.141,0,0,1-.089,5.855l-17,16.486a4.141,4.141,0,0,1-5.855-.089h0A4.141,4.141,0,0,1,1861.478,877.3Z" transform="translate(-1604.528 -778.474)" fill="#fff"/>
      <path id="Trazado_51510" data-name="Trazado 51510" d="M1810.644,955.429l9.659-7.989a4.107,4.107,0,0,1,5.783.547h0a4.107,4.107,0,0,1-.547,5.783l-9.66,7.989a4.107,4.107,0,0,1-5.783-.547h0A4.107,4.107,0,0,1,1810.644,955.429Z" transform="translate(-1563.459 -848.324)" fill="#fff"/>
      <path id="Trazado_51511" data-name="Trazado 51511" d="M2307.131,462.351l7.258,37.634-148,27.123-6.677-34.622Z" transform="translate(-1845.385 -458.96)" fill="#f8b69c"/>
      <path id="Trazado_51512" data-name="Trazado 51512" d="M2401.35,445.029l-102.194,20.1-40.147,7.9,6.868,38.239,112.9-21.692,30.051-5.774Z" transform="translate(-1925.245 -445.029)" fill="#6b728c"/>
      <path id="Trazado_51513" data-name="Trazado 51513" d="M1543.9,608.653c.393,7.25,2.06,13.237,11.424,19.193,7.481,4.758,13.843,6.3,19.453,5.183,5.791-1.154,11.189-4.991,11.78-10.867.151-1.5.552-2.832,1.417-3.364l.04-.024c4.566-2.766,5.607.759,16.867-4.846s8.435-12.924,7.355-14.563-5.688,2.351-8.146,3.817-10.6.972-14.577,1.916c-2.326.552-7.951.081-12.217-.4a76.474,76.474,0,0,0-12.091-.41c-5.9.265-11.117-.909-16.006.724C1547.65,605.526,1545.246,607.872,1543.9,608.653Z" transform="translate(-1350.134 -568.84)" fill="#d1a58c"/>
      <path id="Trazado_51514" data-name="Trazado 51514" d="M1196.5,642.7l-4.924,30.53,68.78,4.382,3.72-32.641Z" transform="translate(-1066.787 -604)" fill="#d1a58c"/>
      <path id="Trazado_51515" data-name="Trazado 51515" d="M1531.65,658.3c-16.614-1.33-33.843-4.231-34.566-3.694l-10.9,29.385c1.865,4.173,3.052,7.046,32.262,18.37l10.811,4.086,9.675-9.619a29.527,29.527,0,0,0,3.984-4.918l1.51-2.338a27.657,27.657,0,0,0,4.406-16.032l-.13-3.51c.014-2.055-18.357-10.821-17.054-11.73Z" transform="translate(-1303.718 -613.526)" fill="#d1a58c"/>
      <path id="Trazado_51516" data-name="Trazado 51516" d="M1749.5,714.013l-30.924-10.924a4.7,4.7,0,0,0-6,2.868h0a4.7,4.7,0,0,0,2.868,6l30.924,10.924a4.7,4.7,0,0,0,6-2.868h0A4.7,4.7,0,0,0,1749.5,714.013Z" transform="translate(-1485.572 -652.352)" fill="#d1a58c"/>
      <path id="Trazado_51517" data-name="Trazado 51517" d="M1987.365,801.617l-9.231-2.987h0c-2.933-.782-5.848.6-6.36,3.016h0c-.491,2.312,1.417,4.675,4.26,5.279l11.865,2.519c1.836.39,3.562-.553,3.78-2.064h0C1992.027,804.962,1990.212,802.538,1987.365,801.617Z" transform="translate(-1694.18 -729.229)" fill="#d1a58c"/>
      <path id="Trazado_51518" data-name="Trazado 51518" d="M1990.121,871.394l-9.482-2.1h0c-3-.487-5.771,1.366-6.053,4.043h0c-.27,2.562,1.854,4.886,4.745,5.191l12.062,1.273a3.08,3.08,0,0,0,3.572-2.7h0A5.831,5.831,0,0,0,1990.121,871.394Z" transform="translate(-1696.486 -786.171)" fill="#d1a58c"/>
      <path id="Trazado_51519" data-name="Trazado 51519" d="M1784.568,793.587l-26.542-11.494a4.741,4.741,0,0,0-6.234,2.467h0a4.741,4.741,0,0,0,2.467,6.235l26.542,11.493a4.741,4.741,0,0,0,6.234-2.466h0A4.741,4.741,0,0,0,1784.568,793.587Z" transform="translate(-1517.011 -715.791)" fill="#d1a58c"/>
      <path id="Trazado_51520" data-name="Trazado 51520" d="M1906.889,846.218l-16.732-5.071a4.636,4.636,0,0,0-5.781,3.092h0a4.636,4.636,0,0,0,3.092,5.781l16.732,5.071a4.636,4.636,0,0,0,5.781-3.092h0A4.636,4.636,0,0,0,1906.889,846.218Z" transform="translate(-1623.793 -763.437)" fill="#d1a58c"/>
      <path id="Trazado_51521" data-name="Trazado 51521" d="M1918.027,935.977l-8.122-3.718h0c-2.595-1.018-5.349.083-6.011,2.4h0c-.634,2.22.9,4.7,3.43,5.532l10.547,3.487a2.661,2.661,0,0,0,3.595-1.694h0A5.571,5.571,0,0,0,1918.027,935.977Z" transform="translate(-1639.536 -836.568)" fill="#d1a58c"/>
      <path id="Trazado_51522" data-name="Trazado 51522" d="M1759.436,849.244l-20.49-12.1c-2.409-1.423-5.316-.936-6.493,1.088h0c-1.177,2.023-.179,4.817,2.23,6.24l20.49,12.1c2.409,1.423,5.316.936,6.493-1.088h0C1762.843,853.46,1761.844,850.666,1759.436,849.244Z" transform="translate(-1501.376 -759.722)" fill="#d1a58c"/>
      <path id="Trazado_51523" data-name="Trazado 51523" d="M1863.381,909.967l-10.667-5.2c-2.509-1.224-5.322-.529-6.285,1.551h0c-.962,2.08.291,4.759,2.8,5.982l10.667,5.2c2.509,1.223,5.323.529,6.285-1.552h0C1867.143,913.869,1865.889,911.191,1863.381,909.967Z" transform="translate(-1593.175 -814.276)" fill="#d1a58c"/>
      <path id="Trazado_51524" data-name="Trazado 51524" d="M1805.282,959.544l-7.544-3.965h0c-2.424-1.109-5.179-.256-6.012,1.86h0c-.8,2.025.481,4.425,2.856,5.36l9.909,3.9a2.66,2.66,0,0,0,3.617-1.352h0A5.033,5.033,0,0,0,1805.282,959.544Z" transform="translate(-1549.252 -855.237)" fill="#d1a58c"/>
      <path id="Trazado_51525" data-name="Trazado 51525" d="M1670.948,856.335l-18.382-14.927a4.141,4.141,0,0,0-5.825.6h0a4.141,4.141,0,0,0,.6,5.825l18.382,14.927a4.141,4.141,0,0,0,5.825-.6h0A4.141,4.141,0,0,0,1670.948,856.335Z" transform="translate(-1432.096 -763.064)" fill="#d1a58c"/>
      <path id="Trazado_51526" data-name="Trazado 51526" d="M1758.745,927.023l-10.325-7.108a4.107,4.107,0,0,0-5.712,1.054h0a4.107,4.107,0,0,0,1.054,5.712l10.325,7.108a4.107,4.107,0,0,0,5.712-1.054h0A4.107,4.107,0,0,0,1758.745,927.023Z" transform="translate(-1509.438 -826.364)" fill="#d1a58c"/>
      <path id="Trazado_51527" data-name="Trazado 51527" d="M655.042,638.336l2-38.275,150.184,9.228L805.386,644.5Z" transform="translate(-635.288 -569.71)" fill="#fff"/>
      <path id="Trazado_51528" data-name="Trazado 51528" d="M614.555,581.326l-58.143-3.648-2.272,43.573,108.187,4.269,42.17,1.664,2.091-40.085Z" transform="translate(-554.139 -551.709)" fill="#6b728c"/>
      <path id="Trazado_51529" data-name="Trazado 51529" d="M1764.015,627.315c.973,7.2.456,13.389-7.627,20.993-6.457,6.075-12.417,8.783-18.138,8.735-5.9-.049-11.926-2.807-13.608-8.468-.43-1.446-1.072-2.678-2.022-3.039l-.043-.016c-5-1.862-5.366,1.8-17.476-1.6s-10.706-11.115-9.953-12.927,6.028,1.244,8.717,2.224,10.6-1.031,14.678-.848c2.389.107,7.825-1.41,11.925-2.686a76.484,76.484,0,0,1,11.8-2.668c5.844-.845,10.75-2.976,15.858-2.287C1759.747,624.946,1762.548,626.8,1764.015,627.315Z" transform="translate(-1471.39 -589.439)" fill="#fff"/>
      <path id="Trazado_51530" data-name="Trazado 51530" d="M1846.7,749.614,1816.1,738.2a4.766,4.766,0,0,0-6.173,2.684h0a4.766,4.766,0,0,0,3.116,5.966l30.21,10.677a4.766,4.766,0,0,0,6.173-2.684h0C1850.269,752.452,1849.261,750.521,1846.7,749.614Z" transform="translate(-1563.881 -680.56)" fill="#d1a58c"/>
    </g>
    <path id="Trazado_51531" data-name="Trazado 51531" d="M561,349.024c4.126,16.346-2.276,35.685,7.732,49.251,6.612,8.963,18.373,12.255,27.106,19.169,8.933,7.072,14.406,17.828,16.924,28.94a90.737,90.737,0,0,1,2.049,18.491,75.494,75.494,0,0,1-65.247-135.858A46.041,46.041,0,0,1,561,349.024Z" transform="translate(-232.547 -51.854)" fill="#383e56"/>
    <g id="Grupo_20255" data-name="Grupo 20255" transform="translate(308.104 318.61)">
      <rect id="Rectángulo_5282" data-name="Rectángulo 5282" width="91.88" height="2.843" transform="translate(0 0)" fill="#ccc"/>
      <rect id="Rectángulo_5283" data-name="Rectángulo 5283" width="91.88" height="2.843" transform="translate(0 15.394)" fill="#ccc"/>
      <rect id="Rectángulo_5284" data-name="Rectángulo 5284" width="91.88" height="2.843" transform="translate(0 30.787)" fill="#ccc"/>
      <rect id="Rectángulo_5285" data-name="Rectángulo 5285" width="75.96" height="2.843" transform="translate(0 46.181)" fill="#ccc"/>
    </g>
    <path id="Trazado_51532" data-name="Trazado 51532" d="M2625.343,349.024c-4.126,16.346,2.276,35.685-7.732,49.251-6.612,8.963-18.373,12.255-27.106,19.169-8.933,7.072-14.406,17.828-16.924,28.94a90.75,90.75,0,0,0-2.05,18.491,75.494,75.494,0,0,0,65.247-135.858A46.04,46.04,0,0,0,2625.343,349.024Z" transform="translate(-1889.863 -51.854)" fill="#383e56"/>
    <g id="Grupo_20256" data-name="Grupo 20256" transform="translate(664.247 318.829)">
      <rect id="Rectángulo_5286" data-name="Rectángulo 5286" width="91.88" height="2.843" transform="translate(0 0)" fill="#f69e7b"/>
      <rect id="Rectángulo_5287" data-name="Rectángulo 5287" width="91.88" height="2.843" transform="translate(0 15.394)" fill="#f69e7b"/>
      <rect id="Rectángulo_5288" data-name="Rectángulo 5288" width="91.88" height="2.843" transform="translate(0 30.787)" fill="#f69e7b"/>
      <rect id="Rectángulo_5289" data-name="Rectángulo 5289" width="75.96" height="2.843" transform="translate(0 46.181)" fill="#f69e7b"/>
    </g>
    <g id="Grupo_20257" data-name="Grupo 20257" transform="translate(456.679 507.89)">
      <path id="Trazado_51533" data-name="Trazado 51533" d="M1803.563,1549.64a14.008,14.008,0,0,1,13.466,10.152H1790.1A14.008,14.008,0,0,1,1803.563,1549.64Z" transform="translate(-1718.089 -1541.405)" fill="#eedad1"/>
      <path id="Trazado_51534" data-name="Trazado 51534" d="M1442.118,1525.108a20.635,20.635,0,0,1,19.837,14.955h-39.674A20.636,20.636,0,0,1,1442.118,1525.108Z" transform="translate(-1422.281 -1521.676)" fill="#eedad1"/>
      <path id="Trazado_51535" data-name="Trazado 51535" d="M1595.666,1525.963c-3.042-10.525-15.1-18.387-29.5-18.387s-26.462,7.862-29.5,18.387Z" transform="translate(-1514.266 -1507.576)" fill="#eedad1"/>
    </g>
    <g id="Grupo_20258" data-name="Grupo 20258" transform="translate(629.456 279.233)">
      <path id="Trazado_51536" data-name="Trazado 51536" d="M2539.9,365.527a8.637,8.637,0,0,1,8.3,6.259h-16.6A8.637,8.637,0,0,1,2539.9,365.527Z" transform="translate(-2487.206 -360.45)" fill="#fff"/>
      <path id="Trazado_51537" data-name="Trazado 51537" d="M2317.058,350.4a12.723,12.723,0,0,1,12.23,9.22h-24.46A12.723,12.723,0,0,1,2317.058,350.4Z" transform="translate(-2304.828 -348.286)" fill="#fff"/>
      <path id="Trazado_51538" data-name="Trazado 51538" d="M2411.726,350.928c-1.875-6.489-9.307-11.336-18.19-11.336s-16.315,4.847-18.19,11.336Z" transform="translate(-2361.54 -339.592)" fill="#fff"/>
    </g>
    <g id="Grupo_20259" data-name="Grupo 20259" transform="translate(462.4 309.059)">
      <path id="Trazado_51539" data-name="Trazado 51539" d="M1686.581,517.879a8.637,8.637,0,0,1,8.3,6.259h-16.6A8.637,8.637,0,0,1,1686.581,517.879Z" transform="translate(-1633.883 -512.802)" fill="#fff"/>
      <path id="Trazado_51540" data-name="Trazado 51540" d="M1463.736,502.753a12.723,12.723,0,0,1,12.23,9.22h-24.46A12.723,12.723,0,0,1,1463.736,502.753Z" transform="translate(-1451.506 -500.637)" fill="#fff"/>
      <path id="Trazado_51541" data-name="Trazado 51541" d="M1558.4,503.28c-1.875-6.489-9.307-11.336-18.191-11.336s-16.315,4.847-18.19,11.336Z" transform="translate(-1508.219 -491.944)" fill="#fff"/>
    </g>
    <circle id="Elipse_1163" data-name="Elipse 1163" cx="3.269" cy="3.269" r="3.269" transform="translate(385.838 393.171)" fill="#fff"/>
    <g id="Grupo_20260" data-name="Grupo 20260" transform="translate(540.473 519.925)">
      <path id="Trazado_51542" data-name="Trazado 51542" d="M1953.263,1571.87a9.9,9.9,0,0,1,9.514,7.172h-19.028A9.9,9.9,0,0,1,1953.263,1571.87Z" transform="translate(-1925.455 -1571.318)" fill="#8aa27d"/>
      <path id="Trazado_51543" data-name="Trazado 51543" d="M2022.249,1583.224a6.83,6.83,0,0,1,6.566,4.95h-13.131A6.83,6.83,0,0,1,2022.249,1583.224Z" transform="translate(-1983.306 -1580.449)" fill="#8aa27d"/>
      <path id="Trazado_51544" data-name="Trazado 51544" d="M1875.094,1576.774c-1.278-4.422-6.342-7.725-12.4-7.725s-11.117,3.3-12.4,7.725Z" transform="translate(-1850.303 -1569.049)" fill="#8aa27d"/>
    </g>
    <g id="Grupo_20261" data-name="Grupo 20261" transform="translate(564.8 494.995)">
      <path id="Trazado_51545" data-name="Trazado 51545" d="M1982.215,1441.8a1.541,1.541,0,0,1,.245,2.789,44.357,44.357,0,0,1,.391,5.36,24.033,24.033,0,0,1,3.323-4.661,1.546,1.546,0,1,1,.576.6,25.406,25.406,0,0,0-3.9,5.88,66.844,66.844,0,0,1-3.237,18.72l-.784-.276a62.468,62.468,0,0,0,2.11-8.322c.276-1.477.546-3.2.748-5.07a16.4,16.4,0,0,0-4.4-3.709,1.541,1.541,0,1,1,.347-.761,17.983,17.983,0,0,1,4.163,3.321,49.515,49.515,0,0,0-.148-10.88,1.542,1.542,0,1,1,.567-2.993Z" transform="translate(-1974.567 -1441.708)" fill="#8aa27d"/>
      <path id="Trazado_51546" data-name="Trazado 51546" d="M2022.452,1487.455a16.392,16.392,0,0,0-2.808-5.02,1.54,1.54,0,1,1,.592-.59,17.982,17.982,0,0,1,2.726,4.575,49.515,49.515,0,0,0,3.693-10.235,1.545,1.545,0,1,1,.832.095,44.351,44.351,0,0,1-1.522,5.155,24.028,24.028,0,0,1,4.752-3.192,1.548,1.548,0,1,1,.327.766,25.383,25.383,0,0,0-5.726,4.128,66.843,66.843,0,0,1-9.623,16.38l-.637-.535a62.436,62.436,0,0,0,4.907-7.045C2020.744,1490.651,2021.6,1489.138,2022.452,1487.455Z" transform="translate(-2007.132 -1467.047)" fill="#8aa27d"/>
    </g>
  </g>
</svg>
