<svg xmlns="http://www.w3.org/2000/svg" width="140.792" height="114.676" viewBox="0 0 140.792 114.676">
  <g id="Grupo_17527" data-name="Grupo 17527" transform="translate(-306.159 -75.944)">
    <g id="Grupo_17491" data-name="Grupo 17491">
      <g id="Grupo_17489" data-name="Grupo 17489">
        <path id="Trazado_45591" data-name="Trazado 45591" d="M321.429,82.447V89.9H313.41V116.66h3.136V93.04h4.882v73.041l7.921,23.605,7.92-23.605V82.447Z" fill="#38b4c1"/>
      </g>
      <g id="Grupo_17490" data-name="Grupo 17490">
        <path id="Trazado_45592" data-name="Trazado 45592" d="M329.35,79.081a2.725,2.725,0,0,1,2.723,2.722h3.136a5.86,5.86,0,0,0-11.719,0h3.136A2.726,2.726,0,0,1,329.35,79.081Z" fill="#38b4c1"/>
      </g>
    </g>
    <g id="Grupo_17492" data-name="Grupo 17492">
      <path id="Trazado_45593" data-name="Trazado 45593" d="M390.61,178.633" fill="none" stroke="#4e90f2" stroke-miterlimit="10" stroke-width="3"/>
    </g>
    <g id="Grupo_17493" data-name="Grupo 17493">
      <path id="Trazado_45594" data-name="Trazado 45594" d="M364.69,178.633" fill="none" stroke="#4e90f2" stroke-miterlimit="10" stroke-width="3"/>
    </g>
    <g id="Grupo_17495" data-name="Grupo 17495">
      <g id="Grupo_17494" data-name="Grupo 17494">
        <path id="Trazado_45595" data-name="Trazado 45595" d="M423,99.318v89.734H346.187V82.065h59.558Z" fill="#ffdc7b"/>
      </g>
    </g>
    <g id="Grupo_17497" data-name="Grupo 17497">
      <g id="Grupo_17496" data-name="Grupo 17496">
        <path id="Trazado_45596" data-name="Trazado 45596" d="M359.357,164.227V82.065h-13.17V189.052H423v-13.17H371.012A11.656,11.656,0,0,1,359.357,164.227Z" fill="#edc45f"/>
      </g>
    </g>
    <g id="Grupo_17499" data-name="Grupo 17499">
      <g id="Grupo_17498" data-name="Grupo 17498">
        <rect id="Rectángulo_4384" data-name="Rectángulo 4384" width="36.981" height="14.797" transform="translate(359.403 99.318)" fill="#fff"/>
      </g>
    </g>
    <g id="Grupo_17526" data-name="Grupo 17526">
      <g id="Grupo_17501" data-name="Grupo 17501">
        <g id="Grupo_17500" data-name="Grupo 17500">
          <path id="Trazado_45597" data-name="Trazado 45597" d="M424.567,190.62H344.619V80.5h61.775l18.173,18.172Zm-76.812-3.136h73.676V99.968L405.1,83.633h-57.34Z"/>
        </g>
      </g>
      <g id="Grupo_17503" data-name="Grupo 17503">
        <g id="Grupo_17502" data-name="Grupo 17502">
          <rect id="Rectángulo_4385" data-name="Rectángulo 4385" width="36.98" height="3.136" transform="translate(358.065 97.751)"/>
        </g>
      </g>
      <g id="Grupo_17505" data-name="Grupo 17505">
        <g id="Grupo_17504" data-name="Grupo 17504">
          <rect id="Rectángulo_4386" data-name="Rectángulo 4386" width="52.632" height="3.136" transform="translate(358.907 127.344)"/>
        </g>
      </g>
      <g id="Grupo_17507" data-name="Grupo 17507">
        <g id="Grupo_17506" data-name="Grupo 17506">
          <rect id="Rectángulo_4387" data-name="Rectángulo 4387" width="52.632" height="3.136" transform="translate(358.907 142.141)"/>
        </g>
      </g>
      <g id="Grupo_17509" data-name="Grupo 17509">
        <g id="Grupo_17508" data-name="Grupo 17508">
          <rect id="Rectángulo_4388" data-name="Rectángulo 4388" width="52.632" height="3.136" transform="translate(358.907 156.938)"/>
        </g>
      </g>
      <g id="Grupo_17511" data-name="Grupo 17511">
        <g id="Grupo_17510" data-name="Grupo 17510">
          <rect id="Rectángulo_4389" data-name="Rectángulo 4389" width="36.138" height="3.136" transform="translate(358.907 171.735)"/>
        </g>
      </g>
      <g id="Grupo_17513" data-name="Grupo 17513">
        <g id="Grupo_17512" data-name="Grupo 17512">
          <path id="Trazado_45598" data-name="Trazado 45598" d="M396.614,115.683H356.5V97.751h40.117Zm-36.981-3.136h33.844v-11.66H359.633Z"/>
        </g>
      </g>
      <g id="Grupo_17515" data-name="Grupo 17515">
        <g id="Grupo_17514" data-name="Grupo 17514">
          <path id="Trazado_45599" data-name="Trazado 45599" d="M329.35,189.686l-7.922-23.605V82.447H337.27v83.634Zm-4.785-24.118,4.785,14.26,4.784-14.26V85.583h-9.569Z"/>
        </g>
      </g>
      <g id="Grupo_17517" data-name="Grupo 17517">
        <g id="Grupo_17516" data-name="Grupo 17516">
          <path id="Trazado_45600" data-name="Trazado 45600" d="M316.546,116.66H313.41V89.9H335.7V93.04H316.546Z"/>
        </g>
      </g>
      <g id="Grupo_17519" data-name="Grupo 17519">
        <g id="Grupo_17518" data-name="Grupo 17518">
          <path id="Trazado_45601" data-name="Trazado 45601" d="M335.209,81.8h-3.136a2.723,2.723,0,0,0-5.447,0H323.49a5.86,5.86,0,0,1,11.719,0Z"/>
        </g>
      </g>
      <g id="Grupo_17521" data-name="Grupo 17521">
        <g id="Grupo_17520" data-name="Grupo 17520">
          <rect id="Rectángulo_4390" data-name="Rectángulo 4390" width="12.706" height="3.136" transform="translate(322.997 145.88)"/>
        </g>
      </g>
      <g id="Grupo_17523" data-name="Grupo 17523">
        <g id="Grupo_17522" data-name="Grupo 17522">
          <rect id="Rectángulo_4391" data-name="Rectángulo 4391" width="140.792" height="3.136" transform="translate(306.159 187.484)"/>
        </g>
      </g>
      <g id="Grupo_17525" data-name="Grupo 17525">
        <g id="Grupo_17524" data-name="Grupo 17524">
          <path id="Trazado_45602" data-name="Trazado 45602" d="M421.716,100.887h-17.54V83.322h3.136V97.751h14.4Z"/>
        </g>
      </g>
    </g>
  </g>
</svg>
