<svg xmlns="http://www.w3.org/2000/svg" width="399.624" height="265.112" viewBox="0 0 399.624 265.112">
  <g id="Grupo_20085" data-name="Grupo 20085" transform="translate(-395.898 -333.278)">
    <g id="Grupo_20080" data-name="Grupo 20080" transform="translate(445.317 333.278)">
      <path id="Trazado_51176" data-name="Trazado 51176" d="M550.467,375.761c-1.758-4.515-5.821-9.94-7.063-11.654-4.183-5.773-3.378-6.738-8.211-13.862-1.494-2.2-2.394-4.88-4.327-6.71a6.377,6.377,0,0,1-2.119-3.62,2.032,2.032,0,0,1,.353-1.677,1.985,1.985,0,0,1,1.589-.353c1.555.136,3.137-.065,4.68.177,2.741.428,2.628-.129,5.827.176s3.448.881,8.388,1.766a23.228,23.228,0,0,0,5.3.618,15.962,15.962,0,0,0,6.71-1.942c3.341-1.837,3.074-3.279,5.916-4.415a9.99,9.99,0,0,1,6.357-.441c2.167.647,2.3,1.7,6.887,5.121a20.61,20.61,0,0,0,4.326,2.825c2.807,1.1,5.391.809,8.3.441,4.466-.564,5.383-1.637,8.652-1.236,1.516.186,3.546.465,4.591,2.031,1.025,1.535.544,3.469.265,4.591-.45,1.81-1.27,2.846-3.884,6.268-1.274,1.669-2.7,3.541-3.355,4.415-3.763,5-3.142,4.777-5.386,7.5-1.676,2.038-3.134,4.262-4.945,6.18a5.352,5.352,0,0,0-1.412,2.3c-.238.852-.14,1.475.264,3.8a37.914,37.914,0,0,0,.795,4.061,8.73,8.73,0,0,0,2.825,3.444c3.35,2.673,5.025,4.009,9.006,6.71a55.605,55.605,0,0,1,8.741,7.681,89.262,89.262,0,0,1,8.917,10.6,107.558,107.558,0,0,1,10.242,15.8c2.638,5.078,4.055,8.948,6.887,16.687,1.475,4.03,2.909,7.976,4.415,13.421,1.234,4.462,1.913,7.748,3.267,14.3,1.006,4.872,1.641,7.945,2.3,12.273.946,6.254,1.419,9.382,1.324,13.244a36.791,36.791,0,0,1-2.3,13.331,28.382,28.382,0,0,1-8.3,12.1,32.33,32.33,0,0,1-7.063,4.238,51.138,51.138,0,0,1-10.242,3.62c-3.865.934-7.073,1.194-13.332,1.677-4.932.381-8.666.5-9.536.53-17.259.542-33.1.117-37.17,0-8.5-.245-12.56-.5-15.451-.706-8.659-.631-13.1-.977-18.453-2.472a44.367,44.367,0,0,1-14.3-6.18c-2.862-1.964-10.469-7.336-13.773-17.04-1.31-3.848-1.4-7.215-1.589-13.95a92.134,92.134,0,0,1,1.06-17.04c.935-5.65,3.226-11.908,7.77-24.192,3.737-10.1,5.605-15.155,7.77-19.513a130.517,130.517,0,0,1,11.3-18.541,174.589,174.589,0,0,1,13.685-16.687c4.593-5.054,6.889-7.581,8.034-8.476a21.228,21.228,0,0,0,3.8-3.8c1.5-1.786,1.931-2.716,2.119-3.62A6.643,6.643,0,0,0,550.467,375.761Z" transform="translate(-495.337 -333.379)" fill="#fac15c"/>
      <path id="Trazado_51177" data-name="Trazado 51177" d="M637.189,333.281c2.167.647,2.3,1.7,6.887,5.121a20.655,20.655,0,0,0,4.326,2.825c2.807,1.1,5.391.808,8.3.441,4.466-.564,5.383-1.638,8.652-1.236,1.516.186,3.546.465,4.591,2.031,1.025,1.535.544,3.469.265,4.591-.45,1.81-1.27,2.846-3.884,6.268-1.274,1.668-2.7,3.54-3.355,4.415-3.763,5-3.142,4.777-5.386,7.5-1.676,2.037-3.134,4.261-4.945,6.18a5.351,5.351,0,0,0-1.412,2.3c-.238.852-.14,1.475.264,3.8a37.942,37.942,0,0,0,.795,4.061,8.734,8.734,0,0,0,2.825,3.444c3.35,2.673,5.025,4.009,9.006,6.71a55.584,55.584,0,0,1,8.741,7.681,89.272,89.272,0,0,1,8.917,10.6,107.5,107.5,0,0,1,10.242,15.8c2.639,5.078,4.055,8.948,6.887,16.687,1.475,4.03,2.909,7.976,4.415,13.42,1.234,4.462,1.913,7.749,3.267,14.3,1.006,4.872,1.641,7.944,2.3,12.273.946,6.255,1.419,9.382,1.324,13.244a36.793,36.793,0,0,1-2.3,13.332,28.384,28.384,0,0,1-8.3,12.1,32.326,32.326,0,0,1-7.063,4.238,51.167,51.167,0,0,1-10.242,3.62c-3.865.933-7.073,1.194-13.332,1.677-4.932.381-8.666.5-9.536.53-17.259.541-33.1.117-37.17,0-1.373-.04-2.653.29,4.982-3.9,14.422-7.911,49.332-14.358,50.591-32.579,1.369-19.813-16.769-55.152-25.163-74.43-8.713-20.01-19.569-35.317-18.239-46.883C636.958,351.553,636.357,333.032,637.189,333.281Z" transform="translate(-558.662 -333.278)" fill="#bf903a" opacity="0.4"/>
      <path id="Trazado_51178" data-name="Trazado 51178" d="M589.346,408.722l5.033-27.547L575.888,341.81l6.93.308,12.583,2.252,3.234,36.849Z" transform="translate(-535.855 -337.57)" fill="#bb8526" opacity="0.4"/>
      <path id="Trazado_51179" data-name="Trazado 51179" d="M522.982,651.319c4.87,2.679,13.479-.8,10.951,1.043-3.808,2.783-7.945,5.094-12.816,2.414s-5.729-7.558-4.822-12.116C517.323,637.5,518.112,648.64,522.982,651.319Z" transform="translate(-505.719 -488.224)" fill="#bb8526" opacity="0.4"/>
      <path id="Trazado_51180" data-name="Trazado 51180" d="M548.175,685.357c5.39,1.361,12.309-2.089,10.539-.488-2.667,2.412-5.79,4.523-11.18,3.162s-7.736-4.742-8.337-8.092C538.516,676.143,542.786,684,548.175,685.357Z" transform="translate(-517.363 -507.138)" fill="#bb8526" opacity="0.4"/>
      <path id="Trazado_51181" data-name="Trazado 51181" d="M639.358,417.291l-42.886,4.982a2.524,2.524,0,0,1-2.79-2.21h0a2.523,2.523,0,0,1,2.209-2.79l42.886-4.982a2.524,2.524,0,0,1,2.79,2.209h0A2.524,2.524,0,0,1,639.358,417.291Z" transform="translate(-544.798 -373.015)" fill="#3c3c3b"/>
      <path id="Trazado_51182" data-name="Trazado 51182" d="M639.224,429.668l-43.09,2.705a2.523,2.523,0,0,1-2.669-2.353h0a2.523,2.523,0,0,1,2.354-2.669l43.089-2.706A2.524,2.524,0,0,1,641.577,427h0A2.524,2.524,0,0,1,639.224,429.668Z" transform="translate(-544.694 -379.235)" fill="#3c3c3b"/>
      <g id="Grupo_20078" data-name="Grupo 20078" transform="translate(74.051 42.42)">
        <path id="Trazado_51183" data-name="Trazado 51183" d="M649.469,447.367a90.325,90.325,0,0,0,.123-26.823l-4.819,2.032A167.071,167.071,0,0,0,666.917,455.3c2.236,2.56,5.953-1.182,3.728-3.729a161.394,161.394,0,0,1-21.32-31.658,2.63,2.63,0,0,0-3.293-1.079,2.694,2.694,0,0,0-1.527,3.11,81.723,81.723,0,0,1-.122,24.02,2.723,2.723,0,0,0,1.841,3.243,2.655,2.655,0,0,0,3.243-1.842Z" transform="translate(-644.338 -418.634)" fill="#3c3c3b"/>
      </g>
      <g id="Grupo_20079" data-name="Grupo 20079" transform="translate(52.186 84.018)">
        <path id="Trazado_51184" data-name="Trazado 51184" d="M647.4,527.851l-19.53-.512.072-2.721q.112-4.347-.527-5.7t-2.864-1.415a3.183,3.183,0,0,0-2.715,1.086,5.622,5.622,0,0,0-.987,3.45q-.1,3.858,1.7,5.448,1.751,1.589,10.382,6.286a80.8,80.8,0,0,1,10,6.053,15.832,15.832,0,0,1,4.418,5.806,20.132,20.132,0,0,1,1.623,9.205q-.23,8.772-5.391,13.635t-15.242,5.777l-.161,6.173-8.993-.236.165-6.376a25.774,25.774,0,0,1-13.546-5.415q-5.733-4.557-5.446-15.523l.085-3.208,19.528.512-.105,4.021q-.174,6.619.389,8.239t2.882,1.679a3.686,3.686,0,0,0,2.977-1.038,4.932,4.932,0,0,0,1.054-3.285q.145-5.524-.712-7.923t-6.148-5.342q-8.818-4.945-11.975-7.242a19.037,19.037,0,0,1-5.4-6.378,17.755,17.755,0,0,1-2.1-9.158q.193-7.35,5.256-11.4t15-4.768l.139-5.239,8.993.236-.139,5.239q9.014,1.211,13.4,5.451t4.2,11.509Q647.653,525.783,647.4,527.851Z" transform="translate(-600.343 -502.334)" fill="#3c3c3b"/>
      </g>
    </g>
    <g id="Grupo_20084" data-name="Grupo 20084" transform="translate(395.898 473.194)">
      <g id="Grupo_20081" data-name="Grupo 20081" transform="translate(0 25.335)">
        <path id="Trazado_51185" data-name="Trazado 51185" d="M552.928,684.791c.646-.31,5.421-2.622,12.036-5.4,9.755-4.091,14.633-6.137,19.356-6.909a51.428,51.428,0,0,1,23.162,1.783c5.036,1.554,5.767,2.65,13.477,5.568a131.941,131.941,0,0,0,16.14,4.958l-11.406,57.436-9.892-2.515a75.635,75.635,0,0,0-14.257.381c-4.36.532-10.367,1.655-25.664,7.447-7.633,2.89-14.149,5.644-21.715,8.85-16.111,6.827-18.694,6.88-24.007,7.48-2.965.335-4.22-1.665-15.055-9.576-6.725-4.911-11.681-9.411-15.029-10.9q-31.648-14.081-46.25-24.109c-9.8-6.719-13.211-10.393-24.524-16.722-6.406-3.584-12.622-6.5-20.621-13-6.124-4.98-12.377-10.166-11.02-14.633,1.29-4.244,8.723-5.945,10.431-5.924,10.809.13,18.9,4.284,21.434,5.393,5.681,2.485,11.372,3.851,16.445,6.289,11.869,5.706,22.207,11.8,29.552,13.839C475.523,694.531,511.739,704.561,552.928,684.791Z" transform="translate(-396.69 -667.408)" fill="#e1b287"/>
        <path id="Trazado_51186" data-name="Trazado 51186" d="M551.493,679.477c.64-.323,5.368-2.728,11.928-5.632,9.673-4.283,14.509-6.424,19.216-7.289a51.437,51.437,0,0,1,23.193,1.326c5.066,1.455,5.817,2.537,13.584,5.3a131.905,131.905,0,0,0,16.235,4.638l-10.271,57.65-9.94-2.319a75.681,75.681,0,0,0-14.247.663c-4.349.618-10.332,1.859-25.512,7.952-7.574,3.04-14.035,5.922-21.536,9.277-15.974,7.144-18.554,7.248-23.855,7.952-2.958.393-4.252-1.581-15.241-9.277-6.821-4.777-11.864-9.179-15.24-10.6q-31.92-13.454-46.716-23.192c-9.932-6.524-13.414-10.13-24.849-16.235-6.475-3.456-12.749-6.246-20.873-12.59-6.222-4.859-12.576-9.92-11.306-14.413,1.206-4.269,8.6-6.116,10.312-6.13,10.809-.083,18.978,3.911,21.536,4.97,5.729,2.372,11.446,3.625,16.566,5.964,11.979,5.471,22.435,11.364,29.819,13.253C474.295,690.742,510.7,700.056,551.493,679.477Z" transform="translate(-395.898 -665.788)" fill="#eebc8f"/>
        <path id="Trazado_51187" data-name="Trazado 51187" d="M646.782,730.956l-24.135,2.287a162.339,162.339,0,0,1-20.848,1.662c-6.983-.034-7.262-1.57-20.469-3.692-14.854-2.386-16.757-2.647-19.859-5.323-5.661-4.884-6.984-14.573-3.06-20.428.925-1.381,2.239-4.607,13.3-6.354,12.362-1.954,17.113.092,24.858.014,9.414-.094,22.964,1.405,41.306-4.723Z" transform="translate(-476.513 -680.18)" fill="#e1b287"/>
        <path id="Trazado_51188" data-name="Trazado 51188" d="M646.408,728.11l-24.186,1.657a162.483,162.483,0,0,1-20.884,1.118c-6.98-.216-7.219-1.759-20.365-4.224-14.787-2.773-16.683-3.083-19.714-5.839-5.532-5.031-6.6-14.75-2.526-20.5.961-1.356,2.359-4.547,13.46-6.005,12.409-1.63,17.1.539,24.849.663,9.413.151,22.919,2,41.415-3.645Z" transform="translate(-476.567 -678.637)" fill="#eebc8f"/>
        <path id="Trazado_51189" data-name="Trazado 51189" d="M416.225,703.99c-.116-1.759-.649-6.657-3.727-9.883-2.615-2.74-5.91-3.679-8.7-4.473a41.3,41.3,0,0,0-5.938-1.185l3.2,3.92,4.72,4.1Z" transform="translate(-396.886 -677.187)" fill="#f9e8d8"/>
        <path id="Trazado_51190" data-name="Trazado 51190" d="M576.666,727.358h-4.576c-5.563,0-10.114-5.03-10.114-11.179h0c0-6.148,4.551-11.179,10.114-11.179h4.576c3.644,0,6.6,3.265,6.6,7.293v7.772C583.264,724.093,580.31,727.358,576.666,727.358Z" transform="translate(-479.439 -685.512)" fill="#f9e8d8"/>
        <path id="Trazado_51191" data-name="Trazado 51191" d="M599.578,727.4h-.81c-.985,0-1.791-3.39-1.791-7.534h0c0-4.144.806-7.534,1.791-7.534h.81c.645,0,1.168,2.2,1.168,4.916v5.238C600.746,725.2,600.223,727.4,599.578,727.4Z" transform="translate(-497.044 -689.201)" fill="#fdf6ef"/>
      </g>
      <g id="Grupo_20083" data-name="Grupo 20083" transform="translate(218.403 0)">
        <rect id="Rectángulo_5223" data-name="Rectángulo 5223" width="82.55" height="16.544" transform="translate(0 103.873) rotate(-90)" fill="#fcfcfc"/>
        <rect id="Rectángulo_5224" data-name="Rectángulo 5224" width="41.275" height="16.544" transform="translate(0 62.598) rotate(-90)" fill="#fff"/>
        <g id="Grupo_20082" data-name="Grupo 20082" transform="translate(16.544)">
          <path id="Trazado_51192" data-name="Trazado 51192" d="M0,0H125.2V164.677H0Z" transform="translate(0 125.196) rotate(-90)" fill="#2d4962"/>
          <rect id="Rectángulo_5226" data-name="Rectángulo 5226" width="62.598" height="164.677" transform="translate(0 62.598) rotate(-90)" fill="#32526e"/>
        </g>
      </g>
    </g>
  </g>
</svg>
